<svg width="584" height="96" viewBox="0 0 584 96" fill="none" xmlns="http://www.w3.org/2000/svg">
<g clip-path="url(#clip0_7_43)">
<path d="M355 48L325 30.6795V65.3205L355 48ZM227 51H328V45H227V51Z" fill="#4B90F3"/>
<rect x="358" y="3" width="223" height="90" rx="45" stroke="#4B90F3" stroke-width="6"/>
<path d="M401.975 40.04H407.207V44.168H407.447C407.991 42.664 408.871 41.512 410.087 40.712C411.335 39.88 412.791 39.464 414.455 39.464C417.623 39.464 420.071 40.616 421.799 42.92C423.527 45.192 424.391 48.392 424.391 52.52C424.391 56.648 423.527 59.864 421.799 62.168C420.071 64.44 417.623 65.576 414.455 65.576C412.791 65.576 411.335 65.16 410.087 64.328C408.871 63.496 407.991 62.344 407.447 60.872H407.207V74.6H401.975V40.04ZM412.871 61.064C414.695 61.064 416.151 60.488 417.239 59.336C418.327 58.152 418.871 56.6 418.871 54.68V50.36C418.871 48.44 418.327 46.904 417.239 45.752C416.151 44.568 414.695 43.976 412.871 43.976C411.271 43.976 409.927 44.376 408.839 45.176C407.751 45.944 407.207 46.968 407.207 48.248V56.792C407.207 58.072 407.751 59.112 408.839 59.912C409.927 60.68 411.271 61.064 412.871 61.064ZM448.19 65C446.814 65 445.758 64.616 445.022 63.848C444.286 63.048 443.838 62.04 443.678 60.824H443.438C442.958 62.392 442.078 63.576 440.798 64.376C439.518 65.176 437.966 65.576 436.142 65.576C433.55 65.576 431.55 64.904 430.142 63.56C428.766 62.216 428.078 60.408 428.078 58.136C428.078 55.64 428.974 53.768 430.766 52.52C432.59 51.272 435.246 50.648 438.734 50.648H443.246V48.536C443.246 47 442.83 45.816 441.998 44.984C441.166 44.152 439.87 43.736 438.11 43.736C436.638 43.736 435.438 44.056 434.51 44.696C433.582 45.336 432.798 46.152 432.158 47.144L429.038 44.312C429.87 42.904 431.038 41.752 432.542 40.856C434.046 39.928 436.014 39.464 438.446 39.464C441.678 39.464 444.158 40.216 445.886 41.72C447.614 43.224 448.478 45.384 448.478 48.2V60.728H451.118V65H448.19ZM437.63 61.592C439.262 61.592 440.606 61.24 441.662 60.536C442.718 59.8 443.246 58.824 443.246 57.608V54.008H438.83C435.214 54.008 433.406 55.128 433.406 57.368V58.232C433.406 59.352 433.774 60.2 434.51 60.776C435.278 61.32 436.318 61.592 437.63 61.592ZM455.765 65V40.04H460.997V44.84H461.237C461.589 43.56 462.325 42.44 463.445 41.48C464.565 40.52 466.117 40.04 468.101 40.04H469.493V45.08H467.429C465.349 45.08 463.749 45.416 462.629 46.088C461.541 46.76 460.997 47.752 460.997 49.064V65H455.765ZM483.218 65.576C481.426 65.576 479.826 65.272 478.418 64.664C477.01 64.056 475.81 63.192 474.818 62.072C473.826 60.92 473.058 59.544 472.514 57.944C472.002 56.312 471.746 54.504 471.746 52.52C471.746 50.536 472.002 48.744 472.514 47.144C473.058 45.512 473.826 44.136 474.818 43.016C475.81 41.864 477.01 40.984 478.418 40.376C479.826 39.768 481.426 39.464 483.218 39.464C485.042 39.464 486.642 39.784 488.018 40.424C489.426 41.064 490.594 41.96 491.522 43.112C492.45 44.232 493.138 45.544 493.586 47.048C494.066 48.552 494.306 50.168 494.306 51.896V53.864H477.17V54.68C477.17 56.6 477.73 58.184 478.85 59.432C480.002 60.648 481.634 61.256 483.746 61.256C485.282 61.256 486.578 60.92 487.634 60.248C488.69 59.576 489.586 58.664 490.322 57.512L493.394 60.536C492.466 62.072 491.122 63.304 489.362 64.232C487.602 65.128 485.554 65.576 483.218 65.576ZM483.218 43.544C482.322 43.544 481.49 43.704 480.722 44.024C479.986 44.344 479.346 44.792 478.802 45.368C478.29 45.944 477.89 46.632 477.602 47.432C477.314 48.232 477.17 49.112 477.17 50.072V50.408H488.786V49.928C488.786 48.008 488.29 46.472 487.298 45.32C486.306 44.136 484.946 43.544 483.218 43.544ZM499.618 65V40.04H504.85V44.168H505.09C505.634 42.824 506.45 41.704 507.538 40.808C508.658 39.912 510.178 39.464 512.098 39.464C514.658 39.464 516.642 40.312 518.05 42.008C519.49 43.672 520.21 46.056 520.21 49.16V65H514.978V49.832C514.978 45.928 513.41 43.976 510.274 43.976C509.602 43.976 508.93 44.072 508.258 44.264C507.618 44.424 507.042 44.68 506.53 45.032C506.018 45.384 505.602 45.832 505.282 46.376C504.994 46.92 504.85 47.56 504.85 48.296V65H499.618ZM533.893 65C532.069 65 530.693 64.536 529.765 63.608C528.837 62.648 528.373 61.304 528.373 59.576V44.312H524.485V40.04H526.597C527.461 40.04 528.053 39.848 528.373 39.464C528.725 39.08 528.901 38.456 528.901 37.592V33.224H533.605V40.04H538.837V44.312H533.605V60.728H538.453V65H533.893Z" fill="#4B90F3"/>
<rect x="3" y="3" width="223" height="90" rx="45" stroke="#4B90F3" stroke-width="6"/>
<path d="M75.2973 65.576C73.5053 65.576 71.9053 65.272 70.4973 64.664C69.0893 64.056 67.9053 63.192 66.9453 62.072C65.9853 60.92 65.2493 59.544 64.7373 57.944C64.2253 56.312 63.9693 54.504 63.9693 52.52C63.9693 50.536 64.2253 48.744 64.7373 47.144C65.2493 45.512 65.9853 44.136 66.9453 43.016C67.9053 41.864 69.0893 40.984 70.4973 40.376C71.9053 39.768 73.5053 39.464 75.2973 39.464C77.7933 39.464 79.8413 40.024 81.4413 41.144C83.0413 42.264 84.2093 43.752 84.9453 45.608L80.6253 47.624C80.2733 46.472 79.6493 45.56 78.7533 44.888C77.8893 44.184 76.7373 43.832 75.2973 43.832C73.3773 43.832 71.9213 44.44 70.9293 45.656C69.9693 46.84 69.4893 48.392 69.4893 50.312V54.776C69.4893 56.696 69.9693 58.264 70.9293 59.48C71.9213 60.664 73.3773 61.256 75.2973 61.256C76.8333 61.256 78.0493 60.888 78.9453 60.152C79.8733 59.384 80.6093 58.376 81.1533 57.128L85.1373 59.24C84.3053 61.288 83.0573 62.856 81.3933 63.944C79.7293 65.032 77.6973 65.576 75.2973 65.576ZM89.6381 29.48H94.8701V44.168H95.1101C95.6541 42.824 96.4701 41.704 97.5581 40.808C98.6781 39.912 100.198 39.464 102.118 39.464C104.678 39.464 106.662 40.312 108.07 42.008C109.51 43.672 110.23 46.056 110.23 49.16V65H104.998V49.784C104.998 45.912 103.43 43.976 100.294 43.976C99.6221 43.976 98.9501 44.072 98.2781 44.264C97.6381 44.424 97.0621 44.68 96.5501 45.032C96.0381 45.384 95.6221 45.832 95.3021 46.376C95.0141 46.92 94.8701 47.544 94.8701 48.248V65H89.6381V29.48ZM119.642 35.576C118.554 35.576 117.754 35.32 117.242 34.808C116.762 34.296 116.522 33.64 116.522 32.84V32.024C116.522 31.224 116.762 30.568 117.242 30.056C117.754 29.544 118.554 29.288 119.642 29.288C120.73 29.288 121.514 29.544 121.994 30.056C122.474 30.568 122.714 31.224 122.714 32.024V32.84C122.714 33.64 122.474 34.296 121.994 34.808C121.514 35.32 120.73 35.576 119.642 35.576ZM117.002 40.04H122.234V65H117.002V40.04ZM134.553 65C132.761 65 131.417 64.552 130.521 63.656C129.657 62.728 129.225 61.448 129.225 59.816V29.48H134.457V60.728H137.913V65H134.553ZM158.128 60.872H157.888C157.344 62.344 156.448 63.496 155.2 64.328C153.984 65.16 152.544 65.576 150.88 65.576C147.712 65.576 145.264 64.44 143.536 62.168C141.808 59.864 140.944 56.648 140.944 52.52C140.944 48.392 141.808 45.192 143.536 42.92C145.264 40.616 147.712 39.464 150.88 39.464C152.544 39.464 153.984 39.88 155.2 40.712C156.448 41.512 157.344 42.664 157.888 44.168H158.128V29.48H163.36V65H158.128V60.872ZM152.464 61.064C154.064 61.064 155.408 60.68 156.496 59.912C157.584 59.112 158.128 58.072 158.128 56.792V48.248C158.128 46.968 157.584 45.944 156.496 45.176C155.408 44.376 154.064 43.976 152.464 43.976C150.64 43.976 149.184 44.568 148.096 45.752C147.008 46.904 146.464 48.44 146.464 50.36V54.68C146.464 56.6 147.008 58.152 148.096 59.336C149.184 60.488 150.64 61.064 152.464 61.064Z" fill="#4B90F3"/>
</g>
<defs>
<clipPath id="clip0_7_43">
<rect width="584" height="96" fill="white"/>
</clipPath>
</defs>
</svg>
