<svg width="584" height="96" viewBox="0 0 584 96" fill="none" xmlns="http://www.w3.org/2000/svg">
<g clip-path="url(#clip0_4_2)">
<path d="M355 48L340 39.3397V56.6603L355 48ZM227 49.5H229.909V46.5H227V49.5ZM235.727 49.5H241.545V46.5H235.727V49.5ZM247.364 49.5H253.182V46.5H247.364V49.5ZM259 49.5H264.818V46.5H259V49.5ZM270.636 49.5H276.455V46.5H270.636V49.5ZM282.273 49.5H288.091V46.5H282.273V49.5ZM293.909 49.5H299.727V46.5H293.909V49.5ZM305.545 49.5H311.364V46.5H305.545V49.5ZM317.182 49.5H323V46.5H317.182V49.5ZM328.818 49.5H334.636V46.5H328.818V49.5ZM340.455 49.5H346.273V46.5H340.455V49.5ZM355 48L325 30.6795V65.3205L355 48ZM227 51H229.909V45H227V51ZM235.727 51H241.545V45H235.727V51ZM247.364 51H253.182V45H247.364V51ZM259 51H264.818V45H259V51ZM270.636 51H276.455V45H270.636V51ZM282.273 51H288.091V45H282.273V51ZM293.909 51H299.727V45H293.909V51ZM305.545 51H311.364V45H305.545V51ZM317.182 51H323V45H317.182V51ZM328.818 51H334.636V45H328.818V51ZM340.455 51H346.273V45H340.455V51Z" fill="#14BF06"/>
<rect x="358" y="3" width="223" height="90" rx="45" stroke="#4B90F3" stroke-width="6"/>
<path d="M415.825 65C414.001 65 412.625 64.536 411.697 63.608C410.769 62.648 410.305 61.304 410.305 59.576V44.312H406.417V40.04H408.529C409.393 40.04 409.985 39.848 410.305 39.464C410.657 39.08 410.833 38.456 410.833 37.592V33.224H415.537V40.04H420.769V44.312H415.537V60.728H420.385V65H415.825ZM444.252 65C442.876 65 441.82 64.616 441.084 63.848C440.348 63.048 439.9 62.04 439.74 60.824H439.5C439.02 62.392 438.14 63.576 436.86 64.376C435.58 65.176 434.028 65.576 432.204 65.576C429.612 65.576 427.612 64.904 426.204 63.56C424.828 62.216 424.14 60.408 424.14 58.136C424.14 55.64 425.036 53.768 426.828 52.52C428.652 51.272 431.308 50.648 434.796 50.648H439.308V48.536C439.308 47 438.892 45.816 438.06 44.984C437.228 44.152 435.932 43.736 434.172 43.736C432.7 43.736 431.5 44.056 430.572 44.696C429.644 45.336 428.86 46.152 428.22 47.144L425.1 44.312C425.932 42.904 427.1 41.752 428.604 40.856C430.108 39.928 432.076 39.464 434.508 39.464C437.74 39.464 440.22 40.216 441.948 41.72C443.676 43.224 444.54 45.384 444.54 48.2V60.728H447.18V65H444.252ZM433.692 61.592C435.324 61.592 436.668 61.24 437.724 60.536C438.78 59.8 439.308 58.824 439.308 57.608V54.008H434.892C431.276 54.008 429.468 55.128 429.468 57.368V58.232C429.468 59.352 429.836 60.2 430.572 60.776C431.34 61.32 432.38 61.592 433.692 61.592ZM451.828 65V40.04H457.06V44.84H457.3C457.652 43.56 458.388 42.44 459.508 41.48C460.628 40.52 462.18 40.04 464.164 40.04H465.556V45.08H463.492C461.412 45.08 459.812 45.416 458.692 46.088C457.604 46.76 457.06 47.752 457.06 49.064V65H451.828ZM490.72 67.352C490.72 69.944 489.728 71.896 487.744 73.208C485.76 74.52 482.528 75.176 478.048 75.176C476 75.176 474.256 75.032 472.816 74.744C471.408 74.488 470.24 74.104 469.312 73.592C468.416 73.08 467.76 72.456 467.344 71.72C466.928 70.984 466.72 70.136 466.72 69.176C466.72 67.8 467.088 66.728 467.824 65.96C468.592 65.192 469.648 64.664 470.992 64.376V63.848C469.104 63.24 468.16 61.96 468.16 60.008C468.16 58.728 468.592 57.752 469.456 57.08C470.32 56.376 471.36 55.88 472.576 55.592V55.4C471.104 54.696 469.968 53.72 469.168 52.472C468.4 51.192 468.016 49.704 468.016 48.008C468.016 45.448 468.864 43.384 470.56 41.816C472.288 40.248 474.752 39.464 477.952 39.464C479.712 39.464 481.216 39.72 482.464 40.232V39.56C482.464 38.44 482.72 37.576 483.232 36.968C483.776 36.328 484.608 36.008 485.728 36.008H489.568V40.232H484.48V41.24C485.6 41.976 486.464 42.936 487.072 44.12C487.68 45.272 487.984 46.568 487.984 48.008C487.984 50.536 487.12 52.584 485.392 54.152C483.664 55.688 481.2 56.456 478 56.456C476.784 56.456 475.696 56.328 474.736 56.072C474.096 56.296 473.536 56.616 473.056 57.032C472.576 57.416 472.336 57.928 472.336 58.568C472.336 59.24 472.64 59.72 473.248 60.008C473.856 60.296 474.72 60.44 475.84 60.44H481.984C485.056 60.44 487.28 61.064 488.656 62.312C490.032 63.528 490.72 65.208 490.72 67.352ZM485.824 67.928C485.824 67.064 485.488 66.376 484.816 65.864C484.176 65.352 482.992 65.096 481.264 65.096H472.816C471.664 65.768 471.088 66.728 471.088 67.976C471.088 69 471.488 69.816 472.288 70.424C473.12 71.064 474.512 71.384 476.464 71.384H479.728C483.792 71.384 485.824 70.232 485.824 67.928ZM478 52.664C479.536 52.664 480.72 52.328 481.552 51.656C482.416 50.952 482.848 49.88 482.848 48.44V47.48C482.848 46.04 482.416 44.984 481.552 44.312C480.72 43.608 479.536 43.256 478 43.256C476.464 43.256 475.264 43.608 474.4 44.312C473.568 44.984 473.152 46.04 473.152 47.48V48.44C473.152 49.88 473.568 50.952 474.4 51.656C475.264 52.328 476.464 52.664 478 52.664ZM503.644 65.576C501.852 65.576 500.252 65.272 498.844 64.664C497.436 64.056 496.236 63.192 495.244 62.072C494.252 60.92 493.484 59.544 492.94 57.944C492.428 56.312 492.172 54.504 492.172 52.52C492.172 50.536 492.428 48.744 492.94 47.144C493.484 45.512 494.252 44.136 495.244 43.016C496.236 41.864 497.436 40.984 498.844 40.376C500.252 39.768 501.852 39.464 503.644 39.464C505.468 39.464 507.068 39.784 508.444 40.424C509.852 41.064 511.02 41.96 511.948 43.112C512.876 44.232 513.564 45.544 514.012 47.048C514.492 48.552 514.732 50.168 514.732 51.896V53.864H497.596V54.68C497.596 56.6 498.156 58.184 499.276 59.432C500.428 60.648 502.06 61.256 504.172 61.256C505.708 61.256 507.004 60.92 508.06 60.248C509.116 59.576 510.012 58.664 510.748 57.512L513.82 60.536C512.892 62.072 511.548 63.304 509.788 64.232C508.028 65.128 505.98 65.576 503.644 65.576ZM503.644 43.544C502.748 43.544 501.916 43.704 501.148 44.024C500.412 44.344 499.772 44.792 499.228 45.368C498.716 45.944 498.316 46.632 498.028 47.432C497.74 48.232 497.596 49.112 497.596 50.072V50.408H509.212V49.928C509.212 48.008 508.716 46.472 507.724 45.32C506.732 44.136 505.372 43.544 503.644 43.544ZM526.956 65C525.132 65 523.756 64.536 522.828 63.608C521.9 62.648 521.436 61.304 521.436 59.576V44.312H517.548V40.04H519.66C520.524 40.04 521.116 39.848 521.436 39.464C521.788 39.08 521.964 38.456 521.964 37.592V33.224H526.668V40.04H531.9V44.312H526.668V60.728H531.516V65H526.956Z" fill="#4B90F3"/>
<rect x="3" y="3" width="223" height="90" rx="45" stroke="#4B90F3" stroke-width="6"/>
<path d="M53.5359 65.576C51.1679 65.576 49.1839 65.16 47.5839 64.328C45.9839 63.496 44.5919 62.344 43.4079 60.872L46.7679 57.8C47.6959 58.92 48.7199 59.8 49.8399 60.44C50.9919 61.048 52.3199 61.352 53.8239 61.352C55.3599 61.352 56.4959 61.064 57.2319 60.488C57.9999 59.88 58.3839 59.048 58.3839 57.992C58.3839 57.192 58.1119 56.52 57.5679 55.976C57.0559 55.4 56.1439 55.032 54.8319 54.872L52.5279 54.584C49.9679 54.264 47.9519 53.528 46.4799 52.376C45.0399 51.192 44.3199 49.448 44.3199 47.144C44.3199 45.928 44.5439 44.856 44.9919 43.928C45.4399 42.968 46.0639 42.168 46.8639 41.528C47.6959 40.856 48.6719 40.344 49.7919 39.992C50.9439 39.64 52.2079 39.464 53.5839 39.464C55.8239 39.464 57.6479 39.816 59.0559 40.52C60.4959 41.224 61.7759 42.2 62.8959 43.448L59.6799 46.52C59.0399 45.752 58.1919 45.096 57.1359 44.552C56.1119 43.976 54.9279 43.688 53.5839 43.688C52.1439 43.688 51.0719 43.976 50.3679 44.552C49.6959 45.128 49.3599 45.88 49.3599 46.808C49.3599 47.768 49.6639 48.488 50.2719 48.968C50.8799 49.448 51.8559 49.8 53.1999 50.024L55.5039 50.312C58.2559 50.728 60.2559 51.544 61.5039 52.76C62.7839 53.944 63.4239 55.544 63.4239 57.56C63.4239 58.776 63.1839 59.88 62.7039 60.872C62.2559 61.832 61.5999 62.664 60.7359 63.368C59.8719 64.072 58.8319 64.616 57.6159 65C56.3999 65.384 55.0399 65.576 53.5359 65.576ZM78.6466 65.576C76.9186 65.576 75.3346 65.272 73.8946 64.664C72.4866 64.056 71.2866 63.192 70.2946 62.072C69.3026 60.92 68.5346 59.544 67.9906 57.944C67.4466 56.312 67.1746 54.504 67.1746 52.52C67.1746 50.536 67.4466 48.744 67.9906 47.144C68.5346 45.512 69.3026 44.136 70.2946 43.016C71.2866 41.864 72.4866 40.984 73.8946 40.376C75.3346 39.768 76.9186 39.464 78.6466 39.464C80.3746 39.464 81.9426 39.768 83.3506 40.376C84.7906 40.984 86.0066 41.864 86.9986 43.016C87.9906 44.136 88.7586 45.512 89.3026 47.144C89.8466 48.744 90.1186 50.536 90.1186 52.52C90.1186 54.504 89.8466 56.312 89.3026 57.944C88.7586 59.544 87.9906 60.92 86.9986 62.072C86.0066 63.192 84.7906 64.056 83.3506 64.664C81.9426 65.272 80.3746 65.576 78.6466 65.576ZM78.6466 61.256C80.4386 61.256 81.8786 60.712 82.9666 59.624C84.0546 58.504 84.5986 56.84 84.5986 54.632V50.408C84.5986 48.2 84.0546 46.552 82.9666 45.464C81.8786 44.344 80.4386 43.784 78.6466 43.784C76.8546 43.784 75.4146 44.344 74.3266 45.464C73.2386 46.552 72.6946 48.2 72.6946 50.408V54.632C72.6946 56.84 73.2386 58.504 74.3266 59.624C75.4146 60.712 76.8546 61.256 78.6466 61.256ZM110.588 60.872H110.396C110.172 61.48 109.868 62.072 109.484 62.648C109.132 63.224 108.668 63.736 108.092 64.184C107.548 64.6 106.876 64.936 106.076 65.192C105.308 65.448 104.412 65.576 103.388 65.576C100.796 65.576 98.7804 64.744 97.3404 63.08C95.9324 61.416 95.2284 59.032 95.2284 55.928V40.04H100.46V55.256C100.46 59.128 102.06 61.064 105.26 61.064C105.932 61.064 106.588 60.984 107.228 60.824C107.868 60.632 108.428 60.36 108.908 60.008C109.42 59.656 109.82 59.208 110.108 58.664C110.428 58.12 110.588 57.48 110.588 56.744V40.04H115.82V65H110.588V60.872ZM122.832 65V40.04H128.064V44.84H128.304C128.656 43.56 129.392 42.44 130.512 41.48C131.632 40.52 133.184 40.04 135.168 40.04H136.56V45.08H134.496C132.416 45.08 130.816 45.416 129.696 46.088C128.608 46.76 128.064 47.752 128.064 49.064V65H122.832ZM150.141 65.576C148.349 65.576 146.749 65.272 145.341 64.664C143.933 64.056 142.749 63.192 141.789 62.072C140.829 60.92 140.093 59.544 139.581 57.944C139.069 56.312 138.813 54.504 138.813 52.52C138.813 50.536 139.069 48.744 139.581 47.144C140.093 45.512 140.829 44.136 141.789 43.016C142.749 41.864 143.933 40.984 145.341 40.376C146.749 39.768 148.349 39.464 150.141 39.464C152.637 39.464 154.685 40.024 156.285 41.144C157.885 42.264 159.053 43.752 159.789 45.608L155.469 47.624C155.117 46.472 154.493 45.56 153.597 44.888C152.733 44.184 151.581 43.832 150.141 43.832C148.221 43.832 146.765 44.44 145.773 45.656C144.813 46.84 144.333 48.392 144.333 50.312V54.776C144.333 56.696 144.813 58.264 145.773 59.48C146.765 60.664 148.221 61.256 150.141 61.256C151.677 61.256 152.893 60.888 153.789 60.152C154.717 59.384 155.453 58.376 155.997 57.128L159.981 59.24C159.149 61.288 157.901 62.856 156.237 63.944C154.573 65.032 152.541 65.576 150.141 65.576ZM173.992 65.576C172.2 65.576 170.6 65.272 169.192 64.664C167.784 64.056 166.584 63.192 165.592 62.072C164.6 60.92 163.832 59.544 163.288 57.944C162.776 56.312 162.52 54.504 162.52 52.52C162.52 50.536 162.776 48.744 163.288 47.144C163.832 45.512 164.6 44.136 165.592 43.016C166.584 41.864 167.784 40.984 169.192 40.376C170.6 39.768 172.2 39.464 173.992 39.464C175.816 39.464 177.416 39.784 178.792 40.424C180.2 41.064 181.368 41.96 182.296 43.112C183.224 44.232 183.912 45.544 184.36 47.048C184.84 48.552 185.08 50.168 185.08 51.896V53.864H167.944V54.68C167.944 56.6 168.504 58.184 169.624 59.432C170.776 60.648 172.408 61.256 174.52 61.256C176.056 61.256 177.352 60.92 178.408 60.248C179.464 59.576 180.36 58.664 181.096 57.512L184.168 60.536C183.24 62.072 181.896 63.304 180.136 64.232C178.376 65.128 176.328 65.576 173.992 65.576ZM173.992 43.544C173.096 43.544 172.264 43.704 171.496 44.024C170.76 44.344 170.12 44.792 169.576 45.368C169.064 45.944 168.664 46.632 168.376 47.432C168.088 48.232 167.944 49.112 167.944 50.072V50.408H179.56V49.928C179.56 48.008 179.064 46.472 178.072 45.32C177.08 44.136 175.72 43.544 173.992 43.544Z" fill="#4B90F3"/>
</g>
<defs>
<clipPath id="clip0_4_2">
<rect width="584" height="96" fill="white"/>
</clipPath>
</defs>
</svg>
