<svg width="382" height="561" viewBox="0 0 382 561" fill="none" xmlns="http://www.w3.org/2000/svg">
<path d="M156.416 402L192 366M156 366L191.584 402" stroke="#F34B4B" stroke-width="12"/>
<path d="M203.5 295.5L202.023 295.759L203.5 295.5ZM273 473.5L272.815 456.18L257.908 465.001L273 473.5ZM193.011 146.317C192.885 147.342 192.763 148.381 192.647 149.434L195.629 149.764C195.744 148.723 195.864 147.696 195.989 146.683L193.011 146.317ZM192.029 155.677C191.851 157.71 191.69 159.793 191.549 161.926L194.543 162.124C194.682 160.012 194.841 157.95 195.017 155.938L192.029 155.677ZM191.198 168.183C191.103 170.227 191.026 172.316 190.966 174.45L193.965 174.534C194.024 172.418 194.101 170.348 194.195 168.322L191.198 168.183ZM190.846 180.718C190.824 182.764 190.818 184.85 190.829 186.977L193.829 186.961C193.818 184.85 193.824 182.78 193.845 180.75L190.846 180.718ZM190.909 193.247C190.95 195.295 191.006 197.378 191.079 199.499L194.077 199.397C194.005 197.29 193.949 195.22 193.908 193.186L190.909 193.247ZM191.333 205.756C191.43 207.808 191.542 209.894 191.668 212.013L194.663 211.835C194.537 209.727 194.426 207.654 194.33 205.614L191.333 205.756ZM192.076 218.248C192.221 220.297 192.381 222.377 192.554 224.487L195.544 224.242C195.372 222.142 195.213 220.073 195.068 218.035L192.076 218.248ZM193.099 230.727C193.289 232.775 193.491 234.851 193.706 236.956L196.691 236.65C196.476 234.555 196.275 232.489 196.086 230.451L193.099 230.727ZM194.371 243.168C194.599 245.211 194.839 247.281 195.092 249.377L198.07 249.018C197.819 246.93 197.58 244.87 197.352 242.835L194.371 243.168ZM195.866 255.58C196.129 257.622 196.404 259.688 196.69 261.778L199.662 261.371C199.377 259.288 199.103 257.23 198.841 255.197L195.866 255.58ZM197.562 267.97C197.857 270.008 198.163 272.069 198.48 274.154L201.446 273.703C201.13 271.626 200.825 269.571 200.531 267.54L197.562 267.97ZM199.441 280.33C199.764 282.365 200.098 284.422 200.443 286.5L203.402 286.009C203.059 283.938 202.726 281.888 202.403 279.859L199.441 280.33ZM201.484 292.662C201.661 293.689 201.841 294.722 202.023 295.759L204.977 295.241C204.796 294.206 204.617 293.177 204.441 292.153L201.484 292.662ZM202.023 295.759C202.197 296.753 202.374 297.744 202.554 298.732L205.506 298.194C205.327 297.212 205.151 296.228 204.977 295.241L202.023 295.759ZM203.674 304.652C204.062 306.63 204.462 308.598 204.874 310.556L207.809 309.94C207.401 307.995 207.004 306.04 206.618 304.075L203.674 304.652ZM206.152 316.444C206.592 318.411 207.044 320.367 207.508 322.314L210.426 321.619C209.966 319.685 209.517 317.742 209.079 315.788L206.152 316.444ZM208.943 328.165C209.435 330.119 209.94 332.063 210.455 333.997L213.354 333.224C212.842 331.303 212.341 329.372 211.851 327.431L208.943 328.165ZM212.045 339.81C212.589 341.751 213.144 343.681 213.711 345.601L216.588 344.753C216.026 342.845 215.474 340.927 214.933 339L212.045 339.81ZM215.452 351.37C216.047 353.296 216.652 355.211 217.268 357.116L220.123 356.193C219.511 354.3 218.909 352.397 218.318 350.485L215.452 351.37ZM219.158 362.837C219.802 364.746 220.456 366.645 221.12 368.533L223.95 367.539C223.29 365.662 222.64 363.775 222 361.878L219.158 362.837ZM223.153 374.205C223.845 376.096 224.546 377.978 225.257 379.85L228.062 378.785C227.355 376.925 226.658 375.054 225.971 373.174L223.153 374.205ZM227.429 385.468C228.167 387.342 228.913 389.206 229.669 391.06L232.447 389.928C231.696 388.085 230.954 386.232 230.221 384.37L227.429 385.468ZM231.974 396.625C232.756 398.48 233.546 400.326 234.344 402.162L237.095 400.966C236.302 399.14 235.516 397.305 234.739 395.46L231.974 396.625ZM236.777 407.671C237.6 409.508 238.431 411.335 239.27 413.153L241.994 411.896C241.16 410.088 240.333 408.271 239.514 406.444L236.777 407.671ZM241.823 418.607C242.685 420.425 243.556 422.233 244.433 424.033L247.129 422.718C246.257 420.928 245.391 419.129 244.533 417.32L241.823 418.607ZM247.098 429.431C247.998 431.231 248.904 433.021 249.817 434.802L252.487 433.434C251.578 431.662 250.676 429.88 249.781 428.089L247.098 429.431ZM252.588 440.147C253.522 441.929 254.462 443.702 255.408 445.466L258.052 444.048C257.111 442.292 256.174 440.527 255.244 438.754L252.588 440.147ZM258.276 450.758C259.242 452.522 260.214 454.278 261.19 456.025L263.809 454.562C262.837 452.822 261.87 451.074 260.908 449.317L258.276 450.758ZM264.146 461.267C265.141 463.015 266.141 464.754 267.144 466.485L269.74 464.981C268.74 463.257 267.745 461.524 266.754 459.783L264.146 461.267ZM203.5 295.5L200.545 296.018L203.5 295.5ZM273 473.5L272.629 438.861L242.816 456.502L273 473.5ZM191.522 146.134C191.396 147.165 191.273 148.21 191.156 149.269L197.119 149.93C197.234 148.895 197.354 147.874 197.478 146.866L191.522 146.134ZM190.534 155.546C190.355 157.59 190.194 159.683 190.052 161.827L196.039 162.223C196.178 160.121 196.336 158.071 196.512 156.069L190.534 155.546ZM189.7 168.113C189.604 170.167 189.526 172.265 189.467 174.408L195.464 174.576C195.523 172.469 195.6 170.408 195.693 168.391L189.7 168.113ZM189.346 180.701C189.324 182.756 189.318 184.85 189.329 186.984L195.329 186.953C195.318 184.85 195.324 182.788 195.345 180.766L189.346 180.701ZM189.409 193.277C189.45 195.332 189.507 197.423 189.58 199.55L195.576 199.346C195.505 197.246 195.449 195.183 195.408 193.156L189.409 193.277ZM189.835 205.826C189.932 207.885 190.044 209.977 190.17 212.102L196.16 211.745C196.035 209.644 195.924 207.577 195.828 205.544L189.835 205.826ZM190.579 218.355C190.726 220.409 190.885 222.494 191.059 224.61L197.039 224.119C196.867 222.025 196.709 219.961 196.564 217.929L190.579 218.355ZM191.605 230.865C191.795 232.918 191.998 234.999 192.214 237.109L198.183 236.498C197.969 234.407 197.768 232.346 197.58 230.313L191.605 230.865ZM192.88 243.334C193.109 245.382 193.35 247.456 193.603 249.556L199.56 248.838C199.309 246.755 199.07 244.699 198.843 242.669L192.88 243.334ZM194.378 255.772C194.642 257.818 194.917 259.888 195.204 261.982L201.148 261.168C200.864 259.089 200.591 257.035 200.329 255.005L194.378 255.772ZM196.078 268.184C196.373 270.226 196.679 272.291 196.997 274.379L202.929 273.477C202.613 271.404 202.309 269.353 202.016 267.325L196.078 268.184ZM197.959 280.566C198.283 282.604 198.618 284.664 198.963 286.745L204.882 285.764C204.539 283.695 204.207 281.649 203.885 279.624L197.959 280.566ZM200.006 292.917C200.183 293.945 200.363 294.979 200.545 296.018L206.455 294.982C206.274 293.949 206.095 292.921 205.919 291.898L200.006 292.917ZM200.545 296.018C200.72 297.015 200.898 298.009 201.079 299.001L206.981 297.925C206.803 296.946 206.627 295.965 206.455 294.982L200.545 296.018ZM202.202 304.941C202.592 306.926 202.993 308.9 203.406 310.865L209.277 309.631C208.87 307.693 208.474 305.744 208.09 303.786L202.202 304.941ZM204.688 316.772C205.13 318.745 205.584 320.708 206.049 322.661L211.886 321.271C211.427 319.344 210.979 317.407 210.543 315.46L204.688 316.772ZM207.488 328.532C207.983 330.492 208.488 332.443 209.005 334.383L214.803 332.838C214.293 330.924 213.794 328.999 213.306 327.064L207.488 328.532ZM210.6 340.215C211.147 342.162 211.704 344.099 212.272 346.026L218.027 344.329C217.466 342.427 216.916 340.516 216.377 338.594L210.6 340.215ZM214.019 351.813C214.616 353.745 215.223 355.666 215.841 357.577L221.55 355.732C220.94 353.845 220.341 351.948 219.751 350.042L214.019 351.813ZM217.736 363.317C218.383 365.231 219.039 367.136 219.705 369.031L225.365 367.041C224.707 365.17 224.06 363.289 223.422 361.398L217.736 363.317ZM221.745 374.72C222.438 376.617 223.142 378.505 223.855 380.382L229.464 378.253C228.76 376.398 228.065 374.533 227.38 372.659L221.745 374.72ZM226.033 386.018C226.773 387.897 227.522 389.767 228.28 391.626L233.836 389.362C233.087 387.524 232.347 385.677 231.617 383.82L226.033 386.018ZM230.592 397.207C231.376 399.068 232.168 400.919 232.969 402.76L238.471 400.368C237.68 398.547 236.896 396.717 236.122 394.878L230.592 397.207ZM235.408 408.285C236.233 410.127 237.067 411.959 237.908 413.781L243.356 411.267C242.524 409.464 241.7 407.652 240.883 405.831L235.408 408.285ZM240.467 419.25C241.333 421.073 242.205 422.886 243.084 424.69L248.478 422.061C247.607 420.276 246.744 418.481 245.888 416.677L240.467 419.25ZM245.756 430.102C246.658 431.906 247.567 433.701 248.482 435.486L253.822 432.75C252.916 430.982 252.016 429.205 251.123 427.419L245.756 430.102ZM251.259 440.844C252.196 442.629 253.138 444.406 254.086 446.174L259.374 443.339C258.435 441.587 257.501 439.826 256.573 438.057L251.259 440.844ZM256.961 451.479C257.929 453.247 258.902 455.006 259.88 456.757L265.118 453.83C264.148 452.094 263.183 450.35 262.223 448.597L256.961 451.479ZM262.843 462.009C263.84 463.761 264.841 465.503 265.846 467.237L271.037 464.229C270.04 462.508 269.046 460.778 268.057 459.041L262.843 462.009Z" fill="#F34B4B"/>
<path d="M301 341L283.679 371H318.321L301 341ZM298 368V468H304V368H298Z" fill="#4B90F3"/>
<path d="M213 144.015L243 161.335L213 178.656L213 144.015ZM273.902 255.5L223.902 168.897L229.098 165.897L279.098 252.5L273.902 255.5Z" fill="#4B90F3"/>
<path d="M169.5 144.015L139.5 161.335L169.5 178.656L169.5 144.015ZM108.598 255.5L158.598 168.897L153.402 165.897L103.402 252.5L108.598 255.5Z" fill="#4B90F3"/>
<path d="M353.192 439.003L353.143 442.002L353.192 439.003ZM375.799 457.888L378.775 457.51L378.775 457.51L375.799 457.888ZM343.656 491L378.192 493.692L363.255 462.437L343.656 491ZM328.985 475.019C329.817 466.798 332.537 458.305 336.809 451.987C341.075 445.68 346.605 441.894 353.143 442.002L353.242 436.003C343.978 435.85 336.784 441.315 331.839 448.626C326.901 455.928 323.926 465.422 323.015 474.414L328.985 475.019ZM353.143 442.002C365.69 442.209 371.803 450.24 372.823 458.266L378.775 457.51C377.414 446.801 369.043 436.264 353.242 436.003L353.143 442.002ZM372.823 458.266C373.596 464.35 371.94 471.325 365.921 477.212L370.116 481.501C377.582 474.2 379.766 465.311 378.775 457.51L372.823 458.266Z" fill="#4B90F3"/>
<rect x="256" y="468" width="90" height="90" rx="45" stroke="#4B90F3" stroke-width="6"/>
<path d="M288.745 496.496H300.601C302.745 496.496 304.681 496.848 306.409 497.552C308.169 498.256 309.657 499.312 310.873 500.72C312.121 502.096 313.081 503.84 313.753 505.952C314.425 508.032 314.761 510.464 314.761 513.248C314.761 516.032 314.425 518.48 313.753 520.592C313.081 522.672 312.121 524.416 310.873 525.824C309.657 527.2 308.169 528.24 306.409 528.944C304.681 529.648 302.745 530 300.601 530H288.745V496.496ZM300.601 525.2C303.097 525.2 305.113 524.416 306.649 522.848C308.185 521.28 308.953 518.976 308.953 515.936V510.56C308.953 507.52 308.185 505.216 306.649 503.648C305.113 502.08 303.097 501.296 300.601 501.296H294.169V525.2H300.601Z" fill="#4B90F3"/>
<path d="M353.192 219.003L353.143 222.002L353.192 219.003ZM375.799 237.888L378.775 237.51L378.775 237.51L375.799 237.888ZM343.656 271L378.192 273.692L363.255 242.437L343.656 271ZM328.985 255.019C329.817 246.798 332.537 238.305 336.809 231.987C341.075 225.68 346.605 221.894 353.143 222.002L353.242 216.003C343.978 215.85 336.784 221.315 331.839 228.626C326.901 235.928 323.926 245.422 323.015 254.414L328.985 255.019ZM353.143 222.002C365.69 222.209 371.803 230.24 372.823 238.266L378.775 237.51C377.414 226.801 369.043 216.264 353.242 216.003L353.143 222.002ZM372.823 238.266C373.596 244.35 371.94 251.325 365.921 257.212L370.116 261.501C377.582 254.2 379.766 245.311 378.775 237.51L372.823 238.266Z" fill="#4B90F3"/>
<rect x="256" y="248" width="90" height="90" rx="45" stroke="#4B90F3" stroke-width="6"/>
<path d="M302.493 310.576C298.109 310.576 294.669 309.104 292.173 306.16C289.677 303.184 288.429 298.88 288.429 293.248C288.429 290.432 288.749 287.952 289.389 285.808C290.029 283.664 290.957 281.856 292.173 280.384C293.389 278.912 294.861 277.808 296.589 277.072C298.349 276.304 300.317 275.92 302.493 275.92C305.405 275.92 307.837 276.56 309.789 277.84C311.773 279.12 313.325 281.008 314.445 283.504L309.885 286C309.309 284.4 308.413 283.136 307.197 282.208C306.013 281.248 304.445 280.768 302.493 280.768C299.901 280.768 297.869 281.648 296.397 283.408C294.925 285.168 294.189 287.6 294.189 290.704V295.792C294.189 298.896 294.925 301.328 296.397 303.088C297.869 304.848 299.901 305.728 302.493 305.728C304.509 305.728 306.141 305.216 307.389 304.192C308.669 303.136 309.613 301.792 310.221 300.16L314.589 302.8C313.469 305.232 311.901 307.136 309.885 308.512C307.869 309.888 305.405 310.576 302.493 310.576Z" fill="#4B90F3"/>
<path d="M4.04795 245.419L7.04343 245.255L4.04795 245.419ZM21.4171 221.489L20.8299 218.547L20.8299 218.547L21.4171 221.489ZM57 251.2L57.1556 216.559L27.0781 233.745L57 251.2ZM41.9793 267.001C33.6497 266.761 24.911 264.655 18.2507 260.842C11.598 257.032 7.40185 251.782 7.04343 245.255L1.05246 245.584C1.56141 254.853 7.57349 261.642 15.2693 266.048C22.9574 270.451 32.7076 272.737 41.8066 272.999L41.9793 267.001ZM7.04343 245.255C6.6923 238.86 8.50018 234.098 11.258 230.745C14.0453 227.357 17.9424 225.242 22.0043 224.431L20.8299 218.547C15.5596 219.599 10.3832 222.364 6.6244 226.934C2.83621 231.539 0.625582 237.81 1.05246 245.584L7.04343 245.255ZM22.0043 224.431C28.0931 223.216 35.254 224.38 41.6188 230.005L45.5923 225.51C37.7106 218.543 28.6054 216.995 20.8299 218.547L22.0043 224.431Z" fill="#4B90F3"/>
<rect x="36" y="248" width="90" height="90" rx="45" stroke="#4B90F3" stroke-width="6"/>
<path d="M69.3077 276.496H84.1397C86.9237 276.496 89.0997 277.28 90.6677 278.848C92.2677 280.416 93.0677 282.512 93.0677 285.136C93.0677 286.384 92.8917 287.456 92.5397 288.352C92.1877 289.216 91.7397 289.936 91.1957 290.512C90.6517 291.056 90.0277 291.472 89.3237 291.76C88.6197 292.016 87.9317 292.176 87.2597 292.24V292.528C87.9317 292.56 88.6677 292.72 89.4677 293.008C90.2997 293.296 91.0677 293.76 91.7717 294.4C92.4757 295.008 93.0677 295.808 93.5477 296.8C94.0277 297.76 94.2677 298.944 94.2677 300.352C94.2677 301.696 94.0437 302.96 93.5957 304.144C93.1797 305.328 92.5877 306.352 91.8197 307.216C91.0517 308.08 90.1397 308.768 89.0837 309.28C88.0277 309.76 86.8757 310 85.6277 310H69.3077V276.496ZM74.7317 305.344H84.0437C85.4517 305.344 86.5557 304.976 87.3557 304.24C88.1557 303.504 88.5557 302.448 88.5557 301.072V299.44C88.5557 298.064 88.1557 297.008 87.3557 296.272C86.5557 295.536 85.4517 295.168 84.0437 295.168H74.7317V305.344ZM74.7317 290.656H83.1317C84.4757 290.656 85.5157 290.32 86.2517 289.648C86.9877 288.944 87.3557 287.952 87.3557 286.672V285.136C87.3557 283.856 86.9877 282.88 86.2517 282.208C85.5157 281.504 84.4757 281.152 83.1317 281.152H74.7317V290.656Z" fill="#4B90F3"/>
<path d="M171.152 12.0738L173.352 14.1127L171.152 12.0738ZM200.428 7.9243L198.722 10.3915L200.428 7.9243ZM203.806 54.1571L228.816 30.1883L195.554 20.5135L203.806 54.1571ZM182.006 54.3438C176.388 48.1893 171.827 40.4433 169.938 33.0044C168.052 25.5739 168.909 18.9079 173.352 14.1127L168.951 10.0348C162.642 16.8438 161.941 25.8853 164.123 34.4807C166.303 43.0676 171.437 51.6659 177.574 58.3889L182.006 54.3438ZM173.352 14.1127C177.705 9.41511 182.385 7.404 186.712 7.05601C191.086 6.70431 195.315 8.0352 198.722 10.3915L202.135 5.45706C197.715 2.39973 192.129 0.601029 186.231 1.07532C180.288 1.55332 174.243 4.32377 168.951 10.0348L173.352 14.1127ZM198.722 10.3915C203.828 13.9237 207.969 19.8807 208.35 28.3667L214.344 28.0979C213.873 17.5893 208.656 9.96773 202.135 5.45706L198.722 10.3915Z" fill="#4B90F3"/>
<rect x="146" y="56" width="90" height="90" rx="45" stroke="#4B90F3" stroke-width="6"/>
<path d="M200.165 115L197.141 105.928H184.613L181.685 115H176.165L187.589 81.496H194.405L205.829 115H200.165ZM190.997 86.488H190.757L185.909 101.272H195.797L190.997 86.488Z" fill="#4B90F3"/>
</svg>
