<svg width="382" height="561" viewBox="0 0 382 561" fill="none" xmlns="http://www.w3.org/2000/svg">
<path d="M255 306L244.351 319.661L237.845 303.608L255 306ZM246.887 310.813C244.906 311.56 242.957 312.271 241.034 312.946L240.041 310.115C241.94 309.448 243.868 308.745 245.828 308.006L246.887 310.813ZM235.127 314.932C233.116 315.578 231.132 316.182 229.172 316.744L228.345 313.86C230.273 313.307 232.227 312.712 234.21 312.076L235.127 314.932ZM223.133 318.363C221.085 318.873 219.058 319.335 217.049 319.75L216.443 316.812C218.411 316.405 220.398 315.952 222.409 315.452L223.133 318.363ZM210.892 320.882C208.813 321.216 206.748 321.498 204.692 321.728L204.358 318.747C206.366 318.522 208.383 318.246 210.416 317.92L210.892 320.882ZM198.453 322.27C196.365 322.398 194.28 322.473 192.192 322.494L192.162 319.494C194.198 319.473 196.232 319.401 198.269 319.275L198.453 322.27ZM185.929 322.398C183.857 322.314 181.777 322.178 179.682 321.992L179.949 319.003C181.996 319.186 184.028 319.318 186.051 319.4L185.929 322.398ZM173.468 321.293C171.427 321.018 169.369 320.696 167.288 320.327L167.811 317.373C169.853 317.735 171.871 318.051 173.869 318.32L173.468 321.293ZM161.169 319.126C159.168 318.696 157.142 318.225 155.088 317.714L155.812 314.802C157.837 315.306 159.831 315.77 161.8 316.193L161.169 319.126ZM149.069 316.126C147.108 315.581 145.117 315 143.096 314.386L143.968 311.516C145.968 312.124 147.936 312.697 149.873 313.236L149.069 316.126ZM137.152 312.514C135.222 311.885 133.262 311.227 131.269 310.54L132.246 307.704C134.224 308.385 136.168 309.038 138.082 309.661L137.152 312.514ZM125.419 308.477C124.448 308.127 123.469 307.771 122.483 307.408L123.517 304.592C124.498 304.953 125.471 305.307 126.436 305.654L125.419 308.477ZM255 306L233.703 333.321L220.691 301.217L255 306ZM247.416 312.216C245.426 312.967 243.465 313.682 241.531 314.361L239.544 308.7C241.431 308.037 243.348 307.338 245.298 306.602L247.416 312.216ZM235.585 316.361C233.56 317.011 231.562 317.619 229.586 318.186L227.931 312.419C229.844 311.87 231.783 311.28 233.751 310.648L235.585 316.361ZM223.495 319.819C221.428 320.333 219.382 320.799 217.353 321.219L216.139 315.343C218.087 314.94 220.055 314.492 222.047 313.996L223.495 319.819ZM211.13 322.363C209.028 322.7 206.94 322.986 204.859 323.219L204.191 317.256C206.175 317.034 208.168 316.762 210.178 316.439L211.13 322.363ZM198.545 323.767C196.431 323.897 194.321 323.972 192.208 323.994L192.147 317.994C194.158 317.974 196.165 317.902 198.177 317.778L198.545 323.767ZM185.868 323.897C183.771 323.812 181.667 323.675 179.549 323.486L180.082 317.509C182.106 317.69 184.113 317.821 186.111 317.902L185.868 323.897ZM173.267 322.78C171.206 322.502 169.127 322.176 167.026 321.804L168.073 315.896C170.095 316.254 172.093 316.567 174.07 316.834L173.267 322.78ZM160.854 320.592C158.836 320.158 156.795 319.684 154.726 319.169L156.174 313.347C158.184 313.847 160.163 314.307 162.115 314.726L160.854 320.592ZM148.667 317.571C146.693 317.022 144.692 316.439 142.66 315.821L144.404 310.081C146.394 310.685 148.35 311.255 150.275 311.791L148.667 317.571ZM136.687 313.94C134.749 313.308 132.78 312.647 130.78 311.958L132.735 306.285C134.705 306.965 136.642 307.614 138.546 308.235L136.687 313.94ZM124.91 309.888C123.936 309.537 122.955 309.18 121.965 308.816L124.035 303.184C125.013 303.544 125.983 303.897 126.944 304.243L124.91 309.888Z" fill="#14BF06"/>
<path d="M127 280L137.649 266.339L144.155 282.392L127 280ZM135.113 275.187C137.094 274.44 139.043 273.729 140.966 273.054L141.959 275.885C140.06 276.552 138.132 277.255 136.172 277.994L135.113 275.187ZM146.873 271.068C148.884 270.422 150.868 269.818 152.828 269.256L153.655 272.14C151.727 272.693 149.773 273.288 147.79 273.924L146.873 271.068ZM158.867 267.637C160.915 267.127 162.942 266.665 164.951 266.25L165.557 269.188C163.589 269.595 161.602 270.048 159.591 270.548L158.867 267.637ZM171.108 265.118C173.187 264.784 175.252 264.502 177.308 264.272L177.642 267.253C175.634 267.478 173.617 267.754 171.584 268.08L171.108 265.118ZM183.547 263.73C185.635 263.602 187.72 263.527 189.808 263.506L189.838 266.506C187.802 266.527 185.768 266.599 183.731 266.725L183.547 263.73ZM196.071 263.602C198.143 263.686 200.223 263.822 202.318 264.008L202.051 266.997C200.004 266.814 197.972 266.682 195.949 266.6L196.071 263.602ZM208.532 264.707C210.573 264.982 212.631 265.304 214.712 265.673L214.189 268.627C212.147 268.265 210.129 267.949 208.131 267.68L208.532 264.707ZM220.831 266.874C222.832 267.304 224.858 267.775 226.912 268.286L226.188 271.198C224.163 270.694 222.169 270.23 220.2 269.807L220.831 266.874ZM232.931 269.874C234.892 270.419 236.883 271 238.904 271.614L238.032 274.484C236.032 273.876 234.064 273.303 232.127 272.764L232.931 269.874ZM244.848 273.486C246.778 274.115 248.738 274.773 250.731 275.46L249.754 278.296C247.776 277.615 245.832 276.962 243.918 276.339L244.848 273.486ZM256.581 277.523C257.552 277.873 258.531 278.229 259.517 278.592L258.483 281.408C257.502 281.047 256.529 280.693 255.564 280.346L256.581 277.523ZM127 280L148.297 252.679L161.309 284.783L127 280ZM134.584 273.784C136.574 273.033 138.535 272.318 140.469 271.639L142.456 277.3C140.569 277.963 138.652 278.662 136.702 279.398L134.584 273.784ZM146.415 269.639C148.44 268.989 150.438 268.381 152.414 267.814L154.069 273.581C152.156 274.13 150.217 274.72 148.249 275.352L146.415 269.639ZM158.505 266.181C160.572 265.667 162.618 265.201 164.647 264.781L165.861 270.657C163.913 271.06 161.945 271.508 159.953 272.004L158.505 266.181ZM170.87 263.637C172.972 263.3 175.06 263.014 177.141 262.781L177.809 268.744C175.825 268.966 173.832 269.238 171.822 269.561L170.87 263.637ZM183.455 262.233C185.569 262.103 187.679 262.028 189.792 262.006L189.853 268.006C187.842 268.026 185.835 268.098 183.823 268.222L183.455 262.233ZM196.132 262.103C198.229 262.188 200.333 262.325 202.451 262.514L201.918 268.491C199.894 268.31 197.887 268.179 195.889 268.098L196.132 262.103ZM208.733 263.22C210.794 263.498 212.873 263.824 214.974 264.196L213.927 270.104C211.905 269.746 209.907 269.433 207.93 269.166L208.733 263.22ZM221.146 265.408C223.164 265.842 225.205 266.316 227.274 266.831L225.826 272.653C223.816 272.153 221.837 271.693 219.885 271.274L221.146 265.408ZM233.333 268.429C235.307 268.978 237.308 269.561 239.34 270.179L237.596 275.919C235.606 275.315 233.65 274.745 231.725 274.209L233.333 268.429ZM245.313 272.06C247.251 272.692 249.22 273.353 251.22 274.042L249.265 279.715C247.295 279.035 245.358 278.386 243.454 277.765L245.313 272.06ZM257.09 276.112C258.064 276.463 259.045 276.82 260.035 277.184L257.965 282.816C256.987 282.456 256.017 282.103 255.056 281.757L257.09 276.112Z" fill="#14BF06"/>
<path d="M301 341L283.679 371H318.321L301 341ZM298 368V468H304V368H298Z" fill="#4B90F3"/>
<path d="M213 144.015L243 161.335L213 178.656L213 144.015ZM273.902 255.5L223.902 168.897L229.098 165.897L279.098 252.5L273.902 255.5Z" fill="#4B90F3"/>
<path d="M169.5 144.015L139.5 161.335L169.5 178.656L169.5 144.015ZM108.598 255.5L158.598 168.897L153.402 165.897L103.402 252.5L108.598 255.5Z" fill="#4B90F3"/>
<path d="M353.192 439.003L353.143 442.002L353.192 439.003ZM375.799 457.888L378.775 457.51L375.799 457.888ZM343.656 491L378.192 493.692L363.255 462.437L343.656 491ZM328.985 475.019C329.817 466.798 332.537 458.305 336.809 451.987C341.075 445.68 346.605 441.894 353.143 442.002L353.242 436.003C343.978 435.85 336.784 441.315 331.839 448.626C326.901 455.928 323.926 465.422 323.015 474.414L328.985 475.019ZM353.143 442.002C365.69 442.209 371.803 450.24 372.823 458.266L378.775 457.51C377.414 446.801 369.043 436.264 353.242 436.003L353.143 442.002ZM372.823 458.266C373.596 464.35 371.94 471.325 365.921 477.212L370.116 481.501C377.582 474.2 379.766 465.311 378.775 457.51L372.823 458.266Z" fill="#4B90F3"/>
<rect x="256" y="468" width="90" height="90" rx="45" stroke="#4B90F3" stroke-width="6"/>
<path d="M288.745 496.496H300.601C302.745 496.496 304.681 496.848 306.409 497.552C308.169 498.256 309.657 499.312 310.873 500.72C312.121 502.096 313.081 503.84 313.753 505.952C314.425 508.032 314.761 510.464 314.761 513.248C314.761 516.032 314.425 518.48 313.753 520.592C313.081 522.672 312.121 524.416 310.873 525.824C309.657 527.2 308.169 528.24 306.409 528.944C304.681 529.648 302.745 530 300.601 530H288.745V496.496ZM300.601 525.2C303.097 525.2 305.113 524.416 306.649 522.848C308.185 521.28 308.953 518.976 308.953 515.936V510.56C308.953 507.52 308.185 505.216 306.649 503.648C305.113 502.08 303.097 501.296 300.601 501.296H294.169V525.2H300.601Z" fill="#4B90F3"/>
<path d="M353.192 219.003L353.143 222.002L353.192 219.003ZM375.799 237.888L378.775 237.51L375.799 237.888ZM343.656 271L378.192 273.692L363.255 242.437L343.656 271ZM328.985 255.019C329.817 246.798 332.537 238.305 336.809 231.987C341.075 225.68 346.605 221.894 353.143 222.002L353.242 216.003C343.978 215.85 336.784 221.315 331.839 228.626C326.901 235.928 323.926 245.422 323.015 254.414L328.985 255.019ZM353.143 222.002C365.69 222.209 371.803 230.24 372.823 238.266L378.775 237.51C377.414 226.801 369.043 216.264 353.242 216.003L353.143 222.002ZM372.823 238.266C373.596 244.35 371.94 251.325 365.921 257.212L370.116 261.501C377.582 254.2 379.766 245.311 378.775 237.51L372.823 238.266Z" fill="#4B90F3"/>
<rect x="256" y="248" width="90" height="90" rx="45" stroke="#4B90F3" stroke-width="6"/>
<path d="M302.493 310.576C298.109 310.576 294.669 309.104 292.173 306.16C289.677 303.184 288.429 298.88 288.429 293.248C288.429 290.432 288.749 287.952 289.389 285.808C290.029 283.664 290.957 281.856 292.173 280.384C293.389 278.912 294.861 277.808 296.589 277.072C298.349 276.304 300.317 275.92 302.493 275.92C305.405 275.92 307.837 276.56 309.789 277.84C311.773 279.12 313.325 281.008 314.445 283.504L309.885 286C309.309 284.4 308.413 283.136 307.197 282.208C306.013 281.248 304.445 280.768 302.493 280.768C299.901 280.768 297.869 281.648 296.397 283.408C294.925 285.168 294.189 287.6 294.189 290.704V295.792C294.189 298.896 294.925 301.328 296.397 303.088C297.869 304.848 299.901 305.728 302.493 305.728C304.509 305.728 306.141 305.216 307.389 304.192C308.669 303.136 309.613 301.792 310.221 300.16L314.589 302.8C313.469 305.232 311.901 307.136 309.885 308.512C307.869 309.888 305.405 310.576 302.493 310.576Z" fill="#4B90F3"/>
<path d="M4.04795 245.419L7.04343 245.255L4.04795 245.419ZM21.4171 221.489L20.8299 218.547L21.4171 221.489ZM57 251.2L57.1556 216.559L27.0781 233.745L57 251.2ZM41.9793 267.001C33.6497 266.761 24.911 264.655 18.2507 260.842C11.598 257.032 7.40185 251.782 7.04343 245.255L1.05246 245.584C1.56141 254.853 7.57349 261.642 15.2693 266.048C22.9574 270.451 32.7076 272.737 41.8066 272.999L41.9793 267.001ZM7.04343 245.255C6.6923 238.86 8.50018 234.098 11.258 230.745C14.0453 227.357 17.9424 225.242 22.0043 224.431L20.8299 218.547C15.5596 219.599 10.3832 222.364 6.6244 226.934C2.83621 231.539 0.625582 237.81 1.05246 245.584L7.04343 245.255ZM22.0043 224.431C28.0931 223.216 35.254 224.38 41.6188 230.005L45.5924 225.51C37.7106 218.543 28.6054 216.995 20.8299 218.547L22.0043 224.431Z" fill="#4B90F3"/>
<rect x="36" y="248" width="90" height="90" rx="45" stroke="#4B90F3" stroke-width="6"/>
<path d="M69.3077 276.496H84.1397C86.9237 276.496 89.0997 277.28 90.6677 278.848C92.2677 280.416 93.0677 282.512 93.0677 285.136C93.0677 286.384 92.8917 287.456 92.5397 288.352C92.1877 289.216 91.7397 289.936 91.1957 290.512C90.6517 291.056 90.0277 291.472 89.3237 291.76C88.6197 292.016 87.9317 292.176 87.2597 292.24V292.528C87.9317 292.56 88.6677 292.72 89.4677 293.008C90.2997 293.296 91.0677 293.76 91.7717 294.4C92.4757 295.008 93.0677 295.808 93.5477 296.8C94.0277 297.76 94.2677 298.944 94.2677 300.352C94.2677 301.696 94.0437 302.96 93.5957 304.144C93.1797 305.328 92.5877 306.352 91.8197 307.216C91.0517 308.08 90.1397 308.768 89.0837 309.28C88.0277 309.76 86.8757 310 85.6277 310H69.3077V276.496ZM74.7317 305.344H84.0437C85.4517 305.344 86.5557 304.976 87.3557 304.24C88.1557 303.504 88.5557 302.448 88.5557 301.072V299.44C88.5557 298.064 88.1557 297.008 87.3557 296.272C86.5557 295.536 85.4517 295.168 84.0437 295.168H74.7317V305.344ZM74.7317 290.656H83.1317C84.4757 290.656 85.5157 290.32 86.2517 289.648C86.9877 288.944 87.3557 287.952 87.3557 286.672V285.136C87.3557 283.856 86.9877 282.88 86.2517 282.208C85.5157 281.504 84.4757 281.152 83.1317 281.152H74.7317V290.656Z" fill="#4B90F3"/>
<path d="M171.222 12.0173L173.402 14.0788L171.222 12.0173ZM200.9 7.89685L199.217 10.3804L200.9 7.89685ZM204.324 53.8063L229.422 29.9297L196.196 20.1325L204.324 53.8063ZM182.174 53.9548C176.478 47.8422 171.86 40.1555 169.949 32.7819C168.042 25.4249 168.906 18.8317 173.402 14.0788L169.043 9.95576C162.639 16.7259 161.923 25.7303 164.141 34.2871C166.354 42.8273 171.564 51.3704 177.784 58.0452L182.174 53.9548ZM173.402 14.0788C182.061 4.92411 192.367 5.73867 199.217 10.3804L202.583 5.41332C193.566 -0.696577 179.936 -1.56119 169.043 9.95576L173.402 14.0788ZM199.217 10.3804C204.378 13.8771 208.541 19.7417 208.964 28.0609L214.957 27.7557C214.428 17.3749 209.145 9.85954 202.583 5.41332L199.217 10.3804Z" fill="#4B90F3"/>
<rect x="146" y="56" width="90" height="90" rx="45" stroke="#4B90F3" stroke-width="6"/>
<path d="M200.165 118L197.141 108.928H184.613L181.685 118H176.165L187.589 84.496H194.405L205.829 118H200.165ZM190.997 89.488H190.757L185.909 104.272H195.797L190.997 89.488Z" fill="#4B90F3"/>
</svg>
