<svg width="382" height="561" viewBox="0 0 382 561" fill="none" xmlns="http://www.w3.org/2000/svg">
<path d="M261 393.867L259.5 393.866L261 393.867ZM279 470.572L280.337 453.303L264.713 460.779L279 470.572ZM273.581 329.343C273.177 330.171 272.778 331.004 272.384 331.841L275.098 333.119C275.486 332.295 275.879 331.475 276.278 330.657L273.581 329.343ZM270.102 336.903C269.38 338.587 268.681 340.301 268.011 342.058L270.814 343.127C271.468 341.412 272.151 339.736 272.859 338.087L270.102 336.903ZM266.144 347.303C265.573 349.031 265.031 350.805 264.52 352.633L267.41 353.439C267.907 351.658 268.436 349.929 268.992 348.245L266.144 347.303ZM263.148 358.03C262.744 359.792 262.368 361.606 262.023 363.479L264.974 364.021C265.31 362.192 265.677 360.421 266.072 358.702L263.148 358.03ZM261.13 368.971C260.877 370.755 260.651 372.59 260.453 374.482L263.437 374.793C263.631 372.937 263.852 371.139 264.1 369.393L261.13 368.971ZM259.972 380.015C259.845 381.811 259.743 383.657 259.667 385.556L262.664 385.677C262.74 383.807 262.84 381.991 262.964 380.226L259.972 380.015ZM259.52 391.096C259.508 392.007 259.501 392.931 259.5 393.866L262.5 393.869C262.501 392.946 262.508 392.035 262.52 391.136L259.52 391.096ZM259.5 393.866C259.499 394.828 259.504 395.782 259.514 396.726L262.514 396.693C262.504 395.761 262.499 394.82 262.5 393.869L259.5 393.866ZM259.652 402.45C259.724 404.392 259.824 406.298 259.95 408.173L262.943 407.971C262.819 406.128 262.721 404.251 262.649 402.338L259.652 402.45ZM260.427 413.887C260.621 415.814 260.845 417.711 261.101 419.583L264.073 419.176C263.822 417.341 263.602 415.48 263.412 413.587L260.427 413.887ZM261.985 425.254C262.319 427.153 262.687 429.03 263.09 430.89L266.022 430.255C265.627 428.434 265.267 426.596 264.94 424.735L261.985 425.254ZM264.417 436.477C264.895 438.329 265.41 440.171 265.962 442.007L268.835 441.144C268.294 439.344 267.79 437.54 267.321 435.726L264.417 436.477ZM267.714 447.471C268.327 449.267 268.974 451.064 269.657 452.867L272.463 451.804C271.791 450.031 271.155 448.266 270.554 446.503L267.714 447.471ZM271.77 458.19C272.49 459.93 273.243 461.682 274.03 463.449L276.771 462.229C275.994 460.484 275.251 458.757 274.541 457.043L271.77 458.19ZM261 393.867L258 393.864L261 393.867ZM279 470.572L281.675 436.034L250.427 450.987L279 470.572ZM272.233 328.685C271.826 329.519 271.424 330.358 271.026 331.202L276.455 333.757C276.84 332.94 277.23 332.127 277.626 331.315L272.233 328.685ZM268.724 336.311C267.994 338.012 267.287 339.746 266.609 341.523L272.215 343.662C272.862 341.968 273.537 340.31 274.237 338.679L268.724 336.311ZM264.719 346.833C264.141 348.583 263.592 350.379 263.076 352.23L268.855 353.843C269.346 352.084 269.867 350.378 270.416 348.715L264.719 346.833ZM261.687 357.694C261.277 359.478 260.896 361.313 260.548 363.207L266.449 364.293C266.781 362.485 267.144 360.736 267.534 359.038L261.687 357.694ZM259.645 368.76C259.389 370.563 259.161 372.416 258.961 374.327L264.929 374.949C265.121 373.111 265.34 371.331 265.585 369.604L259.645 368.76ZM258.476 379.909C258.348 381.721 258.245 383.583 258.168 385.496L264.163 385.737C264.238 383.882 264.338 382.081 264.461 380.331L258.476 379.909ZM258.02 391.076C258.008 391.994 258.001 392.923 258 393.864L264 393.87C264.001 392.953 264.008 392.049 264.019 391.156L258.02 391.076ZM258 393.864C257.999 394.833 258.004 395.792 258.014 396.743L264.014 396.677C264.004 395.751 263.999 394.815 264 393.87L258 393.864ZM258.153 402.506C258.226 404.463 258.326 406.384 258.453 408.273L264.44 407.871C264.317 406.042 264.22 404.181 264.148 402.281L258.153 402.506ZM258.935 414.036C259.13 415.982 259.357 417.896 259.615 419.786L265.559 418.973C265.311 417.156 265.093 415.313 264.905 413.437L258.935 414.036ZM260.508 425.514C260.845 427.432 261.217 429.328 261.624 431.208L267.488 429.938C267.097 428.135 266.741 426.317 266.417 424.476L260.508 425.514ZM262.964 436.853C263.448 438.724 263.968 440.584 264.525 442.438L270.272 440.712C269.737 438.931 269.237 437.146 268.773 435.351L262.964 436.853ZM266.295 447.955C266.912 449.768 267.566 451.58 268.255 453.398L273.865 451.272C273.199 449.514 272.569 447.765 271.974 446.02L266.295 447.955ZM270.384 458.764C271.109 460.517 271.868 462.28 272.66 464.059L278.141 461.619C277.369 459.886 276.632 458.171 275.927 456.469L270.384 458.764Z" fill="#2FE120"/>
<path d="M276.002 170.333L277.281 169.549L276.002 170.333ZM301 244.969L290.737 231.016L307.952 229.104L301 244.969ZM298.485 236.719C298.223 234.83 297.942 232.973 297.64 231.145L300.599 230.656C300.906 232.511 301.191 234.394 301.457 236.307L298.485 236.719ZM296.64 225.605C296.276 223.747 295.886 221.914 295.467 220.102L298.39 219.427C298.816 221.273 299.214 223.138 299.584 225.027L296.64 225.605ZM294.104 214.648C293.616 212.836 293.095 211.039 292.54 209.252L295.404 208.361C295.972 210.186 296.503 212.019 297.001 213.867L294.104 214.648ZM290.768 203.921C290.147 202.167 289.488 200.416 288.79 198.662L291.577 197.552C292.29 199.341 292.962 201.129 293.596 202.92L290.768 203.921ZM286.613 193.482C285.865 191.79 285.077 190.092 284.248 188.381L286.948 187.073C287.792 188.814 288.594 190.544 289.356 192.269L286.613 193.482ZM281.71 183.357C280.852 181.723 279.955 180.075 279.017 178.408L281.631 176.937C282.583 178.628 283.494 180.302 284.366 181.962L281.71 183.357ZM276.185 173.531C275.708 172.732 275.221 171.927 274.724 171.118L277.281 169.549C277.784 170.368 278.277 171.182 278.761 171.992L276.185 173.531ZM274.724 171.118C274.143 170.171 273.564 169.244 272.988 168.335L275.522 166.728C276.106 167.65 276.692 168.59 277.281 169.549L274.724 171.118ZM269.396 162.862C268.129 160.998 266.871 159.221 265.622 157.524L268.039 155.746C269.31 157.474 270.589 159.281 271.876 161.174L269.396 162.862ZM261.647 152.348C260.239 150.593 258.84 148.933 257.448 147.357L259.697 145.371C261.121 146.983 262.55 148.679 263.987 150.47L261.647 152.348ZM253.011 142.585C251.447 140.989 249.887 139.487 248.33 138.063L250.354 135.849C251.952 137.309 253.55 138.849 255.153 140.485L253.011 142.585ZM243.405 133.805C241.694 132.405 239.979 131.081 238.257 129.813L240.035 127.397C241.795 128.693 243.551 130.048 245.305 131.483L243.405 133.805ZM232.914 126.061C232.008 125.451 231.098 124.851 230.184 124.259L231.816 121.741C232.743 122.342 233.667 122.951 234.588 123.571L232.914 126.061ZM276.002 170.333L278.559 168.764L276.002 170.333ZM301 244.969L280.474 217.064L314.903 213.24L301 244.969ZM296.999 236.925C296.739 235.048 296.46 233.205 296.16 231.39L302.079 230.411C302.388 232.28 302.675 234.175 302.942 236.101L296.999 236.925ZM295.168 225.893C294.807 224.051 294.42 222.235 294.005 220.439L299.851 219.089C300.282 220.952 300.682 222.834 301.056 224.739L295.168 225.893ZM292.656 215.038C292.172 213.244 291.657 211.466 291.107 209.697L296.837 207.916C297.41 209.759 297.946 211.611 298.449 213.477L292.656 215.038ZM289.354 204.422C288.739 202.686 288.088 200.953 287.397 199.217L292.971 196.997C293.69 198.804 294.369 200.609 295.01 202.419L289.354 204.422ZM285.241 194.089C284.5 192.413 283.72 190.731 282.898 189.036L288.297 186.418C289.149 188.175 289.958 189.921 290.728 191.662L285.241 194.089ZM280.382 184.055C279.531 182.434 278.641 180.799 277.709 179.144L282.938 176.201C283.897 177.904 284.815 179.591 285.694 181.265L280.382 184.055ZM274.898 174.3C274.423 173.506 273.939 172.707 273.446 171.903L278.559 168.764C279.065 169.589 279.561 170.408 280.048 171.223L274.898 174.3ZM273.446 171.903C272.868 170.962 272.294 170.041 271.721 169.138L276.789 165.925C277.377 166.853 277.967 167.799 278.559 168.764L273.446 171.903ZM268.156 163.705C266.898 161.857 265.652 160.095 264.414 158.413L269.247 154.857C270.53 156.601 271.819 158.423 273.117 160.331L268.156 163.705ZM260.478 153.286C259.084 151.55 257.7 149.908 256.324 148.35L260.821 144.378C262.261 146.008 263.705 147.722 265.157 149.531L260.478 153.286ZM251.94 143.635C250.395 142.059 248.855 140.575 247.318 139.17L251.366 134.742C252.984 136.22 254.602 137.78 256.225 139.435L251.94 143.635ZM242.456 134.966C240.766 133.584 239.071 132.275 237.368 131.021L240.924 126.189C242.704 127.499 244.479 128.87 246.254 130.321L242.456 134.966ZM232.077 127.305C231.179 126.701 230.276 126.106 229.368 125.517L232.632 120.483C233.565 121.088 234.496 121.701 235.426 122.326L232.077 127.305Z" fill="#2FE120"/>
<path d="M105.998 170.333L104.719 169.549L105.998 170.333ZM81 244.969L91.2629 231.016L74.0483 229.104L81 244.969ZM83.5149 236.719C83.7769 234.83 84.058 232.973 84.3603 231.145L81.4005 230.656C81.0937 232.511 80.8087 234.394 80.5434 236.307L83.5149 236.719ZM85.3597 225.605C85.7242 223.747 86.1144 221.914 86.5331 220.102L83.61 219.427C83.1836 221.273 82.7864 223.138 82.4158 225.027L85.3597 225.605ZM87.8961 214.648C88.3843 212.836 88.9048 211.039 89.4604 209.252L86.5956 208.361C86.0285 210.186 85.4973 212.019 84.9994 213.867L87.8961 214.648ZM91.2317 203.921C91.8531 202.167 92.5116 200.416 93.2099 198.662L90.4229 197.552C89.7103 199.341 89.0382 201.129 88.4038 202.92L91.2317 203.921ZM95.3872 193.482C96.1353 191.79 96.9227 190.092 97.7519 188.381L95.0524 187.073C94.2083 188.814 93.4061 190.544 92.6435 192.269L95.3872 193.482ZM100.29 183.357C101.148 181.723 102.045 180.075 102.983 178.408L100.369 176.937C99.4172 178.628 98.506 180.302 97.6338 181.962L100.29 183.357ZM105.815 173.531C106.292 172.732 106.779 171.927 107.276 171.118L104.719 169.549C104.216 170.368 103.723 171.182 103.239 171.992L105.815 173.531ZM107.276 171.118C107.857 170.171 108.436 169.244 109.012 168.335L106.478 166.728C105.894 167.65 105.308 168.59 104.719 169.549L107.276 171.118ZM112.604 162.862C113.871 160.998 115.129 159.221 116.378 157.524L113.961 155.746C112.69 157.474 111.411 159.281 110.124 161.174L112.604 162.862ZM120.353 152.348C121.761 150.593 123.16 148.933 124.552 147.357L122.303 145.371C120.879 146.983 119.45 148.679 118.013 150.47L120.353 152.348ZM128.989 142.585C130.553 140.989 132.113 139.487 133.67 138.063L131.646 135.849C130.048 137.309 128.45 138.849 126.847 140.485L128.989 142.585ZM138.595 133.805C140.306 132.405 142.021 131.081 143.743 129.813L141.965 127.397C140.205 128.693 138.449 130.048 136.695 131.483L138.595 133.805ZM149.086 126.061C149.992 125.451 150.902 124.851 151.816 124.259L150.184 121.741C149.257 122.342 148.333 122.951 147.412 123.571L149.086 126.061ZM105.998 170.333L103.441 168.764L105.998 170.333ZM81 244.969L101.526 217.064L67.0965 213.24L81 244.969ZM85.0007 236.925C85.261 235.048 85.5401 233.205 85.8402 231.39L79.9206 230.411C79.6115 232.28 79.3246 234.175 79.0576 236.101L85.0007 236.925ZM86.8317 225.893C87.193 224.051 87.5798 222.235 87.9946 220.439L82.1485 219.089C81.7182 220.952 81.3175 222.834 80.9439 224.739L86.8317 225.893ZM89.3444 215.038C89.8278 213.244 90.343 211.466 90.8928 209.697L85.1632 207.916C84.5903 209.759 84.0539 211.611 83.551 213.477L89.3444 215.038ZM92.6457 204.422C93.2606 202.686 93.9123 200.953 94.6035 199.217L89.0294 196.997C88.3097 198.804 87.6307 200.609 86.9899 202.419L92.6457 204.422ZM96.759 194.089C97.4999 192.413 98.28 190.731 99.1016 189.036L93.7026 186.418C92.8511 188.175 92.0416 189.921 91.2717 191.662L96.759 194.089ZM101.618 184.055C102.469 182.434 103.359 180.799 104.291 179.144L99.0621 176.201C98.1032 177.904 97.1851 179.591 96.3058 181.265L101.618 184.055ZM107.102 174.3C107.577 173.506 108.061 172.707 108.554 171.903L103.441 168.764C102.935 169.589 102.439 170.408 101.952 171.223L107.102 174.3ZM108.554 171.903C109.132 170.962 109.706 170.041 110.279 169.138L105.211 165.925C104.623 166.853 104.033 167.799 103.441 168.764L108.554 171.903ZM113.844 163.705C115.102 161.857 116.348 160.095 117.586 158.413L112.753 154.857C111.47 156.601 110.181 158.423 108.883 160.331L113.844 163.705ZM121.522 153.286C122.916 151.55 124.3 149.908 125.676 148.35L121.179 144.378C119.739 146.008 118.295 147.722 116.843 149.531L121.522 153.286ZM130.06 143.635C131.605 142.059 133.145 140.575 134.682 139.17L130.634 134.742C129.016 136.22 127.398 137.78 125.775 139.435L130.06 143.635ZM139.544 134.966C141.234 133.584 142.929 132.275 144.632 131.021L141.076 126.189C139.296 127.499 137.521 128.87 135.746 130.321L139.544 134.966ZM149.923 127.305C150.821 126.701 151.724 126.106 152.632 125.517L149.368 120.483C148.435 121.088 147.504 121.701 146.574 122.326L149.923 127.305Z" fill="#2FE120"/>
<path d="M301 341L283.679 371H318.321L301 341ZM298 368V468H304V368H298Z" fill="#4B90F3"/>
<path d="M213 144.015L243 161.335L213 178.656L213 144.015ZM273.902 255.5L223.902 168.897L229.098 165.897L279.098 252.5L273.902 255.5Z" fill="#4B90F3"/>
<path d="M169.5 144.015L139.5 161.335L169.5 178.656L169.5 144.015ZM108.598 255.5L158.598 168.897L153.402 165.897L103.402 252.5L108.598 255.5Z" fill="#4B90F3"/>
<path d="M353.192 439.003L353.143 442.002L353.192 439.003ZM375.799 457.888L378.775 457.51L378.775 457.51L375.799 457.888ZM343.656 491L378.192 493.692L363.255 462.437L343.656 491ZM328.985 475.019C329.817 466.798 332.537 458.305 336.809 451.987C341.075 445.68 346.605 441.894 353.143 442.002L353.242 436.003C343.978 435.85 336.784 441.315 331.839 448.626C326.901 455.928 323.926 465.422 323.015 474.414L328.985 475.019ZM353.143 442.002C365.69 442.209 371.803 450.24 372.823 458.266L378.775 457.51C377.414 446.801 369.043 436.264 353.242 436.003L353.143 442.002ZM372.823 458.266C373.596 464.35 371.94 471.325 365.921 477.212L370.116 481.501C377.582 474.2 379.766 465.311 378.775 457.51L372.823 458.266Z" fill="#4B90F3"/>
<rect x="256" y="468" width="90" height="90" rx="45" stroke="#4B90F3" stroke-width="6"/>
<path d="M288.745 496.496H300.601C302.745 496.496 304.681 496.848 306.409 497.552C308.169 498.256 309.657 499.312 310.873 500.72C312.121 502.096 313.081 503.84 313.753 505.952C314.425 508.032 314.761 510.464 314.761 513.248C314.761 516.032 314.425 518.48 313.753 520.592C313.081 522.672 312.121 524.416 310.873 525.824C309.657 527.2 308.169 528.24 306.409 528.944C304.681 529.648 302.745 530 300.601 530H288.745V496.496ZM300.601 525.2C303.097 525.2 305.113 524.416 306.649 522.848C308.185 521.28 308.953 518.976 308.953 515.936V510.56C308.953 507.52 308.185 505.216 306.649 503.648C305.113 502.08 303.097 501.296 300.601 501.296H294.169V525.2H300.601Z" fill="#4B90F3"/>
<path d="M353.192 219.003L353.143 222.002L353.192 219.003ZM375.799 237.888L378.775 237.51L378.775 237.51L375.799 237.888ZM343.656 271L378.192 273.692L363.255 242.437L343.656 271ZM328.985 255.019C329.817 246.798 332.537 238.305 336.809 231.987C341.075 225.68 346.605 221.894 353.143 222.002L353.242 216.003C343.978 215.85 336.784 221.315 331.839 228.626C326.901 235.928 323.926 245.422 323.015 254.414L328.985 255.019ZM353.143 222.002C365.69 222.209 371.803 230.24 372.823 238.266L378.775 237.51C377.414 226.801 369.043 216.264 353.242 216.003L353.143 222.002ZM372.823 238.266C373.596 244.35 371.94 251.325 365.921 257.212L370.116 261.501C377.582 254.2 379.766 245.311 378.775 237.51L372.823 238.266Z" fill="#4B90F3"/>
<rect x="256" y="248" width="90" height="90" rx="45" stroke="#4B90F3" stroke-width="6"/>
<path d="M302.493 310.576C298.109 310.576 294.669 309.104 292.173 306.16C289.677 303.184 288.429 298.88 288.429 293.248C288.429 290.432 288.749 287.952 289.389 285.808C290.029 283.664 290.957 281.856 292.173 280.384C293.389 278.912 294.861 277.808 296.589 277.072C298.349 276.304 300.317 275.92 302.493 275.92C305.405 275.92 307.837 276.56 309.789 277.84C311.773 279.12 313.325 281.008 314.445 283.504L309.885 286C309.309 284.4 308.413 283.136 307.197 282.208C306.013 281.248 304.445 280.768 302.493 280.768C299.901 280.768 297.869 281.648 296.397 283.408C294.925 285.168 294.189 287.6 294.189 290.704V295.792C294.189 298.896 294.925 301.328 296.397 303.088C297.869 304.848 299.901 305.728 302.493 305.728C304.509 305.728 306.141 305.216 307.389 304.192C308.669 303.136 309.613 301.792 310.221 300.16L314.589 302.8C313.469 305.232 311.901 307.136 309.885 308.512C307.869 309.888 305.405 310.576 302.493 310.576Z" fill="#4B90F3"/>
<path d="M4.04795 245.419L7.04343 245.255L4.04795 245.419ZM21.4171 221.489L20.8299 218.547L20.8299 218.547L21.4171 221.489ZM57 251.2L57.1556 216.559L27.0781 233.745L57 251.2ZM41.9793 267.001C33.6497 266.761 24.911 264.655 18.2507 260.842C11.598 257.032 7.40185 251.782 7.04343 245.255L1.05246 245.584C1.56141 254.853 7.57349 261.642 15.2693 266.048C22.9574 270.451 32.7076 272.737 41.8066 272.999L41.9793 267.001ZM7.04343 245.255C6.6923 238.86 8.50018 234.098 11.258 230.745C14.0453 227.357 17.9424 225.242 22.0043 224.431L20.8299 218.547C15.5596 219.599 10.3832 222.364 6.6244 226.934C2.83621 231.539 0.625582 237.81 1.05246 245.584L7.04343 245.255ZM22.0043 224.431C28.0931 223.216 35.254 224.38 41.6188 230.005L45.5923 225.51C37.7106 218.543 28.6054 216.995 20.8299 218.547L22.0043 224.431Z" fill="#4B90F3"/>
<rect x="36" y="248" width="90" height="90" rx="45" stroke="#4B90F3" stroke-width="6"/>
<path d="M69.3077 276.496H84.1397C86.9237 276.496 89.0997 277.28 90.6677 278.848C92.2677 280.416 93.0677 282.512 93.0677 285.136C93.0677 286.384 92.8917 287.456 92.5397 288.352C92.1877 289.216 91.7397 289.936 91.1957 290.512C90.6517 291.056 90.0277 291.472 89.3237 291.76C88.6197 292.016 87.9317 292.176 87.2597 292.24V292.528C87.9317 292.56 88.6677 292.72 89.4677 293.008C90.2997 293.296 91.0677 293.76 91.7717 294.4C92.4757 295.008 93.0677 295.808 93.5477 296.8C94.0277 297.76 94.2677 298.944 94.2677 300.352C94.2677 301.696 94.0437 302.96 93.5957 304.144C93.1797 305.328 92.5877 306.352 91.8197 307.216C91.0517 308.08 90.1397 308.768 89.0837 309.28C88.0277 309.76 86.8757 310 85.6277 310H69.3077V276.496ZM74.7317 305.344H84.0437C85.4517 305.344 86.5557 304.976 87.3557 304.24C88.1557 303.504 88.5557 302.448 88.5557 301.072V299.44C88.5557 298.064 88.1557 297.008 87.3557 296.272C86.5557 295.536 85.4517 295.168 84.0437 295.168H74.7317V305.344ZM74.7317 290.656H83.1317C84.4757 290.656 85.5157 290.32 86.2517 289.648C86.9877 288.944 87.3557 287.952 87.3557 286.672V285.136C87.3557 283.856 86.9877 282.88 86.2517 282.208C85.5157 281.504 84.4757 281.152 83.1317 281.152H74.7317V290.656Z" fill="#4B90F3"/>
<path d="M171.152 12.0738L173.352 14.1127L171.152 12.0738ZM200.428 7.9243L198.722 10.3915L200.428 7.9243ZM203.806 54.1571L228.816 30.1883L195.554 20.5135L203.806 54.1571ZM182.006 54.3438C176.388 48.1893 171.827 40.4433 169.938 33.0044C168.052 25.5739 168.909 18.9079 173.352 14.1127L168.951 10.0348C162.642 16.8438 161.941 25.8853 164.123 34.4807C166.303 43.0676 171.437 51.6659 177.574 58.3889L182.006 54.3438ZM173.352 14.1127C177.705 9.41511 182.385 7.404 186.712 7.05601C191.086 6.70431 195.315 8.0352 198.722 10.3915L202.135 5.45706C197.715 2.39973 192.129 0.601029 186.231 1.07532C180.288 1.55332 174.243 4.32377 168.951 10.0348L173.352 14.1127ZM198.722 10.3915C203.828 13.9237 207.969 19.8807 208.35 28.3667L214.344 28.0979C213.873 17.5893 208.656 9.96773 202.135 5.45706L198.722 10.3915Z" fill="#4B90F3"/>
<rect x="146" y="56" width="90" height="90" rx="45" stroke="#4B90F3" stroke-width="6"/>
<path d="M200.165 115L197.141 105.928H184.613L181.685 115H176.165L187.589 81.496H194.405L205.829 115H200.165ZM190.997 86.488H190.757L185.909 101.272H195.797L190.997 86.488Z" fill="#4B90F3"/>
</svg>
