<svg width="1299" height="425" viewBox="0 0 1299 425" fill="none" xmlns="http://www.w3.org/2000/svg">
<path d="M238 359.87L255.32 359.817L246.707 374.843L238 359.87ZM954.669 360.343C953.79 360.78 952.906 361.215 952.017 361.648L950.705 358.95C951.586 358.522 952.461 358.091 953.331 357.657L954.669 360.343ZM946.619 364.213C944.798 365.058 942.957 365.894 941.096 366.719L939.88 363.977C941.726 363.158 943.551 362.33 945.355 361.492L946.619 364.213ZM935.524 369.135C933.708 369.905 931.874 370.666 930.023 371.418L928.894 368.638C930.732 367.892 932.551 367.137 934.353 366.373L935.524 369.135ZM924.416 373.647C922.529 374.381 920.626 375.106 918.705 375.822L917.657 373.012C919.564 372.3 921.455 371.58 923.328 370.851L924.416 373.647ZM913.115 377.866C911.243 378.536 909.357 379.199 907.455 379.853L906.479 377.016C908.369 376.366 910.244 375.708 912.104 375.041L913.115 377.866ZM901.706 381.792C899.804 382.421 897.888 383.042 895.959 383.655L895.05 380.796C896.969 380.186 898.873 379.569 900.764 378.944L901.706 381.792ZM890.265 385.43C888.354 386.015 886.43 386.592 884.494 387.161L883.647 384.283C885.573 383.717 887.487 383.143 889.387 382.561L890.265 385.43ZM878.65 388.849C876.739 389.39 874.817 389.924 872.884 390.451L872.095 387.557C874.019 387.032 875.931 386.501 877.832 385.962L878.65 388.849ZM867.103 391.998C865.166 392.507 863.217 393.01 861.258 393.505L860.523 390.597C862.473 390.104 864.412 389.604 866.341 389.097L867.103 391.998ZM855.351 394.972C853.43 395.44 851.499 395.902 849.559 396.358L848.873 393.437C850.805 392.983 852.728 392.524 854.641 392.058L855.351 394.972ZM843.718 397.704C841.762 398.146 839.796 398.583 837.822 399.013L837.184 396.082C839.15 395.653 841.108 395.219 843.056 394.778L843.718 397.704ZM831.885 400.282C829.948 400.689 828.002 401.089 826.049 401.484L825.454 398.544C827.401 398.15 829.339 397.751 831.269 397.346L831.885 400.282ZM820.165 402.651C818.197 403.035 816.22 403.412 814.237 403.784L813.684 400.835C815.661 400.465 817.63 400.089 819.592 399.707L820.165 402.651ZM808.272 404.88C806.321 405.231 804.363 405.578 802.399 405.918L801.886 402.962C803.844 402.623 805.795 402.278 807.74 401.927L808.272 404.88ZM796.486 406.924C794.509 407.254 792.525 407.578 790.535 407.897L790.06 404.935C792.044 404.617 794.021 404.294 795.992 403.965L796.486 406.924ZM784.548 408.838C782.585 409.14 780.616 409.437 778.641 409.728L778.203 406.761C780.171 406.47 782.134 406.174 784.092 405.872L784.548 408.838ZM772.708 410.588C770.724 410.869 768.736 411.145 766.743 411.416L766.339 408.443C768.326 408.173 770.309 407.898 772.286 407.617L772.708 410.588ZM760.748 412.213C758.77 412.47 756.788 412.723 754.802 412.97L754.431 409.993C756.412 409.746 758.389 409.495 760.361 409.238L760.748 412.213ZM748.852 413.694C746.865 413.931 744.873 414.162 742.878 414.389L742.539 411.408C744.529 411.182 746.516 410.951 748.498 410.715L748.852 413.694ZM736.879 415.054C734.889 415.27 732.895 415.481 730.898 415.686L730.591 412.702C732.583 412.497 734.571 412.287 736.556 412.072L736.879 415.054ZM724.937 416.286C722.946 416.481 720.952 416.671 718.955 416.857L718.677 413.87C720.669 413.684 722.658 413.494 724.644 413.3L724.937 416.286ZM712.954 417.399C710.955 417.575 708.953 417.747 706.948 417.913L706.699 414.924C708.7 414.757 710.697 414.586 712.691 414.411L712.954 417.399ZM700.975 418.395C698.982 418.551 696.986 418.703 694.987 418.85L694.767 415.858C696.761 415.711 698.752 415.56 700.741 415.404L700.975 418.395ZM688.986 419.277C686.983 419.415 684.978 419.549 682.971 419.678L682.779 416.684C684.781 416.555 686.781 416.422 688.779 416.284L688.986 419.277ZM676.98 420.049C674.984 420.168 672.986 420.283 670.986 420.393L670.821 417.398C672.816 417.288 674.81 417.173 676.801 417.054L676.98 420.049ZM664.983 420.711C662.981 420.813 660.977 420.91 658.972 421.003L658.833 418.006C660.834 417.913 662.833 417.816 664.831 417.715L664.983 420.711ZM652.964 421.268C650.964 421.351 648.964 421.431 646.963 421.506L646.85 418.508C648.847 418.433 650.843 418.354 652.838 418.27L652.964 421.268ZM640.957 421.718C638.954 421.785 636.951 421.847 634.947 421.905L634.861 418.906C636.86 418.849 638.859 418.787 640.857 418.72L640.957 421.718ZM628.935 422.066C626.932 422.116 624.929 422.161 622.926 422.202L622.865 419.202C624.864 419.162 626.863 419.117 628.861 419.067L628.935 422.066ZM616.916 422.312C614.913 422.344 612.91 422.373 610.907 422.397L610.871 419.397C612.869 419.373 614.868 419.345 616.867 419.312L616.916 422.312ZM604.899 422.456C602.894 422.472 600.89 422.483 598.885 422.491L598.875 419.491C600.874 419.483 602.875 419.472 604.876 419.456L604.899 422.456ZM592.87 422.5C590.865 422.499 588.862 422.493 586.859 422.484L586.873 419.484C588.872 419.493 590.871 419.499 592.871 419.5L592.87 422.5ZM580.855 422.443C578.852 422.426 576.85 422.404 574.85 422.378L574.889 419.378C576.885 419.404 578.883 419.426 580.881 419.443L580.855 422.443ZM568.827 422.287C566.821 422.252 564.816 422.213 562.813 422.171L562.877 419.171C564.876 419.214 566.876 419.253 568.878 419.287L568.827 422.287ZM556.81 422.03C554.811 421.979 552.813 421.923 550.818 421.864L550.907 418.865C552.898 418.925 554.891 418.98 556.886 419.031L556.81 422.03ZM544.795 421.672C542.786 421.604 540.78 421.532 538.776 421.455L538.891 418.457C540.89 418.534 542.892 418.606 544.897 418.674L544.795 421.672ZM532.773 421.213C530.775 421.128 528.779 421.039 526.787 420.946L526.927 417.95C528.915 418.043 530.906 418.131 532.901 418.216L532.773 421.213ZM520.781 420.653C518.77 420.55 516.762 420.444 514.757 420.333L514.923 417.337C516.923 417.448 518.927 417.555 520.934 417.657L520.781 420.653ZM508.754 419.987C506.756 419.868 504.762 419.744 502.772 419.617L502.964 416.623C504.95 416.75 506.939 416.873 508.933 416.992L508.754 419.987ZM496.793 419.22C494.779 419.082 492.769 418.939 490.763 418.792L490.982 415.8C492.983 415.947 494.989 416.089 496.998 416.227L496.793 419.22ZM484.76 418.34C482.763 418.184 480.77 418.025 478.783 417.861L479.029 414.872C481.012 415.035 483 415.194 484.992 415.349L484.76 418.34ZM472.835 417.358C470.819 417.182 468.807 417.003 466.802 416.819L467.076 413.831C469.077 414.015 471.083 414.194 473.095 414.369L472.835 417.358ZM460.799 416.253C458.804 416.06 456.814 415.863 454.83 415.662L455.133 412.677C457.112 412.878 459.097 413.075 461.088 413.267L460.799 416.253ZM448.896 415.044C446.884 414.83 444.879 414.611 442.88 414.388L443.213 411.407C445.207 411.629 447.207 411.848 449.214 412.061L448.896 415.044ZM436.882 413.703C434.89 413.47 432.904 413.233 430.925 412.991L431.289 410.013C433.263 410.254 435.243 410.491 437.231 410.723L436.882 413.703ZM425.01 412.252C423.002 411.996 421.001 411.735 419.007 411.47L419.403 408.496C421.391 408.761 423.387 409.021 425.39 409.277L425.01 412.252ZM413.021 410.655C411.033 410.379 409.054 410.099 407.083 409.813L407.513 406.844C409.478 407.129 411.452 407.409 413.434 407.684L413.021 410.655ZM401.196 408.944C399.187 408.641 397.187 408.333 395.197 408.021L395.662 405.057C397.646 405.368 399.64 405.675 401.643 405.977L401.196 408.944ZM389.231 407.065C387.252 406.742 385.283 406.413 383.324 406.08L383.827 403.123C385.78 403.455 387.742 403.782 389.715 404.104L389.231 407.065ZM377.464 405.064C375.453 404.709 373.454 404.349 371.466 403.983L372.009 401.033C373.99 401.397 375.982 401.756 377.986 402.11L377.464 405.064ZM365.538 402.871C363.574 402.495 361.621 402.114 359.68 401.728L360.266 398.786C362.199 399.17 364.144 399.55 366.102 399.924L365.538 402.871ZM353.799 400.535C351.802 400.122 349.819 399.704 347.849 399.28L348.48 396.347C350.442 396.769 352.417 397.186 354.406 397.598L353.799 400.535ZM341.982 397.992C340.041 397.557 338.114 397.117 336.201 396.671L336.881 393.749C338.786 394.193 340.705 394.631 342.638 395.064L341.982 397.992ZM330.269 395.261C328.297 394.782 326.34 394.297 324.401 393.807L325.136 390.898C327.066 391.387 329.013 391.869 330.977 392.345L330.269 395.261ZM318.633 392.318C316.674 391.802 314.734 391.279 312.812 390.751L313.607 387.858C315.519 388.384 317.449 388.903 319.397 389.417L318.633 392.318ZM306.956 389.105C305.024 388.55 303.112 387.989 301.221 387.421L302.083 384.547C303.963 385.112 305.864 385.67 307.784 386.222L306.956 389.105ZM295.498 385.664C293.535 385.047 291.596 384.424 289.681 383.793L290.62 380.944C292.521 381.57 294.447 382.189 296.397 382.802L295.498 385.664ZM284.01 381.88C282.103 381.221 280.222 380.555 278.367 379.881L279.391 377.061C281.231 377.729 283.097 378.391 284.99 379.045L284.01 381.88ZM272.634 377.743C270.753 377.022 268.901 376.293 267.08 375.556L268.204 372.775C270.008 373.505 271.843 374.227 273.708 374.941L272.634 377.743ZM261.499 373.233C259.605 372.422 257.748 371.601 255.927 370.771L257.171 368.041C258.971 368.861 260.807 369.673 262.681 370.476L261.499 373.233ZM250.576 368.254C248.695 367.34 246.857 366.415 245.064 365.48L246.451 362.82C248.218 363.741 250.03 364.653 251.887 365.555L250.576 368.254ZM238 359.87L272.641 359.763L255.413 389.816L238 359.87ZM955.337 361.685C954.455 362.125 953.567 362.562 952.673 362.997L950.049 357.601C950.925 357.175 951.797 356.746 952.663 356.315L955.337 361.685ZM947.251 365.574C945.422 366.423 943.573 367.262 941.704 368.09L939.272 362.605C941.11 361.79 942.927 360.966 944.724 360.132L947.251 365.574ZM936.109 370.516C934.286 371.289 932.446 372.053 930.587 372.807L928.33 367.248C930.16 366.505 931.973 365.753 933.767 364.992L936.109 370.516ZM924.96 375.044C923.067 375.781 921.156 376.509 919.229 377.228L917.132 371.606C919.034 370.897 920.918 370.179 922.784 369.453L924.96 375.044ZM913.621 379.278C911.743 379.95 909.85 380.615 907.943 381.271L905.991 375.598C907.875 374.949 909.744 374.293 911.598 373.629L913.621 379.278ZM902.176 383.216C900.269 383.847 898.348 384.47 896.413 385.084L894.596 379.366C896.509 378.758 898.408 378.143 900.293 377.519L902.176 383.216ZM890.703 386.865C888.787 387.451 886.859 388.029 884.918 388.6L883.224 382.844C885.145 382.279 887.053 381.707 888.949 381.127L890.703 386.865ZM879.058 390.292C877.143 390.834 875.217 391.37 873.279 391.898L871.7 386.11C873.619 385.586 875.527 385.056 877.423 384.519L879.058 390.292ZM867.485 393.449C865.542 393.959 863.59 394.463 861.626 394.96L860.155 389.143C862.1 388.651 864.036 388.152 865.96 387.646L867.485 393.449ZM855.706 396.43C853.781 396.899 851.846 397.361 849.902 397.818L848.531 391.977C850.458 391.524 852.377 391.065 854.286 390.6L855.706 396.43ZM844.049 399.167C842.089 399.61 840.12 400.047 838.142 400.478L836.864 394.616C838.827 394.188 840.78 393.755 842.725 393.315L844.049 399.167ZM832.193 401.75C830.252 402.158 828.303 402.559 826.346 402.955L825.157 397.074C827.1 396.681 829.035 396.282 830.961 395.878L832.193 401.75ZM820.452 404.124C818.48 404.508 816.5 404.886 814.513 405.258L813.408 399.361C815.381 398.991 817.347 398.615 819.306 398.234L820.452 404.124ZM808.538 406.356C806.584 406.708 804.623 407.055 802.655 407.396L801.63 401.485C803.584 401.145 805.533 400.801 807.474 400.451L808.538 406.356ZM796.733 408.404C794.752 408.734 792.765 409.059 790.773 409.378L789.823 403.454C791.803 403.136 793.778 402.814 795.746 402.485L796.733 408.404ZM784.776 410.32C782.81 410.623 780.838 410.92 778.861 411.212L777.983 405.277C779.949 404.986 781.909 404.691 783.864 404.39L784.776 410.32ZM772.918 412.073C770.932 412.354 768.941 412.631 766.945 412.902L766.137 406.957C768.122 406.687 770.101 406.412 772.076 406.132L772.918 412.073ZM760.941 413.7C758.961 413.958 756.976 414.211 754.987 414.458L754.246 408.504C756.224 408.258 758.198 408.007 760.167 407.751L760.941 413.7ZM749.029 415.184C747.039 415.42 745.045 415.652 743.047 415.879L742.37 409.918C744.357 409.692 746.341 409.461 748.32 409.226L749.029 415.184ZM737.04 416.546C735.048 416.761 733.052 416.972 731.052 417.178L730.437 411.21C732.426 411.005 734.412 410.795 736.394 410.581L737.04 416.546ZM725.083 417.778C723.09 417.974 721.093 418.164 719.094 418.35L718.538 412.376C720.528 412.191 722.515 412.001 724.498 411.807L725.083 417.778ZM713.086 418.894C711.084 419.07 709.079 419.241 707.072 419.408L706.575 413.429C708.573 413.263 710.568 413.092 712.56 412.917L713.086 418.894ZM701.092 419.891C699.096 420.047 697.098 420.199 695.097 420.346L694.657 414.362C696.648 414.216 698.637 414.064 700.624 413.909L701.092 419.891ZM689.089 420.774C687.084 420.912 685.076 421.046 683.067 421.175L682.683 415.187C684.683 415.059 686.68 414.926 688.676 414.788L689.089 420.774ZM677.07 421.546C675.071 421.666 673.071 421.781 671.069 421.891L670.738 415.9C672.731 415.79 674.723 415.676 676.712 415.557L677.07 421.546ZM665.059 422.209C663.054 422.311 661.048 422.408 659.041 422.501L658.764 416.508C660.762 416.415 662.759 416.318 664.755 416.217L665.059 422.209ZM653.026 422.766C651.025 422.85 649.022 422.93 647.019 423.005L646.794 417.009C648.788 416.934 650.782 416.855 652.775 416.772L653.026 422.766ZM641.007 423.218C639.002 423.284 636.997 423.347 634.991 423.405L634.817 417.407C636.814 417.349 638.811 417.287 640.807 417.221L641.007 423.218ZM628.972 423.566C626.967 423.615 624.962 423.661 622.957 423.702L622.834 417.703C624.831 417.662 626.828 417.617 628.824 417.568L628.972 423.566ZM616.94 423.812C614.935 423.844 612.93 423.872 610.925 423.896L610.853 417.897C612.849 417.873 614.846 417.845 616.843 417.812L616.94 423.812ZM604.911 423.956C602.904 423.972 600.897 423.983 598.891 423.99L598.869 417.991C600.867 417.983 602.865 417.972 604.864 417.956L604.911 423.956ZM592.869 424C590.863 423.999 588.857 423.993 586.852 423.984L586.88 417.984C588.877 417.993 590.874 417.999 592.872 418L592.869 424ZM580.841 423.943C578.836 423.925 576.833 423.904 574.83 423.877L574.909 417.878C576.903 417.904 578.898 417.926 580.894 417.943L580.841 423.943ZM568.801 423.786C566.793 423.752 564.786 423.713 562.781 423.67L562.909 417.672C564.906 417.714 566.904 417.753 568.904 417.787L568.801 423.786ZM556.771 423.529C554.77 423.478 552.771 423.423 550.774 423.363L550.952 417.366C552.941 417.425 554.932 417.48 556.925 417.531L556.771 423.529ZM544.744 423.171C542.733 423.103 540.725 423.031 538.719 422.954L538.948 416.959C540.945 417.035 542.945 417.107 544.947 417.175L544.744 423.171ZM532.71 422.712C530.709 422.627 528.712 422.538 526.717 422.445L526.997 416.451C528.983 416.544 530.972 416.633 532.964 416.717L532.71 422.712ZM520.705 422.151C518.691 422.048 516.681 421.941 514.674 421.83L515.006 415.84C517.004 415.95 519.006 416.057 521.01 416.159L520.705 422.151ZM508.664 421.484C506.664 421.365 504.668 421.241 502.676 421.113L503.06 415.126C505.044 415.253 507.031 415.376 509.022 415.495L508.664 421.484ZM496.69 420.716C494.674 420.578 492.662 420.435 490.654 420.288L491.092 414.304C493.09 414.451 495.094 414.593 497.101 414.73L496.69 420.716ZM484.643 419.835C482.644 419.68 480.65 419.52 478.66 419.356L479.152 413.377C481.133 413.54 483.118 413.698 485.108 413.853L484.643 419.835ZM472.705 418.852C470.686 418.677 468.673 418.497 466.664 418.312L467.213 412.337C469.212 412.521 471.216 412.7 473.225 412.875L472.705 418.852ZM460.655 417.746C458.657 417.553 456.665 417.356 454.679 417.154L455.285 411.185C457.261 411.385 459.244 411.582 461.232 411.774L460.655 417.746ZM448.737 416.536C446.723 416.321 444.715 416.102 442.713 415.879L443.379 409.916C445.371 410.138 447.368 410.356 449.373 410.57L448.737 416.536ZM436.708 415.193C434.713 414.96 432.725 414.722 430.743 414.48L431.471 408.524C433.442 408.765 435.42 409.001 437.405 409.233L436.708 415.193ZM424.821 413.74C422.809 413.484 420.805 413.223 418.809 412.957L419.601 407.009C421.587 407.274 423.579 407.533 425.58 407.789L424.821 413.74ZM412.814 412.141C410.824 411.865 408.842 411.584 406.868 411.298L407.728 405.36C409.69 405.644 411.661 405.923 413.64 406.198L412.814 412.141ZM400.973 410.427C398.96 410.124 396.957 409.815 394.964 409.502L395.894 403.575C397.876 403.886 399.867 404.192 401.867 404.494L400.973 410.427ZM388.989 408.545C387.007 408.221 385.035 407.893 383.073 407.559L384.079 401.644C386.028 401.975 387.987 402.302 389.957 402.624L388.989 408.545ZM377.202 406.542C375.189 406.186 373.186 405.825 371.195 405.458L372.28 399.557C374.258 399.921 376.247 400.28 378.247 400.633L377.202 406.542ZM365.256 404.344C363.288 403.968 361.332 403.586 359.388 403.2L360.558 397.315C362.488 397.699 364.43 398.077 366.384 398.451L365.256 404.344ZM353.495 402.004C351.494 401.59 349.507 401.171 347.534 400.746L348.796 394.881C350.754 395.302 352.725 395.718 354.71 396.129L353.495 402.004ZM341.655 399.456C339.709 399.02 337.778 398.579 335.86 398.132L337.222 392.289C339.122 392.731 341.037 393.169 342.966 393.601L341.655 399.456ZM329.916 396.718C327.938 396.239 325.977 395.753 324.033 395.261L325.504 389.444C327.429 389.931 329.372 390.412 331.331 390.888L329.916 396.718ZM318.251 393.768C316.287 393.251 314.341 392.727 312.414 392.197L314.005 386.412C315.911 386.936 317.836 387.454 319.78 387.966L318.251 393.768ZM306.542 390.547C304.604 389.99 302.687 389.427 300.789 388.857L302.514 383.111C304.388 383.673 306.283 384.23 308.199 384.78L306.542 390.547ZM295.049 387.095C293.08 386.477 291.134 385.851 289.212 385.218L291.089 379.519C292.984 380.143 294.903 380.76 296.846 381.371L295.049 387.095ZM283.52 383.298C281.606 382.636 279.717 381.967 277.855 381.291L279.903 375.651C281.735 376.317 283.594 376.975 285.479 377.627L283.52 383.298ZM272.098 379.143C270.208 378.419 268.347 377.687 266.517 376.947L268.767 371.385C270.562 372.111 272.388 372.829 274.244 373.54L272.098 379.143ZM260.908 374.612C259.005 373.796 257.136 372.971 255.305 372.136L257.793 366.676C259.582 367.492 261.408 368.298 263.272 369.097L260.908 374.612ZM249.921 369.603C248.027 368.683 246.176 367.752 244.37 366.81L247.145 361.49C248.899 362.405 250.698 363.31 252.543 364.206L249.921 369.603Z" fill="#14BF06"/>
<path d="M245.5 289.5L253.474 274.124L262.803 288.718L245.5 289.5ZM252.455 283.415C254.201 282.377 255.962 281.361 257.735 280.367L259.202 282.984C257.451 283.965 255.712 284.969 253.988 285.994L252.455 283.415ZM263.091 277.452C264.888 276.504 266.697 275.577 268.517 274.672L269.852 277.359C268.054 278.252 266.267 279.168 264.492 280.105L263.091 277.452ZM274.009 272.026C275.85 271.167 277.702 270.329 279.563 269.514L280.767 272.262C278.927 273.068 277.097 273.895 275.278 274.745L274.009 272.026ZM285.175 267.135C287.055 266.365 288.944 265.616 290.842 264.89L291.914 267.692C290.039 268.409 288.171 269.149 286.313 269.911L285.175 267.135ZM296.559 262.778C298.473 262.096 300.394 261.436 302.322 260.799L303.264 263.647C301.358 264.277 299.458 264.929 297.566 265.604L296.559 262.778ZM308.131 258.952C310.075 258.359 312.025 257.788 313.979 257.24L314.789 260.128C312.857 260.67 310.929 261.235 309.007 261.822L308.131 258.952ZM319.864 255.661C321.834 255.156 323.808 254.674 325.786 254.215L326.464 257.137C324.509 257.591 322.557 258.068 320.609 258.567L319.864 255.661ZM331.736 252.904C333.726 252.489 335.72 252.097 337.715 251.728L338.26 254.678C336.287 255.043 334.316 255.43 332.348 255.841L331.736 252.904ZM343.721 250.687C345.729 250.363 347.737 250.062 349.746 249.784L350.157 252.756C348.171 253.03 346.185 253.328 344.2 253.649L343.721 250.687ZM355.792 249.018C357.814 248.786 359.836 248.577 361.857 248.391L362.131 251.379C360.133 251.562 358.134 251.769 356.134 251.998L355.792 249.018ZM367.93 247.906C369.961 247.767 371.989 247.653 374.015 247.563L374.148 250.56C372.146 250.649 370.141 250.762 368.134 250.899L367.93 247.906ZM380.111 247.364C382.147 247.322 384.178 247.305 386.205 247.312L386.194 250.312C384.192 250.305 382.184 250.322 380.173 250.363L380.111 247.364ZM392.298 247.409C394.337 247.467 396.37 247.55 398.396 247.659L398.236 250.654C396.235 250.547 394.227 250.465 392.213 250.408L392.298 247.409ZM404.479 248.062C406.51 248.223 408.532 248.41 410.546 248.623L410.23 251.606C408.243 251.396 406.247 251.212 404.242 251.053L404.479 248.062ZM416.611 249.347C418.634 249.616 420.646 249.912 422.648 250.235L422.17 253.197C420.196 252.878 418.211 252.586 416.215 252.321L416.611 249.347ZM428.651 251.291C430.658 251.673 432.653 252.084 434.633 252.522L433.985 255.451C432.034 255.019 430.068 254.615 428.09 254.238L428.651 251.291ZM440.578 253.93C442.558 254.431 444.522 254.961 446.471 255.519L445.644 258.403C443.726 257.854 441.792 257.332 439.842 256.839L440.578 253.93ZM452.308 257.294C454.257 257.921 456.188 258.579 458.099 259.266L457.085 262.089C455.205 261.413 453.306 260.767 451.389 260.15L452.308 257.294ZM463.816 261.432C465.715 262.19 467.593 262.978 469.45 263.798L468.238 266.542C466.415 265.738 464.57 264.963 462.704 264.218L463.816 261.432ZM474.992 266.37C476.834 267.267 478.653 268.196 480.445 269.158L479.028 271.802C477.27 270.859 475.486 269.947 473.679 269.067L474.992 266.37ZM485.781 272.159C487.544 273.198 489.28 274.271 490.987 275.376L489.356 277.894C487.685 276.812 485.985 275.761 484.257 274.743L485.781 272.159ZM496.05 278.813C497.72 280.001 499.358 281.222 500.965 282.477L499.118 284.841C497.547 283.614 495.945 282.42 494.312 281.258L496.05 278.813ZM505.706 286.363C506.481 287.029 507.247 287.703 508.004 288.386L505.996 290.614C505.256 289.947 504.508 289.288 503.751 288.638L505.706 286.363ZM245.5 289.5L261.449 258.749L280.106 287.936L245.5 289.5ZM251.688 282.126C253.446 281.081 255.217 280.059 257.001 279.058L259.935 284.292C258.195 285.268 256.468 286.265 254.754 287.284L251.688 282.126ZM262.39 276.126C264.198 275.171 266.018 274.239 267.85 273.329L270.52 278.702C268.732 279.59 266.956 280.5 265.192 281.432L262.39 276.126ZM273.374 270.667C275.226 269.802 277.089 268.96 278.961 268.14L281.368 273.636C279.54 274.437 277.721 275.26 275.913 276.104L273.374 270.667ZM284.606 265.747C286.497 264.972 288.397 264.219 290.305 263.489L292.45 269.093C290.586 269.806 288.729 270.542 286.882 271.299L284.606 265.747ZM296.055 261.365C297.98 260.679 299.913 260.015 301.852 259.374L303.735 265.071C301.839 265.698 299.95 266.346 298.069 267.017L296.055 261.365ZM307.693 257.518C309.648 256.921 311.608 256.347 313.574 255.796L315.195 261.572C313.273 262.112 311.356 262.673 309.445 263.256L307.693 257.518ZM319.492 254.208C321.473 253.7 323.458 253.215 325.447 252.754L326.804 258.598C324.859 259.05 322.918 259.524 320.981 260.02L319.492 254.208ZM331.43 251.435C333.431 251.018 335.436 250.624 337.442 250.253L338.533 256.153C336.571 256.516 334.612 256.901 332.654 257.309L331.43 251.435ZM343.482 249.206C345.501 248.88 347.521 248.577 349.541 248.298L350.362 254.241C348.388 254.515 346.413 254.811 344.439 255.13L343.482 249.206ZM355.62 247.528C357.654 247.294 359.688 247.084 361.72 246.898L362.268 252.873C360.282 253.055 358.294 253.26 356.306 253.489L355.62 247.528ZM367.828 246.409C369.87 246.27 371.911 246.155 373.948 246.064L374.215 252.058C372.225 252.147 370.232 252.259 368.236 252.396L367.828 246.409ZM380.08 245.864C382.128 245.822 384.171 245.805 386.21 245.812L386.188 251.812C384.198 251.805 382.203 251.822 380.204 251.863L380.08 245.864ZM392.34 245.91C394.392 245.968 396.437 246.052 398.476 246.161L398.155 252.152C396.167 252.046 394.172 251.964 392.171 251.908L392.34 245.91ZM404.598 246.567C406.642 246.729 408.677 246.917 410.704 247.131L410.073 253.098C408.099 252.889 406.115 252.706 404.124 252.548L404.598 246.567ZM416.809 247.86C418.845 248.131 420.872 248.429 422.887 248.754L421.931 254.678C419.971 254.361 417.999 254.071 416.017 253.808L416.809 247.86ZM428.932 249.817C430.953 250.203 432.962 250.616 434.957 251.057L433.662 256.915C431.724 256.487 429.773 256.086 427.809 255.711L428.932 249.817ZM440.946 252.476C442.941 252.981 444.92 253.515 446.884 254.078L445.231 259.845C443.328 259.3 441.409 258.782 439.474 258.293L440.946 252.476ZM452.767 255.866C454.732 256.499 456.679 257.161 458.607 257.854L456.578 263.5C454.714 262.831 452.831 262.19 450.929 261.578L452.767 255.866ZM464.372 260.039C466.288 260.803 468.183 261.599 470.055 262.426L467.632 267.915C465.826 267.117 463.998 266.35 462.148 265.611L464.372 260.039ZM475.649 265.021C477.509 265.927 479.344 266.865 481.154 267.836L478.319 273.124C476.578 272.19 474.812 271.287 473.022 270.415L475.649 265.021ZM486.543 270.867C488.323 271.917 490.077 273 491.802 274.117L488.541 279.153C486.887 278.082 485.205 277.043 483.495 276.035L486.543 270.867ZM496.92 277.591C498.607 278.791 500.264 280.026 501.888 281.295L498.194 286.023C496.641 284.81 495.057 283.629 493.442 282.48L496.92 277.591ZM506.684 285.225C507.467 285.899 508.243 286.581 509.009 287.272L504.991 291.728C504.26 291.069 503.521 290.418 502.773 289.776L506.684 285.225Z" fill="#14BF06"/>
<path d="M1124 149L1148.95 173.035L1115.66 182.622L1124 149ZM1134.05 173.409C1140.06 183.521 1149.36 192.512 1159.89 201.012C1170.54 209.61 1181.79 217.234 1192.26 225.264C1202.48 233.108 1211.71 241.177 1217.08 250.052C1222.59 259.157 1224.05 269.15 1218.7 280.296L1213.29 277.704C1217.65 268.603 1216.54 260.752 1211.94 253.158C1207.21 245.332 1198.8 237.846 1188.61 230.024C1178.65 222.387 1166.71 214.231 1156.12 205.681C1145.41 197.032 1135.45 187.506 1128.89 176.474L1134.05 173.409Z" fill="#4B90F3"/>
<path d="M1055 149L1034.9 177.211L1069.38 180.515L1055 149ZM1049.49 175.279C1045.35 195.545 1036.57 210.892 1026.26 226.325C1015.99 241.695 1004.05 257.352 994.295 277.704L999.706 280.296C1009.21 260.455 1020.74 245.385 1031.24 229.658C1041.71 213.996 1051 197.879 1055.36 176.477L1049.49 175.279Z" fill="#4B90F3"/>
<path d="M717 149L713.621 183.476L745.168 169.164L717 149ZM726.076 175.746C734.93 184.23 748.189 190.789 764.354 196.035C780.567 201.297 799.972 205.322 821.36 208.579C864.117 215.09 915.22 218.588 965.236 222.625C1015.35 226.67 1064.37 231.255 1103.29 239.912C1122.75 244.24 1139.53 249.554 1152.61 256.245C1165.7 262.947 1174.78 270.88 1179.29 280.296L1184.71 277.704C1179.4 266.632 1169.03 257.912 1155.34 250.904C1141.63 243.886 1124.29 238.436 1104.59 234.055C1065.21 225.294 1015.78 220.685 965.719 216.644C915.558 212.596 864.75 209.117 822.263 202.647C801.03 199.414 781.981 195.448 766.207 190.328C750.385 185.193 738.125 178.981 730.227 171.414L726.076 175.746Z" fill="#4B90F3"/>
<path d="M672 149L660.189 181.565L694.297 175.511L672 149ZM673.996 176.851C683.433 197.344 704.987 210.427 731.42 219.558C757.943 228.72 790.108 234.146 821.726 238.825C853.476 243.524 884.616 247.464 909.559 253.625C922.015 256.703 932.754 260.295 941.147 264.724C949.554 269.16 955.344 274.295 958.308 280.324L963.692 277.676C959.952 270.069 952.943 264.164 943.947 259.417C934.937 254.663 923.666 250.93 910.998 247.801C885.692 241.549 854.118 237.554 822.604 232.89C790.959 228.207 759.309 222.844 733.379 213.887C707.36 204.899 687.823 192.532 679.445 174.341L673.996 176.851Z" fill="#4B90F3"/>
<path d="M627 149L614.244 181.207L648.514 176.151L627 149ZM628.088 176.639C637.284 204.834 660.576 219.345 683.193 232.476C706.174 245.818 728.242 257.68 738.259 280.218L743.741 277.782C732.769 253.094 708.607 240.292 686.206 227.287C663.44 214.07 642.197 200.548 633.793 174.778L628.088 176.639Z" fill="#4B90F3"/>
<path d="M582 149L561.302 176.778L595.707 180.814L582 149ZM575.943 175.097C571.121 194.481 561.481 208.201 552.632 223.05C543.808 237.856 536 253.5 536 276H542C542 255.11 549.162 240.593 557.786 226.121C566.385 211.692 576.672 197.018 581.765 176.545L575.943 175.097Z" fill="#4B90F3"/>
<path d="M210 149L192.679 179H227.321L210 149ZM207 176V276H213V176H207Z" fill="#4B90F3"/>
<path d="M975 101L945 83.6795L945 118.321L975 101ZM948 98L761 98L761 104L948 104L948 98Z" fill="#4B90F3"/>
<path d="M324 101L354 83.6795L354 118.321L324 101ZM351 98L538 98L538 104L351 104L351 98Z" fill="#4B90F3"/>
<path d="M1286.62 300.882L1284.63 303.121L1284.63 303.121L1286.62 300.882ZM1291.39 329.806L1293.89 331.46L1293.89 331.46L1291.39 329.806ZM1245.73 333.89L1270.18 358.429L1279.21 324.985L1245.73 333.89ZM1245.07 312.319C1251.02 306.664 1258.57 302.029 1265.88 300.043C1273.18 298.06 1279.78 298.798 1284.63 303.121L1288.62 298.644C1281.74 292.505 1272.77 291.951 1264.31 294.253C1255.85 296.551 1247.45 301.779 1240.93 307.969L1245.07 312.319ZM1284.63 303.121C1293.93 311.421 1293.32 321.441 1288.89 328.152L1293.89 331.46C1299.82 322.498 1300.35 309.11 1288.62 298.644L1284.63 303.121ZM1288.89 328.152C1285.55 333.205 1279.84 337.361 1271.59 337.933L1272 343.918C1282.26 343.207 1289.61 337.945 1293.89 331.46L1288.89 328.152Z" fill="#4B90F3"/>
<rect x="1154" y="276" width="90" height="90" rx="45" stroke="#4B90F3" stroke-width="6"/>
<path d="M1186.75 304.496H1198.6C1200.75 304.496 1202.68 304.848 1204.41 305.552C1206.17 306.256 1207.66 307.312 1208.87 308.72C1210.12 310.096 1211.08 311.84 1211.75 313.952C1212.43 316.032 1212.76 318.464 1212.76 321.248C1212.76 324.032 1212.43 326.48 1211.75 328.592C1211.08 330.672 1210.12 332.416 1208.87 333.824C1207.66 335.2 1206.17 336.24 1204.41 336.944C1202.68 337.648 1200.75 338 1198.6 338H1186.75V304.496ZM1198.6 333.2C1201.1 333.2 1203.11 332.416 1204.65 330.848C1206.19 329.28 1206.95 326.976 1206.95 323.936V318.56C1206.95 315.52 1206.19 313.216 1204.65 311.648C1203.11 310.08 1201.1 309.296 1198.6 309.296H1192.17V333.2H1198.6Z" fill="#4B90F3"/>
<path d="M1066.62 300.882L1064.63 303.121L1064.63 303.121L1066.62 300.882ZM1071.39 329.806L1073.89 331.46L1073.89 331.46L1071.39 329.806ZM1025.73 333.89L1050.18 358.429L1059.21 324.985L1025.73 333.89ZM1025.07 312.319C1031.02 306.664 1038.57 302.029 1045.88 300.043C1053.18 298.06 1059.78 298.798 1064.63 303.121L1068.62 298.644C1061.74 292.505 1052.77 291.951 1044.31 294.253C1035.85 296.551 1027.45 301.779 1020.93 307.969L1025.07 312.319ZM1064.63 303.121C1073.93 311.421 1073.32 321.441 1068.89 328.152L1073.89 331.46C1079.82 322.498 1080.35 309.11 1068.62 298.644L1064.63 303.121ZM1068.89 328.152C1065.55 333.205 1059.84 337.361 1051.59 337.933L1052 343.918C1062.26 343.207 1069.61 337.945 1073.89 331.46L1068.89 328.152Z" fill="#4B90F3"/>
<rect x="934" y="276" width="90" height="90" rx="45" stroke="#4B90F3" stroke-width="6"/>
<path d="M980.493 338.576C976.109 338.576 972.669 337.104 970.173 334.16C967.677 331.184 966.429 326.88 966.429 321.248C966.429 318.432 966.749 315.952 967.389 313.808C968.029 311.664 968.957 309.856 970.173 308.384C971.389 306.912 972.861 305.808 974.589 305.072C976.349 304.304 978.317 303.92 980.493 303.92C983.405 303.92 985.837 304.56 987.789 305.84C989.773 307.12 991.325 309.008 992.445 311.504L987.885 314C987.309 312.4 986.413 311.136 985.197 310.208C984.013 309.248 982.445 308.768 980.493 308.768C977.901 308.768 975.869 309.648 974.397 311.408C972.925 313.168 972.189 315.6 972.189 318.704V323.792C972.189 326.896 972.925 329.328 974.397 331.088C975.869 332.848 977.901 333.728 980.493 333.728C982.509 333.728 984.141 333.216 985.389 332.192C986.669 331.136 987.613 329.792 988.221 328.16L992.589 330.8C991.469 333.232 989.901 335.136 987.885 336.512C985.869 337.888 983.405 338.576 980.493 338.576Z" fill="#4B90F3"/>
<path d="M846.624 300.882L844.626 303.121L844.626 303.121L846.624 300.882ZM851.391 329.806L853.894 331.46L853.894 331.46L851.391 329.806ZM805.729 333.89L830.179 358.429L839.206 324.985L805.729 333.89ZM805.066 312.319C811.022 306.664 818.573 302.029 825.88 300.043C833.175 298.06 839.783 298.798 844.626 303.121L848.621 298.644C841.741 292.505 832.774 291.951 824.306 294.253C815.851 296.551 807.452 301.779 800.934 307.969L805.066 312.319ZM844.626 303.121C853.928 311.421 853.323 321.441 848.888 328.152L853.894 331.46C859.817 322.498 860.35 309.11 848.621 298.644L844.626 303.121ZM848.888 328.152C845.548 333.205 839.838 337.361 831.589 337.933L832.004 343.918C842.263 343.207 849.608 337.945 853.894 331.46L848.888 328.152Z" fill="#4B90F3"/>
<rect x="714" y="276" width="90" height="90" rx="45" stroke="#4B90F3" stroke-width="6"/>
<path d="M747.308 304.496H762.14C764.924 304.496 767.1 305.28 768.668 306.848C770.268 308.416 771.068 310.512 771.068 313.136C771.068 314.384 770.892 315.456 770.54 316.352C770.188 317.216 769.74 317.936 769.196 318.512C768.652 319.056 768.028 319.472 767.324 319.76C766.62 320.016 765.932 320.176 765.26 320.24V320.528C765.932 320.56 766.668 320.72 767.468 321.008C768.3 321.296 769.068 321.76 769.772 322.4C770.476 323.008 771.068 323.808 771.548 324.8C772.028 325.76 772.268 326.944 772.268 328.352C772.268 329.696 772.044 330.96 771.596 332.144C771.18 333.328 770.588 334.352 769.82 335.216C769.052 336.08 768.14 336.768 767.084 337.28C766.028 337.76 764.876 338 763.628 338H747.308V304.496ZM752.732 333.344H762.044C763.452 333.344 764.556 332.976 765.356 332.24C766.156 331.504 766.556 330.448 766.556 329.072V327.44C766.556 326.064 766.156 325.008 765.356 324.272C764.556 323.536 763.452 323.168 762.044 323.168H752.732V333.344ZM752.732 318.656H761.132C762.476 318.656 763.516 318.32 764.252 317.648C764.988 316.944 765.356 315.952 765.356 314.672V313.136C765.356 311.856 764.988 310.88 764.252 310.208C763.516 309.504 762.476 309.152 761.132 309.152H752.732V318.656Z" fill="#4B90F3"/>
<path d="M626.624 300.882L624.626 303.121L624.626 303.121L626.624 300.882ZM631.391 329.806L633.894 331.46L633.894 331.46L631.391 329.806ZM585.729 333.89L610.179 358.429L619.206 324.985L585.729 333.89ZM585.066 312.319C591.022 306.664 598.573 302.029 605.88 300.043C613.175 298.06 619.783 298.798 624.626 303.121L628.621 298.644C621.741 292.505 612.774 291.951 604.306 294.253C595.851 296.551 587.452 301.779 580.934 307.969L585.066 312.319ZM624.626 303.121C633.928 311.421 633.323 321.441 628.888 328.152L633.894 331.46C639.817 322.498 640.35 309.11 628.621 298.644L624.626 303.121ZM628.888 328.152C625.548 333.205 619.838 337.361 611.589 337.933L612.004 343.918C622.263 343.207 629.608 337.945 633.894 331.46L628.888 328.152Z" fill="#4B90F3"/>
<rect x="494" y="276" width="90" height="90" rx="45" stroke="#4B90F3" stroke-width="6"/>
<path d="M548.165 338L545.141 328.928H532.613L529.685 338H524.165L535.589 304.496H542.405L553.829 338H548.165ZM538.997 309.488H538.757L533.909 324.272H543.797L538.997 309.488Z" fill="#4B90F3"/>
<path d="M297.624 300.882L295.626 303.121L295.626 303.121L297.624 300.882ZM302.391 329.806L304.894 331.46L304.894 331.46L302.391 329.806ZM256.729 333.89L281.179 358.429L290.206 324.985L256.729 333.89ZM256.066 312.319C262.022 306.664 269.573 302.029 276.88 300.043C284.175 298.06 290.783 298.798 295.626 303.121L299.621 298.644C292.741 292.505 283.774 291.951 275.306 294.253C266.851 296.551 258.452 301.779 251.934 307.969L256.066 312.319ZM295.626 303.121C304.928 311.421 304.323 321.441 299.888 328.152L304.894 331.46C310.817 322.498 311.35 309.11 299.621 298.644L295.626 303.121ZM299.888 328.152C296.548 333.205 290.838 337.361 282.589 337.933L283.004 343.918C293.263 343.207 300.608 337.945 304.894 331.46L299.888 328.152Z" fill="#4B90F3"/>
<rect x="165" y="276" width="90" height="90" rx="45" stroke="#4B90F3" stroke-width="6"/>
<path d="M199.901 338V304.496H221.357V309.296H205.325V318.608H219.869V323.408H205.325V333.2H221.357V338H199.901Z" fill="#4B90F3"/>
<path d="M1070.22 12.0173L1072.4 14.0788L1070.22 12.0173ZM1099.9 7.89685L1098.22 10.3804L1099.9 7.89685ZM1103.32 53.8063L1128.42 29.9297L1095.2 20.1325L1103.32 53.8063ZM1081.17 53.9548C1075.48 47.8422 1070.86 40.1555 1068.95 32.7819C1067.04 25.4249 1067.91 18.8317 1072.4 14.0788L1068.04 9.95576C1061.64 16.7259 1060.92 25.7303 1063.14 34.2871C1065.35 42.8273 1070.56 51.3704 1076.78 58.0452L1081.17 53.9548ZM1072.4 14.0788C1081.06 4.92411 1091.37 5.73867 1098.22 10.3804L1101.58 5.41332C1092.57 -0.696577 1078.94 -1.56119 1068.04 9.95576L1072.4 14.0788ZM1098.22 10.3804C1103.38 13.8771 1107.54 19.7417 1107.96 28.0609L1113.96 27.7557C1113.43 17.3749 1108.14 9.85954 1101.58 5.41332L1098.22 10.3804Z" fill="#4B90F3"/>
<rect x="978" y="56" width="223" height="90" rx="45" stroke="#4B90F3" stroke-width="6"/>
<path d="M1010.22 93.04H1015.45V97.168H1015.69C1016.23 95.664 1017.11 94.512 1018.33 93.712C1019.58 92.88 1021.03 92.464 1022.7 92.464C1025.86 92.464 1028.31 93.616 1030.04 95.92C1031.77 98.192 1032.63 101.392 1032.63 105.52C1032.63 109.648 1031.77 112.864 1030.04 115.168C1028.31 117.44 1025.86 118.576 1022.7 118.576C1021.03 118.576 1019.58 118.16 1018.33 117.328C1017.11 116.496 1016.23 115.344 1015.69 113.872H1015.45V127.6H1010.22V93.04ZM1021.11 114.064C1022.94 114.064 1024.39 113.488 1025.48 112.336C1026.57 111.152 1027.11 109.6 1027.11 107.68V103.36C1027.11 101.44 1026.57 99.904 1025.48 98.752C1024.39 97.568 1022.94 96.976 1021.11 96.976C1019.51 96.976 1018.17 97.376 1017.08 98.176C1015.99 98.944 1015.45 99.968 1015.45 101.248V109.792C1015.45 111.072 1015.99 112.112 1017.08 112.912C1018.17 113.68 1019.51 114.064 1021.11 114.064ZM1038.14 118V93.04H1043.37V97.84H1043.61C1043.97 96.56 1044.7 95.44 1045.82 94.48C1046.94 93.52 1048.49 93.04 1050.48 93.04H1051.87V98.08H1049.81C1047.73 98.08 1046.13 98.416 1045.01 99.088C1043.92 99.76 1043.37 100.752 1043.37 102.064V118H1038.14ZM1065.59 118.576C1063.87 118.576 1062.28 118.272 1060.84 117.664C1059.43 117.056 1058.23 116.192 1057.24 115.072C1056.25 113.92 1055.48 112.544 1054.94 110.944C1054.39 109.312 1054.12 107.504 1054.12 105.52C1054.12 103.536 1054.39 101.744 1054.94 100.144C1055.48 98.512 1056.25 97.136 1057.24 96.016C1058.23 94.864 1059.43 93.984 1060.84 93.376C1062.28 92.768 1063.87 92.464 1065.59 92.464C1067.32 92.464 1068.89 92.768 1070.3 93.376C1071.74 93.984 1072.95 94.864 1073.95 96.016C1074.94 97.136 1075.71 98.512 1076.25 100.144C1076.79 101.744 1077.07 103.536 1077.07 105.52C1077.07 107.504 1076.79 109.312 1076.25 110.944C1075.71 112.544 1074.94 113.92 1073.95 115.072C1072.95 116.192 1071.74 117.056 1070.3 117.664C1068.89 118.272 1067.32 118.576 1065.59 118.576ZM1065.59 114.256C1067.39 114.256 1068.83 113.712 1069.91 112.624C1071 111.504 1071.55 109.84 1071.55 107.632V103.408C1071.55 101.2 1071 99.552 1069.91 98.464C1068.83 97.344 1067.39 96.784 1065.59 96.784C1063.8 96.784 1062.36 97.344 1061.27 98.464C1060.19 99.552 1059.64 101.2 1059.64 103.408V107.632C1059.64 109.84 1060.19 111.504 1061.27 112.624C1062.36 113.712 1063.8 114.256 1065.59 114.256ZM1078.98 118L1087.76 105.376L1079.22 93.04H1085.26L1090.88 101.728H1091.02L1096.78 93.04H1102.35L1093.81 105.328L1102.5 118H1096.45L1090.69 108.928H1090.54L1084.54 118H1078.98ZM1122.04 93.04H1127.08L1116.57 122.944C1116.28 123.776 1115.95 124.48 1115.56 125.056C1115.21 125.664 1114.78 126.144 1114.27 126.496C1113.79 126.88 1113.2 127.152 1112.49 127.312C1111.79 127.504 1110.96 127.6 1110 127.6H1106.97V123.328H1111.2L1112.64 119.104L1103.56 93.04H1108.8L1113.79 107.728L1115.23 113.152H1115.47L1117.05 107.728L1122.04 93.04ZM1162.99 112.672H1162.75C1162.49 114.368 1161.63 115.776 1160.16 116.896C1158.68 118.016 1156.68 118.576 1154.16 118.576C1152.24 118.576 1150.44 118.208 1148.78 117.472C1147.12 116.736 1145.66 115.648 1144.41 114.208C1143.16 112.768 1142.19 110.976 1141.48 108.832C1140.78 106.688 1140.43 104.208 1140.43 101.392C1140.43 98.576 1140.8 96.08 1141.53 93.904C1142.27 91.728 1143.29 89.904 1144.6 88.432C1145.95 86.96 1147.55 85.84 1149.4 85.072C1151.26 84.304 1153.32 83.92 1155.6 83.92C1158.6 83.92 1161.2 84.576 1163.37 85.888C1165.55 87.168 1167.26 89.104 1168.51 91.696L1162.56 95.104C1162.04 93.792 1161.24 92.688 1160.16 91.792C1159.07 90.864 1157.55 90.4 1155.6 90.4C1153.32 90.4 1151.52 91.056 1150.17 92.368C1148.83 93.68 1148.16 95.744 1148.16 98.56V103.936C1148.16 106.72 1148.83 108.784 1150.17 110.128C1151.52 111.44 1153.32 112.096 1155.6 112.096C1156.49 112.096 1157.34 112 1158.14 111.808C1158.94 111.584 1159.64 111.264 1160.25 110.848C1160.86 110.4 1161.32 109.872 1161.64 109.264C1162 108.656 1162.17 107.936 1162.17 107.104V105.424H1155.93V99.328H1169.13V118H1162.99V112.672Z" fill="#4B90F3"/>
<path d="M630.222 12.0173L632.402 14.0788L630.222 12.0173ZM659.9 7.89685L658.217 10.3804L659.9 7.89685ZM663.324 53.8063L688.422 29.9297L655.196 20.1325L663.324 53.8063ZM641.174 53.9548C635.478 47.8422 630.86 40.1555 628.949 32.7819C627.042 25.4249 627.906 18.8317 632.402 14.0788L628.043 9.95576C621.639 16.7259 620.923 25.7303 623.141 34.2871C625.354 42.8273 630.564 51.3704 636.784 58.0452L641.174 53.9548ZM632.402 14.0788C641.061 4.92411 651.367 5.73867 658.217 10.3804L661.583 5.41332C652.566 -0.696577 638.936 -1.56119 628.043 9.95576L632.402 14.0788ZM658.217 10.3804C663.378 13.8771 667.541 19.7417 667.964 28.0609L673.957 27.7557C673.428 17.3749 668.145 9.85954 661.583 5.41332L658.217 10.3804Z" fill="#4B90F3"/>
<rect x="538" y="56" width="223" height="90" rx="45" stroke="#4B90F3" stroke-width="6"/>
<path d="M590.017 120.352C590.017 122.944 589.025 124.896 587.041 126.208C585.057 127.52 581.825 128.176 577.345 128.176C575.297 128.176 573.553 128.032 572.113 127.744C570.705 127.488 569.537 127.104 568.609 126.592C567.713 126.08 567.057 125.456 566.641 124.72C566.225 123.984 566.017 123.136 566.017 122.176C566.017 120.8 566.385 119.728 567.121 118.96C567.889 118.192 568.945 117.664 570.289 117.376V116.848C568.401 116.24 567.457 114.96 567.457 113.008C567.457 111.728 567.889 110.752 568.753 110.08C569.617 109.376 570.657 108.88 571.873 108.592V108.4C570.401 107.696 569.265 106.72 568.465 105.472C567.697 104.192 567.313 102.704 567.313 101.008C567.313 98.448 568.161 96.384 569.857 94.816C571.585 93.248 574.049 92.464 577.249 92.464C579.009 92.464 580.513 92.72 581.761 93.232V92.56C581.761 91.44 582.017 90.576 582.529 89.968C583.073 89.328 583.905 89.008 585.025 89.008H588.865V93.232H583.777V94.24C584.897 94.976 585.761 95.936 586.369 97.12C586.977 98.272 587.281 99.568 587.281 101.008C587.281 103.536 586.417 105.584 584.689 107.152C582.961 108.688 580.497 109.456 577.297 109.456C576.081 109.456 574.993 109.328 574.033 109.072C573.393 109.296 572.833 109.616 572.353 110.032C571.873 110.416 571.633 110.928 571.633 111.568C571.633 112.24 571.937 112.72 572.545 113.008C573.153 113.296 574.017 113.44 575.137 113.44H581.281C584.353 113.44 586.577 114.064 587.953 115.312C589.329 116.528 590.017 118.208 590.017 120.352ZM585.121 120.928C585.121 120.064 584.785 119.376 584.113 118.864C583.473 118.352 582.289 118.096 580.561 118.096H572.113C570.961 118.768 570.385 119.728 570.385 120.976C570.385 122 570.785 122.816 571.585 123.424C572.417 124.064 573.809 124.384 575.761 124.384H579.025C583.089 124.384 585.121 123.232 585.121 120.928ZM577.297 105.664C578.833 105.664 580.017 105.328 580.849 104.656C581.713 103.952 582.145 102.88 582.145 101.44V100.48C582.145 99.04 581.713 97.984 580.849 97.312C580.017 96.608 578.833 96.256 577.297 96.256C575.761 96.256 574.561 96.608 573.697 97.312C572.865 97.984 572.449 99.04 572.449 100.48V101.44C572.449 102.88 572.865 103.952 573.697 104.656C574.561 105.328 575.761 105.664 577.297 105.664ZM593.431 118V93.04H598.663V97.84H598.903C599.255 96.56 599.991 95.44 601.111 94.48C602.231 93.52 603.783 93.04 605.767 93.04H607.159V98.08H605.095C603.015 98.08 601.415 98.416 600.295 99.088C599.207 99.76 598.663 100.752 598.663 102.064V118H593.431ZM620.883 118.576C619.155 118.576 617.571 118.272 616.131 117.664C614.723 117.056 613.523 116.192 612.531 115.072C611.539 113.92 610.771 112.544 610.227 110.944C609.683 109.312 609.411 107.504 609.411 105.52C609.411 103.536 609.683 101.744 610.227 100.144C610.771 98.512 611.539 97.136 612.531 96.016C613.523 94.864 614.723 93.984 616.131 93.376C617.571 92.768 619.155 92.464 620.883 92.464C622.611 92.464 624.179 92.768 625.587 93.376C627.027 93.984 628.243 94.864 629.235 96.016C630.227 97.136 630.995 98.512 631.539 100.144C632.083 101.744 632.355 103.536 632.355 105.52C632.355 107.504 632.083 109.312 631.539 110.944C630.995 112.544 630.227 113.92 629.235 115.072C628.243 116.192 627.027 117.056 625.587 117.664C624.179 118.272 622.611 118.576 620.883 118.576ZM620.883 114.256C622.675 114.256 624.115 113.712 625.203 112.624C626.291 111.504 626.835 109.84 626.835 107.632V103.408C626.835 101.2 626.291 99.552 625.203 98.464C624.115 97.344 622.675 96.784 620.883 96.784C619.091 96.784 617.651 97.344 616.563 98.464C615.475 99.552 614.931 101.2 614.931 103.408V107.632C614.931 109.84 615.475 111.504 616.563 112.624C617.651 113.712 619.091 114.256 620.883 114.256ZM652.825 113.872H652.633C652.409 114.48 652.105 115.072 651.721 115.648C651.369 116.224 650.905 116.736 650.329 117.184C649.785 117.6 649.113 117.936 648.313 118.192C647.545 118.448 646.649 118.576 645.625 118.576C643.033 118.576 641.017 117.744 639.577 116.08C638.169 114.416 637.465 112.032 637.465 108.928V93.04H642.697V108.256C642.697 112.128 644.297 114.064 647.497 114.064C648.169 114.064 648.825 113.984 649.465 113.824C650.105 113.632 650.665 113.36 651.145 113.008C651.657 112.656 652.057 112.208 652.345 111.664C652.665 111.12 652.825 110.48 652.825 109.744V93.04H658.057V118H652.825V113.872ZM665.069 93.04H670.301V97.168H670.541C671.085 95.664 671.965 94.512 673.181 93.712C674.429 92.88 675.885 92.464 677.549 92.464C680.717 92.464 683.165 93.616 684.893 95.92C686.621 98.192 687.485 101.392 687.485 105.52C687.485 109.648 686.621 112.864 684.893 115.168C683.165 117.44 680.717 118.576 677.549 118.576C675.885 118.576 674.429 118.16 673.181 117.328C671.965 116.496 671.085 115.344 670.541 113.872H670.301V127.6H665.069V93.04ZM675.965 114.064C677.789 114.064 679.245 113.488 680.333 112.336C681.421 111.152 681.965 109.6 681.965 107.68V103.36C681.965 101.44 681.421 99.904 680.333 98.752C679.245 97.568 677.789 96.976 675.965 96.976C674.365 96.976 673.021 97.376 671.933 98.176C670.845 98.944 670.301 99.968 670.301 101.248V109.792C670.301 111.072 670.845 112.112 671.933 112.912C673.021 113.68 674.365 114.064 675.965 114.064ZM725.075 112.672H724.835C724.579 114.368 723.715 115.776 722.243 116.896C720.771 118.016 718.771 118.576 716.243 118.576C714.323 118.576 712.531 118.208 710.867 117.472C709.203 116.736 707.747 115.648 706.499 114.208C705.251 112.768 704.275 110.976 703.571 108.832C702.867 106.688 702.515 104.208 702.515 101.392C702.515 98.576 702.883 96.08 703.619 93.904C704.355 91.728 705.379 89.904 706.691 88.432C708.035 86.96 709.635 85.84 711.491 85.072C713.347 84.304 715.411 83.92 717.683 83.92C720.691 83.92 723.283 84.576 725.459 85.888C727.635 87.168 729.347 89.104 730.595 91.696L724.643 95.104C724.131 93.792 723.331 92.688 722.243 91.792C721.155 90.864 719.635 90.4 717.683 90.4C715.411 90.4 713.603 91.056 712.259 92.368C710.915 93.68 710.243 95.744 710.243 98.56V103.936C710.243 106.72 710.915 108.784 712.259 110.128C713.603 111.44 715.411 112.096 717.683 112.096C718.579 112.096 719.427 112 720.227 111.808C721.027 111.584 721.731 111.264 722.339 110.848C722.947 110.4 723.411 109.872 723.731 109.264C724.083 108.656 724.259 107.936 724.259 107.104V105.424H718.019V99.328H731.219V118H725.075V112.672Z" fill="#4B90F3"/>
<path d="M190.222 12.0173L192.402 14.0788L190.222 12.0173ZM219.9 7.89685L218.217 10.3804L219.9 7.89685ZM223.324 53.8063L248.422 29.9297L215.196 20.1325L223.324 53.8063ZM201.174 53.9548C195.478 47.8422 190.86 40.1555 188.949 32.7819C187.042 25.4249 187.906 18.8317 192.402 14.0788L188.043 9.95576C181.639 16.7259 180.923 25.7303 183.141 34.2871C185.354 42.8273 190.564 51.3704 196.784 58.0452L201.174 53.9548ZM192.402 14.0788C201.061 4.92411 211.367 5.73867 218.217 10.3804L221.583 5.41332C212.566 -0.696577 198.936 -1.56119 188.043 9.95576L192.402 14.0788ZM218.217 10.3804C223.378 13.8771 227.541 19.7417 227.964 28.0609L233.957 27.7557C233.428 17.3749 228.145 9.85954 221.583 5.41332L218.217 10.3804Z" fill="#4B90F3"/>
<rect x="98" y="56" width="223" height="90" rx="45" stroke="#4B90F3" stroke-width="6"/>
<path d="M149.9 120.352C149.9 122.944 148.908 124.896 146.924 126.208C144.94 127.52 141.708 128.176 137.228 128.176C135.18 128.176 133.436 128.032 131.996 127.744C130.588 127.488 129.42 127.104 128.492 126.592C127.596 126.08 126.94 125.456 126.524 124.72C126.108 123.984 125.9 123.136 125.9 122.176C125.9 120.8 126.268 119.728 127.004 118.96C127.772 118.192 128.828 117.664 130.172 117.376V116.848C128.284 116.24 127.34 114.96 127.34 113.008C127.34 111.728 127.772 110.752 128.636 110.08C129.5 109.376 130.54 108.88 131.756 108.592V108.4C130.284 107.696 129.148 106.72 128.348 105.472C127.58 104.192 127.196 102.704 127.196 101.008C127.196 98.448 128.044 96.384 129.74 94.816C131.468 93.248 133.932 92.464 137.132 92.464C138.892 92.464 140.396 92.72 141.644 93.232V92.56C141.644 91.44 141.9 90.576 142.412 89.968C142.956 89.328 143.788 89.008 144.908 89.008H148.748V93.232H143.66V94.24C144.78 94.976 145.644 95.936 146.252 97.12C146.86 98.272 147.164 99.568 147.164 101.008C147.164 103.536 146.3 105.584 144.572 107.152C142.844 108.688 140.38 109.456 137.18 109.456C135.964 109.456 134.876 109.328 133.916 109.072C133.276 109.296 132.716 109.616 132.236 110.032C131.756 110.416 131.516 110.928 131.516 111.568C131.516 112.24 131.82 112.72 132.428 113.008C133.036 113.296 133.9 113.44 135.02 113.44H141.164C144.236 113.44 146.46 114.064 147.836 115.312C149.212 116.528 149.9 118.208 149.9 120.352ZM145.004 120.928C145.004 120.064 144.668 119.376 143.996 118.864C143.356 118.352 142.172 118.096 140.444 118.096H131.996C130.844 118.768 130.268 119.728 130.268 120.976C130.268 122 130.668 122.816 131.468 123.424C132.3 124.064 133.692 124.384 135.644 124.384H138.908C142.972 124.384 145.004 123.232 145.004 120.928ZM137.18 105.664C138.716 105.664 139.9 105.328 140.732 104.656C141.596 103.952 142.028 102.88 142.028 101.44V100.48C142.028 99.04 141.596 97.984 140.732 97.312C139.9 96.608 138.716 96.256 137.18 96.256C135.644 96.256 134.444 96.608 133.58 97.312C132.748 97.984 132.332 99.04 132.332 100.48V101.44C132.332 102.88 132.748 103.952 133.58 104.656C134.444 105.328 135.644 105.664 137.18 105.664ZM153.313 118V93.04H158.545V97.84H158.785C159.137 96.56 159.873 95.44 160.993 94.48C162.113 93.52 163.665 93.04 165.649 93.04H167.041V98.08H164.977C162.897 98.08 161.297 98.416 160.177 99.088C159.089 99.76 158.545 100.752 158.545 102.064V118H153.313ZM180.766 118.576C179.038 118.576 177.454 118.272 176.014 117.664C174.606 117.056 173.406 116.192 172.414 115.072C171.422 113.92 170.654 112.544 170.11 110.944C169.566 109.312 169.294 107.504 169.294 105.52C169.294 103.536 169.566 101.744 170.11 100.144C170.654 98.512 171.422 97.136 172.414 96.016C173.406 94.864 174.606 93.984 176.014 93.376C177.454 92.768 179.038 92.464 180.766 92.464C182.494 92.464 184.062 92.768 185.47 93.376C186.91 93.984 188.126 94.864 189.118 96.016C190.11 97.136 190.878 98.512 191.422 100.144C191.966 101.744 192.238 103.536 192.238 105.52C192.238 107.504 191.966 109.312 191.422 110.944C190.878 112.544 190.11 113.92 189.118 115.072C188.126 116.192 186.91 117.056 185.47 117.664C184.062 118.272 182.494 118.576 180.766 118.576ZM180.766 114.256C182.558 114.256 183.998 113.712 185.086 112.624C186.174 111.504 186.718 109.84 186.718 107.632V103.408C186.718 101.2 186.174 99.552 185.086 98.464C183.998 97.344 182.558 96.784 180.766 96.784C178.974 96.784 177.534 97.344 176.446 98.464C175.358 99.552 174.814 101.2 174.814 103.408V107.632C174.814 109.84 175.358 111.504 176.446 112.624C177.534 113.712 178.974 114.256 180.766 114.256ZM212.708 113.872H212.516C212.292 114.48 211.988 115.072 211.604 115.648C211.252 116.224 210.788 116.736 210.212 117.184C209.668 117.6 208.996 117.936 208.196 118.192C207.428 118.448 206.532 118.576 205.508 118.576C202.916 118.576 200.9 117.744 199.46 116.08C198.052 114.416 197.348 112.032 197.348 108.928V93.04H202.58V108.256C202.58 112.128 204.18 114.064 207.38 114.064C208.052 114.064 208.708 113.984 209.348 113.824C209.988 113.632 210.548 113.36 211.028 113.008C211.54 112.656 211.94 112.208 212.228 111.664C212.548 111.12 212.708 110.48 212.708 109.744V93.04H217.94V118H212.708V113.872ZM224.952 93.04H230.184V97.168H230.424C230.968 95.664 231.848 94.512 233.064 93.712C234.312 92.88 235.768 92.464 237.432 92.464C240.6 92.464 243.048 93.616 244.776 95.92C246.504 98.192 247.368 101.392 247.368 105.52C247.368 109.648 246.504 112.864 244.776 115.168C243.048 117.44 240.6 118.576 237.432 118.576C235.768 118.576 234.312 118.16 233.064 117.328C231.848 116.496 230.968 115.344 230.424 113.872H230.184V127.6H224.952V93.04ZM235.848 114.064C237.672 114.064 239.128 113.488 240.216 112.336C241.304 111.152 241.848 109.6 241.848 107.68V103.36C241.848 101.44 241.304 99.904 240.216 98.752C239.128 97.568 237.672 96.976 235.848 96.976C234.248 96.976 232.904 97.376 231.816 98.176C230.728 98.944 230.184 99.968 230.184 101.248V109.792C230.184 111.072 230.728 112.112 231.816 112.912C232.904 113.68 234.248 114.064 235.848 114.064ZM283.757 104.272H270.989V118H263.693V84.496H270.989V97.84H283.757V84.496H291.053V118H283.757V104.272Z" fill="#4B90F3"/>
</svg>
