<svg width="640" height="643" viewBox="0 0 640 643" fill="none" xmlns="http://www.w3.org/2000/svg">
<path d="M512.292 360.225L480.258 373.408L507.693 394.559L512.292 360.225ZM493.431 379.776L402.331 497.944L407.083 501.607L498.183 383.439L493.431 379.776Z" fill="#4B90F3"/>
<path d="M320 369L302.679 399H337.321L320 369ZM317 396V496H323V396H317Z" fill="#4B90F3"/>
<path d="M128 360.225L160.034 373.408L132.599 394.559L128 360.225ZM146.861 379.776L237.961 497.944L233.209 501.607L142.109 383.439L146.861 379.776Z" fill="#4B90F3"/>
<path d="M408 144.039L440.034 157.223L412.599 178.373L408 144.039ZM426.861 163.59L517.477 281.13L512.725 284.793L422.109 167.254L426.861 163.59Z" fill="#4B90F3"/>
<path d="M320 149L302.679 179H337.321L320 149ZM317 176V276H323V176H317Z" fill="#4B90F3"/>
<path d="M231.05 144.039L199.016 157.223L226.451 178.373L231.05 144.039ZM212.189 163.59L121.574 281.13L126.326 284.793L216.941 167.254L212.189 163.59Z" fill="#4B90F3"/>
<path d="M339.227 631.293L337.026 629.254L339.227 631.293ZM309.95 635.442L311.657 632.975L309.95 635.442ZM306.572 589.209L281.562 613.178L314.825 622.853L306.572 589.209ZM328.373 589.023C333.991 595.177 338.551 602.923 340.44 610.362C342.326 617.792 341.469 624.458 337.026 629.254L341.427 633.332C347.736 626.522 348.438 617.481 346.255 608.886C344.076 600.299 338.941 591.7 332.804 584.977L328.373 589.023ZM337.026 629.254C332.673 633.951 327.993 635.962 323.666 636.31C319.293 636.662 315.063 635.331 311.657 632.975L308.243 637.909C312.663 640.967 318.25 642.765 324.147 642.291C330.091 641.813 336.136 639.043 341.427 633.332L337.026 629.254ZM311.657 632.975C306.55 629.443 302.409 623.486 302.029 615L296.035 615.268C296.506 625.777 301.722 633.399 308.243 637.909L311.657 632.975Z" fill="#4B90F3"/>
<rect x="208" y="496" width="223" height="90" rx="45" stroke="#4B90F3" stroke-width="6"/>
<path d="M248.176 528.576C247.088 528.576 246.288 528.32 245.776 527.808C245.296 527.296 245.056 526.64 245.056 525.84V525.024C245.056 524.224 245.296 523.568 245.776 523.056C246.288 522.544 247.088 522.288 248.176 522.288C249.264 522.288 250.048 522.544 250.528 523.056C251.008 523.568 251.248 524.224 251.248 525.024V525.84C251.248 526.64 251.008 527.296 250.528 527.808C250.048 528.32 249.264 528.576 248.176 528.576ZM245.536 533.04H250.768V558H245.536V533.04ZM257.759 558V533.04H262.991V537.168H263.231C263.775 535.824 264.591 534.704 265.679 533.808C266.799 532.912 268.319 532.464 270.239 532.464C272.799 532.464 274.783 533.312 276.191 535.008C277.631 536.672 278.351 539.056 278.351 542.16V558H273.119V542.832C273.119 538.928 271.551 536.976 268.415 536.976C267.743 536.976 267.071 537.072 266.399 537.264C265.759 537.424 265.183 537.68 264.671 538.032C264.159 538.384 263.743 538.832 263.423 539.376C263.135 539.92 262.991 540.56 262.991 541.296V558H257.759ZM307.01 560.352C307.01 562.944 306.018 564.896 304.034 566.208C302.05 567.52 298.818 568.176 294.338 568.176C292.29 568.176 290.546 568.032 289.106 567.744C287.698 567.488 286.53 567.104 285.602 566.592C284.706 566.08 284.05 565.456 283.634 564.72C283.218 563.984 283.01 563.136 283.01 562.176C283.01 560.8 283.378 559.728 284.114 558.96C284.882 558.192 285.938 557.664 287.282 557.376V556.848C285.394 556.24 284.45 554.96 284.45 553.008C284.45 551.728 284.882 550.752 285.746 550.08C286.61 549.376 287.65 548.88 288.866 548.592V548.4C287.394 547.696 286.258 546.72 285.458 545.472C284.69 544.192 284.306 542.704 284.306 541.008C284.306 538.448 285.154 536.384 286.85 534.816C288.578 533.248 291.042 532.464 294.242 532.464C296.002 532.464 297.506 532.72 298.754 533.232V532.56C298.754 531.44 299.01 530.576 299.522 529.968C300.066 529.328 300.898 529.008 302.018 529.008H305.858V533.232H300.77V534.24C301.89 534.976 302.754 535.936 303.362 537.12C303.97 538.272 304.274 539.568 304.274 541.008C304.274 543.536 303.41 545.584 301.682 547.152C299.954 548.688 297.49 549.456 294.29 549.456C293.074 549.456 291.986 549.328 291.026 549.072C290.386 549.296 289.826 549.616 289.346 550.032C288.866 550.416 288.626 550.928 288.626 551.568C288.626 552.24 288.93 552.72 289.538 553.008C290.146 553.296 291.01 553.44 292.13 553.44H298.274C301.346 553.44 303.57 554.064 304.946 555.312C306.322 556.528 307.01 558.208 307.01 560.352ZM302.114 560.928C302.114 560.064 301.778 559.376 301.106 558.864C300.466 558.352 299.282 558.096 297.554 558.096H289.106C287.954 558.768 287.378 559.728 287.378 560.976C287.378 562 287.778 562.816 288.578 563.424C289.41 564.064 290.802 564.384 292.754 564.384H296.018C300.082 564.384 302.114 563.232 302.114 560.928ZM294.29 545.664C295.826 545.664 297.01 545.328 297.842 544.656C298.706 543.952 299.138 542.88 299.138 541.44V540.48C299.138 539.04 298.706 537.984 297.842 537.312C297.01 536.608 295.826 536.256 294.29 536.256C292.754 536.256 291.554 536.608 290.69 537.312C289.858 537.984 289.442 539.04 289.442 540.48V541.44C289.442 542.88 289.858 543.952 290.69 544.656C291.554 545.328 292.754 545.664 294.29 545.664ZM310.424 558V533.04H315.656V537.84H315.896C316.248 536.56 316.984 535.44 318.104 534.48C319.224 533.52 320.776 533.04 322.76 533.04H324.152V538.08H322.088C320.008 538.08 318.408 538.416 317.288 539.088C316.2 539.76 315.656 540.752 315.656 542.064V558H310.424ZM337.876 558.576C336.084 558.576 334.484 558.272 333.076 557.664C331.668 557.056 330.468 556.192 329.476 555.072C328.484 553.92 327.716 552.544 327.172 550.944C326.66 549.312 326.404 547.504 326.404 545.52C326.404 543.536 326.66 541.744 327.172 540.144C327.716 538.512 328.484 537.136 329.476 536.016C330.468 534.864 331.668 533.984 333.076 533.376C334.484 532.768 336.084 532.464 337.876 532.464C339.7 532.464 341.3 532.784 342.676 533.424C344.084 534.064 345.252 534.96 346.18 536.112C347.108 537.232 347.796 538.544 348.244 540.048C348.724 541.552 348.964 543.168 348.964 544.896V546.864H331.828V547.68C331.828 549.6 332.388 551.184 333.508 552.432C334.66 553.648 336.292 554.256 338.404 554.256C339.94 554.256 341.236 553.92 342.292 553.248C343.348 552.576 344.244 551.664 344.98 550.512L348.052 553.536C347.124 555.072 345.78 556.304 344.02 557.232C342.26 558.128 340.212 558.576 337.876 558.576ZM337.876 536.544C336.98 536.544 336.148 536.704 335.38 537.024C334.644 537.344 334.004 537.792 333.46 538.368C332.948 538.944 332.548 539.632 332.26 540.432C331.972 541.232 331.828 542.112 331.828 543.072V543.408H343.444V542.928C343.444 541.008 342.948 539.472 341.956 538.32C340.964 537.136 339.604 536.544 337.876 536.544ZM362.196 558.576C359.828 558.576 357.844 558.16 356.244 557.328C354.644 556.496 353.252 555.344 352.068 553.872L355.428 550.8C356.356 551.92 357.38 552.8 358.5 553.44C359.652 554.048 360.98 554.352 362.484 554.352C364.02 554.352 365.156 554.064 365.892 553.488C366.66 552.88 367.044 552.048 367.044 550.992C367.044 550.192 366.772 549.52 366.228 548.976C365.716 548.4 364.804 548.032 363.492 547.872L361.188 547.584C358.628 547.264 356.612 546.528 355.14 545.376C353.7 544.192 352.98 542.448 352.98 540.144C352.98 538.928 353.204 537.856 353.652 536.928C354.1 535.968 354.724 535.168 355.524 534.528C356.356 533.856 357.332 533.344 358.452 532.992C359.604 532.64 360.868 532.464 362.244 532.464C364.484 532.464 366.308 532.816 367.716 533.52C369.156 534.224 370.436 535.2 371.556 536.448L368.34 539.52C367.7 538.752 366.852 538.096 365.796 537.552C364.772 536.976 363.588 536.688 362.244 536.688C360.804 536.688 359.732 536.976 359.028 537.552C358.356 538.128 358.02 538.88 358.02 539.808C358.02 540.768 358.324 541.488 358.932 541.968C359.54 542.448 360.516 542.8 361.86 543.024L364.164 543.312C366.916 543.728 368.916 544.544 370.164 545.76C371.444 546.944 372.084 548.544 372.084 550.56C372.084 551.776 371.844 552.88 371.364 553.872C370.916 554.832 370.26 555.664 369.396 556.368C368.532 557.072 367.492 557.616 366.276 558C365.06 558.384 363.7 558.576 362.196 558.576ZM385.154 558.576C382.786 558.576 380.802 558.16 379.202 557.328C377.602 556.496 376.21 555.344 375.026 553.872L378.386 550.8C379.314 551.92 380.338 552.8 381.458 553.44C382.61 554.048 383.938 554.352 385.442 554.352C386.978 554.352 388.114 554.064 388.85 553.488C389.618 552.88 390.002 552.048 390.002 550.992C390.002 550.192 389.73 549.52 389.186 548.976C388.674 548.4 387.762 548.032 386.45 547.872L384.146 547.584C381.586 547.264 379.57 546.528 378.098 545.376C376.658 544.192 375.938 542.448 375.938 540.144C375.938 538.928 376.162 537.856 376.61 536.928C377.058 535.968 377.682 535.168 378.482 534.528C379.314 533.856 380.29 533.344 381.41 532.992C382.562 532.64 383.826 532.464 385.202 532.464C387.442 532.464 389.266 532.816 390.674 533.52C392.114 534.224 393.394 535.2 394.514 536.448L391.298 539.52C390.658 538.752 389.81 538.096 388.754 537.552C387.73 536.976 386.546 536.688 385.202 536.688C383.762 536.688 382.69 536.976 381.986 537.552C381.314 538.128 380.978 538.88 380.978 539.808C380.978 540.768 381.282 541.488 381.89 541.968C382.498 542.448 383.474 542.8 384.818 543.024L387.122 543.312C389.874 543.728 391.874 544.544 393.122 545.76C394.402 546.944 395.042 548.544 395.042 550.56C395.042 551.776 394.802 552.88 394.322 553.872C393.874 554.832 393.218 555.664 392.354 556.368C391.49 557.072 390.45 557.616 389.234 558C388.018 558.384 386.658 558.576 385.154 558.576Z" fill="#4B90F3"/>
<path d="M627.624 300.882L625.626 303.121L627.624 300.882ZM632.391 329.806L634.894 331.46L632.391 329.806ZM586.729 333.89L611.179 358.429L620.206 324.985L586.729 333.89ZM586.066 312.319C592.022 306.664 599.573 302.029 606.88 300.043C614.175 298.06 620.783 298.798 625.626 303.121L629.621 298.644C622.741 292.505 613.774 291.951 605.306 294.253C596.851 296.551 588.452 301.779 581.934 307.969L586.066 312.319ZM625.626 303.121C634.929 311.421 634.323 321.441 629.888 328.152L634.894 331.46C640.817 322.498 641.35 309.11 629.621 298.644L625.626 303.121ZM629.888 328.152C626.548 333.205 620.838 337.361 612.589 337.933L613.004 343.918C623.263 343.207 630.608 337.945 634.894 331.46L629.888 328.152Z" fill="#4B90F3"/>
<rect x="495" y="276" width="90" height="90" rx="45" stroke="#4B90F3" stroke-width="6"/>
<path d="M541.493 338.576C537.109 338.576 533.669 337.104 531.173 334.16C528.677 331.184 527.429 326.88 527.429 321.248C527.429 318.432 527.749 315.952 528.389 313.808C529.029 311.664 529.957 309.856 531.173 308.384C532.389 306.912 533.861 305.808 535.589 305.072C537.349 304.304 539.317 303.92 541.493 303.92C544.405 303.92 546.837 304.56 548.789 305.84C550.773 307.12 552.325 309.008 553.445 311.504L548.885 314C548.309 312.4 547.413 311.136 546.197 310.208C545.013 309.248 543.445 308.768 541.493 308.768C538.901 308.768 536.869 309.648 535.397 311.408C533.925 313.168 533.189 315.6 533.189 318.704V323.792C533.189 326.896 533.925 329.328 535.397 331.088C536.869 332.848 538.901 333.728 541.493 333.728C543.509 333.728 545.141 333.216 546.389 332.192C547.669 331.136 548.613 329.792 549.221 328.16L553.589 330.8C552.469 333.232 550.901 335.136 548.885 336.512C546.869 337.888 544.405 338.576 541.493 338.576Z" fill="#4B90F3"/>
<path d="M407.624 300.882L405.626 303.121L407.624 300.882ZM412.391 329.806L414.894 331.46L412.391 329.806ZM366.729 333.89L391.179 358.429L400.206 324.985L366.729 333.89ZM366.066 312.319C372.022 306.664 379.573 302.029 386.88 300.043C394.175 298.06 400.783 298.798 405.626 303.121L409.621 298.644C402.741 292.505 393.774 291.951 385.306 294.253C376.851 296.551 368.452 301.779 361.934 307.969L366.066 312.319ZM405.626 303.121C414.929 311.421 414.323 321.441 409.888 328.152L414.894 331.46C420.817 322.498 421.35 309.11 409.621 298.644L405.626 303.121ZM409.888 328.152C406.548 333.205 400.838 337.361 392.589 337.933L393.004 343.918C403.263 343.207 410.608 337.945 414.894 331.46L409.888 328.152Z" fill="#4B90F3"/>
<rect x="275" y="276" width="90" height="90" rx="45" stroke="#4B90F3" stroke-width="6"/>
<path d="M308.308 304.496H323.14C325.924 304.496 328.1 305.28 329.668 306.848C331.268 308.416 332.068 310.512 332.068 313.136C332.068 314.384 331.892 315.456 331.54 316.352C331.188 317.216 330.74 317.936 330.196 318.512C329.652 319.056 329.028 319.472 328.324 319.76C327.62 320.016 326.932 320.176 326.26 320.24V320.528C326.932 320.56 327.668 320.72 328.468 321.008C329.3 321.296 330.068 321.76 330.772 322.4C331.476 323.008 332.068 323.808 332.548 324.8C333.028 325.76 333.268 326.944 333.268 328.352C333.268 329.696 333.044 330.96 332.596 332.144C332.18 333.328 331.588 334.352 330.82 335.216C330.052 336.08 329.14 336.768 328.084 337.28C327.028 337.76 325.876 338 324.628 338H308.308V304.496ZM313.732 333.344H323.044C324.452 333.344 325.556 332.976 326.356 332.24C327.156 331.504 327.556 330.448 327.556 329.072V327.44C327.556 326.064 327.156 325.008 326.356 324.272C325.556 323.536 324.452 323.168 323.044 323.168H313.732V333.344ZM313.732 318.656H322.132C323.476 318.656 324.516 318.32 325.252 317.648C325.988 316.944 326.356 315.952 326.356 314.672V313.136C326.356 311.856 325.988 310.88 325.252 310.208C324.516 309.504 323.476 309.152 322.132 309.152H313.732V318.656Z" fill="#4B90F3"/>
<path d="M187.624 300.882L185.626 303.121L187.624 300.882ZM192.391 329.806L194.894 331.46L192.391 329.806ZM146.729 333.89L171.179 358.429L180.206 324.985L146.729 333.89ZM146.066 312.319C152.022 306.664 159.573 302.029 166.88 300.043C174.175 298.06 180.783 298.798 185.626 303.121L189.621 298.644C182.741 292.505 173.774 291.951 165.306 294.253C156.851 296.551 148.452 301.779 141.934 307.969L146.066 312.319ZM185.626 303.121C194.929 311.421 194.323 321.441 189.888 328.152L194.894 331.46C200.817 322.498 201.35 309.11 189.621 298.644L185.626 303.121ZM189.888 328.152C186.548 333.205 180.838 337.361 172.589 337.933L173.004 343.918C183.263 343.207 190.608 337.945 194.894 331.46L189.888 328.152Z" fill="#4B90F3"/>
<rect x="55" y="276" width="90" height="90" rx="45" stroke="#4B90F3" stroke-width="6"/>
<path d="M109.165 338L106.141 328.928H93.6134L90.6854 338H85.1654L96.5894 304.496H103.405L114.829 338H109.165ZM99.9974 309.488H99.7574L94.9094 324.272H104.797L99.9974 309.488Z" fill="#4B90F3"/>
<path d="M300.222 12.0173L302.402 14.0788L300.222 12.0173ZM329.9 7.89685L328.217 10.3804L329.9 7.89685ZM333.324 53.8063L358.422 29.9297L325.196 20.1325L333.324 53.8063ZM311.174 53.9548C305.478 47.8422 300.86 40.1555 298.949 32.7819C297.042 25.4249 297.906 18.8317 302.402 14.0788L298.043 9.95576C291.639 16.7259 290.923 25.7303 293.141 34.2871C295.354 42.8273 300.564 51.3704 306.784 58.0452L311.174 53.9548ZM302.402 14.0788C311.061 4.92411 321.367 5.73867 328.217 10.3804L331.583 5.41332C322.566 -0.696577 308.936 -1.56119 298.043 9.95576L302.402 14.0788ZM328.217 10.3804C333.378 13.8771 337.541 19.7417 337.964 28.0609L343.957 27.7557C343.428 17.3749 338.145 9.85954 331.583 5.41332L328.217 10.3804Z" fill="#4B90F3"/>
<rect x="208" y="56" width="223" height="90" rx="45" stroke="#4B90F3" stroke-width="6"/>
<path d="M262.025 118.576C260.233 118.576 258.633 118.272 257.225 117.664C255.817 117.056 254.617 116.192 253.625 115.072C252.633 113.92 251.865 112.544 251.321 110.944C250.809 109.312 250.553 107.504 250.553 105.52C250.553 103.536 250.809 101.744 251.321 100.144C251.865 98.512 252.633 97.136 253.625 96.016C254.617 94.864 255.817 93.984 257.225 93.376C258.633 92.768 260.233 92.464 262.025 92.464C263.849 92.464 265.449 92.784 266.825 93.424C268.233 94.064 269.401 94.96 270.329 96.112C271.257 97.232 271.945 98.544 272.393 100.048C272.873 101.552 273.113 103.168 273.113 104.896V106.864H255.977V107.68C255.977 109.6 256.537 111.184 257.657 112.432C258.809 113.648 260.441 114.256 262.553 114.256C264.089 114.256 265.385 113.92 266.441 113.248C267.497 112.576 268.393 111.664 269.129 110.512L272.201 113.536C271.273 115.072 269.929 116.304 268.169 117.232C266.409 118.128 264.361 118.576 262.025 118.576ZM262.025 96.544C261.129 96.544 260.297 96.704 259.529 97.024C258.793 97.344 258.153 97.792 257.609 98.368C257.097 98.944 256.697 99.632 256.409 100.432C256.121 101.232 255.977 102.112 255.977 103.072V103.408H267.593V102.928C267.593 101.008 267.097 99.472 266.105 98.32C265.113 97.136 263.753 96.544 262.025 96.544ZM300.313 120.352C300.313 122.944 299.321 124.896 297.337 126.208C295.353 127.52 292.121 128.176 287.641 128.176C285.593 128.176 283.849 128.032 282.409 127.744C281.001 127.488 279.833 127.104 278.905 126.592C278.009 126.08 277.353 125.456 276.937 124.72C276.521 123.984 276.313 123.136 276.313 122.176C276.313 120.8 276.681 119.728 277.417 118.96C278.185 118.192 279.241 117.664 280.585 117.376V116.848C278.697 116.24 277.753 114.96 277.753 113.008C277.753 111.728 278.185 110.752 279.049 110.08C279.913 109.376 280.953 108.88 282.169 108.592V108.4C280.697 107.696 279.561 106.72 278.761 105.472C277.993 104.192 277.609 102.704 277.609 101.008C277.609 98.448 278.457 96.384 280.153 94.816C281.881 93.248 284.345 92.464 287.545 92.464C289.305 92.464 290.809 92.72 292.057 93.232V92.56C292.057 91.44 292.313 90.576 292.825 89.968C293.369 89.328 294.201 89.008 295.321 89.008H299.161V93.232H294.073V94.24C295.193 94.976 296.057 95.936 296.665 97.12C297.273 98.272 297.577 99.568 297.577 101.008C297.577 103.536 296.713 105.584 294.985 107.152C293.257 108.688 290.793 109.456 287.593 109.456C286.377 109.456 285.289 109.328 284.329 109.072C283.689 109.296 283.129 109.616 282.649 110.032C282.169 110.416 281.929 110.928 281.929 111.568C281.929 112.24 282.233 112.72 282.841 113.008C283.449 113.296 284.313 113.44 285.433 113.44H291.577C294.649 113.44 296.873 114.064 298.249 115.312C299.625 116.528 300.313 118.208 300.313 120.352ZM295.417 120.928C295.417 120.064 295.081 119.376 294.409 118.864C293.769 118.352 292.585 118.096 290.857 118.096H282.409C281.257 118.768 280.681 119.728 280.681 120.976C280.681 122 281.081 122.816 281.881 123.424C282.713 124.064 284.105 124.384 286.057 124.384H289.321C293.385 124.384 295.417 123.232 295.417 120.928ZM287.593 105.664C289.129 105.664 290.313 105.328 291.145 104.656C292.009 103.952 292.441 102.88 292.441 101.44V100.48C292.441 99.04 292.009 97.984 291.145 97.312C290.313 96.608 289.129 96.256 287.593 96.256C286.057 96.256 284.857 96.608 283.993 97.312C283.161 97.984 282.745 99.04 282.745 100.48V101.44C282.745 102.88 283.161 103.952 283.993 104.656C284.857 105.328 286.057 105.664 287.593 105.664ZM303.726 118V93.04H308.958V97.84H309.198C309.55 96.56 310.286 95.44 311.406 94.48C312.526 93.52 314.078 93.04 316.062 93.04H317.454V98.08H315.39C313.31 98.08 311.71 98.416 310.59 99.088C309.502 99.76 308.958 100.752 308.958 102.064V118H303.726ZM331.179 118.576C329.387 118.576 327.787 118.272 326.379 117.664C324.971 117.056 323.771 116.192 322.779 115.072C321.787 113.92 321.019 112.544 320.475 110.944C319.963 109.312 319.707 107.504 319.707 105.52C319.707 103.536 319.963 101.744 320.475 100.144C321.019 98.512 321.787 97.136 322.779 96.016C323.771 94.864 324.971 93.984 326.379 93.376C327.787 92.768 329.387 92.464 331.179 92.464C333.003 92.464 334.603 92.784 335.979 93.424C337.387 94.064 338.555 94.96 339.483 96.112C340.411 97.232 341.099 98.544 341.547 100.048C342.027 101.552 342.267 103.168 342.267 104.896V106.864H325.131V107.68C325.131 109.6 325.691 111.184 326.811 112.432C327.963 113.648 329.595 114.256 331.707 114.256C333.243 114.256 334.539 113.92 335.595 113.248C336.651 112.576 337.547 111.664 338.283 110.512L341.355 113.536C340.427 115.072 339.083 116.304 337.323 117.232C335.563 118.128 333.515 118.576 331.179 118.576ZM331.179 96.544C330.283 96.544 329.451 96.704 328.683 97.024C327.947 97.344 327.307 97.792 326.763 98.368C326.251 98.944 325.851 99.632 325.563 100.432C325.275 101.232 325.131 102.112 325.131 103.072V103.408H336.747V102.928C336.747 101.008 336.251 99.472 335.259 98.32C334.267 97.136 332.907 96.544 331.179 96.544ZM355.499 118.576C353.131 118.576 351.147 118.16 349.547 117.328C347.947 116.496 346.555 115.344 345.371 113.872L348.731 110.8C349.659 111.92 350.683 112.8 351.803 113.44C352.955 114.048 354.283 114.352 355.787 114.352C357.323 114.352 358.459 114.064 359.195 113.488C359.963 112.88 360.347 112.048 360.347 110.992C360.347 110.192 360.075 109.52 359.531 108.976C359.019 108.4 358.107 108.032 356.795 107.872L354.491 107.584C351.931 107.264 349.915 106.528 348.443 105.376C347.003 104.192 346.283 102.448 346.283 100.144C346.283 98.928 346.507 97.856 346.955 96.928C347.403 95.968 348.027 95.168 348.827 94.528C349.659 93.856 350.635 93.344 351.755 92.992C352.907 92.64 354.171 92.464 355.547 92.464C357.787 92.464 359.611 92.816 361.019 93.52C362.459 94.224 363.739 95.2 364.859 96.448L361.643 99.52C361.003 98.752 360.155 98.096 359.099 97.552C358.075 96.976 356.891 96.688 355.547 96.688C354.107 96.688 353.035 96.976 352.331 97.552C351.659 98.128 351.323 98.88 351.323 99.808C351.323 100.768 351.627 101.488 352.235 101.968C352.843 102.448 353.819 102.8 355.163 103.024L357.467 103.312C360.219 103.728 362.219 104.544 363.467 105.76C364.747 106.944 365.387 108.544 365.387 110.56C365.387 111.776 365.147 112.88 364.667 113.872C364.219 114.832 363.563 115.664 362.699 116.368C361.835 117.072 360.795 117.616 359.579 118C358.363 118.384 357.003 118.576 355.499 118.576ZM378.456 118.576C376.088 118.576 374.104 118.16 372.504 117.328C370.904 116.496 369.512 115.344 368.328 113.872L371.688 110.8C372.616 111.92 373.64 112.8 374.76 113.44C375.912 114.048 377.24 114.352 378.744 114.352C380.28 114.352 381.416 114.064 382.152 113.488C382.92 112.88 383.304 112.048 383.304 110.992C383.304 110.192 383.032 109.52 382.488 108.976C381.976 108.4 381.064 108.032 379.752 107.872L377.448 107.584C374.888 107.264 372.872 106.528 371.4 105.376C369.96 104.192 369.24 102.448 369.24 100.144C369.24 98.928 369.464 97.856 369.912 96.928C370.36 95.968 370.984 95.168 371.784 94.528C372.616 93.856 373.592 93.344 374.712 92.992C375.864 92.64 377.128 92.464 378.504 92.464C380.744 92.464 382.568 92.816 383.976 93.52C385.416 94.224 386.696 95.2 387.816 96.448L384.6 99.52C383.96 98.752 383.112 98.096 382.056 97.552C381.032 96.976 379.848 96.688 378.504 96.688C377.064 96.688 375.992 96.976 375.288 97.552C374.616 98.128 374.28 98.88 374.28 99.808C374.28 100.768 374.584 101.488 375.192 101.968C375.8 102.448 376.776 102.8 378.12 103.024L380.424 103.312C383.176 103.728 385.176 104.544 386.424 105.76C387.704 106.944 388.344 108.544 388.344 110.56C388.344 111.776 388.104 112.88 387.624 113.872C387.176 114.832 386.52 115.664 385.656 116.368C384.792 117.072 383.752 117.616 382.536 118C381.32 118.384 379.96 118.576 378.456 118.576Z" fill="#4B90F3"/>
</svg>
