<svg width="1519" height="863" viewBox="0 0 1519 863" fill="none" xmlns="http://www.w3.org/2000/svg">
<path d="M946 503L935.471 489.247L928.825 505.242L946 503ZM563.67 504.342C564.586 503.885 565.499 503.431 566.409 502.98L565.078 500.291C564.164 500.744 563.248 501.199 562.33 501.658L563.67 504.342ZM571.846 500.311C573.658 499.429 575.462 498.559 577.257 497.702L575.964 494.995C574.163 495.856 572.352 496.728 570.533 497.613L571.846 500.311ZM582.752 495.104C584.575 494.252 586.388 493.412 588.193 492.586L586.944 489.858C585.132 490.688 583.311 491.531 581.481 492.387L582.752 495.104ZM593.733 490.078C595.575 489.254 597.408 488.444 599.233 487.649L598.034 484.899C596.2 485.698 594.359 486.512 592.508 487.339L593.733 490.078ZM604.799 485.253C606.659 484.463 608.512 483.689 610.355 482.928L609.212 480.155C607.358 480.919 605.497 481.698 603.627 482.492L604.799 485.253ZM615.957 480.655C617.836 479.904 619.706 479.17 621.569 478.451L620.489 475.652C618.615 476.375 616.733 477.114 614.844 477.869L615.957 480.655ZM627.214 476.311C629.11 475.605 630.998 474.916 632.88 474.244L631.87 471.419C629.976 472.096 628.076 472.789 626.168 473.499L627.214 476.311ZM638.575 472.25C640.487 471.596 642.392 470.958 644.291 470.338L643.36 467.486C641.447 468.111 639.528 468.753 637.603 469.412L638.575 472.25ZM650.04 468.507C651.968 467.908 653.89 467.328 655.806 466.765L654.961 463.887C653.03 464.454 651.093 465.039 649.151 465.641L650.04 468.507ZM661.61 465.112C663.553 464.576 665.49 464.058 667.423 463.559L666.673 460.655C664.724 461.158 662.77 461.68 660.812 462.221L661.61 465.112ZM673.281 462.101C675.237 461.631 677.189 461.182 679.138 460.751L678.491 457.822C676.524 458.256 674.555 458.71 672.581 459.183L673.281 462.101ZM685.046 459.503C687.016 459.105 688.983 458.728 690.949 458.37L690.411 455.418C688.427 455.78 686.441 456.161 684.453 456.562L685.046 459.503ZM696.895 457.346C698.879 457.025 700.862 456.723 702.843 456.442L702.422 453.472C700.421 453.756 698.419 454.06 696.415 454.385L696.895 457.346ZM708.817 455.655C710.812 455.413 712.805 455.191 714.8 454.99L714.499 452.005C712.484 452.208 710.47 452.433 708.456 452.677L708.817 455.655ZM720.797 454.446C722.798 454.285 724.799 454.145 726.802 454.025L726.623 451.031C724.6 451.152 722.578 451.293 720.557 451.456L720.797 454.446ZM732.819 453.728C734.821 453.649 736.825 453.591 738.833 453.554L738.777 450.554C736.749 450.592 734.724 450.651 732.702 450.73L732.819 453.728ZM744.862 453.502C746.862 453.505 748.866 453.528 750.875 453.571L750.939 450.572C748.911 450.528 746.887 450.505 744.867 450.502L744.862 453.502ZM756.9 453.76C758.898 453.842 760.901 453.944 762.91 454.066L763.091 451.071C761.063 450.949 759.041 450.846 757.024 450.763L756.9 453.76ZM768.921 454.487C770.914 454.646 772.914 454.823 774.922 455.02L775.214 452.034C773.189 451.836 771.171 451.657 769.159 451.497L768.921 454.487ZM780.909 455.661C782.897 455.892 784.892 456.141 786.896 456.409L787.293 453.435C785.273 453.165 783.26 452.914 781.255 452.681L780.909 455.661ZM792.853 457.256C794.833 457.554 796.822 457.87 798.82 458.204L799.314 455.245C797.301 454.909 795.296 454.59 793.3 454.289L792.853 457.256ZM804.743 459.242C806.714 459.602 808.694 459.98 810.684 460.375L811.268 457.432C809.264 457.035 807.269 456.654 805.283 456.291L804.743 459.242ZM816.572 461.587C818.532 462.005 820.502 462.439 822.482 462.889L823.147 459.964C821.154 459.511 819.171 459.074 817.197 458.653L816.572 461.587ZM828.336 464.261C830.283 464.73 832.241 465.215 834.209 465.715L834.948 462.807C832.968 462.304 830.999 461.816 829.039 461.344L828.336 464.261ZM840.034 467.232C841.968 467.748 843.911 468.278 845.865 468.822L846.671 465.932C844.706 465.385 842.752 464.852 840.807 464.333L840.034 467.232ZM851.669 470.473C853.586 471.029 855.514 471.599 857.453 472.183L858.318 469.31C856.37 468.723 854.432 468.151 852.505 467.592L851.669 470.473ZM863.244 473.956C865.144 474.548 867.055 475.153 868.977 475.771L869.895 472.915C867.965 472.294 866.045 471.687 864.136 471.092L863.244 473.956ZM874.765 477.659C876.647 478.282 878.54 478.917 880.443 479.564L881.409 476.724C879.498 476.074 877.598 475.437 875.708 474.811L874.765 477.659ZM886.186 481.542C888.067 482.197 889.959 482.864 891.861 483.543L892.869 480.717C890.96 480.036 889.062 479.367 887.174 478.709L886.186 481.542ZM897.545 485.593C899.433 486.281 901.331 486.98 903.24 487.69L904.286 484.878C902.371 484.166 900.466 483.465 898.573 482.775L897.545 485.593ZM908.862 489.801C910.747 490.516 912.643 491.24 914.55 491.976L915.629 489.177C913.717 488.439 911.816 487.712 909.925 486.996L908.862 489.801ZM920.15 494.153C922.013 494.884 923.887 495.624 925.771 496.374L926.881 493.586C924.992 492.834 923.113 492.092 921.245 491.36L920.15 494.153ZM931.421 498.638C933.262 499.382 935.113 500.134 936.974 500.896L938.11 498.119C936.245 497.356 934.389 496.602 932.544 495.857L931.421 498.638ZM946 503L924.942 475.494L911.65 507.484L946 503ZM564.34 505.684C565.254 505.228 566.166 504.774 567.075 504.324L564.412 498.947C563.497 499.4 562.58 499.857 561.66 500.316L564.34 505.684ZM572.502 501.66C574.312 500.779 576.112 499.911 577.903 499.056L575.318 493.642C573.513 494.504 571.699 495.378 569.877 496.265L572.502 501.66ZM583.388 496.463C585.207 495.612 587.017 494.774 588.818 493.949L586.32 488.494C584.503 489.326 582.678 490.171 580.845 491.029L583.388 496.463ZM594.346 491.447C596.183 490.625 598.012 489.817 599.833 489.023L597.434 483.524C595.596 484.325 593.75 485.141 591.896 485.97L594.346 491.447ZM605.385 486.634C607.241 485.846 609.088 485.073 610.927 484.315L608.64 478.768C606.782 479.534 604.915 480.315 603.041 481.111L605.385 486.634ZM616.513 482.048C618.387 481.3 620.252 480.567 622.109 479.85L619.948 474.253C618.069 474.978 616.182 475.719 614.288 476.476L616.513 482.048ZM627.737 477.716C629.627 477.013 631.509 476.326 633.385 475.656L631.365 470.006C629.465 470.685 627.559 471.381 625.645 472.093L627.737 477.716ZM639.06 473.67C640.966 473.017 642.865 472.382 644.757 471.764L642.894 466.06C640.975 466.687 639.049 467.331 637.117 467.993L639.06 473.67ZM650.485 469.939C652.405 469.343 654.32 468.765 656.229 468.205L654.539 462.448C652.6 463.017 650.656 463.604 648.706 464.209L650.485 469.939ZM662.009 466.558C663.944 466.024 665.873 465.509 667.798 465.012L666.298 459.202C664.341 459.708 662.379 460.232 660.413 460.775L662.009 466.558ZM673.631 463.559C675.578 463.092 677.522 462.644 679.462 462.216L678.167 456.357C676.192 456.793 674.214 457.249 672.232 457.725L673.631 463.559ZM685.342 460.973C687.303 460.578 689.261 460.202 691.217 459.846L690.142 453.943C688.149 454.306 686.154 454.689 684.156 455.091L685.342 460.973ZM697.135 458.827C699.11 458.507 701.082 458.207 703.054 457.927L702.211 451.987C700.2 452.272 698.188 452.578 696.175 452.904L697.135 458.827ZM708.998 457.144C710.982 456.903 712.966 456.683 714.951 456.482L714.348 450.513C712.323 450.717 710.299 450.942 708.275 451.188L708.998 457.144ZM720.918 455.941C722.908 455.781 724.899 455.642 726.892 455.523L726.534 449.533C724.5 449.655 722.468 449.797 720.437 449.96L720.918 455.941ZM732.878 455.227C734.869 455.149 736.864 455.091 738.861 455.053L738.749 449.054C736.71 449.093 734.675 449.152 732.643 449.231L732.878 455.227ZM744.86 455.002C746.85 455.005 748.844 455.028 750.843 455.071L750.971 449.072C748.933 449.028 746.899 449.005 744.869 449.002L744.86 455.002ZM756.839 455.259C758.827 455.341 760.82 455.442 762.819 455.563L763.182 449.574C761.144 449.451 759.112 449.347 757.086 449.264L756.839 455.259ZM768.802 455.982C770.786 456.14 772.777 456.317 774.775 456.513L775.361 450.542C773.326 450.342 771.299 450.162 769.278 450.001L768.802 455.982ZM780.736 457.151C782.715 457.381 784.702 457.629 786.697 457.896L787.492 451.949C785.463 451.678 783.442 451.425 781.428 451.191L780.736 457.151ZM792.629 458.739C794.602 459.036 796.583 459.351 798.572 459.684L799.562 453.766C797.54 453.428 795.528 453.108 793.523 452.806L792.629 458.739ZM804.473 460.717C806.436 461.077 808.409 461.453 810.392 461.846L811.56 455.961C809.548 455.562 807.546 455.18 805.553 454.815L804.473 460.717ZM816.259 463.054C818.212 463.47 820.176 463.903 822.149 464.352L823.479 458.501C821.48 458.046 819.49 457.608 817.51 457.186L816.259 463.054ZM827.984 465.719C829.926 466.187 831.877 466.67 833.839 467.169L835.317 461.354C833.332 460.849 831.356 460.36 829.39 459.886L827.984 465.719ZM839.648 468.681C841.576 469.195 843.514 469.724 845.463 470.267L847.073 464.487C845.103 463.938 843.144 463.404 841.194 462.884L839.648 468.681ZM851.251 471.913C853.164 472.468 855.087 473.037 857.021 473.619L858.75 467.874C856.797 467.286 854.855 466.712 852.923 466.151L851.251 471.913ZM862.798 475.388C864.694 475.979 866.6 476.583 868.518 477.199L870.354 471.487C868.419 470.865 866.496 470.256 864.582 469.66L862.798 475.388ZM874.294 479.083C876.172 479.705 878.061 480.339 879.96 480.984L881.892 475.304C879.977 474.653 878.073 474.014 876.179 473.387L874.294 479.083ZM885.693 482.958C887.57 483.612 889.458 484.278 891.357 484.956L893.373 479.305C891.461 478.622 889.559 477.952 887.668 477.292L885.693 482.958ZM897.031 487.002C898.916 487.689 900.811 488.387 902.717 489.096L904.809 483.473C902.891 482.759 900.983 482.057 899.086 481.365L897.031 487.002ZM908.331 491.204C910.213 491.917 912.106 492.641 914.01 493.375L916.169 487.777C914.254 487.039 912.35 486.311 910.457 485.593L908.331 491.204ZM919.603 495.55C921.463 496.279 923.335 497.018 925.217 497.767L927.435 492.193C925.544 491.44 923.663 490.697 921.792 489.964L919.603 495.55ZM930.859 500.029C932.698 500.772 934.547 501.523 936.406 502.284L938.678 496.731C936.81 495.966 934.953 495.212 933.105 494.466L930.859 500.029Z" fill="#14BF06"/>
<path d="M795 149.5L778.023 179.695L812.661 179.301L795 149.5ZM859 591L856.225 592.141L856.225 592.141L859 591ZM792.309 176.575C793.853 246.539 801.112 329.183 812.328 404.909C823.535 480.568 838.728 549.579 856.225 592.141L861.775 589.859C844.568 548.006 829.456 479.599 818.263 404.03C807.08 328.528 799.845 246.134 798.307 176.443L792.309 176.575ZM856.225 592.141C874.807 637.339 899.24 680.228 930.491 711.858C961.784 743.531 1000.01 764 1046 764L1046 758C1001.99 758 965.217 738.469 934.759 707.642C904.26 676.772 880.193 634.66 861.775 589.859L856.225 592.141Z" fill="#4B90F3"/>
<path d="M724 149L704.482 177.619L739.026 180.213L724 149ZM470 324C543.063 324 597.338 318.123 644.123 288.023L640.877 282.977C595.662 312.067 542.938 318 470 318L470 324ZM644.123 288.023C684.045 262.338 716.625 229.37 724.943 176.385L719.015 175.454C711.071 226.065 680.067 257.764 640.877 282.977L644.123 288.023Z" fill="#4B90F3"/>
<path d="M1391.29 580.225L1359.26 593.408L1386.69 614.559L1391.29 580.225ZM1372.43 599.776L1284.51 713.82L1289.26 717.483L1377.18 603.439L1372.43 599.776Z" fill="#4B90F3"/>
<path d="M1199 589L1181.68 619H1216.32L1199 589ZM1196 616V716H1202V616H1196Z" fill="#4B90F3"/>
<path d="M1007 580.225L1039.03 593.408L1011.6 614.559L1007 580.225ZM1025.86 599.776L1113.78 713.82L1109.03 717.483L1021.11 603.439L1025.86 599.776Z" fill="#4B90F3"/>
<path d="M1287 364.039L1319.03 377.223L1291.6 398.373L1287 364.039ZM1305.86 383.59L1396.48 501.13L1391.72 504.793L1301.11 387.254L1305.86 383.59Z" fill="#4B90F3"/>
<path d="M1199 369L1181.68 399H1216.32L1199 369ZM1196 396V496H1202V396H1196Z" fill="#4B90F3"/>
<path d="M1110.05 364.039L1078.02 377.223L1105.45 398.373L1110.05 364.039ZM1091.19 383.59L1000.57 501.13L1005.33 504.793L1095.94 387.254L1091.19 383.59Z" fill="#4B90F3"/>
<path d="M1218.23 851.293L1216.03 849.254L1218.23 851.293ZM1188.95 855.442L1190.66 852.975L1188.95 855.442ZM1185.57 809.209L1160.56 833.178L1193.83 842.853L1185.57 809.209ZM1207.37 809.023C1212.99 815.177 1217.55 822.923 1219.44 830.362C1221.33 837.792 1220.47 844.458 1216.03 849.254L1220.43 853.332C1226.74 846.522 1227.44 837.481 1225.26 828.886C1223.08 820.299 1217.94 811.7 1211.8 804.977L1207.37 809.023ZM1216.03 849.254C1211.67 853.951 1206.99 855.962 1202.67 856.31C1198.29 856.662 1194.06 855.331 1190.66 852.975L1187.24 857.909C1191.66 860.967 1197.25 862.765 1203.15 862.291C1209.09 861.813 1215.14 859.043 1220.43 853.332L1216.03 849.254ZM1190.66 852.975C1185.55 849.443 1181.41 843.486 1181.03 835L1175.04 835.268C1175.51 845.777 1180.72 853.399 1187.24 857.909L1190.66 852.975Z" fill="#4B90F3"/>
<rect x="1047" y="716" width="304" height="90" rx="45" stroke="#4B90F3" stroke-width="6"/>
<path d="M1089.47 748.576C1088.38 748.576 1087.58 748.32 1087.07 747.808C1086.59 747.296 1086.35 746.64 1086.35 745.84V745.024C1086.35 744.224 1086.59 743.568 1087.07 743.056C1087.58 742.544 1088.38 742.288 1089.47 742.288C1090.56 742.288 1091.34 742.544 1091.82 743.056C1092.3 743.568 1092.54 744.224 1092.54 745.024V745.84C1092.54 746.64 1092.3 747.296 1091.82 747.808C1091.34 748.32 1090.56 748.576 1089.47 748.576ZM1086.83 753.04H1092.06V778H1086.83V753.04ZM1099.05 778V753.04H1104.29V757.168H1104.53C1105.07 755.824 1105.89 754.704 1106.97 753.808C1108.09 752.912 1109.61 752.464 1111.53 752.464C1114.09 752.464 1116.08 753.312 1117.49 755.008C1118.93 756.672 1119.65 759.056 1119.65 762.16V778H1114.41V762.832C1114.41 758.928 1112.85 756.976 1109.71 756.976C1109.04 756.976 1108.37 757.072 1107.69 757.264C1107.05 757.424 1106.48 757.68 1105.97 758.032C1105.45 758.384 1105.04 758.832 1104.72 759.376C1104.43 759.92 1104.29 760.56 1104.29 761.296V778H1099.05ZM1148.31 780.352C1148.31 782.944 1147.31 784.896 1145.33 786.208C1143.35 787.52 1140.11 788.176 1135.63 788.176C1133.59 788.176 1131.84 788.032 1130.4 787.744C1128.99 787.488 1127.83 787.104 1126.9 786.592C1126 786.08 1125.35 785.456 1124.93 784.72C1124.51 783.984 1124.31 783.136 1124.31 782.176C1124.31 780.8 1124.67 779.728 1125.41 778.96C1126.18 778.192 1127.23 777.664 1128.58 777.376V776.848C1126.69 776.24 1125.75 774.96 1125.75 773.008C1125.75 771.728 1126.18 770.752 1127.04 770.08C1127.91 769.376 1128.95 768.88 1130.16 768.592V768.4C1128.69 767.696 1127.55 766.72 1126.75 765.472C1125.99 764.192 1125.6 762.704 1125.6 761.008C1125.6 758.448 1126.45 756.384 1128.15 754.816C1129.87 753.248 1132.34 752.464 1135.54 752.464C1137.3 752.464 1138.8 752.72 1140.05 753.232V752.56C1140.05 751.44 1140.31 750.576 1140.82 749.968C1141.36 749.328 1142.19 749.008 1143.31 749.008H1147.15V753.232H1142.07V754.24C1143.19 754.976 1144.05 755.936 1144.66 757.12C1145.27 758.272 1145.57 759.568 1145.57 761.008C1145.57 763.536 1144.71 765.584 1142.98 767.152C1141.25 768.688 1138.79 769.456 1135.59 769.456C1134.37 769.456 1133.28 769.328 1132.32 769.072C1131.68 769.296 1131.12 769.616 1130.64 770.032C1130.16 770.416 1129.92 770.928 1129.92 771.568C1129.92 772.24 1130.23 772.72 1130.83 773.008C1131.44 773.296 1132.31 773.44 1133.43 773.44H1139.57C1142.64 773.44 1144.87 774.064 1146.24 775.312C1147.62 776.528 1148.31 778.208 1148.31 780.352ZM1143.41 780.928C1143.41 780.064 1143.07 779.376 1142.4 778.864C1141.76 778.352 1140.58 778.096 1138.85 778.096H1130.4C1129.25 778.768 1128.67 779.728 1128.67 780.976C1128.67 782 1129.07 782.816 1129.87 783.424C1130.71 784.064 1132.1 784.384 1134.05 784.384H1137.31C1141.38 784.384 1143.41 783.232 1143.41 780.928ZM1135.59 765.664C1137.12 765.664 1138.31 765.328 1139.14 764.656C1140 763.952 1140.43 762.88 1140.43 761.44V760.48C1140.43 759.04 1140 757.984 1139.14 757.312C1138.31 756.608 1137.12 756.256 1135.59 756.256C1134.05 756.256 1132.85 756.608 1131.99 757.312C1131.15 757.984 1130.74 759.04 1130.74 760.48V761.44C1130.74 762.88 1131.15 763.952 1131.99 764.656C1132.85 765.328 1134.05 765.664 1135.59 765.664ZM1151.72 778V753.04H1156.95V757.84H1157.19C1157.54 756.56 1158.28 755.44 1159.4 754.48C1160.52 753.52 1162.07 753.04 1164.06 753.04H1165.45V758.08H1163.38C1161.3 758.08 1159.7 758.416 1158.58 759.088C1157.5 759.76 1156.95 760.752 1156.95 762.064V778H1151.72ZM1179.17 778.576C1177.38 778.576 1175.78 778.272 1174.37 777.664C1172.96 777.056 1171.76 776.192 1170.77 775.072C1169.78 773.92 1169.01 772.544 1168.47 770.944C1167.96 769.312 1167.7 767.504 1167.7 765.52C1167.7 763.536 1167.96 761.744 1168.47 760.144C1169.01 758.512 1169.78 757.136 1170.77 756.016C1171.76 754.864 1172.96 753.984 1174.37 753.376C1175.78 752.768 1177.38 752.464 1179.17 752.464C1181 752.464 1182.6 752.784 1183.97 753.424C1185.38 754.064 1186.55 754.96 1187.48 756.112C1188.4 757.232 1189.09 758.544 1189.54 760.048C1190.02 761.552 1190.26 763.168 1190.26 764.896V766.864H1173.12V767.68C1173.12 769.6 1173.68 771.184 1174.8 772.432C1175.96 773.648 1177.59 774.256 1179.7 774.256C1181.24 774.256 1182.53 773.92 1183.59 773.248C1184.64 772.576 1185.54 771.664 1186.28 770.512L1189.35 773.536C1188.42 775.072 1187.08 776.304 1185.32 777.232C1183.56 778.128 1181.51 778.576 1179.17 778.576ZM1179.17 756.544C1178.28 756.544 1177.44 756.704 1176.68 757.024C1175.94 757.344 1175.3 757.792 1174.76 758.368C1174.24 758.944 1173.84 759.632 1173.56 760.432C1173.27 761.232 1173.12 762.112 1173.12 763.072V763.408H1184.74V762.928C1184.74 761.008 1184.24 759.472 1183.25 758.32C1182.26 757.136 1180.9 756.544 1179.17 756.544ZM1203.49 778.576C1201.12 778.576 1199.14 778.16 1197.54 777.328C1195.94 776.496 1194.55 775.344 1193.36 773.872L1196.72 770.8C1197.65 771.92 1198.68 772.8 1199.8 773.44C1200.95 774.048 1202.28 774.352 1203.78 774.352C1205.32 774.352 1206.45 774.064 1207.19 773.488C1207.96 772.88 1208.34 772.048 1208.34 770.992C1208.34 770.192 1208.07 769.52 1207.52 768.976C1207.01 768.4 1206.1 768.032 1204.79 767.872L1202.48 767.584C1199.92 767.264 1197.91 766.528 1196.44 765.376C1195 764.192 1194.28 762.448 1194.28 760.144C1194.28 758.928 1194.5 757.856 1194.95 756.928C1195.4 755.968 1196.02 755.168 1196.82 754.528C1197.65 753.856 1198.63 753.344 1199.75 752.992C1200.9 752.64 1202.16 752.464 1203.54 752.464C1205.78 752.464 1207.6 752.816 1209.01 753.52C1210.45 754.224 1211.73 755.2 1212.85 756.448L1209.64 759.52C1209 758.752 1208.15 758.096 1207.09 757.552C1206.07 756.976 1204.88 756.688 1203.54 756.688C1202.1 756.688 1201.03 756.976 1200.32 757.552C1199.65 758.128 1199.32 758.88 1199.32 759.808C1199.32 760.768 1199.62 761.488 1200.23 761.968C1200.84 762.448 1201.81 762.8 1203.16 763.024L1205.46 763.312C1208.21 763.728 1210.21 764.544 1211.46 765.76C1212.74 766.944 1213.38 768.544 1213.38 770.56C1213.38 771.776 1213.14 772.88 1212.66 773.872C1212.21 774.832 1211.56 775.664 1210.69 776.368C1209.83 777.072 1208.79 777.616 1207.57 778C1206.36 778.384 1205 778.576 1203.49 778.576ZM1226.45 778.576C1224.08 778.576 1222.1 778.16 1220.5 777.328C1218.9 776.496 1217.51 775.344 1216.32 773.872L1219.68 770.8C1220.61 771.92 1221.63 772.8 1222.75 773.44C1223.91 774.048 1225.23 774.352 1226.74 774.352C1228.27 774.352 1229.41 774.064 1230.15 773.488C1230.91 772.88 1231.3 772.048 1231.3 770.992C1231.3 770.192 1231.03 769.52 1230.48 768.976C1229.97 768.4 1229.06 768.032 1227.75 767.872L1225.44 767.584C1222.88 767.264 1220.87 766.528 1219.39 765.376C1217.95 764.192 1217.23 762.448 1217.23 760.144C1217.23 758.928 1217.46 757.856 1217.91 756.928C1218.35 755.968 1218.98 755.168 1219.78 754.528C1220.61 753.856 1221.59 753.344 1222.71 752.992C1223.86 752.64 1225.12 752.464 1226.5 752.464C1228.74 752.464 1230.56 752.816 1231.97 753.52C1233.41 754.224 1234.69 755.2 1235.81 756.448L1232.59 759.52C1231.95 758.752 1231.11 758.096 1230.05 757.552C1229.03 756.976 1227.84 756.688 1226.5 756.688C1225.06 756.688 1223.99 756.976 1223.28 757.552C1222.61 758.128 1222.27 758.88 1222.27 759.808C1222.27 760.768 1222.58 761.488 1223.19 761.968C1223.79 762.448 1224.77 762.8 1226.11 763.024L1228.42 763.312C1231.17 763.728 1233.17 764.544 1234.42 765.76C1235.7 766.944 1236.34 768.544 1236.34 770.56C1236.34 771.776 1236.1 772.88 1235.62 773.872C1235.17 774.832 1234.51 775.664 1233.65 776.368C1232.79 777.072 1231.75 777.616 1230.53 778C1229.31 778.384 1227.95 778.576 1226.45 778.576ZM1251.91 763.072C1251.91 760.736 1252.12 758.496 1252.54 756.352C1252.98 754.208 1253.59 752.208 1254.36 750.352C1255.13 748.496 1256.02 746.816 1257.05 745.312C1258.1 743.808 1259.24 742.544 1260.46 741.52H1265.4C1264.09 742.736 1262.9 744.096 1261.85 745.6C1260.79 747.104 1259.9 748.704 1259.16 750.4C1258.42 752.096 1257.85 753.856 1257.43 755.68C1257.05 757.504 1256.86 759.328 1256.86 761.152V764.992C1256.86 766.816 1257.05 768.64 1257.43 770.464C1257.85 772.288 1258.42 774.048 1259.16 775.744C1259.9 777.44 1260.79 779.04 1261.85 780.544C1262.9 782.08 1264.09 783.44 1265.4 784.624H1260.46C1259.24 783.6 1258.1 782.336 1257.05 780.832C1256.02 779.328 1255.13 777.648 1254.36 775.792C1253.59 773.936 1252.98 771.936 1252.54 769.792C1252.12 767.648 1251.91 765.408 1251.91 763.072ZM1278.45 762.16L1275.24 755.44H1275.09V778H1268.23V744.496H1276.2L1285.37 760.336L1288.58 767.056H1288.73V744.496H1295.59V778H1287.62L1278.45 762.16ZM1311.89 763.072C1311.89 765.408 1311.67 767.648 1311.22 769.792C1310.8 771.936 1310.21 773.936 1309.44 775.792C1308.68 777.648 1307.76 779.328 1306.71 780.832C1305.68 782.336 1304.56 783.6 1303.35 784.624H1298.4C1299.72 783.44 1300.9 782.08 1301.96 780.544C1303.01 779.04 1303.91 777.44 1304.64 775.744C1305.38 774.048 1305.94 772.288 1306.32 770.464C1306.74 768.64 1306.95 766.816 1306.95 764.992V761.152C1306.95 759.328 1306.74 757.504 1306.32 755.68C1305.94 753.856 1305.38 752.096 1304.64 750.4C1303.91 748.704 1303.01 747.104 1301.96 745.6C1300.9 744.096 1299.72 742.736 1298.4 741.52H1303.35C1304.56 742.544 1305.68 743.808 1306.71 745.312C1307.76 746.816 1308.68 748.496 1309.44 750.352C1310.21 752.208 1310.8 754.208 1311.22 756.352C1311.67 758.496 1311.89 760.736 1311.89 763.072Z" fill="#4B90F3"/>
<path d="M1506.62 520.882L1504.63 523.121L1506.62 520.882ZM1511.39 549.806L1513.89 551.46L1511.39 549.806ZM1465.73 553.89L1490.18 578.429L1499.21 544.985L1465.73 553.89ZM1465.07 532.319C1471.02 526.664 1478.57 522.029 1485.88 520.043C1493.18 518.06 1499.78 518.798 1504.63 523.121L1508.62 518.644C1501.74 512.505 1492.77 511.951 1484.31 514.253C1475.85 516.551 1467.45 521.779 1460.93 527.969L1465.07 532.319ZM1504.63 523.121C1513.93 531.421 1513.32 541.441 1508.89 548.152L1513.89 551.46C1519.82 542.498 1520.35 529.11 1508.62 518.644L1504.63 523.121ZM1508.89 548.152C1505.55 553.205 1499.84 557.361 1491.59 557.933L1492 563.918C1502.26 563.207 1509.61 557.945 1513.89 551.46L1508.89 548.152Z" fill="#4B90F3"/>
<rect x="1374" y="496" width="90" height="90" rx="45" stroke="#4B90F3" stroke-width="6"/>
<path d="M1431.41 558H1406.6V553.152L1424.79 529.296H1407.56V524.496H1430.88V529.344L1412.69 553.2H1431.41V558Z" fill="#4B90F3"/>
<path d="M1286.62 520.882L1284.63 523.121L1286.62 520.882ZM1291.39 549.806L1293.89 551.46L1291.39 549.806ZM1245.73 553.89L1270.18 578.429L1279.21 544.985L1245.73 553.89ZM1245.07 532.319C1251.02 526.664 1258.57 522.029 1265.88 520.043C1273.18 518.06 1279.78 518.798 1284.63 523.121L1288.62 518.644C1281.74 512.505 1272.77 511.951 1264.31 514.253C1255.85 516.551 1247.45 521.779 1240.93 527.969L1245.07 532.319ZM1284.63 523.121C1293.93 531.421 1293.32 541.441 1288.89 548.152L1293.89 551.46C1299.82 542.498 1300.35 529.11 1288.62 518.644L1284.63 523.121ZM1288.89 548.152C1285.55 553.205 1279.84 557.361 1271.59 557.933L1272 563.918C1282.26 563.207 1289.61 557.945 1293.89 551.46L1288.89 548.152Z" fill="#4B90F3"/>
<rect x="1154" y="496" width="90" height="90" rx="45" stroke="#4B90F3" stroke-width="6"/>
<path d="M1196.24 558V544.8L1184.72 524.496H1190.91L1199.07 539.424H1199.21L1207.32 524.496H1213.28L1201.66 544.704V558H1196.24Z" fill="#4B90F3"/>
<path d="M1066.62 520.882L1064.63 523.121L1066.62 520.882ZM1071.39 549.806L1073.89 551.46L1071.39 549.806ZM1025.73 553.89L1050.18 578.429L1059.21 544.985L1025.73 553.89ZM1025.07 532.319C1031.02 526.664 1038.57 522.029 1045.88 520.043C1053.18 518.06 1059.78 518.798 1064.63 523.121L1068.62 518.644C1061.74 512.505 1052.77 511.951 1044.31 514.253C1035.85 516.551 1027.45 521.779 1020.93 527.969L1025.07 532.319ZM1064.63 523.121C1073.93 531.421 1073.32 541.441 1068.89 548.152L1073.89 551.46C1079.82 542.498 1080.35 529.11 1068.62 518.644L1064.63 523.121ZM1068.89 548.152C1065.55 553.205 1059.84 557.361 1051.59 557.933L1052 563.918C1062.26 563.207 1069.61 557.945 1073.89 551.46L1068.89 548.152Z" fill="#4B90F3"/>
<rect x="934" y="496" width="90" height="90" rx="45" stroke="#4B90F3" stroke-width="6"/>
<path d="M993.336 558H986.952L978.84 544.656H978.696L970.68 558H964.68L975.528 540.864L965.064 524.496H971.448L979.08 536.976H979.176L986.904 524.496H992.904L982.344 540.816L993.336 558Z" fill="#4B90F3"/>
<path d="M1179.22 232.017L1181.4 234.079L1179.22 232.017ZM1208.9 227.897L1207.22 230.38L1208.9 227.897ZM1212.32 273.806L1237.42 249.93L1204.2 240.132L1212.32 273.806ZM1190.17 273.955C1184.48 267.842 1179.86 260.155 1177.95 252.782C1176.04 245.425 1176.91 238.832 1181.4 234.079L1177.04 229.956C1170.64 236.726 1169.92 245.73 1172.14 254.287C1174.35 262.827 1179.56 271.37 1185.78 278.045L1190.17 273.955ZM1181.4 234.079C1190.06 224.924 1200.37 225.739 1207.22 230.38L1210.58 225.413C1201.57 219.303 1187.94 218.439 1177.04 229.956L1181.4 234.079ZM1207.22 230.38C1212.38 233.877 1216.54 239.742 1216.96 248.061L1222.96 247.756C1222.43 237.375 1217.14 229.86 1210.58 225.413L1207.22 230.38Z" fill="#4B90F3"/>
<rect x="1047" y="276" width="304" height="90" rx="45" stroke="#4B90F3" stroke-width="6"/>
<path d="M1103.32 338.576C1101.53 338.576 1099.93 338.272 1098.52 337.664C1097.11 337.056 1095.91 336.192 1094.92 335.072C1093.93 333.92 1093.16 332.544 1092.62 330.944C1092.11 329.312 1091.85 327.504 1091.85 325.52C1091.85 323.536 1092.11 321.744 1092.62 320.144C1093.16 318.512 1093.93 317.136 1094.92 316.016C1095.91 314.864 1097.11 313.984 1098.52 313.376C1099.93 312.768 1101.53 312.464 1103.32 312.464C1105.15 312.464 1106.75 312.784 1108.12 313.424C1109.53 314.064 1110.7 314.96 1111.63 316.112C1112.55 317.232 1113.24 318.544 1113.69 320.048C1114.17 321.552 1114.41 323.168 1114.41 324.896V326.864H1097.27V327.68C1097.27 329.6 1097.83 331.184 1098.95 332.432C1100.11 333.648 1101.74 334.256 1103.85 334.256C1105.39 334.256 1106.68 333.92 1107.74 333.248C1108.79 332.576 1109.69 331.664 1110.43 330.512L1113.5 333.536C1112.57 335.072 1111.23 336.304 1109.47 337.232C1107.71 338.128 1105.66 338.576 1103.32 338.576ZM1103.32 316.544C1102.43 316.544 1101.59 316.704 1100.83 317.024C1100.09 317.344 1099.45 317.792 1098.91 318.368C1098.39 318.944 1097.99 319.632 1097.71 320.432C1097.42 321.232 1097.27 322.112 1097.27 323.072V323.408H1108.89V322.928C1108.89 321.008 1108.39 319.472 1107.4 318.32C1106.41 317.136 1105.05 316.544 1103.32 316.544ZM1141.61 340.352C1141.61 342.944 1140.62 344.896 1138.63 346.208C1136.65 347.52 1133.42 348.176 1128.94 348.176C1126.89 348.176 1125.14 348.032 1123.7 347.744C1122.3 347.488 1121.13 347.104 1120.2 346.592C1119.3 346.08 1118.65 345.456 1118.23 344.72C1117.82 343.984 1117.61 343.136 1117.61 342.176C1117.61 340.8 1117.98 339.728 1118.71 338.96C1119.48 338.192 1120.54 337.664 1121.88 337.376V336.848C1119.99 336.24 1119.05 334.96 1119.05 333.008C1119.05 331.728 1119.48 330.752 1120.34 330.08C1121.21 329.376 1122.25 328.88 1123.46 328.592V328.4C1121.99 327.696 1120.86 326.72 1120.06 325.472C1119.29 324.192 1118.9 322.704 1118.9 321.008C1118.9 318.448 1119.75 316.384 1121.45 314.816C1123.18 313.248 1125.64 312.464 1128.84 312.464C1130.6 312.464 1132.1 312.72 1133.35 313.232V312.56C1133.35 311.44 1133.61 310.576 1134.12 309.968C1134.66 309.328 1135.5 309.008 1136.62 309.008H1140.46V313.232H1135.37V314.24C1136.49 314.976 1137.35 315.936 1137.96 317.12C1138.57 318.272 1138.87 319.568 1138.87 321.008C1138.87 323.536 1138.01 325.584 1136.28 327.152C1134.55 328.688 1132.09 329.456 1128.89 329.456C1127.67 329.456 1126.58 329.328 1125.62 329.072C1124.98 329.296 1124.42 329.616 1123.94 330.032C1123.46 330.416 1123.22 330.928 1123.22 331.568C1123.22 332.24 1123.53 332.72 1124.14 333.008C1124.74 333.296 1125.61 333.44 1126.73 333.44H1132.87C1135.94 333.44 1138.17 334.064 1139.54 335.312C1140.92 336.528 1141.61 338.208 1141.61 340.352ZM1136.71 340.928C1136.71 340.064 1136.38 339.376 1135.7 338.864C1135.06 338.352 1133.88 338.096 1132.15 338.096H1123.7C1122.55 338.768 1121.98 339.728 1121.98 340.976C1121.98 342 1122.38 342.816 1123.18 343.424C1124.01 344.064 1125.4 344.384 1127.35 344.384H1130.62C1134.68 344.384 1136.71 343.232 1136.71 340.928ZM1128.89 325.664C1130.42 325.664 1131.61 325.328 1132.44 324.656C1133.3 323.952 1133.74 322.88 1133.74 321.44V320.48C1133.74 319.04 1133.3 317.984 1132.44 317.312C1131.61 316.608 1130.42 316.256 1128.89 316.256C1127.35 316.256 1126.15 316.608 1125.29 317.312C1124.46 317.984 1124.04 319.04 1124.04 320.48V321.44C1124.04 322.88 1124.46 323.952 1125.29 324.656C1126.15 325.328 1127.35 325.664 1128.89 325.664ZM1145.02 338V313.04H1150.25V317.84H1150.49C1150.85 316.56 1151.58 315.44 1152.7 314.48C1153.82 313.52 1155.37 313.04 1157.36 313.04H1158.75V318.08H1156.69C1154.61 318.08 1153.01 318.416 1151.89 319.088C1150.8 319.76 1150.25 320.752 1150.25 322.064V338H1145.02ZM1172.47 338.576C1170.68 338.576 1169.08 338.272 1167.67 337.664C1166.27 337.056 1165.07 336.192 1164.07 335.072C1163.08 333.92 1162.31 332.544 1161.77 330.944C1161.26 329.312 1161 327.504 1161 325.52C1161 323.536 1161.26 321.744 1161.77 320.144C1162.31 318.512 1163.08 317.136 1164.07 316.016C1165.07 314.864 1166.27 313.984 1167.67 313.376C1169.08 312.768 1170.68 312.464 1172.47 312.464C1174.3 312.464 1175.9 312.784 1177.27 313.424C1178.68 314.064 1179.85 314.96 1180.78 316.112C1181.71 317.232 1182.39 318.544 1182.84 320.048C1183.32 321.552 1183.56 323.168 1183.56 324.896V326.864H1166.43V327.68C1166.43 329.6 1166.99 331.184 1168.11 332.432C1169.26 333.648 1170.89 334.256 1173 334.256C1174.54 334.256 1175.83 333.92 1176.89 333.248C1177.95 332.576 1178.84 331.664 1179.58 330.512L1182.65 333.536C1181.72 335.072 1180.38 336.304 1178.62 337.232C1176.86 338.128 1174.81 338.576 1172.47 338.576ZM1172.47 316.544C1171.58 316.544 1170.75 316.704 1169.98 317.024C1169.24 317.344 1168.6 317.792 1168.06 318.368C1167.55 318.944 1167.15 319.632 1166.86 320.432C1166.57 321.232 1166.43 322.112 1166.43 323.072V323.408H1178.04V322.928C1178.04 321.008 1177.55 319.472 1176.55 318.32C1175.56 317.136 1174.2 316.544 1172.47 316.544ZM1196.79 338.576C1194.43 338.576 1192.44 338.16 1190.84 337.328C1189.24 336.496 1187.85 335.344 1186.67 333.872L1190.03 330.8C1190.95 331.92 1191.98 332.8 1193.1 333.44C1194.25 334.048 1195.58 334.352 1197.08 334.352C1198.62 334.352 1199.75 334.064 1200.49 333.488C1201.26 332.88 1201.64 332.048 1201.64 330.992C1201.64 330.192 1201.37 329.52 1200.83 328.976C1200.31 328.4 1199.4 328.032 1198.09 327.872L1195.79 327.584C1193.23 327.264 1191.21 326.528 1189.74 325.376C1188.3 324.192 1187.58 322.448 1187.58 320.144C1187.58 318.928 1187.8 317.856 1188.25 316.928C1188.7 315.968 1189.32 315.168 1190.12 314.528C1190.95 313.856 1191.93 313.344 1193.05 312.992C1194.2 312.64 1195.47 312.464 1196.84 312.464C1199.08 312.464 1200.91 312.816 1202.31 313.52C1203.75 314.224 1205.03 315.2 1206.15 316.448L1202.94 319.52C1202.3 318.752 1201.45 318.096 1200.39 317.552C1199.37 316.976 1198.19 316.688 1196.84 316.688C1195.4 316.688 1194.33 316.976 1193.63 317.552C1192.95 318.128 1192.62 318.88 1192.62 319.808C1192.62 320.768 1192.92 321.488 1193.53 321.968C1194.14 322.448 1195.11 322.8 1196.46 323.024L1198.76 323.312C1201.51 323.728 1203.51 324.544 1204.76 325.76C1206.04 326.944 1206.68 328.544 1206.68 330.56C1206.68 331.776 1206.44 332.88 1205.96 333.872C1205.51 334.832 1204.86 335.664 1203.99 336.368C1203.13 337.072 1202.09 337.616 1200.87 338C1199.66 338.384 1198.3 338.576 1196.79 338.576ZM1219.75 338.576C1217.38 338.576 1215.4 338.16 1213.8 337.328C1212.2 336.496 1210.81 335.344 1209.62 333.872L1212.98 330.8C1213.91 331.92 1214.94 332.8 1216.06 333.44C1217.21 334.048 1218.54 334.352 1220.04 334.352C1221.58 334.352 1222.71 334.064 1223.45 333.488C1224.22 332.88 1224.6 332.048 1224.6 330.992C1224.6 330.192 1224.33 329.52 1223.78 328.976C1223.27 328.4 1222.36 328.032 1221.05 327.872L1218.74 327.584C1216.18 327.264 1214.17 326.528 1212.7 325.376C1211.26 324.192 1210.54 322.448 1210.54 320.144C1210.54 318.928 1210.76 317.856 1211.21 316.928C1211.66 315.968 1212.28 315.168 1213.08 314.528C1213.91 313.856 1214.89 313.344 1216.01 312.992C1217.16 312.64 1218.42 312.464 1219.8 312.464C1222.04 312.464 1223.86 312.816 1225.27 313.52C1226.71 314.224 1227.99 315.2 1229.11 316.448L1225.9 319.52C1225.26 318.752 1224.41 318.096 1223.35 317.552C1222.33 316.976 1221.14 316.688 1219.8 316.688C1218.36 316.688 1217.29 316.976 1216.58 317.552C1215.91 318.128 1215.58 318.88 1215.58 319.808C1215.58 320.768 1215.88 321.488 1216.49 321.968C1217.1 322.448 1218.07 322.8 1219.42 323.024L1221.72 323.312C1224.47 323.728 1226.47 324.544 1227.72 325.76C1229 326.944 1229.64 328.544 1229.64 330.56C1229.64 331.776 1229.4 332.88 1228.92 333.872C1228.47 334.832 1227.82 335.664 1226.95 336.368C1226.09 337.072 1225.05 337.616 1223.83 338C1222.62 338.384 1221.26 338.576 1219.75 338.576ZM1245.21 323.072C1245.21 320.736 1245.42 318.496 1245.84 316.352C1246.29 314.208 1246.89 312.208 1247.66 310.352C1248.43 308.496 1249.33 306.816 1250.35 305.312C1251.41 303.808 1252.54 302.544 1253.76 301.52H1258.7C1257.39 302.736 1256.21 304.096 1255.15 305.6C1254.09 307.104 1253.2 308.704 1252.46 310.4C1251.73 312.096 1251.15 313.856 1250.73 315.68C1250.35 317.504 1250.16 319.328 1250.16 321.152V324.992C1250.16 326.816 1250.35 328.64 1250.73 330.464C1251.15 332.288 1251.73 334.048 1252.46 335.744C1253.2 337.44 1254.09 339.04 1255.15 340.544C1256.21 342.08 1257.39 343.44 1258.7 344.624H1253.76C1252.54 343.6 1251.41 342.336 1250.35 340.832C1249.33 339.328 1248.43 337.648 1247.66 335.792C1246.89 333.936 1246.29 331.936 1245.84 329.792C1245.42 327.648 1245.21 325.408 1245.21 323.072ZM1271.76 322.16L1268.54 315.44H1268.4V338H1261.53V304.496H1269.5L1278.67 320.336L1281.88 327.056H1282.03V304.496H1288.89V338H1280.92L1271.76 322.16ZM1305.19 323.072C1305.19 325.408 1304.97 327.648 1304.52 329.792C1304.11 331.936 1303.51 333.936 1302.75 335.792C1301.98 337.648 1301.07 339.328 1300.01 340.832C1298.99 342.336 1297.87 343.6 1296.65 344.624H1291.71C1293.02 343.44 1294.2 342.08 1295.26 340.544C1296.31 339.04 1297.21 337.44 1297.95 335.744C1298.68 334.048 1299.24 332.288 1299.63 330.464C1300.04 328.64 1300.25 326.816 1300.25 324.992V321.152C1300.25 319.328 1300.04 317.504 1299.63 315.68C1299.24 313.856 1298.68 312.096 1297.95 310.4C1297.21 308.704 1296.31 307.104 1295.26 305.6C1294.2 304.096 1293.02 302.736 1291.71 301.52H1296.65C1297.87 302.544 1298.99 303.808 1300.01 305.312C1301.07 306.816 1301.98 308.496 1302.75 310.352C1303.51 312.208 1304.11 314.208 1304.52 316.352C1304.97 318.496 1305.19 320.736 1305.19 323.072Z" fill="#4B90F3"/>
<path d="M510.292 580.225L478.258 593.408L505.693 614.559L510.292 580.225ZM491.431 599.776L403.511 713.82L408.263 717.483L496.183 603.439L491.431 599.776Z" fill="#4B90F3"/>
<path d="M318 589L300.679 619H335.321L318 589ZM315 616V716H321V616H315Z" fill="#4B90F3"/>
<path d="M126 580.225L158.034 593.408L130.599 614.559L126 580.225ZM144.861 599.776L232.782 713.82L228.03 717.483L140.109 603.439L144.861 599.776Z" fill="#4B90F3"/>
<path d="M406 364.039L438.034 377.223L410.599 398.373L406 364.039ZM424.861 383.59L515.477 501.13L510.725 504.793L420.109 387.254L424.861 383.59Z" fill="#4B90F3"/>
<path d="M318 369L300.679 399H335.321L318 369ZM315 396V496H321V396H315Z" fill="#4B90F3"/>
<path d="M229.05 364.039L197.016 377.223L224.451 398.373L229.05 364.039ZM210.189 383.59L119.574 501.13L124.326 504.793L214.941 387.254L210.189 383.59Z" fill="#4B90F3"/>
<path d="M337.227 851.293L335.026 849.254L337.227 851.293ZM307.95 855.442L309.657 852.975L307.95 855.442ZM304.572 809.209L279.562 833.178L312.825 842.853L304.572 809.209ZM326.373 809.023C331.991 815.177 336.551 822.923 338.44 830.362C340.326 837.792 339.469 844.458 335.026 849.254L339.427 853.332C345.736 846.522 346.438 837.481 344.255 828.886C342.076 820.299 336.941 811.7 330.804 804.977L326.373 809.023ZM335.026 849.254C330.673 853.951 325.993 855.962 321.666 856.31C317.293 856.662 313.063 855.331 309.657 852.975L306.243 857.909C310.663 860.967 316.25 862.765 322.147 862.291C328.091 861.813 334.136 859.043 339.427 853.332L335.026 849.254ZM309.657 852.975C304.55 849.443 300.409 843.486 300.029 835L294.035 835.268C294.506 845.777 299.722 853.399 306.243 857.909L309.657 852.975Z" fill="#4B90F3"/>
<rect x="166" y="716" width="304" height="90" rx="45" stroke="#4B90F3" stroke-width="6"/>
<path d="M206.175 748.576C205.087 748.576 204.287 748.32 203.775 747.808C203.295 747.296 203.055 746.64 203.055 745.84V745.024C203.055 744.224 203.295 743.568 203.775 743.056C204.287 742.544 205.087 742.288 206.175 742.288C207.263 742.288 208.047 742.544 208.527 743.056C209.007 743.568 209.247 744.224 209.247 745.024V745.84C209.247 746.64 209.007 747.296 208.527 747.808C208.047 748.32 207.263 748.576 206.175 748.576ZM203.535 753.04H208.767V778H203.535V753.04ZM215.758 778V753.04H220.99V757.168H221.23C221.774 755.824 222.59 754.704 223.678 753.808C224.798 752.912 226.318 752.464 228.238 752.464C230.798 752.464 232.782 753.312 234.19 755.008C235.63 756.672 236.35 759.056 236.35 762.16V778H231.118V762.832C231.118 758.928 229.55 756.976 226.414 756.976C225.742 756.976 225.07 757.072 224.398 757.264C223.758 757.424 223.182 757.68 222.67 758.032C222.158 758.384 221.742 758.832 221.422 759.376C221.134 759.92 220.99 760.56 220.99 761.296V778H215.758ZM265.01 780.352C265.01 782.944 264.018 784.896 262.034 786.208C260.05 787.52 256.818 788.176 252.338 788.176C250.29 788.176 248.546 788.032 247.106 787.744C245.698 787.488 244.53 787.104 243.602 786.592C242.706 786.08 242.05 785.456 241.634 784.72C241.218 783.984 241.01 783.136 241.01 782.176C241.01 780.8 241.378 779.728 242.114 778.96C242.882 778.192 243.938 777.664 245.282 777.376V776.848C243.394 776.24 242.45 774.96 242.45 773.008C242.45 771.728 242.882 770.752 243.746 770.08C244.61 769.376 245.65 768.88 246.866 768.592V768.4C245.394 767.696 244.258 766.72 243.458 765.472C242.69 764.192 242.306 762.704 242.306 761.008C242.306 758.448 243.154 756.384 244.85 754.816C246.578 753.248 249.042 752.464 252.242 752.464C254.002 752.464 255.506 752.72 256.754 753.232V752.56C256.754 751.44 257.01 750.576 257.522 749.968C258.066 749.328 258.898 749.008 260.018 749.008H263.858V753.232H258.77V754.24C259.89 754.976 260.754 755.936 261.362 757.12C261.97 758.272 262.274 759.568 262.274 761.008C262.274 763.536 261.41 765.584 259.682 767.152C257.954 768.688 255.49 769.456 252.29 769.456C251.074 769.456 249.986 769.328 249.026 769.072C248.386 769.296 247.826 769.616 247.346 770.032C246.866 770.416 246.626 770.928 246.626 771.568C246.626 772.24 246.93 772.72 247.538 773.008C248.146 773.296 249.01 773.44 250.13 773.44H256.274C259.346 773.44 261.57 774.064 262.946 775.312C264.322 776.528 265.01 778.208 265.01 780.352ZM260.114 780.928C260.114 780.064 259.778 779.376 259.106 778.864C258.466 778.352 257.282 778.096 255.554 778.096H247.106C245.954 778.768 245.378 779.728 245.378 780.976C245.378 782 245.778 782.816 246.578 783.424C247.41 784.064 248.802 784.384 250.754 784.384H254.018C258.082 784.384 260.114 783.232 260.114 780.928ZM252.29 765.664C253.826 765.664 255.01 765.328 255.842 764.656C256.706 763.952 257.138 762.88 257.138 761.44V760.48C257.138 759.04 256.706 757.984 255.842 757.312C255.01 756.608 253.826 756.256 252.29 756.256C250.754 756.256 249.554 756.608 248.69 757.312C247.858 757.984 247.442 759.04 247.442 760.48V761.44C247.442 762.88 247.858 763.952 248.69 764.656C249.554 765.328 250.754 765.664 252.29 765.664ZM268.423 778V753.04H273.655V757.84H273.895C274.247 756.56 274.983 755.44 276.103 754.48C277.223 753.52 278.775 753.04 280.759 753.04H282.151V758.08H280.087C278.007 758.08 276.407 758.416 275.287 759.088C274.199 759.76 273.655 760.752 273.655 762.064V778H268.423ZM295.875 778.576C294.083 778.576 292.483 778.272 291.075 777.664C289.667 777.056 288.467 776.192 287.475 775.072C286.483 773.92 285.715 772.544 285.171 770.944C284.659 769.312 284.403 767.504 284.403 765.52C284.403 763.536 284.659 761.744 285.171 760.144C285.715 758.512 286.483 757.136 287.475 756.016C288.467 754.864 289.667 753.984 291.075 753.376C292.483 752.768 294.083 752.464 295.875 752.464C297.699 752.464 299.299 752.784 300.675 753.424C302.083 754.064 303.251 754.96 304.179 756.112C305.107 757.232 305.795 758.544 306.243 760.048C306.723 761.552 306.963 763.168 306.963 764.896V766.864H289.827V767.68C289.827 769.6 290.387 771.184 291.507 772.432C292.659 773.648 294.291 774.256 296.403 774.256C297.939 774.256 299.235 773.92 300.291 773.248C301.347 772.576 302.243 771.664 302.979 770.512L306.051 773.536C305.123 775.072 303.779 776.304 302.019 777.232C300.259 778.128 298.211 778.576 295.875 778.576ZM295.875 756.544C294.979 756.544 294.147 756.704 293.379 757.024C292.643 757.344 292.003 757.792 291.459 758.368C290.947 758.944 290.547 759.632 290.259 760.432C289.971 761.232 289.827 762.112 289.827 763.072V763.408H301.443V762.928C301.443 761.008 300.947 759.472 299.955 758.32C298.963 757.136 297.603 756.544 295.875 756.544ZM320.195 778.576C317.827 778.576 315.843 778.16 314.243 777.328C312.643 776.496 311.251 775.344 310.067 773.872L313.427 770.8C314.355 771.92 315.379 772.8 316.499 773.44C317.651 774.048 318.979 774.352 320.483 774.352C322.019 774.352 323.155 774.064 323.891 773.488C324.659 772.88 325.043 772.048 325.043 770.992C325.043 770.192 324.771 769.52 324.227 768.976C323.715 768.4 322.803 768.032 321.491 767.872L319.187 767.584C316.627 767.264 314.611 766.528 313.139 765.376C311.699 764.192 310.979 762.448 310.979 760.144C310.979 758.928 311.203 757.856 311.651 756.928C312.099 755.968 312.723 755.168 313.523 754.528C314.355 753.856 315.331 753.344 316.451 752.992C317.603 752.64 318.867 752.464 320.243 752.464C322.483 752.464 324.307 752.816 325.715 753.52C327.155 754.224 328.435 755.2 329.555 756.448L326.339 759.52C325.699 758.752 324.851 758.096 323.795 757.552C322.771 756.976 321.587 756.688 320.243 756.688C318.803 756.688 317.731 756.976 317.027 757.552C316.355 758.128 316.019 758.88 316.019 759.808C316.019 760.768 316.323 761.488 316.931 761.968C317.539 762.448 318.515 762.8 319.859 763.024L322.163 763.312C324.915 763.728 326.915 764.544 328.163 765.76C329.443 766.944 330.083 768.544 330.083 770.56C330.083 771.776 329.843 772.88 329.363 773.872C328.915 774.832 328.259 775.664 327.395 776.368C326.531 777.072 325.491 777.616 324.275 778C323.059 778.384 321.699 778.576 320.195 778.576ZM343.153 778.576C340.785 778.576 338.801 778.16 337.201 777.328C335.601 776.496 334.209 775.344 333.025 773.872L336.385 770.8C337.313 771.92 338.337 772.8 339.457 773.44C340.609 774.048 341.937 774.352 343.441 774.352C344.977 774.352 346.113 774.064 346.849 773.488C347.617 772.88 348.001 772.048 348.001 770.992C348.001 770.192 347.729 769.52 347.185 768.976C346.673 768.4 345.761 768.032 344.449 767.872L342.145 767.584C339.585 767.264 337.569 766.528 336.097 765.376C334.657 764.192 333.937 762.448 333.937 760.144C333.937 758.928 334.161 757.856 334.609 756.928C335.057 755.968 335.681 755.168 336.481 754.528C337.313 753.856 338.289 753.344 339.409 752.992C340.561 752.64 341.825 752.464 343.201 752.464C345.441 752.464 347.265 752.816 348.673 753.52C350.113 754.224 351.393 755.2 352.513 756.448L349.297 759.52C348.657 758.752 347.809 758.096 346.753 757.552C345.729 756.976 344.545 756.688 343.201 756.688C341.761 756.688 340.689 756.976 339.985 757.552C339.313 758.128 338.977 758.88 338.977 759.808C338.977 760.768 339.281 761.488 339.889 761.968C340.497 762.448 341.473 762.8 342.817 763.024L345.121 763.312C347.873 763.728 349.873 764.544 351.121 765.76C352.401 766.944 353.041 768.544 353.041 770.56C353.041 771.776 352.801 772.88 352.321 773.872C351.873 774.832 351.217 775.664 350.353 776.368C349.489 777.072 348.449 777.616 347.233 778C346.017 778.384 344.657 778.576 343.153 778.576ZM368.615 763.072C368.615 760.736 368.823 758.496 369.239 756.352C369.687 754.208 370.295 752.208 371.063 750.352C371.831 748.496 372.727 746.816 373.751 745.312C374.807 743.808 375.943 742.544 377.159 741.52H382.103C380.791 742.736 379.607 744.096 378.551 745.6C377.495 747.104 376.599 748.704 375.863 750.4C375.127 752.096 374.551 753.856 374.135 755.68C373.751 757.504 373.559 759.328 373.559 761.152V764.992C373.559 766.816 373.751 768.64 374.135 770.464C374.551 772.288 375.127 774.048 375.863 775.744C376.599 777.44 377.495 779.04 378.551 780.544C379.607 782.08 380.791 783.44 382.103 784.624H377.159C375.943 783.6 374.807 782.336 373.751 780.832C372.727 779.328 371.831 777.648 371.063 775.792C370.295 773.936 369.687 771.936 369.239 769.792C368.823 767.648 368.615 765.408 368.615 763.072ZM409.988 756.016H409.844L407.396 760.912L400.868 772.768L394.484 760.96L391.94 755.68H391.796V778H384.932V744.496H392.66L400.868 760.192H400.964L409.076 744.496H416.852V778H409.988V756.016ZM433.188 763.072C433.188 765.408 432.964 767.648 432.516 769.792C432.1 771.936 431.508 773.936 430.74 775.792C429.972 777.648 429.06 779.328 428.004 780.832C426.98 782.336 425.86 783.6 424.644 784.624H419.7C421.012 783.44 422.196 782.08 423.252 780.544C424.308 779.04 425.204 777.44 425.94 775.744C426.676 774.048 427.236 772.288 427.62 770.464C428.036 768.64 428.244 766.816 428.244 764.992V761.152C428.244 759.328 428.036 757.504 427.62 755.68C427.236 753.856 426.676 752.096 425.94 750.4C425.204 748.704 424.308 747.104 423.252 745.6C422.196 744.096 421.012 742.736 419.7 741.52H424.644C425.86 742.544 426.98 743.808 428.004 745.312C429.06 746.816 429.972 748.496 430.74 750.352C431.508 752.208 432.1 754.208 432.516 756.352C432.964 758.496 433.188 760.736 433.188 763.072Z" fill="#4B90F3"/>
<path d="M625.624 520.882L623.626 523.121L625.624 520.882ZM630.391 549.806L632.894 551.46L630.391 549.806ZM584.729 553.89L609.179 578.429L618.206 544.985L584.729 553.89ZM584.066 532.319C590.022 526.664 597.573 522.029 604.88 520.043C612.175 518.06 618.783 518.798 623.626 523.121L627.621 518.644C620.741 512.505 611.774 511.951 603.306 514.253C594.851 516.551 586.452 521.779 579.934 527.969L584.066 532.319ZM623.626 523.121C632.929 531.421 632.323 541.441 627.888 548.152L632.894 551.46C638.817 542.498 639.35 529.11 627.621 518.644L623.626 523.121ZM627.888 548.152C624.548 553.205 618.838 557.361 610.589 557.933L611.004 563.918C621.263 563.207 628.608 557.945 632.894 551.46L627.888 548.152Z" fill="#4B90F3"/>
<rect x="493" y="496" width="90" height="90" rx="45" stroke="#4B90F3" stroke-width="6"/>
<path d="M539.493 558.576C535.109 558.576 531.669 557.104 529.173 554.16C526.677 551.184 525.429 546.88 525.429 541.248C525.429 538.432 525.749 535.952 526.389 533.808C527.029 531.664 527.957 529.856 529.173 528.384C530.389 526.912 531.861 525.808 533.589 525.072C535.349 524.304 537.317 523.92 539.493 523.92C542.405 523.92 544.837 524.56 546.789 525.84C548.773 527.12 550.325 529.008 551.445 531.504L546.885 534C546.309 532.4 545.413 531.136 544.197 530.208C543.013 529.248 541.445 528.768 539.493 528.768C536.901 528.768 534.869 529.648 533.397 531.408C531.925 533.168 531.189 535.6 531.189 538.704V543.792C531.189 546.896 531.925 549.328 533.397 551.088C534.869 552.848 536.901 553.728 539.493 553.728C541.509 553.728 543.141 553.216 544.389 552.192C545.669 551.136 546.613 549.792 547.221 548.16L551.589 550.8C550.469 553.232 548.901 555.136 546.885 556.512C544.869 557.888 542.405 558.576 539.493 558.576Z" fill="#4B90F3"/>
<path d="M405.624 520.882L403.626 523.121L405.624 520.882ZM410.391 549.806L412.894 551.46L410.391 549.806ZM364.729 553.89L389.179 578.429L398.206 544.985L364.729 553.89ZM364.066 532.319C370.022 526.664 377.573 522.029 384.88 520.043C392.175 518.06 398.783 518.798 403.626 523.121L407.621 518.644C400.741 512.505 391.774 511.951 383.306 514.253C374.851 516.551 366.452 521.779 359.934 527.969L364.066 532.319ZM403.626 523.121C412.929 531.421 412.323 541.441 407.888 548.152L412.894 551.46C418.817 542.498 419.35 529.11 407.621 518.644L403.626 523.121ZM407.888 548.152C404.548 553.205 398.838 557.361 390.589 557.933L391.004 563.918C401.263 563.207 408.608 557.945 412.894 551.46L407.888 548.152Z" fill="#4B90F3"/>
<rect x="273" y="496" width="90" height="90" rx="45" stroke="#4B90F3" stroke-width="6"/>
<path d="M306.308 524.496H321.14C323.924 524.496 326.1 525.28 327.668 526.848C329.268 528.416 330.068 530.512 330.068 533.136C330.068 534.384 329.892 535.456 329.54 536.352C329.188 537.216 328.74 537.936 328.196 538.512C327.652 539.056 327.028 539.472 326.324 539.76C325.62 540.016 324.932 540.176 324.26 540.24V540.528C324.932 540.56 325.668 540.72 326.468 541.008C327.3 541.296 328.068 541.76 328.772 542.4C329.476 543.008 330.068 543.808 330.548 544.8C331.028 545.76 331.268 546.944 331.268 548.352C331.268 549.696 331.044 550.96 330.596 552.144C330.18 553.328 329.588 554.352 328.82 555.216C328.052 556.08 327.14 556.768 326.084 557.28C325.028 557.76 323.876 558 322.628 558H306.308V524.496ZM311.732 553.344H321.044C322.452 553.344 323.556 552.976 324.356 552.24C325.156 551.504 325.556 550.448 325.556 549.072V547.44C325.556 546.064 325.156 545.008 324.356 544.272C323.556 543.536 322.452 543.168 321.044 543.168H311.732V553.344ZM311.732 538.656H320.132C321.476 538.656 322.516 538.32 323.252 537.648C323.988 536.944 324.356 535.952 324.356 534.672V533.136C324.356 531.856 323.988 530.88 323.252 530.208C322.516 529.504 321.476 529.152 320.132 529.152H311.732V538.656Z" fill="#4B90F3"/>
<path d="M185.624 520.882L183.626 523.121L185.624 520.882ZM190.391 549.806L192.894 551.46L190.391 549.806ZM144.729 553.89L169.179 578.429L178.206 544.985L144.729 553.89ZM144.066 532.319C150.022 526.664 157.573 522.029 164.88 520.043C172.175 518.06 178.783 518.798 183.626 523.121L187.621 518.644C180.741 512.505 171.774 511.951 163.306 514.253C154.851 516.551 146.452 521.779 139.934 527.969L144.066 532.319ZM183.626 523.121C192.929 531.421 192.323 541.441 187.888 548.152L192.894 551.46C198.817 542.498 199.35 529.11 187.621 518.644L183.626 523.121ZM187.888 548.152C184.548 553.205 178.838 557.361 170.589 557.933L171.004 563.918C181.263 563.207 188.608 557.945 192.894 551.46L187.888 548.152Z" fill="#4B90F3"/>
<rect x="53" y="496" width="90" height="90" rx="45" stroke="#4B90F3" stroke-width="6"/>
<path d="M107.165 558L104.141 548.928H91.6134L88.6854 558H83.1654L94.5894 524.496H101.405L112.829 558H107.165ZM97.9974 529.488H97.7574L92.9094 544.272H102.797L97.9974 529.488Z" fill="#4B90F3"/>
<path d="M298.222 232.017L300.402 234.079L298.222 232.017ZM327.9 227.897L326.217 230.38L327.9 227.897ZM331.324 273.806L356.422 249.93L323.196 240.132L331.324 273.806ZM309.174 273.955C303.478 267.842 298.86 260.155 296.949 252.782C295.042 245.425 295.906 238.832 300.402 234.079L296.043 229.956C289.639 236.726 288.923 245.73 291.141 254.287C293.354 262.827 298.564 271.37 304.784 278.045L309.174 273.955ZM300.402 234.079C309.061 224.924 319.367 225.739 326.217 230.38L329.583 225.413C320.566 219.303 306.936 218.439 296.043 229.956L300.402 234.079ZM326.217 230.38C331.378 233.877 335.541 239.742 335.964 248.061L341.957 247.756C341.428 237.375 336.145 229.86 329.583 225.413L326.217 230.38Z" fill="#4B90F3"/>
<rect x="166" y="276" width="304" height="90" rx="45" stroke="#4B90F3" stroke-width="6"/>
<path d="M220.024 338.576C218.232 338.576 216.632 338.272 215.224 337.664C213.816 337.056 212.616 336.192 211.624 335.072C210.632 333.92 209.864 332.544 209.32 330.944C208.808 329.312 208.552 327.504 208.552 325.52C208.552 323.536 208.808 321.744 209.32 320.144C209.864 318.512 210.632 317.136 211.624 316.016C212.616 314.864 213.816 313.984 215.224 313.376C216.632 312.768 218.232 312.464 220.024 312.464C221.848 312.464 223.448 312.784 224.824 313.424C226.232 314.064 227.4 314.96 228.328 316.112C229.256 317.232 229.944 318.544 230.392 320.048C230.872 321.552 231.112 323.168 231.112 324.896V326.864H213.976V327.68C213.976 329.6 214.536 331.184 215.656 332.432C216.808 333.648 218.44 334.256 220.552 334.256C222.088 334.256 223.384 333.92 224.44 333.248C225.496 332.576 226.392 331.664 227.128 330.512L230.2 333.536C229.272 335.072 227.928 336.304 226.168 337.232C224.408 338.128 222.36 338.576 220.024 338.576ZM220.024 316.544C219.128 316.544 218.296 316.704 217.528 317.024C216.792 317.344 216.152 317.792 215.608 318.368C215.096 318.944 214.696 319.632 214.408 320.432C214.12 321.232 213.976 322.112 213.976 323.072V323.408H225.592V322.928C225.592 321.008 225.096 319.472 224.104 318.32C223.112 317.136 221.752 316.544 220.024 316.544ZM258.312 340.352C258.312 342.944 257.32 344.896 255.336 346.208C253.352 347.52 250.12 348.176 245.64 348.176C243.592 348.176 241.848 348.032 240.408 347.744C239 347.488 237.832 347.104 236.904 346.592C236.008 346.08 235.352 345.456 234.936 344.72C234.52 343.984 234.312 343.136 234.312 342.176C234.312 340.8 234.68 339.728 235.416 338.96C236.184 338.192 237.24 337.664 238.584 337.376V336.848C236.696 336.24 235.752 334.96 235.752 333.008C235.752 331.728 236.184 330.752 237.048 330.08C237.912 329.376 238.952 328.88 240.168 328.592V328.4C238.696 327.696 237.56 326.72 236.76 325.472C235.992 324.192 235.608 322.704 235.608 321.008C235.608 318.448 236.456 316.384 238.152 314.816C239.88 313.248 242.344 312.464 245.544 312.464C247.304 312.464 248.808 312.72 250.056 313.232V312.56C250.056 311.44 250.312 310.576 250.824 309.968C251.368 309.328 252.2 309.008 253.32 309.008H257.16V313.232H252.072V314.24C253.192 314.976 254.056 315.936 254.664 317.12C255.272 318.272 255.576 319.568 255.576 321.008C255.576 323.536 254.712 325.584 252.984 327.152C251.256 328.688 248.792 329.456 245.592 329.456C244.376 329.456 243.288 329.328 242.328 329.072C241.688 329.296 241.128 329.616 240.648 330.032C240.168 330.416 239.928 330.928 239.928 331.568C239.928 332.24 240.232 332.72 240.84 333.008C241.448 333.296 242.312 333.44 243.432 333.44H249.576C252.648 333.44 254.872 334.064 256.248 335.312C257.624 336.528 258.312 338.208 258.312 340.352ZM253.416 340.928C253.416 340.064 253.08 339.376 252.408 338.864C251.768 338.352 250.584 338.096 248.856 338.096H240.408C239.256 338.768 238.68 339.728 238.68 340.976C238.68 342 239.08 342.816 239.88 343.424C240.712 344.064 242.104 344.384 244.056 344.384H247.32C251.384 344.384 253.416 343.232 253.416 340.928ZM245.592 325.664C247.128 325.664 248.312 325.328 249.144 324.656C250.008 323.952 250.44 322.88 250.44 321.44V320.48C250.44 319.04 250.008 317.984 249.144 317.312C248.312 316.608 247.128 316.256 245.592 316.256C244.056 316.256 242.856 316.608 241.992 317.312C241.16 317.984 240.744 319.04 240.744 320.48V321.44C240.744 322.88 241.16 323.952 241.992 324.656C242.856 325.328 244.056 325.664 245.592 325.664ZM261.725 338V313.04H266.957V317.84H267.197C267.549 316.56 268.285 315.44 269.405 314.48C270.525 313.52 272.077 313.04 274.061 313.04H275.453V318.08H273.389C271.309 318.08 269.709 318.416 268.589 319.088C267.501 319.76 266.957 320.752 266.957 322.064V338H261.725ZM289.178 338.576C287.386 338.576 285.786 338.272 284.378 337.664C282.97 337.056 281.77 336.192 280.778 335.072C279.786 333.92 279.018 332.544 278.474 330.944C277.962 329.312 277.706 327.504 277.706 325.52C277.706 323.536 277.962 321.744 278.474 320.144C279.018 318.512 279.786 317.136 280.778 316.016C281.77 314.864 282.97 313.984 284.378 313.376C285.786 312.768 287.386 312.464 289.178 312.464C291.002 312.464 292.602 312.784 293.978 313.424C295.386 314.064 296.554 314.96 297.482 316.112C298.41 317.232 299.098 318.544 299.546 320.048C300.026 321.552 300.266 323.168 300.266 324.896V326.864H283.13V327.68C283.13 329.6 283.69 331.184 284.81 332.432C285.962 333.648 287.594 334.256 289.706 334.256C291.242 334.256 292.538 333.92 293.594 333.248C294.65 332.576 295.546 331.664 296.282 330.512L299.354 333.536C298.426 335.072 297.082 336.304 295.322 337.232C293.562 338.128 291.514 338.576 289.178 338.576ZM289.178 316.544C288.282 316.544 287.45 316.704 286.682 317.024C285.946 317.344 285.306 317.792 284.762 318.368C284.25 318.944 283.85 319.632 283.562 320.432C283.274 321.232 283.13 322.112 283.13 323.072V323.408H294.746V322.928C294.746 321.008 294.25 319.472 293.258 318.32C292.266 317.136 290.906 316.544 289.178 316.544ZM313.498 338.576C311.13 338.576 309.146 338.16 307.546 337.328C305.946 336.496 304.554 335.344 303.37 333.872L306.73 330.8C307.658 331.92 308.682 332.8 309.802 333.44C310.954 334.048 312.282 334.352 313.786 334.352C315.322 334.352 316.458 334.064 317.194 333.488C317.962 332.88 318.346 332.048 318.346 330.992C318.346 330.192 318.074 329.52 317.53 328.976C317.018 328.4 316.106 328.032 314.794 327.872L312.49 327.584C309.93 327.264 307.914 326.528 306.442 325.376C305.002 324.192 304.282 322.448 304.282 320.144C304.282 318.928 304.506 317.856 304.954 316.928C305.402 315.968 306.026 315.168 306.826 314.528C307.658 313.856 308.634 313.344 309.754 312.992C310.906 312.64 312.17 312.464 313.546 312.464C315.786 312.464 317.61 312.816 319.018 313.52C320.458 314.224 321.738 315.2 322.858 316.448L319.642 319.52C319.002 318.752 318.154 318.096 317.098 317.552C316.074 316.976 314.89 316.688 313.546 316.688C312.106 316.688 311.034 316.976 310.33 317.552C309.658 318.128 309.322 318.88 309.322 319.808C309.322 320.768 309.626 321.488 310.234 321.968C310.842 322.448 311.818 322.8 313.162 323.024L315.466 323.312C318.218 323.728 320.218 324.544 321.466 325.76C322.746 326.944 323.386 328.544 323.386 330.56C323.386 331.776 323.146 332.88 322.666 333.872C322.218 334.832 321.562 335.664 320.698 336.368C319.834 337.072 318.794 337.616 317.578 338C316.362 338.384 315.002 338.576 313.498 338.576ZM336.455 338.576C334.087 338.576 332.103 338.16 330.503 337.328C328.903 336.496 327.511 335.344 326.327 333.872L329.687 330.8C330.615 331.92 331.639 332.8 332.759 333.44C333.911 334.048 335.239 334.352 336.743 334.352C338.279 334.352 339.415 334.064 340.151 333.488C340.919 332.88 341.303 332.048 341.303 330.992C341.303 330.192 341.031 329.52 340.487 328.976C339.975 328.4 339.063 328.032 337.751 327.872L335.447 327.584C332.887 327.264 330.871 326.528 329.399 325.376C327.959 324.192 327.239 322.448 327.239 320.144C327.239 318.928 327.463 317.856 327.911 316.928C328.359 315.968 328.983 315.168 329.783 314.528C330.615 313.856 331.591 313.344 332.711 312.992C333.863 312.64 335.127 312.464 336.503 312.464C338.743 312.464 340.567 312.816 341.975 313.52C343.415 314.224 344.695 315.2 345.815 316.448L342.599 319.52C341.959 318.752 341.111 318.096 340.055 317.552C339.031 316.976 337.847 316.688 336.503 316.688C335.063 316.688 333.991 316.976 333.287 317.552C332.615 318.128 332.279 318.88 332.279 319.808C332.279 320.768 332.583 321.488 333.191 321.968C333.799 322.448 334.775 322.8 336.119 323.024L338.423 323.312C341.175 323.728 343.175 324.544 344.423 325.76C345.703 326.944 346.343 328.544 346.343 330.56C346.343 331.776 346.103 332.88 345.623 333.872C345.175 334.832 344.519 335.664 343.655 336.368C342.791 337.072 341.751 337.616 340.535 338C339.319 338.384 337.959 338.576 336.455 338.576ZM361.918 323.072C361.918 320.736 362.126 318.496 362.542 316.352C362.99 314.208 363.598 312.208 364.366 310.352C365.134 308.496 366.03 306.816 367.054 305.312C368.11 303.808 369.246 302.544 370.462 301.52H375.406C374.094 302.736 372.91 304.096 371.854 305.6C370.798 307.104 369.902 308.704 369.166 310.4C368.43 312.096 367.854 313.856 367.438 315.68C367.054 317.504 366.862 319.328 366.862 321.152V324.992C366.862 326.816 367.054 328.64 367.438 330.464C367.854 332.288 368.43 334.048 369.166 335.744C369.902 337.44 370.798 339.04 371.854 340.544C372.91 342.08 374.094 343.44 375.406 344.624H370.462C369.246 343.6 368.11 342.336 367.054 340.832C366.03 339.328 365.134 337.648 364.366 335.792C363.598 333.936 362.99 331.936 362.542 329.792C362.126 327.648 361.918 325.408 361.918 323.072ZM403.291 316.016H403.147L400.699 320.912L394.171 332.768L387.787 320.96L385.243 315.68H385.099V338H378.235V304.496H385.963L394.171 320.192H394.267L402.379 304.496H410.155V338H403.291V316.016ZM426.491 323.072C426.491 325.408 426.267 327.648 425.819 329.792C425.403 331.936 424.811 333.936 424.043 335.792C423.275 337.648 422.363 339.328 421.307 340.832C420.283 342.336 419.163 343.6 417.947 344.624H413.003C414.315 343.44 415.499 342.08 416.555 340.544C417.611 339.04 418.507 337.44 419.243 335.744C419.979 334.048 420.539 332.288 420.923 330.464C421.339 328.64 421.547 326.816 421.547 324.992V321.152C421.547 319.328 421.339 317.504 420.923 315.68C420.539 313.856 419.979 312.096 419.243 310.4C418.507 308.704 417.611 307.104 416.555 305.6C415.499 304.096 414.315 302.736 413.003 301.52H417.947C419.163 302.544 420.283 303.808 421.307 305.312C422.363 306.816 423.275 308.496 424.043 310.352C424.811 312.208 425.403 314.208 425.819 316.352C426.267 318.496 426.491 320.736 426.491 323.072Z" fill="#4B90F3"/>
<path d="M740.222 12.0173L742.402 14.0788L740.222 12.0173ZM769.9 7.89685L768.217 10.3804L769.9 7.89685ZM773.324 53.8063L798.422 29.9297L765.196 20.1325L773.324 53.8063ZM751.174 53.9548C745.478 47.8422 740.86 40.1555 738.949 32.7819C737.042 25.4249 737.906 18.8317 742.402 14.0788L738.043 9.95576C731.639 16.7259 730.923 25.7303 733.141 34.2871C735.354 42.8273 740.564 51.3704 746.784 58.0452L751.174 53.9548ZM742.402 14.0788C751.061 4.92411 761.367 5.73867 768.217 10.3804L771.583 5.41332C762.566 -0.696577 748.936 -1.56119 738.043 9.95576L742.402 14.0788ZM768.217 10.3804C773.378 13.8771 777.541 19.7417 777.964 28.0609L783.957 27.7557C783.428 17.3749 778.145 9.85954 771.583 5.41332L768.217 10.3804Z" fill="#4B90F3"/>
<rect x="648" y="56" width="223" height="90" rx="45" stroke="#4B90F3" stroke-width="6"/>
<path d="M694.413 82.48H699.645V97.168H699.885C700.429 95.664 701.309 94.512 702.525 93.712C703.773 92.88 705.229 92.464 706.893 92.464C710.061 92.464 712.509 93.616 714.237 95.92C715.965 98.192 716.829 101.392 716.829 105.52C716.829 109.648 715.965 112.864 714.237 115.168C712.509 117.44 710.061 118.576 706.893 118.576C705.229 118.576 703.773 118.16 702.525 117.328C701.309 116.496 700.429 115.344 699.885 113.872H699.645V118H694.413V82.48ZM705.309 114.064C707.133 114.064 708.589 113.488 709.677 112.336C710.765 111.152 711.309 109.6 711.309 107.68V103.36C711.309 101.44 710.765 99.904 709.677 98.752C708.589 97.568 707.133 96.976 705.309 96.976C703.709 96.976 702.365 97.376 701.277 98.176C700.189 98.944 699.645 99.968 699.645 101.248V109.792C699.645 111.072 700.189 112.112 701.277 112.912C702.365 113.68 703.709 114.064 705.309 114.064ZM722.339 118V93.04H727.571V97.84H727.811C728.163 96.56 728.899 95.44 730.019 94.48C731.139 93.52 732.691 93.04 734.675 93.04H736.067V98.08H734.003C731.923 98.08 730.323 98.416 729.203 99.088C728.115 99.76 727.571 100.752 727.571 102.064V118H722.339ZM742.874 88.576C741.786 88.576 740.986 88.32 740.474 87.808C739.994 87.296 739.754 86.64 739.754 85.84V85.024C739.754 84.224 739.994 83.568 740.474 83.056C740.986 82.544 741.786 82.288 742.874 82.288C743.962 82.288 744.746 82.544 745.226 83.056C745.706 83.568 745.946 84.224 745.946 85.024V85.84C745.946 86.64 745.706 87.296 745.226 87.808C744.746 88.32 743.962 88.576 742.874 88.576ZM740.234 93.04H745.466V118H740.234V93.04ZM768.153 113.872H767.913C767.369 115.344 766.473 116.496 765.225 117.328C764.009 118.16 762.569 118.576 760.905 118.576C757.737 118.576 755.289 117.44 753.561 115.168C751.833 112.864 750.969 109.648 750.969 105.52C750.969 101.392 751.833 98.192 753.561 95.92C755.289 93.616 757.737 92.464 760.905 92.464C762.569 92.464 764.009 92.88 765.225 93.712C766.473 94.512 767.369 95.664 767.913 97.168H768.153V82.48H773.385V118H768.153V113.872ZM762.489 114.064C764.089 114.064 765.433 113.68 766.521 112.912C767.609 112.112 768.153 111.072 768.153 109.792V101.248C768.153 99.968 767.609 98.944 766.521 98.176C765.433 97.376 764.089 96.976 762.489 96.976C760.665 96.976 759.209 97.568 758.121 98.752C757.033 99.904 756.489 101.44 756.489 103.36V107.68C756.489 109.6 757.033 111.152 758.121 112.336C759.209 113.488 760.665 114.064 762.489 114.064ZM802.271 120.352C802.271 122.944 801.279 124.896 799.295 126.208C797.311 127.52 794.079 128.176 789.599 128.176C787.551 128.176 785.807 128.032 784.367 127.744C782.959 127.488 781.791 127.104 780.863 126.592C779.967 126.08 779.311 125.456 778.895 124.72C778.479 123.984 778.271 123.136 778.271 122.176C778.271 120.8 778.639 119.728 779.375 118.96C780.143 118.192 781.199 117.664 782.543 117.376V116.848C780.655 116.24 779.711 114.96 779.711 113.008C779.711 111.728 780.143 110.752 781.007 110.08C781.871 109.376 782.911 108.88 784.127 108.592V108.4C782.655 107.696 781.519 106.72 780.719 105.472C779.951 104.192 779.567 102.704 779.567 101.008C779.567 98.448 780.415 96.384 782.111 94.816C783.839 93.248 786.303 92.464 789.503 92.464C791.263 92.464 792.767 92.72 794.015 93.232V92.56C794.015 91.44 794.271 90.576 794.783 89.968C795.327 89.328 796.159 89.008 797.279 89.008H801.119V93.232H796.031V94.24C797.151 94.976 798.015 95.936 798.623 97.12C799.231 98.272 799.535 99.568 799.535 101.008C799.535 103.536 798.671 105.584 796.943 107.152C795.215 108.688 792.751 109.456 789.551 109.456C788.335 109.456 787.247 109.328 786.287 109.072C785.647 109.296 785.087 109.616 784.607 110.032C784.127 110.416 783.887 110.928 783.887 111.568C783.887 112.24 784.191 112.72 784.799 113.008C785.407 113.296 786.271 113.44 787.391 113.44H793.535C796.607 113.44 798.831 114.064 800.207 115.312C801.583 116.528 802.271 118.208 802.271 120.352ZM797.375 120.928C797.375 120.064 797.039 119.376 796.367 118.864C795.727 118.352 794.543 118.096 792.815 118.096H784.367C783.215 118.768 782.639 119.728 782.639 120.976C782.639 122 783.039 122.816 783.839 123.424C784.671 124.064 786.063 124.384 788.015 124.384H791.279C795.343 124.384 797.375 123.232 797.375 120.928ZM789.551 105.664C791.087 105.664 792.271 105.328 793.103 104.656C793.967 103.952 794.399 102.88 794.399 101.44V100.48C794.399 99.04 793.967 97.984 793.103 97.312C792.271 96.608 791.087 96.256 789.551 96.256C788.015 96.256 786.815 96.608 785.951 97.312C785.119 97.984 784.703 99.04 784.703 100.48V101.44C784.703 102.88 785.119 103.952 785.951 104.656C786.815 105.328 788.015 105.664 789.551 105.664ZM815.195 118.576C813.403 118.576 811.803 118.272 810.395 117.664C808.987 117.056 807.787 116.192 806.795 115.072C805.803 113.92 805.035 112.544 804.491 110.944C803.979 109.312 803.723 107.504 803.723 105.52C803.723 103.536 803.979 101.744 804.491 100.144C805.035 98.512 805.803 97.136 806.795 96.016C807.787 94.864 808.987 93.984 810.395 93.376C811.803 92.768 813.403 92.464 815.195 92.464C817.019 92.464 818.619 92.784 819.995 93.424C821.403 94.064 822.571 94.96 823.499 96.112C824.427 97.232 825.115 98.544 825.563 100.048C826.043 101.552 826.283 103.168 826.283 104.896V106.864H809.147V107.68C809.147 109.6 809.707 111.184 810.827 112.432C811.979 113.648 813.611 114.256 815.723 114.256C817.259 114.256 818.555 113.92 819.611 113.248C820.667 112.576 821.563 111.664 822.299 110.512L825.371 113.536C824.443 115.072 823.099 116.304 821.339 117.232C819.579 118.128 817.531 118.576 815.195 118.576ZM815.195 96.544C814.299 96.544 813.467 96.704 812.699 97.024C811.963 97.344 811.323 97.792 810.779 98.368C810.267 98.944 809.867 99.632 809.579 100.432C809.291 101.232 809.147 102.112 809.147 103.072V103.408H820.763V102.928C820.763 101.008 820.267 99.472 819.275 98.32C818.283 97.136 816.923 96.544 815.195 96.544Z" fill="#4B90F3"/>
</svg>
