<svg width="860" height="370" viewBox="0 0 860 370" fill="none" xmlns="http://www.w3.org/2000/svg">
<path d="M684.999 149L709.946 173.035L676.658 182.622L684.999 149ZM695.05 173.409C701.057 183.521 710.364 192.512 720.891 201.012C731.539 209.61 742.795 217.234 753.259 225.264C763.482 233.108 772.708 241.177 778.077 250.052C783.587 259.157 785.046 269.15 779.705 280.296L774.294 277.704C778.655 268.603 777.539 260.752 772.944 253.158C768.209 245.332 759.801 237.846 749.607 230.024C739.654 222.387 727.711 214.231 717.122 205.681C706.412 197.032 696.446 187.506 689.891 176.474L695.05 173.409Z" fill="#4B90F3"/>
<path d="M616 149L595.897 177.211L630.38 180.515L616 149ZM610.485 175.279C606.355 195.545 597.566 210.892 587.255 226.325C576.988 241.695 565.046 257.352 555.295 277.704L560.706 280.296C570.213 260.455 581.738 245.385 592.244 229.658C602.708 213.996 612.002 197.879 616.364 176.477L610.485 175.279Z" fill="#4B90F3"/>
<path d="M278 149L274.621 183.476L306.168 169.164L278 149ZM287.076 175.746C295.93 184.23 309.189 190.789 325.354 196.035C341.567 201.297 360.972 205.322 382.36 208.579C425.117 215.09 476.22 218.588 526.236 222.625C576.352 226.67 625.371 231.255 664.291 239.912C683.749 244.24 700.533 249.554 713.606 256.245C726.7 262.947 735.783 270.88 740.295 280.296L745.705 277.704C740.4 266.632 730.031 257.912 716.34 250.904C702.626 243.886 685.29 238.436 665.594 234.055C626.206 225.294 576.781 220.685 526.719 216.644C476.558 212.596 425.75 209.117 383.263 202.647C362.03 199.414 342.981 195.448 327.207 190.328C311.385 185.193 299.125 178.981 291.227 171.414L287.076 175.746Z" fill="#4B90F3"/>
<path d="M233 149L221.189 181.565L255.297 175.511L233 149ZM234.996 176.851C244.433 197.344 265.987 210.427 292.42 219.558C318.943 228.72 351.108 234.146 382.726 238.825C414.476 243.524 445.616 247.464 470.559 253.625C483.015 256.702 493.754 260.295 502.147 264.724C510.554 269.16 516.344 274.295 519.308 280.324L524.692 277.676C520.952 270.069 513.943 264.164 504.947 259.417C495.937 254.663 484.666 250.93 471.998 247.801C446.692 241.549 415.118 237.554 383.604 232.89C351.959 228.207 320.309 222.844 294.379 213.887C268.36 204.899 248.823 192.532 240.445 174.341L234.996 176.851Z" fill="#4B90F3"/>
<path d="M188 149L175.244 181.207L209.514 176.151L188 149ZM189.088 176.639C198.284 204.834 221.576 219.345 244.193 232.476C267.174 245.818 289.242 257.68 299.259 280.218L304.741 277.782C293.769 253.094 269.607 240.292 247.206 227.287C224.44 214.07 203.197 200.548 194.793 174.778L189.088 176.639Z" fill="#4B90F3"/>
<path d="M143 149L122.302 176.778L156.707 180.814L143 149ZM136.943 175.097C132.121 194.481 122.481 208.201 113.632 223.05C104.808 237.856 97 253.5 97 276H103C103 255.11 110.162 240.593 118.786 226.121C127.385 211.692 137.672 197.018 142.765 176.545L136.943 175.097Z" fill="#4B90F3"/>
<path d="M536 101L506 83.6795L506 118.321L536 101ZM509 98L322 98L322 104L509 104L509 98Z" fill="#4B90F3"/>
<path d="M847.624 300.882L845.626 303.121L847.624 300.882ZM852.391 329.806L854.894 331.46L852.391 329.806ZM806.729 333.89L831.179 358.429L840.206 324.985L806.729 333.89ZM806.066 312.319C812.022 306.664 819.573 302.029 826.88 300.043C834.175 298.06 840.783 298.798 845.626 303.121L849.621 298.644C842.741 292.505 833.774 291.951 825.306 294.253C816.851 296.551 808.452 301.779 801.934 307.969L806.066 312.319ZM845.626 303.121C854.929 311.421 854.323 321.441 849.888 328.152L854.894 331.46C860.817 322.498 861.35 309.11 849.621 298.644L845.626 303.121ZM849.888 328.152C846.548 333.205 840.838 337.361 832.589 337.933L833.004 343.918C843.263 343.207 850.608 337.945 854.894 331.46L849.888 328.152Z" fill="#4B90F3"/>
<rect x="715" y="276" width="90" height="90" rx="45" stroke="#4B90F3" stroke-width="6"/>
<path d="M747.745 304.496H759.601C761.745 304.496 763.681 304.848 765.409 305.552C767.169 306.256 768.657 307.312 769.873 308.72C771.121 310.096 772.081 311.84 772.753 313.952C773.425 316.032 773.761 318.464 773.761 321.248C773.761 324.032 773.425 326.48 772.753 328.592C772.081 330.672 771.121 332.416 769.873 333.824C768.657 335.2 767.169 336.24 765.409 336.944C763.681 337.648 761.745 338 759.601 338H747.745V304.496ZM759.601 333.2C762.097 333.2 764.113 332.416 765.649 330.848C767.185 329.28 767.953 326.976 767.953 323.936V318.56C767.953 315.52 767.185 313.216 765.649 311.648C764.113 310.08 762.097 309.296 759.601 309.296H753.169V333.2H759.601Z" fill="#4B90F3"/>
<path d="M627.624 300.882L625.626 303.121L627.624 300.882ZM632.391 329.806L634.894 331.46L632.391 329.806ZM586.729 333.89L611.179 358.429L620.206 324.985L586.729 333.89ZM586.066 312.319C592.022 306.664 599.573 302.029 606.88 300.043C614.175 298.06 620.783 298.798 625.626 303.121L629.621 298.644C622.741 292.505 613.774 291.951 605.306 294.253C596.851 296.551 588.452 301.779 581.934 307.969L586.066 312.319ZM625.626 303.121C634.929 311.421 634.323 321.441 629.888 328.152L634.894 331.46C640.817 322.498 641.35 309.11 629.621 298.644L625.626 303.121ZM629.888 328.152C626.548 333.205 620.838 337.361 612.589 337.933L613.004 343.918C623.263 343.207 630.608 337.945 634.894 331.46L629.888 328.152Z" fill="#4B90F3"/>
<rect x="495" y="276" width="90" height="90" rx="45" stroke="#4B90F3" stroke-width="6"/>
<path d="M541.493 338.576C537.109 338.576 533.669 337.104 531.173 334.16C528.677 331.184 527.429 326.88 527.429 321.248C527.429 318.432 527.749 315.952 528.389 313.808C529.029 311.664 529.957 309.856 531.173 308.384C532.389 306.912 533.861 305.808 535.589 305.072C537.349 304.304 539.317 303.92 541.493 303.92C544.405 303.92 546.837 304.56 548.789 305.84C550.773 307.12 552.325 309.008 553.445 311.504L548.885 314C548.309 312.4 547.413 311.136 546.197 310.208C545.013 309.248 543.445 308.768 541.493 308.768C538.901 308.768 536.869 309.648 535.397 311.408C533.925 313.168 533.189 315.6 533.189 318.704V323.792C533.189 326.896 533.925 329.328 535.397 331.088C536.869 332.848 538.901 333.728 541.493 333.728C543.509 333.728 545.141 333.216 546.389 332.192C547.669 331.136 548.613 329.792 549.221 328.16L553.589 330.8C552.469 333.232 550.901 335.136 548.885 336.512C546.869 337.888 544.405 338.576 541.493 338.576Z" fill="#4B90F3"/>
<path d="M407.624 300.882L405.626 303.121L407.624 300.882ZM412.391 329.806L414.894 331.46L412.391 329.806ZM366.729 333.89L391.179 358.429L400.206 324.985L366.729 333.89ZM366.066 312.319C372.022 306.664 379.573 302.029 386.88 300.043C394.175 298.06 400.783 298.798 405.626 303.121L409.621 298.644C402.741 292.505 393.774 291.951 385.306 294.253C376.851 296.551 368.452 301.779 361.934 307.969L366.066 312.319ZM405.626 303.121C414.929 311.421 414.323 321.441 409.888 328.152L414.894 331.46C420.817 322.498 421.35 309.11 409.621 298.644L405.626 303.121ZM409.888 328.152C406.548 333.205 400.838 337.361 392.589 337.933L393.004 343.918C403.263 343.207 410.608 337.945 414.894 331.46L409.888 328.152Z" fill="#4B90F3"/>
<rect x="275" y="276" width="90" height="90" rx="45" stroke="#4B90F3" stroke-width="6"/>
<path d="M308.308 304.496H323.14C325.924 304.496 328.1 305.28 329.668 306.848C331.268 308.416 332.068 310.512 332.068 313.136C332.068 314.384 331.892 315.456 331.54 316.352C331.188 317.216 330.74 317.936 330.196 318.512C329.652 319.056 329.028 319.472 328.324 319.76C327.62 320.016 326.932 320.176 326.26 320.24V320.528C326.932 320.56 327.668 320.72 328.468 321.008C329.3 321.296 330.068 321.76 330.772 322.4C331.476 323.008 332.068 323.808 332.548 324.8C333.028 325.76 333.268 326.944 333.268 328.352C333.268 329.696 333.044 330.96 332.596 332.144C332.18 333.328 331.588 334.352 330.82 335.216C330.052 336.08 329.14 336.768 328.084 337.28C327.028 337.76 325.876 338 324.628 338H308.308V304.496ZM313.732 333.344H323.044C324.452 333.344 325.556 332.976 326.356 332.24C327.156 331.504 327.556 330.448 327.556 329.072V327.44C327.556 326.064 327.156 325.008 326.356 324.272C325.556 323.536 324.452 323.168 323.044 323.168H313.732V333.344ZM313.732 318.656H322.132C323.476 318.656 324.516 318.32 325.252 317.648C325.988 316.944 326.356 315.952 326.356 314.672V313.136C326.356 311.856 325.988 310.88 325.252 310.208C324.516 309.504 323.476 309.152 322.132 309.152H313.732V318.656Z" fill="#4B90F3"/>
<path d="M187.624 300.882L185.626 303.121L187.624 300.882ZM192.391 329.806L194.894 331.46L192.391 329.806ZM146.729 333.89L171.179 358.429L180.206 324.985L146.729 333.89ZM146.066 312.319C152.022 306.664 159.573 302.029 166.88 300.043C174.175 298.06 180.783 298.798 185.626 303.121L189.621 298.644C182.741 292.505 173.774 291.951 165.306 294.253C156.851 296.551 148.452 301.779 141.934 307.969L146.066 312.319ZM185.626 303.121C194.929 311.421 194.323 321.441 189.888 328.152L194.894 331.46C200.817 322.498 201.35 309.11 189.621 298.644L185.626 303.121ZM189.888 328.152C186.548 333.205 180.838 337.361 172.589 337.933L173.004 343.918C183.263 343.207 190.608 337.945 194.894 331.46L189.888 328.152Z" fill="#4B90F3"/>
<rect x="55" y="276" width="90" height="90" rx="45" stroke="#4B90F3" stroke-width="6"/>
<path d="M109.165 338L106.141 328.928H93.6134L90.6854 338H85.1654L96.5894 304.496H103.405L114.829 338H109.165ZM99.9974 309.488H99.7574L94.9094 324.272H104.797L99.9974 309.488Z" fill="#4B90F3"/>
<path d="M631.222 12.0173L633.402 14.0788L631.222 12.0173ZM660.9 7.89685L659.217 10.3804L660.9 7.89685ZM664.324 53.8063L689.422 29.9297L656.196 20.1325L664.324 53.8063ZM642.174 53.9548C636.478 47.8422 631.86 40.1555 629.949 32.7819C628.042 25.4249 628.906 18.8317 633.402 14.0788L629.043 9.95576C622.639 16.7259 621.923 25.7303 624.141 34.2871C626.354 42.8273 631.564 51.3704 637.784 58.0452L642.174 53.9548ZM633.402 14.0788C642.061 4.92411 652.367 5.73867 659.217 10.3804L662.583 5.41332C653.566 -0.696577 639.936 -1.56119 629.043 9.95576L633.402 14.0788ZM659.217 10.3804C664.378 13.8771 668.541 19.7417 668.964 28.0609L674.957 27.7557C674.428 17.3749 669.145 9.85954 662.583 5.41332L659.217 10.3804Z" fill="#4B90F3"/>
<rect x="539" y="56" width="223" height="90" rx="45" stroke="#4B90F3" stroke-width="6"/>
<path d="M571.215 93.04H576.447V97.168H576.687C577.231 95.664 578.111 94.512 579.327 93.712C580.575 92.88 582.031 92.464 583.695 92.464C586.863 92.464 589.311 93.616 591.039 95.92C592.767 98.192 593.631 101.392 593.631 105.52C593.631 109.648 592.767 112.864 591.039 115.168C589.311 117.44 586.863 118.576 583.695 118.576C582.031 118.576 580.575 118.16 579.327 117.328C578.111 116.496 577.231 115.344 576.687 113.872H576.447V127.6H571.215V93.04ZM582.111 114.064C583.935 114.064 585.391 113.488 586.479 112.336C587.567 111.152 588.111 109.6 588.111 107.68V103.36C588.111 101.44 587.567 99.904 586.479 98.752C585.391 97.568 583.935 96.976 582.111 96.976C580.511 96.976 579.167 97.376 578.079 98.176C576.991 98.944 576.447 99.968 576.447 101.248V109.792C576.447 111.072 576.991 112.112 578.079 112.912C579.167 113.68 580.511 114.064 582.111 114.064ZM599.142 118V93.04H604.374V97.84H604.614C604.966 96.56 605.702 95.44 606.822 94.48C607.942 93.52 609.494 93.04 611.478 93.04H612.87V98.08H610.806C608.726 98.08 607.126 98.416 606.006 99.088C604.918 99.76 604.374 100.752 604.374 102.064V118H599.142ZM626.594 118.576C624.866 118.576 623.282 118.272 621.842 117.664C620.434 117.056 619.234 116.192 618.242 115.072C617.25 113.92 616.482 112.544 615.938 110.944C615.394 109.312 615.122 107.504 615.122 105.52C615.122 103.536 615.394 101.744 615.938 100.144C616.482 98.512 617.25 97.136 618.242 96.016C619.234 94.864 620.434 93.984 621.842 93.376C623.282 92.768 624.866 92.464 626.594 92.464C628.322 92.464 629.89 92.768 631.298 93.376C632.738 93.984 633.954 94.864 634.946 96.016C635.938 97.136 636.706 98.512 637.25 100.144C637.794 101.744 638.066 103.536 638.066 105.52C638.066 107.504 637.794 109.312 637.25 110.944C636.706 112.544 635.938 113.92 634.946 115.072C633.954 116.192 632.738 117.056 631.298 117.664C629.89 118.272 628.322 118.576 626.594 118.576ZM626.594 114.256C628.386 114.256 629.826 113.712 630.914 112.624C632.002 111.504 632.546 109.84 632.546 107.632V103.408C632.546 101.2 632.002 99.552 630.914 98.464C629.826 97.344 628.386 96.784 626.594 96.784C624.802 96.784 623.362 97.344 622.274 98.464C621.186 99.552 620.642 101.2 620.642 103.408V107.632C620.642 109.84 621.186 111.504 622.274 112.624C623.362 113.712 624.802 114.256 626.594 114.256ZM639.976 118L648.76 105.376L640.216 93.04H646.264L651.88 101.728H652.024L657.784 93.04H663.352L654.808 105.328L663.496 118H657.448L651.688 108.928H651.544L645.544 118H639.976ZM683.045 93.04H688.085L677.573 122.944C677.285 123.776 676.949 124.48 676.565 125.056C676.213 125.664 675.781 126.144 675.269 126.496C674.789 126.88 674.197 127.152 673.493 127.312C672.789 127.504 671.957 127.6 670.997 127.6H667.973V123.328H672.197L673.637 119.104L664.565 93.04H669.797L674.789 107.728L676.229 113.152H676.469L678.053 107.728L683.045 93.04ZM723.989 112.672H723.749C723.493 114.368 722.629 115.776 721.157 116.896C719.685 118.016 717.685 118.576 715.157 118.576C713.237 118.576 711.445 118.208 709.781 117.472C708.117 116.736 706.661 115.648 705.413 114.208C704.165 112.768 703.189 110.976 702.485 108.832C701.781 106.688 701.429 104.208 701.429 101.392C701.429 98.576 701.797 96.08 702.533 93.904C703.269 91.728 704.293 89.904 705.605 88.432C706.949 86.96 708.549 85.84 710.405 85.072C712.261 84.304 714.325 83.92 716.597 83.92C719.605 83.92 722.197 84.576 724.373 85.888C726.549 87.168 728.261 89.104 729.509 91.696L723.557 95.104C723.045 93.792 722.245 92.688 721.157 91.792C720.069 90.864 718.549 90.4 716.597 90.4C714.325 90.4 712.517 91.056 711.173 92.368C709.829 93.68 709.157 95.744 709.157 98.56V103.936C709.157 106.72 709.829 108.784 711.173 110.128C712.517 111.44 714.325 112.096 716.597 112.096C717.493 112.096 718.341 112 719.141 111.808C719.941 111.584 720.645 111.264 721.253 110.848C721.861 110.4 722.325 109.872 722.645 109.264C722.997 108.656 723.173 107.936 723.173 107.104V105.424H716.933V99.328H730.133V118H723.989V112.672Z" fill="#4B90F3"/>
<path d="M191.222 12.0173L193.402 14.0788L191.222 12.0173ZM220.9 7.89685L219.217 10.3804L220.9 7.89685ZM224.324 53.8063L249.422 29.9297L216.196 20.1325L224.324 53.8063ZM202.174 53.9548C196.478 47.8422 191.86 40.1555 189.949 32.7819C188.042 25.4249 188.906 18.8317 193.402 14.0788L189.043 9.95576C182.639 16.7259 181.923 25.7303 184.141 34.2871C186.354 42.8273 191.564 51.3704 197.784 58.0452L202.174 53.9548ZM193.402 14.0788C202.061 4.92411 212.367 5.73867 219.217 10.3804L222.583 5.41332C213.566 -0.696577 199.936 -1.56119 189.043 9.95576L193.402 14.0788ZM219.217 10.3804C224.378 13.8771 228.541 19.7417 228.964 28.0609L234.957 27.7557C234.428 17.3749 229.145 9.85954 222.583 5.41332L219.217 10.3804Z" fill="#4B90F3"/>
<rect x="99" y="56" width="223" height="90" rx="45" stroke="#4B90F3" stroke-width="6"/>
<path d="M151.017 120.352C151.017 122.944 150.025 124.896 148.041 126.208C146.057 127.52 142.825 128.176 138.345 128.176C136.297 128.176 134.553 128.032 133.113 127.744C131.705 127.488 130.537 127.104 129.609 126.592C128.713 126.08 128.057 125.456 127.641 124.72C127.225 123.984 127.017 123.136 127.017 122.176C127.017 120.8 127.385 119.728 128.121 118.96C128.889 118.192 129.945 117.664 131.289 117.376V116.848C129.401 116.24 128.457 114.96 128.457 113.008C128.457 111.728 128.889 110.752 129.753 110.08C130.617 109.376 131.657 108.88 132.873 108.592V108.4C131.401 107.696 130.265 106.72 129.465 105.472C128.697 104.192 128.313 102.704 128.313 101.008C128.313 98.448 129.161 96.384 130.857 94.816C132.585 93.248 135.049 92.464 138.249 92.464C140.009 92.464 141.513 92.72 142.761 93.232V92.56C142.761 91.44 143.017 90.576 143.529 89.968C144.073 89.328 144.905 89.008 146.025 89.008H149.865V93.232H144.777V94.24C145.897 94.976 146.761 95.936 147.369 97.12C147.977 98.272 148.281 99.568 148.281 101.008C148.281 103.536 147.417 105.584 145.689 107.152C143.961 108.688 141.497 109.456 138.297 109.456C137.081 109.456 135.993 109.328 135.033 109.072C134.393 109.296 133.833 109.616 133.353 110.032C132.873 110.416 132.633 110.928 132.633 111.568C132.633 112.24 132.937 112.72 133.545 113.008C134.153 113.296 135.017 113.44 136.137 113.44H142.281C145.353 113.44 147.577 114.064 148.953 115.312C150.329 116.528 151.017 118.208 151.017 120.352ZM146.121 120.928C146.121 120.064 145.785 119.376 145.113 118.864C144.473 118.352 143.289 118.096 141.561 118.096H133.113C131.961 118.768 131.385 119.728 131.385 120.976C131.385 122 131.785 122.816 132.585 123.424C133.417 124.064 134.809 124.384 136.761 124.384H140.025C144.089 124.384 146.121 123.232 146.121 120.928ZM138.297 105.664C139.833 105.664 141.017 105.328 141.849 104.656C142.713 103.952 143.145 102.88 143.145 101.44V100.48C143.145 99.04 142.713 97.984 141.849 97.312C141.017 96.608 139.833 96.256 138.297 96.256C136.761 96.256 135.561 96.608 134.697 97.312C133.865 97.984 133.449 99.04 133.449 100.48V101.44C133.449 102.88 133.865 103.952 134.697 104.656C135.561 105.328 136.761 105.664 138.297 105.664ZM154.431 118V93.04H159.663V97.84H159.903C160.255 96.56 160.991 95.44 162.111 94.48C163.231 93.52 164.783 93.04 166.767 93.04H168.159V98.08H166.095C164.015 98.08 162.415 98.416 161.295 99.088C160.207 99.76 159.663 100.752 159.663 102.064V118H154.431ZM181.883 118.576C180.155 118.576 178.571 118.272 177.131 117.664C175.723 117.056 174.523 116.192 173.531 115.072C172.539 113.92 171.771 112.544 171.227 110.944C170.683 109.312 170.411 107.504 170.411 105.52C170.411 103.536 170.683 101.744 171.227 100.144C171.771 98.512 172.539 97.136 173.531 96.016C174.523 94.864 175.723 93.984 177.131 93.376C178.571 92.768 180.155 92.464 181.883 92.464C183.611 92.464 185.179 92.768 186.587 93.376C188.027 93.984 189.243 94.864 190.235 96.016C191.227 97.136 191.995 98.512 192.539 100.144C193.083 101.744 193.355 103.536 193.355 105.52C193.355 107.504 193.083 109.312 192.539 110.944C191.995 112.544 191.227 113.92 190.235 115.072C189.243 116.192 188.027 117.056 186.587 117.664C185.179 118.272 183.611 118.576 181.883 118.576ZM181.883 114.256C183.675 114.256 185.115 113.712 186.203 112.624C187.291 111.504 187.835 109.84 187.835 107.632V103.408C187.835 101.2 187.291 99.552 186.203 98.464C185.115 97.344 183.675 96.784 181.883 96.784C180.091 96.784 178.651 97.344 177.563 98.464C176.475 99.552 175.931 101.2 175.931 103.408V107.632C175.931 109.84 176.475 111.504 177.563 112.624C178.651 113.712 180.091 114.256 181.883 114.256ZM213.825 113.872H213.633C213.409 114.48 213.105 115.072 212.721 115.648C212.369 116.224 211.905 116.736 211.329 117.184C210.785 117.6 210.113 117.936 209.313 118.192C208.545 118.448 207.649 118.576 206.625 118.576C204.033 118.576 202.017 117.744 200.577 116.08C199.169 114.416 198.465 112.032 198.465 108.928V93.04H203.697V108.256C203.697 112.128 205.297 114.064 208.497 114.064C209.169 114.064 209.825 113.984 210.465 113.824C211.105 113.632 211.665 113.36 212.145 113.008C212.657 112.656 213.057 112.208 213.345 111.664C213.665 111.12 213.825 110.48 213.825 109.744V93.04H219.057V118H213.825V113.872ZM226.069 93.04H231.301V97.168H231.541C232.085 95.664 232.965 94.512 234.181 93.712C235.429 92.88 236.885 92.464 238.549 92.464C241.717 92.464 244.165 93.616 245.893 95.92C247.621 98.192 248.485 101.392 248.485 105.52C248.485 109.648 247.621 112.864 245.893 115.168C244.165 117.44 241.717 118.576 238.549 118.576C236.885 118.576 235.429 118.16 234.181 117.328C232.965 116.496 232.085 115.344 231.541 113.872H231.301V127.6H226.069V93.04ZM236.965 114.064C238.789 114.064 240.245 113.488 241.333 112.336C242.421 111.152 242.965 109.6 242.965 107.68V103.36C242.965 101.44 242.421 99.904 241.333 98.752C240.245 97.568 238.789 96.976 236.965 96.976C235.365 96.976 234.021 97.376 232.933 98.176C231.845 98.944 231.301 99.968 231.301 101.248V109.792C231.301 111.072 231.845 112.112 232.933 112.912C234.021 113.68 235.365 114.064 236.965 114.064ZM286.075 112.672H285.835C285.579 114.368 284.715 115.776 283.243 116.896C281.771 118.016 279.771 118.576 277.243 118.576C275.323 118.576 273.531 118.208 271.867 117.472C270.203 116.736 268.747 115.648 267.499 114.208C266.251 112.768 265.275 110.976 264.571 108.832C263.867 106.688 263.515 104.208 263.515 101.392C263.515 98.576 263.883 96.08 264.619 93.904C265.355 91.728 266.379 89.904 267.691 88.432C269.035 86.96 270.635 85.84 272.491 85.072C274.347 84.304 276.411 83.92 278.683 83.92C281.691 83.92 284.283 84.576 286.459 85.888C288.635 87.168 290.347 89.104 291.595 91.696L285.643 95.104C285.131 93.792 284.331 92.688 283.243 91.792C282.155 90.864 280.635 90.4 278.683 90.4C276.411 90.4 274.603 91.056 273.259 92.368C271.915 93.68 271.243 95.744 271.243 98.56V103.936C271.243 106.72 271.915 108.784 273.259 110.128C274.603 111.44 276.411 112.096 278.683 112.096C279.579 112.096 280.427 112 281.227 111.808C282.027 111.584 282.731 111.264 283.339 110.848C283.947 110.4 284.411 109.872 284.731 109.264C285.083 108.656 285.259 107.936 285.259 107.104V105.424H279.019V99.328H292.219V118H286.075V112.672Z" fill="#4B90F3"/>
</svg>
