<svg width="1170" height="863" viewBox="0 0 1170 863" fill="none" xmlns="http://www.w3.org/2000/svg">
<g clip-path="url(#clip0_25_597)">
<path d="M833.218 500.545L849.235 493.953L835.517 483.378L833.218 500.545ZM943.595 354.916L941.735 357.328L944.111 359.16L945.971 356.748L943.595 354.916ZM938.017 362.152L934.298 366.975L936.674 368.807L940.392 363.983L938.017 362.152ZM930.579 371.799L926.86 376.623L929.236 378.455L932.955 373.631L930.579 371.799ZM923.141 381.447L919.422 386.271L921.798 388.102L925.517 383.278L923.141 381.447ZM915.704 391.094L911.985 395.918L914.361 397.75L918.079 392.926L915.704 391.094ZM908.266 400.742L904.547 405.566L906.923 407.397L910.642 402.574L908.266 400.742ZM900.828 410.389L897.109 415.213L899.485 417.045L903.204 412.221L900.828 410.389ZM893.391 420.037L889.672 424.861L892.048 426.692L895.766 421.869L893.391 420.037ZM885.953 429.684L882.234 434.508L884.61 436.34L888.329 431.516L885.953 429.684ZM878.515 439.332L874.796 444.156L877.172 445.988L880.891 441.164L878.515 439.332ZM871.078 448.98L867.359 453.803L869.735 455.635L873.453 450.811L871.078 448.98ZM863.64 458.627L859.921 463.451L862.297 465.283L866.016 460.459L863.64 458.627ZM856.202 468.275L852.483 473.098L854.859 474.93L858.578 470.106L856.202 468.275ZM848.765 477.922L845.046 482.746L847.422 484.578L851.14 479.754L848.765 477.922ZM841.327 487.57L837.608 492.394L839.984 494.225L843.703 489.401L841.327 487.57ZM833.218 500.545L865.252 487.361L837.817 466.211L833.218 500.545ZM942.407 354L940.547 356.412L945.299 360.075L947.159 357.663L942.407 354ZM936.829 361.236L933.11 366.06L937.862 369.723L941.58 364.899L936.829 361.236ZM929.391 370.883L925.672 375.707L930.424 379.37L934.143 374.547L929.391 370.883ZM921.953 380.531L918.234 385.355L922.986 389.018L926.705 384.194L921.953 380.531ZM914.516 390.178L910.797 395.002L915.549 398.666L919.267 393.842L914.516 390.178ZM907.078 399.826L903.359 404.65L908.111 408.313L911.83 403.489L907.078 399.826ZM899.64 409.474L895.921 414.297L900.673 417.961L904.392 413.137L899.64 409.474ZM892.203 419.121L888.484 423.945L893.236 427.608L896.954 422.784L892.203 419.121ZM884.765 428.769L881.046 433.592L885.798 437.256L889.517 432.432L884.765 428.769ZM877.327 438.416L873.608 443.24L878.36 446.903L882.079 442.08L877.327 438.416ZM869.89 448.064L866.171 452.888L870.923 456.551L874.641 451.727L869.89 448.064ZM862.452 457.711L858.733 462.535L863.485 466.198L867.204 461.375L862.452 457.711ZM855.014 467.359L851.295 472.183L856.047 475.846L859.766 471.022L855.014 467.359ZM847.577 477.006L843.858 481.83L848.61 485.494L852.328 480.67L847.577 477.006ZM840.139 486.654L836.42 491.478L841.172 495.141L844.891 490.317L840.139 486.654Z" fill="#14BF06"/>
<path d="M221.269 360.792L223.569 377.959L237.286 367.384L221.269 360.792ZM335.48 506.481L333.596 504.037L331.22 505.869L333.104 508.312L335.48 506.481ZM329.829 499.15L326.061 494.264L323.685 496.095L327.453 500.982L329.829 499.15ZM322.294 489.377L318.526 484.49L316.151 486.322L319.918 491.208L322.294 489.377ZM314.759 479.603L310.992 474.716L308.616 476.548L312.383 481.435L314.759 479.603ZM307.224 469.83L303.457 464.943L301.081 466.774L304.848 471.661L307.224 469.83ZM299.689 460.056L295.922 455.169L293.546 457.001L297.313 461.888L299.689 460.056ZM292.154 450.282L288.387 445.395L286.011 447.227L289.779 452.114L292.154 450.282ZM284.62 440.509L280.852 435.622L278.476 437.453L282.244 442.34L284.62 440.509ZM277.085 430.735L273.317 425.848L270.941 427.68L274.709 432.567L277.085 430.735ZM269.55 420.961L265.782 416.075L263.407 417.906L267.174 422.793L269.55 420.961ZM262.015 411.188L258.248 406.301L255.872 408.133L259.639 413.019L262.015 411.188ZM254.48 401.414L250.713 396.527L248.337 398.359L252.104 403.246L254.48 401.414ZM246.945 391.64L243.178 386.754L240.802 388.585L244.569 393.472L246.945 391.64ZM239.41 381.867L235.643 376.98L233.267 378.812L237.034 383.699L239.41 381.867ZM231.876 372.093L228.108 367.206L225.732 369.038L229.5 373.925L231.876 372.093ZM221.269 360.792L225.868 395.126L253.303 373.976L221.269 360.792ZM336.668 505.565L334.784 503.121L330.032 506.785L331.916 509.228L336.668 505.565ZM331.017 498.235L327.249 493.348L322.498 497.011L326.265 501.898L331.017 498.235ZM323.482 488.461L319.714 483.574L314.963 487.237L318.73 492.124L323.482 488.461ZM315.947 478.687L312.18 473.801L307.428 477.464L311.195 482.351L315.947 478.687ZM308.412 468.914L304.645 464.027L299.893 467.69L303.66 472.577L308.412 468.914ZM300.877 459.14L297.11 454.253L292.358 457.917L296.125 462.803L300.877 459.14ZM293.342 449.366L289.575 444.48L284.823 448.143L288.591 453.03L293.342 449.366ZM285.808 439.593L282.04 434.706L277.288 438.369L281.056 443.256L285.808 439.593ZM278.273 429.819L274.505 424.932L269.753 428.596L273.521 433.483L278.273 429.819ZM270.738 420.046L266.97 415.159L262.219 418.822L265.986 423.709L270.738 420.046ZM263.203 410.272L259.436 405.385L254.684 409.048L258.451 413.935L263.203 410.272ZM255.668 400.498L251.901 395.611L247.149 399.275L250.916 404.162L255.668 400.498ZM248.133 390.725L244.366 385.838L239.614 389.501L243.381 394.388L248.133 390.725ZM240.598 380.951L236.831 376.064L232.079 379.728L235.847 384.614L240.598 380.951ZM233.063 371.177L229.296 366.291L224.544 369.954L228.312 374.841L233.063 371.177Z" fill="#14BF06"/>
<path d="M1113 149.501L1095.82 179.579L1130.46 179.422L1113 149.501ZM1039 572L1036.5 570.345L1039 572ZM1110.12 176.504C1111.15 307.118 1116.31 449.703 1036.5 570.345L1041.5 573.655C1122.51 451.195 1117.14 306.565 1116.12 176.456L1110.12 176.504ZM1036.5 570.345C951.064 699.489 827.818 758.005 696.995 758.005L696.995 764.005C829.793 764.005 954.936 704.511 1041.5 573.655L1036.5 570.345Z" fill="#4B90F3"/>
<path d="M777.292 580.225L745.258 593.408L772.693 614.559L777.292 580.225ZM758.431 599.776L667.331 717.944L672.083 721.607L763.183 603.439L758.431 599.776Z" fill="#4B90F3"/>
<path d="M585 589L567.679 619H602.321L585 589ZM582 616V716H588V616H582Z" fill="#4B90F3"/>
<path d="M393 580.225L425.034 593.408L397.599 614.559L393 580.225ZM411.861 599.776L502.961 717.944L498.209 721.607L407.109 603.439L411.861 599.776Z" fill="#4B90F3"/>
<path d="M673 364.039L705.034 377.223L677.599 398.373L673 364.039ZM691.861 383.59L782.477 501.13L777.725 504.793L687.109 387.254L691.861 383.59Z" fill="#4B90F3"/>
<path d="M585 369L567.679 399H602.321L585 369ZM582 396V496H588V396H582Z" fill="#4B90F3"/>
<path d="M496.05 364.039L464.016 377.223L491.451 398.373L496.05 364.039ZM477.189 383.59L386.574 501.13L391.326 504.793L481.941 387.254L477.189 383.59Z" fill="#4B90F3"/>
<path d="M345.001 148.999L362.604 178.834L327.964 179.161L345.001 148.999ZM371 274.5L368.715 276.444L371 274.5ZM348.255 175.928C349.296 221.255 354.196 250.113 373.285 272.556L368.715 276.444C348.152 252.268 343.3 221.472 342.257 176.065L348.255 175.928ZM373.285 272.556C384.854 286.158 401.697 297.545 419.674 305.532C437.656 313.522 456.521 317.999 472.001 317.999L472.001 323.999C455.492 323.999 435.792 319.259 417.238 311.016C398.68 302.77 381.016 290.907 368.715 276.444L373.285 272.556Z" fill="#4B90F3"/>
<path d="M975 149L992.321 179H957.679L975 149ZM972 276V176H978V276H972Z" fill="#4B90F3"/>
<path d="M195 149L212.321 179H177.679L195 149ZM192 276V176H198V276H192Z" fill="#4B90F3"/>
<path d="M604.227 851.293L602.026 849.254L604.227 851.293ZM574.95 855.442L576.657 852.975L574.95 855.442ZM571.572 809.209L546.562 833.178L579.825 842.853L571.572 809.209ZM593.373 809.023C598.991 815.177 603.551 822.923 605.44 830.362C607.326 837.792 606.469 844.458 602.026 849.254L606.427 853.332C612.736 846.522 613.438 837.481 611.255 828.886C609.076 820.299 603.941 811.7 597.804 804.977L593.373 809.023ZM602.026 849.254C597.673 853.951 592.993 855.962 588.666 856.31C584.293 856.662 580.063 855.331 576.657 852.975L573.243 857.909C577.663 860.967 583.25 862.765 589.147 862.291C595.091 861.813 601.136 859.043 606.427 853.332L602.026 849.254ZM576.657 852.975C571.55 849.443 567.409 843.486 567.029 835L561.035 835.268C561.506 845.777 566.722 853.399 573.243 857.909L576.657 852.975Z" fill="#4B90F3"/>
<rect x="473" y="716" width="223" height="90" rx="45" stroke="#4B90F3" stroke-width="6"/>
<path d="M513.176 748.576C512.088 748.576 511.288 748.32 510.776 747.808C510.296 747.296 510.056 746.64 510.056 745.84V745.024C510.056 744.224 510.296 743.568 510.776 743.056C511.288 742.544 512.088 742.288 513.176 742.288C514.264 742.288 515.048 742.544 515.528 743.056C516.008 743.568 516.248 744.224 516.248 745.024V745.84C516.248 746.64 516.008 747.296 515.528 747.808C515.048 748.32 514.264 748.576 513.176 748.576ZM510.536 753.04H515.768V778H510.536V753.04ZM522.759 778V753.04H527.991V757.168H528.231C528.775 755.824 529.591 754.704 530.679 753.808C531.799 752.912 533.319 752.464 535.239 752.464C537.799 752.464 539.783 753.312 541.191 755.008C542.631 756.672 543.351 759.056 543.351 762.16V778H538.119V762.832C538.119 758.928 536.551 756.976 533.415 756.976C532.743 756.976 532.071 757.072 531.399 757.264C530.759 757.424 530.183 757.68 529.671 758.032C529.159 758.384 528.743 758.832 528.423 759.376C528.135 759.92 527.991 760.56 527.991 761.296V778H522.759ZM572.01 780.352C572.01 782.944 571.018 784.896 569.034 786.208C567.05 787.52 563.818 788.176 559.338 788.176C557.29 788.176 555.546 788.032 554.106 787.744C552.698 787.488 551.53 787.104 550.602 786.592C549.706 786.08 549.05 785.456 548.634 784.72C548.218 783.984 548.01 783.136 548.01 782.176C548.01 780.8 548.378 779.728 549.114 778.96C549.882 778.192 550.938 777.664 552.282 777.376V776.848C550.394 776.24 549.45 774.96 549.45 773.008C549.45 771.728 549.882 770.752 550.746 770.08C551.61 769.376 552.65 768.88 553.866 768.592V768.4C552.394 767.696 551.258 766.72 550.458 765.472C549.69 764.192 549.306 762.704 549.306 761.008C549.306 758.448 550.154 756.384 551.85 754.816C553.578 753.248 556.042 752.464 559.242 752.464C561.002 752.464 562.506 752.72 563.754 753.232V752.56C563.754 751.44 564.01 750.576 564.522 749.968C565.066 749.328 565.898 749.008 567.018 749.008H570.858V753.232H565.77V754.24C566.89 754.976 567.754 755.936 568.362 757.12C568.97 758.272 569.274 759.568 569.274 761.008C569.274 763.536 568.41 765.584 566.682 767.152C564.954 768.688 562.49 769.456 559.29 769.456C558.074 769.456 556.986 769.328 556.026 769.072C555.386 769.296 554.826 769.616 554.346 770.032C553.866 770.416 553.626 770.928 553.626 771.568C553.626 772.24 553.93 772.72 554.538 773.008C555.146 773.296 556.01 773.44 557.13 773.44H563.274C566.346 773.44 568.57 774.064 569.946 775.312C571.322 776.528 572.01 778.208 572.01 780.352ZM567.114 780.928C567.114 780.064 566.778 779.376 566.106 778.864C565.466 778.352 564.282 778.096 562.554 778.096H554.106C552.954 778.768 552.378 779.728 552.378 780.976C552.378 782 552.778 782.816 553.578 783.424C554.41 784.064 555.802 784.384 557.754 784.384H561.018C565.082 784.384 567.114 783.232 567.114 780.928ZM559.29 765.664C560.826 765.664 562.01 765.328 562.842 764.656C563.706 763.952 564.138 762.88 564.138 761.44V760.48C564.138 759.04 563.706 757.984 562.842 757.312C562.01 756.608 560.826 756.256 559.29 756.256C557.754 756.256 556.554 756.608 555.69 757.312C554.858 757.984 554.442 759.04 554.442 760.48V761.44C554.442 762.88 554.858 763.952 555.69 764.656C556.554 765.328 557.754 765.664 559.29 765.664ZM575.424 778V753.04H580.656V757.84H580.896C581.248 756.56 581.984 755.44 583.104 754.48C584.224 753.52 585.776 753.04 587.76 753.04H589.152V758.08H587.088C585.008 758.08 583.408 758.416 582.288 759.088C581.2 759.76 580.656 760.752 580.656 762.064V778H575.424ZM602.876 778.576C601.084 778.576 599.484 778.272 598.076 777.664C596.668 777.056 595.468 776.192 594.476 775.072C593.484 773.92 592.716 772.544 592.172 770.944C591.66 769.312 591.404 767.504 591.404 765.52C591.404 763.536 591.66 761.744 592.172 760.144C592.716 758.512 593.484 757.136 594.476 756.016C595.468 754.864 596.668 753.984 598.076 753.376C599.484 752.768 601.084 752.464 602.876 752.464C604.7 752.464 606.3 752.784 607.676 753.424C609.084 754.064 610.252 754.96 611.18 756.112C612.108 757.232 612.796 758.544 613.244 760.048C613.724 761.552 613.964 763.168 613.964 764.896V766.864H596.828V767.68C596.828 769.6 597.388 771.184 598.508 772.432C599.66 773.648 601.292 774.256 603.404 774.256C604.94 774.256 606.236 773.92 607.292 773.248C608.348 772.576 609.244 771.664 609.98 770.512L613.052 773.536C612.124 775.072 610.78 776.304 609.02 777.232C607.26 778.128 605.212 778.576 602.876 778.576ZM602.876 756.544C601.98 756.544 601.148 756.704 600.38 757.024C599.644 757.344 599.004 757.792 598.46 758.368C597.948 758.944 597.548 759.632 597.26 760.432C596.972 761.232 596.828 762.112 596.828 763.072V763.408H608.444V762.928C608.444 761.008 607.948 759.472 606.956 758.32C605.964 757.136 604.604 756.544 602.876 756.544ZM627.196 778.576C624.828 778.576 622.844 778.16 621.244 777.328C619.644 776.496 618.252 775.344 617.068 773.872L620.428 770.8C621.356 771.92 622.38 772.8 623.5 773.44C624.652 774.048 625.98 774.352 627.484 774.352C629.02 774.352 630.156 774.064 630.892 773.488C631.66 772.88 632.044 772.048 632.044 770.992C632.044 770.192 631.772 769.52 631.228 768.976C630.716 768.4 629.804 768.032 628.492 767.872L626.188 767.584C623.628 767.264 621.612 766.528 620.14 765.376C618.7 764.192 617.98 762.448 617.98 760.144C617.98 758.928 618.204 757.856 618.652 756.928C619.1 755.968 619.724 755.168 620.524 754.528C621.356 753.856 622.332 753.344 623.452 752.992C624.604 752.64 625.868 752.464 627.244 752.464C629.484 752.464 631.308 752.816 632.716 753.52C634.156 754.224 635.436 755.2 636.556 756.448L633.34 759.52C632.7 758.752 631.852 758.096 630.796 757.552C629.772 756.976 628.588 756.688 627.244 756.688C625.804 756.688 624.732 756.976 624.028 757.552C623.356 758.128 623.02 758.88 623.02 759.808C623.02 760.768 623.324 761.488 623.932 761.968C624.54 762.448 625.516 762.8 626.86 763.024L629.164 763.312C631.916 763.728 633.916 764.544 635.164 765.76C636.444 766.944 637.084 768.544 637.084 770.56C637.084 771.776 636.844 772.88 636.364 773.872C635.916 774.832 635.26 775.664 634.396 776.368C633.532 777.072 632.492 777.616 631.276 778C630.06 778.384 628.7 778.576 627.196 778.576ZM650.154 778.576C647.786 778.576 645.802 778.16 644.202 777.328C642.602 776.496 641.21 775.344 640.026 773.872L643.386 770.8C644.314 771.92 645.338 772.8 646.458 773.44C647.61 774.048 648.938 774.352 650.442 774.352C651.978 774.352 653.114 774.064 653.85 773.488C654.618 772.88 655.002 772.048 655.002 770.992C655.002 770.192 654.73 769.52 654.186 768.976C653.674 768.4 652.762 768.032 651.45 767.872L649.146 767.584C646.586 767.264 644.57 766.528 643.098 765.376C641.658 764.192 640.938 762.448 640.938 760.144C640.938 758.928 641.162 757.856 641.61 756.928C642.058 755.968 642.682 755.168 643.482 754.528C644.314 753.856 645.29 753.344 646.41 752.992C647.562 752.64 648.826 752.464 650.202 752.464C652.442 752.464 654.266 752.816 655.674 753.52C657.114 754.224 658.394 755.2 659.514 756.448L656.298 759.52C655.658 758.752 654.81 758.096 653.754 757.552C652.73 756.976 651.546 756.688 650.202 756.688C648.762 756.688 647.69 756.976 646.986 757.552C646.314 758.128 645.978 758.88 645.978 759.808C645.978 760.768 646.282 761.488 646.89 761.968C647.498 762.448 648.474 762.8 649.818 763.024L652.122 763.312C654.874 763.728 656.874 764.544 658.122 765.76C659.402 766.944 660.042 768.544 660.042 770.56C660.042 771.776 659.802 772.88 659.322 773.872C658.874 774.832 658.218 775.664 657.354 776.368C656.49 777.072 655.45 777.616 654.234 778C653.018 778.384 651.658 778.576 650.154 778.576Z" fill="#4B90F3"/>
<path d="M892.624 520.882L890.626 523.121L892.624 520.882ZM897.391 549.806L899.894 551.46L897.391 549.806ZM851.729 553.89L876.179 578.429L885.206 544.985L851.729 553.89ZM851.066 532.319C857.022 526.664 864.573 522.029 871.88 520.043C879.175 518.06 885.783 518.798 890.626 523.121L894.621 518.644C887.741 512.505 878.774 511.951 870.306 514.253C861.851 516.551 853.452 521.779 846.934 527.969L851.066 532.319ZM890.626 523.121C899.929 531.421 899.323 541.441 894.888 548.152L899.894 551.46C905.817 542.498 906.35 529.11 894.621 518.644L890.626 523.121ZM894.888 548.152C891.548 553.205 885.838 557.361 877.589 557.933L878.004 563.918C888.263 563.207 895.608 557.945 899.894 551.46L894.888 548.152Z" fill="#4B90F3"/>
<rect x="760" y="496" width="90" height="90" rx="45" stroke="#4B90F3" stroke-width="6"/>
<path d="M806.493 558.576C802.109 558.576 798.669 557.104 796.173 554.16C793.677 551.184 792.429 546.88 792.429 541.248C792.429 538.432 792.749 535.952 793.389 533.808C794.029 531.664 794.957 529.856 796.173 528.384C797.389 526.912 798.861 525.808 800.589 525.072C802.349 524.304 804.317 523.92 806.493 523.92C809.405 523.92 811.837 524.56 813.789 525.84C815.773 527.12 817.325 529.008 818.445 531.504L813.885 534C813.309 532.4 812.413 531.136 811.197 530.208C810.013 529.248 808.445 528.768 806.493 528.768C803.901 528.768 801.869 529.648 800.397 531.408C798.925 533.168 798.189 535.6 798.189 538.704V543.792C798.189 546.896 798.925 549.328 800.397 551.088C801.869 552.848 803.901 553.728 806.493 553.728C808.509 553.728 810.141 553.216 811.389 552.192C812.669 551.136 813.613 549.792 814.221 548.16L818.589 550.8C817.469 553.232 815.901 555.136 813.885 556.512C811.869 557.888 809.405 558.576 806.493 558.576Z" fill="#4B90F3"/>
<path d="M672.624 520.882L670.626 523.121L672.624 520.882ZM677.391 549.806L679.894 551.46L677.391 549.806ZM631.729 553.89L656.179 578.429L665.206 544.985L631.729 553.89ZM631.066 532.319C637.022 526.664 644.573 522.029 651.88 520.043C659.175 518.06 665.783 518.798 670.626 523.121L674.621 518.644C667.741 512.505 658.774 511.951 650.306 514.253C641.851 516.551 633.452 521.779 626.934 527.969L631.066 532.319ZM670.626 523.121C679.929 531.421 679.323 541.441 674.888 548.152L679.894 551.46C685.817 542.498 686.35 529.11 674.621 518.644L670.626 523.121ZM674.888 548.152C671.548 553.205 665.838 557.361 657.589 557.933L658.004 563.918C668.263 563.207 675.608 557.945 679.894 551.46L674.888 548.152Z" fill="#4B90F3"/>
<rect x="540" y="496" width="90" height="90" rx="45" stroke="#4B90F3" stroke-width="6"/>
<path d="M573.308 524.496H588.14C590.924 524.496 593.1 525.28 594.668 526.848C596.268 528.416 597.068 530.512 597.068 533.136C597.068 534.384 596.892 535.456 596.54 536.352C596.188 537.216 595.74 537.936 595.196 538.512C594.652 539.056 594.028 539.472 593.324 539.76C592.62 540.016 591.932 540.176 591.26 540.24V540.528C591.932 540.56 592.668 540.72 593.468 541.008C594.3 541.296 595.068 541.76 595.772 542.4C596.476 543.008 597.068 543.808 597.548 544.8C598.028 545.76 598.268 546.944 598.268 548.352C598.268 549.696 598.044 550.96 597.596 552.144C597.18 553.328 596.588 554.352 595.82 555.216C595.052 556.08 594.14 556.768 593.084 557.28C592.028 557.76 590.876 558 589.628 558H573.308V524.496ZM578.732 553.344H588.044C589.452 553.344 590.556 552.976 591.356 552.24C592.156 551.504 592.556 550.448 592.556 549.072V547.44C592.556 546.064 592.156 545.008 591.356 544.272C590.556 543.536 589.452 543.168 588.044 543.168H578.732V553.344ZM578.732 538.656H587.132C588.476 538.656 589.516 538.32 590.252 537.648C590.988 536.944 591.356 535.952 591.356 534.672V533.136C591.356 531.856 590.988 530.88 590.252 530.208C589.516 529.504 588.476 529.152 587.132 529.152H578.732V538.656Z" fill="#4B90F3"/>
<path d="M452.624 520.882L450.626 523.121L452.624 520.882ZM457.391 549.806L459.894 551.46L457.391 549.806ZM411.729 553.89L436.179 578.429L445.206 544.985L411.729 553.89ZM411.066 532.319C417.022 526.664 424.573 522.029 431.88 520.043C439.175 518.06 445.783 518.798 450.626 523.121L454.621 518.644C447.741 512.505 438.774 511.951 430.306 514.253C421.851 516.551 413.452 521.779 406.934 527.969L411.066 532.319ZM450.626 523.121C459.929 531.421 459.323 541.441 454.888 548.152L459.894 551.46C465.817 542.498 466.35 529.11 454.621 518.644L450.626 523.121ZM454.888 548.152C451.548 553.205 445.838 557.361 437.589 557.933L438.004 563.918C448.263 563.207 455.608 557.945 459.894 551.46L454.888 548.152Z" fill="#4B90F3"/>
<rect x="320" y="496" width="90" height="90" rx="45" stroke="#4B90F3" stroke-width="6"/>
<path d="M374.165 558L371.141 548.928H358.613L355.685 558H350.165L361.589 524.496H368.405L379.829 558H374.165ZM364.997 529.488H364.757L359.909 544.272H369.797L364.997 529.488Z" fill="#4B90F3"/>
<path d="M565.222 232.017L567.402 234.079L565.222 232.017ZM594.9 227.897L593.217 230.38L594.9 227.897ZM598.324 273.806L623.422 249.93L590.196 240.132L598.324 273.806ZM576.174 273.955C570.478 267.842 565.86 260.155 563.949 252.782C562.042 245.425 562.906 238.832 567.402 234.079L563.043 229.956C556.639 236.726 555.923 245.73 558.141 254.287C560.354 262.827 565.564 271.37 571.784 278.045L576.174 273.955ZM567.402 234.079C576.061 224.924 586.367 225.739 593.217 230.38L596.583 225.413C587.566 219.303 573.936 218.439 563.043 229.956L567.402 234.079ZM593.217 230.38C598.378 233.877 602.541 239.742 602.964 248.061L608.957 247.756C608.428 237.375 603.145 229.86 596.583 225.413L593.217 230.38Z" fill="#4B90F3"/>
<rect x="473" y="276" width="223" height="90" rx="45" stroke="#4B90F3" stroke-width="6"/>
<path d="M527.025 338.576C525.233 338.576 523.633 338.272 522.225 337.664C520.817 337.056 519.617 336.192 518.625 335.072C517.633 333.92 516.865 332.544 516.321 330.944C515.809 329.312 515.553 327.504 515.553 325.52C515.553 323.536 515.809 321.744 516.321 320.144C516.865 318.512 517.633 317.136 518.625 316.016C519.617 314.864 520.817 313.984 522.225 313.376C523.633 312.768 525.233 312.464 527.025 312.464C528.849 312.464 530.449 312.784 531.825 313.424C533.233 314.064 534.401 314.96 535.329 316.112C536.257 317.232 536.945 318.544 537.393 320.048C537.873 321.552 538.113 323.168 538.113 324.896V326.864H520.977V327.68C520.977 329.6 521.537 331.184 522.657 332.432C523.809 333.648 525.441 334.256 527.553 334.256C529.089 334.256 530.385 333.92 531.441 333.248C532.497 332.576 533.393 331.664 534.129 330.512L537.201 333.536C536.273 335.072 534.929 336.304 533.169 337.232C531.409 338.128 529.361 338.576 527.025 338.576ZM527.025 316.544C526.129 316.544 525.297 316.704 524.529 317.024C523.793 317.344 523.153 317.792 522.609 318.368C522.097 318.944 521.697 319.632 521.409 320.432C521.121 321.232 520.977 322.112 520.977 323.072V323.408H532.593V322.928C532.593 321.008 532.097 319.472 531.105 318.32C530.113 317.136 528.753 316.544 527.025 316.544ZM565.313 340.352C565.313 342.944 564.321 344.896 562.337 346.208C560.353 347.52 557.121 348.176 552.641 348.176C550.593 348.176 548.849 348.032 547.409 347.744C546.001 347.488 544.833 347.104 543.905 346.592C543.009 346.08 542.353 345.456 541.937 344.72C541.521 343.984 541.313 343.136 541.313 342.176C541.313 340.8 541.681 339.728 542.417 338.96C543.185 338.192 544.241 337.664 545.585 337.376V336.848C543.697 336.24 542.753 334.96 542.753 333.008C542.753 331.728 543.185 330.752 544.049 330.08C544.913 329.376 545.953 328.88 547.169 328.592V328.4C545.697 327.696 544.561 326.72 543.761 325.472C542.993 324.192 542.609 322.704 542.609 321.008C542.609 318.448 543.457 316.384 545.153 314.816C546.881 313.248 549.345 312.464 552.545 312.464C554.305 312.464 555.809 312.72 557.057 313.232V312.56C557.057 311.44 557.313 310.576 557.825 309.968C558.369 309.328 559.201 309.008 560.321 309.008H564.161V313.232H559.073V314.24C560.193 314.976 561.057 315.936 561.665 317.12C562.273 318.272 562.577 319.568 562.577 321.008C562.577 323.536 561.713 325.584 559.985 327.152C558.257 328.688 555.793 329.456 552.593 329.456C551.377 329.456 550.289 329.328 549.329 329.072C548.689 329.296 548.129 329.616 547.649 330.032C547.169 330.416 546.929 330.928 546.929 331.568C546.929 332.24 547.233 332.72 547.841 333.008C548.449 333.296 549.313 333.44 550.433 333.44H556.577C559.649 333.44 561.873 334.064 563.249 335.312C564.625 336.528 565.313 338.208 565.313 340.352ZM560.417 340.928C560.417 340.064 560.081 339.376 559.409 338.864C558.769 338.352 557.585 338.096 555.857 338.096H547.409C546.257 338.768 545.681 339.728 545.681 340.976C545.681 342 546.081 342.816 546.881 343.424C547.713 344.064 549.105 344.384 551.057 344.384H554.321C558.385 344.384 560.417 343.232 560.417 340.928ZM552.593 325.664C554.129 325.664 555.313 325.328 556.145 324.656C557.009 323.952 557.441 322.88 557.441 321.44V320.48C557.441 319.04 557.009 317.984 556.145 317.312C555.313 316.608 554.129 316.256 552.593 316.256C551.057 316.256 549.857 316.608 548.993 317.312C548.161 317.984 547.745 319.04 547.745 320.48V321.44C547.745 322.88 548.161 323.952 548.993 324.656C549.857 325.328 551.057 325.664 552.593 325.664ZM568.726 338V313.04H573.958V317.84H574.198C574.55 316.56 575.286 315.44 576.406 314.48C577.526 313.52 579.078 313.04 581.062 313.04H582.454V318.08H580.39C578.31 318.08 576.71 318.416 575.59 319.088C574.502 319.76 573.958 320.752 573.958 322.064V338H568.726ZM596.179 338.576C594.387 338.576 592.787 338.272 591.379 337.664C589.971 337.056 588.771 336.192 587.779 335.072C586.787 333.92 586.019 332.544 585.475 330.944C584.963 329.312 584.707 327.504 584.707 325.52C584.707 323.536 584.963 321.744 585.475 320.144C586.019 318.512 586.787 317.136 587.779 316.016C588.771 314.864 589.971 313.984 591.379 313.376C592.787 312.768 594.387 312.464 596.179 312.464C598.003 312.464 599.603 312.784 600.979 313.424C602.387 314.064 603.555 314.96 604.483 316.112C605.411 317.232 606.099 318.544 606.547 320.048C607.027 321.552 607.267 323.168 607.267 324.896V326.864H590.131V327.68C590.131 329.6 590.691 331.184 591.811 332.432C592.963 333.648 594.595 334.256 596.707 334.256C598.243 334.256 599.539 333.92 600.595 333.248C601.651 332.576 602.547 331.664 603.283 330.512L606.355 333.536C605.427 335.072 604.083 336.304 602.323 337.232C600.563 338.128 598.515 338.576 596.179 338.576ZM596.179 316.544C595.283 316.544 594.451 316.704 593.683 317.024C592.947 317.344 592.307 317.792 591.763 318.368C591.251 318.944 590.851 319.632 590.563 320.432C590.275 321.232 590.131 322.112 590.131 323.072V323.408H601.747V322.928C601.747 321.008 601.251 319.472 600.259 318.32C599.267 317.136 597.907 316.544 596.179 316.544ZM620.499 338.576C618.131 338.576 616.147 338.16 614.547 337.328C612.947 336.496 611.555 335.344 610.371 333.872L613.731 330.8C614.659 331.92 615.683 332.8 616.803 333.44C617.955 334.048 619.283 334.352 620.787 334.352C622.323 334.352 623.459 334.064 624.195 333.488C624.963 332.88 625.347 332.048 625.347 330.992C625.347 330.192 625.075 329.52 624.531 328.976C624.019 328.4 623.107 328.032 621.795 327.872L619.491 327.584C616.931 327.264 614.915 326.528 613.443 325.376C612.003 324.192 611.283 322.448 611.283 320.144C611.283 318.928 611.507 317.856 611.955 316.928C612.403 315.968 613.027 315.168 613.827 314.528C614.659 313.856 615.635 313.344 616.755 312.992C617.907 312.64 619.171 312.464 620.547 312.464C622.787 312.464 624.611 312.816 626.019 313.52C627.459 314.224 628.739 315.2 629.859 316.448L626.643 319.52C626.003 318.752 625.155 318.096 624.099 317.552C623.075 316.976 621.891 316.688 620.547 316.688C619.107 316.688 618.035 316.976 617.331 317.552C616.659 318.128 616.323 318.88 616.323 319.808C616.323 320.768 616.627 321.488 617.235 321.968C617.843 322.448 618.819 322.8 620.163 323.024L622.467 323.312C625.219 323.728 627.219 324.544 628.467 325.76C629.747 326.944 630.387 328.544 630.387 330.56C630.387 331.776 630.147 332.88 629.667 333.872C629.219 334.832 628.563 335.664 627.699 336.368C626.835 337.072 625.795 337.616 624.579 338C623.363 338.384 622.003 338.576 620.499 338.576ZM643.456 338.576C641.088 338.576 639.104 338.16 637.504 337.328C635.904 336.496 634.512 335.344 633.328 333.872L636.688 330.8C637.616 331.92 638.64 332.8 639.76 333.44C640.912 334.048 642.24 334.352 643.744 334.352C645.28 334.352 646.416 334.064 647.152 333.488C647.92 332.88 648.304 332.048 648.304 330.992C648.304 330.192 648.032 329.52 647.488 328.976C646.976 328.4 646.064 328.032 644.752 327.872L642.448 327.584C639.888 327.264 637.872 326.528 636.4 325.376C634.96 324.192 634.24 322.448 634.24 320.144C634.24 318.928 634.464 317.856 634.912 316.928C635.36 315.968 635.984 315.168 636.784 314.528C637.616 313.856 638.592 313.344 639.712 312.992C640.864 312.64 642.128 312.464 643.504 312.464C645.744 312.464 647.568 312.816 648.976 313.52C650.416 314.224 651.696 315.2 652.816 316.448L649.6 319.52C648.96 318.752 648.112 318.096 647.056 317.552C646.032 316.976 644.848 316.688 643.504 316.688C642.064 316.688 640.992 316.976 640.288 317.552C639.616 318.128 639.28 318.88 639.28 319.808C639.28 320.768 639.584 321.488 640.192 321.968C640.8 322.448 641.776 322.8 643.12 323.024L645.424 323.312C648.176 323.728 650.176 324.544 651.424 325.76C652.704 326.944 653.344 328.544 653.344 330.56C653.344 331.776 653.104 332.88 652.624 333.872C652.176 334.832 651.52 335.664 650.656 336.368C649.792 337.072 648.752 337.616 647.536 338C646.32 338.384 644.96 338.576 643.456 338.576Z" fill="#4B90F3"/>
<path d="M1062.62 300.882L1060.63 303.121L1062.62 300.882ZM1067.39 329.806L1069.89 331.46L1067.39 329.806ZM1021.73 333.89L1046.18 358.429L1055.21 324.985L1021.73 333.89ZM1021.07 312.319C1027.02 306.664 1034.57 302.029 1041.88 300.043C1049.18 298.06 1055.78 298.798 1060.63 303.121L1064.62 298.644C1057.74 292.505 1048.77 291.951 1040.31 294.253C1031.85 296.551 1023.45 301.779 1016.93 307.969L1021.07 312.319ZM1060.63 303.121C1069.93 311.421 1069.32 321.441 1064.89 328.152L1069.89 331.46C1075.82 322.498 1076.35 309.11 1064.62 298.644L1060.63 303.121ZM1064.89 328.152C1061.55 333.205 1055.84 337.361 1047.59 337.933L1048 343.918C1058.26 343.207 1065.61 337.945 1069.89 331.46L1064.89 328.152Z" fill="#4B90F3"/>
<rect x="930" y="276" width="90" height="90" rx="45" stroke="#4B90F3" stroke-width="6"/>
<path d="M972.236 338V324.8L960.716 304.496H966.908L975.068 319.424H975.212L983.324 304.496H989.276L977.66 324.704V338H972.236Z" fill="#4B90F3"/>
<path d="M282.624 300.882L280.626 303.121L282.624 300.882ZM287.391 329.806L289.894 331.46L287.391 329.806ZM241.729 333.89L266.179 358.429L275.206 324.985L241.729 333.89ZM241.066 312.319C247.022 306.664 254.573 302.029 261.88 300.043C269.175 298.06 275.783 298.798 280.626 303.121L284.621 298.644C277.741 292.505 268.774 291.951 260.306 294.253C251.851 296.551 243.452 301.779 236.934 307.969L241.066 312.319ZM280.626 303.121C289.929 311.421 289.323 321.441 284.888 328.152L289.894 331.46C295.817 322.498 296.35 309.11 284.621 298.644L280.626 303.121ZM284.888 328.152C281.548 333.205 275.838 337.361 267.589 337.933L268.004 343.918C278.263 343.207 285.608 337.945 289.894 331.46L284.888 328.152Z" fill="#4B90F3"/>
<rect x="150" y="276" width="90" height="90" rx="45" stroke="#4B90F3" stroke-width="6"/>
<path d="M209.336 338H202.952L194.84 324.656H194.696L186.68 338H180.68L191.528 320.864L181.064 304.496H187.448L195.08 316.976H195.176L202.904 304.496H208.904L198.344 320.816L209.336 338Z" fill="#4B90F3"/>
<path d="M882.222 12.0173L884.402 14.0788L882.222 12.0173ZM911.9 7.89685L910.217 10.3804L911.9 7.89685ZM915.324 53.8063L940.422 29.9297L907.196 20.1325L915.324 53.8063ZM893.174 53.9548C887.478 47.8422 882.86 40.1555 880.949 32.7819C879.042 25.4249 879.906 18.8317 884.402 14.0788L880.043 9.95576C873.639 16.7259 872.923 25.7303 875.141 34.2871C877.354 42.8273 882.564 51.3704 888.784 58.0452L893.174 53.9548ZM884.402 14.0788C893.061 4.92411 903.367 5.73867 910.217 10.3804L913.583 5.41332C904.566 -0.696577 890.936 -1.56119 880.043 9.95576L884.402 14.0788ZM910.217 10.3804C915.378 13.8771 919.541 19.7417 919.964 28.0609L925.957 27.7557C925.428 17.3749 920.145 9.85954 913.583 5.41332L910.217 10.3804Z" fill="#4B90F3"/>
<rect x="636" y="56" width="531" height="90" rx="45" stroke="#4B90F3" stroke-width="6"/>
<path d="M711.194 113.872H710.954C710.41 115.344 709.514 116.496 708.266 117.328C707.05 118.16 705.61 118.576 703.946 118.576C700.778 118.576 698.33 117.44 696.602 115.168C694.874 112.864 694.01 109.648 694.01 105.52C694.01 101.392 694.874 98.192 696.602 95.92C698.33 93.616 700.778 92.464 703.946 92.464C705.61 92.464 707.05 92.88 708.266 93.712C709.514 94.512 710.41 95.664 710.954 97.168H711.194V82.48H716.426V118H711.194V113.872ZM705.53 114.064C707.13 114.064 708.474 113.68 709.562 112.912C710.65 112.112 711.194 111.072 711.194 109.792V101.248C711.194 99.968 710.65 98.944 709.562 98.176C708.474 97.376 707.13 96.976 705.53 96.976C703.706 96.976 702.25 97.568 701.162 98.752C700.074 99.904 699.53 101.44 699.53 103.36V107.68C699.53 109.6 700.074 111.152 701.162 112.336C702.25 113.488 703.706 114.064 705.53 114.064ZM733.216 118.576C731.488 118.576 729.904 118.272 728.464 117.664C727.056 117.056 725.856 116.192 724.864 115.072C723.872 113.92 723.104 112.544 722.56 110.944C722.016 109.312 721.744 107.504 721.744 105.52C721.744 103.536 722.016 101.744 722.56 100.144C723.104 98.512 723.872 97.136 724.864 96.016C725.856 94.864 727.056 93.984 728.464 93.376C729.904 92.768 731.488 92.464 733.216 92.464C734.944 92.464 736.512 92.768 737.92 93.376C739.36 93.984 740.576 94.864 741.568 96.016C742.56 97.136 743.328 98.512 743.872 100.144C744.416 101.744 744.688 103.536 744.688 105.52C744.688 107.504 744.416 109.312 743.872 110.944C743.328 112.544 742.56 113.92 741.568 115.072C740.576 116.192 739.36 117.056 737.92 117.664C736.512 118.272 734.944 118.576 733.216 118.576ZM733.216 114.256C735.008 114.256 736.448 113.712 737.536 112.624C738.624 111.504 739.168 109.84 739.168 107.632V103.408C739.168 101.2 738.624 99.552 737.536 98.464C736.448 97.344 735.008 96.784 733.216 96.784C731.424 96.784 729.984 97.344 728.896 98.464C727.808 99.552 727.264 101.2 727.264 103.408V107.632C727.264 109.84 727.808 111.504 728.896 112.624C729.984 113.712 731.424 114.256 733.216 114.256ZM747.214 93.04H752.302L754.846 103.504L757.102 112.96H757.246L759.838 103.504L762.862 93.04H767.566L770.638 103.504L773.278 112.96H773.422L775.63 103.504L778.222 93.04H783.07L776.35 118H770.446L767.182 106.624L765.166 99.616H765.07L763.102 106.624L759.79 118H754.03L747.214 93.04ZM787.574 118V93.04H792.806V97.168H793.046C793.59 95.824 794.406 94.704 795.494 93.808C796.614 92.912 798.134 92.464 800.054 92.464C802.614 92.464 804.598 93.312 806.006 95.008C807.446 96.672 808.166 99.056 808.166 102.16V118H802.934V102.832C802.934 98.928 801.366 96.976 798.23 96.976C797.558 96.976 796.886 97.072 796.214 97.264C795.574 97.424 794.998 97.68 794.486 98.032C793.974 98.384 793.558 98.832 793.238 99.376C792.95 99.92 792.806 100.56 792.806 101.296V118H787.574ZM822.857 118.576C820.489 118.576 818.505 118.16 816.905 117.328C815.305 116.496 813.913 115.344 812.729 113.872L816.089 110.8C817.017 111.92 818.041 112.8 819.161 113.44C820.313 114.048 821.641 114.352 823.145 114.352C824.681 114.352 825.817 114.064 826.553 113.488C827.321 112.88 827.705 112.048 827.705 110.992C827.705 110.192 827.433 109.52 826.889 108.976C826.377 108.4 825.465 108.032 824.153 107.872L821.849 107.584C819.289 107.264 817.273 106.528 815.801 105.376C814.361 104.192 813.641 102.448 813.641 100.144C813.641 98.928 813.865 97.856 814.313 96.928C814.761 95.968 815.385 95.168 816.185 94.528C817.017 93.856 817.993 93.344 819.113 92.992C820.265 92.64 821.529 92.464 822.905 92.464C825.145 92.464 826.969 92.816 828.377 93.52C829.817 94.224 831.097 95.2 832.217 96.448L829.001 99.52C828.361 98.752 827.513 98.096 826.457 97.552C825.433 96.976 824.249 96.688 822.905 96.688C821.465 96.688 820.393 96.976 819.689 97.552C819.017 98.128 818.681 98.88 818.681 99.808C818.681 100.768 818.985 101.488 819.593 101.968C820.201 102.448 821.177 102.8 822.521 103.024L824.825 103.312C827.577 103.728 829.577 104.544 830.825 105.76C832.105 106.944 832.745 108.544 832.745 110.56C832.745 111.776 832.505 112.88 832.025 113.872C831.577 114.832 830.921 115.664 830.057 116.368C829.193 117.072 828.153 117.616 826.937 118C825.721 118.384 824.361 118.576 822.857 118.576ZM844.76 118C842.936 118 841.56 117.536 840.632 116.608C839.704 115.648 839.24 114.304 839.24 112.576V97.312H835.352V93.04H837.464C838.328 93.04 838.92 92.848 839.24 92.464C839.592 92.08 839.768 91.456 839.768 90.592V86.224H844.472V93.04H849.704V97.312H844.472V113.728H849.32V118H844.76ZM854.899 118V93.04H860.131V97.84H860.371C860.723 96.56 861.459 95.44 862.579 94.48C863.699 93.52 865.251 93.04 867.235 93.04H868.627V98.08H866.563C864.483 98.08 862.883 98.416 861.763 99.088C860.675 99.76 860.131 100.752 860.131 102.064V118H854.899ZM882.352 118.576C880.56 118.576 878.96 118.272 877.552 117.664C876.144 117.056 874.944 116.192 873.952 115.072C872.96 113.92 872.192 112.544 871.648 110.944C871.136 109.312 870.88 107.504 870.88 105.52C870.88 103.536 871.136 101.744 871.648 100.144C872.192 98.512 872.96 97.136 873.952 96.016C874.944 94.864 876.144 93.984 877.552 93.376C878.96 92.768 880.56 92.464 882.352 92.464C884.176 92.464 885.776 92.784 887.152 93.424C888.56 94.064 889.728 94.96 890.656 96.112C891.584 97.232 892.272 98.544 892.72 100.048C893.2 101.552 893.44 103.168 893.44 104.896V106.864H876.304V107.68C876.304 109.6 876.864 111.184 877.984 112.432C879.136 113.648 880.768 114.256 882.88 114.256C884.416 114.256 885.712 113.92 886.768 113.248C887.824 112.576 888.72 111.664 889.456 110.512L892.528 113.536C891.6 115.072 890.256 116.304 888.496 117.232C886.736 118.128 884.688 118.576 882.352 118.576ZM882.352 96.544C881.456 96.544 880.624 96.704 879.856 97.024C879.12 97.344 878.48 97.792 877.936 98.368C877.424 98.944 877.024 99.632 876.736 100.432C876.448 101.232 876.304 102.112 876.304 103.072V103.408H887.92V102.928C887.92 101.008 887.424 99.472 886.432 98.32C885.44 97.136 884.08 96.544 882.352 96.544ZM917.04 118C915.664 118 914.608 117.616 913.872 116.848C913.136 116.048 912.688 115.04 912.528 113.824H912.288C911.808 115.392 910.928 116.576 909.648 117.376C908.368 118.176 906.816 118.576 904.992 118.576C902.4 118.576 900.4 117.904 898.992 116.56C897.616 115.216 896.928 113.408 896.928 111.136C896.928 108.64 897.824 106.768 899.616 105.52C901.44 104.272 904.096 103.648 907.584 103.648H912.096V101.536C912.096 100 911.68 98.816 910.848 97.984C910.016 97.152 908.72 96.736 906.96 96.736C905.488 96.736 904.288 97.056 903.36 97.696C902.432 98.336 901.648 99.152 901.008 100.144L897.888 97.312C898.72 95.904 899.888 94.752 901.392 93.856C902.896 92.928 904.864 92.464 907.296 92.464C910.528 92.464 913.008 93.216 914.736 94.72C916.464 96.224 917.328 98.384 917.328 101.2V113.728H919.968V118H917.04ZM906.48 114.592C908.112 114.592 909.456 114.24 910.512 113.536C911.568 112.8 912.096 111.824 912.096 110.608V107.008H907.68C904.064 107.008 902.256 108.128 902.256 110.368V111.232C902.256 112.352 902.624 113.2 903.36 113.776C904.128 114.32 905.168 114.592 906.48 114.592ZM924.616 118V93.04H929.848V97.168H930.088C930.344 96.528 930.648 95.92 931 95.344C931.384 94.768 931.832 94.272 932.344 93.856C932.888 93.408 933.512 93.072 934.216 92.848C934.952 92.592 935.8 92.464 936.76 92.464C938.456 92.464 939.96 92.88 941.272 93.712C942.584 94.544 943.544 95.824 944.152 97.552H944.296C944.744 96.144 945.608 94.944 946.888 93.952C948.168 92.96 949.816 92.464 951.832 92.464C954.328 92.464 956.264 93.312 957.64 95.008C959.016 96.672 959.704 99.056 959.704 102.16V118H954.472V102.784C954.472 100.864 954.104 99.424 953.368 98.464C952.632 97.472 951.464 96.976 949.864 96.976C949.192 96.976 948.552 97.072 947.944 97.264C947.336 97.424 946.792 97.68 946.312 98.032C945.864 98.384 945.496 98.832 945.208 99.376C944.92 99.92 944.776 100.544 944.776 101.248V118H939.544V102.784C939.544 98.912 938.024 96.976 934.984 96.976C934.344 96.976 933.704 97.072 933.064 97.264C932.456 97.424 931.912 97.68 931.432 98.032C930.952 98.384 930.568 98.832 930.28 99.376C929.992 99.92 929.848 100.544 929.848 101.248V118H924.616ZM977.327 82.48H982.559V97.168H982.799C983.343 95.664 984.223 94.512 985.439 93.712C986.687 92.88 988.143 92.464 989.807 92.464C992.975 92.464 995.423 93.616 997.151 95.92C998.879 98.192 999.743 101.392 999.743 105.52C999.743 109.648 998.879 112.864 997.151 115.168C995.423 117.44 992.975 118.576 989.807 118.576C988.143 118.576 986.687 118.16 985.439 117.328C984.223 116.496 983.343 115.344 982.799 113.872H982.559V118H977.327V82.48ZM988.223 114.064C990.047 114.064 991.503 113.488 992.591 112.336C993.679 111.152 994.223 109.6 994.223 107.68V103.36C994.223 101.44 993.679 99.904 992.591 98.752C991.503 97.568 990.047 96.976 988.223 96.976C986.623 96.976 985.279 97.376 984.191 98.176C983.103 98.944 982.559 99.968 982.559 101.248V109.792C982.559 111.072 983.103 112.112 984.191 112.912C985.279 113.68 986.623 114.064 988.223 114.064ZM1005.25 118V93.04H1010.49V97.84H1010.73C1011.08 96.56 1011.81 95.44 1012.93 94.48C1014.05 93.52 1015.61 93.04 1017.59 93.04H1018.98V98.08H1016.92C1014.84 98.08 1013.24 98.416 1012.12 99.088C1011.03 99.76 1010.49 100.752 1010.49 102.064V118H1005.25ZM1025.79 88.576C1024.7 88.576 1023.9 88.32 1023.39 87.808C1022.91 87.296 1022.67 86.64 1022.67 85.84V85.024C1022.67 84.224 1022.91 83.568 1023.39 83.056C1023.9 82.544 1024.7 82.288 1025.79 82.288C1026.88 82.288 1027.66 82.544 1028.14 83.056C1028.62 83.568 1028.86 84.224 1028.86 85.024V85.84C1028.86 86.64 1028.62 87.296 1028.14 87.808C1027.66 88.32 1026.88 88.576 1025.79 88.576ZM1023.15 93.04H1028.38V118H1023.15V93.04ZM1051.07 113.872H1050.83C1050.28 115.344 1049.39 116.496 1048.14 117.328C1046.92 118.16 1045.48 118.576 1043.82 118.576C1040.65 118.576 1038.2 117.44 1036.48 115.168C1034.75 112.864 1033.88 109.648 1033.88 105.52C1033.88 101.392 1034.75 98.192 1036.48 95.92C1038.2 93.616 1040.65 92.464 1043.82 92.464C1045.48 92.464 1046.92 92.88 1048.14 93.712C1049.39 94.512 1050.28 95.664 1050.83 97.168H1051.07V82.48H1056.3V118H1051.07V113.872ZM1045.4 114.064C1047 114.064 1048.35 113.68 1049.44 112.912C1050.52 112.112 1051.07 111.072 1051.07 109.792V101.248C1051.07 99.968 1050.52 98.944 1049.44 98.176C1048.35 97.376 1047 96.976 1045.4 96.976C1043.58 96.976 1042.12 97.568 1041.04 98.752C1039.95 99.904 1039.4 101.44 1039.4 103.36V107.68C1039.4 109.6 1039.95 111.152 1041.04 112.336C1042.12 113.488 1043.58 114.064 1045.4 114.064ZM1085.19 120.352C1085.19 122.944 1084.19 124.896 1082.21 126.208C1080.23 127.52 1076.99 128.176 1072.51 128.176C1070.47 128.176 1068.72 128.032 1067.28 127.744C1065.87 127.488 1064.71 127.104 1063.78 126.592C1062.88 126.08 1062.23 125.456 1061.81 124.72C1061.39 123.984 1061.19 123.136 1061.19 122.176C1061.19 120.8 1061.55 119.728 1062.29 118.96C1063.06 118.192 1064.11 117.664 1065.46 117.376V116.848C1063.57 116.24 1062.63 114.96 1062.63 113.008C1062.63 111.728 1063.06 110.752 1063.92 110.08C1064.79 109.376 1065.83 108.88 1067.04 108.592V108.4C1065.57 107.696 1064.43 106.72 1063.63 105.472C1062.87 104.192 1062.48 102.704 1062.48 101.008C1062.48 98.448 1063.33 96.384 1065.03 94.816C1066.75 93.248 1069.22 92.464 1072.42 92.464C1074.18 92.464 1075.68 92.72 1076.93 93.232V92.56C1076.93 91.44 1077.19 90.576 1077.7 89.968C1078.24 89.328 1079.07 89.008 1080.19 89.008H1084.03V93.232H1078.95V94.24C1080.07 94.976 1080.93 95.936 1081.54 97.12C1082.15 98.272 1082.45 99.568 1082.45 101.008C1082.45 103.536 1081.59 105.584 1079.86 107.152C1078.13 108.688 1075.67 109.456 1072.47 109.456C1071.25 109.456 1070.16 109.328 1069.2 109.072C1068.56 109.296 1068 109.616 1067.52 110.032C1067.04 110.416 1066.8 110.928 1066.8 111.568C1066.8 112.24 1067.11 112.72 1067.71 113.008C1068.32 113.296 1069.19 113.44 1070.31 113.44H1076.45C1079.52 113.44 1081.75 114.064 1083.12 115.312C1084.5 116.528 1085.19 118.208 1085.19 120.352ZM1080.29 120.928C1080.29 120.064 1079.95 119.376 1079.28 118.864C1078.64 118.352 1077.46 118.096 1075.73 118.096H1067.28C1066.13 118.768 1065.55 119.728 1065.55 120.976C1065.55 122 1065.95 122.816 1066.75 123.424C1067.59 124.064 1068.98 124.384 1070.93 124.384H1074.19C1078.26 124.384 1080.29 123.232 1080.29 120.928ZM1072.47 105.664C1074 105.664 1075.19 105.328 1076.02 104.656C1076.88 103.952 1077.31 102.88 1077.31 101.44V100.48C1077.31 99.04 1076.88 97.984 1076.02 97.312C1075.19 96.608 1074 96.256 1072.47 96.256C1070.93 96.256 1069.73 96.608 1068.87 97.312C1068.03 97.984 1067.62 99.04 1067.62 100.48V101.44C1067.62 102.88 1068.03 103.952 1068.87 104.656C1069.73 105.328 1070.93 105.664 1072.47 105.664ZM1098.11 118.576C1096.32 118.576 1094.72 118.272 1093.31 117.664C1091.9 117.056 1090.7 116.192 1089.71 115.072C1088.72 113.92 1087.95 112.544 1087.41 110.944C1086.89 109.312 1086.64 107.504 1086.64 105.52C1086.64 103.536 1086.89 101.744 1087.41 100.144C1087.95 98.512 1088.72 97.136 1089.71 96.016C1090.7 94.864 1091.9 93.984 1093.31 93.376C1094.72 92.768 1096.32 92.464 1098.11 92.464C1099.93 92.464 1101.53 92.784 1102.91 93.424C1104.32 94.064 1105.49 94.96 1106.41 96.112C1107.34 97.232 1108.03 98.544 1108.48 100.048C1108.96 101.552 1109.2 103.168 1109.2 104.896V106.864H1092.06V107.68C1092.06 109.6 1092.62 111.184 1093.74 112.432C1094.89 113.648 1096.53 114.256 1098.64 114.256C1100.17 114.256 1101.47 113.92 1102.53 113.248C1103.58 112.576 1104.48 111.664 1105.21 110.512L1108.29 113.536C1107.36 115.072 1106.01 116.304 1104.25 117.232C1102.49 118.128 1100.45 118.576 1098.11 118.576ZM1098.11 96.544C1097.21 96.544 1096.38 96.704 1095.61 97.024C1094.88 97.344 1094.24 97.792 1093.69 98.368C1093.18 98.944 1092.78 99.632 1092.49 100.432C1092.21 101.232 1092.06 102.112 1092.06 103.072V103.408H1103.68V102.928C1103.68 101.008 1103.18 99.472 1102.19 98.32C1101.2 97.136 1099.84 96.544 1098.11 96.544Z" fill="#4B90F3"/>
<path d="M249.222 12.0173L251.402 14.0788L249.222 12.0173ZM278.9 7.89685L277.217 10.3804L278.9 7.89685ZM282.324 53.8063L307.422 29.9297L274.196 20.1325L282.324 53.8063ZM260.174 53.9548C254.478 47.8422 249.86 40.1555 247.949 32.7819C246.042 25.4249 246.906 18.8317 251.402 14.0788L247.043 9.95576C240.639 16.7259 239.923 25.7303 242.141 34.2871C244.354 42.8273 249.564 51.3704 255.784 58.0452L260.174 53.9548ZM251.402 14.0788C260.061 4.92411 270.367 5.73867 277.217 10.3804L280.583 5.41332C271.566 -0.696577 257.936 -1.56119 247.043 9.95576L251.402 14.0788ZM277.217 10.3804C282.378 13.8771 286.541 19.7417 286.964 28.0609L292.957 27.7557C292.428 17.3749 287.145 9.85954 280.583 5.41332L277.217 10.3804Z" fill="#4B90F3"/>
<rect x="3" y="56" width="531" height="90" rx="45" stroke="#4B90F3" stroke-width="6"/>
<path d="M109.693 113.872H109.501C109.277 114.48 108.973 115.072 108.589 115.648C108.237 116.224 107.773 116.736 107.197 117.184C106.653 117.6 105.981 117.936 105.181 118.192C104.413 118.448 103.517 118.576 102.493 118.576C99.9008 118.576 97.8848 117.744 96.4448 116.08C95.0368 114.416 94.3328 112.032 94.3328 108.928V93.04H99.5648V108.256C99.5648 112.128 101.165 114.064 104.365 114.064C105.037 114.064 105.693 113.984 106.333 113.824C106.973 113.632 107.533 113.36 108.013 113.008C108.525 112.656 108.925 112.208 109.213 111.664C109.533 111.12 109.693 110.48 109.693 109.744V93.04H114.925V118H109.693V113.872ZM121.937 93.04H127.169V97.168H127.409C127.953 95.664 128.833 94.512 130.049 93.712C131.297 92.88 132.753 92.464 134.417 92.464C137.585 92.464 140.033 93.616 141.761 95.92C143.489 98.192 144.353 101.392 144.353 105.52C144.353 109.648 143.489 112.864 141.761 115.168C140.033 117.44 137.585 118.576 134.417 118.576C132.753 118.576 131.297 118.16 130.049 117.328C128.833 116.496 127.953 115.344 127.409 113.872H127.169V127.6H121.937V93.04ZM132.833 114.064C134.657 114.064 136.113 113.488 137.201 112.336C138.289 111.152 138.833 109.6 138.833 107.68V103.36C138.833 101.44 138.289 99.904 137.201 98.752C136.113 97.568 134.657 96.976 132.833 96.976C131.233 96.976 129.889 97.376 128.801 98.176C127.713 98.944 127.169 99.968 127.169 101.248V109.792C127.169 111.072 127.713 112.112 128.801 112.912C129.889 113.68 131.233 114.064 132.833 114.064ZM157.783 118.576C155.415 118.576 153.431 118.16 151.831 117.328C150.231 116.496 148.839 115.344 147.655 113.872L151.015 110.8C151.943 111.92 152.967 112.8 154.087 113.44C155.239 114.048 156.567 114.352 158.071 114.352C159.607 114.352 160.743 114.064 161.479 113.488C162.247 112.88 162.631 112.048 162.631 110.992C162.631 110.192 162.359 109.52 161.815 108.976C161.303 108.4 160.391 108.032 159.079 107.872L156.775 107.584C154.215 107.264 152.199 106.528 150.727 105.376C149.287 104.192 148.567 102.448 148.567 100.144C148.567 98.928 148.791 97.856 149.239 96.928C149.687 95.968 150.311 95.168 151.111 94.528C151.943 93.856 152.919 93.344 154.039 92.992C155.191 92.64 156.455 92.464 157.831 92.464C160.071 92.464 161.895 92.816 163.303 93.52C164.743 94.224 166.023 95.2 167.143 96.448L163.927 99.52C163.287 98.752 162.439 98.096 161.383 97.552C160.359 96.976 159.175 96.688 157.831 96.688C156.391 96.688 155.319 96.976 154.615 97.552C153.943 98.128 153.607 98.88 153.607 99.808C153.607 100.768 153.911 101.488 154.519 101.968C155.127 102.448 156.103 102.8 157.447 103.024L159.751 103.312C162.503 103.728 164.503 104.544 165.751 105.76C167.031 106.944 167.671 108.544 167.671 110.56C167.671 111.776 167.431 112.88 166.951 113.872C166.503 114.832 165.847 115.664 164.983 116.368C164.119 117.072 163.079 117.616 161.863 118C160.647 118.384 159.287 118.576 157.783 118.576ZM179.685 118C177.861 118 176.485 117.536 175.557 116.608C174.629 115.648 174.165 114.304 174.165 112.576V97.312H170.277V93.04H172.389C173.253 93.04 173.845 92.848 174.165 92.464C174.517 92.08 174.693 91.456 174.693 90.592V86.224H179.397V93.04H184.629V97.312H179.397V113.728H184.245V118H179.685ZM189.825 118V93.04H195.057V97.84H195.297C195.649 96.56 196.385 95.44 197.505 94.48C198.625 93.52 200.177 93.04 202.161 93.04H203.553V98.08H201.489C199.409 98.08 197.809 98.416 196.689 99.088C195.601 99.76 195.057 100.752 195.057 102.064V118H189.825ZM217.277 118.576C215.485 118.576 213.885 118.272 212.477 117.664C211.069 117.056 209.869 116.192 208.877 115.072C207.885 113.92 207.117 112.544 206.573 110.944C206.061 109.312 205.805 107.504 205.805 105.52C205.805 103.536 206.061 101.744 206.573 100.144C207.117 98.512 207.885 97.136 208.877 96.016C209.869 94.864 211.069 93.984 212.477 93.376C213.885 92.768 215.485 92.464 217.277 92.464C219.101 92.464 220.701 92.784 222.077 93.424C223.485 94.064 224.653 94.96 225.581 96.112C226.509 97.232 227.197 98.544 227.645 100.048C228.125 101.552 228.365 103.168 228.365 104.896V106.864H211.229V107.68C211.229 109.6 211.789 111.184 212.909 112.432C214.061 113.648 215.693 114.256 217.805 114.256C219.341 114.256 220.637 113.92 221.693 113.248C222.749 112.576 223.645 111.664 224.381 110.512L227.453 113.536C226.525 115.072 225.181 116.304 223.421 117.232C221.661 118.128 219.613 118.576 217.277 118.576ZM217.277 96.544C216.381 96.544 215.549 96.704 214.781 97.024C214.045 97.344 213.405 97.792 212.861 98.368C212.349 98.944 211.949 99.632 211.661 100.432C211.373 101.232 211.229 102.112 211.229 103.072V103.408H222.845V102.928C222.845 101.008 222.349 99.472 221.357 98.32C220.365 97.136 219.005 96.544 217.277 96.544ZM251.965 118C250.589 118 249.533 117.616 248.797 116.848C248.061 116.048 247.613 115.04 247.453 113.824H247.213C246.733 115.392 245.853 116.576 244.573 117.376C243.293 118.176 241.741 118.576 239.917 118.576C237.325 118.576 235.325 117.904 233.917 116.56C232.541 115.216 231.853 113.408 231.853 111.136C231.853 108.64 232.749 106.768 234.541 105.52C236.365 104.272 239.021 103.648 242.509 103.648H247.021V101.536C247.021 100 246.605 98.816 245.773 97.984C244.941 97.152 243.645 96.736 241.885 96.736C240.413 96.736 239.213 97.056 238.285 97.696C237.357 98.336 236.573 99.152 235.933 100.144L232.813 97.312C233.645 95.904 234.813 94.752 236.317 93.856C237.821 92.928 239.789 92.464 242.221 92.464C245.453 92.464 247.933 93.216 249.661 94.72C251.389 96.224 252.253 98.384 252.253 101.2V113.728H254.893V118H251.965ZM241.405 114.592C243.037 114.592 244.381 114.24 245.437 113.536C246.493 112.8 247.021 111.824 247.021 110.608V107.008H242.605C238.989 107.008 237.181 108.128 237.181 110.368V111.232C237.181 112.352 237.549 113.2 238.285 113.776C239.053 114.32 240.093 114.592 241.405 114.592ZM259.541 118V93.04H264.773V97.168H265.013C265.269 96.528 265.573 95.92 265.925 95.344C266.309 94.768 266.757 94.272 267.269 93.856C267.813 93.408 268.437 93.072 269.141 92.848C269.877 92.592 270.725 92.464 271.685 92.464C273.381 92.464 274.885 92.88 276.197 93.712C277.509 94.544 278.469 95.824 279.077 97.552H279.221C279.669 96.144 280.533 94.944 281.813 93.952C283.093 92.96 284.741 92.464 286.757 92.464C289.253 92.464 291.189 93.312 292.565 95.008C293.941 96.672 294.629 99.056 294.629 102.16V118H289.397V102.784C289.397 100.864 289.029 99.424 288.293 98.464C287.557 97.472 286.389 96.976 284.789 96.976C284.117 96.976 283.477 97.072 282.869 97.264C282.261 97.424 281.717 97.68 281.237 98.032C280.789 98.384 280.421 98.832 280.133 99.376C279.845 99.92 279.701 100.544 279.701 101.248V118H274.469V102.784C274.469 98.912 272.949 96.976 269.909 96.976C269.269 96.976 268.629 97.072 267.989 97.264C267.381 97.424 266.837 97.68 266.357 98.032C265.877 98.384 265.493 98.832 265.205 99.376C264.917 99.92 264.773 100.544 264.773 101.248V118H259.541ZM312.253 82.48H317.485V97.168H317.725C318.269 95.664 319.149 94.512 320.365 93.712C321.613 92.88 323.069 92.464 324.733 92.464C327.901 92.464 330.349 93.616 332.077 95.92C333.805 98.192 334.669 101.392 334.669 105.52C334.669 109.648 333.805 112.864 332.077 115.168C330.349 117.44 327.901 118.576 324.733 118.576C323.069 118.576 321.613 118.16 320.365 117.328C319.149 116.496 318.269 115.344 317.725 113.872H317.485V118H312.253V82.48ZM323.149 114.064C324.973 114.064 326.429 113.488 327.517 112.336C328.605 111.152 329.149 109.6 329.149 107.68V103.36C329.149 101.44 328.605 99.904 327.517 98.752C326.429 97.568 324.973 96.976 323.149 96.976C321.549 96.976 320.205 97.376 319.117 98.176C318.029 98.944 317.485 99.968 317.485 101.248V109.792C317.485 111.072 318.029 112.112 319.117 112.912C320.205 113.68 321.549 114.064 323.149 114.064ZM340.179 118V93.04H345.411V97.84H345.651C346.003 96.56 346.739 95.44 347.859 94.48C348.979 93.52 350.531 93.04 352.515 93.04H353.907V98.08H351.843C349.763 98.08 348.163 98.416 347.043 99.088C345.955 99.76 345.411 100.752 345.411 102.064V118H340.179ZM360.714 88.576C359.626 88.576 358.826 88.32 358.314 87.808C357.834 87.296 357.594 86.64 357.594 85.84V85.024C357.594 84.224 357.834 83.568 358.314 83.056C358.826 82.544 359.626 82.288 360.714 82.288C361.802 82.288 362.586 82.544 363.066 83.056C363.546 83.568 363.786 84.224 363.786 85.024V85.84C363.786 86.64 363.546 87.296 363.066 87.808C362.586 88.32 361.802 88.576 360.714 88.576ZM358.074 93.04H363.306V118H358.074V93.04ZM385.993 113.872H385.753C385.209 115.344 384.313 116.496 383.065 117.328C381.849 118.16 380.409 118.576 378.745 118.576C375.577 118.576 373.129 117.44 371.401 115.168C369.673 112.864 368.809 109.648 368.809 105.52C368.809 101.392 369.673 98.192 371.401 95.92C373.129 93.616 375.577 92.464 378.745 92.464C380.409 92.464 381.849 92.88 383.065 93.712C384.313 94.512 385.209 95.664 385.753 97.168H385.993V82.48H391.225V118H385.993V113.872ZM380.329 114.064C381.929 114.064 383.273 113.68 384.361 112.912C385.449 112.112 385.993 111.072 385.993 109.792V101.248C385.993 99.968 385.449 98.944 384.361 98.176C383.273 97.376 381.929 96.976 380.329 96.976C378.505 96.976 377.049 97.568 375.961 98.752C374.873 99.904 374.329 101.44 374.329 103.36V107.68C374.329 109.6 374.873 111.152 375.961 112.336C377.049 113.488 378.505 114.064 380.329 114.064ZM420.111 120.352C420.111 122.944 419.119 124.896 417.135 126.208C415.151 127.52 411.919 128.176 407.439 128.176C405.391 128.176 403.647 128.032 402.207 127.744C400.799 127.488 399.631 127.104 398.703 126.592C397.807 126.08 397.151 125.456 396.735 124.72C396.319 123.984 396.111 123.136 396.111 122.176C396.111 120.8 396.479 119.728 397.215 118.96C397.983 118.192 399.039 117.664 400.383 117.376V116.848C398.495 116.24 397.551 114.96 397.551 113.008C397.551 111.728 397.983 110.752 398.847 110.08C399.711 109.376 400.751 108.88 401.967 108.592V108.4C400.495 107.696 399.359 106.72 398.559 105.472C397.791 104.192 397.407 102.704 397.407 101.008C397.407 98.448 398.255 96.384 399.951 94.816C401.679 93.248 404.143 92.464 407.343 92.464C409.103 92.464 410.607 92.72 411.855 93.232V92.56C411.855 91.44 412.111 90.576 412.623 89.968C413.167 89.328 413.999 89.008 415.119 89.008H418.959V93.232H413.871V94.24C414.991 94.976 415.855 95.936 416.463 97.12C417.071 98.272 417.375 99.568 417.375 101.008C417.375 103.536 416.511 105.584 414.783 107.152C413.055 108.688 410.591 109.456 407.391 109.456C406.175 109.456 405.087 109.328 404.127 109.072C403.487 109.296 402.927 109.616 402.447 110.032C401.967 110.416 401.727 110.928 401.727 111.568C401.727 112.24 402.031 112.72 402.639 113.008C403.247 113.296 404.111 113.44 405.231 113.44H411.375C414.447 113.44 416.671 114.064 418.047 115.312C419.423 116.528 420.111 118.208 420.111 120.352ZM415.215 120.928C415.215 120.064 414.879 119.376 414.207 118.864C413.567 118.352 412.383 118.096 410.655 118.096H402.207C401.055 118.768 400.479 119.728 400.479 120.976C400.479 122 400.879 122.816 401.679 123.424C402.511 124.064 403.903 124.384 405.855 124.384H409.119C413.183 124.384 415.215 123.232 415.215 120.928ZM407.391 105.664C408.927 105.664 410.111 105.328 410.943 104.656C411.807 103.952 412.239 102.88 412.239 101.44V100.48C412.239 99.04 411.807 97.984 410.943 97.312C410.111 96.608 408.927 96.256 407.391 96.256C405.855 96.256 404.655 96.608 403.791 97.312C402.959 97.984 402.543 99.04 402.543 100.48V101.44C402.543 102.88 402.959 103.952 403.791 104.656C404.655 105.328 405.855 105.664 407.391 105.664ZM433.035 118.576C431.243 118.576 429.643 118.272 428.235 117.664C426.827 117.056 425.627 116.192 424.635 115.072C423.643 113.92 422.875 112.544 422.331 110.944C421.819 109.312 421.563 107.504 421.563 105.52C421.563 103.536 421.819 101.744 422.331 100.144C422.875 98.512 423.643 97.136 424.635 96.016C425.627 94.864 426.827 93.984 428.235 93.376C429.643 92.768 431.243 92.464 433.035 92.464C434.859 92.464 436.459 92.784 437.835 93.424C439.243 94.064 440.411 94.96 441.339 96.112C442.267 97.232 442.955 98.544 443.403 100.048C443.883 101.552 444.123 103.168 444.123 104.896V106.864H426.987V107.68C426.987 109.6 427.547 111.184 428.667 112.432C429.819 113.648 431.451 114.256 433.563 114.256C435.099 114.256 436.395 113.92 437.451 113.248C438.507 112.576 439.403 111.664 440.139 110.512L443.211 113.536C442.283 115.072 440.939 116.304 439.179 117.232C437.419 118.128 435.371 118.576 433.035 118.576ZM433.035 96.544C432.139 96.544 431.307 96.704 430.539 97.024C429.803 97.344 429.163 97.792 428.619 98.368C428.107 98.944 427.707 99.632 427.419 100.432C427.131 101.232 426.987 102.112 426.987 103.072V103.408H438.603V102.928C438.603 101.008 438.107 99.472 437.115 98.32C436.123 97.136 434.763 96.544 433.035 96.544Z" fill="#4B90F3"/>
</g>
<defs>
<clipPath id="clip0_25_597">
<rect width="1170" height="863" fill="white"/>
</clipPath>
</defs>
</svg>
