<svg width="927" height="590" viewBox="0 0 927 590" fill="none" xmlns="http://www.w3.org/2000/svg">
<path d="M118.416 528L154 492M118 492L153.584 528" stroke="#E95757" stroke-width="12"/>
<path d="M320 369L311.615 384.156L328.932 383.839L320 369ZM334 443L335.432 442.553L334 443ZM318.952 378.552C319.105 380.399 319.308 382.501 319.579 384.851L322.559 384.508C322.292 382.19 322.092 380.12 321.942 378.305L318.952 378.552ZM320.393 391.147C320.672 393.108 320.993 395.19 321.362 397.391L324.321 396.897C323.956 394.719 323.639 392.661 323.363 390.723L320.393 391.147ZM322.475 403.619C322.852 405.609 323.266 407.678 323.719 409.823L326.654 409.204C326.206 407.078 325.796 405.03 325.422 403.06L322.475 403.619ZM325.086 416.006C325.546 417.997 326.038 420.045 326.565 422.148L329.475 421.42C328.953 419.334 328.465 417.304 328.009 415.331L325.086 416.006ZM328.152 428.263C328.687 430.251 329.25 432.284 329.845 434.36L332.729 433.534C332.139 431.474 331.579 429.457 331.049 427.484L328.152 428.263ZM331.634 440.415C331.938 441.417 332.25 442.427 332.568 443.447L335.432 442.553C335.115 441.54 334.806 440.537 334.504 439.542L331.634 440.415ZM332.568 443.447C332.852 444.355 333.136 445.25 333.42 446.133L336.276 445.212C335.994 444.339 335.713 443.452 335.432 442.553L332.568 443.447ZM335.18 451.426C335.804 453.245 336.428 455.005 337.05 456.708L339.868 455.677C339.252 453.994 338.635 452.253 338.018 450.453L335.18 451.426ZM339.03 461.944C339.735 463.745 340.436 465.474 341.132 467.133L343.898 465.972C343.212 464.336 342.52 462.63 341.824 460.851L339.03 461.944ZM343.364 472.262C344.172 474.049 344.969 475.743 345.754 477.347L348.449 476.029C347.678 474.453 346.893 472.787 346.098 471.027L343.364 472.262ZM348.307 482.347C349.25 484.114 350.166 485.746 351.051 487.251L353.637 485.732C352.774 484.262 351.878 482.666 350.954 480.935L348.307 482.347ZM354.026 492.047C355.2 493.833 356.29 495.368 357.278 496.677L359.673 494.87C358.725 493.614 357.672 492.132 356.534 490.399L354.026 492.047ZM360.92 501.075C361.577 501.785 362.097 502.296 362.46 502.636C362.641 502.806 362.783 502.933 362.884 503.02C362.934 503.064 362.974 503.098 363.003 503.122C363.017 503.134 363.029 503.144 363.038 503.151C363.043 503.155 363.047 503.158 363.05 503.161C363.051 503.162 363.053 503.163 363.054 503.164C363.055 503.165 363.055 503.165 363.056 503.166C363.056 503.166 363.056 503.166 363.056 503.166C363.056 503.166 363.057 503.166 363.057 503.166C363.057 503.167 363.057 503.167 364 502C364.943 500.833 364.943 500.833 364.943 500.834C364.943 500.834 364.943 500.834 364.943 500.834C364.943 500.834 364.944 500.834 364.944 500.834C364.944 500.835 364.945 500.835 364.945 500.835C364.945 500.836 364.946 500.836 364.946 500.836C364.946 500.836 364.946 500.836 364.945 500.835C364.943 500.834 364.938 500.83 364.931 500.823C364.916 500.811 364.89 500.789 364.853 500.757C364.78 500.694 364.665 500.591 364.51 500.446C364.2 500.155 363.73 499.695 363.122 499.037L360.92 501.075ZM320 369L303.23 399.311L337.865 398.679L320 369ZM334 443L336.863 442.105L334 443ZM317.457 378.676C317.611 380.538 317.816 382.657 318.089 385.023L324.049 384.336C323.784 382.035 323.586 379.98 323.437 378.182L317.457 378.676ZM318.908 391.359C319.189 393.332 319.512 395.426 319.882 397.639L325.8 396.649C325.438 394.484 325.122 392.437 324.847 390.511L318.908 391.359ZM321.001 403.899C321.381 405.899 321.796 407.977 322.251 410.133L328.122 408.894C327.675 406.779 327.268 404.74 326.896 402.78L321.001 403.899ZM323.625 416.344C324.087 418.344 324.581 420.4 325.11 422.512L330.93 421.055C330.41 418.979 329.925 416.957 329.471 414.993L323.625 416.344ZM326.704 428.652C327.24 430.649 327.806 432.689 328.404 434.773L334.171 433.12C333.583 431.068 333.026 429.06 332.498 427.095L326.704 428.652ZM330.198 440.851C330.504 441.856 330.817 442.871 331.137 443.895L336.863 442.105C336.548 441.096 336.24 440.097 335.939 439.106L330.198 440.851ZM331.137 443.895C331.422 444.807 331.707 445.706 331.993 446.593L337.704 444.752C337.423 443.883 337.143 443 336.863 442.105L331.137 443.895ZM333.761 451.912C334.388 453.741 335.015 455.511 335.642 457.223L341.277 455.162C340.664 453.488 340.051 451.757 339.437 449.966L333.761 451.912ZM337.633 462.49C338.342 464.302 339.048 466.043 339.749 467.713L345.282 465.392C344.6 463.767 343.913 462.072 343.221 460.305L337.633 462.49ZM341.997 472.879C342.811 474.681 343.615 476.388 344.407 478.006L349.796 475.369C349.032 473.808 348.254 472.156 347.465 470.409L341.997 472.879ZM346.984 483.053C347.936 484.837 348.862 486.487 349.757 488.011L354.931 484.972C354.078 483.52 353.191 481.942 352.278 480.229L346.984 483.053ZM352.773 492.871C353.964 494.683 355.073 496.245 356.08 497.581L360.87 493.967C359.943 492.737 358.909 491.282 357.787 489.576L352.773 492.871ZM359.819 502.094C360.5 502.83 361.045 503.366 361.435 503.731C361.629 503.913 361.785 504.052 361.899 504.152C361.956 504.201 362.003 504.241 362.039 504.271C362.057 504.286 362.072 504.299 362.085 504.309C362.091 504.314 362.097 504.319 362.102 504.323C362.104 504.325 362.106 504.327 362.108 504.329C362.11 504.33 362.111 504.33 362.111 504.331C362.112 504.332 362.112 504.332 362.113 504.332C362.113 504.333 362.113 504.333 362.114 504.333C362.114 504.333 362.114 504.333 364 502C365.885 499.667 365.886 499.667 365.886 499.667C365.886 499.667 365.887 499.668 365.887 499.668C365.887 499.668 365.888 499.668 365.888 499.669C365.889 499.669 365.89 499.67 365.89 499.671C365.892 499.672 365.893 499.673 365.894 499.674C365.896 499.675 365.898 499.677 365.898 499.677C365.9 499.678 365.899 499.677 365.895 499.674C365.887 499.667 365.868 499.651 365.838 499.625C365.779 499.574 365.677 499.483 365.535 499.351C365.251 499.085 364.807 498.65 364.223 498.019L359.819 502.094Z" fill="#14BF06"/>
<path d="M339 541L323.498 533.275L324.559 550.563L339 541ZM177 488L176.116 489.212L177 488ZM329.757 539.804C327.95 539.801 325.894 539.766 323.607 539.683L323.497 542.681C325.82 542.765 327.91 542.8 329.751 542.804L329.757 539.804ZM317.444 539.362C315.512 539.233 313.467 539.07 311.315 538.865L311.031 541.852C313.211 542.059 315.284 542.225 317.243 542.356L317.444 539.362ZM305.157 538.196C303.198 537.957 301.168 537.684 299.072 537.374L298.633 540.342C300.755 540.656 302.81 540.932 304.794 541.174L305.157 538.196ZM292.996 536.397C291.025 536.055 289.004 535.681 286.938 535.27L286.353 538.212C288.444 538.628 290.488 539.007 292.483 539.353L292.996 536.397ZM280.906 533.996C278.941 533.557 276.94 533.085 274.905 532.58L274.181 535.491C276.24 536.003 278.264 536.48 280.251 536.924L280.906 533.996ZM268.939 531.022C266.989 530.488 265.011 529.924 263.008 529.325L262.149 532.2C264.175 532.805 266.175 533.376 268.147 533.916L268.939 531.022ZM257.115 527.491C255.184 526.866 253.232 526.209 251.26 525.521L250.271 528.353C252.265 529.049 254.238 529.713 256.19 530.345L257.115 527.491ZM245.462 523.421C243.566 522.71 241.653 521.968 239.726 521.196L238.609 523.98C240.558 524.761 242.491 525.511 244.408 526.23L245.462 523.421ZM234.034 518.839C232.164 518.04 230.282 517.212 228.387 516.352L227.148 519.084C229.062 519.953 230.965 520.79 232.856 521.598L234.034 518.839ZM222.786 513.734C220.955 512.853 219.114 511.943 217.264 511.003L215.905 513.677C217.774 514.628 219.635 515.547 221.486 516.438L222.786 513.734ZM211.809 508.154C210.013 507.191 208.21 506.199 206.401 505.178L204.926 507.79C206.754 508.823 208.576 509.825 210.391 510.798L211.809 508.154ZM201.044 502.076C199.299 501.041 197.549 499.977 195.795 498.884L194.209 501.431C195.982 502.535 197.75 503.61 199.513 504.656L201.044 502.076ZM190.595 495.569C188.882 494.45 187.164 493.304 185.444 492.129L183.752 494.606C185.489 495.793 187.224 496.951 188.956 498.081L190.595 495.569ZM180.408 488.61C179.567 488.01 178.726 487.403 177.884 486.788L176.116 489.212C176.966 489.832 177.815 490.445 178.664 491.052L180.408 488.61ZM177.884 486.788C177.031 486.166 176.187 485.543 175.353 484.92L173.558 487.324C174.401 487.953 175.254 488.582 176.116 489.212L177.884 486.788ZM170.459 481.183C168.795 479.884 167.171 478.584 165.585 477.287L163.685 479.608C165.288 480.92 166.93 482.234 168.613 483.548L170.459 481.183ZM160.835 473.302C159.25 471.94 157.707 470.58 156.205 469.223L154.194 471.449C155.714 472.823 157.276 474.199 158.879 475.578L160.835 473.302ZM151.663 465.009C150.137 463.557 148.658 462.108 147.224 460.664L145.096 462.779C146.55 464.242 148.048 465.71 149.594 467.182L151.663 465.009ZM142.922 456.21C141.486 454.679 140.1 453.156 138.761 451.64L136.513 453.626C137.871 455.164 139.278 456.71 140.734 458.263L142.922 456.21ZM134.747 446.949C133.407 445.333 132.122 443.727 130.887 442.133L128.515 443.97C129.77 445.59 131.077 447.222 132.437 448.863L134.747 446.949ZM127.191 437.188C125.959 435.479 124.786 433.785 123.668 432.109L121.172 433.774C122.31 435.48 123.504 437.203 124.757 438.942L127.191 437.188ZM120.338 426.908C119.232 425.105 118.191 423.327 117.21 421.574L114.592 423.04C115.593 424.827 116.654 426.64 117.781 428.476L120.338 426.908ZM114.301 416.118C113.343 414.225 112.455 412.367 111.633 410.548L108.899 411.785C109.74 413.643 110.647 415.54 111.625 417.473L114.301 416.118ZM109.223 404.882C108.436 402.903 107.726 400.979 107.087 399.116L104.249 400.089C104.904 401.998 105.63 403.967 106.436 405.991L109.223 404.882ZM105.235 393.228C104.638 391.145 104.133 389.157 103.705 387.274L100.779 387.939C101.219 389.875 101.739 391.916 102.35 394.054L105.235 393.228ZM102.521 381.252C102.149 378.995 101.896 376.956 101.726 375.161L98.7396 375.444C98.9158 377.305 99.1778 379.412 99.5614 381.74L102.521 381.252ZM101.405 369.079C101.4 368.102 101.423 367.357 101.447 366.862C101.459 366.614 101.471 366.429 101.48 366.309C101.484 366.249 101.488 366.205 101.49 366.178C101.491 366.164 101.492 366.155 101.493 366.149C101.493 366.147 101.493 366.145 101.493 366.144C101.493 366.144 101.493 366.144 101.493 366.144C101.493 366.144 101.493 366.145 101.493 366.145C101.493 366.145 101.493 366.145 101.493 366.145C101.493 366.145 101.493 366.145 101.493 366.146C101.493 366.146 101.493 366.146 100 366C98.5073 365.854 98.5073 365.854 98.5072 365.854C98.5072 365.854 98.5072 365.855 98.5072 365.855C98.5072 365.855 98.5072 365.855 98.5071 365.855C98.5071 365.856 98.507 365.856 98.507 365.857C98.5069 365.858 98.5067 365.86 98.5065 365.862C98.5062 365.865 98.5058 365.87 98.5052 365.876C98.5042 365.887 98.5028 365.902 98.5011 365.922C98.4978 365.962 98.4932 366.018 98.4879 366.09C98.4773 366.235 98.4637 366.445 98.4506 366.718C98.4243 367.263 98.3999 368.062 98.4051 369.094L101.405 369.079ZM339 541L307.996 525.549L310.117 560.125L339 541ZM177 488L175.231 490.423L177 488ZM329.76 538.304C327.969 538.301 325.931 538.267 323.662 538.184L323.443 544.18C325.783 544.265 327.891 544.3 329.748 544.304L329.76 538.304ZM317.544 537.866C315.626 537.737 313.594 537.575 311.457 537.372L310.889 543.345C313.084 543.554 315.171 543.72 317.143 543.852L317.544 537.866ZM305.339 536.707C303.392 536.47 301.375 536.199 299.292 535.89L298.414 541.826C300.548 542.142 302.615 542.419 304.612 542.663L305.339 536.707ZM293.252 534.919C291.293 534.579 289.284 534.207 287.23 533.799L286.061 539.684C288.164 540.102 290.22 540.483 292.226 540.831L293.252 534.919ZM281.233 532.533C279.28 532.096 277.29 531.627 275.267 531.124L273.82 536.947C275.889 537.461 277.925 537.941 279.924 538.388L281.233 532.533ZM269.334 529.575C267.395 529.045 265.429 528.483 263.437 527.888L261.72 533.637C263.757 534.245 265.768 534.82 267.751 535.362L269.334 529.575ZM257.577 526.064C255.657 525.442 253.716 524.79 251.755 524.105L249.776 529.769C251.781 530.469 253.765 531.136 255.728 531.772L257.577 526.064ZM245.988 522.016C244.103 521.309 242.201 520.572 240.284 519.803L238.051 525.372C240.01 526.158 241.954 526.911 243.881 527.634L245.988 522.016ZM234.624 517.46C232.764 516.665 230.891 515.841 229.007 514.986L226.528 520.45C228.453 521.323 230.366 522.166 232.266 522.977L234.624 517.46ZM223.436 512.382C221.615 511.506 219.784 510.601 217.944 509.666L215.225 515.014C217.104 515.97 218.975 516.894 220.836 517.789L223.436 512.382ZM212.518 506.832C210.731 505.874 208.938 504.888 207.138 503.872L204.189 509.096C206.026 510.134 207.858 511.142 209.682 512.12L212.518 506.832ZM201.81 500.786C200.074 499.756 198.333 498.698 196.588 497.611L193.416 502.704C195.198 503.814 196.975 504.894 198.747 505.946L201.81 500.786ZM191.415 494.313C189.71 493.2 188.002 492.06 186.291 490.89L182.906 495.845C184.652 497.038 186.396 498.202 188.136 499.337L191.415 494.313ZM181.279 487.39C180.443 486.792 179.606 486.188 178.769 485.577L175.231 490.423C176.085 491.047 176.939 491.663 177.792 492.272L181.279 487.39ZM178.769 485.577C177.92 484.957 177.081 484.338 176.251 483.718L172.661 488.526C173.508 489.158 174.365 489.791 175.231 490.423L178.769 485.577ZM171.382 480.001C169.727 478.708 168.112 477.416 166.535 476.126L162.735 480.769C164.347 482.088 165.998 483.409 167.689 484.73L171.382 480.001ZM161.812 472.165C160.237 470.811 158.703 469.459 157.211 468.11L153.188 472.562C154.718 473.944 156.289 475.329 157.902 476.715L161.812 472.165ZM152.697 463.923C151.182 462.48 149.713 461.041 148.288 459.607L144.032 463.836C145.495 465.309 147.004 466.787 148.559 468.268L152.697 463.923ZM144.016 455.184C142.59 453.664 141.214 452.151 139.885 450.647L135.388 454.619C136.757 456.168 138.174 457.725 139.64 459.289L144.016 455.184ZM135.902 445.992C134.573 444.388 133.297 442.795 132.073 441.214L127.329 444.889C128.594 446.522 129.911 448.166 131.282 449.82L135.902 445.992ZM128.408 436.311C127.187 434.616 126.023 432.938 124.916 431.277L119.924 434.606C121.072 436.327 122.277 438.066 123.54 439.819L128.408 436.311ZM121.617 426.123C120.522 424.338 119.49 422.576 118.518 420.841L113.283 423.773C114.294 425.577 115.365 427.407 116.502 429.261L121.617 426.123ZM115.64 415.44C114.691 413.567 113.813 411.729 112.999 409.93L107.532 412.403C108.382 414.281 109.298 416.198 110.287 418.15L115.64 415.44ZM110.617 404.327C109.838 402.371 109.137 400.47 108.506 398.63L102.831 400.576C103.493 402.507 104.227 404.499 105.042 406.546L110.617 404.327ZM106.677 392.815C106.088 390.759 105.589 388.798 105.167 386.942L99.3165 388.272C99.7627 390.234 100.289 392.302 100.908 394.466L106.677 392.815ZM104.002 381.008C103.635 378.786 103.386 376.782 103.22 375.02L97.2463 375.585C97.4256 377.48 97.6919 379.621 98.0814 381.984L104.002 381.008ZM102.905 369.071C102.9 368.121 102.923 367.403 102.945 366.934C102.957 366.699 102.968 366.527 102.976 366.419C102.98 366.365 102.983 366.327 102.985 366.306C102.986 366.295 102.986 366.289 102.986 366.286C102.987 366.285 102.987 366.285 102.986 366.286C102.986 366.286 102.986 366.287 102.986 366.288C102.986 366.288 102.986 366.289 102.986 366.29C102.986 366.29 102.986 366.29 102.986 366.291C102.986 366.291 102.986 366.291 102.986 366.291C102.986 366.291 102.986 366.292 100 366C97.0144 365.708 97.0144 365.708 97.0143 365.709C97.0143 365.709 97.0143 365.709 97.0143 365.709C97.0142 365.71 97.0142 365.71 97.0141 365.711C97.0141 365.711 97.014 365.712 97.0139 365.713C97.0137 365.715 97.0135 365.718 97.0132 365.72C97.0127 365.725 97.0122 365.731 97.0115 365.739C97.0102 365.753 97.0085 365.771 97.0066 365.794C97.0027 365.84 96.9977 365.902 96.9919 365.98C96.9804 366.137 96.966 366.36 96.9523 366.645C96.9248 367.217 96.8998 368.042 96.9052 369.102L102.905 369.071Z" fill="#E95757"/>
<path d="M695.05 364.039L727.084 377.223L699.65 398.373L695.05 364.039ZM713.911 383.59L804.527 501.13L799.775 504.793L709.159 387.254L713.911 383.59Z" fill="#4B90F3"/>
<path d="M607.05 369L589.73 399H624.371L607.05 369ZM604.05 396V496H610.05V396H604.05Z" fill="#4B90F3"/>
<path d="M518.101 364.039L486.066 377.223L513.501 398.373L518.101 364.039ZM499.24 383.59L408.624 501.13L413.376 504.793L503.991 387.254L499.24 383.59Z" fill="#4B90F3"/>
<path d="M408 144.039L440.034 157.223L412.599 178.373L408 144.039ZM426.861 163.59L517.477 281.13L512.725 284.793L422.109 167.254L426.861 163.59Z" fill="#4B90F3"/>
<path d="M320 149L302.679 179H337.321L320 149ZM317 176V276H323V176H317Z" fill="#4B90F3"/>
<path d="M231.05 144.039L199.016 157.223L226.451 178.373L231.05 144.039ZM212.189 163.59L121.574 281.13L126.326 284.793L216.941 167.254L212.189 163.59Z" fill="#4B90F3"/>
<path d="M914.674 520.882L912.677 523.121L912.677 523.121L914.674 520.882ZM919.441 549.806L921.944 551.46L921.944 551.46L919.441 549.806ZM873.779 553.89L898.229 578.429L907.256 544.985L873.779 553.89ZM873.116 532.319C879.072 526.664 886.624 522.029 893.931 520.043C901.226 518.06 907.833 518.798 912.677 523.121L916.671 518.644C909.792 512.505 900.824 511.951 892.357 514.253C883.901 516.551 875.503 521.779 868.984 527.969L873.116 532.319ZM912.677 523.121C921.979 531.421 921.373 541.441 916.938 548.152L921.944 551.46C927.867 542.498 928.4 529.11 916.671 518.644L912.677 523.121ZM916.938 548.152C913.599 553.205 907.888 557.361 899.639 557.933L900.054 563.918C910.313 563.207 917.658 557.945 921.944 551.46L916.938 548.152Z" fill="#4B90F3"/>
<rect x="782.05" y="496" width="90" height="90" rx="45" stroke="#4B90F3" stroke-width="6"/>
<path d="M816.952 558V524.496H838.408V529.296H822.376V538.608H836.92V543.408H822.376V553.2H838.408V558H816.952Z" fill="#4B90F3"/>
<path d="M694.674 520.882L692.677 523.121L692.677 523.121L694.674 520.882ZM699.441 549.806L701.944 551.46L701.944 551.46L699.441 549.806ZM653.779 553.89L678.229 578.429L687.256 544.985L653.779 553.89ZM653.116 532.319C659.072 526.664 666.624 522.029 673.931 520.043C681.226 518.06 687.833 518.798 692.677 523.121L696.671 518.644C689.792 512.505 680.824 511.951 672.357 514.253C663.901 516.551 655.503 521.779 648.984 527.969L653.116 532.319ZM692.677 523.121C701.979 531.421 701.373 541.441 696.938 548.152L701.944 551.46C707.867 542.498 708.4 529.11 696.671 518.644L692.677 523.121ZM696.938 548.152C693.599 553.205 687.888 557.361 679.639 557.933L680.054 563.918C690.313 563.207 697.658 557.945 701.944 551.46L696.938 548.152Z" fill="#4B90F3"/>
<rect x="562.05" y="496" width="90" height="90" rx="45" stroke="#4B90F3" stroke-width="6"/>
<path d="M594.795 524.496H606.651C608.795 524.496 610.731 524.848 612.459 525.552C614.219 526.256 615.707 527.312 616.923 528.72C618.171 530.096 619.131 531.84 619.803 533.952C620.475 536.032 620.811 538.464 620.811 541.248C620.811 544.032 620.475 546.48 619.803 548.592C619.131 550.672 618.171 552.416 616.923 553.824C615.707 555.2 614.219 556.24 612.459 556.944C610.731 557.648 608.795 558 606.651 558H594.795V524.496ZM606.651 553.2C609.147 553.2 611.163 552.416 612.699 550.848C614.235 549.28 615.003 546.976 615.003 543.936V538.56C615.003 535.52 614.235 533.216 612.699 531.648C611.163 530.08 609.147 529.296 606.651 529.296H600.219V553.2H606.651Z" fill="#4B90F3"/>
<path d="M474.624 520.882L472.626 523.121L472.626 523.121L474.624 520.882ZM479.391 549.806L481.894 551.46L481.894 551.46L479.391 549.806ZM433.729 553.89L458.179 578.429L467.206 544.985L433.729 553.89ZM433.066 532.319C439.022 526.664 446.573 522.029 453.88 520.043C461.175 518.06 467.783 518.798 472.626 523.121L476.621 518.644C469.741 512.505 460.774 511.951 452.306 514.253C443.851 516.551 435.452 521.779 428.934 527.969L433.066 532.319ZM472.626 523.121C481.928 531.421 481.323 541.441 476.888 548.152L481.894 551.46C487.817 542.498 488.35 529.11 476.621 518.644L472.626 523.121ZM476.888 548.152C473.548 553.205 467.838 557.361 459.589 557.933L460.004 563.918C470.263 563.207 477.608 557.945 481.894 551.46L476.888 548.152Z" fill="#4B90F3"/>
<rect x="342" y="496" width="90" height="90" rx="45" stroke="#4B90F3" stroke-width="6"/>
<path d="M388.493 558.576C384.109 558.576 380.669 557.104 378.173 554.16C375.677 551.184 374.429 546.88 374.429 541.248C374.429 538.432 374.749 535.952 375.389 533.808C376.029 531.664 376.957 529.856 378.173 528.384C379.389 526.912 380.861 525.808 382.589 525.072C384.349 524.304 386.317 523.92 388.493 523.92C391.405 523.92 393.837 524.56 395.789 525.84C397.773 527.12 399.325 529.008 400.445 531.504L395.885 534C395.309 532.4 394.413 531.136 393.197 530.208C392.013 529.248 390.445 528.768 388.493 528.768C385.901 528.768 383.869 529.648 382.397 531.408C380.925 533.168 380.189 535.6 380.189 538.704V543.792C380.189 546.896 380.925 549.328 382.397 551.088C383.869 552.848 385.901 553.728 388.493 553.728C390.509 553.728 392.141 553.216 393.389 552.192C394.669 551.136 395.613 549.792 396.221 548.16L400.589 550.8C399.469 553.232 397.901 555.136 395.885 556.512C393.869 557.888 391.405 558.576 388.493 558.576Z" fill="#4B90F3"/>
<path d="M587.273 232.017L589.452 234.079L587.273 232.017ZM616.95 227.897L615.268 230.38L616.95 227.897ZM620.374 273.806L645.473 249.93L612.246 240.132L620.374 273.806ZM598.224 273.955C592.528 267.842 587.91 260.155 585.999 252.782C584.093 245.425 584.956 238.832 589.452 234.079L585.093 229.956C578.689 236.726 577.974 245.73 580.191 254.287C582.404 262.827 587.614 271.37 593.834 278.045L598.224 273.955ZM589.452 234.079C598.111 224.924 608.417 225.739 615.268 230.38L618.633 225.413C609.616 219.303 595.987 218.439 585.093 229.956L589.452 234.079ZM615.268 230.38C620.428 233.877 624.591 239.742 625.015 248.061L631.007 247.756C630.478 237.375 625.195 229.86 618.633 225.413L615.268 230.38Z" fill="#4B90F3"/>
<rect x="495.05" y="276" width="223" height="90" rx="45" stroke="#4B90F3" stroke-width="6"/>
<path d="M549.927 340.352C549.927 342.944 548.935 344.896 546.951 346.208C544.967 347.52 541.735 348.176 537.255 348.176C535.207 348.176 533.463 348.032 532.023 347.744C530.615 347.488 529.447 347.104 528.519 346.592C527.623 346.08 526.967 345.456 526.551 344.72C526.135 343.984 525.927 343.136 525.927 342.176C525.927 340.8 526.295 339.728 527.031 338.96C527.799 338.192 528.855 337.664 530.199 337.376V336.848C528.311 336.24 527.367 334.96 527.367 333.008C527.367 331.728 527.799 330.752 528.663 330.08C529.527 329.376 530.567 328.88 531.783 328.592V328.4C530.311 327.696 529.175 326.72 528.375 325.472C527.607 324.192 527.223 322.704 527.223 321.008C527.223 318.448 528.071 316.384 529.767 314.816C531.495 313.248 533.959 312.464 537.159 312.464C538.919 312.464 540.423 312.72 541.671 313.232V312.56C541.671 311.44 541.927 310.576 542.439 309.968C542.983 309.328 543.815 309.008 544.935 309.008H548.775V313.232H543.687V314.24C544.807 314.976 545.671 315.936 546.279 317.12C546.887 318.272 547.191 319.568 547.191 321.008C547.191 323.536 546.327 325.584 544.599 327.152C542.871 328.688 540.407 329.456 537.207 329.456C535.991 329.456 534.903 329.328 533.943 329.072C533.303 329.296 532.743 329.616 532.263 330.032C531.783 330.416 531.543 330.928 531.543 331.568C531.543 332.24 531.847 332.72 532.455 333.008C533.063 333.296 533.927 333.44 535.047 333.44H541.191C544.263 333.44 546.487 334.064 547.863 335.312C549.239 336.528 549.927 338.208 549.927 340.352ZM545.031 340.928C545.031 340.064 544.695 339.376 544.023 338.864C543.383 338.352 542.199 338.096 540.471 338.096H532.023C530.871 338.768 530.295 339.728 530.295 340.976C530.295 342 530.695 342.816 531.495 343.424C532.327 344.064 533.719 344.384 535.671 344.384H538.935C542.999 344.384 545.031 343.232 545.031 340.928ZM537.207 325.664C538.743 325.664 539.927 325.328 540.759 324.656C541.623 323.952 542.055 322.88 542.055 321.44V320.48C542.055 319.04 541.623 317.984 540.759 317.312C539.927 316.608 538.743 316.256 537.207 316.256C535.671 316.256 534.471 316.608 533.607 317.312C532.775 317.984 532.359 319.04 532.359 320.48V321.44C532.359 322.88 532.775 323.952 533.607 324.656C534.471 325.328 535.671 325.664 537.207 325.664ZM553.34 338V313.04H558.572V317.84H558.812C559.164 316.56 559.9 315.44 561.02 314.48C562.14 313.52 563.692 313.04 565.676 313.04H567.068V318.08H565.004C562.924 318.08 561.324 318.416 560.204 319.088C559.116 319.76 558.572 320.752 558.572 322.064V338H553.34ZM580.793 338.576C579.065 338.576 577.481 338.272 576.041 337.664C574.633 337.056 573.433 336.192 572.441 335.072C571.449 333.92 570.681 332.544 570.137 330.944C569.593 329.312 569.321 327.504 569.321 325.52C569.321 323.536 569.593 321.744 570.137 320.144C570.681 318.512 571.449 317.136 572.441 316.016C573.433 314.864 574.633 313.984 576.041 313.376C577.481 312.768 579.065 312.464 580.793 312.464C582.521 312.464 584.089 312.768 585.497 313.376C586.937 313.984 588.153 314.864 589.145 316.016C590.137 317.136 590.905 318.512 591.449 320.144C591.993 321.744 592.265 323.536 592.265 325.52C592.265 327.504 591.993 329.312 591.449 330.944C590.905 332.544 590.137 333.92 589.145 335.072C588.153 336.192 586.937 337.056 585.497 337.664C584.089 338.272 582.521 338.576 580.793 338.576ZM580.793 334.256C582.585 334.256 584.025 333.712 585.113 332.624C586.201 331.504 586.745 329.84 586.745 327.632V323.408C586.745 321.2 586.201 319.552 585.113 318.464C584.025 317.344 582.585 316.784 580.793 316.784C579.001 316.784 577.561 317.344 576.473 318.464C575.385 319.552 574.841 321.2 574.841 323.408V327.632C574.841 329.84 575.385 331.504 576.473 332.624C577.561 333.712 579.001 334.256 580.793 334.256ZM612.735 333.872H612.543C612.319 334.48 612.015 335.072 611.631 335.648C611.279 336.224 610.815 336.736 610.239 337.184C609.695 337.6 609.023 337.936 608.223 338.192C607.455 338.448 606.559 338.576 605.535 338.576C602.943 338.576 600.927 337.744 599.487 336.08C598.079 334.416 597.375 332.032 597.375 328.928V313.04H602.607V328.256C602.607 332.128 604.207 334.064 607.407 334.064C608.079 334.064 608.735 333.984 609.375 333.824C610.015 333.632 610.575 333.36 611.055 333.008C611.567 332.656 611.967 332.208 612.255 331.664C612.575 331.12 612.735 330.48 612.735 329.744V313.04H617.967V338H612.735V333.872ZM624.978 313.04H630.21V317.168H630.45C630.994 315.664 631.874 314.512 633.09 313.712C634.338 312.88 635.794 312.464 637.458 312.464C640.626 312.464 643.074 313.616 644.802 315.92C646.53 318.192 647.394 321.392 647.394 325.52C647.394 329.648 646.53 332.864 644.802 335.168C643.074 337.44 640.626 338.576 637.458 338.576C635.794 338.576 634.338 338.16 633.09 337.328C631.874 336.496 630.994 335.344 630.45 333.872H630.21V347.6H624.978V313.04ZM635.874 334.064C637.698 334.064 639.154 333.488 640.242 332.336C641.33 331.152 641.874 329.6 641.874 327.68V323.36C641.874 321.44 641.33 319.904 640.242 318.752C639.154 317.568 637.698 316.976 635.874 316.976C634.274 316.976 632.93 317.376 631.842 318.176C630.754 318.944 630.21 319.968 630.21 321.248V329.792C630.21 331.072 630.754 332.112 631.842 332.912C632.93 333.68 634.274 334.064 635.874 334.064ZM686.472 338H662.76V331.424L673.08 322.592C674.008 321.792 674.792 321.072 675.432 320.432C676.072 319.76 676.584 319.12 676.968 318.512C677.384 317.872 677.672 317.248 677.832 316.64C678.024 316.032 678.12 315.376 678.12 314.672V314C678.12 313.36 677.992 312.8 677.736 312.32C677.48 311.84 677.144 311.44 676.728 311.12C676.312 310.8 675.832 310.56 675.288 310.4C674.776 310.24 674.248 310.16 673.704 310.16C672.904 310.16 672.2 310.288 671.592 310.544C671.016 310.8 670.504 311.152 670.056 311.6C669.64 312.016 669.288 312.512 669 313.088C668.712 313.632 668.488 314.224 668.328 314.864L662.04 312.464C662.424 311.312 662.952 310.224 663.624 309.2C664.296 308.144 665.128 307.232 666.12 306.464C667.144 305.664 668.344 305.04 669.72 304.592C671.096 304.144 672.648 303.92 674.376 303.92C676.2 303.92 677.816 304.176 679.224 304.688C680.632 305.2 681.816 305.904 682.776 306.8C683.768 307.696 684.52 308.768 685.032 310.016C685.544 311.232 685.8 312.56 685.8 314C685.8 315.44 685.56 316.752 685.08 317.936C684.6 319.12 683.944 320.24 683.112 321.296C682.312 322.32 681.368 323.296 680.28 324.224C679.192 325.152 678.056 326.096 676.872 327.056L670.632 331.952H686.472V338Z" fill="#4B90F3"/>
<path d="M407.624 300.882L405.626 303.121L405.626 303.121L407.624 300.882ZM412.391 329.806L414.894 331.46L414.894 331.46L412.391 329.806ZM366.729 333.89L391.179 358.429L400.206 324.985L366.729 333.89ZM366.066 312.319C372.022 306.664 379.573 302.029 386.88 300.043C394.175 298.06 400.783 298.798 405.626 303.121L409.621 298.644C402.741 292.505 393.774 291.951 385.306 294.253C376.851 296.551 368.452 301.779 361.934 307.969L366.066 312.319ZM405.626 303.121C414.928 311.421 414.323 321.441 409.888 328.152L414.894 331.46C420.817 322.498 421.35 309.11 409.621 298.644L405.626 303.121ZM409.888 328.152C406.548 333.205 400.838 337.361 392.589 337.933L393.004 343.918C403.263 343.207 410.608 337.945 414.894 331.46L409.888 328.152Z" fill="#4B90F3"/>
<rect x="275" y="276" width="90" height="90" rx="45" stroke="#4B90F3" stroke-width="6"/>
<path d="M308.308 304.496H323.14C325.924 304.496 328.1 305.28 329.668 306.848C331.268 308.416 332.068 310.512 332.068 313.136C332.068 314.384 331.892 315.456 331.54 316.352C331.188 317.216 330.74 317.936 330.196 318.512C329.652 319.056 329.028 319.472 328.324 319.76C327.62 320.016 326.932 320.176 326.26 320.24V320.528C326.932 320.56 327.668 320.72 328.468 321.008C329.3 321.296 330.068 321.76 330.772 322.4C331.476 323.008 332.068 323.808 332.548 324.8C333.028 325.76 333.268 326.944 333.268 328.352C333.268 329.696 333.044 330.96 332.596 332.144C332.18 333.328 331.588 334.352 330.82 335.216C330.052 336.08 329.14 336.768 328.084 337.28C327.028 337.76 325.876 338 324.628 338H308.308V304.496ZM313.732 333.344H323.044C324.452 333.344 325.556 332.976 326.356 332.24C327.156 331.504 327.556 330.448 327.556 329.072V327.44C327.556 326.064 327.156 325.008 326.356 324.272C325.556 323.536 324.452 323.168 323.044 323.168H313.732V333.344ZM313.732 318.656H322.132C323.476 318.656 324.516 318.32 325.252 317.648C325.988 316.944 326.356 315.952 326.356 314.672V313.136C326.356 311.856 325.988 310.88 325.252 310.208C324.516 309.504 323.476 309.152 322.132 309.152H313.732V318.656Z" fill="#4B90F3"/>
<path d="M187.624 300.882L185.626 303.121L185.626 303.121L187.624 300.882ZM192.391 329.806L194.894 331.46L194.894 331.46L192.391 329.806ZM146.729 333.89L171.179 358.429L180.206 324.985L146.729 333.89ZM146.066 312.319C152.022 306.664 159.573 302.029 166.88 300.043C174.175 298.06 180.783 298.798 185.626 303.121L189.621 298.644C182.741 292.505 173.774 291.951 165.306 294.253C156.851 296.551 148.452 301.779 141.934 307.969L146.066 312.319ZM185.626 303.121C194.928 311.421 194.323 321.441 189.888 328.152L194.894 331.46C200.817 322.498 201.35 309.11 189.621 298.644L185.626 303.121ZM189.888 328.152C186.548 333.205 180.838 337.361 172.589 337.933L173.004 343.918C183.263 343.207 190.608 337.945 194.894 331.46L189.888 328.152Z" fill="#4B90F3"/>
<rect x="55" y="276" width="90" height="90" rx="45" stroke="#4B90F3" stroke-width="6"/>
<path d="M109.165 338L106.141 328.928H93.6134L90.6854 338H85.1654L96.5894 304.496H103.405L114.829 338H109.165ZM99.9974 309.488H99.7574L94.9094 324.272H104.797L99.9974 309.488Z" fill="#4B90F3"/>
<path d="M300.222 12.0173L302.402 14.0788L300.222 12.0173ZM329.9 7.89685L328.217 10.3804L329.9 7.89685ZM333.324 53.8063L358.422 29.9297L325.196 20.1325L333.324 53.8063ZM311.174 53.9548C305.478 47.8422 300.86 40.1555 298.949 32.7819C297.042 25.4249 297.906 18.8317 302.402 14.0788L298.043 9.95576C291.639 16.7259 290.923 25.7303 293.141 34.2871C295.354 42.8273 300.564 51.3704 306.784 58.0452L311.174 53.9548ZM302.402 14.0788C311.061 4.92411 321.367 5.73867 328.217 10.3804L331.583 5.41332C322.566 -0.696577 308.936 -1.56119 298.043 9.95576L302.402 14.0788ZM328.217 10.3804C333.378 13.8771 337.541 19.7417 337.964 28.0609L343.957 27.7557C343.428 17.3749 338.145 9.85954 331.583 5.41332L328.217 10.3804Z" fill="#4B90F3"/>
<rect x="208" y="56" width="223" height="90" rx="45" stroke="#4B90F3" stroke-width="6"/>
<path d="M262.877 120.352C262.877 122.944 261.885 124.896 259.901 126.208C257.917 127.52 254.685 128.176 250.205 128.176C248.157 128.176 246.413 128.032 244.973 127.744C243.565 127.488 242.397 127.104 241.469 126.592C240.573 126.08 239.917 125.456 239.501 124.72C239.085 123.984 238.877 123.136 238.877 122.176C238.877 120.8 239.245 119.728 239.981 118.96C240.749 118.192 241.805 117.664 243.149 117.376V116.848C241.261 116.24 240.317 114.96 240.317 113.008C240.317 111.728 240.749 110.752 241.613 110.08C242.477 109.376 243.517 108.88 244.733 108.592V108.4C243.261 107.696 242.125 106.72 241.325 105.472C240.557 104.192 240.173 102.704 240.173 101.008C240.173 98.448 241.021 96.384 242.717 94.816C244.445 93.248 246.909 92.464 250.109 92.464C251.869 92.464 253.373 92.72 254.621 93.232V92.56C254.621 91.44 254.877 90.576 255.389 89.968C255.933 89.328 256.765 89.008 257.885 89.008H261.725V93.232H256.637V94.24C257.757 94.976 258.621 95.936 259.229 97.12C259.837 98.272 260.141 99.568 260.141 101.008C260.141 103.536 259.277 105.584 257.549 107.152C255.821 108.688 253.357 109.456 250.157 109.456C248.941 109.456 247.853 109.328 246.893 109.072C246.253 109.296 245.693 109.616 245.213 110.032C244.733 110.416 244.493 110.928 244.493 111.568C244.493 112.24 244.797 112.72 245.405 113.008C246.013 113.296 246.877 113.44 247.997 113.44H254.141C257.213 113.44 259.437 114.064 260.813 115.312C262.189 116.528 262.877 118.208 262.877 120.352ZM257.981 120.928C257.981 120.064 257.645 119.376 256.973 118.864C256.333 118.352 255.149 118.096 253.421 118.096H244.973C243.821 118.768 243.245 119.728 243.245 120.976C243.245 122 243.645 122.816 244.445 123.424C245.277 124.064 246.669 124.384 248.621 124.384H251.885C255.949 124.384 257.981 123.232 257.981 120.928ZM250.157 105.664C251.693 105.664 252.877 105.328 253.709 104.656C254.573 103.952 255.005 102.88 255.005 101.44V100.48C255.005 99.04 254.573 97.984 253.709 97.312C252.877 96.608 251.693 96.256 250.157 96.256C248.621 96.256 247.421 96.608 246.557 97.312C245.725 97.984 245.309 99.04 245.309 100.48V101.44C245.309 102.88 245.725 103.952 246.557 104.656C247.421 105.328 248.621 105.664 250.157 105.664ZM266.29 118V93.04H271.522V97.84H271.762C272.114 96.56 272.85 95.44 273.97 94.48C275.09 93.52 276.642 93.04 278.626 93.04H280.018V98.08H277.954C275.874 98.08 274.274 98.416 273.154 99.088C272.066 99.76 271.522 100.752 271.522 102.064V118H266.29ZM293.743 118.576C292.015 118.576 290.431 118.272 288.991 117.664C287.583 117.056 286.383 116.192 285.391 115.072C284.399 113.92 283.631 112.544 283.087 110.944C282.543 109.312 282.271 107.504 282.271 105.52C282.271 103.536 282.543 101.744 283.087 100.144C283.631 98.512 284.399 97.136 285.391 96.016C286.383 94.864 287.583 93.984 288.991 93.376C290.431 92.768 292.015 92.464 293.743 92.464C295.471 92.464 297.039 92.768 298.447 93.376C299.887 93.984 301.103 94.864 302.095 96.016C303.087 97.136 303.855 98.512 304.399 100.144C304.943 101.744 305.215 103.536 305.215 105.52C305.215 107.504 304.943 109.312 304.399 110.944C303.855 112.544 303.087 113.92 302.095 115.072C301.103 116.192 299.887 117.056 298.447 117.664C297.039 118.272 295.471 118.576 293.743 118.576ZM293.743 114.256C295.535 114.256 296.975 113.712 298.063 112.624C299.151 111.504 299.695 109.84 299.695 107.632V103.408C299.695 101.2 299.151 99.552 298.063 98.464C296.975 97.344 295.535 96.784 293.743 96.784C291.951 96.784 290.511 97.344 289.423 98.464C288.335 99.552 287.791 101.2 287.791 103.408V107.632C287.791 109.84 288.335 111.504 289.423 112.624C290.511 113.712 291.951 114.256 293.743 114.256ZM325.684 113.872H325.492C325.268 114.48 324.964 115.072 324.58 115.648C324.228 116.224 323.764 116.736 323.188 117.184C322.644 117.6 321.972 117.936 321.172 118.192C320.404 118.448 319.508 118.576 318.484 118.576C315.892 118.576 313.876 117.744 312.436 116.08C311.028 114.416 310.324 112.032 310.324 108.928V93.04H315.556V108.256C315.556 112.128 317.156 114.064 320.356 114.064C321.028 114.064 321.684 113.984 322.324 113.824C322.964 113.632 323.524 113.36 324.004 113.008C324.516 112.656 324.916 112.208 325.204 111.664C325.524 111.12 325.684 110.48 325.684 109.744V93.04H330.916V118H325.684V113.872ZM337.928 93.04H343.16V97.168H343.4C343.944 95.664 344.824 94.512 346.04 93.712C347.288 92.88 348.744 92.464 350.408 92.464C353.576 92.464 356.024 93.616 357.752 95.92C359.48 98.192 360.344 101.392 360.344 105.52C360.344 109.648 359.48 112.864 357.752 115.168C356.024 117.44 353.576 118.576 350.408 118.576C348.744 118.576 347.288 118.16 346.04 117.328C344.824 116.496 343.944 115.344 343.4 113.872H343.16V127.6H337.928V93.04ZM348.824 114.064C350.648 114.064 352.104 113.488 353.192 112.336C354.28 111.152 354.824 109.6 354.824 107.68V103.36C354.824 101.44 354.28 99.904 353.192 98.752C352.104 97.568 350.648 96.976 348.824 96.976C347.224 96.976 345.88 97.376 344.792 98.176C343.704 98.944 343.16 99.968 343.16 101.248V109.792C343.16 111.072 343.704 112.112 344.792 112.912C345.88 113.68 347.224 114.064 348.824 114.064ZM377.486 118V112.192H386.51V89.728H386.078L379.262 98.656L374.654 95.056L382.67 84.496H393.71V112.192H400.814V118H377.486Z" fill="#4B90F3"/>
</svg>
