<svg width="640" height="589" viewBox="0 0 640 589" fill="none" xmlns="http://www.w3.org/2000/svg">
<g clip-path="url(#clip0_30_108)">
<path d="M287.227 631.293L285.027 629.254L287.227 631.293ZM257.95 635.442L259.657 632.975L257.95 635.442ZM254.573 589.209L229.563 613.178L262.825 622.853L254.573 589.209ZM276.373 589.023C281.991 595.177 286.552 602.923 288.44 610.362C290.327 617.792 289.47 624.458 285.027 629.254L289.428 633.332C295.737 626.522 296.438 617.481 294.256 608.886C292.076 600.299 286.942 591.7 280.805 584.977L276.373 589.023ZM285.027 629.254C280.674 633.951 275.994 635.962 271.667 636.31C267.293 636.662 263.064 635.331 259.657 632.975L256.244 637.909C260.664 640.967 266.25 642.765 272.148 642.291C278.091 641.813 284.136 639.043 289.428 633.332L285.027 629.254ZM259.657 632.975C254.551 629.443 250.41 623.486 250.029 615L244.035 615.268C244.506 625.777 249.723 633.399 256.244 637.909L259.657 632.975Z" fill="#4B90F3"/>
<path d="M287.227 631.293L285.027 629.254L287.227 631.293ZM257.95 635.442L259.657 632.975L257.95 635.442ZM254.573 589.209L229.563 613.178L262.825 622.853L254.573 589.209ZM276.373 589.023C281.991 595.177 286.552 602.923 288.44 610.362C290.327 617.792 289.47 624.458 285.027 629.254L289.428 633.332C295.737 626.522 296.438 617.481 294.256 608.886C292.076 600.299 286.942 591.7 280.805 584.977L276.373 589.023ZM285.027 629.254C280.674 633.951 275.994 635.962 271.667 636.31C267.293 636.662 263.064 635.331 259.657 632.975L256.244 637.909C260.664 640.967 266.25 642.765 272.148 642.291C278.091 641.813 284.136 639.043 289.428 633.332L285.027 629.254ZM259.657 632.975C254.551 629.443 250.41 623.486 250.029 615L244.035 615.268C244.506 625.777 249.723 633.399 256.244 637.909L259.657 632.975Z" fill="#4B90F3"/>
<path d="M512.293 360.225L480.259 373.408L507.693 394.559L512.293 360.225ZM493.432 379.776L405.511 493.82L410.263 497.483L498.184 383.439L493.432 379.776Z" fill="#4B90F3"/>
<path d="M128 360.225L160.034 373.408L132.599 394.559L128 360.225ZM146.861 379.776L234.782 493.82L230.03 497.483L142.109 383.439L146.861 379.776Z" fill="#4B90F3"/>
<path d="M408 144.039L440.034 157.223L412.599 178.373L408 144.039ZM426.861 163.59L517.477 281.13L512.725 284.793L422.109 167.254L426.861 163.59Z" fill="#4B90F3"/>
<path d="M320 149L302.679 179H337.321L320 149ZM317 176V276H323V176H317Z" fill="#4B90F3"/>
<path d="M231.051 144.039L199.017 157.223L226.451 178.373L231.051 144.039ZM212.19 163.59L121.574 281.13L126.326 284.793L216.942 167.254L212.19 163.59Z" fill="#4B90F3"/>
<path d="M287.227 631.293L285.027 629.254L287.227 631.293ZM257.95 635.442L259.657 632.975L257.95 635.442ZM254.573 589.209L229.563 613.178L262.825 622.853L254.573 589.209ZM276.373 589.023C281.991 595.177 286.552 602.923 288.44 610.362C290.327 617.792 289.47 624.458 285.027 629.254L289.428 633.332C295.737 626.522 296.438 617.481 294.256 608.886C292.076 600.299 286.942 591.7 280.805 584.977L276.373 589.023ZM285.027 629.254C280.674 633.951 275.994 635.962 271.667 636.31C267.293 636.662 263.064 635.331 259.657 632.975L256.244 637.909C260.664 640.967 266.25 642.765 272.148 642.291C278.091 641.813 284.136 639.043 289.428 633.332L285.027 629.254ZM259.657 632.975C254.551 629.443 250.41 623.486 250.029 615L244.035 615.268C244.506 625.777 249.723 633.399 256.244 637.909L259.657 632.975Z" fill="#4B90F3"/>
<rect x="168" y="496" width="304" height="90" rx="45" stroke="#4B90F3" stroke-width="6"/>
<path d="M210.472 528.576C209.384 528.576 208.584 528.32 208.072 527.808C207.592 527.296 207.352 526.64 207.352 525.84V525.024C207.352 524.224 207.592 523.568 208.072 523.056C208.584 522.544 209.384 522.288 210.472 522.288C211.56 522.288 212.344 522.544 212.824 523.056C213.304 523.568 213.544 524.224 213.544 525.024V525.84C213.544 526.64 213.304 527.296 212.824 527.808C212.344 528.32 211.56 528.576 210.472 528.576ZM207.832 533.04H213.064V558H207.832V533.04ZM220.055 558V533.04H225.287V537.168H225.527C226.071 535.824 226.887 534.704 227.975 533.808C229.095 532.912 230.615 532.464 232.535 532.464C235.095 532.464 237.079 533.312 238.487 535.008C239.927 536.672 240.647 539.056 240.647 542.16V558H235.415V542.832C235.415 538.928 233.847 536.976 230.711 536.976C230.039 536.976 229.367 537.072 228.695 537.264C228.055 537.424 227.479 537.68 226.967 538.032C226.455 538.384 226.039 538.832 225.719 539.376C225.431 539.92 225.287 540.56 225.287 541.296V558H220.055ZM269.306 560.352C269.306 562.944 268.314 564.896 266.33 566.208C264.346 567.52 261.114 568.176 256.634 568.176C254.586 568.176 252.842 568.032 251.402 567.744C249.994 567.488 248.826 567.104 247.898 566.592C247.002 566.08 246.346 565.456 245.93 564.72C245.514 563.984 245.306 563.136 245.306 562.176C245.306 560.8 245.674 559.728 246.41 558.96C247.178 558.192 248.234 557.664 249.578 557.376V556.848C247.69 556.24 246.746 554.96 246.746 553.008C246.746 551.728 247.178 550.752 248.042 550.08C248.906 549.376 249.946 548.88 251.162 548.592V548.4C249.69 547.696 248.554 546.72 247.754 545.472C246.986 544.192 246.602 542.704 246.602 541.008C246.602 538.448 247.45 536.384 249.146 534.816C250.874 533.248 253.338 532.464 256.538 532.464C258.298 532.464 259.802 532.72 261.05 533.232V532.56C261.05 531.44 261.306 530.576 261.818 529.968C262.362 529.328 263.194 529.008 264.314 529.008H268.154V533.232H263.066V534.24C264.186 534.976 265.05 535.936 265.658 537.12C266.266 538.272 266.57 539.568 266.57 541.008C266.57 543.536 265.706 545.584 263.978 547.152C262.25 548.688 259.786 549.456 256.586 549.456C255.37 549.456 254.282 549.328 253.322 549.072C252.682 549.296 252.122 549.616 251.642 550.032C251.162 550.416 250.922 550.928 250.922 551.568C250.922 552.24 251.226 552.72 251.834 553.008C252.442 553.296 253.306 553.44 254.426 553.44H260.57C263.642 553.44 265.866 554.064 267.242 555.312C268.618 556.528 269.306 558.208 269.306 560.352ZM264.41 560.928C264.41 560.064 264.074 559.376 263.402 558.864C262.762 558.352 261.578 558.096 259.85 558.096H251.402C250.25 558.768 249.674 559.728 249.674 560.976C249.674 562 250.074 562.816 250.874 563.424C251.706 564.064 253.098 564.384 255.05 564.384H258.314C262.378 564.384 264.41 563.232 264.41 560.928ZM256.586 545.664C258.122 545.664 259.306 545.328 260.138 544.656C261.002 543.952 261.434 542.88 261.434 541.44V540.48C261.434 539.04 261.002 537.984 260.138 537.312C259.306 536.608 258.122 536.256 256.586 536.256C255.05 536.256 253.85 536.608 252.986 537.312C252.154 537.984 251.738 539.04 251.738 540.48V541.44C251.738 542.88 252.154 543.952 252.986 544.656C253.85 545.328 255.05 545.664 256.586 545.664ZM272.72 558V533.04H277.952V537.84H278.192C278.544 536.56 279.28 535.44 280.4 534.48C281.52 533.52 283.072 533.04 285.056 533.04H286.448V538.08H284.384C282.304 538.08 280.704 538.416 279.584 539.088C278.496 539.76 277.952 540.752 277.952 542.064V558H272.72ZM300.172 558.576C298.38 558.576 296.78 558.272 295.372 557.664C293.964 557.056 292.764 556.192 291.772 555.072C290.78 553.92 290.012 552.544 289.468 550.944C288.956 549.312 288.7 547.504 288.7 545.52C288.7 543.536 288.956 541.744 289.468 540.144C290.012 538.512 290.78 537.136 291.772 536.016C292.764 534.864 293.964 533.984 295.372 533.376C296.78 532.768 298.38 532.464 300.172 532.464C301.996 532.464 303.596 532.784 304.972 533.424C306.38 534.064 307.548 534.96 308.476 536.112C309.404 537.232 310.092 538.544 310.54 540.048C311.02 541.552 311.26 543.168 311.26 544.896V546.864H294.124V547.68C294.124 549.6 294.684 551.184 295.804 552.432C296.956 553.648 298.588 554.256 300.7 554.256C302.236 554.256 303.532 553.92 304.588 553.248C305.644 552.576 306.54 551.664 307.276 550.512L310.348 553.536C309.42 555.072 308.076 556.304 306.316 557.232C304.556 558.128 302.508 558.576 300.172 558.576ZM300.172 536.544C299.276 536.544 298.444 536.704 297.676 537.024C296.94 537.344 296.3 537.792 295.756 538.368C295.244 538.944 294.844 539.632 294.556 540.432C294.268 541.232 294.124 542.112 294.124 543.072V543.408H305.74V542.928C305.74 541.008 305.244 539.472 304.252 538.32C303.26 537.136 301.9 536.544 300.172 536.544ZM324.492 558.576C322.124 558.576 320.14 558.16 318.54 557.328C316.94 556.496 315.548 555.344 314.364 553.872L317.724 550.8C318.652 551.92 319.676 552.8 320.796 553.44C321.948 554.048 323.276 554.352 324.78 554.352C326.316 554.352 327.452 554.064 328.188 553.488C328.956 552.88 329.34 552.048 329.34 550.992C329.34 550.192 329.068 549.52 328.524 548.976C328.012 548.4 327.1 548.032 325.788 547.872L323.484 547.584C320.924 547.264 318.908 546.528 317.436 545.376C315.996 544.192 315.276 542.448 315.276 540.144C315.276 538.928 315.5 537.856 315.948 536.928C316.396 535.968 317.02 535.168 317.82 534.528C318.652 533.856 319.628 533.344 320.748 532.992C321.9 532.64 323.164 532.464 324.54 532.464C326.78 532.464 328.604 532.816 330.012 533.52C331.452 534.224 332.732 535.2 333.852 536.448L330.636 539.52C329.996 538.752 329.148 538.096 328.092 537.552C327.068 536.976 325.884 536.688 324.54 536.688C323.1 536.688 322.028 536.976 321.324 537.552C320.652 538.128 320.316 538.88 320.316 539.808C320.316 540.768 320.62 541.488 321.228 541.968C321.836 542.448 322.812 542.8 324.156 543.024L326.46 543.312C329.212 543.728 331.212 544.544 332.46 545.76C333.74 546.944 334.38 548.544 334.38 550.56C334.38 551.776 334.14 552.88 333.66 553.872C333.212 554.832 332.556 555.664 331.692 556.368C330.828 557.072 329.788 557.616 328.572 558C327.356 558.384 325.996 558.576 324.492 558.576ZM347.45 558.576C345.082 558.576 343.098 558.16 341.498 557.328C339.898 556.496 338.506 555.344 337.322 553.872L340.682 550.8C341.61 551.92 342.634 552.8 343.754 553.44C344.906 554.048 346.234 554.352 347.738 554.352C349.274 554.352 350.41 554.064 351.146 553.488C351.914 552.88 352.298 552.048 352.298 550.992C352.298 550.192 352.026 549.52 351.482 548.976C350.97 548.4 350.058 548.032 348.746 547.872L346.442 547.584C343.882 547.264 341.866 546.528 340.394 545.376C338.954 544.192 338.234 542.448 338.234 540.144C338.234 538.928 338.458 537.856 338.906 536.928C339.354 535.968 339.978 535.168 340.778 534.528C341.61 533.856 342.586 533.344 343.706 532.992C344.858 532.64 346.122 532.464 347.498 532.464C349.738 532.464 351.562 532.816 352.97 533.52C354.41 534.224 355.69 535.2 356.81 536.448L353.594 539.52C352.954 538.752 352.106 538.096 351.05 537.552C350.026 536.976 348.842 536.688 347.498 536.688C346.058 536.688 344.986 536.976 344.282 537.552C343.61 538.128 343.274 538.88 343.274 539.808C343.274 540.768 343.578 541.488 344.186 541.968C344.794 542.448 345.77 542.8 347.114 543.024L349.418 543.312C352.17 543.728 354.17 544.544 355.418 545.76C356.698 546.944 357.338 548.544 357.338 550.56C357.338 551.776 357.098 552.88 356.618 553.872C356.17 554.832 355.514 555.664 354.65 556.368C353.786 557.072 352.746 557.616 351.53 558C350.314 558.384 348.954 558.576 347.45 558.576ZM372.912 543.072C372.912 540.736 373.12 538.496 373.536 536.352C373.984 534.208 374.592 532.208 375.36 530.352C376.128 528.496 377.024 526.816 378.048 525.312C379.104 523.808 380.24 522.544 381.456 521.52H386.4C385.088 522.736 383.904 524.096 382.848 525.6C381.792 527.104 380.896 528.704 380.16 530.4C379.424 532.096 378.848 533.856 378.432 535.68C378.048 537.504 377.856 539.328 377.856 541.152V544.992C377.856 546.816 378.048 548.64 378.432 550.464C378.848 552.288 379.424 554.048 380.16 555.744C380.896 557.44 381.792 559.04 382.848 560.544C383.904 562.08 385.088 563.44 386.4 564.624H381.456C380.24 563.6 379.104 562.336 378.048 560.832C377.024 559.328 376.128 557.648 375.36 555.792C374.592 553.936 373.984 551.936 373.536 549.792C373.12 547.648 372.912 545.408 372.912 543.072ZM399.453 542.16L396.237 535.44H396.093V558H389.229V524.496H397.197L406.365 540.336L409.581 547.056H409.725V524.496H416.589V558H408.621L399.453 542.16ZM432.892 543.072C432.892 545.408 432.668 547.648 432.22 549.792C431.804 551.936 431.212 553.936 430.444 555.792C429.676 557.648 428.764 559.328 427.708 560.832C426.684 562.336 425.564 563.6 424.348 564.624H419.404C420.716 563.44 421.9 562.08 422.956 560.544C424.012 559.04 424.908 557.44 425.644 555.744C426.38 554.048 426.94 552.288 427.324 550.464C427.74 548.64 427.948 546.816 427.948 544.992V541.152C427.948 539.328 427.74 537.504 427.324 535.68C426.94 533.856 426.38 532.096 425.644 530.4C424.908 528.704 424.012 527.104 422.956 525.6C421.9 524.096 420.716 522.736 419.404 521.52H424.348C425.564 522.544 426.684 523.808 427.708 525.312C428.764 526.816 429.676 528.496 430.444 530.352C431.212 532.208 431.804 534.208 432.22 536.352C432.668 538.496 432.892 540.736 432.892 543.072Z" fill="#4B90F3"/>
<path d="M627.624 300.882L625.626 303.121L627.624 300.882ZM632.391 329.806L634.894 331.46L632.391 329.806ZM586.729 333.89L611.179 358.429L620.206 324.985L586.729 333.89ZM586.066 312.319C592.022 306.664 599.573 302.029 606.88 300.043C614.175 298.06 620.783 298.798 625.626 303.121L629.621 298.644C622.741 292.505 613.774 291.951 605.306 294.253C596.851 296.551 588.452 301.779 581.934 307.969L586.066 312.319ZM625.626 303.121C634.929 311.421 634.323 321.441 629.888 328.152L634.894 331.46C640.817 322.498 641.35 309.11 629.621 298.644L625.626 303.121ZM629.888 328.152C626.548 333.205 620.838 337.361 612.589 337.933L613.004 343.918C623.263 343.207 630.608 337.945 634.894 331.46L629.888 328.152Z" fill="#4B90F3"/>
<rect x="495" y="276" width="90" height="90" rx="45" stroke="#4B90F3" stroke-width="6"/>
<path d="M552.412 338H527.596V333.152L545.788 309.296H528.556V304.496H551.884V309.344L533.692 333.2H552.412V338Z" fill="#4B90F3"/>
<path d="M407.624 300.882L405.626 303.121L407.624 300.882ZM412.391 329.806L414.894 331.46L412.391 329.806ZM366.729 333.89L391.179 358.429L400.206 324.985L366.729 333.89ZM366.066 312.319C372.022 306.664 379.573 302.029 386.88 300.043C394.175 298.06 400.783 298.798 405.626 303.121L409.621 298.644C402.741 292.505 393.774 291.951 385.306 294.253C376.851 296.551 368.452 301.779 361.934 307.969L366.066 312.319ZM405.626 303.121C414.929 311.421 414.323 321.441 409.888 328.152L414.894 331.46C420.817 322.498 421.35 309.11 409.621 298.644L405.626 303.121ZM409.888 328.152C406.548 333.205 400.838 337.361 392.589 337.933L393.004 343.918C403.263 343.207 410.608 337.945 414.894 331.46L409.888 328.152Z" fill="#4B90F3"/>
<rect x="275" y="276" width="90" height="90" rx="45" stroke="#4B90F3" stroke-width="6"/>
<path d="M317.236 338V324.8L305.716 304.496H311.908L320.068 319.424H320.212L328.324 304.496H334.276L322.66 324.704V338H317.236Z" fill="#4B90F3"/>
<path d="M187.624 300.882L185.626 303.121L187.624 300.882ZM192.391 329.806L194.894 331.46L192.391 329.806ZM146.729 333.89L171.179 358.429L180.206 324.985L146.729 333.89ZM146.066 312.319C152.022 306.664 159.573 302.029 166.88 300.043C174.175 298.06 180.783 298.798 185.626 303.121L189.621 298.644C182.741 292.505 173.774 291.951 165.306 294.253C156.851 296.551 148.452 301.779 141.934 307.969L146.066 312.319ZM185.626 303.121C194.929 311.421 194.323 321.441 189.888 328.152L194.894 331.46C200.817 322.498 201.35 309.11 189.621 298.644L185.626 303.121ZM189.888 328.152C186.548 333.205 180.838 337.361 172.589 337.933L173.004 343.918C183.263 343.207 190.608 337.945 194.894 331.46L189.888 328.152Z" fill="#4B90F3"/>
<rect x="55" y="276" width="90" height="90" rx="45" stroke="#4B90F3" stroke-width="6"/>
<path d="M114.336 338H107.952L99.8399 324.656H99.6959L91.6799 338H85.6799L96.5279 320.864L86.0639 304.496H92.4479L100.08 316.976H100.176L107.904 304.496H113.904L103.344 320.816L114.336 338Z" fill="#4B90F3"/>
<path d="M300.222 12.0173L302.402 14.0788L300.222 12.0173ZM329.9 7.89685L328.217 10.3804L329.9 7.89685ZM333.324 53.8063L358.422 29.9297L325.196 20.1325L333.324 53.8063ZM311.174 53.9548C305.478 47.8422 300.86 40.1555 298.949 32.7819C297.042 25.4249 297.906 18.8317 302.402 14.0788L298.043 9.95576C291.639 16.7259 290.923 25.7303 293.141 34.2871C295.354 42.8273 300.564 51.3704 306.784 58.0452L311.174 53.9548ZM302.402 14.0788C311.061 4.92411 321.367 5.73867 328.217 10.3804L331.583 5.41332C322.566 -0.696577 308.936 -1.56119 298.043 9.95576L302.402 14.0788ZM328.217 10.3804C333.378 13.8771 337.541 19.7417 337.964 28.0609L343.957 27.7557C343.428 17.3749 338.145 9.85954 331.583 5.41332L328.217 10.3804Z" fill="#4B90F3"/>
<rect x="168" y="56" width="304" height="90" rx="45" stroke="#4B90F3" stroke-width="6"/>
<path d="M224.321 118.576C222.529 118.576 220.929 118.272 219.521 117.664C218.113 117.056 216.913 116.192 215.921 115.072C214.929 113.92 214.161 112.544 213.617 110.944C213.105 109.312 212.849 107.504 212.849 105.52C212.849 103.536 213.105 101.744 213.617 100.144C214.161 98.512 214.929 97.136 215.921 96.016C216.913 94.864 218.113 93.984 219.521 93.376C220.929 92.768 222.529 92.464 224.321 92.464C226.145 92.464 227.745 92.784 229.121 93.424C230.529 94.064 231.697 94.96 232.625 96.112C233.553 97.232 234.241 98.544 234.689 100.048C235.169 101.552 235.409 103.168 235.409 104.896V106.864H218.273V107.68C218.273 109.6 218.833 111.184 219.953 112.432C221.105 113.648 222.737 114.256 224.849 114.256C226.385 114.256 227.681 113.92 228.737 113.248C229.793 112.576 230.689 111.664 231.425 110.512L234.497 113.536C233.569 115.072 232.225 116.304 230.465 117.232C228.705 118.128 226.657 118.576 224.321 118.576ZM224.321 96.544C223.425 96.544 222.593 96.704 221.825 97.024C221.089 97.344 220.449 97.792 219.905 98.368C219.393 98.944 218.993 99.632 218.705 100.432C218.417 101.232 218.273 102.112 218.273 103.072V103.408H229.889V102.928C229.889 101.008 229.393 99.472 228.401 98.32C227.409 97.136 226.049 96.544 224.321 96.544ZM262.609 120.352C262.609 122.944 261.617 124.896 259.633 126.208C257.649 127.52 254.417 128.176 249.937 128.176C247.889 128.176 246.145 128.032 244.705 127.744C243.297 127.488 242.129 127.104 241.201 126.592C240.305 126.08 239.649 125.456 239.233 124.72C238.817 123.984 238.609 123.136 238.609 122.176C238.609 120.8 238.977 119.728 239.713 118.96C240.481 118.192 241.537 117.664 242.881 117.376V116.848C240.993 116.24 240.049 114.96 240.049 113.008C240.049 111.728 240.481 110.752 241.345 110.08C242.209 109.376 243.249 108.88 244.465 108.592V108.4C242.993 107.696 241.857 106.72 241.057 105.472C240.289 104.192 239.905 102.704 239.905 101.008C239.905 98.448 240.753 96.384 242.449 94.816C244.177 93.248 246.641 92.464 249.841 92.464C251.601 92.464 253.105 92.72 254.353 93.232V92.56C254.353 91.44 254.609 90.576 255.121 89.968C255.665 89.328 256.497 89.008 257.617 89.008H261.457V93.232H256.369V94.24C257.489 94.976 258.353 95.936 258.961 97.12C259.569 98.272 259.873 99.568 259.873 101.008C259.873 103.536 259.009 105.584 257.281 107.152C255.553 108.688 253.089 109.456 249.889 109.456C248.673 109.456 247.585 109.328 246.625 109.072C245.985 109.296 245.425 109.616 244.945 110.032C244.465 110.416 244.225 110.928 244.225 111.568C244.225 112.24 244.529 112.72 245.137 113.008C245.745 113.296 246.609 113.44 247.729 113.44H253.873C256.945 113.44 259.169 114.064 260.545 115.312C261.921 116.528 262.609 118.208 262.609 120.352ZM257.713 120.928C257.713 120.064 257.377 119.376 256.705 118.864C256.065 118.352 254.881 118.096 253.153 118.096H244.705C243.553 118.768 242.977 119.728 242.977 120.976C242.977 122 243.377 122.816 244.177 123.424C245.009 124.064 246.401 124.384 248.353 124.384H251.617C255.681 124.384 257.713 123.232 257.713 120.928ZM249.889 105.664C251.425 105.664 252.609 105.328 253.441 104.656C254.305 103.952 254.737 102.88 254.737 101.44V100.48C254.737 99.04 254.305 97.984 253.441 97.312C252.609 96.608 251.425 96.256 249.889 96.256C248.353 96.256 247.153 96.608 246.289 97.312C245.457 97.984 245.041 99.04 245.041 100.48V101.44C245.041 102.88 245.457 103.952 246.289 104.656C247.153 105.328 248.353 105.664 249.889 105.664ZM266.022 118V93.04H271.254V97.84H271.494C271.846 96.56 272.582 95.44 273.702 94.48C274.822 93.52 276.374 93.04 278.358 93.04H279.75V98.08H277.686C275.606 98.08 274.006 98.416 272.886 99.088C271.798 99.76 271.254 100.752 271.254 102.064V118H266.022ZM293.475 118.576C291.683 118.576 290.083 118.272 288.675 117.664C287.267 117.056 286.067 116.192 285.075 115.072C284.083 113.92 283.315 112.544 282.771 110.944C282.259 109.312 282.003 107.504 282.003 105.52C282.003 103.536 282.259 101.744 282.771 100.144C283.315 98.512 284.083 97.136 285.075 96.016C286.067 94.864 287.267 93.984 288.675 93.376C290.083 92.768 291.683 92.464 293.475 92.464C295.299 92.464 296.899 92.784 298.275 93.424C299.683 94.064 300.851 94.96 301.779 96.112C302.707 97.232 303.395 98.544 303.843 100.048C304.323 101.552 304.563 103.168 304.563 104.896V106.864H287.427V107.68C287.427 109.6 287.987 111.184 289.107 112.432C290.259 113.648 291.891 114.256 294.003 114.256C295.539 114.256 296.835 113.92 297.891 113.248C298.947 112.576 299.843 111.664 300.579 110.512L303.651 113.536C302.723 115.072 301.379 116.304 299.619 117.232C297.859 118.128 295.811 118.576 293.475 118.576ZM293.475 96.544C292.579 96.544 291.747 96.704 290.979 97.024C290.243 97.344 289.603 97.792 289.059 98.368C288.547 98.944 288.147 99.632 287.859 100.432C287.571 101.232 287.427 102.112 287.427 103.072V103.408H299.043V102.928C299.043 101.008 298.547 99.472 297.555 98.32C296.563 97.136 295.203 96.544 293.475 96.544ZM317.795 118.576C315.427 118.576 313.443 118.16 311.843 117.328C310.243 116.496 308.851 115.344 307.667 113.872L311.027 110.8C311.955 111.92 312.979 112.8 314.099 113.44C315.251 114.048 316.579 114.352 318.083 114.352C319.619 114.352 320.755 114.064 321.491 113.488C322.259 112.88 322.643 112.048 322.643 110.992C322.643 110.192 322.371 109.52 321.827 108.976C321.315 108.4 320.403 108.032 319.091 107.872L316.787 107.584C314.227 107.264 312.211 106.528 310.739 105.376C309.299 104.192 308.579 102.448 308.579 100.144C308.579 98.928 308.803 97.856 309.251 96.928C309.699 95.968 310.323 95.168 311.123 94.528C311.955 93.856 312.931 93.344 314.051 92.992C315.203 92.64 316.467 92.464 317.843 92.464C320.083 92.464 321.907 92.816 323.315 93.52C324.755 94.224 326.035 95.2 327.155 96.448L323.939 99.52C323.299 98.752 322.451 98.096 321.395 97.552C320.371 96.976 319.187 96.688 317.843 96.688C316.403 96.688 315.331 96.976 314.627 97.552C313.955 98.128 313.619 98.88 313.619 99.808C313.619 100.768 313.923 101.488 314.531 101.968C315.139 102.448 316.115 102.8 317.459 103.024L319.763 103.312C322.515 103.728 324.515 104.544 325.763 105.76C327.043 106.944 327.683 108.544 327.683 110.56C327.683 111.776 327.443 112.88 326.963 113.872C326.515 114.832 325.859 115.664 324.995 116.368C324.131 117.072 323.091 117.616 321.875 118C320.659 118.384 319.299 118.576 317.795 118.576ZM340.752 118.576C338.384 118.576 336.4 118.16 334.8 117.328C333.2 116.496 331.808 115.344 330.624 113.872L333.984 110.8C334.912 111.92 335.936 112.8 337.056 113.44C338.208 114.048 339.536 114.352 341.04 114.352C342.576 114.352 343.712 114.064 344.448 113.488C345.216 112.88 345.6 112.048 345.6 110.992C345.6 110.192 345.328 109.52 344.784 108.976C344.272 108.4 343.36 108.032 342.048 107.872L339.744 107.584C337.184 107.264 335.168 106.528 333.696 105.376C332.256 104.192 331.536 102.448 331.536 100.144C331.536 98.928 331.76 97.856 332.208 96.928C332.656 95.968 333.28 95.168 334.08 94.528C334.912 93.856 335.888 93.344 337.008 92.992C338.16 92.64 339.424 92.464 340.8 92.464C343.04 92.464 344.864 92.816 346.272 93.52C347.712 94.224 348.992 95.2 350.112 96.448L346.896 99.52C346.256 98.752 345.408 98.096 344.352 97.552C343.328 96.976 342.144 96.688 340.8 96.688C339.36 96.688 338.288 96.976 337.584 97.552C336.912 98.128 336.576 98.88 336.576 99.808C336.576 100.768 336.88 101.488 337.488 101.968C338.096 102.448 339.072 102.8 340.416 103.024L342.72 103.312C345.472 103.728 347.472 104.544 348.72 105.76C350 106.944 350.64 108.544 350.64 110.56C350.64 111.776 350.4 112.88 349.92 113.872C349.472 114.832 348.816 115.664 347.952 116.368C347.088 117.072 346.048 117.616 344.832 118C343.616 118.384 342.256 118.576 340.752 118.576ZM366.215 103.072C366.215 100.736 366.423 98.496 366.839 96.352C367.287 94.208 367.895 92.208 368.663 90.352C369.431 88.496 370.327 86.816 371.351 85.312C372.407 83.808 373.543 82.544 374.759 81.52H379.703C378.391 82.736 377.207 84.096 376.151 85.6C375.095 87.104 374.199 88.704 373.463 90.4C372.727 92.096 372.151 93.856 371.735 95.68C371.351 97.504 371.159 99.328 371.159 101.152V104.992C371.159 106.816 371.351 108.64 371.735 110.464C372.151 112.288 372.727 114.048 373.463 115.744C374.199 117.44 375.095 119.04 376.151 120.544C377.207 122.08 378.391 123.44 379.703 124.624H374.759C373.543 123.6 372.407 122.336 371.351 120.832C370.327 119.328 369.431 117.648 368.663 115.792C367.895 113.936 367.287 111.936 366.839 109.792C366.423 107.648 366.215 105.408 366.215 103.072ZM392.756 102.16L389.54 95.44H389.396V118H382.532V84.496H390.5L399.668 100.336L402.884 107.056H403.028V84.496H409.892V118H401.924L392.756 102.16ZM426.194 103.072C426.194 105.408 425.97 107.648 425.522 109.792C425.106 111.936 424.514 113.936 423.746 115.792C422.978 117.648 422.066 119.328 421.01 120.832C419.986 122.336 418.866 123.6 417.65 124.624H412.706C414.018 123.44 415.202 122.08 416.258 120.544C417.314 119.04 418.21 117.44 418.946 115.744C419.682 114.048 420.242 112.288 420.626 110.464C421.042 108.64 421.25 106.816 421.25 104.992V101.152C421.25 99.328 421.042 97.504 420.626 95.68C420.242 93.856 419.682 92.096 418.946 90.4C418.21 88.704 417.314 87.104 416.258 85.6C415.202 84.096 414.018 82.736 412.706 81.52H417.65C418.866 82.544 419.986 83.808 421.01 85.312C422.066 86.816 422.978 88.496 423.746 90.352C424.514 92.208 425.106 94.208 425.522 96.352C425.97 98.496 426.194 100.736 426.194 103.072Z" fill="#4B90F3"/>
</g>
<defs>
<clipPath id="clip0_30_108">
<rect width="640" height="589" fill="white"/>
</clipPath>
</defs>
</svg>
