<svg width="640" height="458" viewBox="0 0 640 458" fill="none" xmlns="http://www.w3.org/2000/svg">
<path d="M131.5 357.5L137.113 373.886L148.497 360.832L131.5 357.5ZM137.465 364.46C139.041 365.707 140.648 366.933 142.285 368.137L144.062 365.72C142.453 364.536 140.874 363.332 139.327 362.108L137.465 364.46ZM147.24 371.651C148.896 372.785 150.58 373.898 152.29 374.99L153.905 372.462C152.221 371.386 150.564 370.291 148.935 369.176L147.24 371.651ZM157.456 378.179C159.178 379.207 160.925 380.215 162.695 381.204L164.158 378.585C162.412 377.61 160.69 376.616 158.994 375.603L157.456 378.179ZM168.029 384.089C169.806 385.02 171.605 385.931 173.424 386.825L174.747 384.132C172.95 383.25 171.174 382.35 169.42 381.431L168.029 384.089ZM178.892 389.426C180.716 390.266 182.559 391.089 184.419 391.894L185.61 389.14C183.771 388.345 181.95 387.532 180.148 386.701L178.892 389.426ZM189.994 394.231C191.857 394.987 193.737 395.727 195.632 396.449L196.701 393.646C194.825 392.931 192.966 392.2 191.123 391.451L189.994 394.231ZM201.293 398.54C203.19 399.218 205.101 399.88 207.025 400.525L207.979 397.681C206.073 397.042 204.181 396.387 202.304 395.715L201.293 398.54ZM212.756 402.386C214.678 402.99 216.614 403.578 218.561 404.15L219.407 401.271C217.477 400.705 215.56 400.122 213.655 399.524L212.756 402.386ZM224.354 405.795C226.294 406.327 228.245 406.844 230.205 407.346L230.949 404.439C229.005 403.942 227.071 403.43 225.148 402.902L224.354 405.795ZM236.064 408.791C238.019 409.256 239.982 409.706 241.954 410.14L242.6 407.21C240.644 406.779 238.697 406.333 236.758 405.873L236.064 408.791ZM247.868 411.393C249.834 411.794 251.808 412.179 253.789 412.55L254.341 409.601C252.376 409.233 250.417 408.851 248.466 408.454L247.868 411.393ZM259.746 413.618C261.723 413.956 263.706 414.28 265.695 414.59L266.156 411.626C264.183 411.318 262.215 410.997 260.252 410.661L259.746 413.618ZM271.676 415.475C273.665 415.755 275.659 416.02 277.657 416.271L278.031 413.294C276.047 413.045 274.068 412.782 272.093 412.505L271.676 415.475ZM283.654 416.979C285.654 417.201 287.657 417.408 289.662 417.601L289.95 414.615C287.958 414.423 285.97 414.217 283.984 413.997L283.654 416.979ZM295.674 418.136C297.68 418.3 299.688 418.451 301.697 418.586L301.9 415.593C299.905 415.458 297.911 415.309 295.919 415.146L295.674 418.136ZM307.723 418.951C309.733 419.059 311.743 419.152 313.753 419.231L313.871 416.234C311.875 416.155 309.879 416.062 307.884 415.956L307.723 418.951ZM319.79 419.427C321.803 419.478 323.815 419.514 325.825 419.537L325.859 416.537C323.863 416.515 321.865 416.478 319.866 416.428L319.79 419.427ZM331.863 419.562C333.878 419.556 335.892 419.536 337.903 419.502L337.852 416.502C335.855 416.536 333.856 416.556 331.854 416.562L331.863 419.562ZM343.93 419.355C345.949 419.292 347.964 419.214 349.975 419.121L349.838 416.125C347.841 416.216 345.84 416.294 343.836 416.357L343.93 419.355ZM355.996 418.801C358.012 418.678 360.024 418.541 362.029 418.39L361.803 415.398C359.812 415.549 357.816 415.685 355.815 415.806L355.996 418.801ZM368.045 417.89C370.054 417.707 372.058 417.51 374.054 417.298L373.737 414.315C371.756 414.525 369.768 414.721 367.774 414.902L368.045 417.89ZM380.062 416.612C382.061 416.367 384.052 416.108 386.035 415.833L385.624 412.861C383.657 413.134 381.681 413.391 379.698 413.634L380.062 416.612ZM392.031 414.952C394.021 414.643 396.001 414.318 397.971 413.978L397.46 411.022C395.507 411.359 393.544 411.681 391.571 411.988L392.031 414.952ZM403.939 412.893C405.921 412.515 407.892 412.121 409.85 411.71L409.234 408.774C407.294 409.181 405.341 409.572 403.377 409.947L403.939 412.893ZM415.768 410.412C417.739 409.961 419.696 409.492 421.64 409.007L420.913 406.096C418.989 406.577 417.05 407.041 415.097 407.488L415.768 410.412ZM427.495 407.482C429.452 406.951 431.392 406.403 433.316 405.837L432.47 402.959C430.566 403.519 428.646 404.061 426.71 404.587L427.495 407.482ZM439.096 404.068C441.032 403.452 442.95 402.818 444.848 402.165L443.872 399.328C441.996 399.973 440.101 400.6 438.187 401.209L439.096 404.068ZM450.538 400.13C452.446 399.421 454.333 398.693 456.197 397.945L455.08 395.161C453.24 395.899 451.378 396.618 449.493 397.318L450.538 400.13ZM461.777 395.619C463.648 394.809 465.493 393.978 467.312 393.126L466.04 390.409C464.248 391.248 462.429 392.067 460.585 392.866L461.777 395.619ZM472.756 390.477C474.576 389.556 476.366 388.613 478.126 387.648L476.684 385.018C474.953 385.966 473.192 386.894 471.402 387.8L472.756 390.477ZM483.397 384.638C485.149 383.596 486.866 382.531 488.549 381.442L486.919 378.924C485.269 379.991 483.583 381.037 481.863 382.06L483.397 384.638ZM493.595 378.031C495.257 376.857 496.879 375.659 498.461 374.435L496.626 372.062C495.079 373.259 493.491 374.431 491.865 375.581L493.595 378.031ZM503.211 370.581C504.763 369.259 506.269 367.91 507.729 366.533L505.672 364.35C504.249 365.691 502.78 367.007 501.265 368.297L503.211 370.581ZM512.063 362.222C512.76 361.49 513.444 360.75 514.116 360.003L511.884 357.997C511.232 358.723 510.567 359.442 509.889 360.154L512.063 362.222ZM131.5 357.5L142.726 390.272L165.494 364.164L131.5 357.5ZM136.534 365.636C138.124 366.895 139.745 368.131 141.397 369.345L144.951 364.511C143.355 363.338 141.791 362.145 140.258 360.932L136.534 365.636ZM146.393 372.889C148.062 374.032 149.759 375.153 151.483 376.254L154.712 371.198C153.041 370.13 151.397 369.044 149.782 367.938L146.393 372.889ZM156.687 379.467C158.422 380.502 160.181 381.518 161.963 382.514L164.89 377.276C163.156 376.307 161.447 375.32 159.762 374.315L156.687 379.467ZM167.333 385.418C169.122 386.355 170.932 387.272 172.763 388.171L175.408 382.786C173.622 381.909 171.858 381.015 170.116 380.102L167.333 385.418ZM178.264 390.788C180.099 391.634 181.952 392.461 183.824 393.271L186.206 387.764C184.377 386.973 182.566 386.164 180.775 385.339L178.264 390.788ZM189.43 395.62C191.303 396.381 193.193 397.125 195.098 397.851L197.235 392.245C195.37 391.533 193.52 390.806 191.687 390.061L189.43 395.62ZM200.788 399.952C202.694 400.634 204.614 401.299 206.548 401.948L208.456 396.259C206.559 395.623 204.676 394.971 202.809 394.303L200.788 399.952ZM212.306 403.817C214.238 404.424 216.182 405.014 218.138 405.589L219.83 399.832C217.909 399.268 216 398.688 214.104 398.092L212.306 403.817ZM223.957 407.242C225.905 407.776 227.865 408.295 229.834 408.799L231.32 402.986C229.385 402.491 227.459 401.981 225.545 401.455L223.957 407.242ZM235.717 410.251C237.68 410.717 239.651 411.169 241.631 411.605L242.922 405.746C240.975 405.316 239.035 404.872 237.105 404.413L235.717 410.251ZM247.569 412.863C249.543 413.265 251.525 413.652 253.513 414.025L254.617 408.127C252.659 407.76 250.709 407.379 248.765 406.984L247.569 412.863ZM259.493 415.096C261.478 415.436 263.468 415.761 265.464 416.072L266.387 410.144C264.421 409.837 262.46 409.517 260.506 409.182L259.493 415.096ZM271.467 416.961C273.464 417.241 275.465 417.507 277.47 417.759L278.217 411.806C276.241 411.558 274.269 411.295 272.301 411.019L271.467 416.961ZM283.489 418.47C285.496 418.692 287.506 418.9 289.518 419.094L290.093 413.122C288.109 412.931 286.128 412.726 284.15 412.506L283.489 418.47ZM295.552 419.631C297.565 419.796 299.58 419.947 301.596 420.083L302.001 414.097C300.013 413.962 298.026 413.814 296.041 413.651L295.552 419.631ZM307.643 420.449C309.66 420.557 311.677 420.651 313.694 420.73L313.93 414.735C311.941 414.656 309.952 414.564 307.964 414.458L307.643 420.449ZM319.752 420.926C321.772 420.977 323.791 421.014 325.809 421.037L325.876 415.037C323.886 415.015 321.895 414.978 319.904 414.928L319.752 420.926ZM331.867 421.062C333.89 421.056 335.911 421.036 337.929 421.001L337.826 415.002C335.837 415.036 333.844 415.056 331.85 415.062L331.867 421.062ZM343.977 420.854C346.003 420.791 348.026 420.713 350.044 420.62L349.769 414.626C347.779 414.718 345.786 414.795 343.789 414.857L343.977 420.854ZM356.087 420.298C358.111 420.175 360.129 420.038 362.142 419.886L361.69 413.903C359.707 414.053 357.718 414.188 355.724 414.309L356.087 420.298ZM368.181 419.384C370.198 419.2 372.208 419.002 374.212 418.789L373.578 412.823C371.605 413.033 369.625 413.228 367.638 413.408L368.181 419.384ZM380.243 418.101C382.251 417.855 384.25 417.595 386.241 417.319L385.418 411.376C383.459 411.647 381.491 411.903 379.516 412.145L380.243 418.101ZM392.262 416.434C394.259 416.124 396.248 415.798 398.226 415.456L397.205 409.544C395.26 409.88 393.305 410.2 391.34 410.506L392.262 416.434ZM404.221 414.367C406.211 413.987 408.19 413.591 410.157 413.178L408.927 407.306C406.995 407.711 405.051 408.1 403.096 408.473L404.221 414.367ZM416.103 411.875C418.083 411.421 420.05 410.95 422.003 410.462L420.549 404.641C418.635 405.119 416.705 405.581 414.762 406.026L416.103 411.875ZM427.888 408.93C429.854 408.396 431.805 407.845 433.739 407.276L432.046 401.52C430.153 402.077 428.243 402.616 426.317 403.139L427.888 408.93ZM439.551 405.498C441.498 404.878 443.427 404.24 445.336 403.583L443.384 397.909C441.52 398.551 439.635 399.174 437.732 399.78L439.551 405.498ZM451.06 401.536C452.98 400.823 454.879 400.09 456.755 399.337L454.522 393.769C452.694 394.502 450.844 395.216 448.971 395.912L451.06 401.536ZM462.373 396.995C464.257 396.179 466.115 395.343 467.948 394.485L465.405 389.051C463.626 389.883 461.82 390.696 459.989 391.489L462.373 396.995ZM473.434 391.815C475.267 390.887 477.072 389.937 478.847 388.964L475.963 383.702C474.247 384.643 472.501 385.563 470.724 386.462L473.434 391.815ZM484.164 385.927C485.931 384.876 487.665 383.801 489.364 382.702L486.104 377.664C484.47 378.722 482.801 379.757 481.097 380.771L484.164 385.927ZM494.461 379.256C496.139 378.07 497.779 376.859 499.379 375.621L495.708 370.876C494.179 372.058 492.609 373.218 490.999 374.355L494.461 379.256ZM504.183 371.723C505.754 370.385 507.279 369.019 508.758 367.625L504.643 363.259C503.239 364.582 501.789 365.881 500.293 367.155L504.183 371.723ZM513.15 363.256C513.856 362.513 514.55 361.763 515.231 361.005L510.769 356.995C510.126 357.71 509.471 358.418 508.803 359.121L513.15 363.256Z" fill="#14BF06"/>
<path d="M503 290L494.314 275.015L485.68 290.029L503 290ZM495.745 284.221C493.924 283.245 492.118 282.306 490.323 281.404L488.976 284.084C490.746 284.974 492.529 285.901 494.327 286.865L495.745 284.221ZM484.824 278.736C482.95 277.861 481.091 277.027 479.244 276.234L478.06 278.99C479.877 279.771 481.708 280.592 483.554 281.454L484.824 278.736ZM473.582 273.916C471.654 273.166 469.74 272.462 467.839 271.804L466.857 274.639C468.722 275.284 470.601 275.975 472.494 276.712L473.582 273.916ZM462.001 269.914C460.015 269.316 458.042 268.77 456.082 268.274L455.347 271.183C457.262 271.667 459.192 272.202 461.137 272.787L462.001 269.914ZM450.093 266.911C448.064 266.501 446.049 266.147 444.045 265.849L443.603 268.816C445.555 269.107 447.52 269.452 449.499 269.852L450.093 266.911ZM437.936 265.108C435.876 264.916 433.828 264.784 431.791 264.711L431.685 267.709C433.663 267.78 435.654 267.908 437.657 268.095L437.936 265.108ZM425.636 264.675C423.575 264.725 421.525 264.836 419.484 265.01L419.738 267.999C421.718 267.831 423.708 267.722 425.708 267.674L425.636 264.675ZM413.364 265.72C411.334 266.018 409.313 266.378 407.298 266.8L407.913 269.736C409.869 269.327 411.831 268.977 413.8 268.688L413.364 265.72ZM401.314 268.238C399.345 268.773 397.382 269.367 395.423 270.019L396.371 272.865C398.277 272.23 400.186 271.653 402.1 271.133L401.314 268.238ZM389.639 272.121C387.751 272.863 385.867 273.661 383.986 274.512L385.222 277.245C387.059 276.414 388.897 275.636 390.737 274.912L389.639 272.121ZM378.454 277.173C376.65 278.092 374.848 279.06 373.046 280.078L374.521 282.69C376.287 281.693 378.052 280.745 379.816 279.846L378.454 277.173ZM367.768 283.198C366.054 284.257 364.339 285.359 362.622 286.506L364.288 289.001C365.976 287.873 367.661 286.79 369.344 285.751L367.768 283.198ZM357.593 289.986C356.765 290.579 355.937 291.181 355.108 291.794L356.892 294.206C357.708 293.602 358.524 293.009 359.339 292.425L357.593 289.986ZM503 290L485.629 260.029L468.359 290.058L503 290ZM496.453 282.899C494.622 281.917 492.803 280.972 490.997 280.064L488.302 285.424C490.06 286.308 491.832 287.229 493.618 288.186L496.453 282.899ZM485.459 277.377C483.571 276.495 481.697 275.655 479.835 274.855L477.468 280.369C479.271 281.142 481.087 281.957 482.919 282.813L485.459 277.377ZM474.126 272.518C472.181 271.762 470.249 271.051 468.33 270.386L466.367 276.056C468.213 276.695 470.074 277.38 471.95 278.11L474.126 272.518ZM462.434 268.478C460.426 267.874 458.432 267.321 456.449 266.82L454.979 272.637C456.873 273.116 458.781 273.644 460.705 274.223L462.434 268.478ZM450.39 265.441C448.337 265.026 446.296 264.668 444.266 264.365L443.382 270.3C445.308 270.587 447.247 270.927 449.202 271.322L450.39 265.441ZM438.075 263.614C435.987 263.42 433.91 263.286 431.844 263.212L431.631 269.208C433.581 269.278 435.543 269.404 437.518 269.588L438.075 263.614ZM425.6 263.176C423.508 263.226 421.428 263.339 419.357 263.515L419.865 269.494C421.815 269.328 423.774 269.221 425.744 269.174L425.6 263.176ZM413.146 264.235C411.086 264.538 409.035 264.904 406.991 265.332L408.22 271.204C410.147 270.801 412.079 270.457 414.018 270.172L413.146 264.235ZM400.921 266.791C398.924 267.333 396.934 267.935 394.949 268.596L396.845 274.288C398.725 273.662 400.607 273.093 402.493 272.581L400.921 266.791ZM389.089 270.725C387.178 271.477 385.271 272.284 383.367 273.145L385.841 278.612C387.656 277.791 389.471 277.023 391.287 276.308L389.089 270.725ZM377.773 275.836C375.95 276.765 374.129 277.744 372.308 278.772L375.259 283.997C377.007 283.009 378.752 282.071 380.497 281.182L377.773 275.836ZM366.98 281.922C365.25 282.99 363.52 284.102 361.789 285.258L365.122 290.248C366.795 289.13 368.465 288.057 370.132 287.027L366.98 281.922ZM356.72 288.766C355.886 289.363 355.052 289.97 354.217 290.587L357.783 295.413C358.594 294.813 359.404 294.224 360.213 293.645L356.72 288.766Z" fill="#14BF06"/>
<path d="M283 290L274.314 275.015L265.68 290.029L283 290ZM275.745 284.221C273.924 283.245 272.118 282.306 270.323 281.404L268.976 284.084C270.746 284.974 272.529 285.901 274.327 286.865L275.745 284.221ZM264.824 278.736C262.95 277.861 261.091 277.027 259.244 276.234L258.06 278.99C259.877 279.771 261.708 280.592 263.554 281.454L264.824 278.736ZM253.582 273.916C251.654 273.166 249.74 272.462 247.839 271.804L246.857 274.639C248.722 275.284 250.601 275.975 252.494 276.712L253.582 273.916ZM242.001 269.914C240.015 269.316 238.042 268.77 236.082 268.274L235.347 271.183C237.262 271.667 239.192 272.202 241.137 272.787L242.001 269.914ZM230.093 266.911C228.064 266.501 226.049 266.147 224.045 265.849L223.603 268.816C225.555 269.107 227.52 269.452 229.499 269.852L230.093 266.911ZM217.936 265.108C215.876 264.916 213.828 264.784 211.791 264.711L211.685 267.709C213.663 267.78 215.654 267.908 217.657 268.095L217.936 265.108ZM205.636 264.675C203.575 264.725 201.525 264.836 199.484 265.01L199.738 267.999C201.718 267.831 203.708 267.722 205.708 267.674L205.636 264.675ZM193.364 265.72C191.334 266.018 189.313 266.378 187.298 266.8L187.913 269.736C189.869 269.327 191.831 268.977 193.8 268.688L193.364 265.72ZM181.314 268.238C179.345 268.773 177.382 269.367 175.423 270.019L176.371 272.865C178.277 272.23 180.186 271.653 182.1 271.133L181.314 268.238ZM169.639 272.121C167.751 272.863 165.867 273.661 163.986 274.512L165.222 277.245C167.059 276.414 168.897 275.636 170.737 274.912L169.639 272.121ZM158.454 277.173C156.65 278.092 154.848 279.06 153.046 280.078L154.521 282.69C156.287 281.693 158.052 280.745 159.816 279.846L158.454 277.173ZM147.768 283.198C146.054 284.257 144.339 285.359 142.622 286.506L144.288 289.001C145.976 287.873 147.661 286.79 149.344 285.751L147.768 283.198ZM137.593 289.986C136.765 290.579 135.937 291.181 135.108 291.794L136.892 294.206C137.708 293.602 138.524 293.009 139.339 292.425L137.593 289.986ZM283 290L265.629 260.029L248.359 290.058L283 290ZM276.453 282.899C274.622 281.917 272.803 280.972 270.997 280.064L268.302 285.424C270.06 286.308 271.832 287.229 273.618 288.186L276.453 282.899ZM265.459 277.377C263.571 276.495 261.697 275.655 259.835 274.855L257.468 280.369C259.271 281.142 261.087 281.957 262.919 282.813L265.459 277.377ZM254.126 272.518C252.181 271.762 250.249 271.051 248.33 270.386L246.367 276.056C248.213 276.695 250.074 277.38 251.95 278.11L254.126 272.518ZM242.434 268.478C240.426 267.874 238.432 267.321 236.449 266.82L234.979 272.637C236.873 273.116 238.781 273.644 240.705 274.223L242.434 268.478ZM230.39 265.441C228.337 265.026 226.296 264.668 224.266 264.365L223.382 270.3C225.308 270.587 227.247 270.927 229.202 271.322L230.39 265.441ZM218.075 263.614C215.987 263.42 213.91 263.286 211.844 263.212L211.631 269.208C213.581 269.278 215.543 269.404 217.518 269.588L218.075 263.614ZM205.6 263.176C203.508 263.226 201.428 263.339 199.357 263.515L199.865 269.494C201.815 269.328 203.774 269.221 205.744 269.174L205.6 263.176ZM193.146 264.235C191.086 264.538 189.035 264.904 186.991 265.332L188.22 271.204C190.147 270.801 192.079 270.457 194.018 270.172L193.146 264.235ZM180.921 266.791C178.924 267.333 176.934 267.935 174.949 268.596L176.845 274.288C178.725 273.662 180.607 273.093 182.493 272.581L180.921 266.791ZM169.089 270.725C167.178 271.477 165.271 272.284 163.367 273.145L165.841 278.612C167.656 277.791 169.471 277.023 171.287 276.308L169.089 270.725ZM157.773 275.836C155.95 276.765 154.129 277.744 152.308 278.772L155.259 283.997C157.007 283.009 158.752 282.071 160.497 281.182L157.773 275.836ZM146.98 281.922C145.25 282.99 143.52 284.102 141.789 285.258L145.122 290.248C146.795 289.13 148.465 288.057 150.132 287.027L146.98 281.922ZM136.72 288.766C135.886 289.363 135.052 289.97 134.217 290.587L137.783 295.413C138.594 294.813 139.404 294.224 140.213 293.645L136.72 288.766Z" fill="#14BF06"/>
<path d="M408 144.039L440.034 157.223L412.599 178.373L408 144.039ZM426.861 163.59L517.477 281.13L512.725 284.793L422.109 167.254L426.861 163.59Z" fill="#4B90F3"/>
<path d="M320 149L302.679 179H337.321L320 149ZM317 176V276H323V176H317Z" fill="#4B90F3"/>
<path d="M231.05 144.039L199.016 157.223L226.451 178.373L231.05 144.039ZM212.189 163.59L121.574 281.13L126.326 284.793L216.941 167.254L212.189 163.59Z" fill="#4B90F3"/>
<path d="M627.624 300.882L625.626 303.121L627.624 300.882ZM632.391 329.806L634.894 331.46L632.391 329.806ZM586.729 333.89L611.179 358.429L620.206 324.985L586.729 333.89ZM586.066 312.319C592.022 306.664 599.573 302.029 606.88 300.043C614.175 298.06 620.783 298.798 625.626 303.121L629.621 298.644C622.741 292.505 613.774 291.951 605.306 294.253C596.851 296.551 588.452 301.779 581.934 307.969L586.066 312.319ZM625.626 303.121C634.929 311.421 634.323 321.441 629.888 328.152L634.894 331.46C640.817 322.498 641.35 309.11 629.621 298.644L625.626 303.121ZM629.888 328.152C626.548 333.205 620.838 337.361 612.589 337.933L613.004 343.918C623.263 343.207 630.608 337.945 634.894 331.46L629.888 328.152Z" fill="#4B90F3"/>
<rect x="495" y="276" width="90" height="90" rx="45" stroke="#4B90F3" stroke-width="6"/>
<path d="M541.493 338.576C537.109 338.576 533.669 337.104 531.173 334.16C528.677 331.184 527.429 326.88 527.429 321.248C527.429 318.432 527.749 315.952 528.389 313.808C529.029 311.664 529.957 309.856 531.173 308.384C532.389 306.912 533.861 305.808 535.589 305.072C537.349 304.304 539.317 303.92 541.493 303.92C544.405 303.92 546.837 304.56 548.789 305.84C550.773 307.12 552.325 309.008 553.445 311.504L548.885 314C548.309 312.4 547.413 311.136 546.197 310.208C545.013 309.248 543.445 308.768 541.493 308.768C538.901 308.768 536.869 309.648 535.397 311.408C533.925 313.168 533.189 315.6 533.189 318.704V323.792C533.189 326.896 533.925 329.328 535.397 331.088C536.869 332.848 538.901 333.728 541.493 333.728C543.509 333.728 545.141 333.216 546.389 332.192C547.669 331.136 548.613 329.792 549.221 328.16L553.589 330.8C552.469 333.232 550.901 335.136 548.885 336.512C546.869 337.888 544.405 338.576 541.493 338.576Z" fill="#4B90F3"/>
<path d="M407.624 300.882L405.626 303.121L407.624 300.882ZM412.391 329.806L414.894 331.46L412.391 329.806ZM366.729 333.89L391.179 358.429L400.206 324.985L366.729 333.89ZM366.066 312.319C372.022 306.664 379.573 302.029 386.88 300.043C394.175 298.06 400.783 298.798 405.626 303.121L409.621 298.644C402.741 292.505 393.774 291.951 385.306 294.253C376.851 296.551 368.452 301.779 361.934 307.969L366.066 312.319ZM405.626 303.121C414.929 311.421 414.323 321.441 409.888 328.152L414.894 331.46C420.817 322.498 421.35 309.11 409.621 298.644L405.626 303.121ZM409.888 328.152C406.548 333.205 400.838 337.361 392.589 337.933L393.004 343.918C403.263 343.207 410.608 337.945 414.894 331.46L409.888 328.152Z" fill="#4B90F3"/>
<rect x="275" y="276" width="90" height="90" rx="45" stroke="#4B90F3" stroke-width="6"/>
<path d="M308.308 304.496H323.14C325.924 304.496 328.1 305.28 329.668 306.848C331.268 308.416 332.068 310.512 332.068 313.136C332.068 314.384 331.892 315.456 331.54 316.352C331.188 317.216 330.74 317.936 330.196 318.512C329.652 319.056 329.028 319.472 328.324 319.76C327.62 320.016 326.932 320.176 326.26 320.24V320.528C326.932 320.56 327.668 320.72 328.468 321.008C329.3 321.296 330.068 321.76 330.772 322.4C331.476 323.008 332.068 323.808 332.548 324.8C333.028 325.76 333.268 326.944 333.268 328.352C333.268 329.696 333.044 330.96 332.596 332.144C332.18 333.328 331.588 334.352 330.82 335.216C330.052 336.08 329.14 336.768 328.084 337.28C327.028 337.76 325.876 338 324.628 338H308.308V304.496ZM313.732 333.344H323.044C324.452 333.344 325.556 332.976 326.356 332.24C327.156 331.504 327.556 330.448 327.556 329.072V327.44C327.556 326.064 327.156 325.008 326.356 324.272C325.556 323.536 324.452 323.168 323.044 323.168H313.732V333.344ZM313.732 318.656H322.132C323.476 318.656 324.516 318.32 325.252 317.648C325.988 316.944 326.356 315.952 326.356 314.672V313.136C326.356 311.856 325.988 310.88 325.252 310.208C324.516 309.504 323.476 309.152 322.132 309.152H313.732V318.656Z" fill="#4B90F3"/>
<path d="M187.624 300.882L185.626 303.121L187.624 300.882ZM192.391 329.806L194.894 331.46L192.391 329.806ZM146.729 333.89L171.179 358.429L180.206 324.985L146.729 333.89ZM146.066 312.319C152.022 306.664 159.573 302.029 166.88 300.043C174.175 298.06 180.783 298.798 185.626 303.121L189.621 298.644C182.741 292.505 173.774 291.951 165.306 294.253C156.851 296.551 148.452 301.779 141.934 307.969L146.066 312.319ZM185.626 303.121C194.929 311.421 194.323 321.441 189.888 328.152L194.894 331.46C200.817 322.498 201.35 309.11 189.621 298.644L185.626 303.121ZM189.888 328.152C186.548 333.205 180.838 337.361 172.589 337.933L173.004 343.918C183.263 343.207 190.608 337.945 194.894 331.46L189.888 328.152Z" fill="#4B90F3"/>
<rect x="55" y="276" width="90" height="90" rx="45" stroke="#4B90F3" stroke-width="6"/>
<path d="M109.165 338L106.141 328.928H93.6134L90.6854 338H85.1654L96.5894 304.496H103.405L114.829 338H109.165ZM99.9974 309.488H99.7574L94.9094 324.272H104.797L99.9974 309.488Z" fill="#4B90F3"/>
<path d="M300.222 12.0173L302.402 14.0788L300.222 12.0173ZM329.9 7.89685L328.217 10.3804L329.9 7.89685ZM333.324 53.8063L358.422 29.9297L325.196 20.1325L333.324 53.8063ZM311.174 53.9548C305.478 47.8422 300.86 40.1555 298.949 32.7819C297.042 25.4249 297.906 18.8317 302.402 14.0788L298.043 9.95576C291.639 16.7259 290.923 25.7303 293.141 34.2871C295.354 42.8273 300.564 51.3704 306.784 58.0452L311.174 53.9548ZM302.402 14.0788C311.061 4.92411 321.367 5.73867 328.217 10.3804L331.583 5.41332C322.566 -0.696577 308.936 -1.56119 298.043 9.95576L302.402 14.0788ZM328.217 10.3804C333.378 13.8771 337.541 19.7417 337.964 28.0609L343.957 27.7557C343.428 17.3749 338.145 9.85954 331.583 5.41332L328.217 10.3804Z" fill="#4B90F3"/>
<rect x="208" y="56" width="223" height="90" rx="45" stroke="#4B90F3" stroke-width="6"/>
<path d="M282.459 120.352C282.459 122.944 281.467 124.896 279.483 126.208C277.499 127.52 274.267 128.176 269.787 128.176C267.739 128.176 265.995 128.032 264.555 127.744C263.147 127.488 261.979 127.104 261.051 126.592C260.155 126.08 259.499 125.456 259.083 124.72C258.667 123.984 258.459 123.136 258.459 122.176C258.459 120.8 258.827 119.728 259.563 118.96C260.331 118.192 261.387 117.664 262.731 117.376V116.848C260.843 116.24 259.899 114.96 259.899 113.008C259.899 111.728 260.331 110.752 261.195 110.08C262.059 109.376 263.099 108.88 264.315 108.592V108.4C262.843 107.696 261.707 106.72 260.907 105.472C260.139 104.192 259.755 102.704 259.755 101.008C259.755 98.448 260.603 96.384 262.299 94.816C264.027 93.248 266.491 92.464 269.691 92.464C271.451 92.464 272.955 92.72 274.203 93.232V92.56C274.203 91.44 274.459 90.576 274.971 89.968C275.515 89.328 276.347 89.008 277.467 89.008H281.307V93.232H276.219V94.24C277.339 94.976 278.203 95.936 278.811 97.12C279.419 98.272 279.723 99.568 279.723 101.008C279.723 103.536 278.859 105.584 277.131 107.152C275.403 108.688 272.939 109.456 269.739 109.456C268.523 109.456 267.435 109.328 266.475 109.072C265.835 109.296 265.275 109.616 264.795 110.032C264.315 110.416 264.075 110.928 264.075 111.568C264.075 112.24 264.379 112.72 264.987 113.008C265.595 113.296 266.459 113.44 267.579 113.44H273.723C276.795 113.44 279.019 114.064 280.395 115.312C281.771 116.528 282.459 118.208 282.459 120.352ZM277.563 120.928C277.563 120.064 277.227 119.376 276.555 118.864C275.915 118.352 274.731 118.096 273.003 118.096H264.555C263.403 118.768 262.827 119.728 262.827 120.976C262.827 122 263.227 122.816 264.027 123.424C264.859 124.064 266.251 124.384 268.203 124.384H271.467C275.531 124.384 277.563 123.232 277.563 120.928ZM269.739 105.664C271.275 105.664 272.459 105.328 273.291 104.656C274.155 103.952 274.587 102.88 274.587 101.44V100.48C274.587 99.04 274.155 97.984 273.291 97.312C272.459 96.608 271.275 96.256 269.739 96.256C268.203 96.256 267.003 96.608 266.139 97.312C265.307 97.984 264.891 99.04 264.891 100.48V101.44C264.891 102.88 265.307 103.952 266.139 104.656C267.003 105.328 268.203 105.664 269.739 105.664ZM285.872 118V93.04H291.104V97.84H291.344C291.696 96.56 292.432 95.44 293.552 94.48C294.672 93.52 296.224 93.04 298.208 93.04H299.6V98.08H297.536C295.456 98.08 293.856 98.416 292.736 99.088C291.648 99.76 291.104 100.752 291.104 102.064V118H285.872ZM313.325 118.576C311.597 118.576 310.013 118.272 308.573 117.664C307.165 117.056 305.965 116.192 304.973 115.072C303.981 113.92 303.213 112.544 302.669 110.944C302.125 109.312 301.853 107.504 301.853 105.52C301.853 103.536 302.125 101.744 302.669 100.144C303.213 98.512 303.981 97.136 304.973 96.016C305.965 94.864 307.165 93.984 308.573 93.376C310.013 92.768 311.597 92.464 313.325 92.464C315.053 92.464 316.621 92.768 318.029 93.376C319.469 93.984 320.685 94.864 321.677 96.016C322.669 97.136 323.437 98.512 323.981 100.144C324.525 101.744 324.797 103.536 324.797 105.52C324.797 107.504 324.525 109.312 323.981 110.944C323.437 112.544 322.669 113.92 321.677 115.072C320.685 116.192 319.469 117.056 318.029 117.664C316.621 118.272 315.053 118.576 313.325 118.576ZM313.325 114.256C315.117 114.256 316.557 113.712 317.645 112.624C318.733 111.504 319.277 109.84 319.277 107.632V103.408C319.277 101.2 318.733 99.552 317.645 98.464C316.557 97.344 315.117 96.784 313.325 96.784C311.533 96.784 310.093 97.344 309.005 98.464C307.917 99.552 307.373 101.2 307.373 103.408V107.632C307.373 109.84 307.917 111.504 309.005 112.624C310.093 113.712 311.533 114.256 313.325 114.256ZM345.267 113.872H345.075C344.851 114.48 344.547 115.072 344.163 115.648C343.811 116.224 343.347 116.736 342.771 117.184C342.227 117.6 341.555 117.936 340.755 118.192C339.987 118.448 339.091 118.576 338.067 118.576C335.475 118.576 333.459 117.744 332.019 116.08C330.611 114.416 329.907 112.032 329.907 108.928V93.04H335.139V108.256C335.139 112.128 336.739 114.064 339.939 114.064C340.611 114.064 341.267 113.984 341.907 113.824C342.547 113.632 343.107 113.36 343.587 113.008C344.099 112.656 344.499 112.208 344.787 111.664C345.107 111.12 345.267 110.48 345.267 109.744V93.04H350.499V118H345.267V113.872ZM357.511 93.04H362.743V97.168H362.983C363.527 95.664 364.407 94.512 365.623 93.712C366.871 92.88 368.327 92.464 369.991 92.464C373.159 92.464 375.607 93.616 377.335 95.92C379.063 98.192 379.927 101.392 379.927 105.52C379.927 109.648 379.063 112.864 377.335 115.168C375.607 117.44 373.159 118.576 369.991 118.576C368.327 118.576 366.871 118.16 365.623 117.328C364.407 116.496 363.527 115.344 362.983 113.872H362.743V127.6H357.511V93.04ZM368.407 114.064C370.231 114.064 371.687 113.488 372.775 112.336C373.863 111.152 374.407 109.6 374.407 107.68V103.36C374.407 101.44 373.863 99.904 372.775 98.752C371.687 97.568 370.231 96.976 368.407 96.976C366.807 96.976 365.463 97.376 364.375 98.176C363.287 98.944 362.743 99.968 362.743 101.248V109.792C362.743 111.072 363.287 112.112 364.375 112.912C365.463 113.68 366.807 114.064 368.407 114.064Z" fill="#4B90F3"/>
</svg>
