<svg width="1199" height="466" viewBox="0 0 1199 466" fill="none" xmlns="http://www.w3.org/2000/svg">
<path d="M152.416 461L188 425M152 425L187.584 461" stroke="#E95757" stroke-width="12"/>
<path d="M79.9999 358.106L97.3204 358.138L88.6325 373.122L79.9999 358.106ZM1011.09 356.535C1010.42 357.23 1009.74 357.922 1009.05 358.612L1006.94 356.484C1007.61 355.813 1008.27 355.14 1008.91 354.465L1011.09 356.535ZM1004.71 362.718C1003.2 364.076 1001.63 365.424 1000.01 366.762L998.102 364.445C999.695 363.135 1001.23 361.816 1002.7 360.489L1004.71 362.718ZM995.393 370.412C993.823 371.607 992.206 372.793 990.543 373.97L988.81 371.521C990.446 370.363 992.035 369.198 993.576 368.025L995.393 370.412ZM985.424 377.47C983.824 378.527 982.186 379.577 980.512 380.619L978.927 378.072C980.579 377.043 982.194 376.008 983.77 374.967L985.424 377.47ZM975.377 383.722C973.629 384.749 971.845 385.768 970.024 386.78L968.567 384.158C970.367 383.157 972.131 382.15 973.858 381.136L975.377 383.722ZM964.852 389.582C963.119 390.499 961.355 391.408 959.563 392.311L958.214 389.632C959.989 388.737 961.735 387.837 963.45 386.93L964.852 389.582ZM954.099 394.999C952.307 395.86 950.488 396.715 948.643 397.563L947.39 394.838C949.22 393.996 951.023 393.149 952.8 392.295L954.099 394.999ZM943.275 399.98C941.462 400.779 939.625 401.573 937.765 402.36L936.595 399.598C938.442 398.816 940.266 398.028 942.065 397.235L943.275 399.98ZM932.114 404.704C930.298 405.442 928.462 406.174 926.605 406.901L925.512 404.108C927.357 403.385 929.181 402.658 930.984 401.925L932.114 404.704ZM921.083 409.023C919.223 409.724 917.344 410.421 915.445 411.111L914.42 408.292C916.307 407.605 918.176 406.913 920.025 406.216L921.083 409.023ZM909.693 413.166C907.843 413.815 905.977 414.458 904.093 415.097L903.13 412.256C905.004 411.621 906.86 410.98 908.7 410.335L909.693 413.166ZM898.481 416.968C896.594 417.586 894.691 418.2 892.772 418.808L891.865 415.948C893.775 415.343 895.669 414.732 897.546 414.117L898.481 416.968ZM886.969 420.616C885.074 421.197 883.165 421.773 881.242 422.343L880.388 419.467C882.303 418.899 884.204 418.326 886.09 417.748L886.969 420.616ZM875.577 423.998C873.675 424.545 871.76 425.086 869.832 425.623L869.027 422.733C870.947 422.199 872.854 421.659 874.748 421.115L875.577 423.998ZM864.008 427.22C862.061 427.745 860.102 428.265 858.13 428.78L857.371 425.878C859.336 425.364 861.287 424.846 863.226 424.323L864.008 427.22ZM852.436 430.245C850.527 430.729 848.606 431.209 846.674 431.683L845.959 428.77C847.883 428.297 849.797 427.819 851.699 427.337L852.436 430.245ZM840.846 433.093C838.893 433.559 836.928 434.019 834.953 434.475L834.278 431.552C836.247 431.098 838.205 430.639 840.151 430.175L840.846 433.093ZM829.098 435.806C827.186 436.235 825.263 436.658 823.332 437.078L822.695 434.146C824.621 433.728 826.537 433.306 828.443 432.879L829.098 435.806ZM817.509 438.322C815.558 438.733 813.599 439.139 811.63 439.54L811.031 436.601C812.993 436.201 814.947 435.796 816.891 435.387L817.509 438.322ZM805.697 440.732C803.749 441.117 801.793 441.497 799.828 441.873L799.264 438.927C801.223 438.552 803.173 438.172 805.115 437.789L805.697 440.732ZM794.014 442.969C792.068 443.33 790.114 443.687 788.152 444.039L787.621 441.087C789.578 440.735 791.526 440.379 793.467 440.019L794.014 442.969ZM782.243 445.084C780.266 445.428 778.282 445.767 776.289 446.102L775.792 443.144C777.778 442.81 779.758 442.471 781.729 442.128L782.243 445.084ZM770.381 447.08C768.439 447.396 766.491 447.708 764.535 448.015L764.069 445.052C766.019 444.745 767.963 444.434 769.899 444.119L770.381 447.08ZM758.649 448.926C756.681 449.225 754.706 449.52 752.724 449.811L752.288 446.843C754.265 446.553 756.235 446.259 758.198 445.96L758.649 448.926ZM746.761 450.671C744.779 450.952 742.792 451.228 740.799 451.5L740.393 448.528C742.381 448.256 744.364 447.981 746.34 447.701L746.761 450.671ZM734.932 452.287C732.97 452.545 731.003 452.799 729.031 453.049L728.654 450.073C730.621 449.823 732.584 449.57 734.54 449.312L734.932 452.287ZM723.097 453.786C721.114 454.028 719.125 454.265 717.131 454.499L716.782 451.519C718.772 451.286 720.756 451.049 722.734 450.808L723.097 453.786ZM711.134 455.186C709.171 455.407 707.202 455.623 705.23 455.835L704.909 452.852C706.877 452.641 708.841 452.425 710.799 452.205L711.134 455.186ZM699.319 456.457C697.345 456.661 695.366 456.86 693.382 457.055L693.088 454.07C695.067 453.875 697.042 453.676 699.012 453.473L699.319 456.457ZM687.417 457.629C685.425 457.816 683.428 457.999 681.427 458.178L681.16 455.19C683.156 455.011 685.149 454.829 687.137 454.642L687.417 457.629ZM675.451 458.698C673.483 458.865 671.511 459.028 669.535 459.187L669.294 456.197C671.266 456.038 673.233 455.876 675.197 455.709L675.451 458.698ZM663.595 459.652C661.612 459.803 659.625 459.95 657.634 460.093L657.419 457.101C659.406 456.958 661.388 456.812 663.368 456.661L663.595 459.652ZM651.651 460.509C649.653 460.644 647.652 460.774 645.647 460.901L645.458 457.907C647.459 457.781 649.456 457.65 651.449 457.516L651.651 460.509ZM639.694 461.263C637.717 461.38 635.737 461.492 633.754 461.6L633.591 458.604C635.569 458.497 637.545 458.385 639.518 458.269L639.694 461.263ZM627.796 461.912C625.807 462.012 623.815 462.108 621.82 462.2L621.682 459.203C623.672 459.112 625.66 459.016 627.645 458.916L627.796 461.912ZM615.828 462.464C613.827 462.547 611.824 462.627 609.819 462.702L609.706 459.704C611.708 459.629 613.706 459.55 615.702 459.466L615.828 462.464ZM603.874 462.913C601.892 462.98 599.906 463.042 597.919 463.1L597.831 460.101C599.814 460.043 601.795 459.981 603.774 459.915L603.874 462.913ZM591.949 463.262C589.957 463.312 587.963 463.358 585.967 463.4L585.904 460.4C587.896 460.359 589.886 460.313 591.874 460.263L591.949 463.262ZM579.972 463.513C577.974 463.546 575.975 463.575 573.974 463.601L573.937 460.601C575.933 460.576 577.928 460.546 579.921 460.513L579.972 463.513ZM568.02 463.663C566.033 463.68 564.045 463.692 562.055 463.701L562.042 460.701C564.028 460.692 566.012 460.68 567.994 460.663L568.02 463.663ZM556.08 463.714C554.087 463.714 552.092 463.71 550.096 463.702L550.109 460.702C552.1 460.71 554.091 460.714 556.08 460.714L556.08 463.714ZM544.104 463.665C542.11 463.648 540.114 463.627 538.117 463.602L538.154 460.603C540.147 460.628 542.139 460.648 544.129 460.665L544.104 463.665ZM532.154 463.516C530.166 463.482 528.176 463.445 526.186 463.404L526.248 460.404C528.235 460.446 530.22 460.483 532.204 460.516L532.154 463.516ZM520.211 463.266C518.218 463.216 516.225 463.162 514.231 463.104L514.319 460.105C516.309 460.163 518.298 460.217 520.286 460.267L520.211 463.266ZM508.246 462.916C506.254 462.849 504.261 462.777 502.268 462.702L502.381 459.704C504.37 459.779 506.359 459.85 508.347 459.917L508.246 462.916ZM496.302 462.464C494.314 462.38 492.324 462.292 490.335 462.199L490.474 459.202C492.459 459.295 494.444 459.383 496.429 459.466L496.302 462.464ZM484.364 461.909C482.374 461.808 480.384 461.703 478.393 461.593L478.558 458.598C480.544 458.707 482.531 458.812 484.517 458.913L484.364 461.909ZM472.42 461.251C470.431 461.133 468.441 461.01 466.451 460.883L466.642 457.889C468.628 458.016 470.613 458.138 472.598 458.256L472.42 461.251ZM460.488 460.488C458.5 460.353 456.513 460.212 454.526 460.068L454.743 457.076C456.726 457.22 458.709 457.36 460.692 457.495L460.488 460.488ZM448.565 459.621C446.578 459.467 444.592 459.309 442.606 459.147L442.85 456.157C444.832 456.319 446.814 456.476 448.796 456.63L448.565 459.621ZM436.649 458.646C434.663 458.474 432.678 458.298 430.693 458.118L430.965 455.13C432.945 455.31 434.926 455.486 436.908 455.657L436.649 458.646ZM424.737 457.562C422.752 457.373 420.768 457.178 418.785 456.979L419.085 453.994C421.063 454.193 423.042 454.387 425.022 454.576L424.737 457.562ZM412.838 456.369C410.857 456.161 408.877 455.948 406.897 455.731L407.225 452.749C409.199 452.966 411.175 453.178 413.152 453.385L412.838 456.369ZM400.962 455.065C398.981 454.838 397.001 454.607 395.022 454.37L395.378 451.392C397.352 451.627 399.327 451.858 401.304 452.085L400.962 455.065ZM389.079 453.646C387.099 453.4 385.12 453.149 383.143 452.893L383.528 449.918C385.5 450.173 387.474 450.423 389.449 450.669L389.079 453.646ZM377.216 452.112C375.242 451.847 373.27 451.577 371.299 451.302L371.713 448.331C373.679 448.605 375.647 448.874 377.616 449.139L377.216 452.112ZM365.391 450.463C363.416 450.178 361.443 449.887 359.471 449.592L359.916 446.625C361.882 446.92 363.85 447.209 365.821 447.494L365.391 450.463ZM353.547 448.69C351.574 448.384 349.604 448.073 347.635 447.757L348.11 444.795C350.073 445.11 352.039 445.42 354.007 445.725L353.547 448.69ZM341.735 446.795C339.771 446.47 337.809 446.139 335.849 445.804L336.355 442.847C338.31 443.181 340.267 443.511 342.226 443.836L341.735 446.795ZM329.976 444.782C328.008 444.434 326.042 444.081 324.079 443.723L324.618 440.772C326.575 441.129 328.535 441.481 330.498 441.828L329.976 444.782ZM318.183 442.631C316.22 442.262 314.26 441.887 312.303 441.508L312.874 438.562C314.826 438.941 316.781 439.314 318.738 439.682L318.183 442.631ZM306.439 440.353C304.487 439.963 302.539 439.568 300.593 439.168L301.197 436.229C303.138 436.628 305.081 437.022 307.027 437.411L306.439 440.353ZM294.764 437.951C292.804 437.536 290.848 437.115 288.894 436.689L289.533 433.758C291.481 434.183 293.432 434.602 295.385 435.016L294.764 437.951ZM283.037 435.394C281.088 434.957 279.142 434.514 277.199 434.066L277.874 431.143C279.81 431.589 281.75 432.031 283.693 432.467L283.037 435.394ZM271.383 432.705C269.448 432.246 267.516 431.782 265.588 431.312L266.298 428.397C268.22 428.865 270.146 429.328 272.075 429.786L271.383 432.705ZM259.805 429.882C257.858 429.395 255.915 428.901 253.976 428.402L254.724 425.497C256.657 425.994 258.593 426.486 260.534 426.972L259.805 429.882ZM248.171 426.888C246.24 426.377 244.313 425.861 242.39 425.339L243.176 422.444C245.092 422.964 247.013 423.479 248.937 423.987L248.171 426.888ZM236.635 423.755C234.721 423.222 232.812 422.682 230.906 422.137L231.732 419.253C233.63 419.796 235.533 420.334 237.441 420.866L236.635 423.755ZM225.165 420.473C223.238 419.907 221.317 419.335 219.4 418.757L220.266 415.885C222.176 416.461 224.091 417.03 226.01 417.594L225.165 420.473ZM213.664 417.005C211.757 416.415 209.855 415.819 207.959 415.217L208.866 412.357C210.756 412.957 212.651 413.551 214.551 414.139L213.664 417.005ZM202.283 413.391C200.397 412.777 198.515 412.156 196.639 411.529L197.59 408.684C199.459 409.308 201.333 409.927 203.212 410.539L202.283 413.391ZM190.943 409.602C189.045 408.951 187.152 408.293 185.265 407.63L186.26 404.8C188.139 405.461 190.025 406.115 191.916 406.764L190.943 409.602ZM179.621 405.619C177.745 404.943 175.876 404.259 174.012 403.57L175.053 400.756C176.909 401.443 178.771 402.123 180.639 402.797L179.621 405.619ZM168.44 401.481C166.576 400.774 164.719 400.06 162.867 399.339L163.956 396.544C165.799 397.261 167.648 397.972 169.504 398.677L168.44 401.481ZM157.262 397.129C155.4 396.385 153.545 395.635 151.697 394.877L152.835 392.101C154.675 392.855 156.521 393.603 158.375 394.343L157.262 397.129ZM146.173 392.585C144.338 391.813 142.511 391.035 140.69 390.25L141.878 387.495C143.69 388.277 145.509 389.051 147.335 389.819L146.173 392.585ZM135.25 387.874C133.407 387.059 131.573 386.237 129.746 385.407L130.986 382.676C132.804 383.501 134.63 384.319 136.463 385.131L135.25 387.874ZM124.281 382.894C122.468 382.049 120.662 381.197 118.864 380.337L120.158 377.631C121.947 378.486 123.744 379.334 125.548 380.175L124.281 382.894ZM113.494 377.736C111.712 376.861 109.939 375.979 108.173 375.09L109.523 372.41C111.279 373.295 113.043 374.172 114.816 375.042L113.494 377.736ZM102.824 372.359C101.037 371.435 99.2592 370.503 97.4898 369.563L98.8974 366.913C100.657 367.848 102.425 368.775 104.203 369.695L102.824 372.359ZM92.2085 366.719C90.4571 365.763 88.7147 364.799 86.9815 363.828L88.4485 361.211C90.1717 362.177 91.9041 363.135 93.6456 364.086L92.2085 366.719ZM79.9999 358.106L114.641 358.17L97.265 388.138L79.9999 358.106ZM1012.17 357.571C1011.5 358.275 1010.81 358.977 1010.11 359.675L1005.88 355.421C1006.54 354.758 1007.19 354.095 1007.83 353.429L1012.17 357.571ZM1005.71 363.832C1004.19 365.206 1002.6 366.569 1000.96 367.92L997.149 363.287C998.725 361.99 1000.24 360.686 1001.7 359.375L1005.71 363.832ZM996.301 371.606C994.717 372.811 993.087 374.008 991.41 375.194L987.944 370.297C989.566 369.149 991.141 367.993 992.667 366.831L996.301 371.606ZM986.251 378.721C984.639 379.786 982.99 380.843 981.304 381.892L978.134 376.798C979.775 375.777 981.378 374.749 982.943 373.715L986.251 378.721ZM976.137 385.016C974.378 386.049 972.583 387.074 970.753 388.091L967.839 382.846C969.628 381.852 971.382 380.85 973.098 379.842L976.137 385.016ZM965.553 390.909C963.811 391.829 962.039 392.743 960.238 393.651L957.539 388.292C959.306 387.402 961.042 386.506 962.749 385.604L965.553 390.909ZM954.749 396.351C952.949 397.216 951.122 398.074 949.27 398.926L946.763 393.475C948.586 392.637 950.382 391.793 952.15 390.943L954.749 396.351ZM943.88 401.352C942.06 402.155 940.216 402.951 938.349 403.742L936.011 398.216C937.851 397.437 939.667 396.653 941.46 395.862L943.88 401.352ZM932.679 406.094C930.857 406.834 929.015 407.569 927.152 408.298L924.965 402.711C926.804 401.991 928.622 401.266 930.419 400.535L932.679 406.094ZM921.613 410.426C919.747 411.13 917.862 411.828 915.958 412.521L913.907 406.882C915.789 406.198 917.652 405.508 919.495 404.812L921.613 410.426ZM910.19 414.581C908.335 415.232 906.463 415.877 904.575 416.518L902.649 410.835C904.517 410.202 906.369 409.563 908.203 408.92L910.19 414.581ZM898.948 418.393C897.056 419.013 895.148 419.628 893.225 420.238L891.412 414.518C893.317 413.914 895.206 413.305 897.079 412.692L898.948 418.393ZM887.408 422.051C885.51 422.633 883.596 423.21 881.668 423.782L879.962 418.029C881.872 417.462 883.769 416.891 885.65 416.314L887.408 422.051ZM875.991 425.44C874.085 425.987 872.166 426.53 870.234 427.068L868.625 421.288C870.541 420.755 872.444 420.216 874.334 419.673L875.991 425.44ZM864.398 428.668C862.448 429.194 860.485 429.715 858.509 430.232L856.992 424.426C858.953 423.914 860.901 423.397 862.836 422.875L864.398 428.668ZM852.804 431.699C850.892 432.184 848.968 432.664 847.032 433.14L845.601 427.313C847.522 426.841 849.432 426.364 851.33 425.883L852.804 431.699ZM841.194 434.552C839.237 435.019 837.269 435.48 835.291 435.937L833.941 430.091C835.906 429.637 837.86 429.179 839.804 428.716L841.194 434.552ZM829.426 437.27C827.51 437.699 825.585 438.123 823.65 438.543L822.377 432.68C824.299 432.263 826.212 431.841 828.115 431.415L829.426 437.27ZM817.818 439.79C815.864 440.201 813.902 440.608 811.93 441.01L810.731 435.131C812.69 434.731 814.641 434.327 816.582 433.919L817.818 439.79ZM805.988 442.203C804.037 442.589 802.078 442.97 800.11 443.347L798.982 437.454C800.938 437.079 802.886 436.7 804.825 436.317L805.988 442.203ZM794.287 444.444C792.339 444.806 790.382 445.163 788.417 445.516L787.356 439.61C789.31 439.259 791.255 438.904 793.193 438.545L794.287 444.444ZM782.5 446.562C780.521 446.906 778.533 447.246 776.538 447.582L775.543 441.665C777.527 441.331 779.503 440.993 781.472 440.651L782.5 446.562ZM770.622 448.561C768.678 448.877 766.726 449.189 764.768 449.497L763.836 443.57C765.783 443.264 767.724 442.953 769.658 442.638L770.622 448.561ZM758.875 450.409C756.904 450.709 754.926 451.004 752.942 451.295L752.07 445.359C754.044 445.069 756.012 444.775 757.973 444.477L758.875 450.409ZM746.971 452.156C744.987 452.437 742.997 452.714 741.002 452.987L740.19 447.042C742.176 446.771 744.156 446.495 746.13 446.216L746.971 452.156ZM735.127 453.774C733.164 454.032 731.194 454.287 729.219 454.537L728.465 448.585C730.431 448.336 732.39 448.082 734.345 447.825L735.127 453.774ZM723.278 455.275C721.293 455.517 719.302 455.755 717.305 455.989L716.608 450.029C718.595 449.797 720.576 449.56 722.553 449.319L723.278 455.275ZM711.301 456.677C709.336 456.897 707.365 457.114 705.39 457.327L704.748 451.361C706.714 451.149 708.675 450.934 710.632 450.714L711.301 456.677ZM699.473 457.95C697.496 458.153 695.515 458.353 693.529 458.548L692.941 452.577C694.918 452.382 696.891 452.184 698.858 451.981L699.473 457.95ZM687.557 459.122C685.563 459.31 683.563 459.493 681.56 459.672L681.026 453.696C683.021 453.517 685.011 453.335 686.997 453.149L687.557 459.122ZM675.578 460.193C673.607 460.36 671.633 460.523 669.655 460.683L669.174 454.702C671.143 454.543 673.109 454.381 675.07 454.214L675.578 460.193ZM663.709 461.148C661.723 461.299 659.734 461.446 657.741 461.589L657.312 455.605C659.296 455.462 661.277 455.316 663.254 455.165L663.709 461.148ZM651.752 462.006C649.752 462.141 647.748 462.271 645.741 462.398L645.364 456.41C647.362 456.284 649.357 456.154 651.348 456.019L651.752 462.006ZM639.782 462.761C637.803 462.877 635.821 462.989 633.836 463.098L633.509 457.107C635.486 456.999 637.459 456.887 639.43 456.771L639.782 462.761ZM627.871 463.41C625.88 463.511 623.886 463.607 621.889 463.699L621.613 457.705C623.601 457.613 625.587 457.518 627.57 457.418L627.871 463.41ZM615.89 463.962C613.888 464.046 611.883 464.126 609.875 464.201L609.65 458.205C611.649 458.13 613.646 458.051 615.639 457.967L615.89 463.962ZM603.925 464.412C601.94 464.479 599.952 464.541 597.962 464.599L597.787 458.602C599.768 458.544 601.747 458.482 603.724 458.416L603.925 464.412ZM591.987 464.762C589.993 464.812 587.996 464.858 585.998 464.9L585.872 458.901C587.862 458.859 589.85 458.813 591.836 458.764L591.987 464.762ZM579.997 465.012C577.997 465.046 575.996 465.075 573.993 465.1L573.918 459.101C575.913 459.076 577.905 459.047 579.896 459.013L579.997 465.012ZM568.032 465.163C566.043 465.18 564.053 465.192 562.061 465.201L562.035 459.201C564.019 459.192 566.001 459.18 567.982 459.163L568.032 465.163ZM556.08 465.214C554.085 465.214 552.088 465.21 550.09 465.202L550.115 459.202C552.104 459.21 554.093 459.214 556.08 459.214L556.08 465.214ZM544.092 465.165C542.095 465.148 540.097 465.127 538.098 465.102L538.173 459.103C540.164 459.128 542.153 459.148 544.142 459.165L544.092 465.165ZM532.129 465.015C530.139 464.982 528.147 464.945 526.154 464.903L526.279 458.905C528.264 458.946 530.247 458.983 532.229 459.016L532.129 465.015ZM520.173 464.766C518.179 464.716 516.183 464.662 514.187 464.603L514.363 458.606C516.351 458.664 518.338 458.718 520.324 458.768L520.173 464.766ZM508.196 464.415C506.202 464.348 504.207 464.276 502.211 464.201L502.438 458.205C504.425 458.28 506.412 458.351 508.397 458.418L508.196 464.415ZM496.239 463.962C494.248 463.878 492.257 463.79 490.265 463.698L490.543 457.704C492.526 457.796 494.509 457.884 496.492 457.967L496.239 463.962ZM484.288 463.407C482.296 463.306 480.303 463.201 478.31 463.091L478.64 457.1C480.625 457.209 482.609 457.314 484.593 457.415L484.288 463.407ZM472.331 462.748C470.339 462.63 468.347 462.507 466.356 462.38L466.738 456.392C468.721 456.519 470.704 456.641 472.687 456.759L472.331 462.748ZM460.386 461.985C458.396 461.849 456.406 461.709 454.417 461.564L454.852 455.58C456.833 455.724 458.814 455.864 460.795 455.999L460.386 461.985ZM448.449 461.116C446.46 460.962 444.472 460.804 442.483 460.642L442.973 454.662C444.952 454.824 446.931 454.981 448.911 455.134L448.449 461.116ZM436.52 460.14C434.532 459.969 432.544 459.792 430.557 459.612L431.101 453.636C433.079 453.816 435.057 453.992 437.037 454.163L436.52 460.14ZM424.594 459.055C422.607 458.866 420.621 458.671 418.635 458.472L419.234 452.502C421.21 452.7 423.187 452.894 425.165 453.083L424.594 459.055ZM412.682 457.861C410.698 457.653 408.715 457.44 406.734 457.222L407.388 451.258C409.361 451.474 411.334 451.686 413.308 451.894L412.682 457.861ZM400.792 456.556C398.808 456.328 396.826 456.096 394.844 455.86L395.556 449.902C397.528 450.138 399.5 450.368 401.475 450.595L400.792 456.556ZM388.894 455.135C386.911 454.888 384.93 454.637 382.951 454.381L383.72 448.43C385.69 448.685 387.661 448.935 389.634 449.18L388.894 455.135ZM377.017 453.599C375.04 453.333 373.065 453.063 371.092 452.788L371.92 446.845C373.884 447.119 375.849 447.388 377.816 447.652L377.017 453.599ZM365.177 451.948C363.199 451.662 361.223 451.371 359.249 451.076L360.138 445.142C362.102 445.436 364.067 445.725 366.035 446.01L365.177 451.948ZM353.317 450.172C351.342 449.866 349.369 449.555 347.397 449.238L348.347 443.314C350.308 443.629 352.271 443.938 354.237 444.243L353.317 450.172ZM341.49 448.275C339.523 447.949 337.558 447.618 335.596 447.282L336.608 441.368C338.56 441.702 340.515 442.032 342.471 442.356L341.49 448.275ZM329.715 446.259C327.744 445.911 325.776 445.557 323.81 445.199L324.887 439.296C326.842 439.653 328.799 440.004 330.759 440.351L329.715 446.259ZM317.906 444.105C315.94 443.735 313.978 443.36 312.017 442.98L313.16 437.09C315.109 437.468 317.061 437.841 319.015 438.208L317.906 444.105ZM306.145 441.824C304.191 441.434 302.239 441.038 300.29 440.637L301.5 434.76C303.437 435.159 305.378 435.552 307.321 435.94L306.145 441.824ZM294.453 439.418C292.49 439.002 290.531 438.581 288.575 438.155L289.853 432.293C291.797 432.716 293.745 433.135 295.696 433.548L294.453 439.418ZM282.709 436.857C280.756 436.42 278.808 435.976 276.862 435.527L278.211 429.681C280.145 430.127 282.081 430.568 284.022 431.003L282.709 436.857ZM271.037 434.165C269.098 433.705 267.164 433.24 265.233 432.769L266.654 426.94C268.573 427.407 270.495 427.87 272.422 428.327L271.037 434.165ZM259.441 431.338C257.491 430.849 255.544 430.355 253.602 429.855L255.098 424.044C257.027 424.541 258.961 425.032 260.899 425.517L259.441 431.338ZM247.787 428.338C245.853 427.827 243.923 427.309 241.997 426.786L243.569 420.996C245.482 421.516 247.4 422.029 249.321 422.537L247.787 428.338ZM236.232 425.2C234.315 424.666 232.402 424.126 230.494 423.579L232.144 417.811C234.04 418.353 235.939 418.89 237.844 419.421L236.232 425.2ZM224.742 421.912C222.812 421.345 220.887 420.772 218.967 420.193L220.699 414.449C222.605 415.023 224.517 415.592 226.433 416.155L224.742 421.912ZM213.221 418.438C211.31 417.847 209.405 417.25 207.505 416.646L209.32 410.928C211.207 411.526 213.098 412.119 214.995 412.706L213.221 418.438ZM201.819 414.818C199.929 414.202 198.044 413.58 196.164 412.952L198.065 407.261C199.931 407.885 201.801 408.502 203.677 409.113L201.819 414.818ZM190.457 411.021C188.554 410.368 186.658 409.71 184.767 409.045L186.758 403.385C188.633 404.044 190.515 404.698 192.402 405.345L190.457 411.021ZM179.112 407.03C177.232 406.352 175.359 405.668 173.491 404.977L175.574 399.35C177.426 400.035 179.284 400.714 181.148 401.386L179.112 407.03ZM167.907 402.884C166.04 402.175 164.178 401.459 162.323 400.737L164.5 395.146C166.339 395.862 168.185 396.571 170.037 397.274L167.907 402.884ZM156.706 398.522C154.84 397.777 152.981 397.025 151.128 396.265L153.403 390.713C155.239 391.466 157.082 392.211 158.931 392.95L156.706 398.522ZM145.591 393.967C143.753 393.194 141.921 392.414 140.096 391.628L142.472 386.118C144.28 386.898 146.095 387.67 147.917 388.436L145.591 393.967ZM134.643 389.246C132.796 388.429 130.957 387.605 129.125 386.773L131.606 381.31C133.42 382.133 135.241 382.95 137.07 383.759L134.643 389.246ZM123.648 384.254C121.83 383.407 120.019 382.552 118.217 381.69L120.805 376.277C122.59 377.131 124.382 377.977 126.182 378.815L123.648 384.254ZM112.833 379.082C111.047 378.205 109.268 377.321 107.498 376.429L110.198 371.071C111.949 371.953 113.709 372.828 115.477 373.696L112.833 379.082ZM102.135 373.692C100.343 372.765 98.5603 371.83 96.786 370.887L99.6011 365.589C101.356 366.521 103.119 367.445 104.892 368.362L102.135 373.692ZM91.49 368.036C89.7336 367.077 87.9862 366.111 86.248 365.136L89.182 359.903C90.9001 360.866 92.6276 361.821 94.3641 362.769L91.49 368.036Z" fill="#E95757"/>
<path d="M514.5 362L522.246 377.492L531.789 363.037L514.5 362ZM521.289 368.099C523.01 369.137 524.761 370.155 526.539 371.154L528.008 368.538C526.256 367.554 524.532 366.552 522.837 365.53L521.289 368.099ZM531.833 374.027C533.621 374.964 535.434 375.883 537.272 376.784L538.592 374.09C536.778 373.201 534.989 372.294 533.226 371.37L531.833 374.027ZM542.69 379.352C544.519 380.191 546.37 381.012 548.243 381.817L549.427 379.06C547.576 378.265 545.747 377.453 543.941 376.625L542.69 379.352ZM553.802 384.128C555.658 384.876 557.535 385.608 559.43 386.323L560.49 383.517C558.614 382.808 556.758 382.085 554.922 381.346L553.802 384.128ZM565.122 388.404C566.999 389.069 568.893 389.718 570.805 390.353L571.75 387.506C569.857 386.877 567.981 386.234 566.123 385.576L565.122 388.404ZM576.588 392.213C578.489 392.805 580.405 393.383 582.336 393.946L583.176 391.066C581.262 390.508 579.363 389.935 577.48 389.349L576.588 392.213ZM588.145 395.588C590.083 396.117 592.034 396.633 593.999 397.136L594.742 394.229C592.793 393.731 590.858 393.219 588.936 392.694L588.145 395.588ZM599.825 398.577C601.78 399.045 603.747 399.499 605.726 399.941L606.379 397.013C604.415 396.574 602.463 396.123 600.523 395.659L599.825 398.577ZM611.609 401.208C613.566 401.615 615.534 402.009 617.512 402.392L618.081 399.446C616.117 399.066 614.162 398.675 612.219 398.271L611.609 401.208ZM623.477 403.502C625.436 403.853 627.404 404.192 629.381 404.52L629.872 401.56C627.907 401.235 625.952 400.898 624.006 400.549L623.477 403.502ZM635.339 405.467C637.324 405.77 639.318 406.062 641.319 406.342L641.735 403.371C639.745 403.092 637.764 402.803 635.791 402.502L635.339 405.467ZM647.27 407.138C649.261 407.392 651.259 407.636 653.264 407.868L653.609 404.888C651.616 404.657 649.629 404.415 647.65 404.162L647.27 407.138ZM659.255 408.527C661.244 408.734 663.238 408.931 665.238 409.117L665.516 406.13C663.527 405.945 661.544 405.749 659.566 405.543L659.255 408.527ZM671.256 409.644C673.251 409.807 675.251 409.961 677.256 410.104L677.469 407.111C675.475 406.969 673.486 406.817 671.502 406.654L671.256 409.644ZM683.26 410.5C685.267 410.622 687.277 410.734 689.291 410.836L689.443 407.84C687.439 407.739 685.438 407.627 683.443 407.506L683.26 410.5ZM695.298 411.109C697.3 411.19 699.306 411.261 701.314 411.322L701.406 408.323C699.407 408.263 697.411 408.192 695.419 408.111L695.298 411.109ZM707.35 411.476C709.351 411.518 711.355 411.549 713.361 411.571L713.394 408.571C711.397 408.549 709.403 408.518 707.412 408.477L707.35 411.476ZM719.383 411.609C721.391 411.612 723.402 411.605 725.415 411.589L725.391 408.589C723.388 408.605 721.386 408.612 719.387 408.609L719.383 411.609ZM731.429 411.512C733.435 411.478 735.442 411.433 737.45 411.38L737.37 408.381C735.371 408.434 733.373 408.478 731.377 408.513L731.429 411.512ZM743.473 411.191C745.478 411.119 747.483 411.038 749.488 410.948L749.353 407.951C747.357 408.041 745.361 408.122 743.366 408.193L743.473 411.191ZM755.502 410.649C757.507 410.54 759.511 410.422 761.515 410.295L761.325 407.301C759.331 407.427 757.335 407.545 755.34 407.653L755.502 410.649ZM767.525 409.886C769.527 409.741 771.528 409.587 773.527 409.423L773.283 406.433C771.292 406.596 769.301 406.75 767.307 406.894L767.525 409.886ZM779.526 408.906C781.528 408.724 783.528 408.533 785.526 408.333L785.227 405.348C783.238 405.547 781.247 405.737 779.254 405.918L779.526 408.906ZM791.511 407.706C793.508 407.487 795.502 407.26 797.493 407.023L797.14 404.044C795.158 404.28 793.173 404.506 791.185 404.723L791.511 407.706ZM803.478 406.285C805.469 406.03 807.457 405.766 809.441 405.493L809.032 402.521C807.057 402.792 805.078 403.055 803.096 403.309L803.478 406.285ZM815.404 404.643C817.396 404.35 819.384 404.047 821.366 403.736L820.901 400.772C818.928 401.082 816.949 401.383 814.967 401.675L815.404 404.643ZM827.3 402.775C829.286 402.444 831.267 402.103 833.242 401.753L832.719 398.799C830.754 399.147 828.783 399.486 826.806 399.816L827.3 402.775ZM839.175 400.673C841.147 400.304 843.113 399.926 845.071 399.538L844.49 396.595C842.541 396.981 840.585 397.357 838.623 397.724L839.175 400.673ZM850.99 398.337C852.963 397.926 854.928 397.506 856.885 397.076L856.242 394.146C854.295 394.573 852.34 394.991 850.378 395.4L850.99 398.337ZM862.734 395.761C864.707 395.306 866.671 394.842 868.627 394.368L867.921 391.453C865.976 391.924 864.022 392.385 862.06 392.838L862.734 395.761ZM874.471 392.919C876.418 392.424 878.356 391.921 880.284 391.407L879.512 388.508C877.595 389.019 875.669 389.52 873.733 390.011L874.471 392.919ZM886.126 389.815C888.062 389.275 889.989 388.725 891.904 388.166L891.063 385.286C889.159 385.842 887.245 386.388 885.32 386.925L886.126 389.815ZM897.681 386.439C899.616 385.847 901.539 385.245 903.45 384.634L902.535 381.777C900.637 382.384 898.727 382.982 896.804 383.57L897.681 386.439ZM909.142 382.77C911.069 382.125 912.982 381.47 914.88 380.804L913.888 377.973C912.003 378.634 910.103 379.285 908.19 379.926L909.142 382.77ZM920.551 378.771C922.443 378.077 924.319 377.373 926.179 376.658L925.104 373.857C923.258 374.566 921.395 375.265 919.518 375.954L920.551 378.771ZM931.823 374.439C933.687 373.689 935.535 372.928 937.365 372.157L936.199 369.392C934.385 370.157 932.552 370.912 930.703 371.656L931.823 374.439ZM942.936 369.751C944.786 368.933 946.617 368.103 948.427 367.263L947.164 364.542C945.37 365.374 943.556 366.196 941.723 367.007L942.936 369.751ZM953.866 364.675C955.697 363.781 957.505 362.877 959.291 361.96L957.921 359.291C956.154 360.198 954.363 361.094 952.551 361.978L953.866 364.675ZM964.582 359.172C966.387 358.197 968.166 357.208 969.918 356.208L968.431 353.602C966.699 354.591 964.94 355.568 963.156 356.533L964.582 359.172ZM975.097 353.168C976.848 352.111 978.57 351.04 980.263 349.957L978.645 347.43C976.975 348.499 975.275 349.556 973.546 350.599L975.097 353.168ZM985.296 346.635C986.984 345.487 988.639 344.325 990.26 343.149L988.498 340.721C986.902 341.879 985.272 343.023 983.609 344.155L985.296 346.635ZM995.1 339.517C995.889 338.905 996.669 338.289 997.44 337.669L995.56 335.331C994.803 335.94 994.036 336.545 993.261 337.148L995.1 339.517ZM514.5 362L529.992 392.984L549.079 364.075L514.5 362ZM520.514 369.384C522.249 370.43 524.013 371.456 525.804 372.462L528.742 367.23C527.004 366.254 525.293 365.259 523.612 364.245L520.514 369.384ZM531.136 375.355C532.937 376.299 534.762 377.224 536.612 378.131L539.252 372.742C537.45 371.86 535.673 370.959 533.923 370.041L531.136 375.355ZM542.065 380.715C543.905 381.559 545.767 382.386 547.651 383.195L550.019 377.682C548.179 376.892 546.361 376.085 544.566 375.262L542.065 380.715ZM553.241 385.52C555.108 386.272 556.995 387.007 558.901 387.727L561.02 382.113C559.154 381.409 557.308 380.689 555.483 379.954L553.241 385.52ZM564.622 389.818C566.508 390.486 568.412 391.139 570.332 391.777L572.223 386.083C570.339 385.457 568.473 384.817 566.624 384.162L564.622 389.818ZM576.142 393.645C578.051 394.24 579.976 394.82 581.916 395.386L583.597 389.627C581.691 389.07 579.8 388.5 577.925 387.917L576.142 393.645ZM587.75 397.035C589.695 397.566 591.654 398.085 593.627 398.589L595.114 392.776C593.172 392.28 591.245 391.77 589.332 391.247L587.75 397.035ZM599.476 400.036C601.439 400.505 603.413 400.961 605.4 401.405L606.706 395.549C604.749 395.112 602.804 394.663 600.872 394.201L599.476 400.036ZM611.303 402.676C613.267 403.085 615.242 403.481 617.227 403.864L618.366 397.973C616.408 397.595 614.461 397.205 612.525 396.802L611.303 402.676ZM623.213 404.979C625.178 405.331 627.153 405.671 629.136 405.999L630.117 400.08C628.159 399.756 626.21 399.42 624.27 399.073L623.213 404.979ZM635.112 406.95C637.104 407.254 639.104 407.546 641.111 407.827L641.943 401.885C639.959 401.608 637.984 401.319 636.018 401.019L635.112 406.95ZM647.08 408.626C649.076 408.881 651.081 409.125 653.091 409.358L653.782 403.398C651.794 403.167 649.813 402.926 647.84 402.674L647.08 408.626ZM659.1 410.019C661.094 410.227 663.094 410.424 665.099 410.611L665.655 404.636C663.671 404.452 661.694 404.257 659.722 404.051L659.1 410.019ZM671.134 411.139C673.134 411.303 675.139 411.457 677.149 411.6L677.576 405.615C675.587 405.473 673.603 405.321 671.624 405.159L671.134 411.139ZM683.169 411.998C685.181 412.12 687.196 412.232 689.216 412.334L689.518 406.342C687.519 406.241 685.524 406.13 683.534 406.009L683.169 411.998ZM695.237 412.608C697.244 412.689 699.255 412.76 701.269 412.821L701.451 406.824C699.457 406.763 697.466 406.693 695.479 406.613L695.237 412.608ZM707.319 412.976C709.325 413.017 711.333 413.049 713.344 413.071L713.41 407.072C711.419 407.05 709.429 407.018 707.443 406.977L707.319 412.976ZM719.38 413.109C721.394 413.112 723.41 413.105 725.427 413.089L725.379 407.089C723.38 407.105 721.384 407.112 719.389 407.109L719.38 413.109ZM731.455 413.012C733.466 412.977 735.477 412.933 737.49 412.879L737.33 406.881C735.336 406.935 733.343 406.978 731.351 407.013L731.455 413.012ZM743.527 412.69C745.536 412.618 747.546 412.537 749.556 412.446L749.285 406.452C747.294 406.542 745.303 406.623 743.312 406.694L743.527 412.69ZM755.584 412.147C757.593 412.038 759.602 411.919 761.61 411.792L761.23 405.804C759.24 405.93 757.249 406.047 755.258 406.155L755.584 412.147ZM767.633 411.382C769.64 411.237 771.645 411.082 773.649 410.918L773.161 404.938C771.175 405.101 769.187 405.254 767.199 405.398L767.633 411.382ZM779.661 410.399C781.668 410.217 783.673 410.026 785.675 409.825L785.077 403.855C783.093 404.054 781.107 404.243 779.118 404.424L779.661 410.399ZM791.674 409.197C793.676 408.978 795.675 408.75 797.67 408.513L796.963 402.555C794.986 402.79 793.005 403.015 791.022 403.232L791.674 409.197ZM803.668 407.773C805.664 407.517 807.657 407.252 809.645 406.979L808.827 401.035C806.857 401.306 804.883 401.568 802.906 401.821L803.668 407.773ZM815.622 406.127C817.619 405.833 819.612 405.53 821.599 405.218L820.668 399.29C818.7 399.6 816.726 399.9 814.748 400.191L815.622 406.127ZM827.547 404.255C829.538 403.922 831.524 403.581 833.503 403.23L832.458 397.322C830.497 397.669 828.531 398.007 826.559 398.336L827.547 404.255ZM839.451 402.147C841.428 401.777 843.398 401.398 845.362 401.01L844.199 395.124C842.255 395.508 840.304 395.883 838.347 396.25L839.451 402.147ZM851.296 399.805C853.274 399.393 855.244 398.972 857.206 398.542L855.921 392.681C853.979 393.107 852.029 393.524 850.072 393.931L851.296 399.805ZM863.071 397.223C865.049 396.767 867.019 396.301 868.98 395.826L867.568 389.995C865.629 390.464 863.68 390.925 861.723 391.376L863.071 397.223ZM874.841 394.373C876.793 393.877 878.736 393.372 880.67 392.857L879.126 387.059C877.215 387.568 875.294 388.067 873.364 388.557L874.841 394.373ZM886.529 391.26C888.471 390.718 890.403 390.166 892.324 389.605L890.642 383.846C888.745 384.4 886.836 384.945 884.916 385.481L886.529 391.26ZM898.12 387.873C900.061 387.28 901.99 386.676 903.907 386.063L902.078 380.348C900.186 380.954 898.282 381.549 896.366 382.135L898.12 387.873ZM909.618 384.193C911.552 383.545 913.471 382.888 915.377 382.22L913.392 376.558C911.513 377.216 909.62 377.865 907.713 378.503L909.618 384.193ZM921.068 380.179C922.966 379.482 924.85 378.776 926.717 378.058L924.566 372.457C922.727 373.163 920.872 373.86 919.001 374.546L921.068 380.179ZM932.383 375.831C934.255 375.078 936.11 374.314 937.947 373.539L935.616 368.01C933.81 368.772 931.985 369.523 930.143 370.265L932.383 375.831ZM943.543 371.123C945.401 370.301 947.24 369.468 949.059 368.623L946.532 363.181C944.747 364.01 942.941 364.828 941.116 365.635L943.543 371.123ZM954.523 366.023C956.363 365.125 958.181 364.216 959.976 363.294L957.236 357.957C955.478 358.859 953.697 359.75 951.893 360.63L954.523 366.023ZM965.296 360.492C967.11 359.511 968.899 358.517 970.662 357.51L967.687 352.3C965.965 353.283 964.217 354.254 962.442 355.214L965.296 360.492ZM975.872 354.452C977.634 353.388 979.367 352.311 981.071 351.22L977.836 346.167C976.178 347.228 974.489 348.278 972.771 349.315L975.872 354.452ZM986.14 347.876C987.84 346.719 989.507 345.548 991.141 344.363L987.617 339.507C986.034 340.655 984.416 341.792 982.765 342.915L986.14 347.876ZM996.02 340.702C996.816 340.084 997.602 339.463 998.38 338.838L994.62 334.162C993.87 334.765 993.11 335.366 992.341 335.963L996.02 340.702Z" fill="#14BF06"/>
<path d="M1040 149L1022.68 179H1057.32L1040 149ZM1037 176V276H1043V176H1037Z" fill="#4B90F3"/>
<path d="M633.999 149L658.946 173.035L625.658 182.622L633.999 149ZM644.05 173.409C650.057 183.521 659.364 192.512 669.891 201.012C680.539 209.61 691.795 217.234 702.259 225.264C712.482 233.108 721.708 241.177 727.077 250.052C732.587 259.157 734.046 269.15 728.705 280.296L723.294 277.704C727.655 268.603 726.539 260.752 721.944 253.158C717.209 245.332 708.801 237.846 698.607 230.024C688.654 222.387 676.711 214.231 666.122 205.681C655.412 197.032 645.446 187.506 638.891 176.474L644.05 173.409Z" fill="#4B90F3"/>
<path d="M565 149L544.897 177.211L579.38 180.515L565 149ZM559.485 175.279C555.355 195.545 546.566 210.892 536.255 226.325C525.988 241.695 514.046 257.352 504.295 277.704L509.706 280.296C519.213 260.455 530.738 245.385 541.244 229.658C551.708 213.996 561.002 197.879 565.364 176.477L559.485 175.279Z" fill="#4B90F3"/>
<path d="M227 149L223.621 183.476L255.168 169.164L227 149ZM236.076 175.746C244.93 184.23 258.189 190.789 274.354 196.035C290.567 201.297 309.972 205.322 331.36 208.579C374.117 215.09 425.22 218.588 475.236 222.625C525.352 226.67 574.371 231.255 613.291 239.912C632.749 244.24 649.533 249.554 662.606 256.245C675.7 262.947 684.783 270.88 689.295 280.296L694.705 277.704C689.4 266.632 679.031 257.912 665.34 250.904C651.626 243.886 634.29 238.436 614.594 234.055C575.206 225.294 525.781 220.685 475.719 216.644C425.558 212.596 374.75 209.117 332.263 202.647C311.03 199.414 291.981 195.448 276.207 190.328C260.385 185.193 248.125 178.981 240.227 171.414L236.076 175.746Z" fill="#4B90F3"/>
<path d="M182 149L170.189 181.565L204.297 175.511L182 149ZM183.996 176.851C193.433 197.344 214.987 210.427 241.42 219.558C267.943 228.72 300.108 234.146 331.726 238.825C363.476 243.524 394.616 247.464 419.559 253.625C432.015 256.703 442.754 260.295 451.147 264.724C459.554 269.16 465.344 274.295 468.308 280.324L473.692 277.676C469.952 270.069 462.943 264.164 453.947 259.417C444.937 254.663 433.666 250.93 420.998 247.801C395.692 241.549 364.118 237.554 332.604 232.89C300.959 228.207 269.309 222.844 243.379 213.887C217.36 204.899 197.823 192.532 189.445 174.341L183.996 176.851Z" fill="#4B90F3"/>
<path d="M137 149L124.244 181.207L158.514 176.151L137 149ZM138.088 176.639C147.284 204.834 170.576 219.345 193.193 232.476C216.174 245.818 238.242 257.68 248.259 280.218L253.741 277.782C242.769 253.094 218.607 240.292 196.206 227.287C173.44 214.07 152.197 200.548 143.793 174.778L138.088 176.639Z" fill="#4B90F3"/>
<path d="M92 149L71.3023 176.778L105.707 180.814L92 149ZM85.9425 175.097C81.1207 194.481 71.481 208.201 62.6319 223.05C53.808 237.856 46 253.5 46 276H52C52 255.11 59.1617 240.593 67.786 226.121C76.3853 211.692 86.6724 197.018 91.7651 176.545L85.9425 175.097Z" fill="#4B90F3"/>
<path d="M714 101L744 83.6795L744 118.321L714 101ZM741 98L928 98L928 104L741 104L741 98Z" fill="#4B90F3"/>
<path d="M485 101L455 83.6795L455 118.321L485 101ZM458 98L271 98L271 104L458 104L458 98Z" fill="#4B90F3"/>
<path d="M1127.62 300.882L1125.63 303.121L1125.63 303.121L1127.62 300.882ZM1132.39 329.806L1134.89 331.46L1134.89 331.46L1132.39 329.806ZM1086.73 333.89L1111.18 358.429L1120.21 324.985L1086.73 333.89ZM1086.07 312.319C1092.02 306.664 1099.57 302.029 1106.88 300.043C1114.18 298.06 1120.78 298.798 1125.63 303.121L1129.62 298.644C1122.74 292.505 1113.77 291.951 1105.31 294.253C1096.85 296.551 1088.45 301.779 1081.93 307.969L1086.07 312.319ZM1125.63 303.121C1134.93 311.421 1134.32 321.441 1129.89 328.152L1134.89 331.46C1140.82 322.498 1141.35 309.11 1129.62 298.644L1125.63 303.121ZM1129.89 328.152C1126.55 333.205 1120.84 337.361 1112.59 337.933L1113 343.918C1123.26 343.207 1130.61 337.945 1134.89 331.46L1129.89 328.152Z" fill="#4B90F3"/>
<rect x="995" y="276" width="90" height="90" rx="45" stroke="#4B90F3" stroke-width="6"/>
<path d="M1029.9 338V304.496H1051.36V309.296H1035.33V318.608H1049.87V323.408H1035.33V333.2H1051.36V338H1029.9Z" fill="#4B90F3"/>
<path d="M796.624 300.882L794.626 303.121L794.626 303.121L796.624 300.882ZM801.391 329.806L803.894 331.46L803.894 331.46L801.391 329.806ZM755.729 333.89L780.179 358.429L789.206 324.985L755.729 333.89ZM755.066 312.319C761.022 306.664 768.573 302.029 775.88 300.043C783.175 298.06 789.783 298.798 794.626 303.121L798.621 298.644C791.741 292.505 782.774 291.951 774.306 294.253C765.851 296.551 757.452 301.779 750.934 307.969L755.066 312.319ZM794.626 303.121C803.928 311.421 803.323 321.441 798.888 328.152L803.894 331.46C809.817 322.498 810.35 309.11 798.621 298.644L794.626 303.121ZM798.888 328.152C795.548 333.205 789.838 337.361 781.589 337.933L782.004 343.918C792.263 343.207 799.608 337.945 803.894 331.46L798.888 328.152Z" fill="#4B90F3"/>
<rect x="664" y="276" width="90" height="90" rx="45" stroke="#4B90F3" stroke-width="6"/>
<path d="M696.745 304.496H708.601C710.745 304.496 712.681 304.848 714.409 305.552C716.169 306.256 717.657 307.312 718.873 308.72C720.121 310.096 721.081 311.84 721.753 313.952C722.425 316.032 722.761 318.464 722.761 321.248C722.761 324.032 722.425 326.48 721.753 328.592C721.081 330.672 720.121 332.416 718.873 333.824C717.657 335.2 716.169 336.24 714.409 336.944C712.681 337.648 710.745 338 708.601 338H696.745V304.496ZM708.601 333.2C711.097 333.2 713.113 332.416 714.649 330.848C716.185 329.28 716.953 326.976 716.953 323.936V318.56C716.953 315.52 716.185 313.216 714.649 311.648C713.113 310.08 711.097 309.296 708.601 309.296H702.169V333.2H708.601Z" fill="#4B90F3"/>
<path d="M576.624 300.882L574.626 303.121L574.626 303.121L576.624 300.882ZM581.391 329.806L583.894 331.46L583.894 331.46L581.391 329.806ZM535.729 333.89L560.179 358.429L569.206 324.985L535.729 333.89ZM535.066 312.319C541.022 306.664 548.573 302.029 555.88 300.043C563.175 298.06 569.783 298.798 574.626 303.121L578.621 298.644C571.741 292.505 562.774 291.951 554.306 294.253C545.851 296.551 537.452 301.779 530.934 307.969L535.066 312.319ZM574.626 303.121C583.928 311.421 583.323 321.441 578.888 328.152L583.894 331.46C589.817 322.498 590.35 309.11 578.621 298.644L574.626 303.121ZM578.888 328.152C575.548 333.205 569.838 337.361 561.589 337.933L562.004 343.918C572.263 343.207 579.608 337.945 583.894 331.46L578.888 328.152Z" fill="#4B90F3"/>
<rect x="444" y="276" width="90" height="90" rx="45" stroke="#4B90F3" stroke-width="6"/>
<path d="M490.493 338.576C486.109 338.576 482.669 337.104 480.173 334.16C477.677 331.184 476.429 326.88 476.429 321.248C476.429 318.432 476.749 315.952 477.389 313.808C478.029 311.664 478.957 309.856 480.173 308.384C481.389 306.912 482.861 305.808 484.589 305.072C486.349 304.304 488.317 303.92 490.493 303.92C493.405 303.92 495.837 304.56 497.789 305.84C499.773 307.12 501.325 309.008 502.445 311.504L497.885 314C497.309 312.4 496.413 311.136 495.197 310.208C494.013 309.248 492.445 308.768 490.493 308.768C487.901 308.768 485.869 309.648 484.397 311.408C482.925 313.168 482.189 315.6 482.189 318.704V323.792C482.189 326.896 482.925 329.328 484.397 331.088C485.869 332.848 487.901 333.728 490.493 333.728C492.509 333.728 494.141 333.216 495.389 332.192C496.669 331.136 497.613 329.792 498.221 328.16L502.589 330.8C501.469 333.232 499.901 335.136 497.885 336.512C495.869 337.888 493.405 338.576 490.493 338.576Z" fill="#4B90F3"/>
<path d="M356.624 300.882L354.626 303.121L354.626 303.121L356.624 300.882ZM361.391 329.806L363.894 331.46L363.894 331.46L361.391 329.806ZM315.729 333.89L340.179 358.429L349.206 324.985L315.729 333.89ZM315.066 312.319C321.022 306.664 328.573 302.029 335.88 300.043C343.175 298.06 349.783 298.798 354.626 303.121L358.621 298.644C351.741 292.505 342.774 291.951 334.306 294.253C325.851 296.551 317.452 301.779 310.934 307.969L315.066 312.319ZM354.626 303.121C363.928 311.421 363.323 321.441 358.888 328.152L363.894 331.46C369.817 322.498 370.35 309.11 358.621 298.644L354.626 303.121ZM358.888 328.152C355.548 333.205 349.838 337.361 341.589 337.933L342.004 343.918C352.263 343.207 359.608 337.945 363.894 331.46L358.888 328.152Z" fill="#4B90F3"/>
<rect x="224" y="276" width="90" height="90" rx="45" stroke="#4B90F3" stroke-width="6"/>
<path d="M257.308 304.496H272.14C274.924 304.496 277.1 305.28 278.668 306.848C280.268 308.416 281.068 310.512 281.068 313.136C281.068 314.384 280.892 315.456 280.54 316.352C280.188 317.216 279.74 317.936 279.196 318.512C278.652 319.056 278.028 319.472 277.324 319.76C276.62 320.016 275.932 320.176 275.26 320.24V320.528C275.932 320.56 276.668 320.72 277.468 321.008C278.3 321.296 279.068 321.76 279.772 322.4C280.476 323.008 281.068 323.808 281.548 324.8C282.028 325.76 282.268 326.944 282.268 328.352C282.268 329.696 282.044 330.96 281.596 332.144C281.18 333.328 280.588 334.352 279.82 335.216C279.052 336.08 278.14 336.768 277.084 337.28C276.028 337.76 274.876 338 273.628 338H257.308V304.496ZM262.732 333.344H272.044C273.452 333.344 274.556 332.976 275.356 332.24C276.156 331.504 276.556 330.448 276.556 329.072V327.44C276.556 326.064 276.156 325.008 275.356 324.272C274.556 323.536 273.452 323.168 272.044 323.168H262.732V333.344ZM262.732 318.656H271.132C272.476 318.656 273.516 318.32 274.252 317.648C274.988 316.944 275.356 315.952 275.356 314.672V313.136C275.356 311.856 274.988 310.88 274.252 310.208C273.516 309.504 272.476 309.152 271.132 309.152H262.732V318.656Z" fill="#4B90F3"/>
<path d="M136.624 300.882L134.626 303.121L134.626 303.121L136.624 300.882ZM141.391 329.806L143.894 331.46L143.894 331.46L141.391 329.806ZM95.7288 333.89L120.179 358.429L129.206 324.985L95.7288 333.89ZM95.0658 312.319C101.022 306.664 108.573 302.029 115.88 300.043C123.175 298.06 129.783 298.798 134.626 303.121L138.621 298.644C131.741 292.505 122.774 291.951 114.306 294.253C105.851 296.551 97.4524 301.779 90.9342 307.969L95.0658 312.319ZM134.626 303.121C143.928 311.421 143.323 321.441 138.888 328.152L143.894 331.46C149.817 322.498 150.35 309.11 138.621 298.644L134.626 303.121ZM138.888 328.152C135.548 333.205 129.838 337.361 121.589 337.933L122.004 343.918C132.263 343.207 139.608 337.945 143.894 331.46L138.888 328.152Z" fill="#4B90F3"/>
<rect x="4" y="276" width="90" height="90" rx="45" stroke="#4B90F3" stroke-width="6"/>
<path d="M58.1654 338L55.1414 328.928H42.6134L39.6854 338H34.1654L45.5894 304.496H52.4054L63.8294 338H58.1654ZM48.9974 309.488H48.7574L43.9094 324.272H53.7974L48.9974 309.488Z" fill="#4B90F3"/>
<path d="M1020.22 12.0173L1022.4 14.0788L1020.22 12.0173ZM1049.9 7.89685L1048.22 10.3804L1049.9 7.89685ZM1053.32 53.8063L1078.42 29.9297L1045.2 20.1325L1053.32 53.8063ZM1031.17 53.9548C1025.48 47.8422 1020.86 40.1555 1018.95 32.7819C1017.04 25.4249 1017.91 18.8317 1022.4 14.0788L1018.04 9.95576C1011.64 16.7259 1010.92 25.7303 1013.14 34.2871C1015.35 42.8273 1020.56 51.3704 1026.78 58.0452L1031.17 53.9548ZM1022.4 14.0788C1031.06 4.92411 1041.37 5.73867 1048.22 10.3804L1051.58 5.41332C1042.57 -0.696577 1028.94 -1.56119 1018.04 9.95576L1022.4 14.0788ZM1048.22 10.3804C1053.38 13.8771 1057.54 19.7417 1057.96 28.0609L1063.96 27.7557C1063.43 17.3749 1058.14 9.85954 1051.58 5.41332L1048.22 10.3804Z" fill="#4B90F3"/>
<rect x="928" y="56" width="223" height="90" rx="45" stroke="#4B90F3" stroke-width="6"/>
<path d="M979.9 120.352C979.9 122.944 978.908 124.896 976.924 126.208C974.94 127.52 971.708 128.176 967.228 128.176C965.18 128.176 963.436 128.032 961.996 127.744C960.588 127.488 959.42 127.104 958.492 126.592C957.596 126.08 956.94 125.456 956.524 124.72C956.108 123.984 955.9 123.136 955.9 122.176C955.9 120.8 956.268 119.728 957.004 118.96C957.772 118.192 958.828 117.664 960.172 117.376V116.848C958.284 116.24 957.34 114.96 957.34 113.008C957.34 111.728 957.772 110.752 958.636 110.08C959.5 109.376 960.54 108.88 961.756 108.592V108.4C960.284 107.696 959.148 106.72 958.348 105.472C957.58 104.192 957.196 102.704 957.196 101.008C957.196 98.448 958.044 96.384 959.74 94.816C961.468 93.248 963.932 92.464 967.132 92.464C968.892 92.464 970.396 92.72 971.644 93.232V92.56C971.644 91.44 971.9 90.576 972.412 89.968C972.956 89.328 973.788 89.008 974.908 89.008H978.748V93.232H973.66V94.24C974.78 94.976 975.644 95.936 976.252 97.12C976.86 98.272 977.164 99.568 977.164 101.008C977.164 103.536 976.3 105.584 974.572 107.152C972.844 108.688 970.38 109.456 967.18 109.456C965.964 109.456 964.876 109.328 963.916 109.072C963.276 109.296 962.716 109.616 962.236 110.032C961.756 110.416 961.516 110.928 961.516 111.568C961.516 112.24 961.82 112.72 962.428 113.008C963.036 113.296 963.9 113.44 965.02 113.44H971.164C974.236 113.44 976.46 114.064 977.836 115.312C979.212 116.528 979.9 118.208 979.9 120.352ZM975.004 120.928C975.004 120.064 974.668 119.376 973.996 118.864C973.356 118.352 972.172 118.096 970.444 118.096H961.996C960.844 118.768 960.268 119.728 960.268 120.976C960.268 122 960.668 122.816 961.468 123.424C962.3 124.064 963.692 124.384 965.644 124.384H968.908C972.972 124.384 975.004 123.232 975.004 120.928ZM967.18 105.664C968.716 105.664 969.9 105.328 970.732 104.656C971.596 103.952 972.028 102.88 972.028 101.44V100.48C972.028 99.04 971.596 97.984 970.732 97.312C969.9 96.608 968.716 96.256 967.18 96.256C965.644 96.256 964.444 96.608 963.58 97.312C962.748 97.984 962.332 99.04 962.332 100.48V101.44C962.332 102.88 962.748 103.952 963.58 104.656C964.444 105.328 965.644 105.664 967.18 105.664ZM983.313 118V93.04H988.545V97.84H988.785C989.137 96.56 989.873 95.44 990.993 94.48C992.113 93.52 993.665 93.04 995.649 93.04H997.041V98.08H994.977C992.897 98.08 991.297 98.416 990.177 99.088C989.089 99.76 988.545 100.752 988.545 102.064V118H983.313ZM1010.77 118.576C1009.04 118.576 1007.45 118.272 1006.01 117.664C1004.61 117.056 1003.41 116.192 1002.41 115.072C1001.42 113.92 1000.65 112.544 1000.11 110.944C999.566 109.312 999.294 107.504 999.294 105.52C999.294 103.536 999.566 101.744 1000.11 100.144C1000.65 98.512 1001.42 97.136 1002.41 96.016C1003.41 94.864 1004.61 93.984 1006.01 93.376C1007.45 92.768 1009.04 92.464 1010.77 92.464C1012.49 92.464 1014.06 92.768 1015.47 93.376C1016.91 93.984 1018.13 94.864 1019.12 96.016C1020.11 97.136 1020.88 98.512 1021.42 100.144C1021.97 101.744 1022.24 103.536 1022.24 105.52C1022.24 107.504 1021.97 109.312 1021.42 110.944C1020.88 112.544 1020.11 113.92 1019.12 115.072C1018.13 116.192 1016.91 117.056 1015.47 117.664C1014.06 118.272 1012.49 118.576 1010.77 118.576ZM1010.77 114.256C1012.56 114.256 1014 113.712 1015.09 112.624C1016.17 111.504 1016.72 109.84 1016.72 107.632V103.408C1016.72 101.2 1016.17 99.552 1015.09 98.464C1014 97.344 1012.56 96.784 1010.77 96.784C1008.97 96.784 1007.53 97.344 1006.45 98.464C1005.36 99.552 1004.81 101.2 1004.81 103.408V107.632C1004.81 109.84 1005.36 111.504 1006.45 112.624C1007.53 113.712 1008.97 114.256 1010.77 114.256ZM1042.71 113.872H1042.52C1042.29 114.48 1041.99 115.072 1041.6 115.648C1041.25 116.224 1040.79 116.736 1040.21 117.184C1039.67 117.6 1039 117.936 1038.2 118.192C1037.43 118.448 1036.53 118.576 1035.51 118.576C1032.92 118.576 1030.9 117.744 1029.46 116.08C1028.05 114.416 1027.35 112.032 1027.35 108.928V93.04H1032.58V108.256C1032.58 112.128 1034.18 114.064 1037.38 114.064C1038.05 114.064 1038.71 113.984 1039.35 113.824C1039.99 113.632 1040.55 113.36 1041.03 113.008C1041.54 112.656 1041.94 112.208 1042.23 111.664C1042.55 111.12 1042.71 110.48 1042.71 109.744V93.04H1047.94V118H1042.71V113.872ZM1054.95 93.04H1060.18V97.168H1060.42C1060.97 95.664 1061.85 94.512 1063.06 93.712C1064.31 92.88 1065.77 92.464 1067.43 92.464C1070.6 92.464 1073.05 93.616 1074.78 95.92C1076.5 98.192 1077.37 101.392 1077.37 105.52C1077.37 109.648 1076.5 112.864 1074.78 115.168C1073.05 117.44 1070.6 118.576 1067.43 118.576C1065.77 118.576 1064.31 118.16 1063.06 117.328C1061.85 116.496 1060.97 115.344 1060.42 113.872H1060.18V127.6H1054.95V93.04ZM1065.85 114.064C1067.67 114.064 1069.13 113.488 1070.22 112.336C1071.3 111.152 1071.85 109.6 1071.85 107.68V103.36C1071.85 101.44 1071.3 99.904 1070.22 98.752C1069.13 97.568 1067.67 96.976 1065.85 96.976C1064.25 96.976 1062.9 97.376 1061.82 98.176C1060.73 98.944 1060.18 99.968 1060.18 101.248V109.792C1060.18 111.072 1060.73 112.112 1061.82 112.912C1062.9 113.68 1064.25 114.064 1065.85 114.064ZM1113.76 104.272H1100.99V118H1093.69V84.496H1100.99V97.84H1113.76V84.496H1121.05V118H1113.76V104.272Z" fill="#4B90F3"/>
<path d="M580.222 12.0173L582.402 14.0788L580.222 12.0173ZM609.9 7.89685L608.217 10.3804L609.9 7.89685ZM613.324 53.8063L638.422 29.9297L605.196 20.1325L613.324 53.8063ZM591.174 53.9548C585.478 47.8422 580.86 40.1555 578.949 32.7819C577.042 25.4249 577.906 18.8317 582.402 14.0788L578.043 9.95576C571.639 16.7259 570.923 25.7303 573.141 34.2871C575.354 42.8273 580.564 51.3704 586.784 58.0452L591.174 53.9548ZM582.402 14.0788C591.061 4.92411 601.367 5.73867 608.217 10.3804L611.583 5.41332C602.566 -0.696577 588.936 -1.56119 578.043 9.95576L582.402 14.0788ZM608.217 10.3804C613.378 13.8771 617.541 19.7417 617.964 28.0609L623.957 27.7557C623.428 17.3749 618.145 9.85954 611.583 5.41332L608.217 10.3804Z" fill="#4B90F3"/>
<rect x="488" y="56" width="223" height="90" rx="45" stroke="#4B90F3" stroke-width="6"/>
<path d="M520.215 93.04H525.447V97.168H525.687C526.231 95.664 527.111 94.512 528.327 93.712C529.575 92.88 531.031 92.464 532.695 92.464C535.863 92.464 538.311 93.616 540.039 95.92C541.767 98.192 542.631 101.392 542.631 105.52C542.631 109.648 541.767 112.864 540.039 115.168C538.311 117.44 535.863 118.576 532.695 118.576C531.031 118.576 529.575 118.16 528.327 117.328C527.111 116.496 526.231 115.344 525.687 113.872H525.447V127.6H520.215V93.04ZM531.111 114.064C532.935 114.064 534.391 113.488 535.479 112.336C536.567 111.152 537.111 109.6 537.111 107.68V103.36C537.111 101.44 536.567 99.904 535.479 98.752C534.391 97.568 532.935 96.976 531.111 96.976C529.511 96.976 528.167 97.376 527.079 98.176C525.991 98.944 525.447 99.968 525.447 101.248V109.792C525.447 111.072 525.991 112.112 527.079 112.912C528.167 113.68 529.511 114.064 531.111 114.064ZM548.142 118V93.04H553.374V97.84H553.614C553.966 96.56 554.702 95.44 555.822 94.48C556.942 93.52 558.494 93.04 560.478 93.04H561.87V98.08H559.806C557.726 98.08 556.126 98.416 555.006 99.088C553.918 99.76 553.374 100.752 553.374 102.064V118H548.142ZM575.594 118.576C573.866 118.576 572.282 118.272 570.842 117.664C569.434 117.056 568.234 116.192 567.242 115.072C566.25 113.92 565.482 112.544 564.938 110.944C564.394 109.312 564.122 107.504 564.122 105.52C564.122 103.536 564.394 101.744 564.938 100.144C565.482 98.512 566.25 97.136 567.242 96.016C568.234 94.864 569.434 93.984 570.842 93.376C572.282 92.768 573.866 92.464 575.594 92.464C577.322 92.464 578.89 92.768 580.298 93.376C581.738 93.984 582.954 94.864 583.946 96.016C584.938 97.136 585.706 98.512 586.25 100.144C586.794 101.744 587.066 103.536 587.066 105.52C587.066 107.504 586.794 109.312 586.25 110.944C585.706 112.544 584.938 113.92 583.946 115.072C582.954 116.192 581.738 117.056 580.298 117.664C578.89 118.272 577.322 118.576 575.594 118.576ZM575.594 114.256C577.386 114.256 578.826 113.712 579.914 112.624C581.002 111.504 581.546 109.84 581.546 107.632V103.408C581.546 101.2 581.002 99.552 579.914 98.464C578.826 97.344 577.386 96.784 575.594 96.784C573.802 96.784 572.362 97.344 571.274 98.464C570.186 99.552 569.642 101.2 569.642 103.408V107.632C569.642 109.84 570.186 111.504 571.274 112.624C572.362 113.712 573.802 114.256 575.594 114.256ZM588.976 118L597.76 105.376L589.216 93.04H595.264L600.88 101.728H601.024L606.784 93.04H612.352L603.808 105.328L612.496 118H606.448L600.688 108.928H600.544L594.544 118H588.976ZM632.045 93.04H637.085L626.573 122.944C626.285 123.776 625.949 124.48 625.565 125.056C625.213 125.664 624.781 126.144 624.269 126.496C623.789 126.88 623.197 127.152 622.493 127.312C621.789 127.504 620.957 127.6 619.997 127.6H616.973V123.328H621.197L622.637 119.104L613.565 93.04H618.797L623.789 107.728L625.229 113.152H625.469L627.053 107.728L632.045 93.04ZM672.989 112.672H672.749C672.493 114.368 671.629 115.776 670.157 116.896C668.685 118.016 666.685 118.576 664.157 118.576C662.237 118.576 660.445 118.208 658.781 117.472C657.117 116.736 655.661 115.648 654.413 114.208C653.165 112.768 652.189 110.976 651.485 108.832C650.781 106.688 650.429 104.208 650.429 101.392C650.429 98.576 650.797 96.08 651.533 93.904C652.269 91.728 653.293 89.904 654.605 88.432C655.949 86.96 657.549 85.84 659.405 85.072C661.261 84.304 663.325 83.92 665.597 83.92C668.605 83.92 671.197 84.576 673.373 85.888C675.549 87.168 677.261 89.104 678.509 91.696L672.557 95.104C672.045 93.792 671.245 92.688 670.157 91.792C669.069 90.864 667.549 90.4 665.597 90.4C663.325 90.4 661.517 91.056 660.173 92.368C658.829 93.68 658.157 95.744 658.157 98.56V103.936C658.157 106.72 658.829 108.784 660.173 110.128C661.517 111.44 663.325 112.096 665.597 112.096C666.493 112.096 667.341 112 668.141 111.808C668.941 111.584 669.645 111.264 670.253 110.848C670.861 110.4 671.325 109.872 671.645 109.264C671.997 108.656 672.173 107.936 672.173 107.104V105.424H665.933V99.328H679.133V118H672.989V112.672Z" fill="#4B90F3"/>
<path d="M140.222 12.0173L142.402 14.0788L140.222 12.0173ZM169.9 7.89685L168.217 10.3804L169.9 7.89685ZM173.324 53.8063L198.422 29.9297L165.196 20.1325L173.324 53.8063ZM151.174 53.9548C145.478 47.8422 140.86 40.1555 138.949 32.7819C137.042 25.4249 137.906 18.8317 142.402 14.0788L138.043 9.95576C131.639 16.7259 130.923 25.7303 133.141 34.2871C135.354 42.8273 140.564 51.3704 146.784 58.0452L151.174 53.9548ZM142.402 14.0788C151.061 4.92411 161.367 5.73867 168.217 10.3804L171.583 5.41332C162.566 -0.696577 148.936 -1.56119 138.043 9.95576L142.402 14.0788ZM168.217 10.3804C173.378 13.8771 177.541 19.7417 177.964 28.0609L183.957 27.7557C183.428 17.3749 178.145 9.85954 171.583 5.41332L168.217 10.3804Z" fill="#4B90F3"/>
<rect x="48" y="56" width="223" height="90" rx="45" stroke="#4B90F3" stroke-width="6"/>
<path d="M100.017 120.352C100.017 122.944 99.0253 124.896 97.0413 126.208C95.0573 127.52 91.8253 128.176 87.3453 128.176C85.2973 128.176 83.5533 128.032 82.1133 127.744C80.7053 127.488 79.5373 127.104 78.6093 126.592C77.7133 126.08 77.0573 125.456 76.6413 124.72C76.2253 123.984 76.0173 123.136 76.0173 122.176C76.0173 120.8 76.3853 119.728 77.1213 118.96C77.8893 118.192 78.9453 117.664 80.2893 117.376V116.848C78.4013 116.24 77.4573 114.96 77.4573 113.008C77.4573 111.728 77.8893 110.752 78.7533 110.08C79.6173 109.376 80.6573 108.88 81.8733 108.592V108.4C80.4013 107.696 79.2653 106.72 78.4653 105.472C77.6973 104.192 77.3133 102.704 77.3133 101.008C77.3133 98.448 78.1613 96.384 79.8573 94.816C81.5853 93.248 84.0493 92.464 87.2493 92.464C89.0093 92.464 90.5133 92.72 91.7613 93.232V92.56C91.7613 91.44 92.0173 90.576 92.5293 89.968C93.0733 89.328 93.9053 89.008 95.0253 89.008H98.8653V93.232H93.7773V94.24C94.8973 94.976 95.7613 95.936 96.3693 97.12C96.9773 98.272 97.2813 99.568 97.2813 101.008C97.2813 103.536 96.4173 105.584 94.6893 107.152C92.9613 108.688 90.4973 109.456 87.2973 109.456C86.0813 109.456 84.9933 109.328 84.0333 109.072C83.3933 109.296 82.8333 109.616 82.3533 110.032C81.8733 110.416 81.6333 110.928 81.6333 111.568C81.6333 112.24 81.9373 112.72 82.5453 113.008C83.1533 113.296 84.0173 113.44 85.1373 113.44H91.2813C94.3533 113.44 96.5773 114.064 97.9533 115.312C99.3293 116.528 100.017 118.208 100.017 120.352ZM95.1213 120.928C95.1213 120.064 94.7853 119.376 94.1133 118.864C93.4733 118.352 92.2893 118.096 90.5613 118.096H82.1133C80.9613 118.768 80.3853 119.728 80.3853 120.976C80.3853 122 80.7853 122.816 81.5853 123.424C82.4173 124.064 83.8093 124.384 85.7613 124.384H89.0253C93.0893 124.384 95.1213 123.232 95.1213 120.928ZM87.2973 105.664C88.8333 105.664 90.0173 105.328 90.8493 104.656C91.7133 103.952 92.1453 102.88 92.1453 101.44V100.48C92.1453 99.04 91.7133 97.984 90.8493 97.312C90.0173 96.608 88.8333 96.256 87.2973 96.256C85.7613 96.256 84.5613 96.608 83.6973 97.312C82.8653 97.984 82.4493 99.04 82.4493 100.48V101.44C82.4493 102.88 82.8653 103.952 83.6973 104.656C84.5613 105.328 85.7613 105.664 87.2973 105.664ZM103.431 118V93.04H108.663V97.84H108.903C109.255 96.56 109.991 95.44 111.111 94.48C112.231 93.52 113.783 93.04 115.767 93.04H117.159V98.08H115.095C113.015 98.08 111.415 98.416 110.295 99.088C109.207 99.76 108.663 100.752 108.663 102.064V118H103.431ZM130.883 118.576C129.155 118.576 127.571 118.272 126.131 117.664C124.723 117.056 123.523 116.192 122.531 115.072C121.539 113.92 120.771 112.544 120.227 110.944C119.683 109.312 119.411 107.504 119.411 105.52C119.411 103.536 119.683 101.744 120.227 100.144C120.771 98.512 121.539 97.136 122.531 96.016C123.523 94.864 124.723 93.984 126.131 93.376C127.571 92.768 129.155 92.464 130.883 92.464C132.611 92.464 134.179 92.768 135.587 93.376C137.027 93.984 138.243 94.864 139.235 96.016C140.227 97.136 140.995 98.512 141.539 100.144C142.083 101.744 142.355 103.536 142.355 105.52C142.355 107.504 142.083 109.312 141.539 110.944C140.995 112.544 140.227 113.92 139.235 115.072C138.243 116.192 137.027 117.056 135.587 117.664C134.179 118.272 132.611 118.576 130.883 118.576ZM130.883 114.256C132.675 114.256 134.115 113.712 135.203 112.624C136.291 111.504 136.835 109.84 136.835 107.632V103.408C136.835 101.2 136.291 99.552 135.203 98.464C134.115 97.344 132.675 96.784 130.883 96.784C129.091 96.784 127.651 97.344 126.563 98.464C125.475 99.552 124.931 101.2 124.931 103.408V107.632C124.931 109.84 125.475 111.504 126.563 112.624C127.651 113.712 129.091 114.256 130.883 114.256ZM162.825 113.872H162.633C162.409 114.48 162.105 115.072 161.721 115.648C161.369 116.224 160.905 116.736 160.329 117.184C159.785 117.6 159.113 117.936 158.313 118.192C157.545 118.448 156.649 118.576 155.625 118.576C153.033 118.576 151.017 117.744 149.577 116.08C148.169 114.416 147.465 112.032 147.465 108.928V93.04H152.697V108.256C152.697 112.128 154.297 114.064 157.497 114.064C158.169 114.064 158.825 113.984 159.465 113.824C160.105 113.632 160.665 113.36 161.145 113.008C161.657 112.656 162.057 112.208 162.345 111.664C162.665 111.12 162.825 110.48 162.825 109.744V93.04H168.057V118H162.825V113.872ZM175.069 93.04H180.301V97.168H180.541C181.085 95.664 181.965 94.512 183.181 93.712C184.429 92.88 185.885 92.464 187.549 92.464C190.717 92.464 193.165 93.616 194.893 95.92C196.621 98.192 197.485 101.392 197.485 105.52C197.485 109.648 196.621 112.864 194.893 115.168C193.165 117.44 190.717 118.576 187.549 118.576C185.885 118.576 184.429 118.16 183.181 117.328C181.965 116.496 181.085 115.344 180.541 113.872H180.301V127.6H175.069V93.04ZM185.965 114.064C187.789 114.064 189.245 113.488 190.333 112.336C191.421 111.152 191.965 109.6 191.965 107.68V103.36C191.965 101.44 191.421 99.904 190.333 98.752C189.245 97.568 187.789 96.976 185.965 96.976C184.365 96.976 183.021 97.376 181.933 98.176C180.845 98.944 180.301 99.968 180.301 101.248V109.792C180.301 111.072 180.845 112.112 181.933 112.912C183.021 113.68 184.365 114.064 185.965 114.064ZM235.075 112.672H234.835C234.579 114.368 233.715 115.776 232.243 116.896C230.771 118.016 228.771 118.576 226.243 118.576C224.323 118.576 222.531 118.208 220.867 117.472C219.203 116.736 217.747 115.648 216.499 114.208C215.251 112.768 214.275 110.976 213.571 108.832C212.867 106.688 212.515 104.208 212.515 101.392C212.515 98.576 212.883 96.08 213.619 93.904C214.355 91.728 215.379 89.904 216.691 88.432C218.035 86.96 219.635 85.84 221.491 85.072C223.347 84.304 225.411 83.92 227.683 83.92C230.691 83.92 233.283 84.576 235.459 85.888C237.635 87.168 239.347 89.104 240.595 91.696L234.643 95.104C234.131 93.792 233.331 92.688 232.243 91.792C231.155 90.864 229.635 90.4 227.683 90.4C225.411 90.4 223.603 91.056 222.259 92.368C220.915 93.68 220.243 95.744 220.243 98.56V103.936C220.243 106.72 220.915 108.784 222.259 110.128C223.603 111.44 225.411 112.096 227.683 112.096C228.579 112.096 229.427 112 230.227 111.808C231.027 111.584 231.731 111.264 232.339 110.848C232.947 110.4 233.411 109.872 233.731 109.264C234.083 108.656 234.259 107.936 234.259 107.104V105.424H228.019V99.328H241.219V118H235.075V112.672Z" fill="#4B90F3"/>
</svg>
