<svg width="382" height="341" viewBox="0 0 382 341" fill="none" xmlns="http://www.w3.org/2000/svg">
<path d="M171.416 249L207 213M171 213L206.584 249" stroke="#E95757" stroke-width="12"/>
<path d="M211 144.015L241 161.335L211 178.656L211 144.015ZM271.902 255.5L221.902 168.897L227.098 165.897L277.098 252.5L271.902 255.5Z" fill="#E95757"/>
<path d="M253 293L223 310.321V275.679L253 293ZM226 296H126V290H226V296Z" fill="#E95757"/>
<path d="M106 252L136 234.679L106 217.359L106 252ZM122.098 230.117L172.098 143.515L166.902 140.515L116.902 227.117L122.098 230.117Z" fill="#E95757"/>
<path d="M353.192 219.003L353.143 222.002L353.192 219.003ZM375.799 237.888L378.775 237.51L375.799 237.888ZM343.656 271L378.192 273.692L363.255 242.437L343.656 271ZM328.985 255.019C329.817 246.798 332.537 238.305 336.809 231.987C341.075 225.68 346.605 221.894 353.143 222.002L353.242 216.003C343.978 215.85 336.784 221.315 331.839 228.626C326.901 235.928 323.926 245.422 323.015 254.414L328.985 255.019ZM353.143 222.002C365.69 222.209 371.803 230.24 372.823 238.266L378.775 237.51C377.414 226.801 369.043 216.264 353.242 216.003L353.143 222.002ZM372.823 238.266C373.596 244.35 371.94 251.325 365.921 257.212L370.116 261.501C377.582 254.2 379.766 245.311 378.775 237.51L372.823 238.266Z" fill="#4B90F3"/>
<rect x="256" y="248" width="90" height="90" rx="45" stroke="#4B90F3" stroke-width="6"/>
<path d="M302.493 310.576C298.109 310.576 294.669 309.104 292.173 306.16C289.677 303.184 288.429 298.88 288.429 293.248C288.429 290.432 288.749 287.952 289.389 285.808C290.029 283.664 290.957 281.856 292.173 280.384C293.389 278.912 294.861 277.808 296.589 277.072C298.349 276.304 300.317 275.92 302.493 275.92C305.405 275.92 307.837 276.56 309.789 277.84C311.773 279.12 313.325 281.008 314.445 283.504L309.885 286C309.309 284.4 308.413 283.136 307.197 282.208C306.013 281.248 304.445 280.768 302.493 280.768C299.901 280.768 297.869 281.648 296.397 283.408C294.925 285.168 294.189 287.6 294.189 290.704V295.792C294.189 298.896 294.925 301.328 296.397 303.088C297.869 304.848 299.901 305.728 302.493 305.728C304.509 305.728 306.141 305.216 307.389 304.192C308.669 303.136 309.613 301.792 310.221 300.16L314.589 302.8C313.469 305.232 311.901 307.136 309.885 308.512C307.869 309.888 305.405 310.576 302.493 310.576Z" fill="#4B90F3"/>
<path d="M4.04795 245.419L7.04343 245.255L4.04795 245.419ZM21.4171 221.489L20.8299 218.547L21.4171 221.489ZM57 251.2L57.1556 216.559L27.0781 233.745L57 251.2ZM41.9793 267.001C33.6497 266.761 24.911 264.655 18.2507 260.842C11.598 257.032 7.40185 251.782 7.04343 245.255L1.05246 245.584C1.56141 254.853 7.57349 261.642 15.2693 266.048C22.9574 270.451 32.7076 272.737 41.8066 272.999L41.9793 267.001ZM7.04343 245.255C6.6923 238.86 8.50018 234.098 11.258 230.745C14.0453 227.357 17.9424 225.242 22.0043 224.431L20.8299 218.547C15.5596 219.599 10.3832 222.364 6.6244 226.934C2.83621 231.539 0.625582 237.81 1.05246 245.584L7.04343 245.255ZM22.0043 224.431C28.0931 223.216 35.254 224.38 41.6188 230.005L45.5924 225.51C37.7106 218.543 28.6054 216.995 20.8299 218.547L22.0043 224.431Z" fill="#4B90F3"/>
<rect x="36" y="248" width="90" height="90" rx="45" stroke="#4B90F3" stroke-width="6"/>
<path d="M69.3077 276.496H84.1397C86.9237 276.496 89.0997 277.28 90.6677 278.848C92.2677 280.416 93.0677 282.512 93.0677 285.136C93.0677 286.384 92.8917 287.456 92.5397 288.352C92.1877 289.216 91.7397 289.936 91.1957 290.512C90.6517 291.056 90.0277 291.472 89.3237 291.76C88.6197 292.016 87.9317 292.176 87.2597 292.24V292.528C87.9317 292.56 88.6677 292.72 89.4677 293.008C90.2997 293.296 91.0677 293.76 91.7717 294.4C92.4757 295.008 93.0677 295.808 93.5477 296.8C94.0277 297.76 94.2677 298.944 94.2677 300.352C94.2677 301.696 94.0437 302.96 93.5957 304.144C93.1797 305.328 92.5877 306.352 91.8197 307.216C91.0517 308.08 90.1397 308.768 89.0837 309.28C88.0277 309.76 86.8757 310 85.6277 310H69.3077V276.496ZM74.7317 305.344H84.0437C85.4517 305.344 86.5557 304.976 87.3557 304.24C88.1557 303.504 88.5557 302.448 88.5557 301.072V299.44C88.5557 298.064 88.1557 297.008 87.3557 296.272C86.5557 295.536 85.4517 295.168 84.0437 295.168H74.7317V305.344ZM74.7317 290.656H83.1317C84.4757 290.656 85.5157 290.32 86.2517 289.648C86.9877 288.944 87.3557 287.952 87.3557 286.672V285.136C87.3557 283.856 86.9877 282.88 86.2517 282.208C85.5157 281.504 84.4757 281.152 83.1317 281.152H74.7317V290.656Z" fill="#4B90F3"/>
<path d="M171.222 12.0173L173.402 14.0788L171.222 12.0173ZM200.9 7.89685L199.217 10.3804L200.9 7.89685ZM204.324 53.8063L229.422 29.9297L196.196 20.1325L204.324 53.8063ZM182.174 53.9548C176.478 47.8422 171.86 40.1555 169.949 32.7819C168.042 25.4249 168.906 18.8317 173.402 14.0788L169.043 9.95576C162.639 16.7259 161.923 25.7303 164.141 34.2871C166.354 42.8273 171.564 51.3704 177.784 58.0452L182.174 53.9548ZM173.402 14.0788C182.061 4.92411 192.367 5.73867 199.217 10.3804L202.583 5.41332C193.566 -0.696577 179.936 -1.56119 169.043 9.95576L173.402 14.0788ZM199.217 10.3804C204.378 13.8771 208.541 19.7417 208.964 28.0609L214.957 27.7557C214.428 17.3749 209.145 9.85954 202.583 5.41332L199.217 10.3804Z" fill="#4B90F3"/>
<rect x="146" y="56" width="90" height="90" rx="45" stroke="#4B90F3" stroke-width="6"/>
<path d="M200.165 118L197.141 108.928H184.613L181.685 118H176.165L187.589 84.496H194.405L205.829 118H200.165ZM190.997 89.488H190.757L185.909 104.272H195.797L190.997 89.488Z" fill="#4B90F3"/>
</svg>
