<svg width="1468" height="863" viewBox="0 0 1468 863" fill="none" xmlns="http://www.w3.org/2000/svg">
<path d="M896 503L885.471 489.247L878.825 505.242L896 503ZM513.67 504.342C514.586 503.885 515.499 503.431 516.409 502.98L515.078 500.291C514.164 500.744 513.248 501.199 512.33 501.658L513.67 504.342ZM521.846 500.311C523.658 499.429 525.462 498.559 527.257 497.702L525.964 494.995C524.163 495.856 522.352 496.728 520.533 497.613L521.846 500.311ZM532.752 495.104C534.575 494.252 536.388 493.412 538.193 492.586L536.944 489.858C535.132 490.688 533.311 491.531 531.481 492.387L532.752 495.104ZM543.733 490.078C545.575 489.254 547.408 488.444 549.233 487.649L548.034 484.899C546.2 485.698 544.359 486.512 542.508 487.339L543.733 490.078ZM554.799 485.253C556.659 484.463 558.512 483.689 560.355 482.928L559.212 480.155C557.358 480.919 555.497 481.698 553.627 482.492L554.799 485.253ZM565.957 480.655C567.836 479.904 569.706 479.17 571.569 478.451L570.489 475.652C568.615 476.375 566.733 477.114 564.844 477.869L565.957 480.655ZM577.214 476.311C579.11 475.605 580.998 474.916 582.88 474.244L581.87 471.419C579.976 472.096 578.076 472.789 576.168 473.499L577.214 476.311ZM588.575 472.25C590.487 471.596 592.392 470.958 594.291 470.338L593.36 467.486C591.447 468.111 589.528 468.753 587.603 469.412L588.575 472.25ZM600.04 468.507C601.968 467.908 603.89 467.328 605.806 466.765L604.961 463.887C603.03 464.454 601.093 465.039 599.151 465.641L600.04 468.507ZM611.61 465.112C613.553 464.576 615.49 464.058 617.423 463.559L616.673 460.655C614.724 461.158 612.77 461.68 610.812 462.221L611.61 465.112ZM623.281 462.101C625.237 461.631 627.189 461.182 629.138 460.751L628.491 457.822C626.524 458.256 624.555 458.71 622.581 459.183L623.281 462.101ZM635.046 459.503C637.016 459.105 638.983 458.728 640.949 458.37L640.411 455.418C638.427 455.78 636.441 456.161 634.453 456.562L635.046 459.503ZM646.895 457.346C648.879 457.025 650.862 456.723 652.843 456.442L652.422 453.472C650.421 453.756 648.419 454.06 646.415 454.385L646.895 457.346ZM658.817 455.655C660.812 455.413 662.805 455.191 664.8 454.99L664.499 452.005C662.484 452.208 660.47 452.433 658.456 452.677L658.817 455.655ZM670.797 454.446C672.798 454.285 674.799 454.145 676.802 454.025L676.623 451.031C674.6 451.152 672.578 451.293 670.557 451.456L670.797 454.446ZM682.819 453.728C684.821 453.649 686.825 453.591 688.833 453.554L688.777 450.554C686.749 450.592 684.724 450.651 682.702 450.73L682.819 453.728ZM694.862 453.502C696.862 453.505 698.866 453.528 700.875 453.571L700.939 450.572C698.911 450.528 696.887 450.505 694.867 450.502L694.862 453.502ZM706.9 453.76C708.898 453.842 710.901 453.944 712.91 454.066L713.091 451.071C711.063 450.949 709.041 450.846 707.024 450.763L706.9 453.76ZM718.921 454.487C720.914 454.646 722.914 454.823 724.922 455.02L725.214 452.034C723.189 451.836 721.171 451.657 719.159 451.497L718.921 454.487ZM730.909 455.661C732.897 455.892 734.892 456.141 736.896 456.409L737.293 453.435C735.273 453.165 733.26 452.914 731.255 452.681L730.909 455.661ZM742.853 457.256C744.833 457.554 746.822 457.87 748.82 458.204L749.314 455.245C747.301 454.909 745.296 454.59 743.3 454.289L742.853 457.256ZM754.743 459.242C756.714 459.602 758.694 459.98 760.684 460.375L761.268 457.432C759.264 457.035 757.269 456.654 755.283 456.291L754.743 459.242ZM766.572 461.587C768.532 462.005 770.502 462.439 772.482 462.889L773.147 459.964C771.154 459.511 769.171 459.074 767.197 458.653L766.572 461.587ZM778.336 464.261C780.283 464.73 782.241 465.215 784.209 465.715L784.948 462.807C782.968 462.304 780.999 461.816 779.039 461.344L778.336 464.261ZM790.034 467.232C791.968 467.748 793.911 468.278 795.865 468.822L796.671 465.932C794.706 465.385 792.752 464.852 790.807 464.333L790.034 467.232ZM801.669 470.473C803.586 471.029 805.514 471.599 807.453 472.183L808.318 469.31C806.37 468.723 804.432 468.151 802.505 467.592L801.669 470.473ZM813.244 473.956C815.144 474.548 817.055 475.153 818.977 475.771L819.895 472.915C817.965 472.294 816.045 471.687 814.136 471.092L813.244 473.956ZM824.765 477.659C826.647 478.282 828.54 478.917 830.443 479.564L831.409 476.724C829.498 476.074 827.598 475.437 825.708 474.811L824.765 477.659ZM836.186 481.542C838.067 482.197 839.959 482.864 841.861 483.543L842.869 480.717C840.96 480.036 839.062 479.367 837.174 478.709L836.186 481.542ZM847.545 485.593C849.433 486.281 851.331 486.98 853.24 487.69L854.286 484.878C852.371 484.166 850.466 483.465 848.573 482.775L847.545 485.593ZM858.862 489.801C860.747 490.516 862.643 491.24 864.55 491.976L865.629 489.177C863.717 488.439 861.816 487.712 859.925 486.996L858.862 489.801ZM870.15 494.153C872.013 494.884 873.887 495.624 875.771 496.374L876.881 493.586C874.992 492.834 873.113 492.092 871.245 491.36L870.15 494.153ZM881.421 498.638C883.262 499.382 885.113 500.134 886.974 500.896L888.11 498.119C886.245 497.356 884.389 496.602 882.544 495.857L881.421 498.638ZM896 503L874.942 475.494L861.65 507.484L896 503ZM514.34 505.684C515.254 505.228 516.166 504.774 517.075 504.324L514.412 498.947C513.497 499.4 512.58 499.857 511.66 500.316L514.34 505.684ZM522.502 501.66C524.312 500.779 526.112 499.911 527.903 499.056L525.318 493.642C523.513 494.504 521.699 495.378 519.877 496.265L522.502 501.66ZM533.388 496.463C535.207 495.612 537.017 494.774 538.818 493.949L536.32 488.494C534.503 489.326 532.678 490.171 530.845 491.029L533.388 496.463ZM544.346 491.447C546.183 490.625 548.012 489.817 549.833 489.023L547.434 483.524C545.596 484.325 543.75 485.141 541.896 485.97L544.346 491.447ZM555.385 486.634C557.241 485.846 559.088 485.073 560.927 484.315L558.64 478.768C556.782 479.534 554.915 480.315 553.041 481.111L555.385 486.634ZM566.513 482.048C568.387 481.3 570.252 480.567 572.109 479.85L569.948 474.253C568.069 474.978 566.182 475.719 564.288 476.476L566.513 482.048ZM577.737 477.716C579.627 477.013 581.509 476.326 583.385 475.656L581.365 470.006C579.465 470.685 577.559 471.381 575.645 472.093L577.737 477.716ZM589.06 473.67C590.966 473.017 592.865 472.382 594.757 471.764L592.894 466.06C590.975 466.687 589.049 467.331 587.117 467.993L589.06 473.67ZM600.485 469.939C602.405 469.343 604.32 468.765 606.229 468.205L604.539 462.448C602.6 463.017 600.656 463.604 598.706 464.209L600.485 469.939ZM612.009 466.558C613.944 466.024 615.873 465.509 617.798 465.012L616.298 459.202C614.341 459.708 612.379 460.232 610.413 460.775L612.009 466.558ZM623.631 463.559C625.578 463.092 627.522 462.644 629.462 462.216L628.167 456.357C626.192 456.793 624.214 457.249 622.232 457.725L623.631 463.559ZM635.342 460.973C637.303 460.578 639.261 460.202 641.217 459.846L640.142 453.943C638.149 454.306 636.154 454.689 634.156 455.091L635.342 460.973ZM647.135 458.827C649.11 458.507 651.082 458.207 653.054 457.927L652.211 451.987C650.2 452.272 648.188 452.578 646.175 452.904L647.135 458.827ZM658.998 457.144C660.982 456.903 662.966 456.683 664.951 456.482L664.348 450.513C662.323 450.717 660.299 450.942 658.275 451.188L658.998 457.144ZM670.918 455.941C672.908 455.781 674.899 455.642 676.892 455.523L676.534 449.533C674.5 449.655 672.468 449.797 670.437 449.96L670.918 455.941ZM682.878 455.227C684.869 455.149 686.864 455.091 688.861 455.053L688.749 449.054C686.71 449.093 684.675 449.152 682.643 449.231L682.878 455.227ZM694.86 455.002C696.85 455.005 698.844 455.028 700.843 455.071L700.971 449.072C698.933 449.028 696.899 449.005 694.869 449.002L694.86 455.002ZM706.839 455.259C708.827 455.341 710.82 455.442 712.819 455.563L713.182 449.574C711.144 449.451 709.112 449.347 707.086 449.264L706.839 455.259ZM718.802 455.982C720.786 456.14 722.777 456.317 724.775 456.513L725.361 450.542C723.326 450.342 721.299 450.162 719.278 450.001L718.802 455.982ZM730.736 457.151C732.715 457.381 734.702 457.629 736.697 457.896L737.492 451.949C735.463 451.678 733.442 451.425 731.428 451.191L730.736 457.151ZM742.629 458.739C744.602 459.036 746.583 459.351 748.572 459.684L749.562 453.766C747.54 453.428 745.528 453.108 743.523 452.806L742.629 458.739ZM754.473 460.717C756.436 461.077 758.409 461.453 760.392 461.846L761.56 455.961C759.548 455.562 757.546 455.18 755.553 454.815L754.473 460.717ZM766.259 463.054C768.212 463.47 770.176 463.903 772.149 464.352L773.479 458.501C771.48 458.046 769.49 457.608 767.51 457.186L766.259 463.054ZM777.984 465.719C779.926 466.187 781.877 466.67 783.839 467.169L785.317 461.354C783.332 460.849 781.356 460.36 779.39 459.886L777.984 465.719ZM789.648 468.681C791.576 469.195 793.514 469.724 795.463 470.267L797.073 464.487C795.103 463.938 793.144 463.404 791.194 462.884L789.648 468.681ZM801.251 471.913C803.164 472.468 805.087 473.037 807.021 473.619L808.75 467.874C806.797 467.286 804.855 466.712 802.923 466.151L801.251 471.913ZM812.798 475.388C814.694 475.979 816.6 476.583 818.518 477.199L820.354 471.487C818.419 470.865 816.496 470.256 814.582 469.66L812.798 475.388ZM824.294 479.083C826.172 479.705 828.061 480.339 829.96 480.984L831.892 475.304C829.977 474.653 828.073 474.014 826.179 473.387L824.294 479.083ZM835.693 482.958C837.57 483.612 839.458 484.278 841.357 484.956L843.373 479.305C841.461 478.622 839.559 477.952 837.668 477.292L835.693 482.958ZM847.031 487.002C848.916 487.689 850.811 488.387 852.717 489.096L854.809 483.473C852.891 482.759 850.983 482.057 849.086 481.365L847.031 487.002ZM858.331 491.204C860.213 491.917 862.106 492.641 864.01 493.375L866.169 487.777C864.254 487.039 862.35 486.311 860.457 485.593L858.331 491.204ZM869.603 495.55C871.463 496.279 873.335 497.018 875.217 497.767L877.435 492.193C875.544 491.44 873.663 490.697 871.792 489.964L869.603 495.55ZM880.859 500.029C882.698 500.772 884.547 501.523 886.406 502.284L888.678 496.731C886.81 495.966 884.953 495.212 883.105 494.466L880.859 500.029Z" fill="#14BF06"/>
<path d="M773 149.5L755.677 179.499L790.318 179.501L773 149.5ZM769.998 176.51C770.01 246.331 770.334 328.936 775 404.654C779.658 480.252 788.663 549.421 806.225 592.141L811.775 589.859C794.633 548.164 785.649 479.915 780.988 404.285C776.335 328.775 776.01 246.342 775.998 176.509L769.998 176.51ZM806.225 592.141C824.807 637.339 849.24 680.228 880.491 711.858C911.783 743.531 950.012 764 996 764L996 758C951.988 758 915.217 738.469 884.759 707.642C854.26 676.772 830.193 634.66 811.775 589.859L806.225 592.141Z" fill="#4B90F3"/>
<path d="M695 149.5L675.51 178.138L710.056 180.698L695 149.5ZM420 324C456.554 324 493.727 322.648 527.571 317.565C561.381 312.486 592.11 303.65 615.623 288.523L612.377 283.477C589.89 297.944 560.119 306.608 526.679 311.631C493.273 316.649 456.446 318 420 318L420 324ZM615.623 288.523C655.559 262.83 687.76 229.858 695.97 176.879L690.041 175.96C682.196 226.577 651.553 258.272 612.377 283.477L615.623 288.523Z" fill="#4B90F3"/>
<path d="M1341.29 580.225L1309.26 593.408L1336.69 614.559L1341.29 580.225ZM1322.43 599.776L1234.51 713.82L1239.26 717.483L1327.18 603.439L1322.43 599.776Z" fill="#4B90F3"/>
<path d="M1149 589L1131.68 619H1166.32L1149 589ZM1146 616V716H1152V616H1146Z" fill="#4B90F3"/>
<path d="M957 580.225L989.034 593.408L961.599 614.559L957 580.225ZM975.861 599.776L1063.78 713.82L1059.03 717.483L971.109 603.439L975.861 599.776Z" fill="#4B90F3"/>
<path d="M1237 364.039L1269.03 377.223L1241.6 398.373L1237 364.039ZM1255.86 383.59L1346.48 501.13L1341.72 504.793L1251.11 387.254L1255.86 383.59Z" fill="#4B90F3"/>
<path d="M1149 369L1131.68 399H1166.32L1149 369ZM1146 396V496H1152V396H1146Z" fill="#4B90F3"/>
<path d="M1060.05 364.039L1028.02 377.223L1055.45 398.373L1060.05 364.039ZM1041.19 383.59L950.574 501.13L955.326 504.793L1045.94 387.254L1041.19 383.59Z" fill="#4B90F3"/>
<path d="M1168.23 851.293L1166.03 849.254L1168.23 851.293ZM1138.95 855.442L1140.66 852.975L1138.95 855.442ZM1135.57 809.209L1110.56 833.178L1143.83 842.853L1135.57 809.209ZM1157.37 809.023C1162.99 815.177 1167.55 822.923 1169.44 830.362C1171.33 837.792 1170.47 844.458 1166.03 849.254L1170.43 853.332C1176.74 846.522 1177.44 837.481 1175.26 828.886C1173.08 820.299 1167.94 811.7 1161.8 804.977L1157.37 809.023ZM1166.03 849.254C1161.67 853.951 1156.99 855.962 1152.67 856.31C1148.29 856.662 1144.06 855.331 1140.66 852.975L1137.24 857.909C1141.66 860.967 1147.25 862.765 1153.15 862.291C1159.09 861.813 1165.14 859.043 1170.43 853.332L1166.03 849.254ZM1140.66 852.975C1135.55 849.443 1131.41 843.486 1131.03 835L1125.04 835.268C1125.51 845.777 1130.72 853.399 1137.24 857.909L1140.66 852.975Z" fill="#4B90F3"/>
<rect x="997" y="716" width="304" height="90" rx="45" stroke="#4B90F3" stroke-width="6"/>
<path d="M1039.47 748.576C1038.38 748.576 1037.58 748.32 1037.07 747.808C1036.59 747.296 1036.35 746.64 1036.35 745.84V745.024C1036.35 744.224 1036.59 743.568 1037.07 743.056C1037.58 742.544 1038.38 742.288 1039.47 742.288C1040.56 742.288 1041.34 742.544 1041.82 743.056C1042.3 743.568 1042.54 744.224 1042.54 745.024V745.84C1042.54 746.64 1042.3 747.296 1041.82 747.808C1041.34 748.32 1040.56 748.576 1039.47 748.576ZM1036.83 753.04H1042.06V778H1036.83V753.04ZM1049.05 778V753.04H1054.29V757.168H1054.53C1055.07 755.824 1055.89 754.704 1056.97 753.808C1058.09 752.912 1059.61 752.464 1061.53 752.464C1064.09 752.464 1066.08 753.312 1067.49 755.008C1068.93 756.672 1069.65 759.056 1069.65 762.16V778H1064.41V762.832C1064.41 758.928 1062.85 756.976 1059.71 756.976C1059.04 756.976 1058.37 757.072 1057.69 757.264C1057.05 757.424 1056.48 757.68 1055.97 758.032C1055.45 758.384 1055.04 758.832 1054.72 759.376C1054.43 759.92 1054.29 760.56 1054.29 761.296V778H1049.05ZM1098.31 780.352C1098.31 782.944 1097.31 784.896 1095.33 786.208C1093.35 787.52 1090.11 788.176 1085.63 788.176C1083.59 788.176 1081.84 788.032 1080.4 787.744C1078.99 787.488 1077.83 787.104 1076.9 786.592C1076 786.08 1075.35 785.456 1074.93 784.72C1074.51 783.984 1074.31 783.136 1074.31 782.176C1074.31 780.8 1074.67 779.728 1075.41 778.96C1076.18 778.192 1077.23 777.664 1078.58 777.376V776.848C1076.69 776.24 1075.75 774.96 1075.75 773.008C1075.75 771.728 1076.18 770.752 1077.04 770.08C1077.91 769.376 1078.95 768.88 1080.16 768.592V768.4C1078.69 767.696 1077.55 766.72 1076.75 765.472C1075.99 764.192 1075.6 762.704 1075.6 761.008C1075.6 758.448 1076.45 756.384 1078.15 754.816C1079.87 753.248 1082.34 752.464 1085.54 752.464C1087.3 752.464 1088.8 752.72 1090.05 753.232V752.56C1090.05 751.44 1090.31 750.576 1090.82 749.968C1091.36 749.328 1092.19 749.008 1093.31 749.008H1097.15V753.232H1092.07V754.24C1093.19 754.976 1094.05 755.936 1094.66 757.12C1095.27 758.272 1095.57 759.568 1095.57 761.008C1095.57 763.536 1094.71 765.584 1092.98 767.152C1091.25 768.688 1088.79 769.456 1085.59 769.456C1084.37 769.456 1083.28 769.328 1082.32 769.072C1081.68 769.296 1081.12 769.616 1080.64 770.032C1080.16 770.416 1079.92 770.928 1079.92 771.568C1079.92 772.24 1080.23 772.72 1080.83 773.008C1081.44 773.296 1082.31 773.44 1083.43 773.44H1089.57C1092.64 773.44 1094.87 774.064 1096.24 775.312C1097.62 776.528 1098.31 778.208 1098.31 780.352ZM1093.41 780.928C1093.41 780.064 1093.07 779.376 1092.4 778.864C1091.76 778.352 1090.58 778.096 1088.85 778.096H1080.4C1079.25 778.768 1078.67 779.728 1078.67 780.976C1078.67 782 1079.07 782.816 1079.87 783.424C1080.71 784.064 1082.1 784.384 1084.05 784.384H1087.31C1091.38 784.384 1093.41 783.232 1093.41 780.928ZM1085.59 765.664C1087.12 765.664 1088.31 765.328 1089.14 764.656C1090 763.952 1090.43 762.88 1090.43 761.44V760.48C1090.43 759.04 1090 757.984 1089.14 757.312C1088.31 756.608 1087.12 756.256 1085.59 756.256C1084.05 756.256 1082.85 756.608 1081.99 757.312C1081.15 757.984 1080.74 759.04 1080.74 760.48V761.44C1080.74 762.88 1081.15 763.952 1081.99 764.656C1082.85 765.328 1084.05 765.664 1085.59 765.664ZM1101.72 778V753.04H1106.95V757.84H1107.19C1107.54 756.56 1108.28 755.44 1109.4 754.48C1110.52 753.52 1112.07 753.04 1114.06 753.04H1115.45V758.08H1113.38C1111.3 758.08 1109.7 758.416 1108.58 759.088C1107.5 759.76 1106.95 760.752 1106.95 762.064V778H1101.72ZM1129.17 778.576C1127.38 778.576 1125.78 778.272 1124.37 777.664C1122.96 777.056 1121.76 776.192 1120.77 775.072C1119.78 773.92 1119.01 772.544 1118.47 770.944C1117.96 769.312 1117.7 767.504 1117.7 765.52C1117.7 763.536 1117.96 761.744 1118.47 760.144C1119.01 758.512 1119.78 757.136 1120.77 756.016C1121.76 754.864 1122.96 753.984 1124.37 753.376C1125.78 752.768 1127.38 752.464 1129.17 752.464C1131 752.464 1132.6 752.784 1133.97 753.424C1135.38 754.064 1136.55 754.96 1137.48 756.112C1138.4 757.232 1139.09 758.544 1139.54 760.048C1140.02 761.552 1140.26 763.168 1140.26 764.896V766.864H1123.12V767.68C1123.12 769.6 1123.68 771.184 1124.8 772.432C1125.96 773.648 1127.59 774.256 1129.7 774.256C1131.24 774.256 1132.53 773.92 1133.59 773.248C1134.64 772.576 1135.54 771.664 1136.28 770.512L1139.35 773.536C1138.42 775.072 1137.08 776.304 1135.32 777.232C1133.56 778.128 1131.51 778.576 1129.17 778.576ZM1129.17 756.544C1128.28 756.544 1127.44 756.704 1126.68 757.024C1125.94 757.344 1125.3 757.792 1124.76 758.368C1124.24 758.944 1123.84 759.632 1123.56 760.432C1123.27 761.232 1123.12 762.112 1123.12 763.072V763.408H1134.74V762.928C1134.74 761.008 1134.24 759.472 1133.25 758.32C1132.26 757.136 1130.9 756.544 1129.17 756.544ZM1153.49 778.576C1151.12 778.576 1149.14 778.16 1147.54 777.328C1145.94 776.496 1144.55 775.344 1143.36 773.872L1146.72 770.8C1147.65 771.92 1148.68 772.8 1149.8 773.44C1150.95 774.048 1152.28 774.352 1153.78 774.352C1155.32 774.352 1156.45 774.064 1157.19 773.488C1157.96 772.88 1158.34 772.048 1158.34 770.992C1158.34 770.192 1158.07 769.52 1157.52 768.976C1157.01 768.4 1156.1 768.032 1154.79 767.872L1152.48 767.584C1149.92 767.264 1147.91 766.528 1146.44 765.376C1145 764.192 1144.28 762.448 1144.28 760.144C1144.28 758.928 1144.5 757.856 1144.95 756.928C1145.4 755.968 1146.02 755.168 1146.82 754.528C1147.65 753.856 1148.63 753.344 1149.75 752.992C1150.9 752.64 1152.16 752.464 1153.54 752.464C1155.78 752.464 1157.6 752.816 1159.01 753.52C1160.45 754.224 1161.73 755.2 1162.85 756.448L1159.64 759.52C1159 758.752 1158.15 758.096 1157.09 757.552C1156.07 756.976 1154.88 756.688 1153.54 756.688C1152.1 756.688 1151.03 756.976 1150.32 757.552C1149.65 758.128 1149.32 758.88 1149.32 759.808C1149.32 760.768 1149.62 761.488 1150.23 761.968C1150.84 762.448 1151.81 762.8 1153.16 763.024L1155.46 763.312C1158.21 763.728 1160.21 764.544 1161.46 765.76C1162.74 766.944 1163.38 768.544 1163.38 770.56C1163.38 771.776 1163.14 772.88 1162.66 773.872C1162.21 774.832 1161.56 775.664 1160.69 776.368C1159.83 777.072 1158.79 777.616 1157.57 778C1156.36 778.384 1155 778.576 1153.49 778.576ZM1176.45 778.576C1174.08 778.576 1172.1 778.16 1170.5 777.328C1168.9 776.496 1167.51 775.344 1166.32 773.872L1169.68 770.8C1170.61 771.92 1171.63 772.8 1172.75 773.44C1173.91 774.048 1175.23 774.352 1176.74 774.352C1178.27 774.352 1179.41 774.064 1180.15 773.488C1180.91 772.88 1181.3 772.048 1181.3 770.992C1181.3 770.192 1181.03 769.52 1180.48 768.976C1179.97 768.4 1179.06 768.032 1177.75 767.872L1175.44 767.584C1172.88 767.264 1170.87 766.528 1169.39 765.376C1167.95 764.192 1167.23 762.448 1167.23 760.144C1167.23 758.928 1167.46 757.856 1167.91 756.928C1168.35 755.968 1168.98 755.168 1169.78 754.528C1170.61 753.856 1171.59 753.344 1172.71 752.992C1173.86 752.64 1175.12 752.464 1176.5 752.464C1178.74 752.464 1180.56 752.816 1181.97 753.52C1183.41 754.224 1184.69 755.2 1185.81 756.448L1182.59 759.52C1181.95 758.752 1181.11 758.096 1180.05 757.552C1179.03 756.976 1177.84 756.688 1176.5 756.688C1175.06 756.688 1173.99 756.976 1173.28 757.552C1172.61 758.128 1172.27 758.88 1172.27 759.808C1172.27 760.768 1172.58 761.488 1173.19 761.968C1173.79 762.448 1174.77 762.8 1176.11 763.024L1178.42 763.312C1181.17 763.728 1183.17 764.544 1184.42 765.76C1185.7 766.944 1186.34 768.544 1186.34 770.56C1186.34 771.776 1186.1 772.88 1185.62 773.872C1185.17 774.832 1184.51 775.664 1183.65 776.368C1182.79 777.072 1181.75 777.616 1180.53 778C1179.31 778.384 1177.95 778.576 1176.45 778.576ZM1201.91 763.072C1201.91 760.736 1202.12 758.496 1202.54 756.352C1202.98 754.208 1203.59 752.208 1204.36 750.352C1205.13 748.496 1206.02 746.816 1207.05 745.312C1208.1 743.808 1209.24 742.544 1210.46 741.52H1215.4C1214.09 742.736 1212.9 744.096 1211.85 745.6C1210.79 747.104 1209.9 748.704 1209.16 750.4C1208.42 752.096 1207.85 753.856 1207.43 755.68C1207.05 757.504 1206.86 759.328 1206.86 761.152V764.992C1206.86 766.816 1207.05 768.64 1207.43 770.464C1207.85 772.288 1208.42 774.048 1209.16 775.744C1209.9 777.44 1210.79 779.04 1211.85 780.544C1212.9 782.08 1214.09 783.44 1215.4 784.624H1210.46C1209.24 783.6 1208.1 782.336 1207.05 780.832C1206.02 779.328 1205.13 777.648 1204.36 775.792C1203.59 773.936 1202.98 771.936 1202.54 769.792C1202.12 767.648 1201.91 765.408 1201.91 763.072ZM1228.45 762.16L1225.24 755.44H1225.09V778H1218.23V744.496H1226.2L1235.37 760.336L1238.58 767.056H1238.73V744.496H1245.59V778H1237.62L1228.45 762.16ZM1261.89 763.072C1261.89 765.408 1261.67 767.648 1261.22 769.792C1260.8 771.936 1260.21 773.936 1259.44 775.792C1258.68 777.648 1257.76 779.328 1256.71 780.832C1255.68 782.336 1254.56 783.6 1253.35 784.624H1248.4C1249.72 783.44 1250.9 782.08 1251.96 780.544C1253.01 779.04 1253.91 777.44 1254.64 775.744C1255.38 774.048 1255.94 772.288 1256.32 770.464C1256.74 768.64 1256.95 766.816 1256.95 764.992V761.152C1256.95 759.328 1256.74 757.504 1256.32 755.68C1255.94 753.856 1255.38 752.096 1254.64 750.4C1253.91 748.704 1253.01 747.104 1251.96 745.6C1250.9 744.096 1249.72 742.736 1248.4 741.52H1253.35C1254.56 742.544 1255.68 743.808 1256.71 745.312C1257.76 746.816 1258.68 748.496 1259.44 750.352C1260.21 752.208 1260.8 754.208 1261.22 756.352C1261.67 758.496 1261.89 760.736 1261.89 763.072Z" fill="#4B90F3"/>
<path d="M1456.62 520.882L1454.63 523.121L1456.62 520.882ZM1461.39 549.806L1463.89 551.46L1461.39 549.806ZM1415.73 553.89L1440.18 578.429L1449.21 544.985L1415.73 553.89ZM1415.07 532.319C1421.02 526.664 1428.57 522.029 1435.88 520.043C1443.18 518.06 1449.78 518.798 1454.63 523.121L1458.62 518.644C1451.74 512.505 1442.77 511.951 1434.31 514.253C1425.85 516.551 1417.45 521.779 1410.93 527.969L1415.07 532.319ZM1454.63 523.121C1463.93 531.421 1463.32 541.441 1458.89 548.152L1463.89 551.46C1469.82 542.498 1470.35 529.11 1458.62 518.644L1454.63 523.121ZM1458.89 548.152C1455.55 553.205 1449.84 557.361 1441.59 557.933L1442 563.918C1452.26 563.207 1459.61 557.945 1463.89 551.46L1458.89 548.152Z" fill="#4B90F3"/>
<rect x="1324" y="496" width="90" height="90" rx="45" stroke="#4B90F3" stroke-width="6"/>
<path d="M1381.41 558H1356.6V553.152L1374.79 529.296H1357.56V524.496H1380.88V529.344L1362.69 553.2H1381.41V558Z" fill="#4B90F3"/>
<path d="M1236.62 520.882L1234.63 523.121L1236.62 520.882ZM1241.39 549.806L1243.89 551.46L1241.39 549.806ZM1195.73 553.89L1220.18 578.429L1229.21 544.985L1195.73 553.89ZM1195.07 532.319C1201.02 526.664 1208.57 522.029 1215.88 520.043C1223.18 518.06 1229.78 518.798 1234.63 523.121L1238.62 518.644C1231.74 512.505 1222.77 511.951 1214.31 514.253C1205.85 516.551 1197.45 521.779 1190.93 527.969L1195.07 532.319ZM1234.63 523.121C1243.93 531.421 1243.32 541.441 1238.89 548.152L1243.89 551.46C1249.82 542.498 1250.35 529.11 1238.62 518.644L1234.63 523.121ZM1238.89 548.152C1235.55 553.205 1229.84 557.361 1221.59 557.933L1222 563.918C1232.26 563.207 1239.61 557.945 1243.89 551.46L1238.89 548.152Z" fill="#4B90F3"/>
<rect x="1104" y="496" width="90" height="90" rx="45" stroke="#4B90F3" stroke-width="6"/>
<path d="M1146.24 558V544.8L1134.72 524.496H1140.91L1149.07 539.424H1149.21L1157.32 524.496H1163.28L1151.66 544.704V558H1146.24Z" fill="#4B90F3"/>
<path d="M1016.62 520.882L1014.63 523.121L1016.62 520.882ZM1021.39 549.806L1023.89 551.46L1021.39 549.806ZM975.729 553.89L1000.18 578.429L1009.21 544.985L975.729 553.89ZM975.066 532.319C981.022 526.664 988.573 522.029 995.88 520.043C1003.18 518.06 1009.78 518.798 1014.63 523.121L1018.62 518.644C1011.74 512.505 1002.77 511.951 994.306 514.253C985.851 516.551 977.452 521.779 970.934 527.969L975.066 532.319ZM1014.63 523.121C1023.93 531.421 1023.32 541.441 1018.89 548.152L1023.89 551.46C1029.82 542.498 1030.35 529.11 1018.62 518.644L1014.63 523.121ZM1018.89 548.152C1015.55 553.205 1009.84 557.361 1001.59 557.933L1002 563.918C1012.26 563.207 1019.61 557.945 1023.89 551.46L1018.89 548.152Z" fill="#4B90F3"/>
<rect x="884" y="496" width="90" height="90" rx="45" stroke="#4B90F3" stroke-width="6"/>
<path d="M943.336 558H936.952L928.84 544.656H928.696L920.68 558H914.68L925.528 540.864L915.064 524.496H921.448L929.08 536.976H929.176L936.904 524.496H942.904L932.344 540.816L943.336 558Z" fill="#4B90F3"/>
<path d="M1129.22 232.017L1131.4 234.079L1129.22 232.017ZM1158.9 227.897L1157.22 230.38L1158.9 227.897ZM1162.32 273.806L1187.42 249.93L1154.2 240.132L1162.32 273.806ZM1140.17 273.955C1134.48 267.842 1129.86 260.155 1127.95 252.782C1126.04 245.425 1126.91 238.832 1131.4 234.079L1127.04 229.956C1120.64 236.726 1119.92 245.73 1122.14 254.287C1124.35 262.827 1129.56 271.37 1135.78 278.045L1140.17 273.955ZM1131.4 234.079C1140.06 224.924 1150.37 225.739 1157.22 230.38L1160.58 225.413C1151.57 219.303 1137.94 218.439 1127.04 229.956L1131.4 234.079ZM1157.22 230.38C1162.38 233.877 1166.54 239.742 1166.96 248.061L1172.96 247.756C1172.43 237.375 1167.14 229.86 1160.58 225.413L1157.22 230.38Z" fill="#4B90F3"/>
<rect x="997" y="276" width="304" height="90" rx="45" stroke="#4B90F3" stroke-width="6"/>
<path d="M1053.32 338.576C1051.53 338.576 1049.93 338.272 1048.52 337.664C1047.11 337.056 1045.91 336.192 1044.92 335.072C1043.93 333.92 1043.16 332.544 1042.62 330.944C1042.11 329.312 1041.85 327.504 1041.85 325.52C1041.85 323.536 1042.11 321.744 1042.62 320.144C1043.16 318.512 1043.93 317.136 1044.92 316.016C1045.91 314.864 1047.11 313.984 1048.52 313.376C1049.93 312.768 1051.53 312.464 1053.32 312.464C1055.15 312.464 1056.75 312.784 1058.12 313.424C1059.53 314.064 1060.7 314.96 1061.63 316.112C1062.55 317.232 1063.24 318.544 1063.69 320.048C1064.17 321.552 1064.41 323.168 1064.41 324.896V326.864H1047.27V327.68C1047.27 329.6 1047.83 331.184 1048.95 332.432C1050.11 333.648 1051.74 334.256 1053.85 334.256C1055.39 334.256 1056.68 333.92 1057.74 333.248C1058.79 332.576 1059.69 331.664 1060.43 330.512L1063.5 333.536C1062.57 335.072 1061.23 336.304 1059.47 337.232C1057.71 338.128 1055.66 338.576 1053.32 338.576ZM1053.32 316.544C1052.43 316.544 1051.59 316.704 1050.83 317.024C1050.09 317.344 1049.45 317.792 1048.91 318.368C1048.39 318.944 1047.99 319.632 1047.71 320.432C1047.42 321.232 1047.27 322.112 1047.27 323.072V323.408H1058.89V322.928C1058.89 321.008 1058.39 319.472 1057.4 318.32C1056.41 317.136 1055.05 316.544 1053.32 316.544ZM1091.61 340.352C1091.61 342.944 1090.62 344.896 1088.63 346.208C1086.65 347.52 1083.42 348.176 1078.94 348.176C1076.89 348.176 1075.14 348.032 1073.7 347.744C1072.3 347.488 1071.13 347.104 1070.2 346.592C1069.3 346.08 1068.65 345.456 1068.23 344.72C1067.82 343.984 1067.61 343.136 1067.61 342.176C1067.61 340.8 1067.98 339.728 1068.71 338.96C1069.48 338.192 1070.54 337.664 1071.88 337.376V336.848C1069.99 336.24 1069.05 334.96 1069.05 333.008C1069.05 331.728 1069.48 330.752 1070.34 330.08C1071.21 329.376 1072.25 328.88 1073.46 328.592V328.4C1071.99 327.696 1070.86 326.72 1070.06 325.472C1069.29 324.192 1068.9 322.704 1068.9 321.008C1068.9 318.448 1069.75 316.384 1071.45 314.816C1073.18 313.248 1075.64 312.464 1078.84 312.464C1080.6 312.464 1082.1 312.72 1083.35 313.232V312.56C1083.35 311.44 1083.61 310.576 1084.12 309.968C1084.66 309.328 1085.5 309.008 1086.62 309.008H1090.46V313.232H1085.37V314.24C1086.49 314.976 1087.35 315.936 1087.96 317.12C1088.57 318.272 1088.87 319.568 1088.87 321.008C1088.87 323.536 1088.01 325.584 1086.28 327.152C1084.55 328.688 1082.09 329.456 1078.89 329.456C1077.67 329.456 1076.58 329.328 1075.62 329.072C1074.98 329.296 1074.42 329.616 1073.94 330.032C1073.46 330.416 1073.22 330.928 1073.22 331.568C1073.22 332.24 1073.53 332.72 1074.14 333.008C1074.74 333.296 1075.61 333.44 1076.73 333.44H1082.87C1085.94 333.44 1088.17 334.064 1089.54 335.312C1090.92 336.528 1091.61 338.208 1091.61 340.352ZM1086.71 340.928C1086.71 340.064 1086.38 339.376 1085.7 338.864C1085.06 338.352 1083.88 338.096 1082.15 338.096H1073.7C1072.55 338.768 1071.98 339.728 1071.98 340.976C1071.98 342 1072.38 342.816 1073.18 343.424C1074.01 344.064 1075.4 344.384 1077.35 344.384H1080.62C1084.68 344.384 1086.71 343.232 1086.71 340.928ZM1078.89 325.664C1080.42 325.664 1081.61 325.328 1082.44 324.656C1083.3 323.952 1083.74 322.88 1083.74 321.44V320.48C1083.74 319.04 1083.3 317.984 1082.44 317.312C1081.61 316.608 1080.42 316.256 1078.89 316.256C1077.35 316.256 1076.15 316.608 1075.29 317.312C1074.46 317.984 1074.04 319.04 1074.04 320.48V321.44C1074.04 322.88 1074.46 323.952 1075.29 324.656C1076.15 325.328 1077.35 325.664 1078.89 325.664ZM1095.02 338V313.04H1100.25V317.84H1100.49C1100.85 316.56 1101.58 315.44 1102.7 314.48C1103.82 313.52 1105.37 313.04 1107.36 313.04H1108.75V318.08H1106.69C1104.61 318.08 1103.01 318.416 1101.89 319.088C1100.8 319.76 1100.25 320.752 1100.25 322.064V338H1095.02ZM1122.47 338.576C1120.68 338.576 1119.08 338.272 1117.67 337.664C1116.27 337.056 1115.07 336.192 1114.07 335.072C1113.08 333.92 1112.31 332.544 1111.77 330.944C1111.26 329.312 1111 327.504 1111 325.52C1111 323.536 1111.26 321.744 1111.77 320.144C1112.31 318.512 1113.08 317.136 1114.07 316.016C1115.07 314.864 1116.27 313.984 1117.67 313.376C1119.08 312.768 1120.68 312.464 1122.47 312.464C1124.3 312.464 1125.9 312.784 1127.27 313.424C1128.68 314.064 1129.85 314.96 1130.78 316.112C1131.71 317.232 1132.39 318.544 1132.84 320.048C1133.32 321.552 1133.56 323.168 1133.56 324.896V326.864H1116.43V327.68C1116.43 329.6 1116.99 331.184 1118.11 332.432C1119.26 333.648 1120.89 334.256 1123 334.256C1124.54 334.256 1125.83 333.92 1126.89 333.248C1127.95 332.576 1128.84 331.664 1129.58 330.512L1132.65 333.536C1131.72 335.072 1130.38 336.304 1128.62 337.232C1126.86 338.128 1124.81 338.576 1122.47 338.576ZM1122.47 316.544C1121.58 316.544 1120.75 316.704 1119.98 317.024C1119.24 317.344 1118.6 317.792 1118.06 318.368C1117.55 318.944 1117.15 319.632 1116.86 320.432C1116.57 321.232 1116.43 322.112 1116.43 323.072V323.408H1128.04V322.928C1128.04 321.008 1127.55 319.472 1126.55 318.32C1125.56 317.136 1124.2 316.544 1122.47 316.544ZM1146.79 338.576C1144.43 338.576 1142.44 338.16 1140.84 337.328C1139.24 336.496 1137.85 335.344 1136.67 333.872L1140.03 330.8C1140.95 331.92 1141.98 332.8 1143.1 333.44C1144.25 334.048 1145.58 334.352 1147.08 334.352C1148.62 334.352 1149.75 334.064 1150.49 333.488C1151.26 332.88 1151.64 332.048 1151.64 330.992C1151.64 330.192 1151.37 329.52 1150.83 328.976C1150.31 328.4 1149.4 328.032 1148.09 327.872L1145.79 327.584C1143.23 327.264 1141.21 326.528 1139.74 325.376C1138.3 324.192 1137.58 322.448 1137.58 320.144C1137.58 318.928 1137.8 317.856 1138.25 316.928C1138.7 315.968 1139.32 315.168 1140.12 314.528C1140.95 313.856 1141.93 313.344 1143.05 312.992C1144.2 312.64 1145.47 312.464 1146.84 312.464C1149.08 312.464 1150.91 312.816 1152.31 313.52C1153.75 314.224 1155.03 315.2 1156.15 316.448L1152.94 319.52C1152.3 318.752 1151.45 318.096 1150.39 317.552C1149.37 316.976 1148.19 316.688 1146.84 316.688C1145.4 316.688 1144.33 316.976 1143.63 317.552C1142.95 318.128 1142.62 318.88 1142.62 319.808C1142.62 320.768 1142.92 321.488 1143.53 321.968C1144.14 322.448 1145.11 322.8 1146.46 323.024L1148.76 323.312C1151.51 323.728 1153.51 324.544 1154.76 325.76C1156.04 326.944 1156.68 328.544 1156.68 330.56C1156.68 331.776 1156.44 332.88 1155.96 333.872C1155.51 334.832 1154.86 335.664 1153.99 336.368C1153.13 337.072 1152.09 337.616 1150.87 338C1149.66 338.384 1148.3 338.576 1146.79 338.576ZM1169.75 338.576C1167.38 338.576 1165.4 338.16 1163.8 337.328C1162.2 336.496 1160.81 335.344 1159.62 333.872L1162.98 330.8C1163.91 331.92 1164.94 332.8 1166.06 333.44C1167.21 334.048 1168.54 334.352 1170.04 334.352C1171.58 334.352 1172.71 334.064 1173.45 333.488C1174.22 332.88 1174.6 332.048 1174.6 330.992C1174.6 330.192 1174.33 329.52 1173.78 328.976C1173.27 328.4 1172.36 328.032 1171.05 327.872L1168.74 327.584C1166.18 327.264 1164.17 326.528 1162.7 325.376C1161.26 324.192 1160.54 322.448 1160.54 320.144C1160.54 318.928 1160.76 317.856 1161.21 316.928C1161.66 315.968 1162.28 315.168 1163.08 314.528C1163.91 313.856 1164.89 313.344 1166.01 312.992C1167.16 312.64 1168.42 312.464 1169.8 312.464C1172.04 312.464 1173.86 312.816 1175.27 313.52C1176.71 314.224 1177.99 315.2 1179.11 316.448L1175.9 319.52C1175.26 318.752 1174.41 318.096 1173.35 317.552C1172.33 316.976 1171.14 316.688 1169.8 316.688C1168.36 316.688 1167.29 316.976 1166.58 317.552C1165.91 318.128 1165.58 318.88 1165.58 319.808C1165.58 320.768 1165.88 321.488 1166.49 321.968C1167.1 322.448 1168.07 322.8 1169.42 323.024L1171.72 323.312C1174.47 323.728 1176.47 324.544 1177.72 325.76C1179 326.944 1179.64 328.544 1179.64 330.56C1179.64 331.776 1179.4 332.88 1178.92 333.872C1178.47 334.832 1177.82 335.664 1176.95 336.368C1176.09 337.072 1175.05 337.616 1173.83 338C1172.62 338.384 1171.26 338.576 1169.75 338.576ZM1195.21 323.072C1195.21 320.736 1195.42 318.496 1195.84 316.352C1196.29 314.208 1196.89 312.208 1197.66 310.352C1198.43 308.496 1199.33 306.816 1200.35 305.312C1201.41 303.808 1202.54 302.544 1203.76 301.52H1208.7C1207.39 302.736 1206.21 304.096 1205.15 305.6C1204.09 307.104 1203.2 308.704 1202.46 310.4C1201.73 312.096 1201.15 313.856 1200.73 315.68C1200.35 317.504 1200.16 319.328 1200.16 321.152V324.992C1200.16 326.816 1200.35 328.64 1200.73 330.464C1201.15 332.288 1201.73 334.048 1202.46 335.744C1203.2 337.44 1204.09 339.04 1205.15 340.544C1206.21 342.08 1207.39 343.44 1208.7 344.624H1203.76C1202.54 343.6 1201.41 342.336 1200.35 340.832C1199.33 339.328 1198.43 337.648 1197.66 335.792C1196.89 333.936 1196.29 331.936 1195.84 329.792C1195.42 327.648 1195.21 325.408 1195.21 323.072ZM1221.76 322.16L1218.54 315.44H1218.4V338H1211.53V304.496H1219.5L1228.67 320.336L1231.88 327.056H1232.03V304.496H1238.89V338H1230.92L1221.76 322.16ZM1255.19 323.072C1255.19 325.408 1254.97 327.648 1254.52 329.792C1254.11 331.936 1253.51 333.936 1252.75 335.792C1251.98 337.648 1251.07 339.328 1250.01 340.832C1248.99 342.336 1247.87 343.6 1246.65 344.624H1241.71C1243.02 343.44 1244.2 342.08 1245.26 340.544C1246.31 339.04 1247.21 337.44 1247.95 335.744C1248.68 334.048 1249.24 332.288 1249.63 330.464C1250.04 328.64 1250.25 326.816 1250.25 324.992V321.152C1250.25 319.328 1250.04 317.504 1249.63 315.68C1249.24 313.856 1248.68 312.096 1247.95 310.4C1247.21 308.704 1246.31 307.104 1245.26 305.6C1244.2 304.096 1243.02 302.736 1241.71 301.52H1246.65C1247.87 302.544 1248.99 303.808 1250.01 305.312C1251.07 306.816 1251.98 308.496 1252.75 310.352C1253.51 312.208 1254.11 314.208 1254.52 316.352C1254.97 318.496 1255.19 320.736 1255.19 323.072Z" fill="#4B90F3"/>
<path d="M460.292 580.225L428.258 593.408L455.693 614.559L460.292 580.225ZM441.431 599.776L353.511 713.82L358.263 717.483L446.183 603.439L441.431 599.776Z" fill="#4B90F3"/>
<path d="M268 589L250.679 619H285.321L268 589ZM265 616V716H271V616H265Z" fill="#4B90F3"/>
<path d="M76 580.225L108.034 593.408L80.5995 614.559L76 580.225ZM94.861 599.776L182.782 713.82L178.03 717.483L90.1092 603.439L94.861 599.776Z" fill="#4B90F3"/>
<path d="M356 364.039L388.034 377.223L360.599 398.373L356 364.039ZM374.861 383.59L465.477 501.13L460.725 504.793L370.109 387.254L374.861 383.59Z" fill="#4B90F3"/>
<path d="M268 369L250.679 399H285.321L268 369ZM265 396V496H271V396H265Z" fill="#4B90F3"/>
<path d="M179.05 364.039L147.016 377.223L174.451 398.373L179.05 364.039ZM160.189 383.59L69.5738 501.13L74.3256 504.793L164.941 387.254L160.189 383.59Z" fill="#4B90F3"/>
<path d="M287.227 851.293L285.026 849.254L287.227 851.293ZM257.95 855.442L259.657 852.975L257.95 855.442ZM254.572 809.209L229.562 833.178L262.825 842.853L254.572 809.209ZM276.373 809.023C281.991 815.177 286.551 822.923 288.44 830.362C290.326 837.792 289.469 844.458 285.026 849.254L289.427 853.332C295.736 846.522 296.438 837.481 294.255 828.886C292.076 820.299 286.941 811.7 280.804 804.977L276.373 809.023ZM285.026 849.254C280.673 853.951 275.993 855.962 271.666 856.31C267.293 856.662 263.063 855.331 259.657 852.975L256.243 857.909C260.663 860.967 266.25 862.765 272.147 862.291C278.091 861.813 284.136 859.043 289.427 853.332L285.026 849.254ZM259.657 852.975C254.55 849.443 250.409 843.486 250.029 835L244.035 835.268C244.506 845.777 249.722 853.399 256.243 857.909L259.657 852.975Z" fill="#4B90F3"/>
<rect x="116" y="716" width="304" height="90" rx="45" stroke="#4B90F3" stroke-width="6"/>
<path d="M156.175 748.576C155.087 748.576 154.287 748.32 153.775 747.808C153.295 747.296 153.055 746.64 153.055 745.84V745.024C153.055 744.224 153.295 743.568 153.775 743.056C154.287 742.544 155.087 742.288 156.175 742.288C157.263 742.288 158.047 742.544 158.527 743.056C159.007 743.568 159.247 744.224 159.247 745.024V745.84C159.247 746.64 159.007 747.296 158.527 747.808C158.047 748.32 157.263 748.576 156.175 748.576ZM153.535 753.04H158.767V778H153.535V753.04ZM165.758 778V753.04H170.99V757.168H171.23C171.774 755.824 172.59 754.704 173.678 753.808C174.798 752.912 176.318 752.464 178.238 752.464C180.798 752.464 182.782 753.312 184.19 755.008C185.63 756.672 186.35 759.056 186.35 762.16V778H181.118V762.832C181.118 758.928 179.55 756.976 176.414 756.976C175.742 756.976 175.07 757.072 174.398 757.264C173.758 757.424 173.182 757.68 172.67 758.032C172.158 758.384 171.742 758.832 171.422 759.376C171.134 759.92 170.99 760.56 170.99 761.296V778H165.758ZM215.01 780.352C215.01 782.944 214.018 784.896 212.034 786.208C210.05 787.52 206.818 788.176 202.338 788.176C200.29 788.176 198.546 788.032 197.106 787.744C195.698 787.488 194.53 787.104 193.602 786.592C192.706 786.08 192.05 785.456 191.634 784.72C191.218 783.984 191.01 783.136 191.01 782.176C191.01 780.8 191.378 779.728 192.114 778.96C192.882 778.192 193.938 777.664 195.282 777.376V776.848C193.394 776.24 192.45 774.96 192.45 773.008C192.45 771.728 192.882 770.752 193.746 770.08C194.61 769.376 195.65 768.88 196.866 768.592V768.4C195.394 767.696 194.258 766.72 193.458 765.472C192.69 764.192 192.306 762.704 192.306 761.008C192.306 758.448 193.154 756.384 194.85 754.816C196.578 753.248 199.042 752.464 202.242 752.464C204.002 752.464 205.506 752.72 206.754 753.232V752.56C206.754 751.44 207.01 750.576 207.522 749.968C208.066 749.328 208.898 749.008 210.018 749.008H213.858V753.232H208.77V754.24C209.89 754.976 210.754 755.936 211.362 757.12C211.97 758.272 212.274 759.568 212.274 761.008C212.274 763.536 211.41 765.584 209.682 767.152C207.954 768.688 205.49 769.456 202.29 769.456C201.074 769.456 199.986 769.328 199.026 769.072C198.386 769.296 197.826 769.616 197.346 770.032C196.866 770.416 196.626 770.928 196.626 771.568C196.626 772.24 196.93 772.72 197.538 773.008C198.146 773.296 199.01 773.44 200.13 773.44H206.274C209.346 773.44 211.57 774.064 212.946 775.312C214.322 776.528 215.01 778.208 215.01 780.352ZM210.114 780.928C210.114 780.064 209.778 779.376 209.106 778.864C208.466 778.352 207.282 778.096 205.554 778.096H197.106C195.954 778.768 195.378 779.728 195.378 780.976C195.378 782 195.778 782.816 196.578 783.424C197.41 784.064 198.802 784.384 200.754 784.384H204.018C208.082 784.384 210.114 783.232 210.114 780.928ZM202.29 765.664C203.826 765.664 205.01 765.328 205.842 764.656C206.706 763.952 207.138 762.88 207.138 761.44V760.48C207.138 759.04 206.706 757.984 205.842 757.312C205.01 756.608 203.826 756.256 202.29 756.256C200.754 756.256 199.554 756.608 198.69 757.312C197.858 757.984 197.442 759.04 197.442 760.48V761.44C197.442 762.88 197.858 763.952 198.69 764.656C199.554 765.328 200.754 765.664 202.29 765.664ZM218.423 778V753.04H223.655V757.84H223.895C224.247 756.56 224.983 755.44 226.103 754.48C227.223 753.52 228.775 753.04 230.759 753.04H232.151V758.08H230.087C228.007 758.08 226.407 758.416 225.287 759.088C224.199 759.76 223.655 760.752 223.655 762.064V778H218.423ZM245.875 778.576C244.083 778.576 242.483 778.272 241.075 777.664C239.667 777.056 238.467 776.192 237.475 775.072C236.483 773.92 235.715 772.544 235.171 770.944C234.659 769.312 234.403 767.504 234.403 765.52C234.403 763.536 234.659 761.744 235.171 760.144C235.715 758.512 236.483 757.136 237.475 756.016C238.467 754.864 239.667 753.984 241.075 753.376C242.483 752.768 244.083 752.464 245.875 752.464C247.699 752.464 249.299 752.784 250.675 753.424C252.083 754.064 253.251 754.96 254.179 756.112C255.107 757.232 255.795 758.544 256.243 760.048C256.723 761.552 256.963 763.168 256.963 764.896V766.864H239.827V767.68C239.827 769.6 240.387 771.184 241.507 772.432C242.659 773.648 244.291 774.256 246.403 774.256C247.939 774.256 249.235 773.92 250.291 773.248C251.347 772.576 252.243 771.664 252.979 770.512L256.051 773.536C255.123 775.072 253.779 776.304 252.019 777.232C250.259 778.128 248.211 778.576 245.875 778.576ZM245.875 756.544C244.979 756.544 244.147 756.704 243.379 757.024C242.643 757.344 242.003 757.792 241.459 758.368C240.947 758.944 240.547 759.632 240.259 760.432C239.971 761.232 239.827 762.112 239.827 763.072V763.408H251.443V762.928C251.443 761.008 250.947 759.472 249.955 758.32C248.963 757.136 247.603 756.544 245.875 756.544ZM270.195 778.576C267.827 778.576 265.843 778.16 264.243 777.328C262.643 776.496 261.251 775.344 260.067 773.872L263.427 770.8C264.355 771.92 265.379 772.8 266.499 773.44C267.651 774.048 268.979 774.352 270.483 774.352C272.019 774.352 273.155 774.064 273.891 773.488C274.659 772.88 275.043 772.048 275.043 770.992C275.043 770.192 274.771 769.52 274.227 768.976C273.715 768.4 272.803 768.032 271.491 767.872L269.187 767.584C266.627 767.264 264.611 766.528 263.139 765.376C261.699 764.192 260.979 762.448 260.979 760.144C260.979 758.928 261.203 757.856 261.651 756.928C262.099 755.968 262.723 755.168 263.523 754.528C264.355 753.856 265.331 753.344 266.451 752.992C267.603 752.64 268.867 752.464 270.243 752.464C272.483 752.464 274.307 752.816 275.715 753.52C277.155 754.224 278.435 755.2 279.555 756.448L276.339 759.52C275.699 758.752 274.851 758.096 273.795 757.552C272.771 756.976 271.587 756.688 270.243 756.688C268.803 756.688 267.731 756.976 267.027 757.552C266.355 758.128 266.019 758.88 266.019 759.808C266.019 760.768 266.323 761.488 266.931 761.968C267.539 762.448 268.515 762.8 269.859 763.024L272.163 763.312C274.915 763.728 276.915 764.544 278.163 765.76C279.443 766.944 280.083 768.544 280.083 770.56C280.083 771.776 279.843 772.88 279.363 773.872C278.915 774.832 278.259 775.664 277.395 776.368C276.531 777.072 275.491 777.616 274.275 778C273.059 778.384 271.699 778.576 270.195 778.576ZM293.153 778.576C290.785 778.576 288.801 778.16 287.201 777.328C285.601 776.496 284.209 775.344 283.025 773.872L286.385 770.8C287.313 771.92 288.337 772.8 289.457 773.44C290.609 774.048 291.937 774.352 293.441 774.352C294.977 774.352 296.113 774.064 296.849 773.488C297.617 772.88 298.001 772.048 298.001 770.992C298.001 770.192 297.729 769.52 297.185 768.976C296.673 768.4 295.761 768.032 294.449 767.872L292.145 767.584C289.585 767.264 287.569 766.528 286.097 765.376C284.657 764.192 283.937 762.448 283.937 760.144C283.937 758.928 284.161 757.856 284.609 756.928C285.057 755.968 285.681 755.168 286.481 754.528C287.313 753.856 288.289 753.344 289.409 752.992C290.561 752.64 291.825 752.464 293.201 752.464C295.441 752.464 297.265 752.816 298.673 753.52C300.113 754.224 301.393 755.2 302.513 756.448L299.297 759.52C298.657 758.752 297.809 758.096 296.753 757.552C295.729 756.976 294.545 756.688 293.201 756.688C291.761 756.688 290.689 756.976 289.985 757.552C289.313 758.128 288.977 758.88 288.977 759.808C288.977 760.768 289.281 761.488 289.889 761.968C290.497 762.448 291.473 762.8 292.817 763.024L295.121 763.312C297.873 763.728 299.873 764.544 301.121 765.76C302.401 766.944 303.041 768.544 303.041 770.56C303.041 771.776 302.801 772.88 302.321 773.872C301.873 774.832 301.217 775.664 300.353 776.368C299.489 777.072 298.449 777.616 297.233 778C296.017 778.384 294.657 778.576 293.153 778.576ZM318.615 763.072C318.615 760.736 318.823 758.496 319.239 756.352C319.687 754.208 320.295 752.208 321.063 750.352C321.831 748.496 322.727 746.816 323.751 745.312C324.807 743.808 325.943 742.544 327.159 741.52H332.103C330.791 742.736 329.607 744.096 328.551 745.6C327.495 747.104 326.599 748.704 325.863 750.4C325.127 752.096 324.551 753.856 324.135 755.68C323.751 757.504 323.559 759.328 323.559 761.152V764.992C323.559 766.816 323.751 768.64 324.135 770.464C324.551 772.288 325.127 774.048 325.863 775.744C326.599 777.44 327.495 779.04 328.551 780.544C329.607 782.08 330.791 783.44 332.103 784.624H327.159C325.943 783.6 324.807 782.336 323.751 780.832C322.727 779.328 321.831 777.648 321.063 775.792C320.295 773.936 319.687 771.936 319.239 769.792C318.823 767.648 318.615 765.408 318.615 763.072ZM359.988 756.016H359.844L357.396 760.912L350.868 772.768L344.484 760.96L341.94 755.68H341.796V778H334.932V744.496H342.66L350.868 760.192H350.964L359.076 744.496H366.852V778H359.988V756.016ZM383.188 763.072C383.188 765.408 382.964 767.648 382.516 769.792C382.1 771.936 381.508 773.936 380.74 775.792C379.972 777.648 379.06 779.328 378.004 780.832C376.98 782.336 375.86 783.6 374.644 784.624H369.7C371.012 783.44 372.196 782.08 373.252 780.544C374.308 779.04 375.204 777.44 375.94 775.744C376.676 774.048 377.236 772.288 377.62 770.464C378.036 768.64 378.244 766.816 378.244 764.992V761.152C378.244 759.328 378.036 757.504 377.62 755.68C377.236 753.856 376.676 752.096 375.94 750.4C375.204 748.704 374.308 747.104 373.252 745.6C372.196 744.096 371.012 742.736 369.7 741.52H374.644C375.86 742.544 376.98 743.808 378.004 745.312C379.06 746.816 379.972 748.496 380.74 750.352C381.508 752.208 382.1 754.208 382.516 756.352C382.964 758.496 383.188 760.736 383.188 763.072Z" fill="#4B90F3"/>
<path d="M575.624 520.882L573.626 523.121L575.624 520.882ZM580.391 549.806L582.894 551.46L580.391 549.806ZM534.729 553.89L559.179 578.429L568.206 544.985L534.729 553.89ZM534.066 532.319C540.022 526.664 547.573 522.029 554.88 520.043C562.175 518.06 568.783 518.798 573.626 523.121L577.621 518.644C570.741 512.505 561.774 511.951 553.306 514.253C544.851 516.551 536.452 521.779 529.934 527.969L534.066 532.319ZM573.626 523.121C582.929 531.421 582.323 541.441 577.888 548.152L582.894 551.46C588.817 542.498 589.35 529.11 577.621 518.644L573.626 523.121ZM577.888 548.152C574.548 553.205 568.838 557.361 560.589 557.933L561.004 563.918C571.263 563.207 578.608 557.945 582.894 551.46L577.888 548.152Z" fill="#4B90F3"/>
<rect x="443" y="496" width="90" height="90" rx="45" stroke="#4B90F3" stroke-width="6"/>
<path d="M489.493 558.576C485.109 558.576 481.669 557.104 479.173 554.16C476.677 551.184 475.429 546.88 475.429 541.248C475.429 538.432 475.749 535.952 476.389 533.808C477.029 531.664 477.957 529.856 479.173 528.384C480.389 526.912 481.861 525.808 483.589 525.072C485.349 524.304 487.317 523.92 489.493 523.92C492.405 523.92 494.837 524.56 496.789 525.84C498.773 527.12 500.325 529.008 501.445 531.504L496.885 534C496.309 532.4 495.413 531.136 494.197 530.208C493.013 529.248 491.445 528.768 489.493 528.768C486.901 528.768 484.869 529.648 483.397 531.408C481.925 533.168 481.189 535.6 481.189 538.704V543.792C481.189 546.896 481.925 549.328 483.397 551.088C484.869 552.848 486.901 553.728 489.493 553.728C491.509 553.728 493.141 553.216 494.389 552.192C495.669 551.136 496.613 549.792 497.221 548.16L501.589 550.8C500.469 553.232 498.901 555.136 496.885 556.512C494.869 557.888 492.405 558.576 489.493 558.576Z" fill="#4B90F3"/>
<path d="M355.624 520.882L353.626 523.121L355.624 520.882ZM360.391 549.806L362.894 551.46L360.391 549.806ZM314.729 553.89L339.179 578.429L348.206 544.985L314.729 553.89ZM314.066 532.319C320.022 526.664 327.573 522.029 334.88 520.043C342.175 518.06 348.783 518.798 353.626 523.121L357.621 518.644C350.741 512.505 341.774 511.951 333.306 514.253C324.851 516.551 316.452 521.779 309.934 527.969L314.066 532.319ZM353.626 523.121C362.929 531.421 362.323 541.441 357.888 548.152L362.894 551.46C368.817 542.498 369.35 529.11 357.621 518.644L353.626 523.121ZM357.888 548.152C354.548 553.205 348.838 557.361 340.589 557.933L341.004 563.918C351.263 563.207 358.608 557.945 362.894 551.46L357.888 548.152Z" fill="#4B90F3"/>
<rect x="223" y="496" width="90" height="90" rx="45" stroke="#4B90F3" stroke-width="6"/>
<path d="M256.308 524.496H271.14C273.924 524.496 276.1 525.28 277.668 526.848C279.268 528.416 280.068 530.512 280.068 533.136C280.068 534.384 279.892 535.456 279.54 536.352C279.188 537.216 278.74 537.936 278.196 538.512C277.652 539.056 277.028 539.472 276.324 539.76C275.62 540.016 274.932 540.176 274.26 540.24V540.528C274.932 540.56 275.668 540.72 276.468 541.008C277.3 541.296 278.068 541.76 278.772 542.4C279.476 543.008 280.068 543.808 280.548 544.8C281.028 545.76 281.268 546.944 281.268 548.352C281.268 549.696 281.044 550.96 280.596 552.144C280.18 553.328 279.588 554.352 278.82 555.216C278.052 556.08 277.14 556.768 276.084 557.28C275.028 557.76 273.876 558 272.628 558H256.308V524.496ZM261.732 553.344H271.044C272.452 553.344 273.556 552.976 274.356 552.24C275.156 551.504 275.556 550.448 275.556 549.072V547.44C275.556 546.064 275.156 545.008 274.356 544.272C273.556 543.536 272.452 543.168 271.044 543.168H261.732V553.344ZM261.732 538.656H270.132C271.476 538.656 272.516 538.32 273.252 537.648C273.988 536.944 274.356 535.952 274.356 534.672V533.136C274.356 531.856 273.988 530.88 273.252 530.208C272.516 529.504 271.476 529.152 270.132 529.152H261.732V538.656Z" fill="#4B90F3"/>
<path d="M135.624 520.882L133.626 523.121L135.624 520.882ZM140.391 549.806L142.894 551.46L140.391 549.806ZM94.7288 553.89L119.179 578.429L128.206 544.985L94.7288 553.89ZM94.0658 532.319C100.022 526.664 107.573 522.029 114.88 520.043C122.175 518.06 128.783 518.798 133.626 523.121L137.621 518.644C130.741 512.505 121.774 511.951 113.306 514.253C104.851 516.551 96.4524 521.779 89.9342 527.969L94.0658 532.319ZM133.626 523.121C142.929 531.421 142.323 541.441 137.888 548.152L142.894 551.46C148.817 542.498 149.35 529.11 137.621 518.644L133.626 523.121ZM137.888 548.152C134.548 553.205 128.838 557.361 120.589 557.933L121.004 563.918C131.263 563.207 138.608 557.945 142.894 551.46L137.888 548.152Z" fill="#4B90F3"/>
<rect x="3" y="496" width="90" height="90" rx="45" stroke="#4B90F3" stroke-width="6"/>
<path d="M57.1654 558L54.1414 548.928H41.6134L38.6854 558H33.1654L44.5894 524.496H51.4054L62.8294 558H57.1654ZM47.9974 529.488H47.7574L42.9094 544.272H52.7974L47.9974 529.488Z" fill="#4B90F3"/>
<path d="M248.222 232.017L250.402 234.079L248.222 232.017ZM277.9 227.897L276.217 230.38L277.9 227.897ZM281.324 273.806L306.422 249.93L273.196 240.132L281.324 273.806ZM259.174 273.955C253.478 267.842 248.86 260.155 246.949 252.782C245.042 245.425 245.906 238.832 250.402 234.079L246.043 229.956C239.639 236.726 238.923 245.73 241.141 254.287C243.354 262.827 248.564 271.37 254.784 278.045L259.174 273.955ZM250.402 234.079C259.061 224.924 269.367 225.739 276.217 230.38L279.583 225.413C270.566 219.303 256.936 218.439 246.043 229.956L250.402 234.079ZM276.217 230.38C281.378 233.877 285.541 239.742 285.964 248.061L291.957 247.756C291.428 237.375 286.145 229.86 279.583 225.413L276.217 230.38Z" fill="#4B90F3"/>
<rect x="116" y="276" width="304" height="90" rx="45" stroke="#4B90F3" stroke-width="6"/>
<path d="M170.024 338.576C168.232 338.576 166.632 338.272 165.224 337.664C163.816 337.056 162.616 336.192 161.624 335.072C160.632 333.92 159.864 332.544 159.32 330.944C158.808 329.312 158.552 327.504 158.552 325.52C158.552 323.536 158.808 321.744 159.32 320.144C159.864 318.512 160.632 317.136 161.624 316.016C162.616 314.864 163.816 313.984 165.224 313.376C166.632 312.768 168.232 312.464 170.024 312.464C171.848 312.464 173.448 312.784 174.824 313.424C176.232 314.064 177.4 314.96 178.328 316.112C179.256 317.232 179.944 318.544 180.392 320.048C180.872 321.552 181.112 323.168 181.112 324.896V326.864H163.976V327.68C163.976 329.6 164.536 331.184 165.656 332.432C166.808 333.648 168.44 334.256 170.552 334.256C172.088 334.256 173.384 333.92 174.44 333.248C175.496 332.576 176.392 331.664 177.128 330.512L180.2 333.536C179.272 335.072 177.928 336.304 176.168 337.232C174.408 338.128 172.36 338.576 170.024 338.576ZM170.024 316.544C169.128 316.544 168.296 316.704 167.528 317.024C166.792 317.344 166.152 317.792 165.608 318.368C165.096 318.944 164.696 319.632 164.408 320.432C164.12 321.232 163.976 322.112 163.976 323.072V323.408H175.592V322.928C175.592 321.008 175.096 319.472 174.104 318.32C173.112 317.136 171.752 316.544 170.024 316.544ZM208.312 340.352C208.312 342.944 207.32 344.896 205.336 346.208C203.352 347.52 200.12 348.176 195.64 348.176C193.592 348.176 191.848 348.032 190.408 347.744C189 347.488 187.832 347.104 186.904 346.592C186.008 346.08 185.352 345.456 184.936 344.72C184.52 343.984 184.312 343.136 184.312 342.176C184.312 340.8 184.68 339.728 185.416 338.96C186.184 338.192 187.24 337.664 188.584 337.376V336.848C186.696 336.24 185.752 334.96 185.752 333.008C185.752 331.728 186.184 330.752 187.048 330.08C187.912 329.376 188.952 328.88 190.168 328.592V328.4C188.696 327.696 187.56 326.72 186.76 325.472C185.992 324.192 185.608 322.704 185.608 321.008C185.608 318.448 186.456 316.384 188.152 314.816C189.88 313.248 192.344 312.464 195.544 312.464C197.304 312.464 198.808 312.72 200.056 313.232V312.56C200.056 311.44 200.312 310.576 200.824 309.968C201.368 309.328 202.2 309.008 203.32 309.008H207.16V313.232H202.072V314.24C203.192 314.976 204.056 315.936 204.664 317.12C205.272 318.272 205.576 319.568 205.576 321.008C205.576 323.536 204.712 325.584 202.984 327.152C201.256 328.688 198.792 329.456 195.592 329.456C194.376 329.456 193.288 329.328 192.328 329.072C191.688 329.296 191.128 329.616 190.648 330.032C190.168 330.416 189.928 330.928 189.928 331.568C189.928 332.24 190.232 332.72 190.84 333.008C191.448 333.296 192.312 333.44 193.432 333.44H199.576C202.648 333.44 204.872 334.064 206.248 335.312C207.624 336.528 208.312 338.208 208.312 340.352ZM203.416 340.928C203.416 340.064 203.08 339.376 202.408 338.864C201.768 338.352 200.584 338.096 198.856 338.096H190.408C189.256 338.768 188.68 339.728 188.68 340.976C188.68 342 189.08 342.816 189.88 343.424C190.712 344.064 192.104 344.384 194.056 344.384H197.32C201.384 344.384 203.416 343.232 203.416 340.928ZM195.592 325.664C197.128 325.664 198.312 325.328 199.144 324.656C200.008 323.952 200.44 322.88 200.44 321.44V320.48C200.44 319.04 200.008 317.984 199.144 317.312C198.312 316.608 197.128 316.256 195.592 316.256C194.056 316.256 192.856 316.608 191.992 317.312C191.16 317.984 190.744 319.04 190.744 320.48V321.44C190.744 322.88 191.16 323.952 191.992 324.656C192.856 325.328 194.056 325.664 195.592 325.664ZM211.725 338V313.04H216.957V317.84H217.197C217.549 316.56 218.285 315.44 219.405 314.48C220.525 313.52 222.077 313.04 224.061 313.04H225.453V318.08H223.389C221.309 318.08 219.709 318.416 218.589 319.088C217.501 319.76 216.957 320.752 216.957 322.064V338H211.725ZM239.178 338.576C237.386 338.576 235.786 338.272 234.378 337.664C232.97 337.056 231.77 336.192 230.778 335.072C229.786 333.92 229.018 332.544 228.474 330.944C227.962 329.312 227.706 327.504 227.706 325.52C227.706 323.536 227.962 321.744 228.474 320.144C229.018 318.512 229.786 317.136 230.778 316.016C231.77 314.864 232.97 313.984 234.378 313.376C235.786 312.768 237.386 312.464 239.178 312.464C241.002 312.464 242.602 312.784 243.978 313.424C245.386 314.064 246.554 314.96 247.482 316.112C248.41 317.232 249.098 318.544 249.546 320.048C250.026 321.552 250.266 323.168 250.266 324.896V326.864H233.13V327.68C233.13 329.6 233.69 331.184 234.81 332.432C235.962 333.648 237.594 334.256 239.706 334.256C241.242 334.256 242.538 333.92 243.594 333.248C244.65 332.576 245.546 331.664 246.282 330.512L249.354 333.536C248.426 335.072 247.082 336.304 245.322 337.232C243.562 338.128 241.514 338.576 239.178 338.576ZM239.178 316.544C238.282 316.544 237.45 316.704 236.682 317.024C235.946 317.344 235.306 317.792 234.762 318.368C234.25 318.944 233.85 319.632 233.562 320.432C233.274 321.232 233.13 322.112 233.13 323.072V323.408H244.746V322.928C244.746 321.008 244.25 319.472 243.258 318.32C242.266 317.136 240.906 316.544 239.178 316.544ZM263.498 338.576C261.13 338.576 259.146 338.16 257.546 337.328C255.946 336.496 254.554 335.344 253.37 333.872L256.73 330.8C257.658 331.92 258.682 332.8 259.802 333.44C260.954 334.048 262.282 334.352 263.786 334.352C265.322 334.352 266.458 334.064 267.194 333.488C267.962 332.88 268.346 332.048 268.346 330.992C268.346 330.192 268.074 329.52 267.53 328.976C267.018 328.4 266.106 328.032 264.794 327.872L262.49 327.584C259.93 327.264 257.914 326.528 256.442 325.376C255.002 324.192 254.282 322.448 254.282 320.144C254.282 318.928 254.506 317.856 254.954 316.928C255.402 315.968 256.026 315.168 256.826 314.528C257.658 313.856 258.634 313.344 259.754 312.992C260.906 312.64 262.17 312.464 263.546 312.464C265.786 312.464 267.61 312.816 269.018 313.52C270.458 314.224 271.738 315.2 272.858 316.448L269.642 319.52C269.002 318.752 268.154 318.096 267.098 317.552C266.074 316.976 264.89 316.688 263.546 316.688C262.106 316.688 261.034 316.976 260.33 317.552C259.658 318.128 259.322 318.88 259.322 319.808C259.322 320.768 259.626 321.488 260.234 321.968C260.842 322.448 261.818 322.8 263.162 323.024L265.466 323.312C268.218 323.728 270.218 324.544 271.466 325.76C272.746 326.944 273.386 328.544 273.386 330.56C273.386 331.776 273.146 332.88 272.666 333.872C272.218 334.832 271.562 335.664 270.698 336.368C269.834 337.072 268.794 337.616 267.578 338C266.362 338.384 265.002 338.576 263.498 338.576ZM286.455 338.576C284.087 338.576 282.103 338.16 280.503 337.328C278.903 336.496 277.511 335.344 276.327 333.872L279.687 330.8C280.615 331.92 281.639 332.8 282.759 333.44C283.911 334.048 285.239 334.352 286.743 334.352C288.279 334.352 289.415 334.064 290.151 333.488C290.919 332.88 291.303 332.048 291.303 330.992C291.303 330.192 291.031 329.52 290.487 328.976C289.975 328.4 289.063 328.032 287.751 327.872L285.447 327.584C282.887 327.264 280.871 326.528 279.399 325.376C277.959 324.192 277.239 322.448 277.239 320.144C277.239 318.928 277.463 317.856 277.911 316.928C278.359 315.968 278.983 315.168 279.783 314.528C280.615 313.856 281.591 313.344 282.711 312.992C283.863 312.64 285.127 312.464 286.503 312.464C288.743 312.464 290.567 312.816 291.975 313.52C293.415 314.224 294.695 315.2 295.815 316.448L292.599 319.52C291.959 318.752 291.111 318.096 290.055 317.552C289.031 316.976 287.847 316.688 286.503 316.688C285.063 316.688 283.991 316.976 283.287 317.552C282.615 318.128 282.279 318.88 282.279 319.808C282.279 320.768 282.583 321.488 283.191 321.968C283.799 322.448 284.775 322.8 286.119 323.024L288.423 323.312C291.175 323.728 293.175 324.544 294.423 325.76C295.703 326.944 296.343 328.544 296.343 330.56C296.343 331.776 296.103 332.88 295.623 333.872C295.175 334.832 294.519 335.664 293.655 336.368C292.791 337.072 291.751 337.616 290.535 338C289.319 338.384 287.959 338.576 286.455 338.576ZM311.918 323.072C311.918 320.736 312.126 318.496 312.542 316.352C312.99 314.208 313.598 312.208 314.366 310.352C315.134 308.496 316.03 306.816 317.054 305.312C318.11 303.808 319.246 302.544 320.462 301.52H325.406C324.094 302.736 322.91 304.096 321.854 305.6C320.798 307.104 319.902 308.704 319.166 310.4C318.43 312.096 317.854 313.856 317.438 315.68C317.054 317.504 316.862 319.328 316.862 321.152V324.992C316.862 326.816 317.054 328.64 317.438 330.464C317.854 332.288 318.43 334.048 319.166 335.744C319.902 337.44 320.798 339.04 321.854 340.544C322.91 342.08 324.094 343.44 325.406 344.624H320.462C319.246 343.6 318.11 342.336 317.054 340.832C316.03 339.328 315.134 337.648 314.366 335.792C313.598 333.936 312.99 331.936 312.542 329.792C312.126 327.648 311.918 325.408 311.918 323.072ZM353.291 316.016H353.147L350.699 320.912L344.171 332.768L337.787 320.96L335.243 315.68H335.099V338H328.235V304.496H335.963L344.171 320.192H344.267L352.379 304.496H360.155V338H353.291V316.016ZM376.491 323.072C376.491 325.408 376.267 327.648 375.819 329.792C375.403 331.936 374.811 333.936 374.043 335.792C373.275 337.648 372.363 339.328 371.307 340.832C370.283 342.336 369.163 343.6 367.947 344.624H363.003C364.315 343.44 365.499 342.08 366.555 340.544C367.611 339.04 368.507 337.44 369.243 335.744C369.979 334.048 370.539 332.288 370.923 330.464C371.339 328.64 371.547 326.816 371.547 324.992V321.152C371.547 319.328 371.339 317.504 370.923 315.68C370.539 313.856 369.979 312.096 369.243 310.4C368.507 308.704 367.611 307.104 366.555 305.6C365.499 304.096 364.315 302.736 363.003 301.52H367.947C369.163 302.544 370.283 303.808 371.307 305.312C372.363 306.816 373.275 308.496 374.043 310.352C374.811 312.208 375.403 314.208 375.819 316.352C376.267 318.496 376.491 320.736 376.491 323.072Z" fill="#4B90F3"/>
<path d="M714.222 12.0173L716.402 14.0788L714.222 12.0173ZM743.9 7.89685L742.217 10.3804L743.9 7.89685ZM747.324 53.8063L772.422 29.9297L739.196 20.1325L747.324 53.8063ZM725.174 53.9548C719.478 47.8422 714.86 40.1555 712.949 32.7819C711.042 25.4249 711.906 18.8317 716.402 14.0788L712.043 9.95576C705.639 16.7259 704.923 25.7303 707.141 34.2871C709.354 42.8273 714.564 51.3704 720.784 58.0452L725.174 53.9548ZM716.402 14.0788C725.061 4.92411 735.367 5.73867 742.217 10.3804L745.583 5.41332C736.566 -0.696577 722.936 -1.56119 712.043 9.95576L716.402 14.0788ZM742.217 10.3804C747.378 13.8771 751.541 19.7417 751.964 28.0609L757.957 27.7557C757.428 17.3749 752.145 9.85954 745.583 5.41332L742.217 10.3804Z" fill="#4B90F3"/>
<rect x="622" y="56" width="223" height="90" rx="45" stroke="#4B90F3" stroke-width="6"/>
<path d="M668.413 82.48H673.645V97.168H673.885C674.429 95.664 675.309 94.512 676.525 93.712C677.773 92.88 679.229 92.464 680.893 92.464C684.061 92.464 686.509 93.616 688.237 95.92C689.965 98.192 690.829 101.392 690.829 105.52C690.829 109.648 689.965 112.864 688.237 115.168C686.509 117.44 684.061 118.576 680.893 118.576C679.229 118.576 677.773 118.16 676.525 117.328C675.309 116.496 674.429 115.344 673.885 113.872H673.645V118H668.413V82.48ZM679.309 114.064C681.133 114.064 682.589 113.488 683.677 112.336C684.765 111.152 685.309 109.6 685.309 107.68V103.36C685.309 101.44 684.765 99.904 683.677 98.752C682.589 97.568 681.133 96.976 679.309 96.976C677.709 96.976 676.365 97.376 675.277 98.176C674.189 98.944 673.645 99.968 673.645 101.248V109.792C673.645 111.072 674.189 112.112 675.277 112.912C676.365 113.68 677.709 114.064 679.309 114.064ZM696.339 118V93.04H701.571V97.84H701.811C702.163 96.56 702.899 95.44 704.019 94.48C705.139 93.52 706.691 93.04 708.675 93.04H710.067V98.08H708.003C705.923 98.08 704.323 98.416 703.203 99.088C702.115 99.76 701.571 100.752 701.571 102.064V118H696.339ZM716.874 88.576C715.786 88.576 714.986 88.32 714.474 87.808C713.994 87.296 713.754 86.64 713.754 85.84V85.024C713.754 84.224 713.994 83.568 714.474 83.056C714.986 82.544 715.786 82.288 716.874 82.288C717.962 82.288 718.746 82.544 719.226 83.056C719.706 83.568 719.946 84.224 719.946 85.024V85.84C719.946 86.64 719.706 87.296 719.226 87.808C718.746 88.32 717.962 88.576 716.874 88.576ZM714.234 93.04H719.466V118H714.234V93.04ZM742.153 113.872H741.913C741.369 115.344 740.473 116.496 739.225 117.328C738.009 118.16 736.569 118.576 734.905 118.576C731.737 118.576 729.289 117.44 727.561 115.168C725.833 112.864 724.969 109.648 724.969 105.52C724.969 101.392 725.833 98.192 727.561 95.92C729.289 93.616 731.737 92.464 734.905 92.464C736.569 92.464 738.009 92.88 739.225 93.712C740.473 94.512 741.369 95.664 741.913 97.168H742.153V82.48H747.385V118H742.153V113.872ZM736.489 114.064C738.089 114.064 739.433 113.68 740.521 112.912C741.609 112.112 742.153 111.072 742.153 109.792V101.248C742.153 99.968 741.609 98.944 740.521 98.176C739.433 97.376 738.089 96.976 736.489 96.976C734.665 96.976 733.209 97.568 732.121 98.752C731.033 99.904 730.489 101.44 730.489 103.36V107.68C730.489 109.6 731.033 111.152 732.121 112.336C733.209 113.488 734.665 114.064 736.489 114.064ZM776.271 120.352C776.271 122.944 775.279 124.896 773.295 126.208C771.311 127.52 768.079 128.176 763.599 128.176C761.551 128.176 759.807 128.032 758.367 127.744C756.959 127.488 755.791 127.104 754.863 126.592C753.967 126.08 753.311 125.456 752.895 124.72C752.479 123.984 752.271 123.136 752.271 122.176C752.271 120.8 752.639 119.728 753.375 118.96C754.143 118.192 755.199 117.664 756.543 117.376V116.848C754.655 116.24 753.711 114.96 753.711 113.008C753.711 111.728 754.143 110.752 755.007 110.08C755.871 109.376 756.911 108.88 758.127 108.592V108.4C756.655 107.696 755.519 106.72 754.719 105.472C753.951 104.192 753.567 102.704 753.567 101.008C753.567 98.448 754.415 96.384 756.111 94.816C757.839 93.248 760.303 92.464 763.503 92.464C765.263 92.464 766.767 92.72 768.015 93.232V92.56C768.015 91.44 768.271 90.576 768.783 89.968C769.327 89.328 770.159 89.008 771.279 89.008H775.119V93.232H770.031V94.24C771.151 94.976 772.015 95.936 772.623 97.12C773.231 98.272 773.535 99.568 773.535 101.008C773.535 103.536 772.671 105.584 770.943 107.152C769.215 108.688 766.751 109.456 763.551 109.456C762.335 109.456 761.247 109.328 760.287 109.072C759.647 109.296 759.087 109.616 758.607 110.032C758.127 110.416 757.887 110.928 757.887 111.568C757.887 112.24 758.191 112.72 758.799 113.008C759.407 113.296 760.271 113.44 761.391 113.44H767.535C770.607 113.44 772.831 114.064 774.207 115.312C775.583 116.528 776.271 118.208 776.271 120.352ZM771.375 120.928C771.375 120.064 771.039 119.376 770.367 118.864C769.727 118.352 768.543 118.096 766.815 118.096H758.367C757.215 118.768 756.639 119.728 756.639 120.976C756.639 122 757.039 122.816 757.839 123.424C758.671 124.064 760.063 124.384 762.015 124.384H765.279C769.343 124.384 771.375 123.232 771.375 120.928ZM763.551 105.664C765.087 105.664 766.271 105.328 767.103 104.656C767.967 103.952 768.399 102.88 768.399 101.44V100.48C768.399 99.04 767.967 97.984 767.103 97.312C766.271 96.608 765.087 96.256 763.551 96.256C762.015 96.256 760.815 96.608 759.951 97.312C759.119 97.984 758.703 99.04 758.703 100.48V101.44C758.703 102.88 759.119 103.952 759.951 104.656C760.815 105.328 762.015 105.664 763.551 105.664ZM789.195 118.576C787.403 118.576 785.803 118.272 784.395 117.664C782.987 117.056 781.787 116.192 780.795 115.072C779.803 113.92 779.035 112.544 778.491 110.944C777.979 109.312 777.723 107.504 777.723 105.52C777.723 103.536 777.979 101.744 778.491 100.144C779.035 98.512 779.803 97.136 780.795 96.016C781.787 94.864 782.987 93.984 784.395 93.376C785.803 92.768 787.403 92.464 789.195 92.464C791.019 92.464 792.619 92.784 793.995 93.424C795.403 94.064 796.571 94.96 797.499 96.112C798.427 97.232 799.115 98.544 799.563 100.048C800.043 101.552 800.283 103.168 800.283 104.896V106.864H783.147V107.68C783.147 109.6 783.707 111.184 784.827 112.432C785.979 113.648 787.611 114.256 789.723 114.256C791.259 114.256 792.555 113.92 793.611 113.248C794.667 112.576 795.563 111.664 796.299 110.512L799.371 113.536C798.443 115.072 797.099 116.304 795.339 117.232C793.579 118.128 791.531 118.576 789.195 118.576ZM789.195 96.544C788.299 96.544 787.467 96.704 786.699 97.024C785.963 97.344 785.323 97.792 784.779 98.368C784.267 98.944 783.867 99.632 783.579 100.432C783.291 101.232 783.147 102.112 783.147 103.072V103.408H794.763V102.928C794.763 101.008 794.267 99.472 793.275 98.32C792.283 97.136 790.923 96.544 789.195 96.544Z" fill="#4B90F3"/>
</svg>
