<svg width="640" height="589" viewBox="0 0 640 589" fill="none" xmlns="http://www.w3.org/2000/svg">
<g clip-path="url(#clip0_30_108)">
<path d="M287.227 631.293L285.027 629.254L287.227 631.293ZM257.95 635.442L259.657 632.975L257.95 635.442ZM254.573 589.209L229.563 613.178L262.825 622.853L254.573 589.209ZM276.373 589.023C281.991 595.177 286.552 602.923 288.44 610.362C290.327 617.792 289.47 624.458 285.027 629.254L289.428 633.332C295.737 626.522 296.438 617.481 294.256 608.886C292.076 600.299 286.942 591.7 280.805 584.977L276.373 589.023ZM285.027 629.254C280.674 633.951 275.994 635.962 271.667 636.31C267.293 636.662 263.064 635.331 259.657 632.975L256.244 637.909C260.664 640.967 266.25 642.765 272.148 642.291C278.091 641.813 284.136 639.043 289.428 633.332L285.027 629.254ZM259.657 632.975C254.551 629.443 250.41 623.486 250.029 615L244.035 615.268C244.506 625.777 249.723 633.399 256.244 637.909L259.657 632.975Z" fill="#4B90F3"/>
<path d="M287.227 631.293L285.027 629.254L287.227 631.293ZM257.95 635.442L259.657 632.975L257.95 635.442ZM254.573 589.209L229.563 613.178L262.825 622.853L254.573 589.209ZM276.373 589.023C281.991 595.177 286.552 602.923 288.44 610.362C290.327 617.792 289.47 624.458 285.027 629.254L289.428 633.332C295.737 626.522 296.438 617.481 294.256 608.886C292.076 600.299 286.942 591.7 280.805 584.977L276.373 589.023ZM285.027 629.254C280.674 633.951 275.994 635.962 271.667 636.31C267.293 636.662 263.064 635.331 259.657 632.975L256.244 637.909C260.664 640.967 266.25 642.765 272.148 642.291C278.091 641.813 284.136 639.043 289.428 633.332L285.027 629.254ZM259.657 632.975C254.551 629.443 250.41 623.486 250.029 615L244.035 615.268C244.506 625.777 249.723 633.399 256.244 637.909L259.657 632.975Z" fill="#4B90F3"/>
<path d="M512.293 360.225L480.259 373.408L507.693 394.559L512.293 360.225ZM493.432 379.776L405.511 493.82L410.263 497.483L498.184 383.439L493.432 379.776Z" fill="#4B90F3"/>
<path d="M128 360.225L160.034 373.408L132.599 394.559L128 360.225ZM146.861 379.776L234.782 493.82L230.03 497.483L142.109 383.439L146.861 379.776Z" fill="#4B90F3"/>
<path d="M408 144.039L440.034 157.223L412.599 178.373L408 144.039ZM426.861 163.59L517.477 281.13L512.725 284.793L422.109 167.254L426.861 163.59Z" fill="#4B90F3"/>
<path d="M320 149L302.679 179H337.321L320 149ZM317 176V276H323V176H317Z" fill="#4B90F3"/>
<path d="M231.051 144.039L199.017 157.223L226.451 178.373L231.051 144.039ZM212.19 163.59L121.574 281.13L126.326 284.793L216.942 167.254L212.19 163.59Z" fill="#4B90F3"/>
<path d="M287.227 631.293L285.027 629.254L287.227 631.293ZM257.95 635.442L259.657 632.975L257.95 635.442ZM254.573 589.209L229.563 613.178L262.825 622.853L254.573 589.209ZM276.373 589.023C281.991 595.177 286.552 602.923 288.44 610.362C290.327 617.792 289.47 624.458 285.027 629.254L289.428 633.332C295.737 626.522 296.438 617.481 294.256 608.886C292.076 600.299 286.942 591.7 280.805 584.977L276.373 589.023ZM285.027 629.254C280.674 633.951 275.994 635.962 271.667 636.31C267.293 636.662 263.064 635.331 259.657 632.975L256.244 637.909C260.664 640.967 266.25 642.765 272.148 642.291C278.091 641.813 284.136 639.043 289.428 633.332L285.027 629.254ZM259.657 632.975C254.551 629.443 250.41 623.486 250.029 615L244.035 615.268C244.506 625.777 249.723 633.399 256.244 637.909L259.657 632.975Z" fill="#4B90F3"/>
<rect x="168" y="496" width="304" height="90" rx="45" stroke="#4B90F3" stroke-width="6"/>
<path d="M210.706 528.576C209.618 528.576 208.818 528.32 208.306 527.808C207.826 527.296 207.586 526.64 207.586 525.84V525.024C207.586 524.224 207.826 523.568 208.306 523.056C208.818 522.544 209.618 522.288 210.706 522.288C211.794 522.288 212.578 522.544 213.058 523.056C213.538 523.568 213.778 524.224 213.778 525.024V525.84C213.778 526.64 213.538 527.296 213.058 527.808C212.578 528.32 211.794 528.576 210.706 528.576ZM208.066 533.04H213.298V558H208.066V533.04ZM220.289 558V533.04H225.521V537.168H225.761C226.305 535.824 227.121 534.704 228.209 533.808C229.329 532.912 230.849 532.464 232.769 532.464C235.329 532.464 237.313 533.312 238.721 535.008C240.161 536.672 240.881 539.056 240.881 542.16V558H235.649V542.832C235.649 538.928 234.081 536.976 230.945 536.976C230.273 536.976 229.601 537.072 228.929 537.264C228.289 537.424 227.713 537.68 227.201 538.032C226.689 538.384 226.273 538.832 225.953 539.376C225.665 539.92 225.521 540.56 225.521 541.296V558H220.289ZM269.541 560.352C269.541 562.944 268.549 564.896 266.565 566.208C264.581 567.52 261.349 568.176 256.869 568.176C254.821 568.176 253.077 568.032 251.637 567.744C250.229 567.488 249.061 567.104 248.133 566.592C247.237 566.08 246.581 565.456 246.165 564.72C245.749 563.984 245.541 563.136 245.541 562.176C245.541 560.8 245.909 559.728 246.645 558.96C247.413 558.192 248.469 557.664 249.813 557.376V556.848C247.925 556.24 246.981 554.96 246.981 553.008C246.981 551.728 247.413 550.752 248.277 550.08C249.141 549.376 250.181 548.88 251.397 548.592V548.4C249.925 547.696 248.789 546.72 247.989 545.472C247.221 544.192 246.837 542.704 246.837 541.008C246.837 538.448 247.685 536.384 249.381 534.816C251.109 533.248 253.573 532.464 256.773 532.464C258.533 532.464 260.037 532.72 261.285 533.232V532.56C261.285 531.44 261.541 530.576 262.053 529.968C262.597 529.328 263.429 529.008 264.549 529.008H268.389V533.232H263.301V534.24C264.421 534.976 265.285 535.936 265.893 537.12C266.501 538.272 266.805 539.568 266.805 541.008C266.805 543.536 265.941 545.584 264.213 547.152C262.485 548.688 260.021 549.456 256.821 549.456C255.605 549.456 254.517 549.328 253.557 549.072C252.917 549.296 252.357 549.616 251.877 550.032C251.397 550.416 251.157 550.928 251.157 551.568C251.157 552.24 251.461 552.72 252.069 553.008C252.677 553.296 253.541 553.44 254.661 553.44H260.805C263.877 553.44 266.101 554.064 267.477 555.312C268.853 556.528 269.541 558.208 269.541 560.352ZM264.645 560.928C264.645 560.064 264.309 559.376 263.637 558.864C262.997 558.352 261.813 558.096 260.085 558.096H251.637C250.485 558.768 249.909 559.728 249.909 560.976C249.909 562 250.309 562.816 251.109 563.424C251.941 564.064 253.333 564.384 255.285 564.384H258.549C262.613 564.384 264.645 563.232 264.645 560.928ZM256.821 545.664C258.357 545.664 259.541 545.328 260.373 544.656C261.237 543.952 261.669 542.88 261.669 541.44V540.48C261.669 539.04 261.237 537.984 260.373 537.312C259.541 536.608 258.357 536.256 256.821 536.256C255.285 536.256 254.085 536.608 253.221 537.312C252.389 537.984 251.973 539.04 251.973 540.48V541.44C251.973 542.88 252.389 543.952 253.221 544.656C254.085 545.328 255.285 545.664 256.821 545.664ZM272.954 558V533.04H278.186V537.84H278.426C278.778 536.56 279.514 535.44 280.634 534.48C281.754 533.52 283.306 533.04 285.29 533.04H286.682V538.08H284.618C282.538 538.08 280.938 538.416 279.818 539.088C278.73 539.76 278.186 540.752 278.186 542.064V558H272.954ZM300.407 558.576C298.615 558.576 297.015 558.272 295.607 557.664C294.199 557.056 292.999 556.192 292.007 555.072C291.015 553.92 290.247 552.544 289.703 550.944C289.191 549.312 288.935 547.504 288.935 545.52C288.935 543.536 289.191 541.744 289.703 540.144C290.247 538.512 291.015 537.136 292.007 536.016C292.999 534.864 294.199 533.984 295.607 533.376C297.015 532.768 298.615 532.464 300.407 532.464C302.231 532.464 303.831 532.784 305.207 533.424C306.615 534.064 307.783 534.96 308.711 536.112C309.639 537.232 310.327 538.544 310.775 540.048C311.255 541.552 311.495 543.168 311.495 544.896V546.864H294.359V547.68C294.359 549.6 294.919 551.184 296.039 552.432C297.191 553.648 298.823 554.256 300.935 554.256C302.471 554.256 303.767 553.92 304.823 553.248C305.879 552.576 306.775 551.664 307.511 550.512L310.583 553.536C309.655 555.072 308.311 556.304 306.551 557.232C304.791 558.128 302.743 558.576 300.407 558.576ZM300.407 536.544C299.511 536.544 298.679 536.704 297.911 537.024C297.175 537.344 296.535 537.792 295.991 538.368C295.479 538.944 295.079 539.632 294.791 540.432C294.503 541.232 294.359 542.112 294.359 543.072V543.408H305.975V542.928C305.975 541.008 305.479 539.472 304.487 538.32C303.495 537.136 302.135 536.544 300.407 536.544ZM324.727 558.576C322.359 558.576 320.375 558.16 318.775 557.328C317.175 556.496 315.783 555.344 314.599 553.872L317.959 550.8C318.887 551.92 319.911 552.8 321.031 553.44C322.183 554.048 323.511 554.352 325.015 554.352C326.551 554.352 327.687 554.064 328.423 553.488C329.191 552.88 329.575 552.048 329.575 550.992C329.575 550.192 329.303 549.52 328.759 548.976C328.247 548.4 327.335 548.032 326.023 547.872L323.719 547.584C321.159 547.264 319.143 546.528 317.671 545.376C316.231 544.192 315.511 542.448 315.511 540.144C315.511 538.928 315.735 537.856 316.183 536.928C316.631 535.968 317.255 535.168 318.055 534.528C318.887 533.856 319.863 533.344 320.983 532.992C322.135 532.64 323.399 532.464 324.775 532.464C327.015 532.464 328.839 532.816 330.247 533.52C331.687 534.224 332.967 535.2 334.087 536.448L330.871 539.52C330.231 538.752 329.383 538.096 328.327 537.552C327.303 536.976 326.119 536.688 324.775 536.688C323.335 536.688 322.263 536.976 321.559 537.552C320.887 538.128 320.551 538.88 320.551 539.808C320.551 540.768 320.855 541.488 321.463 541.968C322.071 542.448 323.047 542.8 324.391 543.024L326.695 543.312C329.447 543.728 331.447 544.544 332.695 545.76C333.975 546.944 334.615 548.544 334.615 550.56C334.615 551.776 334.375 552.88 333.895 553.872C333.447 554.832 332.791 555.664 331.927 556.368C331.063 557.072 330.023 557.616 328.807 558C327.591 558.384 326.231 558.576 324.727 558.576ZM347.684 558.576C345.316 558.576 343.332 558.16 341.732 557.328C340.132 556.496 338.74 555.344 337.556 553.872L340.916 550.8C341.844 551.92 342.868 552.8 343.988 553.44C345.14 554.048 346.468 554.352 347.972 554.352C349.508 554.352 350.644 554.064 351.38 553.488C352.148 552.88 352.532 552.048 352.532 550.992C352.532 550.192 352.26 549.52 351.716 548.976C351.204 548.4 350.292 548.032 348.98 547.872L346.676 547.584C344.116 547.264 342.1 546.528 340.628 545.376C339.188 544.192 338.468 542.448 338.468 540.144C338.468 538.928 338.692 537.856 339.14 536.928C339.588 535.968 340.212 535.168 341.012 534.528C341.844 533.856 342.82 533.344 343.94 532.992C345.092 532.64 346.356 532.464 347.732 532.464C349.972 532.464 351.796 532.816 353.204 533.52C354.644 534.224 355.924 535.2 357.044 536.448L353.828 539.52C353.188 538.752 352.34 538.096 351.284 537.552C350.26 536.976 349.076 536.688 347.732 536.688C346.292 536.688 345.22 536.976 344.516 537.552C343.844 538.128 343.508 538.88 343.508 539.808C343.508 540.768 343.812 541.488 344.42 541.968C345.028 542.448 346.004 542.8 347.348 543.024L349.652 543.312C352.404 543.728 354.404 544.544 355.652 545.76C356.932 546.944 357.572 548.544 357.572 550.56C357.572 551.776 357.332 552.88 356.852 553.872C356.404 554.832 355.748 555.664 354.884 556.368C354.02 557.072 352.98 557.616 351.764 558C350.548 558.384 349.188 558.576 347.684 558.576ZM373.146 543.072C373.146 540.736 373.354 538.496 373.77 536.352C374.218 534.208 374.826 532.208 375.594 530.352C376.362 528.496 377.258 526.816 378.282 525.312C379.338 523.808 380.474 522.544 381.69 521.52H386.634C385.322 522.736 384.138 524.096 383.082 525.6C382.026 527.104 381.13 528.704 380.394 530.4C379.658 532.096 379.082 533.856 378.666 535.68C378.282 537.504 378.09 539.328 378.09 541.152V544.992C378.09 546.816 378.282 548.64 378.666 550.464C379.082 552.288 379.658 554.048 380.394 555.744C381.13 557.44 382.026 559.04 383.082 560.544C384.138 562.08 385.322 563.44 386.634 564.624H381.69C380.474 563.6 379.338 562.336 378.282 560.832C377.258 559.328 376.362 557.648 375.594 555.792C374.826 553.936 374.218 551.936 373.77 549.792C373.354 547.648 373.146 545.408 373.146 543.072ZM398.919 539.472L395.223 532.368H395.079V558H389.895V524.496H395.943L406.887 543.024L410.583 550.128H410.727V524.496H415.911V558H409.863L398.919 539.472ZM432.657 543.072C432.657 545.408 432.433 547.648 431.985 549.792C431.569 551.936 430.977 553.936 430.209 555.792C429.441 557.648 428.529 559.328 427.473 560.832C426.449 562.336 425.329 563.6 424.113 564.624H419.169C420.481 563.44 421.665 562.08 422.721 560.544C423.777 559.04 424.673 557.44 425.409 555.744C426.145 554.048 426.705 552.288 427.089 550.464C427.505 548.64 427.713 546.816 427.713 544.992V541.152C427.713 539.328 427.505 537.504 427.089 535.68C426.705 533.856 426.145 532.096 425.409 530.4C424.673 528.704 423.777 527.104 422.721 525.6C421.665 524.096 420.481 522.736 419.169 521.52H424.113C425.329 522.544 426.449 523.808 427.473 525.312C428.529 526.816 429.441 528.496 430.209 530.352C430.977 532.208 431.569 534.208 431.985 536.352C432.433 538.496 432.657 540.736 432.657 543.072Z" fill="#4B90F3"/>
<path d="M627.624 300.882L625.626 303.121L625.626 303.121L627.624 300.882ZM632.391 329.806L634.894 331.46L634.894 331.46L632.391 329.806ZM586.729 333.89L611.179 358.429L620.206 324.985L586.729 333.89ZM586.066 312.319C592.022 306.664 599.573 302.029 606.88 300.043C614.175 298.06 620.783 298.798 625.626 303.121L629.621 298.644C622.741 292.505 613.774 291.951 605.306 294.253C596.851 296.551 588.452 301.779 581.934 307.969L586.066 312.319ZM625.626 303.121C634.928 311.421 634.323 321.441 629.888 328.152L634.894 331.46C640.817 322.498 641.35 309.11 629.621 298.644L625.626 303.121ZM629.888 328.152C626.548 333.205 620.838 337.361 612.589 337.933L613.004 343.918C623.263 343.207 630.608 337.945 634.894 331.46L629.888 328.152Z" fill="#4B90F3"/>
<rect x="495" y="276" width="90" height="90" rx="45" stroke="#4B90F3" stroke-width="6"/>
<path d="M552.412 338H527.596V333.152L545.788 309.296H528.556V304.496H551.884V309.344L533.692 333.2H552.412V338Z" fill="#4B90F3"/>
<path d="M407.624 300.882L405.626 303.121L405.626 303.121L407.624 300.882ZM412.391 329.806L414.894 331.46L414.894 331.46L412.391 329.806ZM366.729 333.89L391.179 358.429L400.206 324.985L366.729 333.89ZM366.066 312.319C372.022 306.664 379.573 302.029 386.88 300.043C394.175 298.06 400.783 298.798 405.626 303.121L409.621 298.644C402.741 292.505 393.774 291.951 385.306 294.253C376.851 296.551 368.452 301.779 361.934 307.969L366.066 312.319ZM405.626 303.121C414.928 311.421 414.323 321.441 409.888 328.152L414.894 331.46C420.817 322.498 421.35 309.11 409.621 298.644L405.626 303.121ZM409.888 328.152C406.548 333.205 400.838 337.361 392.589 337.933L393.004 343.918C403.263 343.207 410.608 337.945 414.894 331.46L409.888 328.152Z" fill="#4B90F3"/>
<rect x="275" y="276" width="90" height="90" rx="45" stroke="#4B90F3" stroke-width="6"/>
<path d="M317.236 338V324.8L305.716 304.496H311.908L320.068 319.424H320.212L328.324 304.496H334.276L322.66 324.704V338H317.236Z" fill="#4B90F3"/>
<path d="M187.624 300.882L185.626 303.121L185.626 303.121L187.624 300.882ZM192.391 329.806L194.894 331.46L194.894 331.46L192.391 329.806ZM146.729 333.89L171.179 358.429L180.206 324.985L146.729 333.89ZM146.066 312.319C152.022 306.664 159.573 302.029 166.88 300.043C174.175 298.06 180.783 298.798 185.626 303.121L189.621 298.644C182.741 292.505 173.774 291.951 165.306 294.253C156.851 296.551 148.452 301.779 141.934 307.969L146.066 312.319ZM185.626 303.121C194.928 311.421 194.323 321.441 189.888 328.152L194.894 331.46C200.817 322.498 201.35 309.11 189.621 298.644L185.626 303.121ZM189.888 328.152C186.548 333.205 180.838 337.361 172.589 337.933L173.004 343.918C183.263 343.207 190.608 337.945 194.894 331.46L189.888 328.152Z" fill="#4B90F3"/>
<rect x="55" y="276" width="90" height="90" rx="45" stroke="#4B90F3" stroke-width="6"/>
<path d="M114.336 338H107.952L99.8399 324.656H99.6959L91.6799 338H85.6799L96.5279 320.864L86.0639 304.496H92.4479L100.08 316.976H100.176L107.904 304.496H113.904L103.344 320.816L114.336 338Z" fill="#4B90F3"/>
<path d="M300.222 12.0173L302.402 14.0788L300.222 12.0173ZM329.9 7.89685L328.217 10.3804L329.9 7.89685ZM333.324 53.8063L358.422 29.9297L325.196 20.1325L333.324 53.8063ZM311.174 53.9548C305.478 47.8422 300.86 40.1555 298.949 32.7819C297.042 25.4249 297.906 18.8317 302.402 14.0788L298.043 9.95576C291.639 16.7259 290.923 25.7303 293.141 34.2871C295.354 42.8273 300.564 51.3704 306.784 58.0452L311.174 53.9548ZM302.402 14.0788C311.061 4.92411 321.367 5.73867 328.217 10.3804L331.583 5.41332C322.566 -0.696577 308.936 -1.56119 298.043 9.95576L302.402 14.0788ZM328.217 10.3804C333.378 13.8771 337.541 19.7417 337.964 28.0609L343.957 27.7557C343.428 17.3749 338.145 9.85954 331.583 5.41332L328.217 10.3804Z" fill="#4B90F3"/>
<rect x="168" y="56" width="304" height="90" rx="45" stroke="#4B90F3" stroke-width="6"/>
<path d="M224.555 118.576C222.763 118.576 221.163 118.272 219.755 117.664C218.347 117.056 217.147 116.192 216.155 115.072C215.163 113.92 214.395 112.544 213.851 110.944C213.339 109.312 213.083 107.504 213.083 105.52C213.083 103.536 213.339 101.744 213.851 100.144C214.395 98.512 215.163 97.136 216.155 96.016C217.147 94.864 218.347 93.984 219.755 93.376C221.163 92.768 222.763 92.464 224.555 92.464C226.379 92.464 227.979 92.784 229.355 93.424C230.763 94.064 231.931 94.96 232.859 96.112C233.787 97.232 234.475 98.544 234.923 100.048C235.403 101.552 235.643 103.168 235.643 104.896V106.864H218.507V107.68C218.507 109.6 219.067 111.184 220.187 112.432C221.339 113.648 222.971 114.256 225.083 114.256C226.619 114.256 227.915 113.92 228.971 113.248C230.027 112.576 230.923 111.664 231.659 110.512L234.731 113.536C233.803 115.072 232.459 116.304 230.699 117.232C228.939 118.128 226.891 118.576 224.555 118.576ZM224.555 96.544C223.659 96.544 222.827 96.704 222.059 97.024C221.323 97.344 220.683 97.792 220.139 98.368C219.627 98.944 219.227 99.632 218.939 100.432C218.651 101.232 218.507 102.112 218.507 103.072V103.408H230.123V102.928C230.123 101.008 229.627 99.472 228.635 98.32C227.643 97.136 226.283 96.544 224.555 96.544ZM262.843 120.352C262.843 122.944 261.851 124.896 259.867 126.208C257.883 127.52 254.651 128.176 250.171 128.176C248.123 128.176 246.379 128.032 244.939 127.744C243.531 127.488 242.363 127.104 241.435 126.592C240.539 126.08 239.883 125.456 239.467 124.72C239.051 123.984 238.843 123.136 238.843 122.176C238.843 120.8 239.211 119.728 239.947 118.96C240.715 118.192 241.771 117.664 243.115 117.376V116.848C241.227 116.24 240.283 114.96 240.283 113.008C240.283 111.728 240.715 110.752 241.579 110.08C242.443 109.376 243.483 108.88 244.699 108.592V108.4C243.227 107.696 242.091 106.72 241.291 105.472C240.523 104.192 240.139 102.704 240.139 101.008C240.139 98.448 240.987 96.384 242.683 94.816C244.411 93.248 246.875 92.464 250.075 92.464C251.835 92.464 253.339 92.72 254.587 93.232V92.56C254.587 91.44 254.843 90.576 255.355 89.968C255.899 89.328 256.731 89.008 257.851 89.008H261.691V93.232H256.603V94.24C257.723 94.976 258.587 95.936 259.195 97.12C259.803 98.272 260.107 99.568 260.107 101.008C260.107 103.536 259.243 105.584 257.515 107.152C255.787 108.688 253.323 109.456 250.123 109.456C248.907 109.456 247.819 109.328 246.859 109.072C246.219 109.296 245.659 109.616 245.179 110.032C244.699 110.416 244.459 110.928 244.459 111.568C244.459 112.24 244.763 112.72 245.371 113.008C245.979 113.296 246.843 113.44 247.963 113.44H254.107C257.179 113.44 259.403 114.064 260.779 115.312C262.155 116.528 262.843 118.208 262.843 120.352ZM257.947 120.928C257.947 120.064 257.611 119.376 256.939 118.864C256.299 118.352 255.115 118.096 253.387 118.096H244.939C243.787 118.768 243.211 119.728 243.211 120.976C243.211 122 243.611 122.816 244.411 123.424C245.243 124.064 246.635 124.384 248.587 124.384H251.851C255.915 124.384 257.947 123.232 257.947 120.928ZM250.123 105.664C251.659 105.664 252.843 105.328 253.675 104.656C254.539 103.952 254.971 102.88 254.971 101.44V100.48C254.971 99.04 254.539 97.984 253.675 97.312C252.843 96.608 251.659 96.256 250.123 96.256C248.587 96.256 247.387 96.608 246.523 97.312C245.691 97.984 245.275 99.04 245.275 100.48V101.44C245.275 102.88 245.691 103.952 246.523 104.656C247.387 105.328 248.587 105.664 250.123 105.664ZM266.257 118V93.04H271.489V97.84H271.729C272.081 96.56 272.817 95.44 273.937 94.48C275.057 93.52 276.609 93.04 278.593 93.04H279.985V98.08H277.921C275.841 98.08 274.241 98.416 273.121 99.088C272.033 99.76 271.489 100.752 271.489 102.064V118H266.257ZM293.709 118.576C291.917 118.576 290.317 118.272 288.909 117.664C287.501 117.056 286.301 116.192 285.309 115.072C284.317 113.92 283.549 112.544 283.005 110.944C282.493 109.312 282.237 107.504 282.237 105.52C282.237 103.536 282.493 101.744 283.005 100.144C283.549 98.512 284.317 97.136 285.309 96.016C286.301 94.864 287.501 93.984 288.909 93.376C290.317 92.768 291.917 92.464 293.709 92.464C295.533 92.464 297.133 92.784 298.509 93.424C299.917 94.064 301.085 94.96 302.013 96.112C302.941 97.232 303.629 98.544 304.077 100.048C304.557 101.552 304.797 103.168 304.797 104.896V106.864H287.661V107.68C287.661 109.6 288.221 111.184 289.341 112.432C290.493 113.648 292.125 114.256 294.237 114.256C295.773 114.256 297.069 113.92 298.125 113.248C299.181 112.576 300.077 111.664 300.813 110.512L303.885 113.536C302.957 115.072 301.613 116.304 299.853 117.232C298.093 118.128 296.045 118.576 293.709 118.576ZM293.709 96.544C292.813 96.544 291.981 96.704 291.213 97.024C290.477 97.344 289.837 97.792 289.293 98.368C288.781 98.944 288.381 99.632 288.093 100.432C287.805 101.232 287.661 102.112 287.661 103.072V103.408H299.277V102.928C299.277 101.008 298.781 99.472 297.789 98.32C296.797 97.136 295.437 96.544 293.709 96.544ZM318.029 118.576C315.661 118.576 313.677 118.16 312.077 117.328C310.477 116.496 309.085 115.344 307.901 113.872L311.261 110.8C312.189 111.92 313.213 112.8 314.333 113.44C315.485 114.048 316.813 114.352 318.317 114.352C319.853 114.352 320.989 114.064 321.725 113.488C322.493 112.88 322.877 112.048 322.877 110.992C322.877 110.192 322.605 109.52 322.061 108.976C321.549 108.4 320.637 108.032 319.325 107.872L317.021 107.584C314.461 107.264 312.445 106.528 310.973 105.376C309.533 104.192 308.813 102.448 308.813 100.144C308.813 98.928 309.037 97.856 309.485 96.928C309.933 95.968 310.557 95.168 311.357 94.528C312.189 93.856 313.165 93.344 314.285 92.992C315.437 92.64 316.701 92.464 318.077 92.464C320.317 92.464 322.141 92.816 323.549 93.52C324.989 94.224 326.269 95.2 327.389 96.448L324.173 99.52C323.533 98.752 322.685 98.096 321.629 97.552C320.605 96.976 319.421 96.688 318.077 96.688C316.637 96.688 315.565 96.976 314.861 97.552C314.189 98.128 313.853 98.88 313.853 99.808C313.853 100.768 314.157 101.488 314.765 101.968C315.373 102.448 316.349 102.8 317.693 103.024L319.997 103.312C322.749 103.728 324.749 104.544 325.997 105.76C327.277 106.944 327.917 108.544 327.917 110.56C327.917 111.776 327.677 112.88 327.197 113.872C326.749 114.832 326.093 115.664 325.229 116.368C324.365 117.072 323.325 117.616 322.109 118C320.893 118.384 319.533 118.576 318.029 118.576ZM340.987 118.576C338.619 118.576 336.635 118.16 335.035 117.328C333.435 116.496 332.043 115.344 330.859 113.872L334.219 110.8C335.147 111.92 336.171 112.8 337.291 113.44C338.443 114.048 339.771 114.352 341.275 114.352C342.811 114.352 343.947 114.064 344.683 113.488C345.451 112.88 345.835 112.048 345.835 110.992C345.835 110.192 345.563 109.52 345.019 108.976C344.507 108.4 343.595 108.032 342.283 107.872L339.979 107.584C337.419 107.264 335.403 106.528 333.931 105.376C332.491 104.192 331.771 102.448 331.771 100.144C331.771 98.928 331.995 97.856 332.443 96.928C332.891 95.968 333.515 95.168 334.315 94.528C335.147 93.856 336.123 93.344 337.243 92.992C338.395 92.64 339.659 92.464 341.035 92.464C343.275 92.464 345.099 92.816 346.507 93.52C347.947 94.224 349.227 95.2 350.347 96.448L347.131 99.52C346.491 98.752 345.643 98.096 344.587 97.552C343.563 96.976 342.379 96.688 341.035 96.688C339.595 96.688 338.523 96.976 337.819 97.552C337.147 98.128 336.811 98.88 336.811 99.808C336.811 100.768 337.115 101.488 337.723 101.968C338.331 102.448 339.307 102.8 340.651 103.024L342.955 103.312C345.707 103.728 347.707 104.544 348.955 105.76C350.235 106.944 350.875 108.544 350.875 110.56C350.875 111.776 350.635 112.88 350.155 113.872C349.707 114.832 349.051 115.664 348.187 116.368C347.323 117.072 346.283 117.616 345.067 118C343.851 118.384 342.491 118.576 340.987 118.576ZM366.449 103.072C366.449 100.736 366.657 98.496 367.073 96.352C367.521 94.208 368.129 92.208 368.897 90.352C369.665 88.496 370.561 86.816 371.585 85.312C372.641 83.808 373.777 82.544 374.993 81.52H379.937C378.625 82.736 377.441 84.096 376.385 85.6C375.329 87.104 374.433 88.704 373.697 90.4C372.961 92.096 372.385 93.856 371.969 95.68C371.585 97.504 371.393 99.328 371.393 101.152V104.992C371.393 106.816 371.585 108.64 371.969 110.464C372.385 112.288 372.961 114.048 373.697 115.744C374.433 117.44 375.329 119.04 376.385 120.544C377.441 122.08 378.625 123.44 379.937 124.624H374.993C373.777 123.6 372.641 122.336 371.585 120.832C370.561 119.328 369.665 117.648 368.897 115.792C368.129 113.936 367.521 111.936 367.073 109.792C366.657 107.648 366.449 105.408 366.449 103.072ZM392.222 99.472L388.526 92.368H388.382V118H383.198V84.496H389.246L400.19 103.024L403.886 110.128H404.03V84.496H409.214V118H403.166L392.222 99.472ZM425.96 103.072C425.96 105.408 425.736 107.648 425.288 109.792C424.872 111.936 424.28 113.936 423.512 115.792C422.744 117.648 421.832 119.328 420.776 120.832C419.752 122.336 418.632 123.6 417.416 124.624H412.472C413.784 123.44 414.968 122.08 416.024 120.544C417.08 119.04 417.976 117.44 418.712 115.744C419.448 114.048 420.008 112.288 420.392 110.464C420.808 108.64 421.016 106.816 421.016 104.992V101.152C421.016 99.328 420.808 97.504 420.392 95.68C420.008 93.856 419.448 92.096 418.712 90.4C417.976 88.704 417.08 87.104 416.024 85.6C414.968 84.096 413.784 82.736 412.472 81.52H417.416C418.632 82.544 419.752 83.808 420.776 85.312C421.832 86.816 422.744 88.496 423.512 90.352C424.28 92.208 424.872 94.208 425.288 96.352C425.736 98.496 425.96 100.736 425.96 103.072Z" fill="#4B90F3"/>
</g>
<defs>
<clipPath id="clip0_30_108">
<rect width="640" height="589" fill="white"/>
</clipPath>
</defs>
</svg>
