<svg width="382" height="561" viewBox="0 0 382 561" fill="none" xmlns="http://www.w3.org/2000/svg">
<path d="M171.416 249L207 213M171 213L206.584 249" stroke="#F34B4B" stroke-width="12"/>
<path d="M262 484L257.736 467.213L245.33 479.299L262 484ZM109.926 330.047L112.023 332.199L114.172 330.106L112.074 327.953L109.926 330.047ZM116.217 336.505L120.412 340.811L122.561 338.717L118.366 334.412L116.217 336.505ZM124.606 345.116L128.801 349.422L130.949 347.328L126.755 343.023L124.606 345.116ZM132.995 353.727L137.189 358.033L139.338 355.939L135.144 351.634L132.995 353.727ZM141.384 362.338L145.578 366.644L147.727 364.551L143.533 360.245L141.384 362.338ZM149.773 370.949L153.967 375.255L156.116 373.162L151.922 368.856L149.773 370.949ZM158.162 379.561L162.356 383.866L164.505 381.773L160.311 377.467L158.162 379.561ZM166.551 388.172L170.745 392.477L172.894 390.384L168.699 386.078L166.551 388.172ZM174.939 396.783L179.134 401.088L181.283 398.995L177.088 394.689L174.939 396.783ZM183.328 405.394L187.523 409.699L189.672 407.606L185.477 403.301L183.328 405.394ZM191.717 414.005L195.912 418.311L198.061 416.217L193.866 411.912L191.717 414.005ZM200.106 422.616L204.301 426.922L206.449 424.828L202.255 420.523L200.106 422.616ZM208.495 431.227L212.689 435.533L214.838 433.439L210.644 429.134L208.495 431.227ZM216.884 439.838L221.078 444.144L223.227 442.051L219.033 437.745L216.884 439.838ZM225.273 448.449L229.467 452.755L231.616 450.662L227.422 446.356L225.273 448.449ZM233.662 457.061L237.856 461.366L240.005 459.273L235.811 454.967L233.662 457.061ZM242.051 465.672L246.245 469.977L248.394 467.884L244.199 463.578L242.051 465.672ZM250.439 474.283L254.634 478.588L256.783 476.495L252.588 472.189L250.439 474.283ZM262 484L253.472 450.425L228.659 474.598L262 484ZM108.851 331.093L110.948 333.246L115.246 329.059L113.149 326.907L108.851 331.093ZM115.143 337.552L119.337 341.857L123.635 337.67L119.441 333.365L115.143 337.552ZM123.532 346.163L127.726 350.468L132.024 346.282L127.829 341.976L123.532 346.163ZM131.921 354.774L136.115 359.08L140.413 354.893L136.218 350.587L131.921 354.774ZM140.309 363.385L144.504 367.691L148.802 363.504L144.607 359.198L140.309 363.385ZM148.698 371.996L152.893 376.302L157.191 372.115L152.996 367.809L148.698 371.996ZM157.087 380.607L161.282 384.913L165.579 380.726L161.385 376.42L157.087 380.607ZM165.476 389.218L169.671 393.524L173.968 389.337L169.774 385.032L165.476 389.218ZM173.865 397.83L178.059 402.135L182.357 397.948L178.163 393.643L173.865 397.83ZM182.254 406.441L186.448 410.746L190.746 406.559L186.552 402.254L182.254 406.441ZM190.643 415.052L194.837 419.357L199.135 415.17L194.941 410.865L190.643 415.052ZM199.032 423.663L203.226 427.968L207.524 423.782L203.329 419.476L199.032 423.663ZM207.421 432.274L211.615 436.58L215.913 432.393L211.718 428.087L207.421 432.274ZM215.809 440.885L220.004 445.191L224.302 441.004L220.107 436.698L215.809 440.885ZM224.198 449.496L228.393 453.802L232.691 449.615L228.496 445.309L224.198 449.496ZM232.587 458.107L236.782 462.413L241.079 458.226L236.885 453.92L232.587 458.107ZM240.976 466.718L245.171 471.024L249.468 466.837L245.274 462.532L240.976 466.718ZM249.365 475.33L253.559 479.635L257.857 475.448L253.663 471.143L249.365 475.33Z" fill="#2FE120"/>
<path d="M301 341L283.679 371H318.321L301 341ZM298 368V468H304V368H298Z" fill="#4B90F3"/>
<path d="M212 144.015L242 161.335L212 178.656L212 144.015ZM272.902 255.5L222.902 168.897L228.098 165.897L278.098 252.5L272.902 255.5Z" fill="#F34B4B"/>
<path d="M254 293L224 310.321V275.679L254 293ZM227 296H127V290H227V296Z" fill="#F34B4B"/>
<path d="M107 252L137 234.679L107 217.359L107 252ZM123.098 230.117L173.098 143.515L167.902 140.515L117.902 227.117L123.098 230.117Z" fill="#F34B4B"/>
<path d="M353.192 439.003L353.143 442.002L353.192 439.003ZM375.799 457.888L378.775 457.51L378.775 457.51L375.799 457.888ZM343.656 491L378.192 493.692L363.255 462.437L343.656 491ZM328.985 475.019C329.817 466.798 332.537 458.305 336.809 451.987C341.075 445.68 346.605 441.894 353.143 442.002L353.242 436.003C343.978 435.85 336.784 441.315 331.839 448.626C326.901 455.928 323.926 465.422 323.015 474.414L328.985 475.019ZM353.143 442.002C365.69 442.209 371.803 450.24 372.823 458.266L378.775 457.51C377.414 446.801 369.043 436.264 353.242 436.003L353.143 442.002ZM372.823 458.266C373.596 464.35 371.94 471.325 365.921 477.212L370.116 481.501C377.582 474.2 379.766 465.311 378.775 457.51L372.823 458.266Z" fill="#4B90F3"/>
<rect x="256" y="468" width="90" height="90" rx="45" stroke="#4B90F3" stroke-width="6"/>
<path d="M288.745 496.496H300.601C302.745 496.496 304.681 496.848 306.409 497.552C308.169 498.256 309.657 499.312 310.873 500.72C312.121 502.096 313.081 503.84 313.753 505.952C314.425 508.032 314.761 510.464 314.761 513.248C314.761 516.032 314.425 518.48 313.753 520.592C313.081 522.672 312.121 524.416 310.873 525.824C309.657 527.2 308.169 528.24 306.409 528.944C304.681 529.648 302.745 530 300.601 530H288.745V496.496ZM300.601 525.2C303.097 525.2 305.113 524.416 306.649 522.848C308.185 521.28 308.953 518.976 308.953 515.936V510.56C308.953 507.52 308.185 505.216 306.649 503.648C305.113 502.08 303.097 501.296 300.601 501.296H294.169V525.2H300.601Z" fill="#4B90F3"/>
<path d="M353.192 219.003L353.143 222.002L353.192 219.003ZM375.799 237.888L378.775 237.51L378.775 237.51L375.799 237.888ZM343.656 271L378.192 273.692L363.255 242.437L343.656 271ZM328.985 255.019C329.817 246.798 332.537 238.305 336.809 231.987C341.075 225.68 346.605 221.894 353.143 222.002L353.242 216.003C343.978 215.85 336.784 221.315 331.839 228.626C326.901 235.928 323.926 245.422 323.015 254.414L328.985 255.019ZM353.143 222.002C365.69 222.209 371.803 230.24 372.823 238.266L378.775 237.51C377.414 226.801 369.043 216.264 353.242 216.003L353.143 222.002ZM372.823 238.266C373.596 244.35 371.94 251.325 365.921 257.212L370.116 261.501C377.582 254.2 379.766 245.311 378.775 237.51L372.823 238.266Z" fill="#4B90F3"/>
<rect x="256" y="248" width="90" height="90" rx="45" stroke="#4B90F3" stroke-width="6"/>
<path d="M302.493 310.576C298.109 310.576 294.669 309.104 292.173 306.16C289.677 303.184 288.429 298.88 288.429 293.248C288.429 290.432 288.749 287.952 289.389 285.808C290.029 283.664 290.957 281.856 292.173 280.384C293.389 278.912 294.861 277.808 296.589 277.072C298.349 276.304 300.317 275.92 302.493 275.92C305.405 275.92 307.837 276.56 309.789 277.84C311.773 279.12 313.325 281.008 314.445 283.504L309.885 286C309.309 284.4 308.413 283.136 307.197 282.208C306.013 281.248 304.445 280.768 302.493 280.768C299.901 280.768 297.869 281.648 296.397 283.408C294.925 285.168 294.189 287.6 294.189 290.704V295.792C294.189 298.896 294.925 301.328 296.397 303.088C297.869 304.848 299.901 305.728 302.493 305.728C304.509 305.728 306.141 305.216 307.389 304.192C308.669 303.136 309.613 301.792 310.221 300.16L314.589 302.8C313.469 305.232 311.901 307.136 309.885 308.512C307.869 309.888 305.405 310.576 302.493 310.576Z" fill="#4B90F3"/>
<path d="M4.04795 245.419L7.04343 245.255L4.04795 245.419ZM21.4171 221.489L20.8299 218.547L20.8299 218.547L21.4171 221.489ZM57 251.2L57.1556 216.559L27.0781 233.745L57 251.2ZM41.9793 267.001C33.6497 266.761 24.911 264.655 18.2507 260.842C11.598 257.032 7.40185 251.782 7.04343 245.255L1.05246 245.584C1.56141 254.853 7.57349 261.642 15.2693 266.048C22.9574 270.451 32.7076 272.737 41.8066 272.999L41.9793 267.001ZM7.04343 245.255C6.6923 238.86 8.50018 234.098 11.258 230.745C14.0453 227.357 17.9424 225.242 22.0043 224.431L20.8299 218.547C15.5596 219.599 10.3832 222.364 6.6244 226.934C2.83621 231.539 0.625582 237.81 1.05246 245.584L7.04343 245.255ZM22.0043 224.431C28.0931 223.216 35.254 224.38 41.6188 230.005L45.5923 225.51C37.7106 218.543 28.6054 216.995 20.8299 218.547L22.0043 224.431Z" fill="#4B90F3"/>
<rect x="36" y="248" width="90" height="90" rx="45" stroke="#4B90F3" stroke-width="6"/>
<path d="M69.3077 276.496H84.1397C86.9237 276.496 89.0997 277.28 90.6677 278.848C92.2677 280.416 93.0677 282.512 93.0677 285.136C93.0677 286.384 92.8917 287.456 92.5397 288.352C92.1877 289.216 91.7397 289.936 91.1957 290.512C90.6517 291.056 90.0277 291.472 89.3237 291.76C88.6197 292.016 87.9317 292.176 87.2597 292.24V292.528C87.9317 292.56 88.6677 292.72 89.4677 293.008C90.2997 293.296 91.0677 293.76 91.7717 294.4C92.4757 295.008 93.0677 295.808 93.5477 296.8C94.0277 297.76 94.2677 298.944 94.2677 300.352C94.2677 301.696 94.0437 302.96 93.5957 304.144C93.1797 305.328 92.5877 306.352 91.8197 307.216C91.0517 308.08 90.1397 308.768 89.0837 309.28C88.0277 309.76 86.8757 310 85.6277 310H69.3077V276.496ZM74.7317 305.344H84.0437C85.4517 305.344 86.5557 304.976 87.3557 304.24C88.1557 303.504 88.5557 302.448 88.5557 301.072V299.44C88.5557 298.064 88.1557 297.008 87.3557 296.272C86.5557 295.536 85.4517 295.168 84.0437 295.168H74.7317V305.344ZM74.7317 290.656H83.1317C84.4757 290.656 85.5157 290.32 86.2517 289.648C86.9877 288.944 87.3557 287.952 87.3557 286.672V285.136C87.3557 283.856 86.9877 282.88 86.2517 282.208C85.5157 281.504 84.4757 281.152 83.1317 281.152H74.7317V290.656Z" fill="#4B90F3"/>
<path d="M171.152 12.0738L173.352 14.1127L171.152 12.0738ZM200.428 7.9243L198.722 10.3915L200.428 7.9243ZM203.806 54.1571L228.816 30.1883L195.554 20.5135L203.806 54.1571ZM182.006 54.3438C176.388 48.1893 171.827 40.4433 169.938 33.0044C168.052 25.5739 168.909 18.9079 173.352 14.1127L168.951 10.0348C162.642 16.8438 161.941 25.8853 164.123 34.4807C166.303 43.0676 171.437 51.6659 177.574 58.3889L182.006 54.3438ZM173.352 14.1127C177.705 9.41511 182.385 7.404 186.712 7.05601C191.086 6.70431 195.315 8.0352 198.722 10.3915L202.135 5.45706C197.715 2.39973 192.129 0.601029 186.231 1.07532C180.288 1.55332 174.243 4.32377 168.951 10.0348L173.352 14.1127ZM198.722 10.3915C203.828 13.9237 207.969 19.8807 208.35 28.3667L214.344 28.0979C213.873 17.5893 208.656 9.96773 202.135 5.45706L198.722 10.3915Z" fill="#4B90F3"/>
<rect x="146" y="56" width="90" height="90" rx="45" stroke="#4B90F3" stroke-width="6"/>
<path d="M200.165 115L197.141 105.928H184.613L181.685 115H176.165L187.589 81.496H194.405L205.829 115H200.165ZM190.997 86.488H190.757L185.909 101.272H195.797L190.997 86.488Z" fill="#4B90F3"/>
</svg>
