<svg width="1468" height="863" viewBox="0 0 1468 863" fill="none" xmlns="http://www.w3.org/2000/svg">
<path d="M896 503L885.471 489.247L878.825 505.242L896 503ZM513.67 504.342C514.586 503.885 515.499 503.431 516.409 502.98L515.078 500.291C514.164 500.744 513.248 501.199 512.33 501.658L513.67 504.342ZM521.846 500.311C523.658 499.429 525.462 498.559 527.257 497.702L525.964 494.995C524.163 495.856 522.352 496.728 520.533 497.613L521.846 500.311ZM532.752 495.104C534.575 494.252 536.388 493.412 538.193 492.586L536.944 489.858C535.132 490.688 533.311 491.531 531.481 492.387L532.752 495.104ZM543.733 490.078C545.575 489.254 547.408 488.444 549.233 487.649L548.033 484.899C546.2 485.698 544.359 486.512 542.508 487.339L543.733 490.078ZM554.799 485.253C556.659 484.463 558.512 483.689 560.355 482.928L559.212 480.155C557.358 480.919 555.497 481.698 553.627 482.492L554.799 485.253ZM565.957 480.655C567.836 479.904 569.706 479.17 571.569 478.451L570.489 475.652C568.615 476.375 566.733 477.114 564.844 477.869L565.957 480.655ZM577.214 476.311C579.11 475.605 580.998 474.916 582.88 474.244L581.87 471.419C579.976 472.096 578.076 472.789 576.168 473.499L577.214 476.311ZM588.575 472.25C590.487 471.596 592.392 470.958 594.291 470.338L593.36 467.486C591.447 468.111 589.528 468.753 587.603 469.412L588.575 472.25ZM600.04 468.507C601.968 467.908 603.89 467.328 605.806 466.765L604.961 463.887C603.03 464.454 601.093 465.039 599.151 465.641L600.04 468.507ZM611.61 465.112C613.553 464.576 615.49 464.058 617.423 463.559L616.673 460.655C614.724 461.158 612.77 461.68 610.812 462.221L611.61 465.112ZM623.281 462.101C625.237 461.631 627.189 461.182 629.138 460.751L628.491 457.822C626.524 458.256 624.555 458.71 622.581 459.183L623.281 462.101ZM635.046 459.503C637.016 459.105 638.983 458.728 640.949 458.37L640.411 455.418C638.427 455.78 636.441 456.161 634.453 456.562L635.046 459.503ZM646.895 457.346C648.879 457.025 650.862 456.723 652.843 456.442L652.422 453.472C650.421 453.756 648.419 454.06 646.415 454.385L646.895 457.346ZM658.817 455.655C660.812 455.413 662.805 455.191 664.8 454.99L664.499 452.005C662.484 452.208 660.47 452.433 658.456 452.677L658.817 455.655ZM670.797 454.446C672.798 454.285 674.799 454.145 676.802 454.025L676.623 451.031C674.6 451.152 672.578 451.293 670.557 451.456L670.797 454.446ZM682.819 453.728C684.821 453.649 686.825 453.591 688.833 453.554L688.777 450.554C686.749 450.592 684.724 450.651 682.702 450.73L682.819 453.728ZM694.862 453.502C696.862 453.505 698.866 453.528 700.875 453.571L700.939 450.572C698.911 450.528 696.887 450.505 694.867 450.502L694.862 453.502ZM706.9 453.76C708.898 453.842 710.901 453.944 712.91 454.066L713.091 451.071C711.063 450.949 709.041 450.846 707.024 450.763L706.9 453.76ZM718.921 454.487C720.914 454.646 722.914 454.823 724.922 455.02L725.214 452.034C723.189 451.836 721.171 451.657 719.159 451.497L718.921 454.487ZM730.909 455.661C732.897 455.892 734.892 456.141 736.896 456.409L737.293 453.435C735.273 453.165 733.26 452.914 731.255 452.681L730.909 455.661ZM742.853 457.256C744.833 457.554 746.822 457.87 748.82 458.204L749.314 455.245C747.301 454.909 745.296 454.59 743.3 454.289L742.853 457.256ZM754.743 459.242C756.714 459.602 758.694 459.98 760.684 460.375L761.268 457.432C759.264 457.035 757.269 456.654 755.283 456.291L754.743 459.242ZM766.572 461.587C768.532 462.005 770.502 462.439 772.482 462.889L773.147 459.964C771.154 459.511 769.171 459.074 767.197 458.653L766.572 461.587ZM778.336 464.261C780.283 464.73 782.241 465.215 784.209 465.715L784.948 462.807C782.968 462.304 780.999 461.816 779.039 461.344L778.336 464.261ZM790.034 467.232C791.968 467.748 793.911 468.278 795.865 468.822L796.671 465.932C794.706 465.385 792.752 464.852 790.807 464.333L790.034 467.232ZM801.669 470.473C803.586 471.029 805.514 471.599 807.453 472.183L808.318 469.31C806.37 468.723 804.432 468.151 802.505 467.592L801.669 470.473ZM813.244 473.956C815.144 474.548 817.055 475.153 818.977 475.771L819.895 472.915C817.965 472.294 816.045 471.687 814.136 471.092L813.244 473.956ZM824.765 477.659C826.647 478.282 828.54 478.917 830.443 479.564L831.409 476.724C829.498 476.074 827.598 475.437 825.708 474.811L824.765 477.659ZM836.186 481.542C838.067 482.197 839.959 482.864 841.861 483.543L842.869 480.717C840.96 480.036 839.062 479.367 837.174 478.709L836.186 481.542ZM847.545 485.593C849.433 486.281 851.331 486.98 853.24 487.69L854.286 484.878C852.371 484.166 850.466 483.465 848.573 482.775L847.545 485.593ZM858.862 489.801C860.747 490.516 862.643 491.24 864.55 491.976L865.629 489.177C863.717 488.439 861.816 487.712 859.925 486.996L858.862 489.801ZM870.15 494.153C872.013 494.884 873.887 495.624 875.771 496.374L876.881 493.586C874.992 492.834 873.113 492.092 871.245 491.36L870.15 494.153ZM881.421 498.638C883.262 499.382 885.113 500.134 886.974 500.896L888.11 498.119C886.245 497.356 884.389 496.602 882.544 495.857L881.421 498.638ZM896 503L874.942 475.494L861.65 507.484L896 503ZM514.34 505.684C515.254 505.228 516.166 504.774 517.075 504.324L514.412 498.947C513.497 499.4 512.58 499.857 511.66 500.316L514.34 505.684ZM522.502 501.66C524.312 500.779 526.112 499.911 527.903 499.056L525.318 493.642C523.513 494.504 521.699 495.378 519.877 496.265L522.502 501.66ZM533.388 496.463C535.207 495.612 537.017 494.774 538.818 493.949L536.32 488.494C534.503 489.326 532.678 490.171 530.845 491.029L533.388 496.463ZM544.346 491.447C546.183 490.625 548.012 489.817 549.833 489.023L547.434 483.524C545.596 484.325 543.75 485.141 541.896 485.97L544.346 491.447ZM555.385 486.634C557.241 485.846 559.088 485.073 560.927 484.315L558.64 478.768C556.782 479.534 554.915 480.315 553.041 481.111L555.385 486.634ZM566.513 482.048C568.387 481.3 570.252 480.567 572.109 479.85L569.948 474.253C568.069 474.978 566.182 475.719 564.288 476.476L566.513 482.048ZM577.737 477.716C579.627 477.013 581.509 476.326 583.385 475.656L581.365 470.006C579.465 470.685 577.559 471.381 575.645 472.093L577.737 477.716ZM589.06 473.67C590.966 473.017 592.865 472.382 594.757 471.764L592.894 466.06C590.975 466.687 589.049 467.331 587.117 467.993L589.06 473.67ZM600.485 469.939C602.405 469.343 604.32 468.765 606.229 468.205L604.539 462.448C602.6 463.017 600.656 463.604 598.706 464.209L600.485 469.939ZM612.009 466.558C613.944 466.024 615.873 465.509 617.798 465.012L616.298 459.202C614.341 459.708 612.379 460.232 610.413 460.775L612.009 466.558ZM623.631 463.559C625.578 463.092 627.522 462.644 629.462 462.216L628.167 456.357C626.192 456.793 624.214 457.249 622.232 457.725L623.631 463.559ZM635.342 460.973C637.303 460.578 639.261 460.202 641.217 459.846L640.142 453.943C638.149 454.306 636.154 454.689 634.156 455.091L635.342 460.973ZM647.135 458.827C649.11 458.507 651.082 458.207 653.054 457.927L652.211 451.987C650.2 452.272 648.188 452.578 646.175 452.904L647.135 458.827ZM658.998 457.144C660.982 456.903 662.966 456.683 664.951 456.482L664.348 450.513C662.323 450.717 660.299 450.942 658.275 451.188L658.998 457.144ZM670.918 455.941C672.908 455.781 674.899 455.642 676.892 455.523L676.534 449.533C674.5 449.655 672.468 449.797 670.437 449.96L670.918 455.941ZM682.878 455.227C684.869 455.149 686.864 455.091 688.861 455.053L688.749 449.054C686.71 449.093 684.675 449.152 682.643 449.231L682.878 455.227ZM694.86 455.002C696.85 455.005 698.844 455.028 700.843 455.071L700.971 449.072C698.933 449.028 696.899 449.005 694.869 449.002L694.86 455.002ZM706.839 455.259C708.827 455.341 710.82 455.442 712.819 455.563L713.182 449.574C711.144 449.451 709.112 449.347 707.086 449.264L706.839 455.259ZM718.802 455.982C720.786 456.14 722.777 456.317 724.775 456.513L725.361 450.542C723.326 450.342 721.299 450.162 719.278 450.001L718.802 455.982ZM730.736 457.151C732.715 457.381 734.702 457.629 736.697 457.896L737.492 451.949C735.463 451.678 733.442 451.425 731.428 451.191L730.736 457.151ZM742.629 458.739C744.602 459.036 746.583 459.351 748.572 459.684L749.562 453.766C747.54 453.428 745.528 453.108 743.523 452.806L742.629 458.739ZM754.473 460.717C756.436 461.077 758.409 461.453 760.392 461.846L761.56 455.961C759.548 455.562 757.546 455.18 755.553 454.815L754.473 460.717ZM766.259 463.054C768.212 463.47 770.175 463.903 772.149 464.352L773.479 458.501C771.48 458.046 769.49 457.608 767.51 457.186L766.259 463.054ZM777.984 465.719C779.926 466.187 781.877 466.67 783.839 467.169L785.317 461.354C783.332 460.849 781.356 460.36 779.39 459.886L777.984 465.719ZM789.648 468.681C791.576 469.195 793.514 469.724 795.463 470.267L797.073 464.487C795.103 463.938 793.144 463.404 791.194 462.884L789.648 468.681ZM801.251 471.913C803.164 472.468 805.087 473.037 807.021 473.619L808.75 467.874C806.797 467.286 804.855 466.712 802.923 466.151L801.251 471.913ZM812.798 475.388C814.694 475.979 816.6 476.583 818.518 477.199L820.354 471.487C818.419 470.865 816.496 470.256 814.582 469.66L812.798 475.388ZM824.294 479.083C826.172 479.705 828.061 480.339 829.96 480.984L831.892 475.304C829.977 474.653 828.073 474.014 826.179 473.387L824.294 479.083ZM835.693 482.958C837.57 483.612 839.458 484.278 841.357 484.956L843.373 479.305C841.461 478.622 839.559 477.952 837.668 477.292L835.693 482.958ZM847.031 487.002C848.916 487.689 850.811 488.387 852.717 489.096L854.809 483.473C852.891 482.759 850.983 482.057 849.086 481.365L847.031 487.002ZM858.331 491.204C860.213 491.917 862.106 492.641 864.01 493.375L866.169 487.777C864.254 487.039 862.35 486.311 860.457 485.593L858.331 491.204ZM869.603 495.55C871.463 496.279 873.335 497.018 875.217 497.767L877.435 492.193C875.544 491.44 873.663 490.697 871.792 489.964L869.603 495.55ZM880.859 500.029C882.698 500.772 884.547 501.523 886.406 502.284L888.678 496.731C886.81 495.966 884.953 495.212 883.106 494.466L880.859 500.029Z" fill="#14BF06"/>
<path d="M709 149L691.565 178.934L726.206 179.066L709 149ZM758 571L760.738 569.775L760.738 569.775L758 571ZM705.897 175.979C704.986 308.607 699.514 447.634 755.262 572.225L760.738 569.775C705.638 446.631 710.983 309.107 711.897 176.021L705.897 175.979ZM755.262 572.225C811.685 698.327 904.45 764 996 764L996 758C907.55 758 816.536 694.477 760.738 569.775L755.262 572.225Z" fill="#4B90F3"/>
<path d="M594 101.001L563.798 84.0352L564.206 118.674L594 101.001ZM359 274.001C359.001 210.358 395.153 166.777 440.623 137.523L437.377 132.477C390.846 162.413 353.001 207.643 353 274.001L359 274.001ZM440.623 137.523C479.52 112.498 515.117 105.726 567.089 104.318L566.927 98.3201C514.386 99.744 477.556 106.627 437.377 132.477L440.623 137.523Z" fill="#4B90F3"/>
<path d="M1341.29 580.225L1309.26 593.408L1336.69 614.559L1341.29 580.225ZM1322.43 599.776L1234.51 713.82L1239.26 717.483L1327.18 603.439L1322.43 599.776Z" fill="#4B90F3"/>
<path d="M1149 589L1131.68 619H1166.32L1149 589ZM1146 616V716H1152V616H1146Z" fill="#4B90F3"/>
<path d="M957 580.225L989.034 593.408L961.599 614.559L957 580.225ZM975.861 599.776L1063.78 713.82L1059.03 717.483L971.109 603.439L975.861 599.776Z" fill="#4B90F3"/>
<path d="M1237 364.039L1269.03 377.223L1241.6 398.373L1237 364.039ZM1255.86 383.59L1346.48 501.13L1341.72 504.793L1251.11 387.254L1255.86 383.59Z" fill="#4B90F3"/>
<path d="M1149 369L1131.68 399H1166.32L1149 369ZM1146 396V496H1152V396H1146Z" fill="#4B90F3"/>
<path d="M1060.05 364.039L1028.02 377.223L1055.45 398.373L1060.05 364.039ZM1041.19 383.59L950.574 501.13L955.326 504.793L1045.94 387.254L1041.19 383.59Z" fill="#4B90F3"/>
<path d="M1168.23 851.293L1166.03 849.254L1168.23 851.293ZM1138.95 855.442L1140.66 852.975L1138.95 855.442ZM1135.57 809.209L1110.56 833.178L1143.83 842.853L1135.57 809.209ZM1157.37 809.023C1162.99 815.177 1167.55 822.923 1169.44 830.362C1171.33 837.792 1170.47 844.458 1166.03 849.254L1170.43 853.332C1176.74 846.522 1177.44 837.481 1175.26 828.886C1173.08 820.299 1167.94 811.7 1161.8 804.977L1157.37 809.023ZM1166.03 849.254C1161.67 853.951 1156.99 855.962 1152.67 856.31C1148.29 856.662 1144.06 855.331 1140.66 852.975L1137.24 857.909C1141.66 860.967 1147.25 862.765 1153.15 862.291C1159.09 861.813 1165.14 859.043 1170.43 853.332L1166.03 849.254ZM1140.66 852.975C1135.55 849.443 1131.41 843.486 1131.03 835L1125.04 835.268C1125.51 845.777 1130.72 853.399 1137.24 857.909L1140.66 852.975Z" fill="#4B90F3"/>
<rect x="997" y="716" width="304" height="90" rx="45" stroke="#4B90F3" stroke-width="6"/>
<path d="M1039.71 748.576C1038.62 748.576 1037.82 748.32 1037.31 747.808C1036.83 747.296 1036.59 746.64 1036.59 745.84V745.024C1036.59 744.224 1036.83 743.568 1037.31 743.056C1037.82 742.544 1038.62 742.288 1039.71 742.288C1040.79 742.288 1041.58 742.544 1042.06 743.056C1042.54 743.568 1042.78 744.224 1042.78 745.024V745.84C1042.78 746.64 1042.54 747.296 1042.06 747.808C1041.58 748.32 1040.79 748.576 1039.71 748.576ZM1037.07 753.04H1042.3V778H1037.07V753.04ZM1049.29 778V753.04H1054.52V757.168H1054.76C1055.31 755.824 1056.12 754.704 1057.21 753.808C1058.33 752.912 1059.85 752.464 1061.77 752.464C1064.33 752.464 1066.31 753.312 1067.72 755.008C1069.16 756.672 1069.88 759.056 1069.88 762.16V778H1064.65V762.832C1064.65 758.928 1063.08 756.976 1059.95 756.976C1059.27 756.976 1058.6 757.072 1057.93 757.264C1057.29 757.424 1056.71 757.68 1056.2 758.032C1055.69 758.384 1055.27 758.832 1054.95 759.376C1054.67 759.92 1054.52 760.56 1054.52 761.296V778H1049.29ZM1098.54 780.352C1098.54 782.944 1097.55 784.896 1095.56 786.208C1093.58 787.52 1090.35 788.176 1085.87 788.176C1083.82 788.176 1082.08 788.032 1080.64 787.744C1079.23 787.488 1078.06 787.104 1077.13 786.592C1076.24 786.08 1075.58 785.456 1075.16 784.72C1074.75 783.984 1074.54 783.136 1074.54 782.176C1074.54 780.8 1074.91 779.728 1075.64 778.96C1076.41 778.192 1077.47 777.664 1078.81 777.376V776.848C1076.92 776.24 1075.98 774.96 1075.98 773.008C1075.98 771.728 1076.41 770.752 1077.28 770.08C1078.14 769.376 1079.18 768.88 1080.4 768.592V768.4C1078.92 767.696 1077.79 766.72 1076.99 765.472C1076.22 764.192 1075.84 762.704 1075.84 761.008C1075.84 758.448 1076.68 756.384 1078.38 754.816C1080.11 753.248 1082.57 752.464 1085.77 752.464C1087.53 752.464 1089.04 752.72 1090.28 753.232V752.56C1090.28 751.44 1090.54 750.576 1091.05 749.968C1091.6 749.328 1092.43 749.008 1093.55 749.008H1097.39V753.232H1092.3V754.24C1093.42 754.976 1094.28 755.936 1094.89 757.12C1095.5 758.272 1095.8 759.568 1095.8 761.008C1095.8 763.536 1094.94 765.584 1093.21 767.152C1091.48 768.688 1089.02 769.456 1085.82 769.456C1084.6 769.456 1083.52 769.328 1082.56 769.072C1081.92 769.296 1081.36 769.616 1080.88 770.032C1080.4 770.416 1080.16 770.928 1080.16 771.568C1080.16 772.24 1080.46 772.72 1081.07 773.008C1081.68 773.296 1082.54 773.44 1083.66 773.44H1089.8C1092.88 773.44 1095.1 774.064 1096.48 775.312C1097.85 776.528 1098.54 778.208 1098.54 780.352ZM1093.64 780.928C1093.64 780.064 1093.31 779.376 1092.64 778.864C1092 778.352 1090.81 778.096 1089.08 778.096H1080.64C1079.48 778.768 1078.91 779.728 1078.91 780.976C1078.91 782 1079.31 782.816 1080.11 783.424C1080.94 784.064 1082.33 784.384 1084.28 784.384H1087.55C1091.61 784.384 1093.64 783.232 1093.64 780.928ZM1085.82 765.664C1087.36 765.664 1088.54 765.328 1089.37 764.656C1090.24 763.952 1090.67 762.88 1090.67 761.44V760.48C1090.67 759.04 1090.24 757.984 1089.37 757.312C1088.54 756.608 1087.36 756.256 1085.82 756.256C1084.28 756.256 1083.08 756.608 1082.22 757.312C1081.39 757.984 1080.97 759.04 1080.97 760.48V761.44C1080.97 762.88 1081.39 763.952 1082.22 764.656C1083.08 765.328 1084.28 765.664 1085.82 765.664ZM1101.95 778V753.04H1107.19V757.84H1107.43C1107.78 756.56 1108.51 755.44 1109.63 754.48C1110.75 753.52 1112.31 753.04 1114.29 753.04H1115.68V758.08H1113.62C1111.54 758.08 1109.94 758.416 1108.82 759.088C1107.73 759.76 1107.19 760.752 1107.19 762.064V778H1101.95ZM1129.41 778.576C1127.61 778.576 1126.01 778.272 1124.61 777.664C1123.2 777.056 1122 776.192 1121.01 775.072C1120.01 773.92 1119.25 772.544 1118.7 770.944C1118.19 769.312 1117.93 767.504 1117.93 765.52C1117.93 763.536 1118.19 761.744 1118.7 760.144C1119.25 758.512 1120.01 757.136 1121.01 756.016C1122 754.864 1123.2 753.984 1124.61 753.376C1126.01 752.768 1127.61 752.464 1129.41 752.464C1131.23 752.464 1132.83 752.784 1134.21 753.424C1135.61 754.064 1136.78 754.96 1137.71 756.112C1138.64 757.232 1139.33 758.544 1139.77 760.048C1140.25 761.552 1140.49 763.168 1140.49 764.896V766.864H1123.36V767.68C1123.36 769.6 1123.92 771.184 1125.04 772.432C1126.19 773.648 1127.82 774.256 1129.93 774.256C1131.47 774.256 1132.77 773.92 1133.82 773.248C1134.88 772.576 1135.77 771.664 1136.51 770.512L1139.58 773.536C1138.65 775.072 1137.31 776.304 1135.55 777.232C1133.79 778.128 1131.74 778.576 1129.41 778.576ZM1129.41 756.544C1128.51 756.544 1127.68 756.704 1126.91 757.024C1126.17 757.344 1125.53 757.792 1124.99 758.368C1124.48 758.944 1124.08 759.632 1123.79 760.432C1123.5 761.232 1123.36 762.112 1123.36 763.072V763.408H1134.97V762.928C1134.97 761.008 1134.48 759.472 1133.49 758.32C1132.49 757.136 1131.13 756.544 1129.41 756.544ZM1153.73 778.576C1151.36 778.576 1149.37 778.16 1147.77 777.328C1146.17 776.496 1144.78 775.344 1143.6 773.872L1146.96 770.8C1147.89 771.92 1148.91 772.8 1150.03 773.44C1151.18 774.048 1152.51 774.352 1154.01 774.352C1155.55 774.352 1156.69 774.064 1157.42 773.488C1158.19 772.88 1158.57 772.048 1158.57 770.992C1158.57 770.192 1158.3 769.52 1157.76 768.976C1157.25 768.4 1156.33 768.032 1155.02 767.872L1152.72 767.584C1150.16 767.264 1148.14 766.528 1146.67 765.376C1145.23 764.192 1144.51 762.448 1144.51 760.144C1144.51 758.928 1144.73 757.856 1145.18 756.928C1145.63 755.968 1146.25 755.168 1147.05 754.528C1147.89 753.856 1148.86 753.344 1149.98 752.992C1151.13 752.64 1152.4 752.464 1153.77 752.464C1156.01 752.464 1157.84 752.816 1159.25 753.52C1160.69 754.224 1161.97 755.2 1163.09 756.448L1159.87 759.52C1159.23 758.752 1158.38 758.096 1157.33 757.552C1156.3 756.976 1155.12 756.688 1153.77 756.688C1152.33 756.688 1151.26 756.976 1150.56 757.552C1149.89 758.128 1149.55 758.88 1149.55 759.808C1149.55 760.768 1149.85 761.488 1150.46 761.968C1151.07 762.448 1152.05 762.8 1153.39 763.024L1155.69 763.312C1158.45 763.728 1160.45 764.544 1161.69 765.76C1162.97 766.944 1163.61 768.544 1163.61 770.56C1163.61 771.776 1163.37 772.88 1162.89 773.872C1162.45 774.832 1161.79 775.664 1160.93 776.368C1160.06 777.072 1159.02 777.616 1157.81 778C1156.59 778.384 1155.23 778.576 1153.73 778.576ZM1176.68 778.576C1174.32 778.576 1172.33 778.16 1170.73 777.328C1169.13 776.496 1167.74 775.344 1166.56 773.872L1169.92 770.8C1170.84 771.92 1171.87 772.8 1172.99 773.44C1174.14 774.048 1175.47 774.352 1176.97 774.352C1178.51 774.352 1179.64 774.064 1180.38 773.488C1181.15 772.88 1181.53 772.048 1181.53 770.992C1181.53 770.192 1181.26 769.52 1180.72 768.976C1180.2 768.4 1179.29 768.032 1177.98 767.872L1175.68 767.584C1173.12 767.264 1171.1 766.528 1169.63 765.376C1168.19 764.192 1167.47 762.448 1167.47 760.144C1167.47 758.928 1167.69 757.856 1168.14 756.928C1168.59 755.968 1169.21 755.168 1170.01 754.528C1170.84 753.856 1171.82 753.344 1172.94 752.992C1174.09 752.64 1175.36 752.464 1176.73 752.464C1178.97 752.464 1180.8 752.816 1182.2 753.52C1183.64 754.224 1184.92 755.2 1186.04 756.448L1182.83 759.52C1182.19 758.752 1181.34 758.096 1180.28 757.552C1179.26 756.976 1178.08 756.688 1176.73 756.688C1175.29 756.688 1174.22 756.976 1173.52 757.552C1172.84 758.128 1172.51 758.88 1172.51 759.808C1172.51 760.768 1172.81 761.488 1173.42 761.968C1174.03 762.448 1175 762.8 1176.35 763.024L1178.65 763.312C1181.4 763.728 1183.4 764.544 1184.65 765.76C1185.93 766.944 1186.57 768.544 1186.57 770.56C1186.57 771.776 1186.33 772.88 1185.85 773.872C1185.4 774.832 1184.75 775.664 1183.88 776.368C1183.02 777.072 1181.98 777.616 1180.76 778C1179.55 778.384 1178.19 778.576 1176.68 778.576ZM1202.15 763.072C1202.15 760.736 1202.35 758.496 1202.77 756.352C1203.22 754.208 1203.83 752.208 1204.59 750.352C1205.36 748.496 1206.26 746.816 1207.28 745.312C1208.34 743.808 1209.47 742.544 1210.69 741.52H1215.63C1214.32 742.736 1213.14 744.096 1212.08 745.6C1211.03 747.104 1210.13 748.704 1209.39 750.4C1208.66 752.096 1208.08 753.856 1207.67 755.68C1207.28 757.504 1207.09 759.328 1207.09 761.152V764.992C1207.09 766.816 1207.28 768.64 1207.67 770.464C1208.08 772.288 1208.66 774.048 1209.39 775.744C1210.13 777.44 1211.03 779.04 1212.08 780.544C1213.14 782.08 1214.32 783.44 1215.63 784.624H1210.69C1209.47 783.6 1208.34 782.336 1207.28 780.832C1206.26 779.328 1205.36 777.648 1204.59 775.792C1203.83 773.936 1203.22 771.936 1202.77 769.792C1202.35 767.648 1202.15 765.408 1202.15 763.072ZM1227.92 759.472L1224.22 752.368H1224.08V778H1218.9V744.496H1224.94L1235.89 763.024L1239.58 770.128H1239.73V744.496H1244.91V778H1238.86L1227.92 759.472ZM1261.66 763.072C1261.66 765.408 1261.43 767.648 1260.99 769.792C1260.57 771.936 1259.98 773.936 1259.21 775.792C1258.44 777.648 1257.53 779.328 1256.47 780.832C1255.45 782.336 1254.33 783.6 1253.11 784.624H1248.17C1249.48 783.44 1250.67 782.08 1251.72 780.544C1252.78 779.04 1253.67 777.44 1254.41 775.744C1255.15 774.048 1255.71 772.288 1256.09 770.464C1256.51 768.64 1256.71 766.816 1256.71 764.992V761.152C1256.71 759.328 1256.51 757.504 1256.09 755.68C1255.71 753.856 1255.15 752.096 1254.41 750.4C1253.67 748.704 1252.78 747.104 1251.72 745.6C1250.67 744.096 1249.48 742.736 1248.17 741.52H1253.11C1254.33 742.544 1255.45 743.808 1256.47 745.312C1257.53 746.816 1258.44 748.496 1259.21 750.352C1259.98 752.208 1260.57 754.208 1260.99 756.352C1261.43 758.496 1261.66 760.736 1261.66 763.072Z" fill="#4B90F3"/>
<path d="M1456.62 520.882L1454.63 523.121L1454.63 523.121L1456.62 520.882ZM1461.39 549.806L1463.89 551.46L1463.89 551.46L1461.39 549.806ZM1415.73 553.89L1440.18 578.429L1449.21 544.985L1415.73 553.89ZM1415.07 532.319C1421.02 526.664 1428.57 522.029 1435.88 520.043C1443.18 518.06 1449.78 518.798 1454.63 523.121L1458.62 518.644C1451.74 512.505 1442.77 511.951 1434.31 514.253C1425.85 516.551 1417.45 521.779 1410.93 527.969L1415.07 532.319ZM1454.63 523.121C1463.93 531.421 1463.32 541.441 1458.89 548.152L1463.89 551.46C1469.82 542.498 1470.35 529.11 1458.62 518.644L1454.63 523.121ZM1458.89 548.152C1455.55 553.205 1449.84 557.361 1441.59 557.933L1442 563.918C1452.26 563.207 1459.61 557.945 1463.89 551.46L1458.89 548.152Z" fill="#4B90F3"/>
<rect x="1324" y="496" width="90" height="90" rx="45" stroke="#4B90F3" stroke-width="6"/>
<path d="M1381.41 558H1356.6V553.152L1374.79 529.296H1357.56V524.496H1380.88V529.344L1362.69 553.2H1381.41V558Z" fill="#4B90F3"/>
<path d="M1236.62 520.882L1234.63 523.121L1234.63 523.121L1236.62 520.882ZM1241.39 549.806L1243.89 551.46L1243.89 551.46L1241.39 549.806ZM1195.73 553.89L1220.18 578.429L1229.21 544.985L1195.73 553.89ZM1195.07 532.319C1201.02 526.664 1208.57 522.029 1215.88 520.043C1223.18 518.06 1229.78 518.798 1234.63 523.121L1238.62 518.644C1231.74 512.505 1222.77 511.951 1214.31 514.253C1205.85 516.551 1197.45 521.779 1190.93 527.969L1195.07 532.319ZM1234.63 523.121C1243.93 531.421 1243.32 541.441 1238.89 548.152L1243.89 551.46C1249.82 542.498 1250.35 529.11 1238.62 518.644L1234.63 523.121ZM1238.89 548.152C1235.55 553.205 1229.84 557.361 1221.59 557.933L1222 563.918C1232.26 563.207 1239.61 557.945 1243.89 551.46L1238.89 548.152Z" fill="#4B90F3"/>
<rect x="1104" y="496" width="90" height="90" rx="45" stroke="#4B90F3" stroke-width="6"/>
<path d="M1146.24 558V544.8L1134.72 524.496H1140.91L1149.07 539.424H1149.21L1157.32 524.496H1163.28L1151.66 544.704V558H1146.24Z" fill="#4B90F3"/>
<path d="M1016.62 520.882L1014.63 523.121L1014.63 523.121L1016.62 520.882ZM1021.39 549.806L1023.89 551.46L1023.89 551.46L1021.39 549.806ZM975.729 553.89L1000.18 578.429L1009.21 544.985L975.729 553.89ZM975.066 532.319C981.022 526.664 988.573 522.029 995.88 520.043C1003.18 518.06 1009.78 518.798 1014.63 523.121L1018.62 518.644C1011.74 512.505 1002.77 511.951 994.306 514.253C985.851 516.551 977.452 521.779 970.934 527.969L975.066 532.319ZM1014.63 523.121C1023.93 531.421 1023.32 541.441 1018.89 548.152L1023.89 551.46C1029.82 542.498 1030.35 529.11 1018.62 518.644L1014.63 523.121ZM1018.89 548.152C1015.55 553.205 1009.84 557.361 1001.59 557.933L1002 563.918C1012.26 563.207 1019.61 557.945 1023.89 551.46L1018.89 548.152Z" fill="#4B90F3"/>
<rect x="884" y="496" width="90" height="90" rx="45" stroke="#4B90F3" stroke-width="6"/>
<path d="M943.336 558H936.952L928.84 544.656H928.696L920.68 558H914.68L925.528 540.864L915.064 524.496H921.448L929.08 536.976H929.176L936.904 524.496H942.904L932.344 540.816L943.336 558Z" fill="#4B90F3"/>
<path d="M1129.22 232.017L1131.4 234.079L1129.22 232.017ZM1158.9 227.897L1157.22 230.38L1158.9 227.897ZM1162.32 273.806L1187.42 249.93L1154.2 240.132L1162.32 273.806ZM1140.17 273.955C1134.48 267.842 1129.86 260.155 1127.95 252.782C1126.04 245.425 1126.91 238.832 1131.4 234.079L1127.04 229.956C1120.64 236.726 1119.92 245.73 1122.14 254.287C1124.35 262.827 1129.56 271.37 1135.78 278.045L1140.17 273.955ZM1131.4 234.079C1140.06 224.924 1150.37 225.739 1157.22 230.38L1160.58 225.413C1151.57 219.303 1137.94 218.439 1127.04 229.956L1131.4 234.079ZM1157.22 230.38C1162.38 233.877 1166.54 239.742 1166.96 248.061L1172.96 247.756C1172.43 237.375 1167.14 229.86 1160.58 225.413L1157.22 230.38Z" fill="#4B90F3"/>
<rect x="997" y="276" width="304" height="90" rx="45" stroke="#4B90F3" stroke-width="6"/>
<path d="M1053.56 338.576C1051.76 338.576 1050.16 338.272 1048.76 337.664C1047.35 337.056 1046.15 336.192 1045.16 335.072C1044.16 333.92 1043.4 332.544 1042.85 330.944C1042.34 329.312 1042.08 327.504 1042.08 325.52C1042.08 323.536 1042.34 321.744 1042.85 320.144C1043.4 318.512 1044.16 317.136 1045.16 316.016C1046.15 314.864 1047.35 313.984 1048.76 313.376C1050.16 312.768 1051.76 312.464 1053.56 312.464C1055.38 312.464 1056.98 312.784 1058.36 313.424C1059.76 314.064 1060.93 314.96 1061.86 316.112C1062.79 317.232 1063.48 318.544 1063.92 320.048C1064.4 321.552 1064.64 323.168 1064.64 324.896V326.864H1047.51V327.68C1047.51 329.6 1048.07 331.184 1049.19 332.432C1050.34 333.648 1051.97 334.256 1054.08 334.256C1055.62 334.256 1056.92 333.92 1057.97 333.248C1059.03 332.576 1059.92 331.664 1060.66 330.512L1063.73 333.536C1062.8 335.072 1061.46 336.304 1059.7 337.232C1057.94 338.128 1055.89 338.576 1053.56 338.576ZM1053.56 316.544C1052.66 316.544 1051.83 316.704 1051.06 317.024C1050.32 317.344 1049.68 317.792 1049.14 318.368C1048.63 318.944 1048.23 319.632 1047.94 320.432C1047.65 321.232 1047.51 322.112 1047.51 323.072V323.408H1059.12V322.928C1059.12 321.008 1058.63 319.472 1057.64 318.32C1056.64 317.136 1055.28 316.544 1053.56 316.544ZM1091.84 340.352C1091.84 342.944 1090.85 344.896 1088.87 346.208C1086.88 347.52 1083.65 348.176 1079.17 348.176C1077.12 348.176 1075.38 348.032 1073.94 347.744C1072.53 347.488 1071.36 347.104 1070.44 346.592C1069.54 346.08 1068.88 345.456 1068.47 344.72C1068.05 343.984 1067.84 343.136 1067.84 342.176C1067.84 340.8 1068.21 339.728 1068.95 338.96C1069.72 338.192 1070.77 337.664 1072.12 337.376V336.848C1070.23 336.24 1069.28 334.96 1069.28 333.008C1069.28 331.728 1069.72 330.752 1070.58 330.08C1071.44 329.376 1072.48 328.88 1073.7 328.592V328.4C1072.23 327.696 1071.09 326.72 1070.29 325.472C1069.52 324.192 1069.14 322.704 1069.14 321.008C1069.14 318.448 1069.99 316.384 1071.68 314.816C1073.41 313.248 1075.88 312.464 1079.08 312.464C1080.84 312.464 1082.34 312.72 1083.59 313.232V312.56C1083.59 311.44 1083.84 310.576 1084.36 309.968C1084.9 309.328 1085.73 309.008 1086.85 309.008H1090.69V313.232H1085.6V314.24C1086.72 314.976 1087.59 315.936 1088.2 317.12C1088.8 318.272 1089.11 319.568 1089.11 321.008C1089.11 323.536 1088.24 325.584 1086.52 327.152C1084.79 328.688 1082.32 329.456 1079.12 329.456C1077.91 329.456 1076.82 329.328 1075.86 329.072C1075.22 329.296 1074.66 329.616 1074.18 330.032C1073.7 330.416 1073.46 330.928 1073.46 331.568C1073.46 332.24 1073.76 332.72 1074.37 333.008C1074.98 333.296 1075.84 333.44 1076.96 333.44H1083.11C1086.18 333.44 1088.4 334.064 1089.78 335.312C1091.16 336.528 1091.84 338.208 1091.84 340.352ZM1086.95 340.928C1086.95 340.064 1086.61 339.376 1085.94 338.864C1085.3 338.352 1084.12 338.096 1082.39 338.096H1073.94C1072.79 338.768 1072.21 339.728 1072.21 340.976C1072.21 342 1072.61 342.816 1073.41 343.424C1074.24 344.064 1075.64 344.384 1077.59 344.384H1080.85C1084.92 344.384 1086.95 343.232 1086.95 340.928ZM1079.12 325.664C1080.66 325.664 1081.84 325.328 1082.68 324.656C1083.54 323.952 1083.97 322.88 1083.97 321.44V320.48C1083.97 319.04 1083.54 317.984 1082.68 317.312C1081.84 316.608 1080.66 316.256 1079.12 316.256C1077.59 316.256 1076.39 316.608 1075.52 317.312C1074.69 317.984 1074.28 319.04 1074.28 320.48V321.44C1074.28 322.88 1074.69 323.952 1075.52 324.656C1076.39 325.328 1077.59 325.664 1079.12 325.664ZM1095.26 338V313.04H1100.49V317.84H1100.73C1101.08 316.56 1101.82 315.44 1102.94 314.48C1104.06 313.52 1105.61 313.04 1107.59 313.04H1108.98V318.08H1106.92C1104.84 318.08 1103.24 318.416 1102.12 319.088C1101.03 319.76 1100.49 320.752 1100.49 322.064V338H1095.26ZM1122.71 338.576C1120.92 338.576 1119.32 338.272 1117.91 337.664C1116.5 337.056 1115.3 336.192 1114.31 335.072C1113.32 333.92 1112.55 332.544 1112.01 330.944C1111.49 329.312 1111.24 327.504 1111.24 325.52C1111.24 323.536 1111.49 321.744 1112.01 320.144C1112.55 318.512 1113.32 317.136 1114.31 316.016C1115.3 314.864 1116.5 313.984 1117.91 313.376C1119.32 312.768 1120.92 312.464 1122.71 312.464C1124.53 312.464 1126.13 312.784 1127.51 313.424C1128.92 314.064 1130.09 314.96 1131.01 316.112C1131.94 317.232 1132.63 318.544 1133.08 320.048C1133.56 321.552 1133.8 323.168 1133.8 324.896V326.864H1116.66V327.68C1116.66 329.6 1117.22 331.184 1118.34 332.432C1119.49 333.648 1121.13 334.256 1123.24 334.256C1124.77 334.256 1126.07 333.92 1127.13 333.248C1128.18 332.576 1129.08 331.664 1129.81 330.512L1132.89 333.536C1131.96 335.072 1130.61 336.304 1128.85 337.232C1127.09 338.128 1125.05 338.576 1122.71 338.576ZM1122.71 316.544C1121.81 316.544 1120.98 316.704 1120.21 317.024C1119.48 317.344 1118.84 317.792 1118.29 318.368C1117.78 318.944 1117.38 319.632 1117.09 320.432C1116.81 321.232 1116.66 322.112 1116.66 323.072V323.408H1128.28V322.928C1128.28 321.008 1127.78 319.472 1126.79 318.32C1125.8 317.136 1124.44 316.544 1122.71 316.544ZM1147.03 338.576C1144.66 338.576 1142.68 338.16 1141.08 337.328C1139.48 336.496 1138.09 335.344 1136.9 333.872L1140.26 330.8C1141.19 331.92 1142.21 332.8 1143.33 333.44C1144.49 334.048 1145.81 334.352 1147.32 334.352C1148.85 334.352 1149.99 334.064 1150.73 333.488C1151.49 332.88 1151.88 332.048 1151.88 330.992C1151.88 330.192 1151.61 329.52 1151.06 328.976C1150.55 328.4 1149.64 328.032 1148.33 327.872L1146.02 327.584C1143.46 327.264 1141.45 326.528 1139.97 325.376C1138.53 324.192 1137.81 322.448 1137.81 320.144C1137.81 318.928 1138.04 317.856 1138.49 316.928C1138.93 315.968 1139.56 315.168 1140.36 314.528C1141.19 313.856 1142.17 313.344 1143.29 312.992C1144.44 312.64 1145.7 312.464 1147.08 312.464C1149.32 312.464 1151.14 312.816 1152.55 313.52C1153.99 314.224 1155.27 315.2 1156.39 316.448L1153.17 319.52C1152.53 318.752 1151.69 318.096 1150.63 317.552C1149.61 316.976 1148.42 316.688 1147.08 316.688C1145.64 316.688 1144.57 316.976 1143.86 317.552C1143.19 318.128 1142.85 318.88 1142.85 319.808C1142.85 320.768 1143.16 321.488 1143.77 321.968C1144.37 322.448 1145.35 322.8 1146.69 323.024L1149 323.312C1151.75 323.728 1153.75 324.544 1155 325.76C1156.28 326.944 1156.92 328.544 1156.92 330.56C1156.92 331.776 1156.68 332.88 1156.2 333.872C1155.75 334.832 1155.09 335.664 1154.23 336.368C1153.37 337.072 1152.33 337.616 1151.11 338C1149.89 338.384 1148.53 338.576 1147.03 338.576ZM1169.99 338.576C1167.62 338.576 1165.63 338.16 1164.03 337.328C1162.43 336.496 1161.04 335.344 1159.86 333.872L1163.22 330.8C1164.15 331.92 1165.17 332.8 1166.29 333.44C1167.44 334.048 1168.77 334.352 1170.27 334.352C1171.81 334.352 1172.95 334.064 1173.68 333.488C1174.45 332.88 1174.83 332.048 1174.83 330.992C1174.83 330.192 1174.56 329.52 1174.02 328.976C1173.51 328.4 1172.59 328.032 1171.28 327.872L1168.98 327.584C1166.42 327.264 1164.4 326.528 1162.93 325.376C1161.49 324.192 1160.77 322.448 1160.77 320.144C1160.77 318.928 1160.99 317.856 1161.44 316.928C1161.89 315.968 1162.51 315.168 1163.31 314.528C1164.15 313.856 1165.12 313.344 1166.24 312.992C1167.39 312.64 1168.66 312.464 1170.03 312.464C1172.27 312.464 1174.1 312.816 1175.51 313.52C1176.95 314.224 1178.23 315.2 1179.35 316.448L1176.13 319.52C1175.49 318.752 1174.64 318.096 1173.59 317.552C1172.56 316.976 1171.38 316.688 1170.03 316.688C1168.59 316.688 1167.52 316.976 1166.82 317.552C1166.15 318.128 1165.81 318.88 1165.81 319.808C1165.81 320.768 1166.11 321.488 1166.72 321.968C1167.33 322.448 1168.31 322.8 1169.65 323.024L1171.95 323.312C1174.71 323.728 1176.71 324.544 1177.95 325.76C1179.23 326.944 1179.87 328.544 1179.87 330.56C1179.87 331.776 1179.63 332.88 1179.15 333.872C1178.71 334.832 1178.05 335.664 1177.19 336.368C1176.32 337.072 1175.28 337.616 1174.07 338C1172.85 338.384 1171.49 338.576 1169.99 338.576ZM1195.45 323.072C1195.45 320.736 1195.66 318.496 1196.07 316.352C1196.52 314.208 1197.13 312.208 1197.9 310.352C1198.67 308.496 1199.56 306.816 1200.59 305.312C1201.64 303.808 1202.78 302.544 1203.99 301.52H1208.94C1207.63 302.736 1206.44 304.096 1205.39 305.6C1204.33 307.104 1203.43 308.704 1202.7 310.4C1201.96 312.096 1201.39 313.856 1200.97 315.68C1200.59 317.504 1200.39 319.328 1200.39 321.152V324.992C1200.39 326.816 1200.59 328.64 1200.97 330.464C1201.39 332.288 1201.96 334.048 1202.7 335.744C1203.43 337.44 1204.33 339.04 1205.39 340.544C1206.44 342.08 1207.63 343.44 1208.94 344.624H1203.99C1202.78 343.6 1201.64 342.336 1200.59 340.832C1199.56 339.328 1198.67 337.648 1197.9 335.792C1197.13 333.936 1196.52 331.936 1196.07 329.792C1195.66 327.648 1195.45 325.408 1195.45 323.072ZM1221.22 319.472L1217.53 312.368H1217.38V338H1212.2V304.496H1218.25L1229.19 323.024L1232.89 330.128H1233.03V304.496H1238.21V338H1232.17L1221.22 319.472ZM1254.96 323.072C1254.96 325.408 1254.74 327.648 1254.29 329.792C1253.87 331.936 1253.28 333.936 1252.51 335.792C1251.74 337.648 1250.83 339.328 1249.78 340.832C1248.75 342.336 1247.63 343.6 1246.42 344.624H1241.47C1242.78 343.44 1243.97 342.08 1245.02 340.544C1246.08 339.04 1246.98 337.44 1247.71 335.744C1248.45 334.048 1249.01 332.288 1249.39 330.464C1249.81 328.64 1250.02 326.816 1250.02 324.992V321.152C1250.02 319.328 1249.81 317.504 1249.39 315.68C1249.01 313.856 1248.45 312.096 1247.71 310.4C1246.98 308.704 1246.08 307.104 1245.02 305.6C1243.97 304.096 1242.78 302.736 1241.47 301.52H1246.42C1247.63 302.544 1248.75 303.808 1249.78 305.312C1250.83 306.816 1251.74 308.496 1252.51 310.352C1253.28 312.208 1253.87 314.208 1254.29 316.352C1254.74 318.496 1254.96 320.736 1254.96 323.072Z" fill="#4B90F3"/>
<path d="M460.292 580.225L428.258 593.408L455.693 614.559L460.292 580.225ZM441.431 599.776L353.511 713.82L358.263 717.483L446.183 603.439L441.431 599.776Z" fill="#4B90F3"/>
<path d="M268 589L250.679 619H285.321L268 589ZM265 616V716H271V616H265Z" fill="#4B90F3"/>
<path d="M76 580.225L108.034 593.408L80.5995 614.559L76 580.225ZM94.861 599.776L182.782 713.82L178.03 717.483L90.1092 603.439L94.861 599.776Z" fill="#4B90F3"/>
<path d="M356 364.039L388.034 377.223L360.599 398.373L356 364.039ZM374.861 383.59L465.477 501.13L460.725 504.793L370.109 387.254L374.861 383.59Z" fill="#4B90F3"/>
<path d="M268 369L250.679 399H285.321L268 369ZM265 396V496H271V396H265Z" fill="#4B90F3"/>
<path d="M179.05 364.039L147.016 377.223L174.451 398.373L179.05 364.039ZM160.189 383.59L69.5738 501.13L74.3256 504.793L164.941 387.254L160.189 383.59Z" fill="#4B90F3"/>
<path d="M287.227 851.293L285.026 849.254L287.227 851.293ZM257.95 855.442L259.657 852.975L257.95 855.442ZM254.572 809.209L229.562 833.178L262.825 842.853L254.572 809.209ZM276.373 809.023C281.991 815.177 286.551 822.923 288.44 830.362C290.326 837.792 289.469 844.458 285.026 849.254L289.427 853.332C295.736 846.522 296.438 837.481 294.255 828.886C292.076 820.299 286.941 811.7 280.804 804.977L276.373 809.023ZM285.026 849.254C280.673 853.951 275.993 855.962 271.666 856.31C267.293 856.662 263.063 855.331 259.657 852.975L256.243 857.909C260.663 860.967 266.25 862.765 272.147 862.291C278.091 861.813 284.136 859.043 289.427 853.332L285.026 849.254ZM259.657 852.975C254.55 849.443 250.409 843.486 250.029 835L244.035 835.268C244.506 845.777 249.722 853.399 256.243 857.909L259.657 852.975Z" fill="#4B90F3"/>
<rect x="116" y="716" width="304" height="90" rx="45" stroke="#4B90F3" stroke-width="6"/>
<path d="M156.292 748.576C155.204 748.576 154.404 748.32 153.892 747.808C153.412 747.296 153.172 746.64 153.172 745.84V745.024C153.172 744.224 153.412 743.568 153.892 743.056C154.404 742.544 155.204 742.288 156.292 742.288C157.38 742.288 158.164 742.544 158.644 743.056C159.124 743.568 159.364 744.224 159.364 745.024V745.84C159.364 746.64 159.124 747.296 158.644 747.808C158.164 748.32 157.38 748.576 156.292 748.576ZM153.652 753.04H158.884V778H153.652V753.04ZM165.875 778V753.04H171.107V757.168H171.347C171.891 755.824 172.707 754.704 173.795 753.808C174.915 752.912 176.435 752.464 178.355 752.464C180.915 752.464 182.899 753.312 184.307 755.008C185.747 756.672 186.467 759.056 186.467 762.16V778H181.235V762.832C181.235 758.928 179.667 756.976 176.531 756.976C175.859 756.976 175.187 757.072 174.515 757.264C173.875 757.424 173.299 757.68 172.787 758.032C172.275 758.384 171.859 758.832 171.539 759.376C171.251 759.92 171.107 760.56 171.107 761.296V778H165.875ZM215.127 780.352C215.127 782.944 214.135 784.896 212.151 786.208C210.167 787.52 206.935 788.176 202.455 788.176C200.407 788.176 198.663 788.032 197.223 787.744C195.815 787.488 194.647 787.104 193.719 786.592C192.823 786.08 192.167 785.456 191.751 784.72C191.335 783.984 191.127 783.136 191.127 782.176C191.127 780.8 191.495 779.728 192.231 778.96C192.999 778.192 194.055 777.664 195.399 777.376V776.848C193.511 776.24 192.567 774.96 192.567 773.008C192.567 771.728 192.999 770.752 193.863 770.08C194.727 769.376 195.767 768.88 196.983 768.592V768.4C195.511 767.696 194.375 766.72 193.575 765.472C192.807 764.192 192.423 762.704 192.423 761.008C192.423 758.448 193.271 756.384 194.967 754.816C196.695 753.248 199.159 752.464 202.359 752.464C204.119 752.464 205.623 752.72 206.871 753.232V752.56C206.871 751.44 207.127 750.576 207.639 749.968C208.183 749.328 209.015 749.008 210.135 749.008H213.975V753.232H208.887V754.24C210.007 754.976 210.871 755.936 211.479 757.12C212.087 758.272 212.391 759.568 212.391 761.008C212.391 763.536 211.527 765.584 209.799 767.152C208.071 768.688 205.607 769.456 202.407 769.456C201.191 769.456 200.103 769.328 199.143 769.072C198.503 769.296 197.943 769.616 197.463 770.032C196.983 770.416 196.743 770.928 196.743 771.568C196.743 772.24 197.047 772.72 197.655 773.008C198.263 773.296 199.127 773.44 200.247 773.44H206.391C209.463 773.44 211.687 774.064 213.063 775.312C214.439 776.528 215.127 778.208 215.127 780.352ZM210.231 780.928C210.231 780.064 209.895 779.376 209.223 778.864C208.583 778.352 207.399 778.096 205.671 778.096H197.223C196.071 778.768 195.495 779.728 195.495 780.976C195.495 782 195.895 782.816 196.695 783.424C197.527 784.064 198.919 784.384 200.871 784.384H204.135C208.199 784.384 210.231 783.232 210.231 780.928ZM202.407 765.664C203.943 765.664 205.127 765.328 205.959 764.656C206.823 763.952 207.255 762.88 207.255 761.44V760.48C207.255 759.04 206.823 757.984 205.959 757.312C205.127 756.608 203.943 756.256 202.407 756.256C200.871 756.256 199.671 756.608 198.807 757.312C197.975 757.984 197.559 759.04 197.559 760.48V761.44C197.559 762.88 197.975 763.952 198.807 764.656C199.671 765.328 200.871 765.664 202.407 765.664ZM218.54 778V753.04H223.772V757.84H224.012C224.364 756.56 225.1 755.44 226.22 754.48C227.34 753.52 228.892 753.04 230.876 753.04H232.268V758.08H230.204C228.124 758.08 226.524 758.416 225.404 759.088C224.316 759.76 223.772 760.752 223.772 762.064V778H218.54ZM245.993 778.576C244.201 778.576 242.601 778.272 241.193 777.664C239.785 777.056 238.585 776.192 237.593 775.072C236.601 773.92 235.833 772.544 235.289 770.944C234.777 769.312 234.521 767.504 234.521 765.52C234.521 763.536 234.777 761.744 235.289 760.144C235.833 758.512 236.601 757.136 237.593 756.016C238.585 754.864 239.785 753.984 241.193 753.376C242.601 752.768 244.201 752.464 245.993 752.464C247.817 752.464 249.417 752.784 250.793 753.424C252.201 754.064 253.369 754.96 254.297 756.112C255.225 757.232 255.913 758.544 256.361 760.048C256.841 761.552 257.081 763.168 257.081 764.896V766.864H239.945V767.68C239.945 769.6 240.505 771.184 241.625 772.432C242.777 773.648 244.409 774.256 246.521 774.256C248.057 774.256 249.353 773.92 250.409 773.248C251.465 772.576 252.361 771.664 253.097 770.512L256.169 773.536C255.241 775.072 253.897 776.304 252.137 777.232C250.377 778.128 248.329 778.576 245.993 778.576ZM245.993 756.544C245.097 756.544 244.265 756.704 243.497 757.024C242.761 757.344 242.121 757.792 241.577 758.368C241.065 758.944 240.665 759.632 240.377 760.432C240.089 761.232 239.945 762.112 239.945 763.072V763.408H251.561V762.928C251.561 761.008 251.065 759.472 250.073 758.32C249.081 757.136 247.721 756.544 245.993 756.544ZM270.312 778.576C267.944 778.576 265.96 778.16 264.36 777.328C262.76 776.496 261.368 775.344 260.184 773.872L263.544 770.8C264.472 771.92 265.496 772.8 266.616 773.44C267.768 774.048 269.096 774.352 270.6 774.352C272.136 774.352 273.272 774.064 274.008 773.488C274.776 772.88 275.16 772.048 275.16 770.992C275.16 770.192 274.888 769.52 274.344 768.976C273.832 768.4 272.92 768.032 271.608 767.872L269.304 767.584C266.744 767.264 264.728 766.528 263.256 765.376C261.816 764.192 261.096 762.448 261.096 760.144C261.096 758.928 261.32 757.856 261.768 756.928C262.216 755.968 262.84 755.168 263.64 754.528C264.472 753.856 265.448 753.344 266.568 752.992C267.72 752.64 268.984 752.464 270.36 752.464C272.6 752.464 274.424 752.816 275.832 753.52C277.272 754.224 278.552 755.2 279.672 756.448L276.456 759.52C275.816 758.752 274.968 758.096 273.912 757.552C272.888 756.976 271.704 756.688 270.36 756.688C268.92 756.688 267.848 756.976 267.144 757.552C266.472 758.128 266.136 758.88 266.136 759.808C266.136 760.768 266.44 761.488 267.048 761.968C267.656 762.448 268.632 762.8 269.976 763.024L272.28 763.312C275.032 763.728 277.032 764.544 278.28 765.76C279.56 766.944 280.2 768.544 280.2 770.56C280.2 771.776 279.96 772.88 279.48 773.872C279.032 774.832 278.376 775.664 277.512 776.368C276.648 777.072 275.608 777.616 274.392 778C273.176 778.384 271.816 778.576 270.312 778.576ZM293.27 778.576C290.902 778.576 288.918 778.16 287.318 777.328C285.718 776.496 284.326 775.344 283.142 773.872L286.502 770.8C287.43 771.92 288.454 772.8 289.574 773.44C290.726 774.048 292.054 774.352 293.558 774.352C295.094 774.352 296.23 774.064 296.966 773.488C297.734 772.88 298.118 772.048 298.118 770.992C298.118 770.192 297.846 769.52 297.302 768.976C296.79 768.4 295.878 768.032 294.566 767.872L292.262 767.584C289.702 767.264 287.686 766.528 286.214 765.376C284.774 764.192 284.054 762.448 284.054 760.144C284.054 758.928 284.278 757.856 284.726 756.928C285.174 755.968 285.798 755.168 286.598 754.528C287.43 753.856 288.406 753.344 289.526 752.992C290.678 752.64 291.942 752.464 293.318 752.464C295.558 752.464 297.382 752.816 298.79 753.52C300.23 754.224 301.51 755.2 302.63 756.448L299.414 759.52C298.774 758.752 297.926 758.096 296.87 757.552C295.846 756.976 294.662 756.688 293.318 756.688C291.878 756.688 290.806 756.976 290.102 757.552C289.43 758.128 289.094 758.88 289.094 759.808C289.094 760.768 289.398 761.488 290.006 761.968C290.614 762.448 291.59 762.8 292.934 763.024L295.238 763.312C297.99 763.728 299.99 764.544 301.238 765.76C302.518 766.944 303.158 768.544 303.158 770.56C303.158 771.776 302.918 772.88 302.438 773.872C301.99 774.832 301.334 775.664 300.47 776.368C299.606 777.072 298.566 777.616 297.35 778C296.134 778.384 294.774 778.576 293.27 778.576ZM318.732 763.072C318.732 760.736 318.94 758.496 319.356 756.352C319.804 754.208 320.412 752.208 321.18 750.352C321.948 748.496 322.844 746.816 323.868 745.312C324.924 743.808 326.06 742.544 327.276 741.52H332.22C330.908 742.736 329.724 744.096 328.668 745.6C327.612 747.104 326.716 748.704 325.98 750.4C325.244 752.096 324.668 753.856 324.252 755.68C323.868 757.504 323.676 759.328 323.676 761.152V764.992C323.676 766.816 323.868 768.64 324.252 770.464C324.668 772.288 325.244 774.048 325.98 775.744C326.716 777.44 327.612 779.04 328.668 780.544C329.724 782.08 330.908 783.44 332.22 784.624H327.276C326.06 783.6 324.924 782.336 323.868 780.832C322.844 779.328 321.948 777.648 321.18 775.792C320.412 773.936 319.804 771.936 319.356 769.792C318.94 767.648 318.732 765.408 318.732 763.072ZM361.113 752.368H360.873L358.233 757.792L350.889 771.184L343.545 757.792L340.905 752.368H340.665V778H335.481V744.496H341.913L350.889 761.536H351.177L360.153 744.496H366.297V778H361.113V752.368ZM383.071 763.072C383.071 765.408 382.847 767.648 382.399 769.792C381.983 771.936 381.391 773.936 380.623 775.792C379.855 777.648 378.943 779.328 377.887 780.832C376.863 782.336 375.743 783.6 374.527 784.624H369.583C370.895 783.44 372.079 782.08 373.135 780.544C374.191 779.04 375.087 777.44 375.823 775.744C376.559 774.048 377.119 772.288 377.503 770.464C377.919 768.64 378.127 766.816 378.127 764.992V761.152C378.127 759.328 377.919 757.504 377.503 755.68C377.119 753.856 376.559 752.096 375.823 750.4C375.087 748.704 374.191 747.104 373.135 745.6C372.079 744.096 370.895 742.736 369.583 741.52H374.527C375.743 742.544 376.863 743.808 377.887 745.312C378.943 746.816 379.855 748.496 380.623 750.352C381.391 752.208 381.983 754.208 382.399 756.352C382.847 758.496 383.071 760.736 383.071 763.072Z" fill="#4B90F3"/>
<path d="M575.624 520.882L573.626 523.121L573.626 523.121L575.624 520.882ZM580.391 549.806L582.894 551.46L582.894 551.46L580.391 549.806ZM534.729 553.89L559.179 578.429L568.206 544.985L534.729 553.89ZM534.066 532.319C540.022 526.664 547.573 522.029 554.88 520.043C562.175 518.06 568.783 518.798 573.626 523.121L577.621 518.644C570.741 512.505 561.774 511.951 553.306 514.253C544.851 516.551 536.452 521.779 529.934 527.969L534.066 532.319ZM573.626 523.121C582.928 531.421 582.323 541.441 577.888 548.152L582.894 551.46C588.817 542.498 589.35 529.11 577.621 518.644L573.626 523.121ZM577.888 548.152C574.548 553.205 568.838 557.361 560.589 557.933L561.004 563.918C571.263 563.207 578.608 557.945 582.894 551.46L577.888 548.152Z" fill="#4B90F3"/>
<rect x="443" y="496" width="90" height="90" rx="45" stroke="#4B90F3" stroke-width="6"/>
<path d="M489.493 558.576C485.109 558.576 481.669 557.104 479.173 554.16C476.677 551.184 475.429 546.88 475.429 541.248C475.429 538.432 475.749 535.952 476.389 533.808C477.029 531.664 477.957 529.856 479.173 528.384C480.389 526.912 481.861 525.808 483.589 525.072C485.349 524.304 487.317 523.92 489.493 523.92C492.405 523.92 494.837 524.56 496.789 525.84C498.773 527.12 500.325 529.008 501.445 531.504L496.885 534C496.309 532.4 495.413 531.136 494.197 530.208C493.013 529.248 491.445 528.768 489.493 528.768C486.901 528.768 484.869 529.648 483.397 531.408C481.925 533.168 481.189 535.6 481.189 538.704V543.792C481.189 546.896 481.925 549.328 483.397 551.088C484.869 552.848 486.901 553.728 489.493 553.728C491.509 553.728 493.141 553.216 494.389 552.192C495.669 551.136 496.613 549.792 497.221 548.16L501.589 550.8C500.469 553.232 498.901 555.136 496.885 556.512C494.869 557.888 492.405 558.576 489.493 558.576Z" fill="#4B90F3"/>
<path d="M355.624 520.882L353.626 523.121L353.626 523.121L355.624 520.882ZM360.391 549.806L362.894 551.46L362.894 551.46L360.391 549.806ZM314.729 553.89L339.179 578.429L348.206 544.985L314.729 553.89ZM314.066 532.319C320.022 526.664 327.573 522.029 334.88 520.043C342.175 518.06 348.783 518.798 353.626 523.121L357.621 518.644C350.741 512.505 341.774 511.951 333.306 514.253C324.851 516.551 316.452 521.779 309.934 527.969L314.066 532.319ZM353.626 523.121C362.928 531.421 362.323 541.441 357.888 548.152L362.894 551.46C368.817 542.498 369.35 529.11 357.621 518.644L353.626 523.121ZM357.888 548.152C354.548 553.205 348.838 557.361 340.589 557.933L341.004 563.918C351.263 563.207 358.608 557.945 362.894 551.46L357.888 548.152Z" fill="#4B90F3"/>
<rect x="223" y="496" width="90" height="90" rx="45" stroke="#4B90F3" stroke-width="6"/>
<path d="M256.308 524.496H271.14C273.924 524.496 276.1 525.28 277.668 526.848C279.268 528.416 280.068 530.512 280.068 533.136C280.068 534.384 279.892 535.456 279.54 536.352C279.188 537.216 278.74 537.936 278.196 538.512C277.652 539.056 277.028 539.472 276.324 539.76C275.62 540.016 274.932 540.176 274.26 540.24V540.528C274.932 540.56 275.668 540.72 276.468 541.008C277.3 541.296 278.068 541.76 278.772 542.4C279.476 543.008 280.068 543.808 280.548 544.8C281.028 545.76 281.268 546.944 281.268 548.352C281.268 549.696 281.044 550.96 280.596 552.144C280.18 553.328 279.588 554.352 278.82 555.216C278.052 556.08 277.14 556.768 276.084 557.28C275.028 557.76 273.876 558 272.628 558H256.308V524.496ZM261.732 553.344H271.044C272.452 553.344 273.556 552.976 274.356 552.24C275.156 551.504 275.556 550.448 275.556 549.072V547.44C275.556 546.064 275.156 545.008 274.356 544.272C273.556 543.536 272.452 543.168 271.044 543.168H261.732V553.344ZM261.732 538.656H270.132C271.476 538.656 272.516 538.32 273.252 537.648C273.988 536.944 274.356 535.952 274.356 534.672V533.136C274.356 531.856 273.988 530.88 273.252 530.208C272.516 529.504 271.476 529.152 270.132 529.152H261.732V538.656Z" fill="#4B90F3"/>
<path d="M135.624 520.882L133.626 523.121L133.626 523.121L135.624 520.882ZM140.391 549.806L142.894 551.46L142.894 551.46L140.391 549.806ZM94.7288 553.89L119.179 578.429L128.206 544.985L94.7288 553.89ZM94.0658 532.319C100.022 526.664 107.573 522.029 114.88 520.043C122.175 518.06 128.783 518.798 133.626 523.121L137.621 518.644C130.741 512.505 121.774 511.951 113.306 514.253C104.851 516.551 96.4524 521.779 89.9342 527.969L94.0658 532.319ZM133.626 523.121C142.928 531.421 142.323 541.441 137.888 548.152L142.894 551.46C148.817 542.498 149.35 529.11 137.621 518.644L133.626 523.121ZM137.888 548.152C134.548 553.205 128.838 557.361 120.589 557.933L121.004 563.918C131.263 563.207 138.608 557.945 142.894 551.46L137.888 548.152Z" fill="#4B90F3"/>
<rect x="3" y="496" width="90" height="90" rx="45" stroke="#4B90F3" stroke-width="6"/>
<path d="M57.1654 558L54.1414 548.928H41.6134L38.6854 558H33.1654L44.5894 524.496H51.4054L62.8294 558H57.1654ZM47.9974 529.488H47.7574L42.9094 544.272H52.7974L47.9974 529.488Z" fill="#4B90F3"/>
<path d="M248.222 232.017L250.402 234.079L248.222 232.017ZM277.9 227.897L276.217 230.38L277.9 227.897ZM281.324 273.806L306.422 249.93L273.196 240.132L281.324 273.806ZM259.174 273.955C253.478 267.842 248.86 260.155 246.949 252.782C245.042 245.425 245.906 238.832 250.402 234.079L246.043 229.956C239.639 236.726 238.923 245.73 241.141 254.287C243.354 262.827 248.564 271.37 254.784 278.045L259.174 273.955ZM250.402 234.079C259.061 224.924 269.367 225.739 276.217 230.38L279.583 225.413C270.566 219.303 256.936 218.439 246.043 229.956L250.402 234.079ZM276.217 230.38C281.378 233.877 285.541 239.742 285.964 248.061L291.957 247.756C291.428 237.375 286.145 229.86 279.583 225.413L276.217 230.38Z" fill="#4B90F3"/>
<rect x="116" y="276" width="304" height="90" rx="45" stroke="#4B90F3" stroke-width="6"/>
<path d="M170.141 338.576C168.349 338.576 166.749 338.272 165.341 337.664C163.933 337.056 162.733 336.192 161.741 335.072C160.749 333.92 159.981 332.544 159.437 330.944C158.925 329.312 158.669 327.504 158.669 325.52C158.669 323.536 158.925 321.744 159.437 320.144C159.981 318.512 160.749 317.136 161.741 316.016C162.733 314.864 163.933 313.984 165.341 313.376C166.749 312.768 168.349 312.464 170.141 312.464C171.965 312.464 173.565 312.784 174.941 313.424C176.349 314.064 177.517 314.96 178.445 316.112C179.373 317.232 180.061 318.544 180.509 320.048C180.989 321.552 181.229 323.168 181.229 324.896V326.864H164.093V327.68C164.093 329.6 164.653 331.184 165.773 332.432C166.925 333.648 168.557 334.256 170.669 334.256C172.205 334.256 173.501 333.92 174.557 333.248C175.613 332.576 176.509 331.664 177.245 330.512L180.317 333.536C179.389 335.072 178.045 336.304 176.285 337.232C174.525 338.128 172.477 338.576 170.141 338.576ZM170.141 316.544C169.245 316.544 168.413 316.704 167.645 317.024C166.909 317.344 166.269 317.792 165.725 318.368C165.213 318.944 164.813 319.632 164.525 320.432C164.237 321.232 164.093 322.112 164.093 323.072V323.408H175.709V322.928C175.709 321.008 175.213 319.472 174.221 318.32C173.229 317.136 171.869 316.544 170.141 316.544ZM208.429 340.352C208.429 342.944 207.437 344.896 205.453 346.208C203.469 347.52 200.237 348.176 195.757 348.176C193.709 348.176 191.965 348.032 190.525 347.744C189.117 347.488 187.949 347.104 187.021 346.592C186.125 346.08 185.469 345.456 185.053 344.72C184.637 343.984 184.429 343.136 184.429 342.176C184.429 340.8 184.797 339.728 185.533 338.96C186.301 338.192 187.357 337.664 188.701 337.376V336.848C186.813 336.24 185.869 334.96 185.869 333.008C185.869 331.728 186.301 330.752 187.165 330.08C188.029 329.376 189.069 328.88 190.285 328.592V328.4C188.813 327.696 187.677 326.72 186.877 325.472C186.109 324.192 185.725 322.704 185.725 321.008C185.725 318.448 186.573 316.384 188.269 314.816C189.997 313.248 192.461 312.464 195.661 312.464C197.421 312.464 198.925 312.72 200.173 313.232V312.56C200.173 311.44 200.429 310.576 200.941 309.968C201.485 309.328 202.317 309.008 203.437 309.008H207.277V313.232H202.189V314.24C203.309 314.976 204.173 315.936 204.781 317.12C205.389 318.272 205.693 319.568 205.693 321.008C205.693 323.536 204.829 325.584 203.101 327.152C201.373 328.688 198.909 329.456 195.709 329.456C194.493 329.456 193.405 329.328 192.445 329.072C191.805 329.296 191.245 329.616 190.765 330.032C190.285 330.416 190.045 330.928 190.045 331.568C190.045 332.24 190.349 332.72 190.957 333.008C191.565 333.296 192.429 333.44 193.549 333.44H199.693C202.765 333.44 204.989 334.064 206.365 335.312C207.741 336.528 208.429 338.208 208.429 340.352ZM203.533 340.928C203.533 340.064 203.197 339.376 202.525 338.864C201.885 338.352 200.701 338.096 198.973 338.096H190.525C189.373 338.768 188.797 339.728 188.797 340.976C188.797 342 189.197 342.816 189.997 343.424C190.829 344.064 192.221 344.384 194.173 344.384H197.437C201.501 344.384 203.533 343.232 203.533 340.928ZM195.709 325.664C197.245 325.664 198.429 325.328 199.261 324.656C200.125 323.952 200.557 322.88 200.557 321.44V320.48C200.557 319.04 200.125 317.984 199.261 317.312C198.429 316.608 197.245 316.256 195.709 316.256C194.173 316.256 192.973 316.608 192.109 317.312C191.277 317.984 190.861 319.04 190.861 320.48V321.44C190.861 322.88 191.277 323.952 192.109 324.656C192.973 325.328 194.173 325.664 195.709 325.664ZM211.842 338V313.04H217.074V317.84H217.314C217.666 316.56 218.402 315.44 219.522 314.48C220.642 313.52 222.194 313.04 224.178 313.04H225.57V318.08H223.506C221.426 318.08 219.826 318.416 218.706 319.088C217.618 319.76 217.074 320.752 217.074 322.064V338H211.842ZM239.295 338.576C237.503 338.576 235.903 338.272 234.495 337.664C233.087 337.056 231.887 336.192 230.895 335.072C229.903 333.92 229.135 332.544 228.591 330.944C228.079 329.312 227.823 327.504 227.823 325.52C227.823 323.536 228.079 321.744 228.591 320.144C229.135 318.512 229.903 317.136 230.895 316.016C231.887 314.864 233.087 313.984 234.495 313.376C235.903 312.768 237.503 312.464 239.295 312.464C241.119 312.464 242.719 312.784 244.095 313.424C245.503 314.064 246.671 314.96 247.599 316.112C248.527 317.232 249.215 318.544 249.663 320.048C250.143 321.552 250.383 323.168 250.383 324.896V326.864H233.247V327.68C233.247 329.6 233.807 331.184 234.927 332.432C236.079 333.648 237.711 334.256 239.823 334.256C241.359 334.256 242.655 333.92 243.711 333.248C244.767 332.576 245.663 331.664 246.399 330.512L249.471 333.536C248.543 335.072 247.199 336.304 245.439 337.232C243.679 338.128 241.631 338.576 239.295 338.576ZM239.295 316.544C238.399 316.544 237.567 316.704 236.799 317.024C236.063 317.344 235.423 317.792 234.879 318.368C234.367 318.944 233.967 319.632 233.679 320.432C233.391 321.232 233.247 322.112 233.247 323.072V323.408H244.863V322.928C244.863 321.008 244.367 319.472 243.375 318.32C242.383 317.136 241.023 316.544 239.295 316.544ZM263.615 338.576C261.247 338.576 259.263 338.16 257.663 337.328C256.063 336.496 254.671 335.344 253.487 333.872L256.847 330.8C257.775 331.92 258.799 332.8 259.919 333.44C261.071 334.048 262.399 334.352 263.903 334.352C265.439 334.352 266.575 334.064 267.311 333.488C268.079 332.88 268.463 332.048 268.463 330.992C268.463 330.192 268.191 329.52 267.647 328.976C267.135 328.4 266.223 328.032 264.911 327.872L262.607 327.584C260.047 327.264 258.031 326.528 256.559 325.376C255.119 324.192 254.399 322.448 254.399 320.144C254.399 318.928 254.623 317.856 255.071 316.928C255.519 315.968 256.143 315.168 256.943 314.528C257.775 313.856 258.751 313.344 259.871 312.992C261.023 312.64 262.287 312.464 263.663 312.464C265.903 312.464 267.727 312.816 269.135 313.52C270.575 314.224 271.855 315.2 272.975 316.448L269.759 319.52C269.119 318.752 268.271 318.096 267.215 317.552C266.191 316.976 265.007 316.688 263.663 316.688C262.223 316.688 261.151 316.976 260.447 317.552C259.775 318.128 259.439 318.88 259.439 319.808C259.439 320.768 259.743 321.488 260.351 321.968C260.959 322.448 261.935 322.8 263.279 323.024L265.583 323.312C268.335 323.728 270.335 324.544 271.583 325.76C272.863 326.944 273.503 328.544 273.503 330.56C273.503 331.776 273.263 332.88 272.783 333.872C272.335 334.832 271.679 335.664 270.815 336.368C269.951 337.072 268.911 337.616 267.695 338C266.479 338.384 265.119 338.576 263.615 338.576ZM286.572 338.576C284.204 338.576 282.22 338.16 280.62 337.328C279.02 336.496 277.628 335.344 276.444 333.872L279.804 330.8C280.732 331.92 281.756 332.8 282.876 333.44C284.028 334.048 285.356 334.352 286.86 334.352C288.396 334.352 289.532 334.064 290.268 333.488C291.036 332.88 291.42 332.048 291.42 330.992C291.42 330.192 291.148 329.52 290.604 328.976C290.092 328.4 289.18 328.032 287.868 327.872L285.564 327.584C283.004 327.264 280.988 326.528 279.516 325.376C278.076 324.192 277.356 322.448 277.356 320.144C277.356 318.928 277.58 317.856 278.028 316.928C278.476 315.968 279.1 315.168 279.9 314.528C280.732 313.856 281.708 313.344 282.828 312.992C283.98 312.64 285.244 312.464 286.62 312.464C288.86 312.464 290.684 312.816 292.092 313.52C293.532 314.224 294.812 315.2 295.932 316.448L292.716 319.52C292.076 318.752 291.228 318.096 290.172 317.552C289.148 316.976 287.964 316.688 286.62 316.688C285.18 316.688 284.108 316.976 283.404 317.552C282.732 318.128 282.396 318.88 282.396 319.808C282.396 320.768 282.7 321.488 283.308 321.968C283.916 322.448 284.892 322.8 286.236 323.024L288.54 323.312C291.292 323.728 293.292 324.544 294.54 325.76C295.82 326.944 296.46 328.544 296.46 330.56C296.46 331.776 296.22 332.88 295.74 333.872C295.292 334.832 294.636 335.664 293.772 336.368C292.908 337.072 291.868 337.616 290.652 338C289.436 338.384 288.076 338.576 286.572 338.576ZM312.035 323.072C312.035 320.736 312.243 318.496 312.659 316.352C313.107 314.208 313.715 312.208 314.483 310.352C315.251 308.496 316.147 306.816 317.171 305.312C318.227 303.808 319.363 302.544 320.579 301.52H325.523C324.211 302.736 323.027 304.096 321.971 305.6C320.915 307.104 320.019 308.704 319.283 310.4C318.547 312.096 317.971 313.856 317.555 315.68C317.171 317.504 316.979 319.328 316.979 321.152V324.992C316.979 326.816 317.171 328.64 317.555 330.464C317.971 332.288 318.547 334.048 319.283 335.744C320.019 337.44 320.915 339.04 321.971 340.544C323.027 342.08 324.211 343.44 325.523 344.624H320.579C319.363 343.6 318.227 342.336 317.171 340.832C316.147 339.328 315.251 337.648 314.483 335.792C313.715 333.936 313.107 331.936 312.659 329.792C312.243 327.648 312.035 325.408 312.035 323.072ZM354.416 312.368H354.176L351.536 317.792L344.192 331.184L336.848 317.792L334.208 312.368H333.968V338H328.784V304.496H335.216L344.192 321.536H344.48L353.456 304.496H359.6V338H354.416V312.368ZM376.374 323.072C376.374 325.408 376.15 327.648 375.702 329.792C375.286 331.936 374.694 333.936 373.926 335.792C373.158 337.648 372.246 339.328 371.19 340.832C370.166 342.336 369.046 343.6 367.83 344.624H362.886C364.198 343.44 365.382 342.08 366.438 340.544C367.494 339.04 368.39 337.44 369.126 335.744C369.862 334.048 370.422 332.288 370.806 330.464C371.222 328.64 371.43 326.816 371.43 324.992V321.152C371.43 319.328 371.222 317.504 370.806 315.68C370.422 313.856 369.862 312.096 369.126 310.4C368.39 308.704 367.494 307.104 366.438 305.6C365.382 304.096 364.198 302.736 362.886 301.52H367.83C369.046 302.544 370.166 303.808 371.19 305.312C372.246 306.816 373.158 308.496 373.926 310.352C374.694 312.208 375.286 314.208 375.702 316.352C376.15 318.496 376.374 320.736 376.374 323.072Z" fill="#4B90F3"/>
<path d="M689.222 12.0173L691.402 14.0788L689.222 12.0173ZM718.9 7.89685L717.217 10.3804L718.9 7.89685ZM722.324 53.8063L747.422 29.9297L714.196 20.1325L722.324 53.8063ZM700.174 53.9548C694.478 47.8422 689.86 40.1555 687.949 32.7819C686.042 25.4249 686.906 18.8317 691.402 14.0788L687.043 9.95576C680.639 16.7259 679.923 25.7303 682.141 34.2871C684.354 42.8273 689.564 51.3704 695.784 58.0452L700.174 53.9548ZM691.402 14.0788C700.061 4.92411 710.367 5.73867 717.217 10.3804L720.583 5.41332C711.566 -0.696577 697.936 -1.56119 687.043 9.95576L691.402 14.0788ZM717.217 10.3804C722.378 13.8771 726.541 19.7417 726.964 28.0609L732.957 27.7557C732.428 17.3749 727.145 9.85954 720.583 5.41332L717.217 10.3804Z" fill="#4B90F3"/>
<rect x="597" y="56" width="223" height="90" rx="45" stroke="#4B90F3" stroke-width="6"/>
<path d="M643.413 82.48H648.645V97.168H648.885C649.429 95.664 650.309 94.512 651.525 93.712C652.773 92.88 654.229 92.464 655.893 92.464C659.061 92.464 661.509 93.616 663.237 95.92C664.965 98.192 665.829 101.392 665.829 105.52C665.829 109.648 664.965 112.864 663.237 115.168C661.509 117.44 659.061 118.576 655.893 118.576C654.229 118.576 652.773 118.16 651.525 117.328C650.309 116.496 649.429 115.344 648.885 113.872H648.645V118H643.413V82.48ZM654.309 114.064C656.133 114.064 657.589 113.488 658.677 112.336C659.765 111.152 660.309 109.6 660.309 107.68V103.36C660.309 101.44 659.765 99.904 658.677 98.752C657.589 97.568 656.133 96.976 654.309 96.976C652.709 96.976 651.365 97.376 650.277 98.176C649.189 98.944 648.645 99.968 648.645 101.248V109.792C648.645 111.072 649.189 112.112 650.277 112.912C651.365 113.68 652.709 114.064 654.309 114.064ZM671.339 118V93.04H676.571V97.84H676.811C677.163 96.56 677.899 95.44 679.019 94.48C680.139 93.52 681.691 93.04 683.675 93.04H685.067V98.08H683.003C680.923 98.08 679.323 98.416 678.203 99.088C677.115 99.76 676.571 100.752 676.571 102.064V118H671.339ZM691.874 88.576C690.786 88.576 689.986 88.32 689.474 87.808C688.994 87.296 688.754 86.64 688.754 85.84V85.024C688.754 84.224 688.994 83.568 689.474 83.056C689.986 82.544 690.786 82.288 691.874 82.288C692.962 82.288 693.746 82.544 694.226 83.056C694.706 83.568 694.946 84.224 694.946 85.024V85.84C694.946 86.64 694.706 87.296 694.226 87.808C693.746 88.32 692.962 88.576 691.874 88.576ZM689.234 93.04H694.466V118H689.234V93.04ZM717.153 113.872H716.913C716.369 115.344 715.473 116.496 714.225 117.328C713.009 118.16 711.569 118.576 709.905 118.576C706.737 118.576 704.289 117.44 702.561 115.168C700.833 112.864 699.969 109.648 699.969 105.52C699.969 101.392 700.833 98.192 702.561 95.92C704.289 93.616 706.737 92.464 709.905 92.464C711.569 92.464 713.009 92.88 714.225 93.712C715.473 94.512 716.369 95.664 716.913 97.168H717.153V82.48H722.385V118H717.153V113.872ZM711.489 114.064C713.089 114.064 714.433 113.68 715.521 112.912C716.609 112.112 717.153 111.072 717.153 109.792V101.248C717.153 99.968 716.609 98.944 715.521 98.176C714.433 97.376 713.089 96.976 711.489 96.976C709.665 96.976 708.209 97.568 707.121 98.752C706.033 99.904 705.489 101.44 705.489 103.36V107.68C705.489 109.6 706.033 111.152 707.121 112.336C708.209 113.488 709.665 114.064 711.489 114.064ZM751.271 120.352C751.271 122.944 750.279 124.896 748.295 126.208C746.311 127.52 743.079 128.176 738.599 128.176C736.551 128.176 734.807 128.032 733.367 127.744C731.959 127.488 730.791 127.104 729.863 126.592C728.967 126.08 728.311 125.456 727.895 124.72C727.479 123.984 727.271 123.136 727.271 122.176C727.271 120.8 727.639 119.728 728.375 118.96C729.143 118.192 730.199 117.664 731.543 117.376V116.848C729.655 116.24 728.711 114.96 728.711 113.008C728.711 111.728 729.143 110.752 730.007 110.08C730.871 109.376 731.911 108.88 733.127 108.592V108.4C731.655 107.696 730.519 106.72 729.719 105.472C728.951 104.192 728.567 102.704 728.567 101.008C728.567 98.448 729.415 96.384 731.111 94.816C732.839 93.248 735.303 92.464 738.503 92.464C740.263 92.464 741.767 92.72 743.015 93.232V92.56C743.015 91.44 743.271 90.576 743.783 89.968C744.327 89.328 745.159 89.008 746.279 89.008H750.119V93.232H745.031V94.24C746.151 94.976 747.015 95.936 747.623 97.12C748.231 98.272 748.535 99.568 748.535 101.008C748.535 103.536 747.671 105.584 745.943 107.152C744.215 108.688 741.751 109.456 738.551 109.456C737.335 109.456 736.247 109.328 735.287 109.072C734.647 109.296 734.087 109.616 733.607 110.032C733.127 110.416 732.887 110.928 732.887 111.568C732.887 112.24 733.191 112.72 733.799 113.008C734.407 113.296 735.271 113.44 736.391 113.44H742.535C745.607 113.44 747.831 114.064 749.207 115.312C750.583 116.528 751.271 118.208 751.271 120.352ZM746.375 120.928C746.375 120.064 746.039 119.376 745.367 118.864C744.727 118.352 743.543 118.096 741.815 118.096H733.367C732.215 118.768 731.639 119.728 731.639 120.976C731.639 122 732.039 122.816 732.839 123.424C733.671 124.064 735.063 124.384 737.015 124.384H740.279C744.343 124.384 746.375 123.232 746.375 120.928ZM738.551 105.664C740.087 105.664 741.271 105.328 742.103 104.656C742.967 103.952 743.399 102.88 743.399 101.44V100.48C743.399 99.04 742.967 97.984 742.103 97.312C741.271 96.608 740.087 96.256 738.551 96.256C737.015 96.256 735.815 96.608 734.951 97.312C734.119 97.984 733.703 99.04 733.703 100.48V101.44C733.703 102.88 734.119 103.952 734.951 104.656C735.815 105.328 737.015 105.664 738.551 105.664ZM764.195 118.576C762.403 118.576 760.803 118.272 759.395 117.664C757.987 117.056 756.787 116.192 755.795 115.072C754.803 113.92 754.035 112.544 753.491 110.944C752.979 109.312 752.723 107.504 752.723 105.52C752.723 103.536 752.979 101.744 753.491 100.144C754.035 98.512 754.803 97.136 755.795 96.016C756.787 94.864 757.987 93.984 759.395 93.376C760.803 92.768 762.403 92.464 764.195 92.464C766.019 92.464 767.619 92.784 768.995 93.424C770.403 94.064 771.571 94.96 772.499 96.112C773.427 97.232 774.115 98.544 774.563 100.048C775.043 101.552 775.283 103.168 775.283 104.896V106.864H758.147V107.68C758.147 109.6 758.707 111.184 759.827 112.432C760.979 113.648 762.611 114.256 764.723 114.256C766.259 114.256 767.555 113.92 768.611 113.248C769.667 112.576 770.563 111.664 771.299 110.512L774.371 113.536C773.443 115.072 772.099 116.304 770.339 117.232C768.579 118.128 766.531 118.576 764.195 118.576ZM764.195 96.544C763.299 96.544 762.467 96.704 761.699 97.024C760.963 97.344 760.323 97.792 759.779 98.368C759.267 98.944 758.867 99.632 758.579 100.432C758.291 101.232 758.147 102.112 758.147 103.072V103.408H769.763V102.928C769.763 101.008 769.267 99.472 768.275 98.32C767.283 97.136 765.923 96.544 764.195 96.544Z" fill="#4B90F3"/>
</svg>
