<svg width="382" height="561" viewBox="0 0 382 561" fill="none" xmlns="http://www.w3.org/2000/svg">
<path d="M112 330L116.264 346.787L128.67 334.701L112 330ZM117.217 337.505L121.412 341.811L123.561 339.717L119.366 335.412L117.217 337.505ZM125.606 346.116L129.801 350.422L131.949 348.328L127.755 344.023L125.606 346.116ZM133.995 354.727L138.189 359.033L140.338 356.939L136.144 352.634L133.995 354.727ZM142.384 363.338L146.578 367.644L148.727 365.551L144.533 361.245L142.384 363.338ZM150.773 371.949L154.967 376.255L157.116 374.162L152.922 369.856L150.773 371.949ZM159.162 380.561L163.356 384.866L165.505 382.773L161.311 378.467L159.162 380.561ZM167.551 389.172L171.745 393.477L173.894 391.384L169.699 387.078L167.551 389.172ZM175.939 397.783L180.134 402.088L182.283 399.995L178.088 395.689L175.939 397.783ZM184.328 406.394L188.523 410.699L190.672 408.606L186.477 404.301L184.328 406.394ZM192.717 415.005L196.912 419.311L199.061 417.217L194.866 412.912L192.717 415.005ZM201.106 423.616L205.301 427.922L207.449 425.828L203.255 421.523L201.106 423.616ZM209.495 432.227L213.689 436.533L215.838 434.439L211.644 430.134L209.495 432.227ZM217.884 440.838L222.078 445.144L224.227 443.051L220.033 438.745L217.884 440.838ZM226.273 449.449L230.467 453.755L232.616 451.662L228.422 447.356L226.273 449.449ZM234.662 458.061L238.856 462.366L241.005 460.273L236.811 455.967L234.662 458.061ZM243.051 466.672L247.245 470.977L249.394 468.884L245.199 464.578L243.051 466.672ZM251.439 475.283L255.634 479.588L257.783 477.495L253.588 473.189L251.439 475.283ZM259.828 483.894L261.926 486.047L264.074 483.953L261.977 481.801L259.828 483.894ZM112 330L120.528 363.575L145.341 339.402L112 330ZM116.143 338.552L120.337 342.857L124.635 338.67L120.441 334.365L116.143 338.552ZM124.532 347.163L128.726 351.468L133.024 347.282L128.829 342.976L124.532 347.163ZM132.921 355.774L137.115 360.08L141.413 355.893L137.218 351.587L132.921 355.774ZM141.309 364.385L145.504 368.691L149.802 364.504L145.607 360.198L141.309 364.385ZM149.698 372.996L153.893 377.302L158.191 373.115L153.996 368.809L149.698 372.996ZM158.087 381.607L162.282 385.913L166.579 381.726L162.385 377.42L158.087 381.607ZM166.476 390.218L170.671 394.524L174.968 390.337L170.774 386.032L166.476 390.218ZM174.865 398.83L179.059 403.135L183.357 398.948L179.163 394.643L174.865 398.83ZM183.254 407.441L187.448 411.746L191.746 407.559L187.552 403.254L183.254 407.441ZM191.643 416.052L195.837 420.357L200.135 416.17L195.941 411.865L191.643 416.052ZM200.032 424.663L204.226 428.968L208.524 424.782L204.329 420.476L200.032 424.663ZM208.421 433.274L212.615 437.58L216.913 433.393L212.718 429.087L208.421 433.274ZM216.809 441.885L221.004 446.191L225.302 442.004L221.107 437.698L216.809 441.885ZM225.198 450.496L229.393 454.802L233.691 450.615L229.496 446.309L225.198 450.496ZM233.587 459.107L237.782 463.413L242.079 459.226L237.885 454.92L233.587 459.107ZM241.976 467.718L246.171 472.024L250.468 467.837L246.274 463.532L241.976 467.718ZM250.365 476.33L254.559 480.635L258.857 476.448L254.663 472.143L250.365 476.33ZM258.754 484.941L260.851 487.093L265.149 482.907L263.052 480.754L258.754 484.941Z" fill="#2FE120"/>
<path d="M301 341L283.679 371H318.321L301 341ZM298 368V468H304V368H298Z" fill="#4B90F3"/>
<path d="M213 144.015L243 161.335L213 178.656L213 144.015ZM273.902 255.5L223.902 168.897L229.098 165.897L279.098 252.5L273.902 255.5Z" fill="#4B90F3"/>
<path d="M169.5 144.015L139.5 161.335L169.5 178.656L169.5 144.015ZM108.598 255.5L158.598 168.897L153.402 165.897L103.402 252.5L108.598 255.5Z" fill="#4B90F3"/>
<path d="M353.192 439.003L353.143 442.002L353.192 439.003ZM375.799 457.888L378.775 457.51L378.775 457.51L375.799 457.888ZM343.656 491L378.192 493.692L363.255 462.437L343.656 491ZM328.985 475.019C329.817 466.798 332.537 458.305 336.809 451.987C341.075 445.68 346.605 441.894 353.143 442.002L353.242 436.003C343.978 435.85 336.784 441.315 331.839 448.626C326.901 455.928 323.926 465.422 323.015 474.414L328.985 475.019ZM353.143 442.002C365.69 442.209 371.803 450.24 372.823 458.266L378.775 457.51C377.414 446.801 369.043 436.264 353.242 436.003L353.143 442.002ZM372.823 458.266C373.596 464.35 371.94 471.325 365.921 477.212L370.116 481.501C377.582 474.2 379.766 465.311 378.775 457.51L372.823 458.266Z" fill="#4B90F3"/>
<rect x="256" y="468" width="90" height="90" rx="45" stroke="#4B90F3" stroke-width="6"/>
<path d="M288.745 496.496H300.601C302.745 496.496 304.681 496.848 306.409 497.552C308.169 498.256 309.657 499.312 310.873 500.72C312.121 502.096 313.081 503.84 313.753 505.952C314.425 508.032 314.761 510.464 314.761 513.248C314.761 516.032 314.425 518.48 313.753 520.592C313.081 522.672 312.121 524.416 310.873 525.824C309.657 527.2 308.169 528.24 306.409 528.944C304.681 529.648 302.745 530 300.601 530H288.745V496.496ZM300.601 525.2C303.097 525.2 305.113 524.416 306.649 522.848C308.185 521.28 308.953 518.976 308.953 515.936V510.56C308.953 507.52 308.185 505.216 306.649 503.648C305.113 502.08 303.097 501.296 300.601 501.296H294.169V525.2H300.601Z" fill="#4B90F3"/>
<path d="M353.192 219.003L353.143 222.002L353.192 219.003ZM375.799 237.888L378.775 237.51L378.775 237.51L375.799 237.888ZM343.656 271L378.192 273.692L363.255 242.437L343.656 271ZM328.985 255.019C329.817 246.798 332.537 238.305 336.809 231.987C341.075 225.68 346.605 221.894 353.143 222.002L353.242 216.003C343.978 215.85 336.784 221.315 331.839 228.626C326.901 235.928 323.926 245.422 323.015 254.414L328.985 255.019ZM353.143 222.002C365.69 222.209 371.803 230.24 372.823 238.266L378.775 237.51C377.414 226.801 369.043 216.264 353.242 216.003L353.143 222.002ZM372.823 238.266C373.596 244.35 371.94 251.325 365.921 257.212L370.116 261.501C377.582 254.2 379.766 245.311 378.775 237.51L372.823 238.266Z" fill="#4B90F3"/>
<rect x="256" y="248" width="90" height="90" rx="45" stroke="#4B90F3" stroke-width="6"/>
<path d="M302.493 310.576C298.109 310.576 294.669 309.104 292.173 306.16C289.677 303.184 288.429 298.88 288.429 293.248C288.429 290.432 288.749 287.952 289.389 285.808C290.029 283.664 290.957 281.856 292.173 280.384C293.389 278.912 294.861 277.808 296.589 277.072C298.349 276.304 300.317 275.92 302.493 275.92C305.405 275.92 307.837 276.56 309.789 277.84C311.773 279.12 313.325 281.008 314.445 283.504L309.885 286C309.309 284.4 308.413 283.136 307.197 282.208C306.013 281.248 304.445 280.768 302.493 280.768C299.901 280.768 297.869 281.648 296.397 283.408C294.925 285.168 294.189 287.6 294.189 290.704V295.792C294.189 298.896 294.925 301.328 296.397 303.088C297.869 304.848 299.901 305.728 302.493 305.728C304.509 305.728 306.141 305.216 307.389 304.192C308.669 303.136 309.613 301.792 310.221 300.16L314.589 302.8C313.469 305.232 311.901 307.136 309.885 308.512C307.869 309.888 305.405 310.576 302.493 310.576Z" fill="#4B90F3"/>
<path d="M4.04795 245.419L7.04343 245.255L4.04795 245.419ZM21.4171 221.489L20.8299 218.547L20.8299 218.547L21.4171 221.489ZM57 251.2L57.1556 216.559L27.0781 233.745L57 251.2ZM41.9793 267.001C33.6497 266.761 24.911 264.655 18.2507 260.842C11.598 257.032 7.40185 251.782 7.04343 245.255L1.05246 245.584C1.56141 254.853 7.57349 261.642 15.2693 266.048C22.9574 270.451 32.7076 272.737 41.8066 272.999L41.9793 267.001ZM7.04343 245.255C6.6923 238.86 8.50018 234.098 11.258 230.745C14.0453 227.357 17.9424 225.242 22.0043 224.431L20.8299 218.547C15.5596 219.599 10.3832 222.364 6.6244 226.934C2.83621 231.539 0.625582 237.81 1.05246 245.584L7.04343 245.255ZM22.0043 224.431C28.0931 223.216 35.254 224.38 41.6188 230.005L45.5923 225.51C37.7106 218.543 28.6054 216.995 20.8299 218.547L22.0043 224.431Z" fill="#4B90F3"/>
<rect x="36" y="248" width="90" height="90" rx="45" stroke="#4B90F3" stroke-width="6"/>
<path d="M69.3077 276.496H84.1397C86.9237 276.496 89.0997 277.28 90.6677 278.848C92.2677 280.416 93.0677 282.512 93.0677 285.136C93.0677 286.384 92.8917 287.456 92.5397 288.352C92.1877 289.216 91.7397 289.936 91.1957 290.512C90.6517 291.056 90.0277 291.472 89.3237 291.76C88.6197 292.016 87.9317 292.176 87.2597 292.24V292.528C87.9317 292.56 88.6677 292.72 89.4677 293.008C90.2997 293.296 91.0677 293.76 91.7717 294.4C92.4757 295.008 93.0677 295.808 93.5477 296.8C94.0277 297.76 94.2677 298.944 94.2677 300.352C94.2677 301.696 94.0437 302.96 93.5957 304.144C93.1797 305.328 92.5877 306.352 91.8197 307.216C91.0517 308.08 90.1397 308.768 89.0837 309.28C88.0277 309.76 86.8757 310 85.6277 310H69.3077V276.496ZM74.7317 305.344H84.0437C85.4517 305.344 86.5557 304.976 87.3557 304.24C88.1557 303.504 88.5557 302.448 88.5557 301.072V299.44C88.5557 298.064 88.1557 297.008 87.3557 296.272C86.5557 295.536 85.4517 295.168 84.0437 295.168H74.7317V305.344ZM74.7317 290.656H83.1317C84.4757 290.656 85.5157 290.32 86.2517 289.648C86.9877 288.944 87.3557 287.952 87.3557 286.672V285.136C87.3557 283.856 86.9877 282.88 86.2517 282.208C85.5157 281.504 84.4757 281.152 83.1317 281.152H74.7317V290.656Z" fill="#4B90F3"/>
<path d="M171.152 12.0738L173.352 14.1127L171.152 12.0738ZM200.428 7.9243L198.722 10.3915L200.428 7.9243ZM203.806 54.1571L228.816 30.1883L195.554 20.5135L203.806 54.1571ZM182.006 54.3438C176.388 48.1893 171.827 40.4433 169.938 33.0044C168.052 25.5739 168.909 18.9079 173.352 14.1127L168.951 10.0348C162.642 16.8438 161.941 25.8853 164.123 34.4807C166.303 43.0676 171.437 51.6659 177.574 58.3889L182.006 54.3438ZM173.352 14.1127C177.705 9.41511 182.385 7.404 186.712 7.05601C191.086 6.70431 195.315 8.0352 198.722 10.3915L202.135 5.45706C197.715 2.39973 192.129 0.601029 186.231 1.07532C180.288 1.55332 174.243 4.32377 168.951 10.0348L173.352 14.1127ZM198.722 10.3915C203.828 13.9237 207.969 19.8807 208.35 28.3667L214.344 28.0979C213.873 17.5893 208.656 9.96773 202.135 5.45706L198.722 10.3915Z" fill="#4B90F3"/>
<rect x="146" y="56" width="90" height="90" rx="45" stroke="#4B90F3" stroke-width="6"/>
<path d="M200.165 115L197.141 105.928H184.613L181.685 115H176.165L187.589 81.496H194.405L205.829 115H200.165ZM190.997 86.488H190.757L185.909 101.272H195.797L190.997 86.488Z" fill="#4B90F3"/>
</svg>
