<svg width="640" height="643" viewBox="0 0 640 643" fill="none" xmlns="http://www.w3.org/2000/svg">
<path d="M512 360L479.967 373.186L507.403 394.335L512 360ZM493.14 379.553L398.624 502.168L403.376 505.832L497.892 383.216L493.14 379.553Z" fill="#4B90F3"/>
<path d="M320 369L302.679 399H337.321L320 369ZM317 396V496H323V396H317Z" fill="#4B90F3"/>
<path d="M128 360L160.033 373.186L132.597 394.335L128 360ZM146.86 379.553L241.376 502.168L236.624 505.832L142.108 383.216L146.86 379.553Z" fill="#4B90F3"/>
<path d="M405 139L437.033 152.186L409.597 173.335L405 139ZM423.86 158.553L518.376 281.168L513.624 284.832L419.108 162.216L423.86 158.553Z" fill="#4B90F3"/>
<path d="M320 149L302.679 179H337.321L320 149ZM317 176V276H323V176H317Z" fill="#4B90F3"/>
<path d="M235 139L202.967 152.186L230.403 173.335L235 139ZM216.14 158.553L121.624 281.168L126.376 284.832L220.892 162.216L216.14 158.553Z" fill="#4B90F3"/>
<path d="M342.227 631.293L340.026 629.254L342.227 631.293ZM312.95 635.442L314.657 632.975L312.95 635.442ZM309.572 589.209L284.562 613.178L317.825 622.853L309.572 589.209ZM331.373 589.023C336.991 595.177 341.551 602.923 343.44 610.362C345.326 617.792 344.469 624.458 340.026 629.254L344.427 633.332C350.736 626.522 351.438 617.481 349.255 608.886C347.076 600.299 341.941 591.7 335.804 584.977L331.373 589.023ZM340.026 629.254C335.673 633.951 330.993 635.962 326.666 636.31C322.293 636.662 318.063 635.331 314.657 632.975L311.243 637.909C315.663 640.967 321.25 642.765 327.147 642.291C333.091 641.813 339.136 639.043 344.427 633.332L340.026 629.254ZM314.657 632.975C309.55 629.443 305.409 623.486 305.029 615L299.035 615.268C299.506 625.777 304.722 633.399 311.243 637.909L314.657 632.975Z" fill="#4B90F3"/>
<rect x="220" y="496" width="200" height="90" rx="45" stroke="#4B90F3" stroke-width="6"/>
<path d="M262.525 555.576C260.733 555.576 259.133 555.272 257.725 554.664C256.317 554.056 255.117 553.192 254.125 552.072C253.133 550.92 252.365 549.544 251.821 547.944C251.309 546.312 251.053 544.504 251.053 542.52C251.053 540.536 251.309 538.744 251.821 537.144C252.365 535.512 253.133 534.136 254.125 533.016C255.117 531.864 256.317 530.984 257.725 530.376C259.133 529.768 260.733 529.464 262.525 529.464C264.349 529.464 265.949 529.784 267.325 530.424C268.733 531.064 269.901 531.96 270.829 533.112C271.757 534.232 272.445 535.544 272.893 537.048C273.373 538.552 273.613 540.168 273.613 541.896V543.864H256.477V544.68C256.477 546.6 257.037 548.184 258.157 549.432C259.309 550.648 260.941 551.256 263.053 551.256C264.589 551.256 265.885 550.92 266.941 550.248C267.997 549.576 268.893 548.664 269.629 547.512L272.701 550.536C271.773 552.072 270.429 553.304 268.669 554.232C266.909 555.128 264.861 555.576 262.525 555.576ZM262.525 533.544C261.629 533.544 260.797 533.704 260.029 534.024C259.293 534.344 258.653 534.792 258.109 535.368C257.597 535.944 257.197 536.632 256.909 537.432C256.621 538.232 256.477 539.112 256.477 540.072V540.408H268.093V539.928C268.093 538.008 267.597 536.472 266.605 535.32C265.613 534.136 264.253 533.544 262.525 533.544ZM300.813 557.352C300.813 559.944 299.821 561.896 297.837 563.208C295.853 564.52 292.621 565.176 288.141 565.176C286.093 565.176 284.349 565.032 282.909 564.744C281.501 564.488 280.333 564.104 279.405 563.592C278.509 563.08 277.853 562.456 277.437 561.72C277.021 560.984 276.813 560.136 276.813 559.176C276.813 557.8 277.181 556.728 277.917 555.96C278.685 555.192 279.741 554.664 281.085 554.376V553.848C279.197 553.24 278.253 551.96 278.253 550.008C278.253 548.728 278.685 547.752 279.549 547.08C280.413 546.376 281.453 545.88 282.669 545.592V545.4C281.197 544.696 280.061 543.72 279.261 542.472C278.493 541.192 278.109 539.704 278.109 538.008C278.109 535.448 278.957 533.384 280.653 531.816C282.381 530.248 284.845 529.464 288.045 529.464C289.805 529.464 291.309 529.72 292.557 530.232V529.56C292.557 528.44 292.813 527.576 293.325 526.968C293.869 526.328 294.701 526.008 295.821 526.008H299.661V530.232H294.573V531.24C295.693 531.976 296.557 532.936 297.165 534.12C297.773 535.272 298.077 536.568 298.077 538.008C298.077 540.536 297.213 542.584 295.485 544.152C293.757 545.688 291.293 546.456 288.093 546.456C286.877 546.456 285.789 546.328 284.829 546.072C284.189 546.296 283.629 546.616 283.149 547.032C282.669 547.416 282.429 547.928 282.429 548.568C282.429 549.24 282.733 549.72 283.341 550.008C283.949 550.296 284.813 550.44 285.933 550.44H292.077C295.149 550.44 297.373 551.064 298.749 552.312C300.125 553.528 300.813 555.208 300.813 557.352ZM295.917 557.928C295.917 557.064 295.581 556.376 294.909 555.864C294.269 555.352 293.085 555.096 291.357 555.096H282.909C281.757 555.768 281.181 556.728 281.181 557.976C281.181 559 281.581 559.816 282.381 560.424C283.213 561.064 284.605 561.384 286.557 561.384H289.821C293.885 561.384 295.917 560.232 295.917 557.928ZM288.093 542.664C289.629 542.664 290.813 542.328 291.645 541.656C292.509 540.952 292.941 539.88 292.941 538.44V537.48C292.941 536.04 292.509 534.984 291.645 534.312C290.813 533.608 289.629 533.256 288.093 533.256C286.557 533.256 285.357 533.608 284.493 534.312C283.661 534.984 283.245 536.04 283.245 537.48V538.44C283.245 539.88 283.661 540.952 284.493 541.656C285.357 542.328 286.557 542.664 288.093 542.664ZM304.226 555V530.04H309.458V534.84H309.698C310.05 533.56 310.786 532.44 311.906 531.48C313.026 530.52 314.578 530.04 316.562 530.04H317.954V535.08H315.89C313.81 535.08 312.21 535.416 311.09 536.088C310.002 536.76 309.458 537.752 309.458 539.064V555H304.226ZM331.679 555.576C329.887 555.576 328.287 555.272 326.879 554.664C325.471 554.056 324.271 553.192 323.279 552.072C322.287 550.92 321.519 549.544 320.975 547.944C320.463 546.312 320.207 544.504 320.207 542.52C320.207 540.536 320.463 538.744 320.975 537.144C321.519 535.512 322.287 534.136 323.279 533.016C324.271 531.864 325.471 530.984 326.879 530.376C328.287 529.768 329.887 529.464 331.679 529.464C333.503 529.464 335.103 529.784 336.479 530.424C337.887 531.064 339.055 531.96 339.983 533.112C340.911 534.232 341.599 535.544 342.047 537.048C342.527 538.552 342.767 540.168 342.767 541.896V543.864H325.631V544.68C325.631 546.6 326.191 548.184 327.311 549.432C328.463 550.648 330.095 551.256 332.207 551.256C333.743 551.256 335.039 550.92 336.095 550.248C337.151 549.576 338.047 548.664 338.783 547.512L341.855 550.536C340.927 552.072 339.583 553.304 337.823 554.232C336.063 555.128 334.015 555.576 331.679 555.576ZM331.679 533.544C330.783 533.544 329.951 533.704 329.183 534.024C328.447 534.344 327.807 534.792 327.263 535.368C326.751 535.944 326.351 536.632 326.063 537.432C325.775 538.232 325.631 539.112 325.631 540.072V540.408H337.247V539.928C337.247 538.008 336.751 536.472 335.759 535.32C334.767 534.136 333.407 533.544 331.679 533.544ZM355.999 555.576C353.631 555.576 351.647 555.16 350.047 554.328C348.447 553.496 347.055 552.344 345.871 550.872L349.231 547.8C350.159 548.92 351.183 549.8 352.303 550.44C353.455 551.048 354.783 551.352 356.287 551.352C357.823 551.352 358.959 551.064 359.695 550.488C360.463 549.88 360.847 549.048 360.847 547.992C360.847 547.192 360.575 546.52 360.031 545.976C359.519 545.4 358.607 545.032 357.295 544.872L354.991 544.584C352.431 544.264 350.415 543.528 348.943 542.376C347.503 541.192 346.783 539.448 346.783 537.144C346.783 535.928 347.007 534.856 347.455 533.928C347.903 532.968 348.527 532.168 349.327 531.528C350.159 530.856 351.135 530.344 352.255 529.992C353.407 529.64 354.671 529.464 356.047 529.464C358.287 529.464 360.111 529.816 361.519 530.52C362.959 531.224 364.239 532.2 365.359 533.448L362.143 536.52C361.503 535.752 360.655 535.096 359.599 534.552C358.575 533.976 357.391 533.688 356.047 533.688C354.607 533.688 353.535 533.976 352.831 534.552C352.159 535.128 351.823 535.88 351.823 536.808C351.823 537.768 352.127 538.488 352.735 538.968C353.343 539.448 354.319 539.8 355.663 540.024L357.967 540.312C360.719 540.728 362.719 541.544 363.967 542.76C365.247 543.944 365.887 545.544 365.887 547.56C365.887 548.776 365.647 549.88 365.167 550.872C364.719 551.832 364.063 552.664 363.199 553.368C362.335 554.072 361.295 554.616 360.079 555C358.863 555.384 357.503 555.576 355.999 555.576ZM378.956 555.576C376.588 555.576 374.604 555.16 373.004 554.328C371.404 553.496 370.012 552.344 368.828 550.872L372.188 547.8C373.116 548.92 374.14 549.8 375.26 550.44C376.412 551.048 377.74 551.352 379.244 551.352C380.78 551.352 381.916 551.064 382.652 550.488C383.42 549.88 383.804 549.048 383.804 547.992C383.804 547.192 383.532 546.52 382.988 545.976C382.476 545.4 381.564 545.032 380.252 544.872L377.948 544.584C375.388 544.264 373.372 543.528 371.9 542.376C370.46 541.192 369.74 539.448 369.74 537.144C369.74 535.928 369.964 534.856 370.412 533.928C370.86 532.968 371.484 532.168 372.284 531.528C373.116 530.856 374.092 530.344 375.212 529.992C376.364 529.64 377.628 529.464 379.004 529.464C381.244 529.464 383.068 529.816 384.476 530.52C385.916 531.224 387.196 532.2 388.316 533.448L385.1 536.52C384.46 535.752 383.612 535.096 382.556 534.552C381.532 533.976 380.348 533.688 379.004 533.688C377.564 533.688 376.492 533.976 375.788 534.552C375.116 535.128 374.78 535.88 374.78 536.808C374.78 537.768 375.084 538.488 375.692 538.968C376.3 539.448 377.276 539.8 378.62 540.024L380.924 540.312C383.676 540.728 385.676 541.544 386.924 542.76C388.204 543.944 388.844 545.544 388.844 547.56C388.844 548.776 388.604 549.88 388.124 550.872C387.676 551.832 387.02 552.664 386.156 553.368C385.292 554.072 384.252 554.616 383.036 555C381.82 555.384 380.46 555.576 378.956 555.576Z" fill="#4B90F3"/>
<path d="M627.624 300.882L625.626 303.121L625.626 303.121L627.624 300.882ZM632.391 329.806L634.894 331.46L634.894 331.46L632.391 329.806ZM586.729 333.89L611.179 358.429L620.206 324.985L586.729 333.89ZM586.066 312.319C592.022 306.664 599.573 302.029 606.88 300.043C614.175 298.06 620.783 298.798 625.626 303.121L629.621 298.644C622.741 292.505 613.774 291.951 605.306 294.253C596.851 296.551 588.452 301.779 581.934 307.969L586.066 312.319ZM625.626 303.121C634.928 311.421 634.323 321.441 629.888 328.152L634.894 331.46C640.817 322.498 641.35 309.11 629.621 298.644L625.626 303.121ZM629.888 328.152C626.548 333.205 620.838 337.361 612.589 337.933L613.004 343.918C623.263 343.207 630.608 337.945 634.894 331.46L629.888 328.152Z" fill="#4B90F3"/>
<rect x="495" y="276" width="90" height="90" rx="45" stroke="#4B90F3" stroke-width="6"/>
<path d="M541.493 338.576C537.109 338.576 533.669 337.104 531.173 334.16C528.677 331.184 527.429 326.88 527.429 321.248C527.429 318.432 527.749 315.952 528.389 313.808C529.029 311.664 529.957 309.856 531.173 308.384C532.389 306.912 533.861 305.808 535.589 305.072C537.349 304.304 539.317 303.92 541.493 303.92C544.405 303.92 546.837 304.56 548.789 305.84C550.773 307.12 552.325 309.008 553.445 311.504L548.885 314C548.309 312.4 547.413 311.136 546.197 310.208C545.013 309.248 543.445 308.768 541.493 308.768C538.901 308.768 536.869 309.648 535.397 311.408C533.925 313.168 533.189 315.6 533.189 318.704V323.792C533.189 326.896 533.925 329.328 535.397 331.088C536.869 332.848 538.901 333.728 541.493 333.728C543.509 333.728 545.141 333.216 546.389 332.192C547.669 331.136 548.613 329.792 549.221 328.16L553.589 330.8C552.469 333.232 550.901 335.136 548.885 336.512C546.869 337.888 544.405 338.576 541.493 338.576Z" fill="#4B90F3"/>
<path d="M407.624 300.882L405.626 303.121L405.626 303.121L407.624 300.882ZM412.391 329.806L414.894 331.46L414.894 331.46L412.391 329.806ZM366.729 333.89L391.179 358.429L400.206 324.985L366.729 333.89ZM366.066 312.319C372.022 306.664 379.573 302.029 386.88 300.043C394.175 298.06 400.783 298.798 405.626 303.121L409.621 298.644C402.741 292.505 393.774 291.951 385.306 294.253C376.851 296.551 368.452 301.779 361.934 307.969L366.066 312.319ZM405.626 303.121C414.928 311.421 414.323 321.441 409.888 328.152L414.894 331.46C420.817 322.498 421.35 309.11 409.621 298.644L405.626 303.121ZM409.888 328.152C406.548 333.205 400.838 337.361 392.589 337.933L393.004 343.918C403.263 343.207 410.608 337.945 414.894 331.46L409.888 328.152Z" fill="#4B90F3"/>
<rect x="275" y="276" width="90" height="90" rx="45" stroke="#4B90F3" stroke-width="6"/>
<path d="M308.308 304.496H323.14C325.924 304.496 328.1 305.28 329.668 306.848C331.268 308.416 332.068 310.512 332.068 313.136C332.068 314.384 331.892 315.456 331.54 316.352C331.188 317.216 330.74 317.936 330.196 318.512C329.652 319.056 329.028 319.472 328.324 319.76C327.62 320.016 326.932 320.176 326.26 320.24V320.528C326.932 320.56 327.668 320.72 328.468 321.008C329.3 321.296 330.068 321.76 330.772 322.4C331.476 323.008 332.068 323.808 332.548 324.8C333.028 325.76 333.268 326.944 333.268 328.352C333.268 329.696 333.044 330.96 332.596 332.144C332.18 333.328 331.588 334.352 330.82 335.216C330.052 336.08 329.14 336.768 328.084 337.28C327.028 337.76 325.876 338 324.628 338H308.308V304.496ZM313.732 333.344H323.044C324.452 333.344 325.556 332.976 326.356 332.24C327.156 331.504 327.556 330.448 327.556 329.072V327.44C327.556 326.064 327.156 325.008 326.356 324.272C325.556 323.536 324.452 323.168 323.044 323.168H313.732V333.344ZM313.732 318.656H322.132C323.476 318.656 324.516 318.32 325.252 317.648C325.988 316.944 326.356 315.952 326.356 314.672V313.136C326.356 311.856 325.988 310.88 325.252 310.208C324.516 309.504 323.476 309.152 322.132 309.152H313.732V318.656Z" fill="#4B90F3"/>
<path d="M187.624 300.882L185.626 303.121L185.626 303.121L187.624 300.882ZM192.391 329.806L194.894 331.46L194.894 331.46L192.391 329.806ZM146.729 333.89L171.179 358.429L180.206 324.985L146.729 333.89ZM146.066 312.319C152.022 306.664 159.573 302.029 166.88 300.043C174.175 298.06 180.783 298.798 185.626 303.121L189.621 298.644C182.741 292.505 173.774 291.951 165.306 294.253C156.851 296.551 148.452 301.779 141.934 307.969L146.066 312.319ZM185.626 303.121C194.928 311.421 194.323 321.441 189.888 328.152L194.894 331.46C200.817 322.498 201.35 309.11 189.621 298.644L185.626 303.121ZM189.888 328.152C186.548 333.205 180.838 337.361 172.589 337.933L173.004 343.918C183.263 343.207 190.608 337.945 194.894 331.46L189.888 328.152Z" fill="#4B90F3"/>
<rect x="55" y="276" width="90" height="90" rx="45" stroke="#4B90F3" stroke-width="6"/>
<path d="M109.165 338L106.141 328.928H93.6134L90.6854 338H85.1654L96.5894 304.496H103.405L114.829 338H109.165ZM99.9974 309.488H99.7574L94.9094 324.272H104.797L99.9974 309.488Z" fill="#4B90F3"/>
<path d="M298.152 12.0738L300.352 14.1127L298.152 12.0738ZM327.428 7.9243L325.722 10.3915L327.428 7.9243ZM330.806 54.1571L355.816 30.1883L322.554 20.5135L330.806 54.1571ZM309.006 54.3438C303.388 48.1893 298.827 40.4433 296.938 33.0044C295.052 25.5739 295.909 18.9079 300.352 14.1127L295.951 10.0348C289.642 16.8438 288.941 25.8853 291.123 34.4807C293.303 43.0676 298.437 51.6659 304.574 58.3889L309.006 54.3438ZM300.352 14.1127C304.705 9.41511 309.385 7.404 313.712 7.05601C318.086 6.70431 322.315 8.0352 325.722 10.3915L329.135 5.45706C324.715 2.39973 319.129 0.601029 313.231 1.07532C307.288 1.55332 301.243 4.32377 295.951 10.0348L300.352 14.1127ZM325.722 10.3915C330.828 13.9237 334.969 19.8807 335.35 28.3667L341.344 28.0979C340.873 17.5893 335.656 9.96773 329.135 5.45706L325.722 10.3915Z" fill="#4B90F3"/>
<rect x="220" y="56" width="200" height="90" rx="45" stroke="#4B90F3" stroke-width="6"/>
<path d="M262.525 115.576C260.733 115.576 259.133 115.272 257.725 114.664C256.317 114.056 255.117 113.192 254.125 112.072C253.133 110.92 252.365 109.544 251.821 107.944C251.309 106.312 251.053 104.504 251.053 102.52C251.053 100.536 251.309 98.744 251.821 97.144C252.365 95.512 253.133 94.136 254.125 93.016C255.117 91.864 256.317 90.984 257.725 90.376C259.133 89.768 260.733 89.464 262.525 89.464C264.349 89.464 265.949 89.784 267.325 90.424C268.733 91.064 269.901 91.96 270.829 93.112C271.757 94.232 272.445 95.544 272.893 97.048C273.373 98.552 273.613 100.168 273.613 101.896V103.864H256.477V104.68C256.477 106.6 257.037 108.184 258.157 109.432C259.309 110.648 260.941 111.256 263.053 111.256C264.589 111.256 265.885 110.92 266.941 110.248C267.997 109.576 268.893 108.664 269.629 107.512L272.701 110.536C271.773 112.072 270.429 113.304 268.669 114.232C266.909 115.128 264.861 115.576 262.525 115.576ZM262.525 93.544C261.629 93.544 260.797 93.704 260.029 94.024C259.293 94.344 258.653 94.792 258.109 95.368C257.597 95.944 257.197 96.632 256.909 97.432C256.621 98.232 256.477 99.112 256.477 100.072V100.408H268.093V99.928C268.093 98.008 267.597 96.472 266.605 95.32C265.613 94.136 264.253 93.544 262.525 93.544ZM300.813 117.352C300.813 119.944 299.821 121.896 297.837 123.208C295.853 124.52 292.621 125.176 288.141 125.176C286.093 125.176 284.349 125.032 282.909 124.744C281.501 124.488 280.333 124.104 279.405 123.592C278.509 123.08 277.853 122.456 277.437 121.72C277.021 120.984 276.813 120.136 276.813 119.176C276.813 117.8 277.181 116.728 277.917 115.96C278.685 115.192 279.741 114.664 281.085 114.376V113.848C279.197 113.24 278.253 111.96 278.253 110.008C278.253 108.728 278.685 107.752 279.549 107.08C280.413 106.376 281.453 105.88 282.669 105.592V105.4C281.197 104.696 280.061 103.72 279.261 102.472C278.493 101.192 278.109 99.704 278.109 98.008C278.109 95.448 278.957 93.384 280.653 91.816C282.381 90.248 284.845 89.464 288.045 89.464C289.805 89.464 291.309 89.72 292.557 90.232V89.56C292.557 88.44 292.813 87.576 293.325 86.968C293.869 86.328 294.701 86.008 295.821 86.008H299.661V90.232H294.573V91.24C295.693 91.976 296.557 92.936 297.165 94.12C297.773 95.272 298.077 96.568 298.077 98.008C298.077 100.536 297.213 102.584 295.485 104.152C293.757 105.688 291.293 106.456 288.093 106.456C286.877 106.456 285.789 106.328 284.829 106.072C284.189 106.296 283.629 106.616 283.149 107.032C282.669 107.416 282.429 107.928 282.429 108.568C282.429 109.24 282.733 109.72 283.341 110.008C283.949 110.296 284.813 110.44 285.933 110.44H292.077C295.149 110.44 297.373 111.064 298.749 112.312C300.125 113.528 300.813 115.208 300.813 117.352ZM295.917 117.928C295.917 117.064 295.581 116.376 294.909 115.864C294.269 115.352 293.085 115.096 291.357 115.096H282.909C281.757 115.768 281.181 116.728 281.181 117.976C281.181 119 281.581 119.816 282.381 120.424C283.213 121.064 284.605 121.384 286.557 121.384H289.821C293.885 121.384 295.917 120.232 295.917 117.928ZM288.093 102.664C289.629 102.664 290.813 102.328 291.645 101.656C292.509 100.952 292.941 99.88 292.941 98.44V97.48C292.941 96.04 292.509 94.984 291.645 94.312C290.813 93.608 289.629 93.256 288.093 93.256C286.557 93.256 285.357 93.608 284.493 94.312C283.661 94.984 283.245 96.04 283.245 97.48V98.44C283.245 99.88 283.661 100.952 284.493 101.656C285.357 102.328 286.557 102.664 288.093 102.664ZM304.226 115V90.04H309.458V94.84H309.698C310.05 93.56 310.786 92.44 311.906 91.48C313.026 90.52 314.578 90.04 316.562 90.04H317.954V95.08H315.89C313.81 95.08 312.21 95.416 311.09 96.088C310.002 96.76 309.458 97.752 309.458 99.064V115H304.226ZM331.679 115.576C329.887 115.576 328.287 115.272 326.879 114.664C325.471 114.056 324.271 113.192 323.279 112.072C322.287 110.92 321.519 109.544 320.975 107.944C320.463 106.312 320.207 104.504 320.207 102.52C320.207 100.536 320.463 98.744 320.975 97.144C321.519 95.512 322.287 94.136 323.279 93.016C324.271 91.864 325.471 90.984 326.879 90.376C328.287 89.768 329.887 89.464 331.679 89.464C333.503 89.464 335.103 89.784 336.479 90.424C337.887 91.064 339.055 91.96 339.983 93.112C340.911 94.232 341.599 95.544 342.047 97.048C342.527 98.552 342.767 100.168 342.767 101.896V103.864H325.631V104.68C325.631 106.6 326.191 108.184 327.311 109.432C328.463 110.648 330.095 111.256 332.207 111.256C333.743 111.256 335.039 110.92 336.095 110.248C337.151 109.576 338.047 108.664 338.783 107.512L341.855 110.536C340.927 112.072 339.583 113.304 337.823 114.232C336.063 115.128 334.015 115.576 331.679 115.576ZM331.679 93.544C330.783 93.544 329.951 93.704 329.183 94.024C328.447 94.344 327.807 94.792 327.263 95.368C326.751 95.944 326.351 96.632 326.063 97.432C325.775 98.232 325.631 99.112 325.631 100.072V100.408H337.247V99.928C337.247 98.008 336.751 96.472 335.759 95.32C334.767 94.136 333.407 93.544 331.679 93.544ZM355.999 115.576C353.631 115.576 351.647 115.16 350.047 114.328C348.447 113.496 347.055 112.344 345.871 110.872L349.231 107.8C350.159 108.92 351.183 109.8 352.303 110.44C353.455 111.048 354.783 111.352 356.287 111.352C357.823 111.352 358.959 111.064 359.695 110.488C360.463 109.88 360.847 109.048 360.847 107.992C360.847 107.192 360.575 106.52 360.031 105.976C359.519 105.4 358.607 105.032 357.295 104.872L354.991 104.584C352.431 104.264 350.415 103.528 348.943 102.376C347.503 101.192 346.783 99.448 346.783 97.144C346.783 95.928 347.007 94.856 347.455 93.928C347.903 92.968 348.527 92.168 349.327 91.528C350.159 90.856 351.135 90.344 352.255 89.992C353.407 89.64 354.671 89.464 356.047 89.464C358.287 89.464 360.111 89.816 361.519 90.52C362.959 91.224 364.239 92.2 365.359 93.448L362.143 96.52C361.503 95.752 360.655 95.096 359.599 94.552C358.575 93.976 357.391 93.688 356.047 93.688C354.607 93.688 353.535 93.976 352.831 94.552C352.159 95.128 351.823 95.88 351.823 96.808C351.823 97.768 352.127 98.488 352.735 98.968C353.343 99.448 354.319 99.8 355.663 100.024L357.967 100.312C360.719 100.728 362.719 101.544 363.967 102.76C365.247 103.944 365.887 105.544 365.887 107.56C365.887 108.776 365.647 109.88 365.167 110.872C364.719 111.832 364.063 112.664 363.199 113.368C362.335 114.072 361.295 114.616 360.079 115C358.863 115.384 357.503 115.576 355.999 115.576ZM378.956 115.576C376.588 115.576 374.604 115.16 373.004 114.328C371.404 113.496 370.012 112.344 368.828 110.872L372.188 107.8C373.116 108.92 374.14 109.8 375.26 110.44C376.412 111.048 377.74 111.352 379.244 111.352C380.78 111.352 381.916 111.064 382.652 110.488C383.42 109.88 383.804 109.048 383.804 107.992C383.804 107.192 383.532 106.52 382.988 105.976C382.476 105.4 381.564 105.032 380.252 104.872L377.948 104.584C375.388 104.264 373.372 103.528 371.9 102.376C370.46 101.192 369.74 99.448 369.74 97.144C369.74 95.928 369.964 94.856 370.412 93.928C370.86 92.968 371.484 92.168 372.284 91.528C373.116 90.856 374.092 90.344 375.212 89.992C376.364 89.64 377.628 89.464 379.004 89.464C381.244 89.464 383.068 89.816 384.476 90.52C385.916 91.224 387.196 92.2 388.316 93.448L385.1 96.52C384.46 95.752 383.612 95.096 382.556 94.552C381.532 93.976 380.348 93.688 379.004 93.688C377.564 93.688 376.492 93.976 375.788 94.552C375.116 95.128 374.78 95.88 374.78 96.808C374.78 97.768 375.084 98.488 375.692 98.968C376.3 99.448 377.276 99.8 378.62 100.024L380.924 100.312C383.676 100.728 385.676 101.544 386.924 102.76C388.204 103.944 388.844 105.544 388.844 107.56C388.844 108.776 388.604 109.88 388.124 110.872C387.676 111.832 387.02 112.664 386.156 113.368C385.292 114.072 384.252 114.616 383.036 115C381.82 115.384 380.46 115.576 378.956 115.576Z" fill="#4B90F3"/>
</svg>
