<svg width="1300" height="388" viewBox="0 0 1300 388" fill="none" xmlns="http://www.w3.org/2000/svg">
<path d="M565 362L576.822 374.659L581.874 358.092L565 362ZM573.185 366.013C575.128 366.576 577.049 367.12 578.948 367.644L579.746 364.753C577.86 364.232 575.952 363.691 574.02 363.132L573.185 366.013ZM584.734 369.199C586.692 369.71 588.629 370.2 590.546 370.669L591.258 367.754C589.357 367.29 587.435 366.804 585.492 366.296L584.734 369.199ZM596.383 372.043C598.356 372.489 600.31 372.912 602.247 373.311L602.853 370.373C600.935 369.977 599 369.559 597.045 369.116L596.383 372.043ZM608.136 374.464C610.122 374.831 612.093 375.173 614.05 375.49L614.529 372.528C612.595 372.215 610.646 371.877 608.681 371.514L608.136 374.464ZM619.987 376.379C621.984 376.653 623.97 376.901 625.947 377.122L626.28 374.141C624.329 373.923 622.368 373.678 620.396 373.407L619.987 376.379ZM631.932 377.712C633.936 377.882 635.934 378.025 637.929 378.14L638.102 375.145C636.135 375.032 634.164 374.891 632.186 374.723L631.932 377.712ZM643.935 378.403C645.939 378.463 647.941 378.495 649.947 378.5L649.953 375.5C647.975 375.495 646 375.464 644.025 375.405L643.935 378.403ZM655.959 378.429C657.955 378.378 659.956 378.301 661.966 378.196L661.809 375.2C659.826 375.303 657.852 375.38 655.883 375.43L655.959 378.429ZM667.96 377.805C669.942 377.65 671.935 377.47 673.941 377.264L673.634 374.279C671.652 374.483 669.684 374.661 667.726 374.814L667.96 377.805ZM679.906 376.582C681.873 376.334 683.855 376.063 685.854 375.769L685.417 372.801C683.438 373.092 681.477 373.361 679.532 373.605L679.906 376.582ZM691.783 374.835C693.734 374.509 695.702 374.161 697.692 373.792L697.144 370.842C695.172 371.208 693.221 371.553 691.288 371.876L691.783 374.835ZM703.579 372.649C705.513 372.258 707.468 371.848 709.445 371.418L708.808 368.487C706.844 368.913 704.904 369.321 702.984 369.709L703.579 372.649ZM715.29 370.108C717.209 369.665 719.15 369.205 721.115 368.728L720.407 365.812C718.453 366.287 716.523 366.745 714.615 367.185L715.29 370.108ZM726.922 367.285C728.829 366.802 730.758 366.303 732.712 365.788L731.948 362.887C730.003 363.399 728.082 363.896 726.184 364.377L726.922 367.285ZM738.489 364.242C739.453 363.981 740.423 363.715 741.399 363.446L740.601 360.554C739.629 360.822 738.662 361.086 737.702 361.347L738.489 364.242ZM565 362L588.643 387.318L598.748 354.184L565 362ZM572.768 367.454C574.717 368.019 576.643 368.564 578.549 369.09L580.146 363.307C578.265 362.788 576.363 362.249 574.438 361.691L572.768 367.454ZM584.355 370.651C586.321 371.164 588.265 371.655 590.19 372.126L591.614 366.297C589.721 365.834 587.807 365.35 585.871 364.845L584.355 370.651ZM596.052 373.506C598.034 373.954 599.997 374.379 601.944 374.78L603.156 368.904C601.248 368.51 599.322 368.094 597.376 367.653L596.052 373.506ZM607.863 375.939C609.86 376.308 611.842 376.652 613.81 376.97L614.769 371.047C612.846 370.736 610.908 370.4 608.954 370.039L607.863 375.939ZM619.783 377.865C621.792 378.141 623.791 378.39 625.78 378.613L626.447 372.65C624.508 372.433 622.56 372.19 620.6 371.921L619.783 377.865ZM631.804 379.206C633.823 379.378 635.834 379.522 637.843 379.638L638.188 373.648C636.235 373.535 634.277 373.395 632.313 373.228L631.804 379.206ZM643.89 379.903C645.908 379.963 647.924 379.995 649.943 380L649.956 374C647.992 373.995 646.031 373.964 644.07 373.905L643.89 379.903ZM655.997 379.929C658.007 379.878 660.021 379.799 662.044 379.694L661.731 373.702C659.761 373.805 657.8 373.881 655.845 373.931L655.997 379.929ZM668.076 379.3C670.071 379.144 672.076 378.963 674.094 378.756L673.481 372.787C671.511 372.989 669.554 373.167 667.61 373.318L668.076 379.3ZM680.094 378.07C682.071 377.821 684.064 377.549 686.073 377.253L685.198 371.317C683.229 371.607 681.279 371.874 679.345 372.117L680.094 378.07ZM692.031 376.314C693.99 375.987 695.968 375.637 697.965 375.267L696.871 369.367C694.906 369.732 692.964 370.075 691.041 370.397L692.031 376.314ZM703.876 374.12C705.818 373.727 707.779 373.315 709.763 372.884L708.49 367.021C706.533 367.446 704.599 367.852 702.687 368.239L703.876 374.12ZM715.627 371.57C717.552 371.125 719.499 370.664 721.469 370.185L720.053 364.355C718.104 364.828 716.18 365.284 714.278 365.723L715.627 371.57ZM727.29 368.739C729.202 368.254 731.136 367.754 733.094 367.239L731.566 361.436C729.625 361.948 727.708 362.443 725.815 362.924L727.29 368.739ZM738.882 365.69C739.848 365.428 740.819 365.162 741.797 364.892L740.203 359.108C739.232 359.375 738.267 359.639 737.309 359.9L738.882 365.69Z" fill="#14BF06"/>
<path d="M735 280L723.178 267.341L718.126 283.908L735 280ZM726.815 275.987C724.872 275.424 722.951 274.88 721.052 274.356L720.254 277.247C722.14 277.768 724.048 278.309 725.98 278.868L726.815 275.987ZM715.266 272.801C713.308 272.29 711.371 271.8 709.454 271.331L708.742 274.246C710.643 274.71 712.565 275.196 714.508 275.704L715.266 272.801ZM703.617 269.957C701.644 269.511 699.69 269.088 697.753 268.689L697.147 271.627C699.065 272.023 701 272.441 702.955 272.884L703.617 269.957ZM691.864 267.536C689.878 267.169 687.907 266.827 685.95 266.51L685.471 269.472C687.405 269.785 689.354 270.123 691.319 270.486L691.864 267.536ZM680.013 265.621C678.016 265.347 676.03 265.099 674.053 264.878L673.72 267.859C675.671 268.077 677.632 268.322 679.604 268.593L680.013 265.621ZM668.068 264.288C666.064 264.118 664.066 263.975 662.071 263.86L661.898 266.855C663.865 266.968 665.836 267.109 667.814 267.277L668.068 264.288ZM656.065 263.597C654.061 263.537 652.059 263.505 650.053 263.5L650.047 266.5C652.025 266.505 654 266.536 655.975 266.595L656.065 263.597ZM644.041 263.571C642.045 263.622 640.044 263.699 638.034 263.804L638.191 266.8C640.174 266.697 642.148 266.62 644.117 266.57L644.041 263.571ZM632.04 264.195C630.058 264.35 628.065 264.53 626.059 264.736L626.366 267.721C628.348 267.517 630.316 267.339 632.274 267.186L632.04 264.195ZM620.094 265.418C618.127 265.666 616.145 265.937 614.146 266.231L614.583 269.199C616.562 268.908 618.523 268.639 620.468 268.395L620.094 265.418ZM608.217 267.165C606.266 267.491 604.298 267.839 602.308 268.208L602.856 271.158C604.828 270.792 606.779 270.447 608.712 270.124L608.217 267.165ZM596.421 269.351C594.487 269.742 592.532 270.152 590.555 270.582L591.192 273.513C593.156 273.087 595.096 272.679 597.016 272.291L596.421 269.351ZM584.71 271.892C582.791 272.335 580.85 272.795 578.885 273.272L579.593 276.188C581.547 275.713 583.477 275.255 585.385 274.815L584.71 271.892ZM573.078 274.715C571.171 275.198 569.242 275.697 567.288 276.212L568.052 279.113C569.997 278.601 571.918 278.104 573.816 277.623L573.078 274.715ZM561.511 277.758C560.547 278.019 559.577 278.285 558.601 278.554L559.399 281.446C560.371 281.178 561.338 280.914 562.298 280.653L561.511 277.758ZM735 280L711.357 254.682L701.252 287.816L735 280ZM727.232 274.546C725.283 273.981 723.357 273.436 721.451 272.91L719.854 278.693C721.735 279.212 723.637 279.751 725.562 280.309L727.232 274.546ZM715.645 271.349C713.679 270.836 711.735 270.345 709.81 269.874L708.386 275.703C710.279 276.166 712.193 276.65 714.129 277.155L715.645 271.349ZM703.948 268.494C701.966 268.046 700.003 267.621 698.056 267.22L696.844 273.096C698.752 273.49 700.678 273.906 702.624 274.347L703.948 268.494ZM692.137 266.061C690.14 265.692 688.158 265.348 686.19 265.03L685.231 270.953C687.154 271.264 689.092 271.6 691.046 271.961L692.137 266.061ZM680.217 264.135C678.208 263.859 676.209 263.61 674.22 263.387L673.553 269.35C675.492 269.567 677.44 269.81 679.4 270.079L680.217 264.135ZM668.196 262.794C666.177 262.622 664.166 262.478 662.157 262.362L661.812 268.352C663.765 268.465 665.723 268.605 667.687 268.772L668.196 262.794ZM656.11 262.097C654.092 262.037 652.076 262.005 650.057 262L650.044 268C652.008 268.005 653.969 268.036 655.93 268.095L656.11 262.097ZM644.003 262.071C641.993 262.122 639.979 262.201 637.956 262.306L638.269 268.298C640.239 268.195 642.2 268.119 644.155 268.069L644.003 262.071ZM631.924 262.7C629.929 262.856 627.924 263.037 625.906 263.244L626.519 269.213C628.489 269.011 630.446 268.833 632.39 268.682L631.924 262.7ZM619.906 263.93C617.929 264.179 615.936 264.451 613.927 264.747L614.802 270.683C616.771 270.393 618.721 270.126 620.655 269.883L619.906 263.93ZM607.969 265.686C606.01 266.013 604.032 266.363 602.035 266.733L603.129 272.633C605.094 272.268 607.036 271.925 608.959 271.603L607.969 265.686ZM596.124 267.88C594.182 268.273 592.221 268.685 590.237 269.116L591.51 274.979C593.467 274.554 595.401 274.148 597.313 273.761L596.124 267.88ZM584.373 270.43C582.448 270.875 580.501 271.336 578.531 271.815L579.947 277.645C581.896 277.172 583.82 276.716 585.722 276.277L584.373 270.43ZM572.71 273.261C570.798 273.746 568.864 274.246 566.906 274.761L568.434 280.564C570.375 280.052 572.292 279.557 574.185 279.076L572.71 273.261ZM561.118 276.31C560.152 276.572 559.181 276.838 558.203 277.108L559.797 282.892C560.768 282.625 561.733 282.361 562.691 282.1L561.118 276.31Z" fill="#14BF06"/>
<path d="M432 114L466.018 107.46L454.673 140.191L432 114ZM650.5 144V141V144ZM458.323 119.955C489.24 128.72 550.411 141 650.5 141V147C549.919 147 488.191 134.659 456.686 125.727L458.323 119.955ZM650.5 141C728.625 141 783.038 133.518 817.859 126.066C835.27 122.34 847.785 118.621 855.918 115.848C859.984 114.461 862.955 113.311 864.896 112.514C865.866 112.115 866.579 111.805 867.042 111.598C867.274 111.495 867.443 111.417 867.551 111.367C867.605 111.342 867.643 111.323 867.667 111.312C867.678 111.307 867.686 111.303 867.69 111.301C867.692 111.3 867.693 111.3 867.693 111.299C867.694 111.299 867.693 111.3 867.693 111.3C867.692 111.3 867.691 111.301 869 114C870.309 116.699 870.307 116.7 870.306 116.701C870.305 116.701 870.303 116.702 870.301 116.703C870.297 116.705 870.293 116.707 870.287 116.71C870.276 116.715 870.261 116.722 870.243 116.731C870.205 116.749 870.153 116.774 870.085 116.805C869.949 116.869 869.751 116.959 869.492 117.076C868.972 117.308 868.203 117.642 867.175 118.064C865.121 118.908 862.035 120.101 857.854 121.527C849.492 124.379 836.75 128.16 819.115 131.934C783.845 139.482 729.008 147 650.5 147V141Z" fill="#4B90F3"/>
<path d="M867 89L832.982 95.5397L844.327 62.8093L867 89ZM648.5 59L648.5 62L648.5 59ZM840.677 83.0455C809.76 74.2797 748.589 62 648.5 62L648.5 56C749.081 56 810.809 68.3405 842.314 77.273L840.677 83.0455ZM648.5 62C570.375 62 515.962 69.4816 481.141 76.9336C463.73 80.6596 451.215 84.3785 443.082 87.1519C439.016 88.5387 436.045 89.6891 434.104 90.4861C433.134 90.8845 432.421 91.1946 431.958 91.4017C431.726 91.5053 431.557 91.5831 431.449 91.6333C431.395 91.6584 431.357 91.6766 431.333 91.6877C431.322 91.6933 431.314 91.697 431.31 91.699C431.308 91.7 431.307 91.7005 431.307 91.7005C431.306 91.7006 431.307 91.7003 431.307 91.7003C431.308 91.6999 431.309 91.6994 430 89C428.691 86.3006 428.693 86.2999 428.694 86.299C428.695 86.2986 428.697 86.2976 428.699 86.2967C428.703 86.295 428.707 86.2928 428.713 86.2901C428.724 86.2848 428.739 86.2777 428.757 86.2688C428.795 86.251 428.847 86.2262 428.915 86.1946C429.051 86.1313 429.249 86.0406 429.508 85.9244C430.028 85.6921 430.797 85.3577 431.825 84.9358C433.879 84.0921 436.965 82.8988 441.146 81.4731C449.508 78.6215 462.25 74.8404 479.885 71.0664C515.155 63.5184 569.992 56 648.5 56L648.5 62Z" fill="#4B90F3"/>
<path d="M1068 144.039L1100.03 157.223L1072.6 178.373L1068 144.039ZM1086.86 163.59L1177.48 281.13L1172.72 284.793L1082.11 167.254L1086.86 163.59Z" fill="#4B90F3"/>
<path d="M980 149L962.679 179H997.321L980 149ZM977 176V276H983V176H977Z" fill="#4B90F3"/>
<path d="M891.05 144.039L859.016 157.223L886.451 178.373L891.05 144.039ZM872.189 163.59L781.574 281.13L786.326 284.793L876.941 167.254L872.189 163.59Z" fill="#4B90F3"/>
<path d="M408 144.039L440.034 157.223L412.599 178.373L408 144.039ZM426.861 163.59L517.477 281.13L512.725 284.793L422.109 167.254L426.861 163.59Z" fill="#4B90F3"/>
<path d="M320 149L302.679 179H337.321L320 149ZM317 176V276H323V176H317Z" fill="#4B90F3"/>
<path d="M231.05 144.039L199.016 157.223L226.451 178.373L231.05 144.039ZM212.189 163.59L121.574 281.13L126.326 284.793L216.941 167.254L212.189 163.59Z" fill="#4B90F3"/>
<path d="M1287.62 300.882L1285.63 303.121L1287.62 300.882ZM1292.39 329.806L1294.89 331.46L1292.39 329.806ZM1246.73 333.89L1271.18 358.429L1280.21 324.985L1246.73 333.89ZM1246.07 312.319C1252.02 306.664 1259.57 302.029 1266.88 300.043C1274.18 298.06 1280.78 298.798 1285.63 303.121L1289.62 298.644C1282.74 292.505 1273.77 291.951 1265.31 294.253C1256.85 296.551 1248.45 301.779 1241.93 307.969L1246.07 312.319ZM1285.63 303.121C1294.93 311.421 1294.32 321.441 1289.89 328.152L1294.89 331.46C1300.82 322.498 1301.35 309.11 1289.62 298.644L1285.63 303.121ZM1289.89 328.152C1286.55 333.205 1280.84 337.361 1272.59 337.933L1273 343.918C1283.26 343.207 1290.61 337.945 1294.89 331.46L1289.89 328.152Z" fill="#4B90F3"/>
<rect x="1155" y="276" width="90" height="90" rx="45" stroke="#4B90F3" stroke-width="6"/>
<path d="M1190.44 338V304.496H1211.37V309.296H1195.86V318.608H1209.64V323.408H1195.86V338H1190.44Z" fill="#4B90F3"/>
<path d="M1067.62 300.882L1065.63 303.121L1067.62 300.882ZM1072.39 329.806L1074.89 331.46L1072.39 329.806ZM1026.73 333.89L1051.18 358.429L1060.21 324.985L1026.73 333.89ZM1026.07 312.319C1032.02 306.664 1039.57 302.029 1046.88 300.043C1054.18 298.06 1060.78 298.798 1065.63 303.121L1069.62 298.644C1062.74 292.505 1053.77 291.951 1045.31 294.253C1036.85 296.551 1028.45 301.779 1021.93 307.969L1026.07 312.319ZM1065.63 303.121C1074.93 311.421 1074.32 321.441 1069.89 328.152L1074.89 331.46C1080.82 322.498 1081.35 309.11 1069.62 298.644L1065.63 303.121ZM1069.89 328.152C1066.55 333.205 1060.84 337.361 1052.59 337.933L1053 343.918C1063.26 343.207 1070.61 337.945 1074.89 331.46L1069.89 328.152Z" fill="#4B90F3"/>
<rect x="935" y="276" width="90" height="90" rx="45" stroke="#4B90F3" stroke-width="6"/>
<path d="M969.901 338V304.496H991.357V309.296H975.325V318.608H989.869V323.408H975.325V333.2H991.357V338H969.901Z" fill="#4B90F3"/>
<path d="M847.624 300.882L845.626 303.121L847.624 300.882ZM852.391 329.806L854.894 331.46L852.391 329.806ZM806.729 333.89L831.179 358.429L840.206 324.985L806.729 333.89ZM806.066 312.319C812.022 306.664 819.573 302.029 826.88 300.043C834.175 298.06 840.783 298.798 845.626 303.121L849.621 298.644C842.741 292.505 833.774 291.951 825.306 294.253C816.851 296.551 808.452 301.779 801.934 307.969L806.066 312.319ZM845.626 303.121C854.929 311.421 854.323 321.441 849.888 328.152L854.894 331.46C860.817 322.498 861.35 309.11 849.621 298.644L845.626 303.121ZM849.888 328.152C846.548 333.205 840.838 337.361 832.589 337.933L833.004 343.918C843.263 343.207 850.608 337.945 854.894 331.46L849.888 328.152Z" fill="#4B90F3"/>
<rect x="715" y="276" width="90" height="90" rx="45" stroke="#4B90F3" stroke-width="6"/>
<path d="M747.745 304.496H759.601C761.745 304.496 763.681 304.848 765.409 305.552C767.169 306.256 768.657 307.312 769.873 308.72C771.121 310.096 772.081 311.84 772.753 313.952C773.425 316.032 773.761 318.464 773.761 321.248C773.761 324.032 773.425 326.48 772.753 328.592C772.081 330.672 771.121 332.416 769.873 333.824C768.657 335.2 767.169 336.24 765.409 336.944C763.681 337.648 761.745 338 759.601 338H747.745V304.496ZM759.601 333.2C762.097 333.2 764.113 332.416 765.649 330.848C767.185 329.28 767.953 326.976 767.953 323.936V318.56C767.953 315.52 767.185 313.216 765.649 311.648C764.113 310.08 762.097 309.296 759.601 309.296H753.169V333.2H759.601Z" fill="#4B90F3"/>
<path d="M960.222 12.0173L962.402 14.0788L960.222 12.0173ZM989.9 7.89685L988.217 10.3804L989.9 7.89685ZM993.324 53.8063L1018.42 29.9297L985.196 20.1325L993.324 53.8063ZM971.174 53.9548C965.478 47.8422 960.86 40.1555 958.949 32.7819C957.042 25.4249 957.906 18.8317 962.402 14.0788L958.043 9.95576C951.639 16.7259 950.923 25.7303 953.141 34.2871C955.354 42.8273 960.564 51.3704 966.784 58.0452L971.174 53.9548ZM962.402 14.0788C971.061 4.92411 981.367 5.73867 988.217 10.3804L991.583 5.41332C982.566 -0.696577 968.936 -1.56119 958.043 9.95576L962.402 14.0788ZM988.217 10.3804C993.378 13.8771 997.541 19.7417 997.964 28.0609L1003.96 27.7557C1003.43 17.3749 998.145 9.85954 991.583 5.41332L988.217 10.3804Z" fill="#4B90F3"/>
<rect x="868" y="56" width="223" height="90" rx="45" stroke="#4B90F3" stroke-width="6"/>
<path d="M922.877 120.352C922.877 122.944 921.885 124.896 919.901 126.208C917.917 127.52 914.685 128.176 910.205 128.176C908.157 128.176 906.413 128.032 904.973 127.744C903.565 127.488 902.397 127.104 901.469 126.592C900.573 126.08 899.917 125.456 899.501 124.72C899.085 123.984 898.877 123.136 898.877 122.176C898.877 120.8 899.245 119.728 899.981 118.96C900.749 118.192 901.805 117.664 903.149 117.376V116.848C901.261 116.24 900.317 114.96 900.317 113.008C900.317 111.728 900.749 110.752 901.613 110.08C902.477 109.376 903.517 108.88 904.733 108.592V108.4C903.261 107.696 902.125 106.72 901.325 105.472C900.557 104.192 900.173 102.704 900.173 101.008C900.173 98.448 901.021 96.384 902.717 94.816C904.445 93.248 906.909 92.464 910.109 92.464C911.869 92.464 913.373 92.72 914.621 93.232V92.56C914.621 91.44 914.877 90.576 915.389 89.968C915.933 89.328 916.765 89.008 917.885 89.008H921.725V93.232H916.637V94.24C917.757 94.976 918.621 95.936 919.229 97.12C919.837 98.272 920.141 99.568 920.141 101.008C920.141 103.536 919.277 105.584 917.549 107.152C915.821 108.688 913.357 109.456 910.157 109.456C908.941 109.456 907.853 109.328 906.893 109.072C906.253 109.296 905.693 109.616 905.213 110.032C904.733 110.416 904.493 110.928 904.493 111.568C904.493 112.24 904.797 112.72 905.405 113.008C906.013 113.296 906.877 113.44 907.997 113.44H914.141C917.213 113.44 919.437 114.064 920.813 115.312C922.189 116.528 922.877 118.208 922.877 120.352ZM917.981 120.928C917.981 120.064 917.645 119.376 916.973 118.864C916.333 118.352 915.149 118.096 913.421 118.096H904.973C903.821 118.768 903.245 119.728 903.245 120.976C903.245 122 903.645 122.816 904.445 123.424C905.277 124.064 906.669 124.384 908.621 124.384H911.885C915.949 124.384 917.981 123.232 917.981 120.928ZM910.157 105.664C911.693 105.664 912.877 105.328 913.709 104.656C914.573 103.952 915.005 102.88 915.005 101.44V100.48C915.005 99.04 914.573 97.984 913.709 97.312C912.877 96.608 911.693 96.256 910.157 96.256C908.621 96.256 907.421 96.608 906.557 97.312C905.725 97.984 905.309 99.04 905.309 100.48V101.44C905.309 102.88 905.725 103.952 906.557 104.656C907.421 105.328 908.621 105.664 910.157 105.664ZM926.29 118V93.04H931.522V97.84H931.762C932.114 96.56 932.85 95.44 933.97 94.48C935.09 93.52 936.642 93.04 938.626 93.04H940.018V98.08H937.954C935.874 98.08 934.274 98.416 933.154 99.088C932.066 99.76 931.522 100.752 931.522 102.064V118H926.29ZM953.743 118.576C952.015 118.576 950.431 118.272 948.991 117.664C947.583 117.056 946.383 116.192 945.391 115.072C944.399 113.92 943.631 112.544 943.087 110.944C942.543 109.312 942.271 107.504 942.271 105.52C942.271 103.536 942.543 101.744 943.087 100.144C943.631 98.512 944.399 97.136 945.391 96.016C946.383 94.864 947.583 93.984 948.991 93.376C950.431 92.768 952.015 92.464 953.743 92.464C955.471 92.464 957.039 92.768 958.447 93.376C959.887 93.984 961.103 94.864 962.095 96.016C963.087 97.136 963.855 98.512 964.399 100.144C964.943 101.744 965.215 103.536 965.215 105.52C965.215 107.504 964.943 109.312 964.399 110.944C963.855 112.544 963.087 113.92 962.095 115.072C961.103 116.192 959.887 117.056 958.447 117.664C957.039 118.272 955.471 118.576 953.743 118.576ZM953.743 114.256C955.535 114.256 956.975 113.712 958.063 112.624C959.151 111.504 959.695 109.84 959.695 107.632V103.408C959.695 101.2 959.151 99.552 958.063 98.464C956.975 97.344 955.535 96.784 953.743 96.784C951.951 96.784 950.511 97.344 949.423 98.464C948.335 99.552 947.791 101.2 947.791 103.408V107.632C947.791 109.84 948.335 111.504 949.423 112.624C950.511 113.712 951.951 114.256 953.743 114.256ZM985.684 113.872H985.492C985.268 114.48 984.964 115.072 984.58 115.648C984.228 116.224 983.764 116.736 983.188 117.184C982.644 117.6 981.972 117.936 981.172 118.192C980.404 118.448 979.508 118.576 978.484 118.576C975.892 118.576 973.876 117.744 972.436 116.08C971.028 114.416 970.324 112.032 970.324 108.928V93.04H975.556V108.256C975.556 112.128 977.156 114.064 980.356 114.064C981.028 114.064 981.684 113.984 982.324 113.824C982.964 113.632 983.524 113.36 984.004 113.008C984.516 112.656 984.916 112.208 985.204 111.664C985.524 111.12 985.684 110.48 985.684 109.744V93.04H990.916V118H985.684V113.872ZM997.928 93.04H1003.16V97.168H1003.4C1003.94 95.664 1004.82 94.512 1006.04 93.712C1007.29 92.88 1008.74 92.464 1010.41 92.464C1013.58 92.464 1016.02 93.616 1017.75 95.92C1019.48 98.192 1020.34 101.392 1020.34 105.52C1020.34 109.648 1019.48 112.864 1017.75 115.168C1016.02 117.44 1013.58 118.576 1010.41 118.576C1008.74 118.576 1007.29 118.16 1006.04 117.328C1004.82 116.496 1003.94 115.344 1003.4 113.872H1003.16V127.6H997.928V93.04ZM1008.82 114.064C1010.65 114.064 1012.1 113.488 1013.19 112.336C1014.28 111.152 1014.82 109.6 1014.82 107.68V103.36C1014.82 101.44 1014.28 99.904 1013.19 98.752C1012.1 97.568 1010.65 96.976 1008.82 96.976C1007.22 96.976 1005.88 97.376 1004.79 98.176C1003.7 98.944 1003.16 99.968 1003.16 101.248V109.792C1003.16 111.072 1003.7 112.112 1004.79 112.912C1005.88 113.68 1007.22 114.064 1008.82 114.064ZM1059.42 118H1035.71V111.424L1046.03 102.592C1046.96 101.792 1047.74 101.072 1048.38 100.432C1049.02 99.76 1049.53 99.12 1049.92 98.512C1050.33 97.872 1050.62 97.248 1050.78 96.64C1050.97 96.032 1051.07 95.376 1051.07 94.672V94C1051.07 93.36 1050.94 92.8 1050.69 92.32C1050.43 91.84 1050.09 91.44 1049.68 91.12C1049.26 90.8 1048.78 90.56 1048.24 90.4C1047.73 90.24 1047.2 90.16 1046.65 90.16C1045.85 90.16 1045.15 90.288 1044.54 90.544C1043.97 90.8 1043.45 91.152 1043.01 91.6C1042.59 92.016 1042.24 92.512 1041.95 93.088C1041.66 93.632 1041.44 94.224 1041.28 94.864L1034.99 92.464C1035.37 91.312 1035.9 90.224 1036.57 89.2C1037.25 88.144 1038.08 87.232 1039.07 86.464C1040.09 85.664 1041.29 85.04 1042.67 84.592C1044.05 84.144 1045.6 83.92 1047.33 83.92C1049.15 83.92 1050.77 84.176 1052.17 84.688C1053.58 85.2 1054.77 85.904 1055.73 86.8C1056.72 87.696 1057.47 88.768 1057.98 90.016C1058.49 91.232 1058.75 92.56 1058.75 94C1058.75 95.44 1058.51 96.752 1058.03 97.936C1057.55 99.12 1056.89 100.24 1056.06 101.296C1055.26 102.32 1054.32 103.296 1053.23 104.224C1052.14 105.152 1051.01 106.096 1049.82 107.056L1043.58 111.952H1059.42V118Z" fill="#4B90F3"/>
<path d="M627.624 300.882L625.626 303.121L627.624 300.882ZM632.391 329.806L634.894 331.46L632.391 329.806ZM586.729 333.89L611.179 358.429L620.206 324.985L586.729 333.89ZM586.066 312.319C592.022 306.664 599.573 302.029 606.88 300.043C614.175 298.06 620.783 298.798 625.626 303.121L629.621 298.644C622.741 292.505 613.774 291.951 605.306 294.253C596.851 296.551 588.452 301.779 581.934 307.969L586.066 312.319ZM625.626 303.121C634.929 311.421 634.323 321.441 629.888 328.152L634.894 331.46C640.817 322.498 641.35 309.11 629.621 298.644L625.626 303.121ZM629.888 328.152C626.548 333.205 620.838 337.361 612.589 337.933L613.004 343.918C623.263 343.207 630.608 337.945 634.894 331.46L629.888 328.152Z" fill="#4B90F3"/>
<rect x="495" y="276" width="90" height="90" rx="45" stroke="#4B90F3" stroke-width="6"/>
<path d="M541.493 338.576C537.109 338.576 533.669 337.104 531.173 334.16C528.677 331.184 527.429 326.88 527.429 321.248C527.429 318.432 527.749 315.952 528.389 313.808C529.029 311.664 529.957 309.856 531.173 308.384C532.389 306.912 533.861 305.808 535.589 305.072C537.349 304.304 539.317 303.92 541.493 303.92C544.405 303.92 546.837 304.56 548.789 305.84C550.773 307.12 552.325 309.008 553.445 311.504L548.885 314C548.309 312.4 547.413 311.136 546.197 310.208C545.013 309.248 543.445 308.768 541.493 308.768C538.901 308.768 536.869 309.648 535.397 311.408C533.925 313.168 533.189 315.6 533.189 318.704V323.792C533.189 326.896 533.925 329.328 535.397 331.088C536.869 332.848 538.901 333.728 541.493 333.728C543.509 333.728 545.141 333.216 546.389 332.192C547.669 331.136 548.613 329.792 549.221 328.16L553.589 330.8C552.469 333.232 550.901 335.136 548.885 336.512C546.869 337.888 544.405 338.576 541.493 338.576Z" fill="#4B90F3"/>
<path d="M407.624 300.882L405.626 303.121L407.624 300.882ZM412.391 329.806L414.894 331.46L412.391 329.806ZM366.729 333.89L391.179 358.429L400.206 324.985L366.729 333.89ZM366.066 312.319C372.022 306.664 379.573 302.029 386.88 300.043C394.175 298.06 400.783 298.798 405.626 303.121L409.621 298.644C402.741 292.505 393.774 291.951 385.306 294.253C376.851 296.551 368.452 301.779 361.934 307.969L366.066 312.319ZM405.626 303.121C414.929 311.421 414.323 321.441 409.888 328.152L414.894 331.46C420.817 322.498 421.35 309.11 409.621 298.644L405.626 303.121ZM409.888 328.152C406.548 333.205 400.838 337.361 392.589 337.933L393.004 343.918C403.263 343.207 410.608 337.945 414.894 331.46L409.888 328.152Z" fill="#4B90F3"/>
<rect x="275" y="276" width="90" height="90" rx="45" stroke="#4B90F3" stroke-width="6"/>
<path d="M308.308 304.496H323.14C325.924 304.496 328.1 305.28 329.668 306.848C331.268 308.416 332.068 310.512 332.068 313.136C332.068 314.384 331.892 315.456 331.54 316.352C331.188 317.216 330.74 317.936 330.196 318.512C329.652 319.056 329.028 319.472 328.324 319.76C327.62 320.016 326.932 320.176 326.26 320.24V320.528C326.932 320.56 327.668 320.72 328.468 321.008C329.3 321.296 330.068 321.76 330.772 322.4C331.476 323.008 332.068 323.808 332.548 324.8C333.028 325.76 333.268 326.944 333.268 328.352C333.268 329.696 333.044 330.96 332.596 332.144C332.18 333.328 331.588 334.352 330.82 335.216C330.052 336.08 329.14 336.768 328.084 337.28C327.028 337.76 325.876 338 324.628 338H308.308V304.496ZM313.732 333.344H323.044C324.452 333.344 325.556 332.976 326.356 332.24C327.156 331.504 327.556 330.448 327.556 329.072V327.44C327.556 326.064 327.156 325.008 326.356 324.272C325.556 323.536 324.452 323.168 323.044 323.168H313.732V333.344ZM313.732 318.656H322.132C323.476 318.656 324.516 318.32 325.252 317.648C325.988 316.944 326.356 315.952 326.356 314.672V313.136C326.356 311.856 325.988 310.88 325.252 310.208C324.516 309.504 323.476 309.152 322.132 309.152H313.732V318.656Z" fill="#4B90F3"/>
<path d="M187.624 300.882L185.626 303.121L187.624 300.882ZM192.391 329.806L194.894 331.46L192.391 329.806ZM146.729 333.89L171.179 358.429L180.206 324.985L146.729 333.89ZM146.066 312.319C152.022 306.664 159.573 302.029 166.88 300.043C174.175 298.06 180.783 298.798 185.626 303.121L189.621 298.644C182.741 292.505 173.774 291.951 165.306 294.253C156.851 296.551 148.452 301.779 141.934 307.969L146.066 312.319ZM185.626 303.121C194.929 311.421 194.323 321.441 189.888 328.152L194.894 331.46C200.817 322.498 201.35 309.11 189.621 298.644L185.626 303.121ZM189.888 328.152C186.548 333.205 180.838 337.361 172.589 337.933L173.004 343.918C183.263 343.207 190.608 337.945 194.894 331.46L189.888 328.152Z" fill="#4B90F3"/>
<rect x="55" y="276" width="90" height="90" rx="45" stroke="#4B90F3" stroke-width="6"/>
<path d="M109.165 338L106.141 328.928H93.6134L90.6854 338H85.1654L96.5894 304.496H103.405L114.829 338H109.165ZM99.9974 309.488H99.7574L94.9094 324.272H104.797L99.9974 309.488Z" fill="#4B90F3"/>
<path d="M300.222 12.0173L302.402 14.0788L300.222 12.0173ZM329.9 7.89685L328.217 10.3804L329.9 7.89685ZM333.324 53.8063L358.422 29.9297L325.196 20.1325L333.324 53.8063ZM311.174 53.9548C305.478 47.8422 300.86 40.1555 298.949 32.7819C297.042 25.4249 297.906 18.8317 302.402 14.0788L298.043 9.95576C291.639 16.7259 290.923 25.7303 293.141 34.2871C295.354 42.8273 300.564 51.3704 306.784 58.0452L311.174 53.9548ZM302.402 14.0788C311.061 4.92411 321.367 5.73867 328.217 10.3804L331.583 5.41332C322.566 -0.696577 308.936 -1.56119 298.043 9.95576L302.402 14.0788ZM328.217 10.3804C333.378 13.8771 337.541 19.7417 337.964 28.0609L343.957 27.7557C343.428 17.3749 338.145 9.85954 331.583 5.41332L328.217 10.3804Z" fill="#4B90F3"/>
<rect x="208" y="56" width="223" height="90" rx="45" stroke="#4B90F3" stroke-width="6"/>
<path d="M262.877 120.352C262.877 122.944 261.885 124.896 259.901 126.208C257.917 127.52 254.685 128.176 250.205 128.176C248.157 128.176 246.413 128.032 244.973 127.744C243.565 127.488 242.397 127.104 241.469 126.592C240.573 126.08 239.917 125.456 239.501 124.72C239.085 123.984 238.877 123.136 238.877 122.176C238.877 120.8 239.245 119.728 239.981 118.96C240.749 118.192 241.805 117.664 243.149 117.376V116.848C241.261 116.24 240.317 114.96 240.317 113.008C240.317 111.728 240.749 110.752 241.613 110.08C242.477 109.376 243.517 108.88 244.733 108.592V108.4C243.261 107.696 242.125 106.72 241.325 105.472C240.557 104.192 240.173 102.704 240.173 101.008C240.173 98.448 241.021 96.384 242.717 94.816C244.445 93.248 246.909 92.464 250.109 92.464C251.869 92.464 253.373 92.72 254.621 93.232V92.56C254.621 91.44 254.877 90.576 255.389 89.968C255.933 89.328 256.765 89.008 257.885 89.008H261.725V93.232H256.637V94.24C257.757 94.976 258.621 95.936 259.229 97.12C259.837 98.272 260.141 99.568 260.141 101.008C260.141 103.536 259.277 105.584 257.549 107.152C255.821 108.688 253.357 109.456 250.157 109.456C248.941 109.456 247.853 109.328 246.893 109.072C246.253 109.296 245.693 109.616 245.213 110.032C244.733 110.416 244.493 110.928 244.493 111.568C244.493 112.24 244.797 112.72 245.405 113.008C246.013 113.296 246.877 113.44 247.997 113.44H254.141C257.213 113.44 259.437 114.064 260.813 115.312C262.189 116.528 262.877 118.208 262.877 120.352ZM257.981 120.928C257.981 120.064 257.645 119.376 256.973 118.864C256.333 118.352 255.149 118.096 253.421 118.096H244.973C243.821 118.768 243.245 119.728 243.245 120.976C243.245 122 243.645 122.816 244.445 123.424C245.277 124.064 246.669 124.384 248.621 124.384H251.885C255.949 124.384 257.981 123.232 257.981 120.928ZM250.157 105.664C251.693 105.664 252.877 105.328 253.709 104.656C254.573 103.952 255.005 102.88 255.005 101.44V100.48C255.005 99.04 254.573 97.984 253.709 97.312C252.877 96.608 251.693 96.256 250.157 96.256C248.621 96.256 247.421 96.608 246.557 97.312C245.725 97.984 245.309 99.04 245.309 100.48V101.44C245.309 102.88 245.725 103.952 246.557 104.656C247.421 105.328 248.621 105.664 250.157 105.664ZM266.29 118V93.04H271.522V97.84H271.762C272.114 96.56 272.85 95.44 273.97 94.48C275.09 93.52 276.642 93.04 278.626 93.04H280.018V98.08H277.954C275.874 98.08 274.274 98.416 273.154 99.088C272.066 99.76 271.522 100.752 271.522 102.064V118H266.29ZM293.743 118.576C292.015 118.576 290.431 118.272 288.991 117.664C287.583 117.056 286.383 116.192 285.391 115.072C284.399 113.92 283.631 112.544 283.087 110.944C282.543 109.312 282.271 107.504 282.271 105.52C282.271 103.536 282.543 101.744 283.087 100.144C283.631 98.512 284.399 97.136 285.391 96.016C286.383 94.864 287.583 93.984 288.991 93.376C290.431 92.768 292.015 92.464 293.743 92.464C295.471 92.464 297.039 92.768 298.447 93.376C299.887 93.984 301.103 94.864 302.095 96.016C303.087 97.136 303.855 98.512 304.399 100.144C304.943 101.744 305.215 103.536 305.215 105.52C305.215 107.504 304.943 109.312 304.399 110.944C303.855 112.544 303.087 113.92 302.095 115.072C301.103 116.192 299.887 117.056 298.447 117.664C297.039 118.272 295.471 118.576 293.743 118.576ZM293.743 114.256C295.535 114.256 296.975 113.712 298.063 112.624C299.151 111.504 299.695 109.84 299.695 107.632V103.408C299.695 101.2 299.151 99.552 298.063 98.464C296.975 97.344 295.535 96.784 293.743 96.784C291.951 96.784 290.511 97.344 289.423 98.464C288.335 99.552 287.791 101.2 287.791 103.408V107.632C287.791 109.84 288.335 111.504 289.423 112.624C290.511 113.712 291.951 114.256 293.743 114.256ZM325.684 113.872H325.492C325.268 114.48 324.964 115.072 324.58 115.648C324.228 116.224 323.764 116.736 323.188 117.184C322.644 117.6 321.972 117.936 321.172 118.192C320.404 118.448 319.508 118.576 318.484 118.576C315.892 118.576 313.876 117.744 312.436 116.08C311.028 114.416 310.324 112.032 310.324 108.928V93.04H315.556V108.256C315.556 112.128 317.156 114.064 320.356 114.064C321.028 114.064 321.684 113.984 322.324 113.824C322.964 113.632 323.524 113.36 324.004 113.008C324.516 112.656 324.916 112.208 325.204 111.664C325.524 111.12 325.684 110.48 325.684 109.744V93.04H330.916V118H325.684V113.872ZM337.928 93.04H343.16V97.168H343.4C343.944 95.664 344.824 94.512 346.04 93.712C347.288 92.88 348.744 92.464 350.408 92.464C353.576 92.464 356.024 93.616 357.752 95.92C359.48 98.192 360.344 101.392 360.344 105.52C360.344 109.648 359.48 112.864 357.752 115.168C356.024 117.44 353.576 118.576 350.408 118.576C348.744 118.576 347.288 118.16 346.04 117.328C344.824 116.496 343.944 115.344 343.4 113.872H343.16V127.6H337.928V93.04ZM348.824 114.064C350.648 114.064 352.104 113.488 353.192 112.336C354.28 111.152 354.824 109.6 354.824 107.68V103.36C354.824 101.44 354.28 99.904 353.192 98.752C352.104 97.568 350.648 96.976 348.824 96.976C347.224 96.976 345.88 97.376 344.792 98.176C343.704 98.944 343.16 99.968 343.16 101.248V109.792C343.16 111.072 343.704 112.112 344.792 112.912C345.88 113.68 347.224 114.064 348.824 114.064ZM377.486 118V112.192H386.51V89.728H386.078L379.262 98.656L374.654 95.056L382.67 84.496H393.71V112.192H400.814V118H377.486Z" fill="#4B90F3"/>
</svg>
