<svg width="1170" height="863" viewBox="0 0 1170 863" fill="none" xmlns="http://www.w3.org/2000/svg">
<g clip-path="url(#clip0_25_597)">
<path d="M833.218 500.545L849.235 493.953L835.517 483.378L833.218 500.545ZM943.595 354.916L941.735 357.328L944.111 359.16L945.971 356.748L943.595 354.916ZM938.017 362.152L934.298 366.975L936.674 368.807L940.392 363.983L938.017 362.152ZM930.579 371.799L926.86 376.623L929.236 378.455L932.955 373.631L930.579 371.799ZM923.141 381.447L919.422 386.271L921.798 388.102L925.517 383.278L923.141 381.447ZM915.704 391.094L911.985 395.918L914.361 397.75L918.079 392.926L915.704 391.094ZM908.266 400.742L904.547 405.566L906.923 407.397L910.642 402.574L908.266 400.742ZM900.828 410.389L897.109 415.213L899.485 417.045L903.204 412.221L900.828 410.389ZM893.391 420.037L889.672 424.861L892.048 426.692L895.766 421.869L893.391 420.037ZM885.953 429.684L882.234 434.508L884.61 436.34L888.329 431.516L885.953 429.684ZM878.515 439.332L874.796 444.156L877.172 445.988L880.891 441.164L878.515 439.332ZM871.078 448.98L867.359 453.803L869.735 455.635L873.453 450.811L871.078 448.98ZM863.64 458.627L859.921 463.451L862.297 465.283L866.016 460.459L863.64 458.627ZM856.202 468.275L852.483 473.098L854.859 474.93L858.578 470.106L856.202 468.275ZM848.765 477.922L845.046 482.746L847.422 484.578L851.14 479.754L848.765 477.922ZM841.327 487.57L837.608 492.394L839.984 494.225L843.703 489.401L841.327 487.57ZM833.218 500.545L865.252 487.361L837.817 466.211L833.218 500.545ZM942.407 354L940.547 356.412L945.299 360.075L947.159 357.663L942.407 354ZM936.829 361.236L933.11 366.06L937.862 369.723L941.58 364.899L936.829 361.236ZM929.391 370.883L925.672 375.707L930.424 379.37L934.143 374.547L929.391 370.883ZM921.953 380.531L918.234 385.355L922.986 389.018L926.705 384.194L921.953 380.531ZM914.516 390.178L910.797 395.002L915.549 398.666L919.267 393.842L914.516 390.178ZM907.078 399.826L903.359 404.65L908.111 408.313L911.83 403.489L907.078 399.826ZM899.64 409.474L895.921 414.297L900.673 417.961L904.392 413.137L899.64 409.474ZM892.203 419.121L888.484 423.945L893.236 427.608L896.954 422.784L892.203 419.121ZM884.765 428.769L881.046 433.592L885.798 437.256L889.517 432.432L884.765 428.769ZM877.327 438.416L873.608 443.24L878.36 446.903L882.079 442.08L877.327 438.416ZM869.89 448.064L866.171 452.888L870.923 456.551L874.641 451.727L869.89 448.064ZM862.452 457.711L858.733 462.535L863.485 466.198L867.204 461.375L862.452 457.711ZM855.014 467.359L851.295 472.183L856.047 475.846L859.766 471.022L855.014 467.359ZM847.577 477.006L843.858 481.83L848.61 485.494L852.328 480.67L847.577 477.006ZM840.139 486.654L836.42 491.478L841.172 495.141L844.891 490.317L840.139 486.654Z" fill="#14BF06"/>
<path d="M221.269 360.792L223.569 377.959L237.286 367.384L221.269 360.792ZM335.48 506.481L333.596 504.037L331.22 505.869L333.104 508.312L335.48 506.481ZM329.829 499.15L326.061 494.264L323.685 496.095L327.453 500.982L329.829 499.15ZM322.294 489.377L318.526 484.49L316.151 486.322L319.918 491.208L322.294 489.377ZM314.759 479.603L310.992 474.716L308.616 476.548L312.383 481.435L314.759 479.603ZM307.224 469.83L303.457 464.943L301.081 466.774L304.848 471.661L307.224 469.83ZM299.689 460.056L295.922 455.169L293.546 457.001L297.313 461.888L299.689 460.056ZM292.154 450.282L288.387 445.395L286.011 447.227L289.779 452.114L292.154 450.282ZM284.62 440.509L280.852 435.622L278.476 437.453L282.244 442.34L284.62 440.509ZM277.085 430.735L273.317 425.848L270.941 427.68L274.709 432.567L277.085 430.735ZM269.55 420.961L265.782 416.075L263.407 417.906L267.174 422.793L269.55 420.961ZM262.015 411.188L258.248 406.301L255.872 408.133L259.639 413.019L262.015 411.188ZM254.48 401.414L250.713 396.527L248.337 398.359L252.104 403.246L254.48 401.414ZM246.945 391.64L243.178 386.754L240.802 388.585L244.569 393.472L246.945 391.64ZM239.41 381.867L235.643 376.98L233.267 378.812L237.034 383.699L239.41 381.867ZM231.876 372.093L228.108 367.206L225.732 369.038L229.5 373.925L231.876 372.093ZM221.269 360.792L225.868 395.126L253.303 373.976L221.269 360.792ZM336.668 505.565L334.784 503.121L330.032 506.785L331.916 509.228L336.668 505.565ZM331.017 498.235L327.249 493.348L322.498 497.011L326.265 501.898L331.017 498.235ZM323.482 488.461L319.714 483.574L314.963 487.237L318.73 492.124L323.482 488.461ZM315.947 478.687L312.18 473.801L307.428 477.464L311.195 482.351L315.947 478.687ZM308.412 468.914L304.645 464.027L299.893 467.69L303.66 472.577L308.412 468.914ZM300.877 459.14L297.11 454.253L292.358 457.917L296.125 462.803L300.877 459.14ZM293.342 449.366L289.575 444.48L284.823 448.143L288.591 453.03L293.342 449.366ZM285.808 439.593L282.04 434.706L277.288 438.369L281.056 443.256L285.808 439.593ZM278.273 429.819L274.505 424.932L269.753 428.596L273.521 433.483L278.273 429.819ZM270.738 420.046L266.97 415.159L262.219 418.822L265.986 423.709L270.738 420.046ZM263.203 410.272L259.436 405.385L254.684 409.048L258.451 413.935L263.203 410.272ZM255.668 400.498L251.901 395.611L247.149 399.275L250.916 404.162L255.668 400.498ZM248.133 390.725L244.366 385.838L239.614 389.501L243.381 394.388L248.133 390.725ZM240.598 380.951L236.831 376.064L232.079 379.728L235.847 384.614L240.598 380.951ZM233.063 371.177L229.296 366.291L224.544 369.954L228.312 374.841L233.063 371.177Z" fill="#14BF06"/>
<path d="M1113 149.5L1095.55 179.428L1130.2 179.572L1113 149.5ZM1109.89 176.488C1108.73 302.735 1097.34 416.661 1017.5 537.345L1022.5 540.655C1103.3 418.516 1114.73 303.174 1115.89 176.543L1109.89 176.488ZM1017.5 537.345C931.659 667.1 827.248 758.004 696.995 758.004L696.995 764.004C830.361 764.004 936.34 670.9 1022.5 540.655L1017.5 537.345Z" fill="#4B90F3"/>
<path d="M777.292 580.225L745.258 593.408L772.693 614.559L777.292 580.225ZM758.431 599.776L667.331 717.944L672.083 721.607L763.183 603.439L758.431 599.776Z" fill="#4B90F3"/>
<path d="M585 589L567.679 619H602.321L585 589ZM582 616V716H588V616H582Z" fill="#4B90F3"/>
<path d="M393 580.225L425.034 593.408L397.599 614.559L393 580.225ZM411.861 599.776L502.961 717.944L498.209 721.607L407.109 603.439L411.861 599.776Z" fill="#4B90F3"/>
<path d="M673 364.039L705.034 377.223L677.599 398.373L673 364.039ZM691.861 383.59L782.477 501.13L777.725 504.793L687.109 387.254L691.861 383.59Z" fill="#4B90F3"/>
<path d="M585 369L567.679 399H602.321L585 369ZM582 396V496H588V396H582Z" fill="#4B90F3"/>
<path d="M496.05 364.039L464.016 377.223L491.451 398.373L496.05 364.039ZM477.189 383.59L386.574 501.13L391.326 504.793L481.941 387.254L477.189 383.59Z" fill="#4B90F3"/>
<path d="M345.001 148.999L362.604 178.834L327.964 179.161L345.001 148.999ZM371 274.5L368.715 276.444L371 274.5ZM348.255 175.928C349.296 221.255 354.196 250.113 373.285 272.557L368.715 276.444C348.152 252.268 343.3 221.472 342.257 176.065L348.255 175.928ZM373.285 272.557C384.854 286.158 401.697 297.545 419.674 305.532C437.656 313.522 456.521 317.999 472.001 317.999L472.001 323.999C455.492 323.999 435.792 319.259 417.238 311.016C398.68 302.77 381.016 290.907 368.715 276.444L373.285 272.557Z" fill="#4B90F3"/>
<path d="M975 149L992.321 179H957.679L975 149ZM972 276V176H978V276H972Z" fill="#4B90F3"/>
<path d="M195 149L212.321 179H177.679L195 149ZM192 276V176H198V276H192Z" fill="#4B90F3"/>
<path d="M604.227 851.293L602.026 849.254L604.227 851.293ZM574.95 855.442L576.657 852.975L574.95 855.442ZM571.572 809.209L546.562 833.178L579.825 842.853L571.572 809.209ZM593.373 809.023C598.991 815.177 603.551 822.923 605.44 830.362C607.326 837.792 606.469 844.458 602.026 849.254L606.427 853.332C612.736 846.522 613.438 837.481 611.255 828.886C609.076 820.299 603.941 811.7 597.804 804.977L593.373 809.023ZM602.026 849.254C597.673 853.951 592.993 855.962 588.666 856.31C584.293 856.662 580.063 855.331 576.657 852.975L573.243 857.909C577.663 860.967 583.25 862.765 589.147 862.291C595.091 861.813 601.136 859.043 606.427 853.332L602.026 849.254ZM576.657 852.975C571.55 849.443 567.409 843.486 567.029 835L561.035 835.268C561.506 845.777 566.722 853.399 573.243 857.909L576.657 852.975Z" fill="#4B90F3"/>
<rect x="473" y="716" width="223" height="90" rx="45" stroke="#4B90F3" stroke-width="6"/>
<path d="M513.176 748.576C512.088 748.576 511.288 748.32 510.776 747.808C510.296 747.296 510.056 746.64 510.056 745.84V745.024C510.056 744.224 510.296 743.568 510.776 743.056C511.288 742.544 512.088 742.288 513.176 742.288C514.264 742.288 515.048 742.544 515.528 743.056C516.008 743.568 516.248 744.224 516.248 745.024V745.84C516.248 746.64 516.008 747.296 515.528 747.808C515.048 748.32 514.264 748.576 513.176 748.576ZM510.536 753.04H515.768V778H510.536V753.04ZM522.759 778V753.04H527.991V757.168H528.231C528.775 755.824 529.591 754.704 530.679 753.808C531.799 752.912 533.319 752.464 535.239 752.464C537.799 752.464 539.783 753.312 541.191 755.008C542.631 756.672 543.351 759.056 543.351 762.16V778H538.119V762.832C538.119 758.928 536.551 756.976 533.415 756.976C532.743 756.976 532.071 757.072 531.399 757.264C530.759 757.424 530.183 757.68 529.671 758.032C529.159 758.384 528.743 758.832 528.423 759.376C528.135 759.92 527.991 760.56 527.991 761.296V778H522.759ZM572.01 780.352C572.01 782.944 571.018 784.896 569.034 786.208C567.05 787.52 563.818 788.176 559.338 788.176C557.29 788.176 555.546 788.032 554.106 787.744C552.698 787.488 551.53 787.104 550.602 786.592C549.706 786.08 549.05 785.456 548.634 784.72C548.218 783.984 548.01 783.136 548.01 782.176C548.01 780.8 548.378 779.728 549.114 778.96C549.882 778.192 550.938 777.664 552.282 777.376V776.848C550.394 776.24 549.45 774.96 549.45 773.008C549.45 771.728 549.882 770.752 550.746 770.08C551.61 769.376 552.65 768.88 553.866 768.592V768.4C552.394 767.696 551.258 766.72 550.458 765.472C549.69 764.192 549.306 762.704 549.306 761.008C549.306 758.448 550.154 756.384 551.85 754.816C553.578 753.248 556.042 752.464 559.242 752.464C561.002 752.464 562.506 752.72 563.754 753.232V752.56C563.754 751.44 564.01 750.576 564.522 749.968C565.066 749.328 565.898 749.008 567.018 749.008H570.858V753.232H565.77V754.24C566.89 754.976 567.754 755.936 568.362 757.12C568.97 758.272 569.274 759.568 569.274 761.008C569.274 763.536 568.41 765.584 566.682 767.152C564.954 768.688 562.49 769.456 559.29 769.456C558.074 769.456 556.986 769.328 556.026 769.072C555.386 769.296 554.826 769.616 554.346 770.032C553.866 770.416 553.626 770.928 553.626 771.568C553.626 772.24 553.93 772.72 554.538 773.008C555.146 773.296 556.01 773.44 557.13 773.44H563.274C566.346 773.44 568.57 774.064 569.946 775.312C571.322 776.528 572.01 778.208 572.01 780.352ZM567.114 780.928C567.114 780.064 566.778 779.376 566.106 778.864C565.466 778.352 564.282 778.096 562.554 778.096H554.106C552.954 778.768 552.378 779.728 552.378 780.976C552.378 782 552.778 782.816 553.578 783.424C554.41 784.064 555.802 784.384 557.754 784.384H561.018C565.082 784.384 567.114 783.232 567.114 780.928ZM559.29 765.664C560.826 765.664 562.01 765.328 562.842 764.656C563.706 763.952 564.138 762.88 564.138 761.44V760.48C564.138 759.04 563.706 757.984 562.842 757.312C562.01 756.608 560.826 756.256 559.29 756.256C557.754 756.256 556.554 756.608 555.69 757.312C554.858 757.984 554.442 759.04 554.442 760.48V761.44C554.442 762.88 554.858 763.952 555.69 764.656C556.554 765.328 557.754 765.664 559.29 765.664ZM575.424 778V753.04H580.656V757.84H580.896C581.248 756.56 581.984 755.44 583.104 754.48C584.224 753.52 585.776 753.04 587.76 753.04H589.152V758.08H587.088C585.008 758.08 583.408 758.416 582.288 759.088C581.2 759.76 580.656 760.752 580.656 762.064V778H575.424ZM602.876 778.576C601.084 778.576 599.484 778.272 598.076 777.664C596.668 777.056 595.468 776.192 594.476 775.072C593.484 773.92 592.716 772.544 592.172 770.944C591.66 769.312 591.404 767.504 591.404 765.52C591.404 763.536 591.66 761.744 592.172 760.144C592.716 758.512 593.484 757.136 594.476 756.016C595.468 754.864 596.668 753.984 598.076 753.376C599.484 752.768 601.084 752.464 602.876 752.464C604.7 752.464 606.3 752.784 607.676 753.424C609.084 754.064 610.252 754.96 611.18 756.112C612.108 757.232 612.796 758.544 613.244 760.048C613.724 761.552 613.964 763.168 613.964 764.896V766.864H596.828V767.68C596.828 769.6 597.388 771.184 598.508 772.432C599.66 773.648 601.292 774.256 603.404 774.256C604.94 774.256 606.236 773.92 607.292 773.248C608.348 772.576 609.244 771.664 609.98 770.512L613.052 773.536C612.124 775.072 610.78 776.304 609.02 777.232C607.26 778.128 605.212 778.576 602.876 778.576ZM602.876 756.544C601.98 756.544 601.148 756.704 600.38 757.024C599.644 757.344 599.004 757.792 598.46 758.368C597.948 758.944 597.548 759.632 597.26 760.432C596.972 761.232 596.828 762.112 596.828 763.072V763.408H608.444V762.928C608.444 761.008 607.948 759.472 606.956 758.32C605.964 757.136 604.604 756.544 602.876 756.544ZM627.196 778.576C624.828 778.576 622.844 778.16 621.244 777.328C619.644 776.496 618.252 775.344 617.068 773.872L620.428 770.8C621.356 771.92 622.38 772.8 623.5 773.44C624.652 774.048 625.98 774.352 627.484 774.352C629.02 774.352 630.156 774.064 630.892 773.488C631.66 772.88 632.044 772.048 632.044 770.992C632.044 770.192 631.772 769.52 631.228 768.976C630.716 768.4 629.804 768.032 628.492 767.872L626.188 767.584C623.628 767.264 621.612 766.528 620.14 765.376C618.7 764.192 617.98 762.448 617.98 760.144C617.98 758.928 618.204 757.856 618.652 756.928C619.1 755.968 619.724 755.168 620.524 754.528C621.356 753.856 622.332 753.344 623.452 752.992C624.604 752.64 625.868 752.464 627.244 752.464C629.484 752.464 631.308 752.816 632.716 753.52C634.156 754.224 635.436 755.2 636.556 756.448L633.34 759.52C632.7 758.752 631.852 758.096 630.796 757.552C629.772 756.976 628.588 756.688 627.244 756.688C625.804 756.688 624.732 756.976 624.028 757.552C623.356 758.128 623.02 758.88 623.02 759.808C623.02 760.768 623.324 761.488 623.932 761.968C624.54 762.448 625.516 762.8 626.86 763.024L629.164 763.312C631.916 763.728 633.916 764.544 635.164 765.76C636.444 766.944 637.084 768.544 637.084 770.56C637.084 771.776 636.844 772.88 636.364 773.872C635.916 774.832 635.26 775.664 634.396 776.368C633.532 777.072 632.492 777.616 631.276 778C630.06 778.384 628.7 778.576 627.196 778.576ZM650.154 778.576C647.786 778.576 645.802 778.16 644.202 777.328C642.602 776.496 641.21 775.344 640.026 773.872L643.386 770.8C644.314 771.92 645.338 772.8 646.458 773.44C647.61 774.048 648.938 774.352 650.442 774.352C651.978 774.352 653.114 774.064 653.85 773.488C654.618 772.88 655.002 772.048 655.002 770.992C655.002 770.192 654.73 769.52 654.186 768.976C653.674 768.4 652.762 768.032 651.45 767.872L649.146 767.584C646.586 767.264 644.57 766.528 643.098 765.376C641.658 764.192 640.938 762.448 640.938 760.144C640.938 758.928 641.162 757.856 641.61 756.928C642.058 755.968 642.682 755.168 643.482 754.528C644.314 753.856 645.29 753.344 646.41 752.992C647.562 752.64 648.826 752.464 650.202 752.464C652.442 752.464 654.266 752.816 655.674 753.52C657.114 754.224 658.394 755.2 659.514 756.448L656.298 759.52C655.658 758.752 654.81 758.096 653.754 757.552C652.73 756.976 651.546 756.688 650.202 756.688C648.762 756.688 647.69 756.976 646.986 757.552C646.314 758.128 645.978 758.88 645.978 759.808C645.978 760.768 646.282 761.488 646.89 761.968C647.498 762.448 648.474 762.8 649.818 763.024L652.122 763.312C654.874 763.728 656.874 764.544 658.122 765.76C659.402 766.944 660.042 768.544 660.042 770.56C660.042 771.776 659.802 772.88 659.322 773.872C658.874 774.832 658.218 775.664 657.354 776.368C656.49 777.072 655.45 777.616 654.234 778C653.018 778.384 651.658 778.576 650.154 778.576Z" fill="#4B90F3"/>
<path d="M892.624 520.882L890.626 523.121L892.624 520.882ZM897.391 549.806L899.894 551.46L897.391 549.806ZM851.729 553.89L876.179 578.429L885.206 544.985L851.729 553.89ZM851.066 532.319C857.022 526.664 864.573 522.029 871.88 520.043C879.175 518.06 885.783 518.798 890.626 523.121L894.621 518.644C887.741 512.505 878.774 511.951 870.306 514.253C861.851 516.551 853.452 521.779 846.934 527.969L851.066 532.319ZM890.626 523.121C899.929 531.421 899.323 541.441 894.888 548.152L899.894 551.46C905.817 542.498 906.35 529.11 894.621 518.644L890.626 523.121ZM894.888 548.152C891.548 553.205 885.838 557.361 877.589 557.933L878.004 563.918C888.263 563.207 895.608 557.945 899.894 551.46L894.888 548.152Z" fill="#4B90F3"/>
<rect x="760" y="496" width="90" height="90" rx="45" stroke="#4B90F3" stroke-width="6"/>
<path d="M806.493 558.576C802.109 558.576 798.669 557.104 796.173 554.16C793.677 551.184 792.429 546.88 792.429 541.248C792.429 538.432 792.749 535.952 793.389 533.808C794.029 531.664 794.957 529.856 796.173 528.384C797.389 526.912 798.861 525.808 800.589 525.072C802.349 524.304 804.317 523.92 806.493 523.92C809.405 523.92 811.837 524.56 813.789 525.84C815.773 527.12 817.325 529.008 818.445 531.504L813.885 534C813.309 532.4 812.413 531.136 811.197 530.208C810.013 529.248 808.445 528.768 806.493 528.768C803.901 528.768 801.869 529.648 800.397 531.408C798.925 533.168 798.189 535.6 798.189 538.704V543.792C798.189 546.896 798.925 549.328 800.397 551.088C801.869 552.848 803.901 553.728 806.493 553.728C808.509 553.728 810.141 553.216 811.389 552.192C812.669 551.136 813.613 549.792 814.221 548.16L818.589 550.8C817.469 553.232 815.901 555.136 813.885 556.512C811.869 557.888 809.405 558.576 806.493 558.576Z" fill="#4B90F3"/>
<path d="M672.624 520.882L670.626 523.121L672.624 520.882ZM677.391 549.806L679.894 551.46L677.391 549.806ZM631.729 553.89L656.179 578.429L665.206 544.985L631.729 553.89ZM631.066 532.319C637.022 526.664 644.573 522.029 651.88 520.043C659.175 518.06 665.783 518.798 670.626 523.121L674.621 518.644C667.741 512.505 658.774 511.951 650.306 514.253C641.851 516.551 633.452 521.779 626.934 527.969L631.066 532.319ZM670.626 523.121C679.929 531.421 679.323 541.441 674.888 548.152L679.894 551.46C685.817 542.498 686.35 529.11 674.621 518.644L670.626 523.121ZM674.888 548.152C671.548 553.205 665.838 557.361 657.589 557.933L658.004 563.918C668.263 563.207 675.608 557.945 679.894 551.46L674.888 548.152Z" fill="#4B90F3"/>
<rect x="540" y="496" width="90" height="90" rx="45" stroke="#4B90F3" stroke-width="6"/>
<path d="M573.308 524.496H588.14C590.924 524.496 593.1 525.28 594.668 526.848C596.268 528.416 597.068 530.512 597.068 533.136C597.068 534.384 596.892 535.456 596.54 536.352C596.188 537.216 595.74 537.936 595.196 538.512C594.652 539.056 594.028 539.472 593.324 539.76C592.62 540.016 591.932 540.176 591.26 540.24V540.528C591.932 540.56 592.668 540.72 593.468 541.008C594.3 541.296 595.068 541.76 595.772 542.4C596.476 543.008 597.068 543.808 597.548 544.8C598.028 545.76 598.268 546.944 598.268 548.352C598.268 549.696 598.044 550.96 597.596 552.144C597.18 553.328 596.588 554.352 595.82 555.216C595.052 556.08 594.14 556.768 593.084 557.28C592.028 557.76 590.876 558 589.628 558H573.308V524.496ZM578.732 553.344H588.044C589.452 553.344 590.556 552.976 591.356 552.24C592.156 551.504 592.556 550.448 592.556 549.072V547.44C592.556 546.064 592.156 545.008 591.356 544.272C590.556 543.536 589.452 543.168 588.044 543.168H578.732V553.344ZM578.732 538.656H587.132C588.476 538.656 589.516 538.32 590.252 537.648C590.988 536.944 591.356 535.952 591.356 534.672V533.136C591.356 531.856 590.988 530.88 590.252 530.208C589.516 529.504 588.476 529.152 587.132 529.152H578.732V538.656Z" fill="#4B90F3"/>
<path d="M452.624 520.882L450.626 523.121L452.624 520.882ZM457.391 549.806L459.894 551.46L457.391 549.806ZM411.729 553.89L436.179 578.429L445.206 544.985L411.729 553.89ZM411.066 532.319C417.022 526.664 424.573 522.029 431.88 520.043C439.175 518.06 445.783 518.798 450.626 523.121L454.621 518.644C447.741 512.505 438.774 511.951 430.306 514.253C421.851 516.551 413.452 521.779 406.934 527.969L411.066 532.319ZM450.626 523.121C459.929 531.421 459.323 541.441 454.888 548.152L459.894 551.46C465.817 542.498 466.35 529.11 454.621 518.644L450.626 523.121ZM454.888 548.152C451.548 553.205 445.838 557.361 437.589 557.933L438.004 563.918C448.263 563.207 455.608 557.945 459.894 551.46L454.888 548.152Z" fill="#4B90F3"/>
<rect x="320" y="496" width="90" height="90" rx="45" stroke="#4B90F3" stroke-width="6"/>
<path d="M374.165 558L371.141 548.928H358.613L355.685 558H350.165L361.589 524.496H368.405L379.829 558H374.165ZM364.997 529.488H364.757L359.909 544.272H369.797L364.997 529.488Z" fill="#4B90F3"/>
<path d="M565.222 232.017L567.402 234.079L565.222 232.017ZM594.9 227.897L593.217 230.38L594.9 227.897ZM598.324 273.806L623.422 249.93L590.196 240.132L598.324 273.806ZM576.174 273.955C570.478 267.842 565.86 260.155 563.949 252.782C562.042 245.425 562.906 238.832 567.402 234.079L563.043 229.956C556.639 236.726 555.923 245.73 558.141 254.287C560.354 262.827 565.564 271.37 571.784 278.045L576.174 273.955ZM567.402 234.079C576.061 224.924 586.367 225.739 593.217 230.38L596.583 225.413C587.566 219.303 573.936 218.439 563.043 229.956L567.402 234.079ZM593.217 230.38C598.378 233.877 602.541 239.742 602.964 248.061L608.957 247.756C608.428 237.375 603.145 229.86 596.583 225.413L593.217 230.38Z" fill="#4B90F3"/>
<rect x="473" y="276" width="223" height="90" rx="45" stroke="#4B90F3" stroke-width="6"/>
<path d="M527.025 338.576C525.233 338.576 523.633 338.272 522.225 337.664C520.817 337.056 519.617 336.192 518.625 335.072C517.633 333.92 516.865 332.544 516.321 330.944C515.809 329.312 515.553 327.504 515.553 325.52C515.553 323.536 515.809 321.744 516.321 320.144C516.865 318.512 517.633 317.136 518.625 316.016C519.617 314.864 520.817 313.984 522.225 313.376C523.633 312.768 525.233 312.464 527.025 312.464C528.849 312.464 530.449 312.784 531.825 313.424C533.233 314.064 534.401 314.96 535.329 316.112C536.257 317.232 536.945 318.544 537.393 320.048C537.873 321.552 538.113 323.168 538.113 324.896V326.864H520.977V327.68C520.977 329.6 521.537 331.184 522.657 332.432C523.809 333.648 525.441 334.256 527.553 334.256C529.089 334.256 530.385 333.92 531.441 333.248C532.497 332.576 533.393 331.664 534.129 330.512L537.201 333.536C536.273 335.072 534.929 336.304 533.169 337.232C531.409 338.128 529.361 338.576 527.025 338.576ZM527.025 316.544C526.129 316.544 525.297 316.704 524.529 317.024C523.793 317.344 523.153 317.792 522.609 318.368C522.097 318.944 521.697 319.632 521.409 320.432C521.121 321.232 520.977 322.112 520.977 323.072V323.408H532.593V322.928C532.593 321.008 532.097 319.472 531.105 318.32C530.113 317.136 528.753 316.544 527.025 316.544ZM565.313 340.352C565.313 342.944 564.321 344.896 562.337 346.208C560.353 347.52 557.121 348.176 552.641 348.176C550.593 348.176 548.849 348.032 547.409 347.744C546.001 347.488 544.833 347.104 543.905 346.592C543.009 346.08 542.353 345.456 541.937 344.72C541.521 343.984 541.313 343.136 541.313 342.176C541.313 340.8 541.681 339.728 542.417 338.96C543.185 338.192 544.241 337.664 545.585 337.376V336.848C543.697 336.24 542.753 334.96 542.753 333.008C542.753 331.728 543.185 330.752 544.049 330.08C544.913 329.376 545.953 328.88 547.169 328.592V328.4C545.697 327.696 544.561 326.72 543.761 325.472C542.993 324.192 542.609 322.704 542.609 321.008C542.609 318.448 543.457 316.384 545.153 314.816C546.881 313.248 549.345 312.464 552.545 312.464C554.305 312.464 555.809 312.72 557.057 313.232V312.56C557.057 311.44 557.313 310.576 557.825 309.968C558.369 309.328 559.201 309.008 560.321 309.008H564.161V313.232H559.073V314.24C560.193 314.976 561.057 315.936 561.665 317.12C562.273 318.272 562.577 319.568 562.577 321.008C562.577 323.536 561.713 325.584 559.985 327.152C558.257 328.688 555.793 329.456 552.593 329.456C551.377 329.456 550.289 329.328 549.329 329.072C548.689 329.296 548.129 329.616 547.649 330.032C547.169 330.416 546.929 330.928 546.929 331.568C546.929 332.24 547.233 332.72 547.841 333.008C548.449 333.296 549.313 333.44 550.433 333.44H556.577C559.649 333.44 561.873 334.064 563.249 335.312C564.625 336.528 565.313 338.208 565.313 340.352ZM560.417 340.928C560.417 340.064 560.081 339.376 559.409 338.864C558.769 338.352 557.585 338.096 555.857 338.096H547.409C546.257 338.768 545.681 339.728 545.681 340.976C545.681 342 546.081 342.816 546.881 343.424C547.713 344.064 549.105 344.384 551.057 344.384H554.321C558.385 344.384 560.417 343.232 560.417 340.928ZM552.593 325.664C554.129 325.664 555.313 325.328 556.145 324.656C557.009 323.952 557.441 322.88 557.441 321.44V320.48C557.441 319.04 557.009 317.984 556.145 317.312C555.313 316.608 554.129 316.256 552.593 316.256C551.057 316.256 549.857 316.608 548.993 317.312C548.161 317.984 547.745 319.04 547.745 320.48V321.44C547.745 322.88 548.161 323.952 548.993 324.656C549.857 325.328 551.057 325.664 552.593 325.664ZM568.726 338V313.04H573.958V317.84H574.198C574.55 316.56 575.286 315.44 576.406 314.48C577.526 313.52 579.078 313.04 581.062 313.04H582.454V318.08H580.39C578.31 318.08 576.71 318.416 575.59 319.088C574.502 319.76 573.958 320.752 573.958 322.064V338H568.726ZM596.179 338.576C594.387 338.576 592.787 338.272 591.379 337.664C589.971 337.056 588.771 336.192 587.779 335.072C586.787 333.92 586.019 332.544 585.475 330.944C584.963 329.312 584.707 327.504 584.707 325.52C584.707 323.536 584.963 321.744 585.475 320.144C586.019 318.512 586.787 317.136 587.779 316.016C588.771 314.864 589.971 313.984 591.379 313.376C592.787 312.768 594.387 312.464 596.179 312.464C598.003 312.464 599.603 312.784 600.979 313.424C602.387 314.064 603.555 314.96 604.483 316.112C605.411 317.232 606.099 318.544 606.547 320.048C607.027 321.552 607.267 323.168 607.267 324.896V326.864H590.131V327.68C590.131 329.6 590.691 331.184 591.811 332.432C592.963 333.648 594.595 334.256 596.707 334.256C598.243 334.256 599.539 333.92 600.595 333.248C601.651 332.576 602.547 331.664 603.283 330.512L606.355 333.536C605.427 335.072 604.083 336.304 602.323 337.232C600.563 338.128 598.515 338.576 596.179 338.576ZM596.179 316.544C595.283 316.544 594.451 316.704 593.683 317.024C592.947 317.344 592.307 317.792 591.763 318.368C591.251 318.944 590.851 319.632 590.563 320.432C590.275 321.232 590.131 322.112 590.131 323.072V323.408H601.747V322.928C601.747 321.008 601.251 319.472 600.259 318.32C599.267 317.136 597.907 316.544 596.179 316.544ZM620.499 338.576C618.131 338.576 616.147 338.16 614.547 337.328C612.947 336.496 611.555 335.344 610.371 333.872L613.731 330.8C614.659 331.92 615.683 332.8 616.803 333.44C617.955 334.048 619.283 334.352 620.787 334.352C622.323 334.352 623.459 334.064 624.195 333.488C624.963 332.88 625.347 332.048 625.347 330.992C625.347 330.192 625.075 329.52 624.531 328.976C624.019 328.4 623.107 328.032 621.795 327.872L619.491 327.584C616.931 327.264 614.915 326.528 613.443 325.376C612.003 324.192 611.283 322.448 611.283 320.144C611.283 318.928 611.507 317.856 611.955 316.928C612.403 315.968 613.027 315.168 613.827 314.528C614.659 313.856 615.635 313.344 616.755 312.992C617.907 312.64 619.171 312.464 620.547 312.464C622.787 312.464 624.611 312.816 626.019 313.52C627.459 314.224 628.739 315.2 629.859 316.448L626.643 319.52C626.003 318.752 625.155 318.096 624.099 317.552C623.075 316.976 621.891 316.688 620.547 316.688C619.107 316.688 618.035 316.976 617.331 317.552C616.659 318.128 616.323 318.88 616.323 319.808C616.323 320.768 616.627 321.488 617.235 321.968C617.843 322.448 618.819 322.8 620.163 323.024L622.467 323.312C625.219 323.728 627.219 324.544 628.467 325.76C629.747 326.944 630.387 328.544 630.387 330.56C630.387 331.776 630.147 332.88 629.667 333.872C629.219 334.832 628.563 335.664 627.699 336.368C626.835 337.072 625.795 337.616 624.579 338C623.363 338.384 622.003 338.576 620.499 338.576ZM643.456 338.576C641.088 338.576 639.104 338.16 637.504 337.328C635.904 336.496 634.512 335.344 633.328 333.872L636.688 330.8C637.616 331.92 638.64 332.8 639.76 333.44C640.912 334.048 642.24 334.352 643.744 334.352C645.28 334.352 646.416 334.064 647.152 333.488C647.92 332.88 648.304 332.048 648.304 330.992C648.304 330.192 648.032 329.52 647.488 328.976C646.976 328.4 646.064 328.032 644.752 327.872L642.448 327.584C639.888 327.264 637.872 326.528 636.4 325.376C634.96 324.192 634.24 322.448 634.24 320.144C634.24 318.928 634.464 317.856 634.912 316.928C635.36 315.968 635.984 315.168 636.784 314.528C637.616 313.856 638.592 313.344 639.712 312.992C640.864 312.64 642.128 312.464 643.504 312.464C645.744 312.464 647.568 312.816 648.976 313.52C650.416 314.224 651.696 315.2 652.816 316.448L649.6 319.52C648.96 318.752 648.112 318.096 647.056 317.552C646.032 316.976 644.848 316.688 643.504 316.688C642.064 316.688 640.992 316.976 640.288 317.552C639.616 318.128 639.28 318.88 639.28 319.808C639.28 320.768 639.584 321.488 640.192 321.968C640.8 322.448 641.776 322.8 643.12 323.024L645.424 323.312C648.176 323.728 650.176 324.544 651.424 325.76C652.704 326.944 653.344 328.544 653.344 330.56C653.344 331.776 653.104 332.88 652.624 333.872C652.176 334.832 651.52 335.664 650.656 336.368C649.792 337.072 648.752 337.616 647.536 338C646.32 338.384 644.96 338.576 643.456 338.576Z" fill="#4B90F3"/>
<path d="M1062.62 300.882L1060.63 303.121L1060.63 303.121L1062.62 300.882ZM1067.39 329.806L1069.89 331.46L1069.89 331.46L1067.39 329.806ZM1021.73 333.89L1046.18 358.429L1055.21 324.985L1021.73 333.89ZM1021.07 312.319C1027.02 306.664 1034.57 302.029 1041.88 300.043C1049.18 298.06 1055.78 298.798 1060.63 303.121L1064.62 298.644C1057.74 292.505 1048.77 291.951 1040.31 294.253C1031.85 296.551 1023.45 301.779 1016.93 307.969L1021.07 312.319ZM1060.63 303.121C1069.93 311.421 1069.32 321.441 1064.89 328.152L1069.89 331.46C1075.82 322.498 1076.35 309.11 1064.62 298.644L1060.63 303.121ZM1064.89 328.152C1061.55 333.205 1055.84 337.361 1047.59 337.933L1048 343.918C1058.26 343.207 1065.61 337.945 1069.89 331.46L1064.89 328.152Z" fill="#4B90F3"/>
<rect x="930" y="276" width="90" height="90" rx="45" stroke="#4B90F3" stroke-width="6"/>
<path d="M972.236 338V324.8L960.716 304.496H966.908L975.068 319.424H975.212L983.324 304.496H989.276L977.66 324.704V338H972.236Z" fill="#4B90F3"/>
<path d="M282.624 300.882L280.626 303.121L280.626 303.121L282.624 300.882ZM287.391 329.806L289.894 331.46L289.894 331.46L287.391 329.806ZM241.729 333.89L266.179 358.429L275.206 324.985L241.729 333.89ZM241.066 312.319C247.022 306.664 254.573 302.029 261.88 300.043C269.175 298.06 275.783 298.798 280.626 303.121L284.621 298.644C277.741 292.505 268.774 291.951 260.306 294.253C251.851 296.551 243.452 301.779 236.934 307.969L241.066 312.319ZM280.626 303.121C289.928 311.421 289.323 321.441 284.888 328.152L289.894 331.46C295.817 322.498 296.35 309.11 284.621 298.644L280.626 303.121ZM284.888 328.152C281.548 333.205 275.838 337.361 267.589 337.933L268.004 343.918C278.263 343.207 285.608 337.945 289.894 331.46L284.888 328.152Z" fill="#4B90F3"/>
<rect x="150" y="276" width="90" height="90" rx="45" stroke="#4B90F3" stroke-width="6"/>
<path d="M209.336 338H202.952L194.84 324.656H194.696L186.68 338H180.68L191.528 320.864L181.064 304.496H187.448L195.08 316.976H195.176L202.904 304.496H208.904L198.344 320.816L209.336 338Z" fill="#4B90F3"/>
<path d="M882.222 12.0173L884.402 14.0788L882.222 12.0173ZM911.9 7.89685L910.217 10.3804L911.9 7.89685ZM915.324 53.8063L940.422 29.9297L907.196 20.1325L915.324 53.8063ZM893.174 53.9548C887.478 47.8422 882.86 40.1555 880.949 32.7819C879.042 25.4249 879.906 18.8317 884.402 14.0788L880.043 9.95576C873.639 16.7259 872.923 25.7303 875.141 34.2871C877.354 42.8273 882.564 51.3704 888.784 58.0452L893.174 53.9548ZM884.402 14.0788C893.061 4.92411 903.367 5.73867 910.217 10.3804L913.583 5.41332C904.566 -0.696577 890.936 -1.56119 880.043 9.95576L884.402 14.0788ZM910.217 10.3804C915.378 13.8771 919.541 19.7417 919.964 28.0609L925.957 27.7557C925.428 17.3749 920.145 9.85954 913.583 5.41332L910.217 10.3804Z" fill="#4B90F3"/>
<rect x="636" y="56" width="531" height="90" rx="45" stroke="#4B90F3" stroke-width="6"/>
<path d="M679.853 82.48H685.085V97.168H685.325C685.869 95.664 686.749 94.512 687.965 93.712C689.213 92.88 690.669 92.464 692.333 92.464C695.501 92.464 697.949 93.616 699.677 95.92C701.405 98.192 702.269 101.392 702.269 105.52C702.269 109.648 701.405 112.864 699.677 115.168C697.949 117.44 695.501 118.576 692.333 118.576C690.669 118.576 689.213 118.16 687.965 117.328C686.749 116.496 685.869 115.344 685.325 113.872H685.085V118H679.853V82.48ZM690.749 114.064C692.573 114.064 694.029 113.488 695.117 112.336C696.205 111.152 696.749 109.6 696.749 107.68V103.36C696.749 101.44 696.205 99.904 695.117 98.752C694.029 97.568 692.573 96.976 690.749 96.976C689.149 96.976 687.805 97.376 686.717 98.176C685.629 98.944 685.085 99.968 685.085 101.248V109.792C685.085 111.072 685.629 112.112 686.717 112.912C687.805 113.68 689.149 114.064 690.749 114.064ZM707.779 118V93.04H713.011V97.84H713.251C713.603 96.56 714.339 95.44 715.459 94.48C716.579 93.52 718.131 93.04 720.115 93.04H721.507V98.08H719.443C717.363 98.08 715.763 98.416 714.643 99.088C713.555 99.76 713.011 100.752 713.011 102.064V118H707.779ZM728.314 88.576C727.226 88.576 726.426 88.32 725.914 87.808C725.434 87.296 725.194 86.64 725.194 85.84V85.024C725.194 84.224 725.434 83.568 725.914 83.056C726.426 82.544 727.226 82.288 728.314 82.288C729.402 82.288 730.186 82.544 730.666 83.056C731.146 83.568 731.386 84.224 731.386 85.024V85.84C731.386 86.64 731.146 87.296 730.666 87.808C730.186 88.32 729.402 88.576 728.314 88.576ZM725.674 93.04H730.906V118H725.674V93.04ZM753.593 113.872H753.353C752.809 115.344 751.913 116.496 750.665 117.328C749.449 118.16 748.009 118.576 746.345 118.576C743.177 118.576 740.729 117.44 739.001 115.168C737.273 112.864 736.409 109.648 736.409 105.52C736.409 101.392 737.273 98.192 739.001 95.92C740.729 93.616 743.177 92.464 746.345 92.464C748.009 92.464 749.449 92.88 750.665 93.712C751.913 94.512 752.809 95.664 753.353 97.168H753.593V82.48H758.825V118H753.593V113.872ZM747.929 114.064C749.529 114.064 750.873 113.68 751.961 112.912C753.049 112.112 753.593 111.072 753.593 109.792V101.248C753.593 99.968 753.049 98.944 751.961 98.176C750.873 97.376 749.529 96.976 747.929 96.976C746.105 96.976 744.649 97.568 743.561 98.752C742.473 99.904 741.929 101.44 741.929 103.36V107.68C741.929 109.6 742.473 111.152 743.561 112.336C744.649 113.488 746.105 114.064 747.929 114.064ZM787.712 120.352C787.712 122.944 786.72 124.896 784.736 126.208C782.752 127.52 779.52 128.176 775.04 128.176C772.992 128.176 771.248 128.032 769.808 127.744C768.4 127.488 767.232 127.104 766.304 126.592C765.408 126.08 764.752 125.456 764.336 124.72C763.92 123.984 763.712 123.136 763.712 122.176C763.712 120.8 764.08 119.728 764.816 118.96C765.584 118.192 766.64 117.664 767.984 117.376V116.848C766.096 116.24 765.152 114.96 765.152 113.008C765.152 111.728 765.584 110.752 766.448 110.08C767.312 109.376 768.352 108.88 769.568 108.592V108.4C768.096 107.696 766.96 106.72 766.16 105.472C765.392 104.192 765.008 102.704 765.008 101.008C765.008 98.448 765.856 96.384 767.552 94.816C769.28 93.248 771.744 92.464 774.944 92.464C776.704 92.464 778.208 92.72 779.456 93.232V92.56C779.456 91.44 779.712 90.576 780.224 89.968C780.768 89.328 781.6 89.008 782.72 89.008H786.56V93.232H781.472V94.24C782.592 94.976 783.456 95.936 784.064 97.12C784.672 98.272 784.976 99.568 784.976 101.008C784.976 103.536 784.112 105.584 782.384 107.152C780.656 108.688 778.192 109.456 774.992 109.456C773.776 109.456 772.688 109.328 771.728 109.072C771.088 109.296 770.528 109.616 770.048 110.032C769.568 110.416 769.328 110.928 769.328 111.568C769.328 112.24 769.632 112.72 770.24 113.008C770.848 113.296 771.712 113.44 772.832 113.44H778.976C782.048 113.44 784.272 114.064 785.648 115.312C787.024 116.528 787.712 118.208 787.712 120.352ZM782.816 120.928C782.816 120.064 782.48 119.376 781.808 118.864C781.168 118.352 779.984 118.096 778.256 118.096H769.808C768.656 118.768 768.08 119.728 768.08 120.976C768.08 122 768.48 122.816 769.28 123.424C770.112 124.064 771.504 124.384 773.456 124.384H776.72C780.784 124.384 782.816 123.232 782.816 120.928ZM774.992 105.664C776.528 105.664 777.712 105.328 778.544 104.656C779.408 103.952 779.84 102.88 779.84 101.44V100.48C779.84 99.04 779.408 97.984 778.544 97.312C777.712 96.608 776.528 96.256 774.992 96.256C773.456 96.256 772.256 96.608 771.392 97.312C770.56 97.984 770.144 99.04 770.144 100.48V101.44C770.144 102.88 770.56 103.952 771.392 104.656C772.256 105.328 773.456 105.664 774.992 105.664ZM800.636 118.576C798.844 118.576 797.244 118.272 795.836 117.664C794.428 117.056 793.228 116.192 792.236 115.072C791.244 113.92 790.476 112.544 789.932 110.944C789.42 109.312 789.164 107.504 789.164 105.52C789.164 103.536 789.42 101.744 789.932 100.144C790.476 98.512 791.244 97.136 792.236 96.016C793.228 94.864 794.428 93.984 795.836 93.376C797.244 92.768 798.844 92.464 800.636 92.464C802.46 92.464 804.06 92.784 805.436 93.424C806.844 94.064 808.012 94.96 808.94 96.112C809.868 97.232 810.556 98.544 811.004 100.048C811.484 101.552 811.724 103.168 811.724 104.896V106.864H794.588V107.68C794.588 109.6 795.148 111.184 796.268 112.432C797.42 113.648 799.052 114.256 801.164 114.256C802.7 114.256 803.996 113.92 805.052 113.248C806.108 112.576 807.004 111.664 807.74 110.512L810.812 113.536C809.884 115.072 808.54 116.304 806.78 117.232C805.02 118.128 802.972 118.576 800.636 118.576ZM800.636 96.544C799.74 96.544 798.908 96.704 798.14 97.024C797.404 97.344 796.764 97.792 796.22 98.368C795.708 98.944 795.308 99.632 795.02 100.432C794.732 101.232 794.588 102.112 794.588 103.072V103.408H806.204V102.928C806.204 101.008 805.708 99.472 804.716 98.32C803.724 97.136 802.364 96.544 800.636 96.544ZM827.179 103.072C827.179 100.736 827.387 98.496 827.803 96.352C828.251 94.208 828.859 92.208 829.627 90.352C830.395 88.496 831.291 86.816 832.315 85.312C833.371 83.808 834.507 82.544 835.723 81.52H840.667C839.355 82.736 838.171 84.096 837.115 85.6C836.059 87.104 835.163 88.704 834.427 90.4C833.691 92.096 833.115 93.856 832.699 95.68C832.315 97.504 832.123 99.328 832.123 101.152V104.992C832.123 106.816 832.315 108.64 832.699 110.464C833.115 112.288 833.691 114.048 834.427 115.744C835.163 117.44 836.059 119.04 837.115 120.544C838.171 122.08 839.355 123.44 840.667 124.624H835.723C834.507 123.6 833.371 122.336 832.315 120.832C831.291 119.328 830.395 117.648 829.627 115.792C828.859 113.936 828.251 111.936 827.803 109.792C827.387 107.648 827.179 105.408 827.179 103.072ZM859.24 113.872H859C858.456 115.344 857.56 116.496 856.312 117.328C855.096 118.16 853.656 118.576 851.992 118.576C848.824 118.576 846.376 117.44 844.648 115.168C842.92 112.864 842.056 109.648 842.056 105.52C842.056 101.392 842.92 98.192 844.648 95.92C846.376 93.616 848.824 92.464 851.992 92.464C853.656 92.464 855.096 92.88 856.312 93.712C857.56 94.512 858.456 95.664 859 97.168H859.24V82.48H864.472V118H859.24V113.872ZM853.576 114.064C855.176 114.064 856.52 113.68 857.608 112.912C858.696 112.112 859.24 111.072 859.24 109.792V101.248C859.24 99.968 858.696 98.944 857.608 98.176C856.52 97.376 855.176 96.976 853.576 96.976C851.752 96.976 850.296 97.568 849.208 98.752C848.12 99.904 847.576 101.44 847.576 103.36V107.68C847.576 109.6 848.12 111.152 849.208 112.336C850.296 113.488 851.752 114.064 853.576 114.064ZM881.263 118.576C879.535 118.576 877.951 118.272 876.511 117.664C875.103 117.056 873.903 116.192 872.911 115.072C871.919 113.92 871.151 112.544 870.607 110.944C870.063 109.312 869.791 107.504 869.791 105.52C869.791 103.536 870.063 101.744 870.607 100.144C871.151 98.512 871.919 97.136 872.911 96.016C873.903 94.864 875.103 93.984 876.511 93.376C877.951 92.768 879.535 92.464 881.263 92.464C882.991 92.464 884.559 92.768 885.967 93.376C887.407 93.984 888.623 94.864 889.615 96.016C890.607 97.136 891.375 98.512 891.919 100.144C892.463 101.744 892.735 103.536 892.735 105.52C892.735 107.504 892.463 109.312 891.919 110.944C891.375 112.544 890.607 113.92 889.615 115.072C888.623 116.192 887.407 117.056 885.967 117.664C884.559 118.272 882.991 118.576 881.263 118.576ZM881.263 114.256C883.055 114.256 884.495 113.712 885.583 112.624C886.671 111.504 887.215 109.84 887.215 107.632V103.408C887.215 101.2 886.671 99.552 885.583 98.464C884.495 97.344 883.055 96.784 881.263 96.784C879.471 96.784 878.031 97.344 876.943 98.464C875.855 99.552 875.311 101.2 875.311 103.408V107.632C875.311 109.84 875.855 111.504 876.943 112.624C878.031 113.712 879.471 114.256 881.263 114.256ZM895.26 93.04H900.348L902.892 103.504L905.148 112.96H905.292L907.884 103.504L910.908 93.04H915.612L918.684 103.504L921.324 112.96H921.468L923.676 103.504L926.268 93.04H931.116L924.396 118H918.492L915.228 106.624L913.212 99.616H913.116L911.148 106.624L907.836 118H902.076L895.26 93.04ZM935.62 118V93.04H940.852V97.168H941.092C941.636 95.824 942.452 94.704 943.54 93.808C944.66 92.912 946.18 92.464 948.1 92.464C950.66 92.464 952.644 93.312 954.052 95.008C955.492 96.672 956.212 99.056 956.212 102.16V118H950.98V102.832C950.98 98.928 949.412 96.976 946.276 96.976C945.604 96.976 944.932 97.072 944.26 97.264C943.62 97.424 943.044 97.68 942.532 98.032C942.02 98.384 941.604 98.832 941.284 99.376C940.996 99.92 940.852 100.56 940.852 101.296V118H935.62ZM970.904 118.576C968.536 118.576 966.552 118.16 964.952 117.328C963.352 116.496 961.96 115.344 960.776 113.872L964.136 110.8C965.064 111.92 966.088 112.8 967.208 113.44C968.36 114.048 969.688 114.352 971.192 114.352C972.728 114.352 973.864 114.064 974.6 113.488C975.368 112.88 975.752 112.048 975.752 110.992C975.752 110.192 975.48 109.52 974.936 108.976C974.424 108.4 973.512 108.032 972.2 107.872L969.896 107.584C967.336 107.264 965.32 106.528 963.848 105.376C962.408 104.192 961.688 102.448 961.688 100.144C961.688 98.928 961.912 97.856 962.36 96.928C962.808 95.968 963.432 95.168 964.232 94.528C965.064 93.856 966.04 93.344 967.16 92.992C968.312 92.64 969.576 92.464 970.952 92.464C973.192 92.464 975.016 92.816 976.424 93.52C977.864 94.224 979.144 95.2 980.264 96.448L977.048 99.52C976.408 98.752 975.56 98.096 974.504 97.552C973.48 96.976 972.296 96.688 970.952 96.688C969.512 96.688 968.44 96.976 967.736 97.552C967.064 98.128 966.728 98.88 966.728 99.808C966.728 100.768 967.032 101.488 967.64 101.968C968.248 102.448 969.224 102.8 970.568 103.024L972.872 103.312C975.624 103.728 977.624 104.544 978.872 105.76C980.152 106.944 980.792 108.544 980.792 110.56C980.792 111.776 980.552 112.88 980.072 113.872C979.624 114.832 978.968 115.664 978.104 116.368C977.24 117.072 976.2 117.616 974.984 118C973.768 118.384 972.408 118.576 970.904 118.576ZM992.806 118C990.982 118 989.606 117.536 988.678 116.608C987.75 115.648 987.286 114.304 987.286 112.576V97.312H983.398V93.04H985.51C986.374 93.04 986.966 92.848 987.286 92.464C987.638 92.08 987.814 91.456 987.814 90.592V86.224H992.518V93.04H997.75V97.312H992.518V113.728H997.366V118H992.806ZM1002.95 118V93.04H1008.18V97.84H1008.42C1008.77 96.56 1009.51 95.44 1010.63 94.48C1011.75 93.52 1013.3 93.04 1015.28 93.04H1016.67V98.08H1014.61C1012.53 98.08 1010.93 98.416 1009.81 99.088C1008.72 99.76 1008.18 100.752 1008.18 102.064V118H1002.95ZM1030.4 118.576C1028.61 118.576 1027.01 118.272 1025.6 117.664C1024.19 117.056 1022.99 116.192 1022 115.072C1021.01 113.92 1020.24 112.544 1019.69 110.944C1019.18 109.312 1018.93 107.504 1018.93 105.52C1018.93 103.536 1019.18 101.744 1019.69 100.144C1020.24 98.512 1021.01 97.136 1022 96.016C1022.99 94.864 1024.19 93.984 1025.6 93.376C1027.01 92.768 1028.61 92.464 1030.4 92.464C1032.22 92.464 1033.82 92.784 1035.2 93.424C1036.61 94.064 1037.77 94.96 1038.7 96.112C1039.63 97.232 1040.32 98.544 1040.77 100.048C1041.25 101.552 1041.49 103.168 1041.49 104.896V106.864H1024.35V107.68C1024.35 109.6 1024.91 111.184 1026.03 112.432C1027.18 113.648 1028.81 114.256 1030.93 114.256C1032.46 114.256 1033.76 113.92 1034.81 113.248C1035.87 112.576 1036.77 111.664 1037.5 110.512L1040.57 113.536C1039.65 115.072 1038.3 116.304 1036.54 117.232C1034.78 118.128 1032.73 118.576 1030.4 118.576ZM1030.4 96.544C1029.5 96.544 1028.67 96.704 1027.9 97.024C1027.17 97.344 1026.53 97.792 1025.98 98.368C1025.47 98.944 1025.07 99.632 1024.78 100.432C1024.49 101.232 1024.35 102.112 1024.35 103.072V103.408H1035.97V102.928C1035.97 101.008 1035.47 99.472 1034.48 98.32C1033.49 97.136 1032.13 96.544 1030.4 96.544ZM1065.09 118C1063.71 118 1062.65 117.616 1061.92 116.848C1061.18 116.048 1060.73 115.04 1060.57 113.824H1060.33C1059.85 115.392 1058.97 116.576 1057.69 117.376C1056.41 118.176 1054.86 118.576 1053.04 118.576C1050.45 118.576 1048.45 117.904 1047.04 116.56C1045.66 115.216 1044.97 113.408 1044.97 111.136C1044.97 108.64 1045.87 106.768 1047.66 105.52C1049.49 104.272 1052.14 103.648 1055.63 103.648H1060.14V101.536C1060.14 100 1059.73 98.816 1058.89 97.984C1058.06 97.152 1056.77 96.736 1055.01 96.736C1053.53 96.736 1052.33 97.056 1051.41 97.696C1050.48 98.336 1049.69 99.152 1049.05 100.144L1045.93 97.312C1046.77 95.904 1047.93 94.752 1049.44 93.856C1050.94 92.928 1052.91 92.464 1055.34 92.464C1058.57 92.464 1061.05 93.216 1062.78 94.72C1064.51 96.224 1065.37 98.384 1065.37 101.2V113.728H1068.01V118H1065.09ZM1054.53 114.592C1056.16 114.592 1057.5 114.24 1058.56 113.536C1059.61 112.8 1060.14 111.824 1060.14 110.608V107.008H1055.73C1052.11 107.008 1050.3 108.128 1050.3 110.368V111.232C1050.3 112.352 1050.67 113.2 1051.41 113.776C1052.17 114.32 1053.21 114.592 1054.53 114.592ZM1072.66 118V93.04H1077.89V97.168H1078.13C1078.39 96.528 1078.69 95.92 1079.05 95.344C1079.43 94.768 1079.88 94.272 1080.39 93.856C1080.93 93.408 1081.56 93.072 1082.26 92.848C1083 92.592 1083.85 92.464 1084.81 92.464C1086.5 92.464 1088.01 92.88 1089.32 93.712C1090.63 94.544 1091.59 95.824 1092.2 97.552H1092.34C1092.79 96.144 1093.65 94.944 1094.93 93.952C1096.21 92.96 1097.86 92.464 1099.88 92.464C1102.37 92.464 1104.31 93.312 1105.69 95.008C1107.06 96.672 1107.75 99.056 1107.75 102.16V118H1102.52V102.784C1102.52 100.864 1102.15 99.424 1101.41 98.464C1100.68 97.472 1099.51 96.976 1097.91 96.976C1097.24 96.976 1096.6 97.072 1095.99 97.264C1095.38 97.424 1094.84 97.68 1094.36 98.032C1093.91 98.384 1093.54 98.832 1093.25 99.376C1092.97 99.92 1092.82 100.544 1092.82 101.248V118H1087.59V102.784C1087.59 98.912 1086.07 96.976 1083.03 96.976C1082.39 96.976 1081.75 97.072 1081.11 97.264C1080.5 97.424 1079.96 97.68 1079.48 98.032C1079 98.384 1078.61 98.832 1078.33 99.376C1078.04 99.92 1077.89 100.544 1077.89 101.248V118H1072.66ZM1123.87 103.072C1123.87 105.408 1123.65 107.648 1123.2 109.792C1122.78 111.936 1122.19 113.936 1121.42 115.792C1120.65 117.648 1119.74 119.328 1118.69 120.832C1117.66 122.336 1116.54 123.6 1115.33 124.624H1110.38C1111.69 123.44 1112.88 122.08 1113.93 120.544C1114.99 119.04 1115.89 117.44 1116.62 115.744C1117.36 114.048 1117.92 112.288 1118.3 110.464C1118.72 108.64 1118.93 106.816 1118.93 104.992V101.152C1118.93 99.328 1118.72 97.504 1118.3 95.68C1117.92 93.856 1117.36 92.096 1116.62 90.4C1115.89 88.704 1114.99 87.104 1113.93 85.6C1112.88 84.096 1111.69 82.736 1110.38 81.52H1115.33C1116.54 82.544 1117.66 83.808 1118.69 85.312C1119.74 86.816 1120.65 88.496 1121.42 90.352C1122.19 92.208 1122.78 94.208 1123.2 96.352C1123.65 98.496 1123.87 100.736 1123.87 103.072Z" fill="#4B90F3"/>
<path d="M249.222 12.0173L251.402 14.0788L249.222 12.0173ZM278.9 7.89685L277.217 10.3804L278.9 7.89685ZM282.324 53.8063L307.422 29.9297L274.196 20.1325L282.324 53.8063ZM260.174 53.9548C254.478 47.8422 249.86 40.1555 247.949 32.7819C246.042 25.4249 246.906 18.8317 251.402 14.0788L247.043 9.95576C240.639 16.7259 239.923 25.7303 242.141 34.2871C244.354 42.8273 249.564 51.3704 255.784 58.0452L260.174 53.9548ZM251.402 14.0788C260.061 4.92411 270.367 5.73867 277.217 10.3804L280.583 5.41332C271.566 -0.696577 257.936 -1.56119 247.043 9.95576L251.402 14.0788ZM277.217 10.3804C282.378 13.8771 286.541 19.7417 286.964 28.0609L292.957 27.7557C292.428 17.3749 287.145 9.85954 280.583 5.41332L277.217 10.3804Z" fill="#4B90F3"/>
<rect x="3" y="56" width="531" height="90" rx="45" stroke="#4B90F3" stroke-width="6"/>
<path d="M78.9277 82.48H84.1597V97.168H84.3997C84.9437 95.664 85.8237 94.512 87.0397 93.712C88.2877 92.88 89.7437 92.464 91.4077 92.464C94.5757 92.464 97.0237 93.616 98.7517 95.92C100.48 98.192 101.344 101.392 101.344 105.52C101.344 109.648 100.48 112.864 98.7517 115.168C97.0237 117.44 94.5757 118.576 91.4077 118.576C89.7437 118.576 88.2877 118.16 87.0397 117.328C85.8237 116.496 84.9437 115.344 84.3997 113.872H84.1597V118H78.9277V82.48ZM89.8237 114.064C91.6477 114.064 93.1037 113.488 94.1917 112.336C95.2797 111.152 95.8237 109.6 95.8237 107.68V103.36C95.8237 101.44 95.2797 99.904 94.1917 98.752C93.1037 97.568 91.6477 96.976 89.8237 96.976C88.2237 96.976 86.8797 97.376 85.7917 98.176C84.7037 98.944 84.1597 99.968 84.1597 101.248V109.792C84.1597 111.072 84.7037 112.112 85.7917 112.912C86.8797 113.68 88.2237 114.064 89.8237 114.064ZM106.854 118V93.04H112.086V97.84H112.326C112.678 96.56 113.414 95.44 114.534 94.48C115.654 93.52 117.206 93.04 119.19 93.04H120.582V98.08H118.518C116.438 98.08 114.838 98.416 113.718 99.088C112.63 99.76 112.086 100.752 112.086 102.064V118H106.854ZM127.389 88.576C126.301 88.576 125.501 88.32 124.989 87.808C124.509 87.296 124.269 86.64 124.269 85.84V85.024C124.269 84.224 124.509 83.568 124.989 83.056C125.501 82.544 126.301 82.288 127.389 82.288C128.477 82.288 129.261 82.544 129.741 83.056C130.221 83.568 130.461 84.224 130.461 85.024V85.84C130.461 86.64 130.221 87.296 129.741 87.808C129.261 88.32 128.477 88.576 127.389 88.576ZM124.749 93.04H129.981V118H124.749V93.04ZM152.668 113.872H152.428C151.884 115.344 150.988 116.496 149.74 117.328C148.524 118.16 147.084 118.576 145.42 118.576C142.252 118.576 139.804 117.44 138.076 115.168C136.348 112.864 135.484 109.648 135.484 105.52C135.484 101.392 136.348 98.192 138.076 95.92C139.804 93.616 142.252 92.464 145.42 92.464C147.084 92.464 148.524 92.88 149.74 93.712C150.988 94.512 151.884 95.664 152.428 97.168H152.668V82.48H157.9V118H152.668V113.872ZM147.004 114.064C148.604 114.064 149.948 113.68 151.036 112.912C152.124 112.112 152.668 111.072 152.668 109.792V101.248C152.668 99.968 152.124 98.944 151.036 98.176C149.948 97.376 148.604 96.976 147.004 96.976C145.18 96.976 143.724 97.568 142.636 98.752C141.548 99.904 141.004 101.44 141.004 103.36V107.68C141.004 109.6 141.548 111.152 142.636 112.336C143.724 113.488 145.18 114.064 147.004 114.064ZM186.786 120.352C186.786 122.944 185.794 124.896 183.81 126.208C181.826 127.52 178.594 128.176 174.114 128.176C172.066 128.176 170.322 128.032 168.882 127.744C167.474 127.488 166.306 127.104 165.378 126.592C164.482 126.08 163.826 125.456 163.41 124.72C162.994 123.984 162.786 123.136 162.786 122.176C162.786 120.8 163.154 119.728 163.89 118.96C164.658 118.192 165.714 117.664 167.058 117.376V116.848C165.17 116.24 164.226 114.96 164.226 113.008C164.226 111.728 164.658 110.752 165.522 110.08C166.386 109.376 167.426 108.88 168.642 108.592V108.4C167.17 107.696 166.034 106.72 165.234 105.472C164.466 104.192 164.082 102.704 164.082 101.008C164.082 98.448 164.93 96.384 166.626 94.816C168.354 93.248 170.818 92.464 174.018 92.464C175.778 92.464 177.282 92.72 178.53 93.232V92.56C178.53 91.44 178.786 90.576 179.298 89.968C179.842 89.328 180.674 89.008 181.794 89.008H185.634V93.232H180.546V94.24C181.666 94.976 182.53 95.936 183.138 97.12C183.746 98.272 184.05 99.568 184.05 101.008C184.05 103.536 183.186 105.584 181.458 107.152C179.73 108.688 177.266 109.456 174.066 109.456C172.85 109.456 171.762 109.328 170.802 109.072C170.162 109.296 169.602 109.616 169.122 110.032C168.642 110.416 168.402 110.928 168.402 111.568C168.402 112.24 168.706 112.72 169.314 113.008C169.922 113.296 170.786 113.44 171.906 113.44H178.05C181.122 113.44 183.346 114.064 184.722 115.312C186.098 116.528 186.786 118.208 186.786 120.352ZM181.89 120.928C181.89 120.064 181.554 119.376 180.882 118.864C180.242 118.352 179.058 118.096 177.33 118.096H168.882C167.73 118.768 167.154 119.728 167.154 120.976C167.154 122 167.554 122.816 168.354 123.424C169.186 124.064 170.578 124.384 172.53 124.384H175.794C179.858 124.384 181.89 123.232 181.89 120.928ZM174.066 105.664C175.602 105.664 176.786 105.328 177.618 104.656C178.482 103.952 178.914 102.88 178.914 101.44V100.48C178.914 99.04 178.482 97.984 177.618 97.312C176.786 96.608 175.602 96.256 174.066 96.256C172.53 96.256 171.33 96.608 170.466 97.312C169.634 97.984 169.218 99.04 169.218 100.48V101.44C169.218 102.88 169.634 103.952 170.466 104.656C171.33 105.328 172.53 105.664 174.066 105.664ZM199.71 118.576C197.918 118.576 196.318 118.272 194.91 117.664C193.502 117.056 192.302 116.192 191.31 115.072C190.318 113.92 189.55 112.544 189.006 110.944C188.494 109.312 188.238 107.504 188.238 105.52C188.238 103.536 188.494 101.744 189.006 100.144C189.55 98.512 190.318 97.136 191.31 96.016C192.302 94.864 193.502 93.984 194.91 93.376C196.318 92.768 197.918 92.464 199.71 92.464C201.534 92.464 203.134 92.784 204.51 93.424C205.918 94.064 207.086 94.96 208.014 96.112C208.942 97.232 209.63 98.544 210.078 100.048C210.558 101.552 210.798 103.168 210.798 104.896V106.864H193.662V107.68C193.662 109.6 194.222 111.184 195.342 112.432C196.494 113.648 198.126 114.256 200.238 114.256C201.774 114.256 203.07 113.92 204.126 113.248C205.182 112.576 206.078 111.664 206.814 110.512L209.886 113.536C208.958 115.072 207.614 116.304 205.854 117.232C204.094 118.128 202.046 118.576 199.71 118.576ZM199.71 96.544C198.814 96.544 197.982 96.704 197.214 97.024C196.478 97.344 195.838 97.792 195.294 98.368C194.782 98.944 194.382 99.632 194.094 100.432C193.806 101.232 193.662 102.112 193.662 103.072V103.408H205.278V102.928C205.278 101.008 204.782 99.472 203.79 98.32C202.798 97.136 201.438 96.544 199.71 96.544ZM226.254 103.072C226.254 100.736 226.462 98.496 226.878 96.352C227.326 94.208 227.934 92.208 228.702 90.352C229.47 88.496 230.366 86.816 231.39 85.312C232.446 83.808 233.582 82.544 234.798 81.52H239.742C238.43 82.736 237.246 84.096 236.19 85.6C235.134 87.104 234.238 88.704 233.502 90.4C232.766 92.096 232.19 93.856 231.774 95.68C231.39 97.504 231.198 99.328 231.198 101.152V104.992C231.198 106.816 231.39 108.64 231.774 110.464C232.19 112.288 232.766 114.048 233.502 115.744C234.238 117.44 235.134 119.04 236.19 120.544C237.246 122.08 238.43 123.44 239.742 124.624H234.798C233.582 123.6 232.446 122.336 231.39 120.832C230.366 119.328 229.47 117.648 228.702 115.792C227.934 113.936 227.326 111.936 226.878 109.792C226.462 107.648 226.254 105.408 226.254 103.072ZM257.739 113.872H257.547C257.323 114.48 257.019 115.072 256.635 115.648C256.283 116.224 255.819 116.736 255.243 117.184C254.699 117.6 254.027 117.936 253.227 118.192C252.459 118.448 251.563 118.576 250.539 118.576C247.947 118.576 245.931 117.744 244.491 116.08C243.083 114.416 242.379 112.032 242.379 108.928V93.04H247.611V108.256C247.611 112.128 249.211 114.064 252.411 114.064C253.083 114.064 253.739 113.984 254.379 113.824C255.019 113.632 255.579 113.36 256.059 113.008C256.571 112.656 256.971 112.208 257.259 111.664C257.579 111.12 257.739 110.48 257.739 109.744V93.04H262.971V118H257.739V113.872ZM269.983 93.04H275.215V97.168H275.455C275.999 95.664 276.879 94.512 278.095 93.712C279.343 92.88 280.799 92.464 282.463 92.464C285.631 92.464 288.079 93.616 289.807 95.92C291.535 98.192 292.399 101.392 292.399 105.52C292.399 109.648 291.535 112.864 289.807 115.168C288.079 117.44 285.631 118.576 282.463 118.576C280.799 118.576 279.343 118.16 278.095 117.328C276.879 116.496 275.999 115.344 275.455 113.872H275.215V127.6H269.983V93.04ZM280.879 114.064C282.703 114.064 284.159 113.488 285.247 112.336C286.335 111.152 286.879 109.6 286.879 107.68V103.36C286.879 101.44 286.335 99.904 285.247 98.752C284.159 97.568 282.703 96.976 280.879 96.976C279.279 96.976 277.935 97.376 276.847 98.176C275.759 98.944 275.215 99.968 275.215 101.248V109.792C275.215 111.072 275.759 112.112 276.847 112.912C277.935 113.68 279.279 114.064 280.879 114.064ZM305.829 118.576C303.461 118.576 301.477 118.16 299.877 117.328C298.277 116.496 296.885 115.344 295.701 113.872L299.061 110.8C299.989 111.92 301.013 112.8 302.133 113.44C303.285 114.048 304.613 114.352 306.117 114.352C307.653 114.352 308.789 114.064 309.525 113.488C310.293 112.88 310.677 112.048 310.677 110.992C310.677 110.192 310.405 109.52 309.861 108.976C309.349 108.4 308.437 108.032 307.125 107.872L304.821 107.584C302.261 107.264 300.245 106.528 298.773 105.376C297.333 104.192 296.613 102.448 296.613 100.144C296.613 98.928 296.837 97.856 297.285 96.928C297.733 95.968 298.357 95.168 299.157 94.528C299.989 93.856 300.965 93.344 302.085 92.992C303.237 92.64 304.501 92.464 305.877 92.464C308.117 92.464 309.941 92.816 311.349 93.52C312.789 94.224 314.069 95.2 315.189 96.448L311.973 99.52C311.333 98.752 310.485 98.096 309.429 97.552C308.405 96.976 307.221 96.688 305.877 96.688C304.437 96.688 303.365 96.976 302.661 97.552C301.989 98.128 301.653 98.88 301.653 99.808C301.653 100.768 301.957 101.488 302.565 101.968C303.173 102.448 304.149 102.8 305.493 103.024L307.797 103.312C310.549 103.728 312.549 104.544 313.797 105.76C315.077 106.944 315.717 108.544 315.717 110.56C315.717 111.776 315.477 112.88 314.997 113.872C314.549 114.832 313.893 115.664 313.029 116.368C312.165 117.072 311.125 117.616 309.909 118C308.693 118.384 307.333 118.576 305.829 118.576ZM327.732 118C325.908 118 324.532 117.536 323.604 116.608C322.676 115.648 322.212 114.304 322.212 112.576V97.312H318.324V93.04H320.436C321.3 93.04 321.892 92.848 322.212 92.464C322.564 92.08 322.74 91.456 322.74 90.592V86.224H327.444V93.04H332.676V97.312H327.444V113.728H332.292V118H327.732ZM337.871 118V93.04H343.103V97.84H343.343C343.695 96.56 344.431 95.44 345.551 94.48C346.671 93.52 348.223 93.04 350.207 93.04H351.599V98.08H349.535C347.455 98.08 345.855 98.416 344.735 99.088C343.647 99.76 343.103 100.752 343.103 102.064V118H337.871ZM365.324 118.576C363.532 118.576 361.932 118.272 360.524 117.664C359.116 117.056 357.916 116.192 356.924 115.072C355.932 113.92 355.164 112.544 354.62 110.944C354.108 109.312 353.852 107.504 353.852 105.52C353.852 103.536 354.108 101.744 354.62 100.144C355.164 98.512 355.932 97.136 356.924 96.016C357.916 94.864 359.116 93.984 360.524 93.376C361.932 92.768 363.532 92.464 365.324 92.464C367.148 92.464 368.748 92.784 370.124 93.424C371.532 94.064 372.7 94.96 373.628 96.112C374.556 97.232 375.244 98.544 375.692 100.048C376.172 101.552 376.412 103.168 376.412 104.896V106.864H359.276V107.68C359.276 109.6 359.836 111.184 360.956 112.432C362.108 113.648 363.74 114.256 365.852 114.256C367.388 114.256 368.684 113.92 369.74 113.248C370.796 112.576 371.692 111.664 372.428 110.512L375.5 113.536C374.572 115.072 373.228 116.304 371.468 117.232C369.708 118.128 367.66 118.576 365.324 118.576ZM365.324 96.544C364.428 96.544 363.596 96.704 362.828 97.024C362.092 97.344 361.452 97.792 360.908 98.368C360.396 98.944 359.996 99.632 359.708 100.432C359.42 101.232 359.276 102.112 359.276 103.072V103.408H370.892V102.928C370.892 101.008 370.396 99.472 369.404 98.32C368.412 97.136 367.052 96.544 365.324 96.544ZM400.011 118C398.635 118 397.579 117.616 396.843 116.848C396.107 116.048 395.659 115.04 395.499 113.824H395.259C394.779 115.392 393.899 116.576 392.619 117.376C391.339 118.176 389.787 118.576 387.963 118.576C385.371 118.576 383.371 117.904 381.963 116.56C380.587 115.216 379.899 113.408 379.899 111.136C379.899 108.64 380.795 106.768 382.587 105.52C384.411 104.272 387.067 103.648 390.555 103.648H395.067V101.536C395.067 100 394.651 98.816 393.819 97.984C392.987 97.152 391.691 96.736 389.931 96.736C388.459 96.736 387.259 97.056 386.331 97.696C385.403 98.336 384.619 99.152 383.979 100.144L380.859 97.312C381.691 95.904 382.859 94.752 384.363 93.856C385.867 92.928 387.835 92.464 390.267 92.464C393.499 92.464 395.979 93.216 397.707 94.72C399.435 96.224 400.299 98.384 400.299 101.2V113.728H402.939V118H400.011ZM389.451 114.592C391.083 114.592 392.427 114.24 393.483 113.536C394.539 112.8 395.067 111.824 395.067 110.608V107.008H390.651C387.035 107.008 385.227 108.128 385.227 110.368V111.232C385.227 112.352 385.595 113.2 386.331 113.776C387.099 114.32 388.139 114.592 389.451 114.592ZM407.587 118V93.04H412.819V97.168H413.059C413.315 96.528 413.619 95.92 413.971 95.344C414.355 94.768 414.803 94.272 415.315 93.856C415.859 93.408 416.483 93.072 417.187 92.848C417.923 92.592 418.771 92.464 419.731 92.464C421.427 92.464 422.931 92.88 424.243 93.712C425.555 94.544 426.515 95.824 427.123 97.552H427.267C427.715 96.144 428.579 94.944 429.859 93.952C431.139 92.96 432.787 92.464 434.803 92.464C437.299 92.464 439.235 93.312 440.611 95.008C441.987 96.672 442.675 99.056 442.675 102.16V118H437.443V102.784C437.443 100.864 437.075 99.424 436.339 98.464C435.603 97.472 434.435 96.976 432.835 96.976C432.163 96.976 431.523 97.072 430.915 97.264C430.307 97.424 429.763 97.68 429.283 98.032C428.835 98.384 428.467 98.832 428.179 99.376C427.891 99.92 427.747 100.544 427.747 101.248V118H422.515V102.784C422.515 98.912 420.995 96.976 417.955 96.976C417.315 96.976 416.675 97.072 416.035 97.264C415.427 97.424 414.883 97.68 414.403 98.032C413.923 98.384 413.539 98.832 413.251 99.376C412.963 99.92 412.819 100.544 412.819 101.248V118H407.587ZM458.795 103.072C458.795 105.408 458.571 107.648 458.123 109.792C457.707 111.936 457.115 113.936 456.347 115.792C455.579 117.648 454.667 119.328 453.611 120.832C452.587 122.336 451.467 123.6 450.251 124.624H445.307C446.619 123.44 447.803 122.08 448.859 120.544C449.915 119.04 450.811 117.44 451.547 115.744C452.283 114.048 452.843 112.288 453.227 110.464C453.643 108.64 453.851 106.816 453.851 104.992V101.152C453.851 99.328 453.643 97.504 453.227 95.68C452.843 93.856 452.283 92.096 451.547 90.4C450.811 88.704 449.915 87.104 448.859 85.6C447.803 84.096 446.619 82.736 445.307 81.52H450.251C451.467 82.544 452.587 83.808 453.611 85.312C454.667 86.816 455.579 88.496 456.347 90.352C457.115 92.208 457.707 94.208 458.123 96.352C458.571 98.496 458.795 100.736 458.795 103.072Z" fill="#4B90F3"/>
</g>
<defs>
<clipPath id="clip0_25_597">
<rect width="1170" height="863" fill="white"/>
</clipPath>
</defs>
</svg>
