<svg width="1199" height="527" viewBox="0 0 1199 527" fill="none" xmlns="http://www.w3.org/2000/svg">
<path d="M227.416 522L263 486M227 486L262.584 522" stroke="#E95757" stroke-width="12"/>
<path d="M80 358L96.9598 361.517L85.4345 374.446L80 358ZM1039.27 367.291C1038.76 368.125 1038.23 368.956 1037.69 369.785L1035.17 368.151C1035.7 367.339 1036.22 366.525 1036.73 365.709L1039.27 367.291ZM1034.34 374.726C1033.19 376.363 1031.99 377.989 1030.75 379.605L1028.37 377.783C1029.58 376.197 1030.76 374.6 1031.89 372.995L1034.34 374.726ZM1026.97 384.378C1025.73 385.89 1024.45 387.393 1023.14 388.886L1020.88 386.905C1022.17 385.436 1023.43 383.959 1024.65 382.472L1026.97 384.378ZM1019.1 393.336C1017.72 394.809 1016.31 396.273 1014.86 397.727L1012.73 395.612C1014.16 394.179 1015.55 392.737 1016.91 391.286L1019.1 393.336ZM1010.59 401.9C1009.17 403.256 1007.71 404.602 1006.23 405.94L1004.22 403.712C1005.68 402.392 1007.12 401.063 1008.53 399.726L1010.59 401.9ZM1001.7 409.925C1000.16 411.244 998.591 412.555 996.996 413.855L995.1 411.531C996.676 410.245 998.224 408.951 999.745 407.647L1001.7 409.925ZM992.392 417.526C990.837 418.738 989.257 419.942 987.654 421.138L985.861 418.733C987.447 417.55 989.01 416.359 990.548 415.16L992.392 417.526ZM982.772 424.699C981.125 425.875 979.453 427.043 977.759 428.202L976.065 425.726C977.743 424.578 979.398 423.421 981.029 422.257L982.772 424.699ZM972.878 431.476C971.231 432.56 969.563 433.635 967.875 434.703L966.271 432.168C967.944 431.109 969.597 430.043 971.23 428.97L972.878 431.476ZM962.752 437.883C961.024 438.934 959.277 439.978 957.51 441.014L955.993 438.426C957.746 437.399 959.479 436.363 961.192 435.32L962.752 437.883ZM952.394 443.961C950.681 444.929 948.952 445.891 947.205 446.845L945.767 444.212C947.501 443.265 949.217 442.311 950.917 441.349L952.394 443.961ZM941.915 449.684C940.135 450.623 938.338 451.554 936.525 452.478L935.163 449.805C936.964 448.888 938.748 447.963 940.515 447.03L941.915 449.684ZM931.17 455.161C929.411 456.028 927.638 456.887 925.851 457.739L924.559 455.032C926.335 454.185 928.097 453.331 929.844 452.47L931.17 455.161ZM920.445 460.275C918.629 461.114 916.799 461.945 914.955 462.769L913.731 460.03C915.564 459.211 917.383 458.385 919.188 457.552L920.445 460.275ZM909.381 465.22C907.584 465.997 905.774 466.767 903.953 467.531L902.792 464.765C904.604 464.005 906.403 463.239 908.19 462.466L909.381 465.22ZM898.467 469.796C896.627 470.544 894.774 471.285 892.909 472.02L891.81 469.229C893.665 468.498 895.507 467.761 897.338 467.017L898.467 469.796ZM887.28 474.204C885.402 474.921 883.512 475.631 881.611 476.335L880.569 473.521C882.461 472.821 884.341 472.114 886.21 471.401L887.28 474.204ZM876.07 478.355C874.212 479.021 872.344 479.682 870.466 480.336L869.479 477.503C871.349 476.852 873.207 476.195 875.056 475.531L876.07 478.355ZM864.8 482.279C862.902 482.92 860.993 483.554 859.074 484.182L858.141 481.331C860.051 480.706 861.951 480.074 863.841 479.436L864.8 482.279ZM853.32 486.037C851.45 486.63 849.572 487.217 847.684 487.798L846.802 484.93C848.681 484.352 850.551 483.768 852.412 483.177L853.32 486.037ZM841.995 489.522C840.09 490.09 838.176 490.652 836.254 491.208L835.421 488.326C837.335 487.772 839.241 487.213 841.138 486.647L841.995 489.522ZM830.461 492.857C828.522 493.4 826.574 493.937 824.618 494.467L823.833 491.572C825.781 491.044 827.721 490.509 829.652 489.968L830.461 492.857ZM818.91 495.992C817 496.493 815.084 496.989 813.159 497.479L812.42 494.571C814.336 494.084 816.246 493.59 818.147 493.09L818.91 495.992ZM807.365 498.929C805.426 499.407 803.479 499.878 801.526 500.343L800.831 497.425C802.777 496.962 804.716 496.492 806.647 496.016L807.365 498.929ZM795.645 501.721C793.713 502.165 791.774 502.604 789.829 503.037L789.177 500.109C791.115 499.677 793.047 499.24 794.972 498.797L795.645 501.721ZM784.034 504.304C782.096 504.721 780.152 505.131 778.201 505.536L777.592 502.598C779.535 502.195 781.473 501.786 783.404 501.371L784.034 504.304ZM772.331 506.732C770.368 507.124 768.4 507.511 766.425 507.892L765.857 504.946C767.825 504.567 769.787 504.181 771.743 503.79L772.331 506.732ZM760.505 509.012C758.568 509.371 756.625 509.725 754.677 510.073L754.149 507.119C756.091 506.773 758.027 506.42 759.957 506.062L760.505 509.012ZM748.817 511.099C746.858 511.435 744.894 511.765 742.925 512.09L742.438 509.13C744.4 508.806 746.357 508.477 748.309 508.142L748.817 511.099ZM737.003 513.045C735.024 513.358 733.04 513.665 731.051 513.966L730.603 510.999C732.585 510.699 734.563 510.394 736.535 510.082L737.003 513.045ZM725.136 514.84C723.18 515.123 721.22 515.4 719.256 515.671L718.846 512.7C720.804 512.429 722.757 512.153 724.707 511.871L725.136 514.84ZM713.35 516.468C711.377 516.727 709.399 516.981 707.418 517.229L707.045 514.252C709.02 514.005 710.992 513.752 712.958 513.493L713.35 516.468ZM701.461 517.956C699.471 518.192 697.477 518.422 695.479 518.647L695.144 515.666C697.136 515.442 699.123 515.212 701.107 514.977L701.461 517.956ZM689.558 519.294C687.589 519.503 685.617 519.706 683.641 519.903L683.343 516.918C685.313 516.721 687.279 516.519 689.241 516.311L689.558 519.294ZM677.703 520.478C675.72 520.664 673.734 520.844 671.744 521.019L671.483 518.03C673.466 517.856 675.446 517.677 677.423 517.491L677.703 520.478ZM665.766 521.524C663.77 521.687 661.77 521.843 659.768 521.994L659.542 519.003C661.539 518.852 663.532 518.696 665.522 518.534L665.766 521.524ZM653.834 522.423C651.856 522.56 649.875 522.692 647.892 522.817L647.703 519.823C649.68 519.698 651.654 519.567 653.626 519.431L653.834 522.423ZM641.934 523.177C639.945 523.291 637.954 523.399 635.96 523.501L635.806 520.505C637.794 520.403 639.78 520.295 641.762 520.182L641.934 523.177ZM629.97 523.791C627.971 523.882 625.969 523.966 623.965 524.045L623.847 521.048C625.845 520.969 627.841 520.884 629.834 520.794L629.97 523.791ZM618.017 524.262C616.034 524.329 614.049 524.389 612.061 524.444L611.978 521.445C613.96 521.391 615.939 521.33 617.917 521.264L618.017 524.262ZM606.092 524.591C604.101 524.634 602.107 524.672 600.111 524.703L600.064 521.704C602.054 521.672 604.041 521.635 606.027 521.592L606.092 524.591ZM594.119 524.78C592.12 524.8 590.119 524.814 588.116 524.822L588.104 521.822C590.101 521.814 592.096 521.8 594.089 521.781L594.119 524.78ZM582.157 524.828C580.171 524.825 578.184 524.815 576.195 524.8L576.218 521.8C578.201 521.815 580.183 521.825 582.163 521.828L582.157 524.828ZM570.223 524.736C568.231 524.709 566.238 524.675 564.244 524.636L564.303 521.637C566.291 521.676 568.278 521.709 570.264 521.736L570.223 524.736ZM558.257 524.502C556.26 524.451 554.262 524.394 552.263 524.331L552.357 521.333C554.35 521.395 556.342 521.452 558.333 521.503L558.257 524.502ZM546.299 524.127C544.313 524.052 542.326 523.972 540.338 523.886L540.468 520.889C542.449 520.975 544.431 521.055 546.411 521.129L546.299 524.127ZM534.372 523.611C532.382 523.513 530.392 523.409 528.401 523.299L528.567 520.304C530.551 520.413 532.536 520.517 534.519 520.614L534.372 523.611ZM522.427 522.952C520.435 522.83 518.442 522.702 516.449 522.568L516.65 519.575C518.637 519.708 520.624 519.836 522.61 519.957L522.427 522.952ZM510.489 522.15C508.505 522.004 506.521 521.853 504.537 521.696L504.774 518.705C506.752 518.862 508.73 519.013 510.708 519.158L510.489 522.15ZM498.583 521.205C496.598 521.036 494.614 520.86 492.629 520.679L492.902 517.691C494.881 517.872 496.86 518.047 498.838 518.216L498.583 521.205ZM486.674 520.116C484.689 519.922 482.704 519.722 480.719 519.515L481.029 516.532C483.008 516.737 484.987 516.936 486.965 517.13L486.674 520.116ZM474.774 518.879C472.795 518.662 470.817 518.438 468.839 518.207L469.185 515.228C471.157 515.457 473.13 515.68 475.102 515.897L474.774 518.879ZM462.905 517.498C460.928 517.256 458.951 517.007 456.975 516.752L457.358 513.777C459.329 514.031 461.299 514.279 463.271 514.521L462.905 517.498ZM451.047 515.968C449.072 515.701 447.097 515.427 445.123 515.147L445.544 512.177C447.512 512.456 449.48 512.729 451.449 512.996L451.047 515.968ZM439.205 514.288C437.234 513.996 435.264 513.697 433.295 513.392L433.754 510.428C435.717 510.732 437.681 511.029 439.645 511.321L439.205 514.288ZM427.391 512.458C425.423 512.141 423.457 511.817 421.492 511.486L421.99 508.528C423.948 508.857 425.908 509.18 427.869 509.497L427.391 512.458ZM415.6 510.476C413.637 510.132 411.676 509.783 409.715 509.427L410.251 506.475C412.205 506.83 414.161 507.178 416.117 507.521L415.6 510.476ZM403.837 508.339C401.878 507.97 399.92 507.594 397.963 507.211L398.538 504.267C400.488 504.648 402.44 505.023 404.393 505.391L403.837 508.339ZM392.097 506.045C390.143 505.649 388.191 505.248 386.241 504.839L386.855 501.903C388.799 502.31 390.745 502.71 392.692 503.104L392.097 506.045ZM380.394 503.594C378.447 503.172 376.502 502.744 374.558 502.309L375.213 499.382C377.15 499.815 379.089 500.242 381.029 500.662L380.394 503.594ZM368.733 500.985C366.789 500.535 364.847 500.08 362.906 499.617L363.602 496.699C365.536 497.16 367.471 497.614 369.409 498.062L368.733 500.985ZM357.091 498.209C355.154 497.733 353.22 497.25 351.288 496.76L352.025 493.852C353.95 494.34 355.877 494.821 357.807 495.296L357.091 498.209ZM345.498 495.271C343.571 494.768 341.645 494.258 339.723 493.741L340.501 490.844C342.417 491.359 344.335 491.867 346.256 492.368L345.498 495.271ZM333.962 492.17C332.038 491.638 330.118 491.099 328.199 490.553L329.02 487.668C330.932 488.212 332.845 488.749 334.762 489.279L333.962 492.17ZM322.447 488.893C320.532 488.333 318.62 487.766 316.711 487.191L317.575 484.318C319.477 484.891 321.382 485.456 323.289 486.014L322.447 488.893ZM310.992 485.448C309.088 484.859 307.188 484.264 305.291 483.662L306.198 480.802C308.088 481.402 309.982 481.995 311.878 482.581L310.992 485.448ZM299.608 481.833C297.711 481.215 295.817 480.59 293.926 479.957L294.878 477.112C296.762 477.742 298.648 478.365 300.538 478.981L299.608 481.833ZM288.253 478.034C286.365 477.386 284.481 476.73 282.6 476.067L283.597 473.238C285.47 473.898 287.347 474.551 289.228 475.196L288.253 478.034ZM276.968 474.057C275.094 473.38 273.224 472.696 271.357 472.004L272.4 469.191C274.259 469.88 276.121 470.562 277.988 471.236L276.968 474.057ZM265.768 469.907C263.904 469.198 262.043 468.483 260.187 467.76L261.275 464.964C263.124 465.684 264.977 466.397 266.834 467.102L265.768 469.907ZM254.611 465.561C252.757 464.821 250.906 464.073 249.06 463.318L250.196 460.541C252.034 461.293 253.877 462.038 255.723 462.775L254.611 465.561ZM243.534 461.03C241.696 460.26 239.862 459.482 238.032 458.697L239.216 455.94C241.037 456.722 242.863 457.496 244.693 458.263L243.534 461.03ZM232.557 456.318C230.732 455.516 228.911 454.706 227.095 453.888L228.327 451.152C230.135 451.966 231.948 452.773 233.765 453.572L232.557 456.318ZM221.64 451.402C219.826 450.566 218.017 449.722 216.213 448.87L217.493 446.158C219.289 447.005 221.09 447.846 222.896 448.678L221.64 451.402ZM210.814 446.292C209.02 445.425 207.23 444.549 205.445 443.667L206.775 440.978C208.552 441.856 210.333 442.727 212.12 443.591L210.814 446.292ZM200.106 440.994C198.327 440.094 196.554 439.185 194.786 438.269L196.166 435.605C197.926 436.517 199.691 437.421 201.461 438.318L200.106 440.994ZM189.476 435.485C187.711 434.548 185.952 433.604 184.199 432.652L185.63 430.016C187.375 430.963 189.126 431.903 190.882 432.834L189.476 435.485ZM178.954 429.772C177.211 428.803 175.474 427.827 173.743 426.843L175.226 424.235C176.948 425.214 178.677 426.186 180.411 427.149L178.954 429.772ZM168.566 423.865C166.843 422.862 165.125 421.851 163.414 420.832L164.948 418.255C166.651 419.268 168.36 420.274 170.075 421.272L168.566 423.865ZM158.278 417.739C156.573 416.7 154.873 415.652 153.18 414.596L154.767 412.051C156.452 413.101 158.142 414.143 159.839 415.177L158.278 417.739ZM148.118 411.404C146.437 410.331 144.762 409.25 143.094 408.161L144.734 405.649C146.394 406.732 148.06 407.808 149.732 408.875L148.118 411.404ZM138.109 404.868C136.451 403.76 134.799 402.643 133.154 401.518L134.848 399.042C136.484 400.161 138.126 401.271 139.776 402.373L138.109 404.868ZM128.226 398.109C126.59 396.964 124.961 395.81 123.339 394.648L125.086 392.209C126.699 393.365 128.319 394.512 129.946 395.651L128.226 398.109ZM118.493 391.136C116.884 389.956 115.283 388.769 113.689 387.572L115.49 385.173C117.075 386.362 118.667 387.544 120.267 388.717L118.493 391.136ZM108.927 383.956C107.346 382.741 105.771 381.517 104.204 380.284L106.059 377.926C107.617 379.152 109.183 380.369 110.755 381.577L108.927 383.956ZM99.5184 376.554C97.9639 375.302 96.4169 374.041 94.8775 372.772L96.7863 370.457C98.3167 371.72 99.8547 372.973 101.4 374.218L99.5184 376.554ZM90.2821 368.936C88.758 367.649 87.2415 366.353 85.7329 365.048L87.6956 362.779C89.1952 364.076 90.7027 365.365 92.2178 366.645L90.2821 368.936ZM80 358L113.92 365.033L90.8689 390.892L80 358ZM1040.55 368.083C1040.03 368.925 1039.49 369.765 1038.95 370.602L1033.92 367.334C1034.44 366.531 1034.95 365.725 1035.45 364.917L1040.55 368.083ZM1035.57 375.591C1034.4 377.244 1033.19 378.885 1031.95 380.516L1027.18 376.873C1028.38 375.3 1029.54 373.719 1030.67 372.129L1035.57 375.591ZM1028.13 385.33C1026.87 386.856 1025.59 388.371 1024.26 389.876L1019.76 385.915C1021.04 384.458 1022.28 382.993 1023.49 381.52L1028.13 385.33ZM1020.19 394.361C1018.8 395.846 1017.38 397.32 1015.92 398.785L1011.67 394.554C1013.08 393.132 1014.47 391.7 1015.81 390.26L1020.19 394.361ZM1011.63 402.987C1010.19 404.352 1008.73 405.707 1007.23 407.054L1003.22 402.598C1004.67 401.287 1006.1 399.967 1007.49 398.639L1011.63 402.987ZM1002.67 411.064C1001.12 412.391 999.548 413.709 997.945 415.018L994.152 410.369C995.719 409.09 997.258 407.804 998.768 406.509L1002.67 411.064ZM993.314 418.709C991.75 419.928 990.162 421.139 988.55 422.34L984.964 417.53C986.542 416.353 988.096 415.169 989.626 413.977L993.314 418.709ZM983.644 425.919C981.988 427.102 980.309 428.275 978.606 429.44L975.218 424.488C976.888 423.345 978.535 422.195 980.158 421.036L983.644 425.919ZM973.702 432.729C972.047 433.818 970.372 434.898 968.677 435.971L965.469 430.9C967.135 429.846 968.78 428.785 970.405 427.716L973.702 432.729ZM963.532 439.164C961.797 440.22 960.043 441.268 958.269 442.308L955.234 437.132C956.98 436.109 958.706 435.078 960.412 434.039L963.532 439.164ZM953.132 445.266C951.413 446.239 949.677 447.204 947.924 448.161L945.048 442.895C946.775 441.952 948.485 441.001 950.178 440.044L953.132 445.266ZM942.615 451.011C940.828 451.953 939.025 452.888 937.206 453.815L934.482 448.469C936.276 447.554 938.054 446.633 939.816 445.704L942.615 451.011ZM931.833 456.507C930.068 457.376 928.29 458.238 926.496 459.093L923.914 453.678C925.684 452.833 927.44 451.982 929.181 451.125L931.833 456.507ZM921.074 461.637C919.252 462.478 917.417 463.312 915.567 464.138L913.119 458.66C914.947 457.844 916.76 457.02 918.559 456.19L921.074 461.637ZM909.976 466.596C908.174 467.376 906.36 468.149 904.533 468.915L902.212 463.381C904.019 462.624 905.813 461.86 907.594 461.089L909.976 466.596ZM899.032 471.185C897.187 471.936 895.329 472.679 893.459 473.416L891.26 467.833C893.11 467.104 894.947 466.369 896.773 465.627L899.032 471.185ZM887.815 475.605C885.932 476.324 884.037 477.036 882.131 477.741L880.049 472.114C881.936 471.416 883.811 470.711 885.675 470L887.815 475.605ZM876.576 479.766C874.714 480.435 872.842 481.097 870.959 481.753L868.986 476.086C870.851 475.437 872.705 474.781 874.549 474.119L876.576 479.766ZM865.28 483.7C863.377 484.342 861.464 484.978 859.541 485.608L857.674 479.906C859.58 479.282 861.475 478.652 863.361 478.015L865.28 483.7ZM853.773 487.467C851.9 488.061 850.017 488.649 848.125 489.231L846.361 483.497C848.236 482.92 850.102 482.337 851.959 481.748L853.773 487.467ZM842.424 490.959C840.515 491.529 838.597 492.092 836.671 492.649L835.004 486.885C836.914 486.333 838.816 485.774 840.709 485.209L842.424 490.959ZM830.866 494.301C828.923 494.845 826.971 495.383 825.011 495.915L823.44 490.124C825.384 489.597 827.32 489.063 829.248 488.523L830.866 494.301ZM819.291 497.442C817.378 497.945 815.457 498.442 813.529 498.932L812.05 493.118C813.963 492.631 815.868 492.138 817.766 491.639L819.291 497.442ZM807.723 500.386C805.781 500.864 803.831 501.336 801.874 501.803L800.483 495.966C802.426 495.503 804.361 495.035 806.289 494.56L807.723 500.386ZM795.981 503.182C794.046 503.628 792.103 504.068 790.155 504.501L788.852 498.644C790.786 498.214 792.714 497.778 794.635 497.335L795.981 503.182ZM784.349 505.771C782.408 506.188 780.46 506.599 778.506 507.005L777.287 501.13C779.227 500.727 781.161 500.319 783.088 499.905L784.349 505.771ZM772.625 508.203C770.659 508.596 768.687 508.983 766.709 509.365L765.573 503.473C767.538 503.094 769.496 502.71 771.448 502.319L772.625 508.203ZM760.778 510.486C758.838 510.846 756.892 511.201 754.941 511.549L753.886 505.643C755.824 505.297 757.757 504.945 759.684 504.587L760.778 510.486ZM749.071 512.577C747.109 512.914 745.141 513.245 743.169 513.57L742.194 507.65C744.153 507.327 746.107 506.998 748.055 506.664L749.071 512.577ZM737.237 514.527C735.255 514.84 733.268 515.147 731.275 515.449L730.378 509.516C732.357 509.217 734.332 508.912 736.301 508.6L737.237 514.527ZM725.351 516.325C723.392 516.608 721.429 516.886 719.461 517.157L718.641 511.214C720.595 510.944 722.546 510.668 724.492 510.387L725.351 516.325ZM713.545 517.955C711.569 518.215 709.589 518.469 707.604 518.718L706.859 512.764C708.831 512.517 710.799 512.265 712.763 512.006L713.545 517.955ZM701.638 519.445C699.645 519.682 697.648 519.913 695.647 520.138L694.977 514.175C696.965 513.952 698.95 513.722 700.93 513.487L701.638 519.445ZM689.716 520.786C687.744 520.995 685.769 521.198 683.79 521.396L683.194 515.426C685.16 515.229 687.123 515.027 689.083 514.819L689.716 520.786ZM677.843 521.972C675.857 522.158 673.868 522.338 671.875 522.513L671.352 516.536C673.332 516.362 675.309 516.183 677.283 515.998L677.843 521.972ZM665.887 523.019C663.888 523.182 661.886 523.339 659.88 523.49L659.43 517.507C661.423 517.357 663.413 517.201 665.4 517.039L665.887 523.019ZM653.937 523.92C651.957 524.057 649.973 524.189 647.987 524.314L647.608 518.326C649.582 518.201 651.554 518.071 653.522 517.934L653.937 523.92ZM642.02 524.674C640.028 524.788 638.034 524.897 636.037 524.999L635.729 519.007C637.714 518.905 639.697 518.798 641.676 518.684L642.02 524.674ZM630.038 525.289C628.036 525.38 626.031 525.465 624.024 525.544L623.788 519.549C625.783 519.47 627.776 519.386 629.766 519.296L630.038 525.289ZM618.067 525.761C616.081 525.828 614.093 525.889 612.102 525.944L611.937 519.946C613.916 519.891 615.892 519.831 617.867 519.765L618.067 525.761ZM606.125 526.091C604.13 526.134 602.134 526.172 600.135 526.203L600.04 520.204C602.027 520.173 604.012 520.135 605.995 520.092L606.125 526.091ZM594.134 526.28C592.132 526.3 590.128 526.314 588.122 526.322L588.098 520.322C590.092 520.314 592.084 520.3 594.075 520.281L594.134 526.28ZM582.154 526.328C580.165 526.325 578.175 526.315 576.183 526.3L576.229 520.3C578.21 520.315 580.188 520.325 582.165 520.328L582.154 526.328ZM570.203 526.236C568.208 526.208 566.212 526.175 564.215 526.136L564.332 520.137C566.317 520.176 568.302 520.209 570.285 520.236L570.203 526.236ZM558.219 526.001C556.219 525.95 554.218 525.893 552.216 525.831L552.404 519.834C554.394 519.896 556.384 519.953 558.371 520.003L558.219 526.001ZM546.243 525.625C544.254 525.551 542.264 525.471 540.273 525.385L540.532 519.391C542.511 519.476 544.49 519.556 546.467 519.63L546.243 525.625ZM534.298 525.109C532.306 525.011 530.312 524.907 528.319 524.797L528.649 518.806C530.631 518.915 532.612 519.019 534.593 519.116L534.298 525.109ZM522.335 524.449C520.34 524.327 518.344 524.199 516.348 524.065L516.751 518.078C518.735 518.211 520.718 518.339 522.701 518.46L522.335 524.449ZM510.379 523.646C508.393 523.5 506.405 523.348 504.418 523.191L504.892 517.21C506.868 517.366 508.843 517.517 510.817 517.662L510.379 523.646ZM498.456 522.7C496.468 522.53 494.48 522.354 492.492 522.173L493.039 516.198C495.015 516.378 496.99 516.553 498.966 516.722L498.456 522.7ZM486.528 521.608C484.54 521.414 482.552 521.214 480.564 521.007L481.184 515.04C483.16 515.245 485.135 515.444 487.111 515.637L486.528 521.608ZM474.61 520.37C472.628 520.152 470.646 519.928 468.665 519.697L469.359 513.738C471.328 513.967 473.297 514.19 475.266 514.406L474.61 520.37ZM462.723 518.987C460.742 518.744 458.762 518.495 456.783 518.24L457.55 512.289C459.518 512.543 461.485 512.79 463.453 513.032L462.723 518.987ZM450.846 517.455C448.867 517.187 446.889 516.913 444.912 516.632L445.755 510.692C447.72 510.97 449.685 511.243 451.651 511.509L450.846 517.455ZM438.985 515.772C437.011 515.479 435.038 515.18 433.065 514.875L433.984 508.945C435.943 509.249 437.904 509.546 439.865 509.837L438.985 515.772ZM427.151 513.939C425.181 513.621 423.212 513.296 421.243 512.965L422.238 507.048C424.194 507.377 426.15 507.7 428.108 508.016L427.151 513.939ZM415.342 511.953C413.376 511.609 411.411 511.259 409.447 510.903L410.52 504.999C412.47 505.353 414.422 505.701 416.375 506.043L415.342 511.953ZM403.56 509.813C401.597 509.443 399.635 509.067 397.675 508.684L398.826 502.795C400.773 503.175 402.721 503.549 404.671 503.917L403.56 509.813ZM391.799 507.515C389.842 507.119 387.887 506.716 385.933 506.307L387.163 500.435C389.103 500.841 391.046 501.241 392.99 501.634L391.799 507.515ZM380.077 505.06C378.126 504.638 376.177 504.209 374.231 503.773L375.541 497.918C377.474 498.35 379.409 498.776 381.347 499.196L380.077 505.06ZM368.396 502.446C366.448 501.996 364.502 501.54 362.559 501.076L363.95 495.24C365.88 495.7 367.812 496.153 369.746 496.6L368.396 502.446ZM356.732 499.665C354.792 499.188 352.855 498.705 350.919 498.214L352.393 492.398C354.315 492.885 356.239 493.365 358.165 493.839L356.732 499.665ZM345.119 496.722C343.188 496.218 341.26 495.707 339.333 495.19L340.891 489.395C342.803 489.909 344.718 490.416 346.635 490.917L345.119 496.722ZM333.562 493.616C331.635 493.083 329.711 492.543 327.789 491.996L329.431 486.225C331.339 486.768 333.249 487.304 335.162 487.833L333.562 493.616ZM322.025 490.333C320.107 489.771 318.191 489.203 316.279 488.628L318.007 482.882C319.905 483.453 321.807 484.017 323.711 484.574L322.025 490.333ZM310.549 486.881C308.642 486.291 306.738 485.695 304.837 485.091L306.652 479.373C308.539 479.971 310.428 480.563 312.321 481.148L310.549 486.881ZM299.143 483.26C297.242 482.64 295.345 482.013 293.45 481.38L295.354 475.69C297.234 476.319 299.116 476.94 301.002 477.555L299.143 483.26ZM287.766 479.453C285.874 478.803 283.986 478.146 282.102 477.482L284.095 471.823C285.965 472.482 287.838 473.133 289.715 473.778L287.766 479.453ZM276.458 475.468C274.58 474.79 272.706 474.104 270.836 473.411L272.921 467.784C274.776 468.472 276.635 469.152 278.497 469.825L276.458 475.468ZM265.236 471.309C263.367 470.599 261.503 469.882 259.642 469.157L261.82 463.566C263.665 464.285 265.514 464.996 267.367 465.7L265.236 471.309ZM254.055 466.954C252.197 466.212 250.342 465.463 248.492 464.706L250.764 459.153C252.598 459.903 254.437 460.646 256.28 461.382L254.055 466.954ZM242.954 462.413C241.112 461.641 239.274 460.862 237.441 460.075L239.808 454.562C241.625 455.342 243.447 456.114 245.273 456.88L242.954 462.413ZM231.954 457.691C230.124 456.887 228.3 456.075 226.479 455.256L228.943 449.785C230.747 450.597 232.555 451.402 234.368 452.199L231.954 457.691ZM221.012 452.765C219.194 451.926 217.381 451.081 215.572 450.227L218.134 444.801C219.926 445.647 221.722 446.485 223.524 447.316L221.012 452.765ZM210.161 447.642C208.363 446.773 206.569 445.896 204.78 445.011L207.44 439.633C209.213 440.51 210.99 441.379 212.772 442.24L210.161 447.642ZM199.428 442.332C197.646 441.43 195.868 440.519 194.096 439.6L196.857 434.273C198.612 435.183 200.373 436.085 202.139 436.98L199.428 442.332ZM188.773 436.81C187.004 435.871 185.241 434.925 183.483 433.97L186.346 428.697C188.087 429.643 189.833 430.58 191.585 431.509L188.773 436.81ZM178.225 431.083C176.478 430.112 174.737 429.133 173.001 428.146L175.967 422.931C177.685 423.908 179.41 424.877 181.139 425.838L178.225 431.083ZM167.811 425.161C166.084 424.156 164.362 423.143 162.646 422.121L165.716 416.966C167.414 417.977 169.119 418.98 170.829 419.975L167.811 425.161ZM157.498 419.02C155.788 417.978 154.084 416.928 152.386 415.869L155.561 410.778C157.241 411.826 158.927 412.865 160.62 413.896L157.498 419.02ZM147.311 412.668C145.626 411.593 143.947 410.509 142.274 409.417L145.555 404.393C147.21 405.474 148.871 406.546 150.539 407.61L147.311 412.668ZM137.275 406.115C135.613 405.004 133.957 403.885 132.308 402.757L135.694 397.804C137.326 398.92 138.964 400.027 140.609 401.126L137.275 406.115ZM127.366 399.338C125.726 398.19 124.092 397.033 122.465 395.868L125.959 390.99C127.568 392.143 129.184 393.287 130.807 394.422L127.366 399.338ZM117.606 392.345C115.993 391.163 114.387 389.972 112.788 388.772L116.39 383.973C117.971 385.159 119.559 386.337 121.154 387.507L117.606 392.345ZM108.013 385.145C106.427 383.927 104.848 382.699 103.277 381.463L106.986 376.747C108.54 377.969 110.101 379.183 111.669 380.388L108.013 385.145ZM98.5775 377.722C97.0185 376.467 95.467 375.202 93.9231 373.929L97.7407 369.3C99.2666 370.559 100.8 371.808 102.341 373.05L98.5775 377.722ZM89.3142 370.082C87.7856 368.791 86.2647 367.491 84.7516 366.183L88.6769 361.645C90.1721 362.938 91.675 364.223 93.1857 365.499L89.3142 370.082Z" fill="#E95757"/>
<path d="M1011 360.445L994.171 364.543L1006.13 377.068L1011 360.445ZM294.044 360.156C294.814 360.793 295.589 361.428 296.368 362.059L298.257 359.729C297.486 359.104 296.719 358.476 295.956 357.844L294.044 360.156ZM301.091 365.809C302.682 367.047 304.288 368.271 305.911 369.483L307.706 367.08C306.099 365.88 304.508 364.667 302.933 363.441L301.091 365.809ZM310.825 373.082C312.452 374.25 314.094 375.406 315.751 376.55L317.455 374.081C315.813 372.947 314.186 371.802 312.574 370.645L310.825 373.082ZM320.749 379.933C322.429 381.049 324.124 382.154 325.832 383.246L327.448 380.718C325.754 379.635 324.074 378.541 322.408 377.434L320.749 379.933ZM330.99 386.48C332.691 387.527 334.405 388.563 336.133 389.587L337.663 387.006C335.949 385.99 334.249 384.963 332.562 383.925L330.99 386.48ZM341.353 392.625C343.105 393.627 344.87 394.617 346.648 395.596L348.095 392.968C346.331 391.996 344.58 391.014 342.841 390.02L341.353 392.625ZM351.987 398.483C353.753 399.42 355.529 400.346 357.318 401.262L358.685 398.592C356.91 397.683 355.146 396.763 353.394 395.833L351.987 398.483ZM362.715 403.977C364.526 404.871 366.347 405.755 368.179 406.628L369.47 403.92C367.65 403.053 365.842 402.175 364.044 401.287L362.715 403.977ZM373.666 409.196C375.483 410.031 377.31 410.856 379.147 411.671L380.363 408.929C378.539 408.119 376.724 407.3 374.919 406.47L373.666 409.196ZM384.686 414.085C386.542 414.879 388.408 415.664 390.283 416.438L391.428 413.665C389.565 412.896 387.711 412.116 385.867 411.327L384.686 414.085ZM395.893 418.714C397.751 419.454 399.617 420.185 401.493 420.906L402.569 418.106C400.705 417.389 398.85 416.663 397.003 415.927L395.893 418.714ZM407.144 423.04C409.036 423.742 410.936 424.434 412.844 425.117L413.855 422.292C411.957 421.614 410.068 420.925 408.187 420.228L407.144 423.04ZM418.558 427.124C420.449 427.776 422.347 428.42 424.253 429.053L425.2 426.207C423.304 425.576 421.416 424.937 419.536 424.288L418.558 427.124ZM429.992 430.928C431.912 431.543 433.839 432.15 435.773 432.747L436.659 429.881C434.735 429.287 432.818 428.683 430.908 428.071L429.992 430.928ZM441.575 434.506C443.492 435.076 445.416 435.638 447.346 436.191L448.172 433.307C446.252 432.757 444.338 432.198 442.43 431.63L441.575 434.506ZM453.154 437.823C455.096 438.358 457.045 438.885 458.999 439.403L459.767 436.503C457.823 435.987 455.884 435.463 453.951 434.931L453.154 437.823ZM464.874 440.929C466.813 441.423 468.757 441.908 470.706 442.385L471.419 439.471C469.479 438.997 467.544 438.514 465.615 438.022L464.874 440.929ZM476.569 443.791C478.529 444.251 480.494 444.703 482.463 445.147L483.122 442.22C481.162 441.779 479.206 441.329 477.255 440.871L476.569 443.791ZM488.386 446.453C490.346 446.875 492.311 447.29 494.28 447.697L494.887 444.759C492.926 444.354 490.97 443.941 489.018 443.52L488.386 446.453ZM500.187 448.89C502.16 449.28 504.137 449.661 506.119 450.035L506.675 447.087C504.702 446.715 502.733 446.335 500.768 445.947L500.187 448.89ZM512.074 451.132C514.054 451.488 516.037 451.836 518.023 452.176L518.529 449.219C516.551 448.88 514.576 448.534 512.605 448.179L512.074 451.132ZM523.965 453.168C525.949 453.491 527.937 453.806 529.927 454.114L530.385 451.149C528.402 450.842 526.423 450.529 524.447 450.207L523.965 453.168ZM535.908 455.013C537.901 455.304 539.898 455.588 541.898 455.864L542.308 452.893C540.317 452.617 538.328 452.335 536.342 452.044L535.908 455.013ZM547.869 456.665C549.861 456.925 551.857 457.177 553.854 457.421L554.219 454.443C552.229 454.2 550.241 453.949 548.256 453.691L547.869 456.665ZM559.854 458.132C561.856 458.361 563.86 458.583 565.866 458.798L566.185 455.814C564.187 455.601 562.19 455.38 560.195 455.151L559.854 458.132ZM571.867 459.416C573.867 459.615 575.868 459.806 577.872 459.99L578.146 457.002C576.15 456.819 574.156 456.629 572.163 456.431L571.867 459.416ZM583.886 460.519C585.892 460.689 587.9 460.851 589.909 461.005L590.139 458.014C588.137 457.86 586.137 457.699 584.138 457.53L583.886 460.519ZM595.932 461.447C597.938 461.587 599.945 461.719 601.953 461.845L602.14 458.85C600.139 458.725 598.14 458.593 596.141 458.454L595.932 461.447ZM607.979 462.199C609.988 462.31 611.998 462.414 614.009 462.511L614.153 459.514C612.15 459.418 610.147 459.314 608.145 459.204L607.979 462.199ZM620.041 462.779C622.052 462.862 624.064 462.937 626.076 463.005L626.177 460.007C624.173 459.939 622.168 459.864 620.164 459.782L620.041 462.779ZM632.11 463.188C634.122 463.242 636.133 463.289 638.145 463.329L638.204 460.33C636.2 460.29 634.196 460.243 632.191 460.189L632.11 463.188ZM644.177 463.428C646.191 463.454 648.204 463.473 650.217 463.485L650.235 460.485C648.229 460.473 646.223 460.454 644.216 460.428L644.177 463.428ZM656.259 463.5C658.272 463.497 660.284 463.488 662.296 463.472L662.272 460.472C660.267 460.488 658.262 460.497 656.256 460.5L656.259 463.5ZM668.326 463.403C670.338 463.373 672.348 463.336 674.357 463.292L674.292 460.293C672.29 460.337 670.286 460.374 668.281 460.403L668.326 463.403ZM680.404 463.139C682.418 463.081 684.431 463.016 686.441 462.944L686.334 459.946C684.33 460.018 682.325 460.082 680.318 460.14L680.404 463.139ZM692.468 462.707C694.475 462.622 696.48 462.529 698.483 462.429L698.334 459.433C696.338 459.532 694.34 459.625 692.34 459.71L692.468 462.707ZM704.527 462.108C706.541 461.993 708.553 461.872 710.562 461.744L710.371 458.75C708.369 458.878 706.364 458.999 704.357 459.113L704.527 462.108ZM716.583 461.339C718.587 461.197 720.588 461.048 722.586 460.892L722.353 457.901C720.362 458.056 718.368 458.205 716.371 458.346L716.583 461.339ZM728.608 460.401C730.621 460.229 732.632 460.051 734.639 459.865L734.363 456.878C732.363 457.063 730.36 457.241 728.353 457.412L728.608 460.401ZM740.65 459.288C742.65 459.089 744.646 458.882 746.639 458.669L746.32 455.686C744.334 455.899 742.345 456.104 740.352 456.303L740.65 459.288ZM752.627 458.006C754.639 457.776 756.647 457.539 758.65 457.295L758.287 454.317C756.291 454.56 754.291 454.797 752.286 455.026L752.627 458.006ZM764.648 456.541C766.642 456.282 768.633 456.017 770.618 455.745L770.21 452.772C768.232 453.044 766.25 453.308 764.262 453.566L764.648 456.541ZM776.564 454.906C778.573 454.615 780.576 454.316 782.575 454.011L782.121 451.045C780.131 451.35 778.135 451.647 776.134 451.937L776.564 454.906ZM788.553 453.073C790.541 452.753 792.523 452.427 794.499 452.093L793.999 449.134C792.03 449.467 790.056 449.793 788.077 450.111L788.553 453.073ZM800.41 451.069C802.408 450.715 804.401 450.353 806.387 449.985L805.839 447.035C803.861 447.402 801.877 447.763 799.886 448.115L800.41 451.069ZM812.339 448.854C814.317 448.469 816.288 448.078 818.252 447.679L817.655 444.739C815.699 445.136 813.736 445.526 811.767 445.909L812.339 448.854ZM824.122 446.461C826.109 446.04 828.087 445.611 830.059 445.175L829.411 442.246C827.448 442.68 825.478 443.107 823.5 443.526L824.122 446.461ZM835.974 443.839C837.938 443.387 839.894 442.926 841.842 442.459L841.141 439.541C839.202 440.007 837.255 440.465 835.3 440.916L835.974 443.839ZM847.66 441.033C849.633 440.54 851.598 440.039 853.553 439.53L852.798 436.627C850.852 437.133 848.897 437.632 846.933 438.122L847.66 441.033ZM859.417 437.975C861.362 437.448 863.298 436.914 865.224 436.372L864.412 433.484C862.495 434.023 860.569 434.555 858.633 435.079L859.417 437.975ZM870.974 434.724C872.934 434.151 874.883 433.57 876.822 432.981L875.95 430.111C874.022 430.697 872.082 431.274 870.132 431.844L870.974 434.724ZM882.615 431.187C884.534 430.581 886.443 429.967 888.34 429.345L887.406 426.495C885.519 427.113 883.621 427.724 881.712 428.326L882.615 431.187ZM894.031 427.444C895.967 426.784 897.891 426.117 899.801 425.44L898.8 422.612C896.901 423.285 894.989 423.948 893.064 424.604L894.031 427.444ZM905.495 423.386C907.38 422.693 909.252 421.992 911.11 421.282L910.039 418.479C908.193 419.185 906.333 419.882 904.46 420.571L905.495 423.386ZM916.75 419.085C918.648 418.331 920.531 417.569 922.398 416.797L921.253 414.024C919.398 414.79 917.528 415.548 915.643 416.296L916.75 419.085ZM927.955 414.456C929.793 413.666 931.615 412.868 933.421 412.061L932.197 409.322C930.404 410.123 928.595 410.916 926.771 411.7L927.955 414.456ZM939.003 409.515C940.846 408.656 942.671 407.789 944.479 406.911L943.169 404.212C941.376 405.083 939.565 405.943 937.736 406.795L939.003 409.515ZM949.848 404.252C951.667 403.331 953.467 402.401 955.247 401.461L953.846 398.809C952.081 399.74 950.297 400.662 948.494 401.575L949.848 404.252ZM960.609 398.566C962.376 397.591 964.122 396.606 965.847 395.611L964.348 393.012C962.64 393.998 960.91 394.974 959.16 395.94L960.609 398.566ZM971.045 392.541C972.803 391.479 974.538 390.405 976.248 389.321L974.641 386.787C972.95 387.86 971.234 388.922 969.493 389.974L971.045 392.541ZM981.304 386.035C982.987 384.914 984.645 383.782 986.276 382.639L984.555 380.182C982.943 381.311 981.305 382.43 979.641 383.538L981.304 386.035ZM991.254 379.057C992.885 377.851 994.487 376.633 996.06 375.403L994.213 373.04C992.661 374.252 991.08 375.454 989.47 376.644L991.254 379.057ZM1000.76 371.621C1002.35 370.306 1003.91 368.979 1005.43 367.639L1003.44 365.388C1001.95 366.707 1000.41 368.015 998.85 369.31L1000.76 371.621ZM1011 360.445L977.342 368.64L1001.27 393.691L1011 360.445ZM293.088 361.311C293.862 361.952 294.641 362.59 295.424 363.225L299.202 358.563C298.434 357.941 297.671 357.317 296.912 356.689L293.088 361.311ZM300.17 366.993C301.768 368.237 303.383 369.467 305.013 370.685L308.604 365.878C307.005 364.684 305.421 363.477 303.854 362.257L300.17 366.993ZM309.95 374.301C311.585 375.474 313.235 376.635 314.899 377.784L318.307 372.846C316.673 371.718 315.053 370.578 313.449 369.426L309.95 374.301ZM319.919 381.183C321.606 382.304 323.308 383.413 325.024 384.509L328.256 379.454C326.569 378.376 324.896 377.286 323.238 376.185L319.919 381.183ZM330.204 387.758C331.912 388.809 333.633 389.849 335.368 390.877L338.428 385.716C336.721 384.704 335.028 383.682 333.348 382.648L330.204 387.758ZM340.608 393.928C342.368 394.933 344.14 395.927 345.924 396.91L348.819 391.654C347.062 390.686 345.317 389.708 343.585 388.718L340.608 393.928ZM351.284 399.808C353.056 400.748 354.839 401.678 356.634 402.597L359.369 397.257C357.6 396.351 355.843 395.435 354.097 394.508L351.284 399.808ZM362.051 405.322C363.868 406.219 365.696 407.106 367.534 407.982L370.115 402.566C368.302 401.702 366.5 400.827 364.708 399.943L362.051 405.322ZM373.04 410.559C374.863 411.397 376.696 412.225 378.539 413.042L380.972 407.557C379.153 406.751 377.344 405.934 375.546 405.107L373.04 410.559ZM384.096 415.464C385.958 416.261 387.829 417.048 389.71 417.825L392.001 412.279C390.143 411.512 388.295 410.735 386.457 409.948L384.096 415.464ZM395.337 420.107C397.201 420.85 399.073 421.583 400.954 422.306L403.108 416.706C401.249 415.991 399.399 415.267 397.558 414.534L395.337 420.107ZM406.622 424.447C408.519 425.151 410.425 425.845 412.339 426.529L414.36 420.88C412.468 420.203 410.584 419.517 408.709 418.821L406.622 424.447ZM418.068 428.542C419.965 429.196 421.868 429.841 423.779 430.477L425.673 424.784C423.783 424.155 421.9 423.517 420.025 422.87L418.068 428.542ZM429.534 432.356C431.459 432.973 433.392 433.582 435.331 434.181L437.101 428.448C435.182 427.855 433.27 427.253 431.366 426.643L429.534 432.356ZM441.147 435.944C443.069 436.515 444.998 437.078 446.933 437.633L448.585 431.865C446.669 431.316 444.76 430.759 442.858 430.193L441.147 435.944ZM452.756 439.269C454.703 439.805 456.656 440.333 458.615 440.853L460.152 435.053C458.212 434.539 456.278 434.016 454.35 433.484L452.756 439.269ZM464.504 442.383C466.447 442.878 468.396 443.364 470.35 443.842L471.776 438.014C469.84 437.541 467.91 437.059 465.985 436.569L464.504 442.383ZM476.226 445.251C478.19 445.713 480.16 446.166 482.133 446.61L483.452 440.757C481.496 440.316 479.544 439.867 477.598 439.41L476.226 445.251ZM488.069 447.919C490.034 448.343 492.003 448.758 493.977 449.166L495.19 443.29C493.234 442.886 491.282 442.474 489.335 442.054L488.069 447.919ZM499.896 450.362C501.874 450.752 503.855 451.135 505.841 451.509L506.953 445.613C504.984 445.242 503.019 444.863 501.059 444.475L499.896 450.362ZM511.809 452.608C513.792 452.965 515.779 453.313 517.77 453.654L518.782 447.74C516.808 447.402 514.837 447.056 512.871 446.703L511.809 452.608ZM523.724 454.648C525.712 454.972 527.704 455.288 529.698 455.596L530.614 449.666C528.635 449.361 526.66 449.047 524.688 448.726L523.724 454.648ZM535.69 456.497C537.688 456.789 539.689 457.073 541.692 457.35L542.514 451.407C540.526 451.132 538.541 450.85 536.559 450.56L535.69 456.497ZM547.675 458.153C549.672 458.413 551.671 458.665 553.672 458.91L554.401 452.954C552.415 452.711 550.431 452.461 548.45 452.203L547.675 458.153ZM559.683 459.622C561.689 459.852 563.697 460.074 565.707 460.289L566.345 454.323C564.35 454.11 562.357 453.889 560.366 453.661L559.683 459.622ZM571.718 460.909C573.722 461.108 575.728 461.299 577.735 461.483L578.283 455.509C576.291 455.326 574.3 455.136 572.311 454.938L571.718 460.909ZM583.76 462.014C585.77 462.184 587.781 462.346 589.794 462.501L590.254 456.519C588.256 456.365 586.26 456.204 584.264 456.035L583.76 462.014ZM595.828 462.943C597.838 463.083 599.848 463.216 601.86 463.342L602.234 457.353C600.236 457.229 598.24 457.097 596.245 456.958L595.828 462.943ZM607.896 463.697C609.909 463.808 611.923 463.912 613.937 464.009L614.225 458.016C612.225 457.92 610.226 457.816 608.227 457.706L607.896 463.697ZM619.98 464.278C621.995 464.36 624.01 464.436 626.025 464.504L626.228 458.508C624.227 458.44 622.226 458.365 620.225 458.283L619.98 464.278ZM632.07 464.688C634.085 464.742 636.1 464.789 638.115 464.829L638.234 458.83C636.233 458.791 634.232 458.744 632.231 458.69L632.07 464.688ZM644.158 464.928C646.175 464.954 648.192 464.973 650.208 464.985L650.244 458.985C648.241 458.973 646.238 458.954 644.235 458.928L644.158 464.928ZM656.26 465C658.277 464.997 660.293 464.988 662.307 464.972L662.26 458.972C660.259 458.988 658.257 458.997 656.254 459L656.26 465ZM668.349 464.903C670.364 464.873 672.377 464.836 674.39 464.792L674.259 458.793C672.26 458.837 670.26 458.874 668.259 458.904L668.349 464.903ZM680.447 464.638C682.465 464.58 684.481 464.515 686.495 464.443L686.28 458.447C684.28 458.518 682.278 458.583 680.274 458.641L680.447 464.638ZM692.532 464.206C694.542 464.12 696.551 464.027 698.557 463.928L698.259 457.935C696.267 458.034 694.272 458.126 692.276 458.212L692.532 464.206ZM704.612 463.605C706.63 463.491 708.645 463.369 710.658 463.241L710.276 457.253C708.277 457.381 706.276 457.501 704.272 457.615L704.612 463.605ZM716.689 462.835C718.696 462.693 720.701 462.543 722.703 462.387L722.236 456.405C720.249 456.56 718.258 456.709 716.264 456.85L716.689 462.835ZM728.735 461.895C730.752 461.724 732.766 461.545 734.777 461.359L734.225 455.384C732.229 455.569 730.229 455.746 728.226 455.917L728.735 461.895ZM740.799 460.781C742.802 460.581 744.802 460.374 746.798 460.161L746.16 454.195C744.178 454.407 742.193 454.612 740.203 454.81L740.799 460.781ZM752.797 459.497C754.813 459.266 756.825 459.028 758.832 458.784L758.106 452.828C756.113 453.071 754.116 453.307 752.115 453.536L752.797 459.497ZM764.84 458.028C766.839 457.769 768.833 457.503 770.822 457.231L770.006 451.286C768.032 451.557 766.053 451.821 764.07 452.078L764.84 458.028ZM776.779 456.39C778.792 456.099 780.799 455.8 782.801 455.494L781.895 449.563C779.908 449.866 777.916 450.163 775.919 450.452L776.779 456.39ZM788.792 454.554C790.783 454.234 792.769 453.906 794.749 453.572L793.749 447.655C791.784 447.987 789.814 448.312 787.838 448.63L788.792 454.554ZM800.671 452.546C802.674 452.191 804.671 451.829 806.661 451.459L805.565 445.56C803.591 445.927 801.611 446.286 799.624 446.638L800.671 452.546ZM812.626 450.326C814.607 449.941 816.582 449.549 818.55 449.149L817.356 443.269C815.405 443.665 813.446 444.054 811.481 444.436L812.626 450.326ZM824.433 447.928C826.424 447.506 828.407 447.077 830.383 446.64L829.087 440.782C827.129 441.215 825.163 441.64 823.189 442.059L824.433 447.928ZM836.311 445.301C838.279 444.847 840.24 444.386 842.192 443.917L840.791 438.083C838.856 438.547 836.914 439.005 834.963 439.454L836.311 445.301ZM848.024 442.488C850.002 441.994 851.971 441.492 853.93 440.982L852.42 435.175C850.479 435.68 848.528 436.178 846.569 436.667L848.024 442.488ZM859.809 439.422C861.759 438.895 863.699 438.359 865.63 437.816L864.006 432.04C862.094 432.578 860.173 433.108 858.241 433.631L859.809 439.422ZM871.394 436.164C873.36 435.589 875.314 435.007 877.258 434.416L875.514 428.676C873.591 429.26 871.656 429.836 869.711 430.405L871.394 436.164ZM883.066 432.618C884.991 432.01 886.905 431.394 888.808 430.771L886.938 425.069C885.057 425.686 883.164 426.295 881.26 426.896L883.066 432.618ZM894.514 428.864C896.456 428.203 898.385 427.533 900.302 426.854L898.3 421.198C896.406 421.868 894.5 422.53 892.58 423.184L894.514 428.864ZM906.013 424.794C907.903 424.099 909.781 423.395 911.645 422.683L909.504 417.078C907.663 417.781 905.809 418.476 903.942 419.163L906.013 424.794ZM917.304 420.479C919.208 419.723 921.097 418.958 922.971 418.183L920.68 412.638C918.832 413.401 916.968 414.156 915.089 414.902L917.304 420.479ZM928.547 415.834C930.391 415.042 932.22 414.241 934.033 413.43L931.585 407.953C929.799 408.751 927.997 409.54 926.179 410.321L928.547 415.834ZM939.636 410.874C941.486 410.013 943.319 409.142 945.134 408.261L942.514 402.863C940.729 403.73 938.925 404.587 937.103 405.435L939.636 410.874ZM950.525 405.59C952.352 404.666 954.159 403.732 955.947 402.788L953.145 397.482C951.389 398.41 949.613 399.328 947.816 400.236L950.525 405.59ZM961.334 399.88C963.109 398.9 964.864 397.91 966.597 396.91L963.598 391.713C961.898 392.694 960.177 393.665 958.435 394.627L961.334 399.88ZM971.821 393.825C973.588 392.757 975.332 391.678 977.051 390.588L973.838 385.521C972.156 386.587 970.449 387.644 968.718 388.69L971.821 393.825ZM982.136 387.284C983.828 386.156 985.496 385.018 987.137 383.868L983.694 378.954C982.092 380.076 980.464 381.188 978.81 382.29L982.136 387.284ZM992.146 380.263C993.787 379.049 995.4 377.823 996.984 376.585L993.289 371.858C991.748 373.062 990.178 374.256 988.578 375.438L992.146 380.263ZM1001.72 372.776C1003.32 371.452 1004.89 370.115 1006.42 368.764L1002.45 364.262C1000.97 365.571 999.446 366.869 997.893 368.155L1001.72 372.776Z" fill="#14BF06"/>
<path d="M514.5 362L522.246 377.492L531.789 363.037L514.5 362ZM521.289 368.099C523.01 369.137 524.761 370.155 526.539 371.154L528.008 368.538C526.256 367.554 524.532 366.552 522.837 365.53L521.289 368.099ZM531.833 374.027C533.621 374.964 535.434 375.883 537.272 376.784L538.592 374.09C536.778 373.201 534.989 372.294 533.226 371.37L531.833 374.027ZM542.69 379.352C544.519 380.191 546.37 381.012 548.243 381.817L549.427 379.06C547.576 378.265 545.747 377.453 543.941 376.625L542.69 379.352ZM553.802 384.128C555.658 384.876 557.535 385.608 559.43 386.323L560.49 383.517C558.614 382.808 556.758 382.085 554.922 381.346L553.802 384.128ZM565.122 388.404C566.999 389.069 568.893 389.718 570.805 390.353L571.75 387.506C569.857 386.877 567.981 386.234 566.123 385.576L565.122 388.404ZM576.588 392.213C578.489 392.805 580.405 393.383 582.336 393.946L583.176 391.066C581.262 390.508 579.363 389.935 577.48 389.349L576.588 392.213ZM588.145 395.588C590.083 396.117 592.034 396.633 593.999 397.136L594.742 394.229C592.793 393.731 590.858 393.219 588.936 392.694L588.145 395.588ZM599.825 398.577C601.78 399.045 603.747 399.499 605.726 399.941L606.379 397.013C604.415 396.574 602.463 396.123 600.523 395.659L599.825 398.577ZM611.609 401.208C613.566 401.615 615.534 402.009 617.512 402.392L618.081 399.446C616.117 399.066 614.162 398.675 612.219 398.271L611.609 401.208ZM623.477 403.502C625.436 403.853 627.404 404.192 629.381 404.52L629.872 401.56C627.907 401.235 625.952 400.898 624.006 400.549L623.477 403.502ZM635.339 405.467C637.324 405.77 639.318 406.062 641.319 406.342L641.735 403.371C639.745 403.092 637.764 402.803 635.791 402.502L635.339 405.467ZM647.27 407.138C649.261 407.392 651.259 407.636 653.264 407.868L653.609 404.888C651.616 404.657 649.629 404.415 647.65 404.162L647.27 407.138ZM659.255 408.527C661.244 408.734 663.238 408.931 665.238 409.117L665.516 406.13C663.527 405.945 661.544 405.749 659.566 405.543L659.255 408.527ZM671.256 409.644C673.251 409.807 675.251 409.961 677.256 410.104L677.469 407.111C675.475 406.969 673.486 406.817 671.502 406.654L671.256 409.644ZM683.26 410.5C685.267 410.622 687.277 410.734 689.291 410.836L689.443 407.84C687.439 407.739 685.438 407.627 683.443 407.506L683.26 410.5ZM695.298 411.109C697.3 411.19 699.306 411.261 701.314 411.322L701.406 408.323C699.407 408.263 697.411 408.192 695.419 408.111L695.298 411.109ZM707.35 411.476C709.351 411.518 711.355 411.549 713.361 411.571L713.394 408.571C711.397 408.549 709.403 408.518 707.412 408.477L707.35 411.476ZM719.383 411.609C721.391 411.612 723.402 411.605 725.415 411.589L725.391 408.589C723.388 408.605 721.386 408.612 719.387 408.609L719.383 411.609ZM731.429 411.512C733.435 411.478 735.442 411.433 737.45 411.38L737.37 408.381C735.371 408.434 733.373 408.478 731.377 408.513L731.429 411.512ZM743.473 411.191C745.478 411.119 747.483 411.038 749.488 410.948L749.353 407.951C747.357 408.041 745.361 408.122 743.366 408.193L743.473 411.191ZM755.502 410.649C757.507 410.54 759.511 410.422 761.515 410.295L761.325 407.301C759.331 407.427 757.335 407.545 755.34 407.653L755.502 410.649ZM767.525 409.886C769.527 409.741 771.528 409.587 773.527 409.423L773.283 406.433C771.292 406.596 769.301 406.75 767.307 406.894L767.525 409.886ZM779.526 408.906C781.528 408.724 783.528 408.533 785.526 408.333L785.227 405.348C783.238 405.547 781.247 405.737 779.254 405.918L779.526 408.906ZM791.511 407.706C793.508 407.487 795.502 407.26 797.493 407.023L797.14 404.044C795.158 404.28 793.173 404.506 791.185 404.723L791.511 407.706ZM803.478 406.285C805.469 406.03 807.457 405.766 809.441 405.493L809.032 402.521C807.057 402.792 805.078 403.055 803.096 403.309L803.478 406.285ZM815.404 404.643C817.396 404.35 819.384 404.047 821.366 403.736L820.901 400.772C818.928 401.082 816.949 401.383 814.967 401.675L815.404 404.643ZM827.3 402.775C829.286 402.444 831.267 402.103 833.242 401.753L832.719 398.799C830.754 399.147 828.783 399.486 826.806 399.816L827.3 402.775ZM839.175 400.673C841.147 400.304 843.113 399.926 845.071 399.538L844.49 396.595C842.541 396.981 840.585 397.357 838.623 397.724L839.175 400.673ZM850.99 398.337C852.963 397.926 854.928 397.506 856.885 397.076L856.242 394.146C854.295 394.573 852.34 394.991 850.378 395.4L850.99 398.337ZM862.734 395.761C864.707 395.306 866.671 394.842 868.627 394.368L867.921 391.453C865.976 391.924 864.022 392.385 862.06 392.838L862.734 395.761ZM874.471 392.919C876.418 392.424 878.356 391.921 880.284 391.407L879.512 388.508C877.595 389.019 875.669 389.52 873.733 390.011L874.471 392.919ZM886.126 389.815C888.062 389.275 889.989 388.725 891.904 388.166L891.063 385.286C889.159 385.842 887.245 386.388 885.32 386.925L886.126 389.815ZM897.681 386.439C899.616 385.847 901.539 385.245 903.45 384.634L902.535 381.777C900.637 382.384 898.727 382.982 896.804 383.57L897.681 386.439ZM909.142 382.77C911.069 382.125 912.982 381.47 914.88 380.804L913.888 377.973C912.003 378.634 910.103 379.285 908.19 379.926L909.142 382.77ZM920.551 378.771C922.443 378.077 924.319 377.373 926.179 376.658L925.104 373.857C923.258 374.566 921.395 375.265 919.518 375.954L920.551 378.771ZM931.823 374.439C933.687 373.689 935.535 372.928 937.365 372.157L936.199 369.392C934.385 370.157 932.552 370.912 930.703 371.656L931.823 374.439ZM942.936 369.751C944.786 368.933 946.617 368.103 948.427 367.263L947.164 364.542C945.37 365.374 943.556 366.196 941.723 367.007L942.936 369.751ZM953.866 364.675C955.697 363.781 957.505 362.877 959.291 361.96L957.921 359.291C956.154 360.198 954.363 361.094 952.551 361.978L953.866 364.675ZM964.582 359.172C966.387 358.197 968.166 357.208 969.918 356.208L968.431 353.602C966.699 354.591 964.94 355.568 963.156 356.533L964.582 359.172ZM975.097 353.168C976.848 352.111 978.57 351.04 980.263 349.957L978.645 347.43C976.975 348.499 975.275 349.556 973.546 350.599L975.097 353.168ZM985.296 346.635C986.984 345.487 988.639 344.325 990.26 343.149L988.498 340.721C986.902 341.879 985.272 343.023 983.609 344.155L985.296 346.635ZM995.1 339.517C995.889 338.905 996.669 338.289 997.44 337.669L995.56 335.331C994.803 335.94 994.036 336.545 993.261 337.148L995.1 339.517ZM514.5 362L529.992 392.984L549.079 364.075L514.5 362ZM520.514 369.384C522.249 370.43 524.013 371.456 525.804 372.462L528.742 367.23C527.004 366.254 525.293 365.259 523.612 364.245L520.514 369.384ZM531.136 375.355C532.937 376.299 534.762 377.224 536.612 378.131L539.252 372.742C537.45 371.86 535.673 370.959 533.923 370.041L531.136 375.355ZM542.065 380.715C543.905 381.559 545.767 382.386 547.651 383.195L550.019 377.682C548.179 376.892 546.361 376.085 544.566 375.262L542.065 380.715ZM553.241 385.52C555.108 386.272 556.995 387.007 558.901 387.727L561.02 382.113C559.154 381.409 557.308 380.689 555.483 379.954L553.241 385.52ZM564.622 389.818C566.508 390.486 568.412 391.139 570.332 391.777L572.223 386.083C570.339 385.457 568.473 384.817 566.624 384.162L564.622 389.818ZM576.142 393.645C578.051 394.24 579.976 394.82 581.916 395.386L583.597 389.627C581.691 389.07 579.8 388.5 577.925 387.917L576.142 393.645ZM587.75 397.035C589.695 397.566 591.654 398.085 593.627 398.589L595.114 392.776C593.172 392.28 591.245 391.77 589.332 391.247L587.75 397.035ZM599.476 400.036C601.439 400.505 603.413 400.961 605.4 401.405L606.706 395.549C604.749 395.112 602.804 394.663 600.872 394.201L599.476 400.036ZM611.303 402.676C613.267 403.085 615.242 403.481 617.227 403.864L618.366 397.973C616.408 397.595 614.461 397.205 612.525 396.802L611.303 402.676ZM623.213 404.979C625.178 405.331 627.153 405.671 629.136 405.999L630.117 400.08C628.159 399.756 626.21 399.42 624.27 399.073L623.213 404.979ZM635.112 406.95C637.104 407.254 639.104 407.546 641.111 407.827L641.943 401.885C639.959 401.608 637.984 401.319 636.018 401.019L635.112 406.95ZM647.08 408.626C649.076 408.881 651.081 409.125 653.091 409.358L653.782 403.398C651.794 403.167 649.813 402.926 647.84 402.674L647.08 408.626ZM659.1 410.019C661.094 410.227 663.094 410.424 665.099 410.611L665.655 404.636C663.671 404.452 661.694 404.257 659.722 404.051L659.1 410.019ZM671.134 411.139C673.134 411.303 675.139 411.457 677.149 411.6L677.576 405.615C675.587 405.473 673.603 405.321 671.624 405.159L671.134 411.139ZM683.169 411.998C685.181 412.12 687.196 412.232 689.216 412.334L689.518 406.342C687.519 406.241 685.524 406.13 683.534 406.009L683.169 411.998ZM695.237 412.608C697.244 412.689 699.255 412.76 701.269 412.821L701.451 406.824C699.457 406.763 697.466 406.693 695.479 406.613L695.237 412.608ZM707.319 412.976C709.325 413.017 711.333 413.049 713.344 413.071L713.41 407.072C711.419 407.05 709.429 407.018 707.443 406.977L707.319 412.976ZM719.38 413.109C721.394 413.112 723.41 413.105 725.427 413.089L725.379 407.089C723.38 407.105 721.384 407.112 719.389 407.109L719.38 413.109ZM731.455 413.012C733.466 412.977 735.477 412.933 737.49 412.879L737.33 406.881C735.336 406.935 733.343 406.978 731.351 407.013L731.455 413.012ZM743.527 412.69C745.536 412.618 747.546 412.537 749.556 412.446L749.285 406.452C747.294 406.542 745.303 406.623 743.312 406.694L743.527 412.69ZM755.584 412.147C757.593 412.038 759.602 411.919 761.61 411.792L761.23 405.804C759.24 405.93 757.249 406.047 755.258 406.155L755.584 412.147ZM767.633 411.382C769.64 411.237 771.645 411.082 773.649 410.918L773.161 404.938C771.175 405.101 769.187 405.254 767.199 405.398L767.633 411.382ZM779.661 410.399C781.668 410.217 783.673 410.026 785.675 409.825L785.077 403.855C783.093 404.054 781.107 404.243 779.118 404.424L779.661 410.399ZM791.674 409.197C793.676 408.978 795.675 408.75 797.67 408.513L796.963 402.555C794.986 402.79 793.005 403.015 791.022 403.232L791.674 409.197ZM803.668 407.773C805.664 407.517 807.657 407.252 809.645 406.979L808.827 401.035C806.857 401.306 804.883 401.568 802.906 401.821L803.668 407.773ZM815.622 406.127C817.619 405.833 819.612 405.53 821.599 405.218L820.668 399.29C818.7 399.6 816.726 399.9 814.748 400.191L815.622 406.127ZM827.547 404.255C829.538 403.922 831.524 403.581 833.503 403.23L832.458 397.322C830.497 397.669 828.531 398.007 826.559 398.336L827.547 404.255ZM839.451 402.147C841.428 401.777 843.398 401.398 845.362 401.01L844.199 395.124C842.255 395.508 840.304 395.883 838.347 396.25L839.451 402.147ZM851.296 399.805C853.274 399.393 855.244 398.972 857.206 398.542L855.921 392.681C853.979 393.107 852.029 393.524 850.072 393.931L851.296 399.805ZM863.071 397.223C865.049 396.767 867.019 396.301 868.98 395.826L867.568 389.995C865.629 390.464 863.68 390.925 861.723 391.376L863.071 397.223ZM874.841 394.373C876.793 393.877 878.736 393.372 880.67 392.857L879.126 387.059C877.215 387.568 875.294 388.067 873.364 388.557L874.841 394.373ZM886.529 391.26C888.471 390.718 890.403 390.166 892.324 389.605L890.642 383.846C888.745 384.4 886.836 384.945 884.916 385.481L886.529 391.26ZM898.12 387.873C900.061 387.28 901.99 386.676 903.907 386.063L902.078 380.348C900.186 380.954 898.282 381.549 896.366 382.135L898.12 387.873ZM909.618 384.193C911.552 383.545 913.471 382.888 915.377 382.22L913.392 376.558C911.513 377.216 909.62 377.865 907.713 378.503L909.618 384.193ZM921.068 380.179C922.966 379.482 924.85 378.776 926.717 378.058L924.566 372.457C922.727 373.163 920.872 373.86 919.001 374.546L921.068 380.179ZM932.383 375.831C934.255 375.078 936.11 374.314 937.947 373.539L935.616 368.01C933.81 368.772 931.985 369.523 930.143 370.265L932.383 375.831ZM943.543 371.123C945.401 370.301 947.24 369.468 949.059 368.623L946.532 363.181C944.747 364.01 942.941 364.828 941.116 365.635L943.543 371.123ZM954.523 366.023C956.363 365.125 958.181 364.216 959.976 363.294L957.236 357.957C955.478 358.859 953.697 359.75 951.893 360.63L954.523 366.023ZM965.296 360.492C967.11 359.511 968.899 358.517 970.662 357.51L967.687 352.3C965.965 353.283 964.217 354.254 962.442 355.214L965.296 360.492ZM975.872 354.452C977.634 353.388 979.367 352.311 981.071 351.22L977.836 346.167C976.178 347.228 974.489 348.278 972.771 349.315L975.872 354.452ZM986.14 347.876C987.84 346.719 989.507 345.548 991.141 344.363L987.617 339.507C986.034 340.655 984.416 341.792 982.765 342.915L986.14 347.876ZM996.02 340.702C996.816 340.084 997.602 339.463 998.38 338.838L994.62 334.162C993.87 334.765 993.11 335.366 992.341 335.963L996.02 340.702Z" fill="#14BF06"/>
<path d="M1003.5 289.5L995.526 274.124L986.197 288.718L1003.5 289.5ZM996.545 283.415C994.799 282.377 993.038 281.361 991.265 280.367L989.798 282.984C991.549 283.965 993.288 284.969 995.012 285.994L996.545 283.415ZM985.909 277.452C984.112 276.504 982.303 275.577 980.483 274.672L979.148 277.359C980.946 278.252 982.733 279.168 984.508 280.105L985.909 277.452ZM974.991 272.026C973.15 271.167 971.298 270.329 969.437 269.514L968.233 272.262C970.073 273.068 971.903 273.895 973.722 274.745L974.991 272.026ZM963.825 267.135C961.945 266.365 960.056 265.616 958.158 264.89L957.086 267.692C958.961 268.409 960.829 269.149 962.687 269.911L963.825 267.135ZM952.441 262.778C950.527 262.096 948.606 261.436 946.678 260.799L945.736 263.647C947.642 264.277 949.542 264.929 951.434 265.604L952.441 262.778ZM940.869 258.952C938.925 258.359 936.975 257.788 935.021 257.24L934.211 260.128C936.143 260.67 938.071 261.235 939.993 261.822L940.869 258.952ZM929.136 255.661C927.166 255.156 925.192 254.674 923.214 254.215L922.536 257.137C924.491 257.591 926.443 258.068 928.391 258.567L929.136 255.661ZM917.264 252.904C915.274 252.489 913.28 252.097 911.285 251.728L910.74 254.678C912.713 255.043 914.684 255.43 916.652 255.841L917.264 252.904ZM905.279 250.687C903.271 250.363 901.263 250.062 899.254 249.784L898.843 252.756C900.829 253.03 902.815 253.328 904.8 253.649L905.279 250.687ZM893.208 249.018C891.186 248.786 889.164 248.577 887.143 248.391L886.869 251.379C888.867 251.562 890.866 251.769 892.866 251.998L893.208 249.018ZM881.07 247.906C879.039 247.767 877.011 247.653 874.985 247.563L874.852 250.56C876.854 250.649 878.859 250.762 880.866 250.899L881.07 247.906ZM868.889 247.364C866.853 247.322 864.822 247.305 862.795 247.312L862.806 250.312C864.808 250.305 866.816 250.322 868.827 250.363L868.889 247.364ZM856.702 247.409C854.663 247.467 852.63 247.55 850.604 247.659L850.764 250.654C852.765 250.547 854.773 250.465 856.787 250.408L856.702 247.409ZM844.521 248.062C842.49 248.223 840.468 248.41 838.454 248.623L838.77 251.606C840.757 251.396 842.753 251.212 844.758 251.053L844.521 248.062ZM832.389 249.347C830.366 249.616 828.354 249.912 826.352 250.235L826.83 253.197C828.804 252.878 830.789 252.586 832.785 252.321L832.389 249.347ZM820.349 251.291C818.342 251.673 816.347 252.084 814.367 252.522L815.015 255.451C816.966 255.019 818.932 254.615 820.91 254.238L820.349 251.291ZM808.422 253.93C806.442 254.431 804.478 254.961 802.529 255.519L803.356 258.403C805.274 257.854 807.208 257.332 809.158 256.839L808.422 253.93ZM796.692 257.294C794.743 257.921 792.812 258.579 790.901 259.266L791.915 262.089C793.795 261.413 795.694 260.767 797.611 260.15L796.692 257.294ZM785.184 261.432C783.285 262.19 781.407 262.978 779.55 263.798L780.762 266.542C782.585 265.738 784.43 264.963 786.296 264.218L785.184 261.432ZM774.008 266.37C772.166 267.267 770.347 268.196 768.555 269.158L769.972 271.802C771.73 270.859 773.514 269.947 775.321 269.067L774.008 266.37ZM763.219 272.159C761.456 273.198 759.72 274.271 758.013 275.376L759.644 277.894C761.315 276.812 763.015 275.761 764.743 274.743L763.219 272.159ZM752.95 278.813C751.28 280.001 749.642 281.222 748.035 282.477L749.882 284.841C751.453 283.614 753.055 282.42 754.688 281.258L752.95 278.813ZM743.294 286.363C742.519 287.029 741.753 287.703 740.996 288.386L743.004 290.614C743.744 289.947 744.492 289.288 745.249 288.638L743.294 286.363ZM1003.5 289.5L987.551 258.749L968.894 287.936L1003.5 289.5ZM997.312 282.126C995.554 281.081 993.783 280.059 991.999 279.058L989.065 284.292C990.805 285.268 992.532 286.265 994.246 287.284L997.312 282.126ZM986.61 276.126C984.802 275.171 982.982 274.239 981.15 273.329L978.48 278.702C980.268 279.59 982.044 280.5 983.808 281.432L986.61 276.126ZM975.626 270.667C973.774 269.802 971.911 268.96 970.039 268.14L967.632 273.636C969.46 274.437 971.279 275.26 973.087 276.104L975.626 270.667ZM964.394 265.747C962.503 264.972 960.603 264.219 958.695 263.489L956.55 269.093C958.414 269.806 960.271 270.542 962.118 271.299L964.394 265.747ZM952.945 261.365C951.02 260.679 949.087 260.015 947.148 259.374L945.265 265.071C947.161 265.698 949.05 266.346 950.931 267.017L952.945 261.365ZM941.307 257.518C939.352 256.921 937.392 256.347 935.426 255.796L933.805 261.572C935.727 262.112 937.644 262.673 939.555 263.256L941.307 257.518ZM929.508 254.208C927.527 253.7 925.542 253.215 923.553 252.754L922.196 258.598C924.141 259.05 926.082 259.524 928.019 260.02L929.508 254.208ZM917.57 251.435C915.569 251.018 913.564 250.624 911.558 250.253L910.467 256.153C912.429 256.516 914.388 256.901 916.346 257.309L917.57 251.435ZM905.518 249.206C903.499 248.88 901.479 248.577 899.459 248.298L898.638 254.241C900.612 254.515 902.587 254.811 904.561 255.13L905.518 249.206ZM893.38 247.528C891.346 247.294 889.312 247.084 887.28 246.898L886.732 252.873C888.718 253.055 890.706 253.26 892.694 253.489L893.38 247.528ZM881.172 246.409C879.13 246.27 877.089 246.155 875.052 246.064L874.785 252.058C876.775 252.147 878.768 252.259 880.764 252.396L881.172 246.409ZM868.92 245.864C866.872 245.822 864.829 245.805 862.79 245.812L862.812 251.812C864.802 251.805 866.797 251.822 868.796 251.863L868.92 245.864ZM856.66 245.91C854.608 245.968 852.563 246.052 850.524 246.161L850.845 252.152C852.833 252.046 854.828 251.964 856.829 251.908L856.66 245.91ZM844.402 246.567C842.358 246.729 840.323 246.917 838.296 247.131L838.927 253.098C840.901 252.889 842.885 252.706 844.876 252.548L844.402 246.567ZM832.191 247.86C830.155 248.131 828.128 248.429 826.113 248.754L827.069 254.678C829.029 254.361 831.001 254.071 832.983 253.808L832.191 247.86ZM820.068 249.817C818.047 250.203 816.038 250.616 814.043 251.057L815.338 256.915C817.276 256.487 819.227 256.086 821.191 255.711L820.068 249.817ZM808.054 252.476C806.059 252.981 804.08 253.515 802.116 254.078L803.769 259.845C805.672 259.3 807.591 258.782 809.526 258.293L808.054 252.476ZM796.233 255.866C794.268 256.499 792.321 257.161 790.393 257.854L792.422 263.5C794.286 262.831 796.169 262.19 798.071 261.578L796.233 255.866ZM784.628 260.039C782.712 260.803 780.817 261.599 778.945 262.426L781.368 267.915C783.174 267.117 785.002 266.35 786.852 265.611L784.628 260.039ZM773.351 265.021C771.491 265.927 769.656 266.865 767.846 267.836L770.681 273.124C772.422 272.19 774.188 271.287 775.978 270.415L773.351 265.021ZM762.457 270.867C760.677 271.917 758.923 273 757.198 274.117L760.459 279.153C762.113 278.082 763.795 277.043 765.505 276.035L762.457 270.867ZM752.08 277.591C750.393 278.791 748.736 280.026 747.112 281.295L750.806 286.023C752.359 284.81 753.943 283.629 755.558 282.48L752.08 277.591ZM742.316 285.225C741.533 285.899 740.757 286.581 739.991 287.272L744.009 291.728C744.74 291.069 745.479 290.418 746.227 289.776L742.316 285.225Z" fill="#14BF06"/>
<path d="M712 113L746.627 114.001L728.447 143.488L712 113ZM819.5 143L819.5 146L819.5 143ZM736.224 124.439C752.971 132.025 779.968 140 819.5 140L819.5 146C779.133 146 751.291 137.85 733.749 129.905L736.224 124.439ZM819.5 140C857.63 140 884.607 132.58 901.98 125.237C910.671 121.563 916.971 117.903 921.071 115.187C923.121 113.828 924.621 112.706 925.595 111.936C926.082 111.551 926.438 111.254 926.665 111.059C926.778 110.962 926.86 110.89 926.909 110.846C926.934 110.824 926.951 110.809 926.96 110.8C926.964 110.796 926.967 110.794 926.967 110.794C926.968 110.793 926.967 110.794 926.967 110.794C926.966 110.795 926.965 110.795 926.965 110.796C926.964 110.796 926.963 110.798 929 113C931.037 115.202 931.036 115.204 931.034 115.205C931.033 115.206 931.032 115.207 931.03 115.209C931.028 115.211 931.024 115.214 931.021 115.217C931.013 115.224 931.004 115.233 930.993 115.243C930.97 115.264 930.939 115.292 930.9 115.326C930.822 115.396 930.712 115.492 930.569 115.615C930.283 115.86 929.867 116.207 929.316 116.642C928.216 117.513 926.58 118.734 924.384 120.188C919.993 123.097 913.368 126.937 904.316 130.763C886.204 138.42 858.432 146 819.5 146L819.5 140Z" fill="#4B90F3"/>
<path d="M926 88L891.373 86.9993L909.553 57.5122L926 88ZM818.5 58L818.5 55L818.5 58ZM901.776 76.5607C885.029 68.9753 858.032 61 818.5 61L818.5 55C858.867 55 886.709 63.1495 904.251 71.0952L901.776 76.5607ZM818.5 61C780.37 61 753.393 68.4195 736.02 75.7633C727.329 79.4371 721.029 83.0975 716.929 85.8134C714.879 87.1716 713.379 88.2939 712.405 89.0642C711.918 89.4494 711.562 89.7465 711.335 89.941C711.222 90.0383 711.14 90.11 711.091 90.1541C711.066 90.1762 711.049 90.1915 711.04 90.1996C711.036 90.2037 711.033 90.2059 711.033 90.2064C711.032 90.2067 711.033 90.2065 711.033 90.2058C711.034 90.2055 711.035 90.2047 711.035 90.2045C711.036 90.2035 711.037 90.2025 709 88C706.963 85.7975 706.964 85.7962 706.966 85.7948C706.967 85.7942 706.968 85.7927 706.97 85.7914C706.972 85.789 706.976 85.786 706.979 85.7826C706.987 85.7759 706.996 85.7673 707.007 85.7569C707.03 85.7362 707.061 85.7084 707.1 85.6737C707.178 85.6044 707.288 85.5076 707.431 85.3851C707.717 85.1402 708.133 84.7928 708.684 84.3577C709.784 83.4873 711.42 82.2659 713.616 80.8116C718.007 77.9026 724.632 74.0629 733.684 70.2367C751.796 62.5805 779.568 55 818.5 55L818.5 61Z" fill="#4B90F3"/>
<path d="M1040 149L1022.68 179H1057.32L1040 149ZM1037 176V276H1043V176H1037Z" fill="#4B90F3"/>
<path d="M633.999 149L658.946 173.035L625.658 182.622L633.999 149ZM644.05 173.409C650.057 183.521 659.364 192.512 669.891 201.012C680.539 209.61 691.795 217.234 702.259 225.264C712.482 233.108 721.708 241.177 727.077 250.052C732.587 259.157 734.046 269.15 728.705 280.296L723.294 277.704C727.655 268.603 726.539 260.752 721.944 253.158C717.209 245.332 708.801 237.846 698.607 230.024C688.654 222.387 676.711 214.231 666.122 205.681C655.412 197.032 645.446 187.506 638.891 176.474L644.05 173.409Z" fill="#4B90F3"/>
<path d="M565 149L544.897 177.211L579.38 180.515L565 149ZM559.485 175.279C555.355 195.545 546.566 210.892 536.255 226.325C525.988 241.695 514.046 257.352 504.295 277.704L509.706 280.296C519.213 260.455 530.738 245.385 541.244 229.658C551.708 213.996 561.002 197.879 565.364 176.477L559.485 175.279Z" fill="#4B90F3"/>
<path d="M227 149L223.621 183.476L255.168 169.164L227 149ZM236.076 175.746C244.93 184.23 258.189 190.789 274.354 196.035C290.567 201.297 309.972 205.322 331.36 208.579C374.117 215.09 425.22 218.588 475.236 222.625C525.352 226.67 574.371 231.255 613.291 239.912C632.749 244.24 649.533 249.554 662.606 256.245C675.7 262.947 684.783 270.88 689.295 280.296L694.705 277.704C689.4 266.632 679.031 257.912 665.34 250.904C651.626 243.886 634.29 238.436 614.594 234.055C575.206 225.294 525.781 220.685 475.719 216.644C425.558 212.596 374.75 209.117 332.263 202.647C311.03 199.414 291.981 195.448 276.207 190.328C260.385 185.193 248.125 178.981 240.227 171.414L236.076 175.746Z" fill="#4B90F3"/>
<path d="M182 149L170.189 181.565L204.297 175.511L182 149ZM183.996 176.851C193.433 197.344 214.987 210.427 241.42 219.558C267.943 228.72 300.108 234.146 331.726 238.825C363.476 243.524 394.616 247.464 419.559 253.625C432.015 256.703 442.754 260.295 451.147 264.724C459.554 269.16 465.344 274.295 468.308 280.324L473.692 277.676C469.952 270.069 462.943 264.164 453.947 259.417C444.937 254.663 433.666 250.93 420.998 247.801C395.692 241.549 364.118 237.554 332.604 232.89C300.959 228.207 269.309 222.844 243.379 213.887C217.36 204.899 197.823 192.532 189.445 174.341L183.996 176.851Z" fill="#4B90F3"/>
<path d="M137 149L124.244 181.207L158.514 176.151L137 149ZM138.088 176.639C147.284 204.834 170.576 219.345 193.193 232.476C216.174 245.818 238.242 257.68 248.259 280.218L253.741 277.782C242.769 253.094 218.607 240.292 196.206 227.287C173.44 214.07 152.197 200.548 143.793 174.778L138.088 176.639Z" fill="#4B90F3"/>
<path d="M92 149L71.3023 176.778L105.707 180.814L92 149ZM85.9425 175.097C81.1207 194.481 71.481 208.201 62.6319 223.05C53.808 237.856 46 253.5 46 276H52C52 255.11 59.1617 240.593 67.786 226.121C76.3853 211.692 86.6724 197.018 91.7651 176.545L85.9425 175.097Z" fill="#4B90F3"/>
<path d="M485 101L455 83.6795L455 118.321L485 101ZM458 98L271 98L271 104L458 104L458 98Z" fill="#4B90F3"/>
<path d="M796.624 300.882L794.626 303.121L794.626 303.121L796.624 300.882ZM801.391 329.806L803.894 331.46L803.894 331.46L801.391 329.806ZM755.729 333.89L780.179 358.429L789.206 324.985L755.729 333.89ZM755.066 312.319C761.022 306.664 768.573 302.029 775.88 300.043C783.175 298.06 789.783 298.798 794.626 303.121L798.621 298.644C791.741 292.505 782.774 291.951 774.306 294.253C765.851 296.551 757.452 301.779 750.934 307.969L755.066 312.319ZM794.626 303.121C803.928 311.421 803.323 321.441 798.888 328.152L803.894 331.46C809.817 322.498 810.35 309.11 798.621 298.644L794.626 303.121ZM798.888 328.152C795.548 333.205 789.838 337.361 781.589 337.933L782.004 343.918C792.263 343.207 799.608 337.945 803.894 331.46L798.888 328.152Z" fill="#4B90F3"/>
<rect x="664" y="276" width="90" height="90" rx="45" stroke="#4B90F3" stroke-width="6"/>
<path d="M696.745 304.496H708.601C710.745 304.496 712.681 304.848 714.409 305.552C716.169 306.256 717.657 307.312 718.873 308.72C720.121 310.096 721.081 311.84 721.753 313.952C722.425 316.032 722.761 318.464 722.761 321.248C722.761 324.032 722.425 326.48 721.753 328.592C721.081 330.672 720.121 332.416 718.873 333.824C717.657 335.2 716.169 336.24 714.409 336.944C712.681 337.648 710.745 338 708.601 338H696.745V304.496ZM708.601 333.2C711.097 333.2 713.113 332.416 714.649 330.848C716.185 329.28 716.953 326.976 716.953 323.936V318.56C716.953 315.52 716.185 313.216 714.649 311.648C713.113 310.08 711.097 309.296 708.601 309.296H702.169V333.2H708.601Z" fill="#4B90F3"/>
<path d="M576.624 300.882L574.626 303.121L574.626 303.121L576.624 300.882ZM581.391 329.806L583.894 331.46L583.894 331.46L581.391 329.806ZM535.729 333.89L560.179 358.429L569.206 324.985L535.729 333.89ZM535.066 312.319C541.022 306.664 548.573 302.029 555.88 300.043C563.175 298.06 569.783 298.798 574.626 303.121L578.621 298.644C571.741 292.505 562.774 291.951 554.306 294.253C545.851 296.551 537.452 301.779 530.934 307.969L535.066 312.319ZM574.626 303.121C583.928 311.421 583.323 321.441 578.888 328.152L583.894 331.46C589.817 322.498 590.35 309.11 578.621 298.644L574.626 303.121ZM578.888 328.152C575.548 333.205 569.838 337.361 561.589 337.933L562.004 343.918C572.263 343.207 579.608 337.945 583.894 331.46L578.888 328.152Z" fill="#4B90F3"/>
<rect x="444" y="276" width="90" height="90" rx="45" stroke="#4B90F3" stroke-width="6"/>
<path d="M490.493 338.576C486.109 338.576 482.669 337.104 480.173 334.16C477.677 331.184 476.429 326.88 476.429 321.248C476.429 318.432 476.749 315.952 477.389 313.808C478.029 311.664 478.957 309.856 480.173 308.384C481.389 306.912 482.861 305.808 484.589 305.072C486.349 304.304 488.317 303.92 490.493 303.92C493.405 303.92 495.837 304.56 497.789 305.84C499.773 307.12 501.325 309.008 502.445 311.504L497.885 314C497.309 312.4 496.413 311.136 495.197 310.208C494.013 309.248 492.445 308.768 490.493 308.768C487.901 308.768 485.869 309.648 484.397 311.408C482.925 313.168 482.189 315.6 482.189 318.704V323.792C482.189 326.896 482.925 329.328 484.397 331.088C485.869 332.848 487.901 333.728 490.493 333.728C492.509 333.728 494.141 333.216 495.389 332.192C496.669 331.136 497.613 329.792 498.221 328.16L502.589 330.8C501.469 333.232 499.901 335.136 497.885 336.512C495.869 337.888 493.405 338.576 490.493 338.576Z" fill="#4B90F3"/>
<path d="M356.624 300.882L354.626 303.121L354.626 303.121L356.624 300.882ZM361.391 329.806L363.894 331.46L363.894 331.46L361.391 329.806ZM315.729 333.89L340.179 358.429L349.206 324.985L315.729 333.89ZM315.066 312.319C321.022 306.664 328.573 302.029 335.88 300.043C343.175 298.06 349.783 298.798 354.626 303.121L358.621 298.644C351.741 292.505 342.774 291.951 334.306 294.253C325.851 296.551 317.452 301.779 310.934 307.969L315.066 312.319ZM354.626 303.121C363.928 311.421 363.323 321.441 358.888 328.152L363.894 331.46C369.817 322.498 370.35 309.11 358.621 298.644L354.626 303.121ZM358.888 328.152C355.548 333.205 349.838 337.361 341.589 337.933L342.004 343.918C352.263 343.207 359.608 337.945 363.894 331.46L358.888 328.152Z" fill="#4B90F3"/>
<rect x="224" y="276" width="90" height="90" rx="45" stroke="#4B90F3" stroke-width="6"/>
<path d="M257.308 304.496H272.14C274.924 304.496 277.1 305.28 278.668 306.848C280.268 308.416 281.068 310.512 281.068 313.136C281.068 314.384 280.892 315.456 280.54 316.352C280.188 317.216 279.74 317.936 279.196 318.512C278.652 319.056 278.028 319.472 277.324 319.76C276.62 320.016 275.932 320.176 275.26 320.24V320.528C275.932 320.56 276.668 320.72 277.468 321.008C278.3 321.296 279.068 321.76 279.772 322.4C280.476 323.008 281.068 323.808 281.548 324.8C282.028 325.76 282.268 326.944 282.268 328.352C282.268 329.696 282.044 330.96 281.596 332.144C281.18 333.328 280.588 334.352 279.82 335.216C279.052 336.08 278.14 336.768 277.084 337.28C276.028 337.76 274.876 338 273.628 338H257.308V304.496ZM262.732 333.344H272.044C273.452 333.344 274.556 332.976 275.356 332.24C276.156 331.504 276.556 330.448 276.556 329.072V327.44C276.556 326.064 276.156 325.008 275.356 324.272C274.556 323.536 273.452 323.168 272.044 323.168H262.732V333.344ZM262.732 318.656H271.132C272.476 318.656 273.516 318.32 274.252 317.648C274.988 316.944 275.356 315.952 275.356 314.672V313.136C275.356 311.856 274.988 310.88 274.252 310.208C273.516 309.504 272.476 309.152 271.132 309.152H262.732V318.656Z" fill="#4B90F3"/>
<path d="M136.624 300.882L134.626 303.121L134.626 303.121L136.624 300.882ZM141.391 329.806L143.894 331.46L143.894 331.46L141.391 329.806ZM95.7288 333.89L120.179 358.429L129.206 324.985L95.7288 333.89ZM95.0658 312.319C101.022 306.664 108.573 302.029 115.88 300.043C123.175 298.06 129.783 298.798 134.626 303.121L138.621 298.644C131.741 292.505 122.774 291.951 114.306 294.253C105.851 296.551 97.4524 301.779 90.9342 307.969L95.0658 312.319ZM134.626 303.121C143.928 311.421 143.323 321.441 138.888 328.152L143.894 331.46C149.817 322.498 150.35 309.11 138.621 298.644L134.626 303.121ZM138.888 328.152C135.548 333.205 129.838 337.361 121.589 337.933L122.004 343.918C132.263 343.207 139.608 337.945 143.894 331.46L138.888 328.152Z" fill="#4B90F3"/>
<rect x="4" y="276" width="90" height="90" rx="45" stroke="#4B90F3" stroke-width="6"/>
<path d="M58.1654 338L55.1414 328.928H42.6134L39.6854 338H34.1654L45.5894 304.496H52.4054L63.8294 338H58.1654ZM48.9974 309.488H48.7574L43.9094 324.272H53.7974L48.9974 309.488Z" fill="#4B90F3"/>
<path d="M1020.22 12.0173L1022.4 14.0788L1020.22 12.0173ZM1049.9 7.89685L1048.22 10.3804L1049.9 7.89685ZM1053.32 53.8063L1078.42 29.9297L1045.2 20.1325L1053.32 53.8063ZM1031.17 53.9548C1025.48 47.8422 1020.86 40.1555 1018.95 32.7819C1017.04 25.4249 1017.91 18.8317 1022.4 14.0788L1018.04 9.95576C1011.64 16.7259 1010.92 25.7303 1013.14 34.2871C1015.35 42.8273 1020.56 51.3704 1026.78 58.0452L1031.17 53.9548ZM1022.4 14.0788C1031.06 4.92411 1041.37 5.73867 1048.22 10.3804L1051.58 5.41332C1042.57 -0.696577 1028.94 -1.56119 1018.04 9.95576L1022.4 14.0788ZM1048.22 10.3804C1053.38 13.8771 1057.54 19.7417 1057.96 28.0609L1063.96 27.7557C1063.43 17.3749 1058.14 9.85954 1051.58 5.41332L1048.22 10.3804Z" fill="#4B90F3"/>
<rect x="928" y="56" width="223" height="90" rx="45" stroke="#4B90F3" stroke-width="6"/>
<path d="M960.098 93.04H965.33V97.168H965.57C966.114 95.664 966.994 94.512 968.21 93.712C969.458 92.88 970.914 92.464 972.578 92.464C975.746 92.464 978.194 93.616 979.922 95.92C981.65 98.192 982.514 101.392 982.514 105.52C982.514 109.648 981.65 112.864 979.922 115.168C978.194 117.44 975.746 118.576 972.578 118.576C970.914 118.576 969.458 118.16 968.21 117.328C966.994 116.496 966.114 115.344 965.57 113.872H965.33V127.6H960.098V93.04ZM970.994 114.064C972.818 114.064 974.274 113.488 975.362 112.336C976.45 111.152 976.994 109.6 976.994 107.68V103.36C976.994 101.44 976.45 99.904 975.362 98.752C974.274 97.568 972.818 96.976 970.994 96.976C969.394 96.976 968.05 97.376 966.962 98.176C965.874 98.944 965.33 99.968 965.33 101.248V109.792C965.33 111.072 965.874 112.112 966.962 112.912C968.05 113.68 969.394 114.064 970.994 114.064ZM988.024 118V93.04H993.256V97.84H993.496C993.848 96.56 994.584 95.44 995.704 94.48C996.824 93.52 998.376 93.04 1000.36 93.04H1001.75V98.08H999.688C997.608 98.08 996.008 98.416 994.888 99.088C993.8 99.76 993.256 100.752 993.256 102.064V118H988.024ZM1015.48 118.576C1013.75 118.576 1012.16 118.272 1010.72 117.664C1009.32 117.056 1008.12 116.192 1007.12 115.072C1006.13 113.92 1005.36 112.544 1004.82 110.944C1004.28 109.312 1004 107.504 1004 105.52C1004 103.536 1004.28 101.744 1004.82 100.144C1005.36 98.512 1006.13 97.136 1007.12 96.016C1008.12 94.864 1009.32 93.984 1010.72 93.376C1012.16 92.768 1013.75 92.464 1015.48 92.464C1017.2 92.464 1018.77 92.768 1020.18 93.376C1021.62 93.984 1022.84 94.864 1023.83 96.016C1024.82 97.136 1025.59 98.512 1026.13 100.144C1026.68 101.744 1026.95 103.536 1026.95 105.52C1026.95 107.504 1026.68 109.312 1026.13 110.944C1025.59 112.544 1024.82 113.92 1023.83 115.072C1022.84 116.192 1021.62 117.056 1020.18 117.664C1018.77 118.272 1017.2 118.576 1015.48 118.576ZM1015.48 114.256C1017.27 114.256 1018.71 113.712 1019.8 112.624C1020.88 111.504 1021.43 109.84 1021.43 107.632V103.408C1021.43 101.2 1020.88 99.552 1019.8 98.464C1018.71 97.344 1017.27 96.784 1015.48 96.784C1013.68 96.784 1012.24 97.344 1011.16 98.464C1010.07 99.552 1009.52 101.2 1009.52 103.408V107.632C1009.52 109.84 1010.07 111.504 1011.16 112.624C1012.24 113.712 1013.68 114.256 1015.48 114.256ZM1028.86 118L1037.64 105.376L1029.1 93.04H1035.15L1040.76 101.728H1040.91L1046.67 93.04H1052.23L1043.69 105.328L1052.38 118H1046.33L1040.57 108.928H1040.43L1034.43 118H1028.86ZM1071.93 93.04H1076.97L1066.46 122.944C1066.17 123.776 1065.83 124.48 1065.45 125.056C1065.1 125.664 1064.66 126.144 1064.15 126.496C1063.67 126.88 1063.08 127.152 1062.38 127.312C1061.67 127.504 1060.84 127.6 1059.88 127.6H1056.86V123.328H1061.08L1062.52 119.104L1053.45 93.04H1058.68L1063.67 107.728L1065.11 113.152H1065.35L1066.94 107.728L1071.93 93.04ZM1111.67 104.272H1098.9V118H1091.61V84.496H1098.9V97.84H1111.67V84.496H1118.97V118H1111.67V104.272Z" fill="#4B90F3"/>
<path d="M580.222 12.0173L582.402 14.0788L580.222 12.0173ZM609.9 7.89685L608.217 10.3804L609.9 7.89685ZM613.324 53.8063L638.422 29.9297L605.196 20.1325L613.324 53.8063ZM591.174 53.9548C585.478 47.8422 580.86 40.1555 578.949 32.7819C577.042 25.4249 577.906 18.8317 582.402 14.0788L578.043 9.95576C571.639 16.7259 570.923 25.7303 573.141 34.2871C575.354 42.8273 580.564 51.3704 586.784 58.0452L591.174 53.9548ZM582.402 14.0788C591.061 4.92411 601.367 5.73867 608.217 10.3804L611.583 5.41332C602.566 -0.696577 588.936 -1.56119 578.043 9.95576L582.402 14.0788ZM608.217 10.3804C613.378 13.8771 617.541 19.7417 617.964 28.0609L623.957 27.7557C623.428 17.3749 618.145 9.85954 611.583 5.41332L608.217 10.3804Z" fill="#4B90F3"/>
<rect x="488" y="56" width="223" height="90" rx="45" stroke="#4B90F3" stroke-width="6"/>
<path d="M520.215 93.04H525.447V97.168H525.687C526.231 95.664 527.111 94.512 528.327 93.712C529.575 92.88 531.031 92.464 532.695 92.464C535.863 92.464 538.311 93.616 540.039 95.92C541.767 98.192 542.631 101.392 542.631 105.52C542.631 109.648 541.767 112.864 540.039 115.168C538.311 117.44 535.863 118.576 532.695 118.576C531.031 118.576 529.575 118.16 528.327 117.328C527.111 116.496 526.231 115.344 525.687 113.872H525.447V127.6H520.215V93.04ZM531.111 114.064C532.935 114.064 534.391 113.488 535.479 112.336C536.567 111.152 537.111 109.6 537.111 107.68V103.36C537.111 101.44 536.567 99.904 535.479 98.752C534.391 97.568 532.935 96.976 531.111 96.976C529.511 96.976 528.167 97.376 527.079 98.176C525.991 98.944 525.447 99.968 525.447 101.248V109.792C525.447 111.072 525.991 112.112 527.079 112.912C528.167 113.68 529.511 114.064 531.111 114.064ZM548.142 118V93.04H553.374V97.84H553.614C553.966 96.56 554.702 95.44 555.822 94.48C556.942 93.52 558.494 93.04 560.478 93.04H561.87V98.08H559.806C557.726 98.08 556.126 98.416 555.006 99.088C553.918 99.76 553.374 100.752 553.374 102.064V118H548.142ZM575.594 118.576C573.866 118.576 572.282 118.272 570.842 117.664C569.434 117.056 568.234 116.192 567.242 115.072C566.25 113.92 565.482 112.544 564.938 110.944C564.394 109.312 564.122 107.504 564.122 105.52C564.122 103.536 564.394 101.744 564.938 100.144C565.482 98.512 566.25 97.136 567.242 96.016C568.234 94.864 569.434 93.984 570.842 93.376C572.282 92.768 573.866 92.464 575.594 92.464C577.322 92.464 578.89 92.768 580.298 93.376C581.738 93.984 582.954 94.864 583.946 96.016C584.938 97.136 585.706 98.512 586.25 100.144C586.794 101.744 587.066 103.536 587.066 105.52C587.066 107.504 586.794 109.312 586.25 110.944C585.706 112.544 584.938 113.92 583.946 115.072C582.954 116.192 581.738 117.056 580.298 117.664C578.89 118.272 577.322 118.576 575.594 118.576ZM575.594 114.256C577.386 114.256 578.826 113.712 579.914 112.624C581.002 111.504 581.546 109.84 581.546 107.632V103.408C581.546 101.2 581.002 99.552 579.914 98.464C578.826 97.344 577.386 96.784 575.594 96.784C573.802 96.784 572.362 97.344 571.274 98.464C570.186 99.552 569.642 101.2 569.642 103.408V107.632C569.642 109.84 570.186 111.504 571.274 112.624C572.362 113.712 573.802 114.256 575.594 114.256ZM588.976 118L597.76 105.376L589.216 93.04H595.264L600.88 101.728H601.024L606.784 93.04H612.352L603.808 105.328L612.496 118H606.448L600.688 108.928H600.544L594.544 118H588.976ZM632.045 93.04H637.085L626.573 122.944C626.285 123.776 625.949 124.48 625.565 125.056C625.213 125.664 624.781 126.144 624.269 126.496C623.789 126.88 623.197 127.152 622.493 127.312C621.789 127.504 620.957 127.6 619.997 127.6H616.973V123.328H621.197L622.637 119.104L613.565 93.04H618.797L623.789 107.728L625.229 113.152H625.469L627.053 107.728L632.045 93.04ZM672.989 112.672H672.749C672.493 114.368 671.629 115.776 670.157 116.896C668.685 118.016 666.685 118.576 664.157 118.576C662.237 118.576 660.445 118.208 658.781 117.472C657.117 116.736 655.661 115.648 654.413 114.208C653.165 112.768 652.189 110.976 651.485 108.832C650.781 106.688 650.429 104.208 650.429 101.392C650.429 98.576 650.797 96.08 651.533 93.904C652.269 91.728 653.293 89.904 654.605 88.432C655.949 86.96 657.549 85.84 659.405 85.072C661.261 84.304 663.325 83.92 665.597 83.92C668.605 83.92 671.197 84.576 673.373 85.888C675.549 87.168 677.261 89.104 678.509 91.696L672.557 95.104C672.045 93.792 671.245 92.688 670.157 91.792C669.069 90.864 667.549 90.4 665.597 90.4C663.325 90.4 661.517 91.056 660.173 92.368C658.829 93.68 658.157 95.744 658.157 98.56V103.936C658.157 106.72 658.829 108.784 660.173 110.128C661.517 111.44 663.325 112.096 665.597 112.096C666.493 112.096 667.341 112 668.141 111.808C668.941 111.584 669.645 111.264 670.253 110.848C670.861 110.4 671.325 109.872 671.645 109.264C671.997 108.656 672.173 107.936 672.173 107.104V105.424H665.933V99.328H679.133V118H672.989V112.672Z" fill="#4B90F3"/>
<path d="M140.222 12.0173L142.402 14.0788L140.222 12.0173ZM169.9 7.89685L168.217 10.3804L169.9 7.89685ZM173.324 53.8063L198.422 29.9297L165.196 20.1325L173.324 53.8063ZM151.174 53.9548C145.478 47.8422 140.86 40.1555 138.949 32.7819C137.042 25.4249 137.906 18.8317 142.402 14.0788L138.043 9.95576C131.639 16.7259 130.923 25.7303 133.141 34.2871C135.354 42.8273 140.564 51.3704 146.784 58.0452L151.174 53.9548ZM142.402 14.0788C151.061 4.92411 161.367 5.73867 168.217 10.3804L171.583 5.41332C162.566 -0.696577 148.936 -1.56119 138.043 9.95576L142.402 14.0788ZM168.217 10.3804C173.378 13.8771 177.541 19.7417 177.964 28.0609L183.957 27.7557C183.428 17.3749 178.145 9.85954 171.583 5.41332L168.217 10.3804Z" fill="#4B90F3"/>
<rect x="48" y="56" width="223" height="90" rx="45" stroke="#4B90F3" stroke-width="6"/>
<path d="M100.017 120.352C100.017 122.944 99.0253 124.896 97.0413 126.208C95.0573 127.52 91.8253 128.176 87.3453 128.176C85.2973 128.176 83.5533 128.032 82.1133 127.744C80.7053 127.488 79.5373 127.104 78.6093 126.592C77.7133 126.08 77.0573 125.456 76.6413 124.72C76.2253 123.984 76.0173 123.136 76.0173 122.176C76.0173 120.8 76.3853 119.728 77.1213 118.96C77.8893 118.192 78.9453 117.664 80.2893 117.376V116.848C78.4013 116.24 77.4573 114.96 77.4573 113.008C77.4573 111.728 77.8893 110.752 78.7533 110.08C79.6173 109.376 80.6573 108.88 81.8733 108.592V108.4C80.4013 107.696 79.2653 106.72 78.4653 105.472C77.6973 104.192 77.3133 102.704 77.3133 101.008C77.3133 98.448 78.1613 96.384 79.8573 94.816C81.5853 93.248 84.0493 92.464 87.2493 92.464C89.0093 92.464 90.5133 92.72 91.7613 93.232V92.56C91.7613 91.44 92.0173 90.576 92.5293 89.968C93.0733 89.328 93.9053 89.008 95.0253 89.008H98.8653V93.232H93.7773V94.24C94.8973 94.976 95.7613 95.936 96.3693 97.12C96.9773 98.272 97.2813 99.568 97.2813 101.008C97.2813 103.536 96.4173 105.584 94.6893 107.152C92.9613 108.688 90.4973 109.456 87.2973 109.456C86.0813 109.456 84.9933 109.328 84.0333 109.072C83.3933 109.296 82.8333 109.616 82.3533 110.032C81.8733 110.416 81.6333 110.928 81.6333 111.568C81.6333 112.24 81.9373 112.72 82.5453 113.008C83.1533 113.296 84.0173 113.44 85.1373 113.44H91.2813C94.3533 113.44 96.5773 114.064 97.9533 115.312C99.3293 116.528 100.017 118.208 100.017 120.352ZM95.1213 120.928C95.1213 120.064 94.7853 119.376 94.1133 118.864C93.4733 118.352 92.2893 118.096 90.5613 118.096H82.1133C80.9613 118.768 80.3853 119.728 80.3853 120.976C80.3853 122 80.7853 122.816 81.5853 123.424C82.4173 124.064 83.8093 124.384 85.7613 124.384H89.0253C93.0893 124.384 95.1213 123.232 95.1213 120.928ZM87.2973 105.664C88.8333 105.664 90.0173 105.328 90.8493 104.656C91.7133 103.952 92.1453 102.88 92.1453 101.44V100.48C92.1453 99.04 91.7133 97.984 90.8493 97.312C90.0173 96.608 88.8333 96.256 87.2973 96.256C85.7613 96.256 84.5613 96.608 83.6973 97.312C82.8653 97.984 82.4493 99.04 82.4493 100.48V101.44C82.4493 102.88 82.8653 103.952 83.6973 104.656C84.5613 105.328 85.7613 105.664 87.2973 105.664ZM103.431 118V93.04H108.663V97.84H108.903C109.255 96.56 109.991 95.44 111.111 94.48C112.231 93.52 113.783 93.04 115.767 93.04H117.159V98.08H115.095C113.015 98.08 111.415 98.416 110.295 99.088C109.207 99.76 108.663 100.752 108.663 102.064V118H103.431ZM130.883 118.576C129.155 118.576 127.571 118.272 126.131 117.664C124.723 117.056 123.523 116.192 122.531 115.072C121.539 113.92 120.771 112.544 120.227 110.944C119.683 109.312 119.411 107.504 119.411 105.52C119.411 103.536 119.683 101.744 120.227 100.144C120.771 98.512 121.539 97.136 122.531 96.016C123.523 94.864 124.723 93.984 126.131 93.376C127.571 92.768 129.155 92.464 130.883 92.464C132.611 92.464 134.179 92.768 135.587 93.376C137.027 93.984 138.243 94.864 139.235 96.016C140.227 97.136 140.995 98.512 141.539 100.144C142.083 101.744 142.355 103.536 142.355 105.52C142.355 107.504 142.083 109.312 141.539 110.944C140.995 112.544 140.227 113.92 139.235 115.072C138.243 116.192 137.027 117.056 135.587 117.664C134.179 118.272 132.611 118.576 130.883 118.576ZM130.883 114.256C132.675 114.256 134.115 113.712 135.203 112.624C136.291 111.504 136.835 109.84 136.835 107.632V103.408C136.835 101.2 136.291 99.552 135.203 98.464C134.115 97.344 132.675 96.784 130.883 96.784C129.091 96.784 127.651 97.344 126.563 98.464C125.475 99.552 124.931 101.2 124.931 103.408V107.632C124.931 109.84 125.475 111.504 126.563 112.624C127.651 113.712 129.091 114.256 130.883 114.256ZM162.825 113.872H162.633C162.409 114.48 162.105 115.072 161.721 115.648C161.369 116.224 160.905 116.736 160.329 117.184C159.785 117.6 159.113 117.936 158.313 118.192C157.545 118.448 156.649 118.576 155.625 118.576C153.033 118.576 151.017 117.744 149.577 116.08C148.169 114.416 147.465 112.032 147.465 108.928V93.04H152.697V108.256C152.697 112.128 154.297 114.064 157.497 114.064C158.169 114.064 158.825 113.984 159.465 113.824C160.105 113.632 160.665 113.36 161.145 113.008C161.657 112.656 162.057 112.208 162.345 111.664C162.665 111.12 162.825 110.48 162.825 109.744V93.04H168.057V118H162.825V113.872ZM175.069 93.04H180.301V97.168H180.541C181.085 95.664 181.965 94.512 183.181 93.712C184.429 92.88 185.885 92.464 187.549 92.464C190.717 92.464 193.165 93.616 194.893 95.92C196.621 98.192 197.485 101.392 197.485 105.52C197.485 109.648 196.621 112.864 194.893 115.168C193.165 117.44 190.717 118.576 187.549 118.576C185.885 118.576 184.429 118.16 183.181 117.328C181.965 116.496 181.085 115.344 180.541 113.872H180.301V127.6H175.069V93.04ZM185.965 114.064C187.789 114.064 189.245 113.488 190.333 112.336C191.421 111.152 191.965 109.6 191.965 107.68V103.36C191.965 101.44 191.421 99.904 190.333 98.752C189.245 97.568 187.789 96.976 185.965 96.976C184.365 96.976 183.021 97.376 181.933 98.176C180.845 98.944 180.301 99.968 180.301 101.248V109.792C180.301 111.072 180.845 112.112 181.933 112.912C183.021 113.68 184.365 114.064 185.965 114.064ZM235.075 112.672H234.835C234.579 114.368 233.715 115.776 232.243 116.896C230.771 118.016 228.771 118.576 226.243 118.576C224.323 118.576 222.531 118.208 220.867 117.472C219.203 116.736 217.747 115.648 216.499 114.208C215.251 112.768 214.275 110.976 213.571 108.832C212.867 106.688 212.515 104.208 212.515 101.392C212.515 98.576 212.883 96.08 213.619 93.904C214.355 91.728 215.379 89.904 216.691 88.432C218.035 86.96 219.635 85.84 221.491 85.072C223.347 84.304 225.411 83.92 227.683 83.92C230.691 83.92 233.283 84.576 235.459 85.888C237.635 87.168 239.347 89.104 240.595 91.696L234.643 95.104C234.131 93.792 233.331 92.688 232.243 91.792C231.155 90.864 229.635 90.4 227.683 90.4C225.411 90.4 223.603 91.056 222.259 92.368C220.915 93.68 220.243 95.744 220.243 98.56V103.936C220.243 106.72 220.915 108.784 222.259 110.128C223.603 111.44 225.411 112.096 227.683 112.096C228.579 112.096 229.427 112 230.227 111.808C231.027 111.584 231.731 111.264 232.339 110.848C232.947 110.4 233.411 109.872 233.731 109.264C234.083 108.656 234.259 107.936 234.259 107.104V105.424H228.019V99.328H241.219V118H235.075V112.672Z" fill="#4B90F3"/>
<path d="M1127.62 300.882L1125.63 303.121L1125.63 303.121L1127.62 300.882ZM1132.39 329.806L1134.89 331.46L1134.89 331.46L1132.39 329.806ZM1086.73 333.89L1111.18 358.429L1120.21 324.985L1086.73 333.89ZM1086.07 312.319C1092.02 306.664 1099.57 302.029 1106.88 300.043C1114.18 298.06 1120.78 298.798 1125.63 303.121L1129.62 298.644C1122.74 292.505 1113.77 291.951 1105.31 294.253C1096.85 296.551 1088.45 301.779 1081.93 307.969L1086.07 312.319ZM1125.63 303.121C1134.93 311.421 1134.32 321.441 1129.89 328.152L1134.89 331.46C1140.82 322.498 1141.35 309.11 1129.62 298.644L1125.63 303.121ZM1129.89 328.152C1126.55 333.205 1120.84 337.361 1112.59 337.933L1113 343.918C1123.26 343.207 1130.61 337.945 1134.89 331.46L1129.89 328.152Z" fill="#4B90F3"/>
<rect x="995" y="276" width="90" height="90" rx="45" stroke="#4B90F3" stroke-width="6"/>
<path d="M1029.9 338V304.496H1051.36V309.296H1035.33V318.608H1049.87V323.408H1035.33V333.2H1051.36V338H1029.9Z" fill="#4B90F3"/>
</svg>
