<svg width="382" height="561" viewBox="0 0 382 561" fill="none" xmlns="http://www.w3.org/2000/svg">
<path d="M129 293L144 301.66V284.34L129 293ZM137.659 294.5H143.432V291.5H137.659V294.5ZM149.205 294.5H154.977V291.5H149.205V294.5ZM160.75 294.5H166.523V291.5H160.75V294.5ZM172.295 294.5H178.068V291.5H172.295V294.5ZM183.841 294.5H189.614V291.5H183.841V294.5ZM195.386 294.5H201.159V291.5H195.386V294.5ZM206.932 294.5H212.705V291.5H206.932V294.5ZM218.477 294.5H224.25V291.5H218.477V294.5ZM230.023 294.5H235.795V291.5H230.023V294.5ZM241.568 294.5H247.341V291.5H241.568V294.5ZM253.114 294.5H256V291.5H253.114V294.5ZM129 293L159 310.321V275.679L129 293ZM137.659 296H143.432V290H137.659V296ZM149.205 296H154.977V290H149.205V296ZM160.75 296H166.523V290H160.75V296ZM172.295 296H178.068V290H172.295V296ZM183.841 296H189.614V290H183.841V296ZM195.386 296H201.159V290H195.386V296ZM206.932 296H212.705V290H206.932V296ZM218.477 296H224.25V290H218.477V296ZM230.023 296H235.795V290H230.023V296ZM241.568 296H247.341V290H241.568V296ZM253.114 296H256V290H253.114V296Z" fill="#2FE120"/>
<path d="M301 341L283.679 371H318.321L301 341ZM298 368V468H304V368H298Z" fill="#4B90F3"/>
<path d="M181.867 335L181.866 336.5L181.867 335ZM258.572 317L241.303 315.663L248.779 331.287L258.572 317ZM117.343 322.419C118.171 322.823 119.004 323.222 119.841 323.616L121.119 320.902C120.295 320.514 119.475 320.121 118.657 319.722L117.343 322.419ZM124.903 325.898C126.587 326.62 128.301 327.319 130.058 327.989L131.127 325.186C129.412 324.532 127.736 323.849 126.087 323.141L124.903 325.898ZM135.303 329.856C137.031 330.427 138.805 330.969 140.633 331.48L141.439 328.59C139.658 328.093 137.929 327.564 136.245 327.008L135.303 329.856ZM146.03 332.852C147.792 333.256 149.606 333.632 151.479 333.977L152.021 331.026C150.192 330.69 148.421 330.323 146.702 329.928L146.03 332.852ZM156.971 334.87C158.755 335.123 160.59 335.349 162.482 335.547L162.793 332.563C160.937 332.369 159.139 332.148 157.393 331.9L156.971 334.87ZM168.015 336.028C169.811 336.155 171.657 336.257 173.556 336.333L173.677 333.336C171.807 333.26 169.991 333.16 168.226 333.036L168.015 336.028ZM179.096 336.48C180.007 336.492 180.931 336.499 181.866 336.5L181.869 333.5C180.946 333.499 180.035 333.492 179.136 333.48L179.096 336.48ZM181.866 336.5C182.828 336.501 183.782 336.496 184.726 336.486L184.693 333.486C183.761 333.496 182.82 333.501 181.869 333.5L181.866 336.5ZM190.45 336.348C192.392 336.276 194.298 336.176 196.173 336.05L195.971 333.057C194.128 333.181 192.251 333.279 190.338 333.351L190.45 336.348ZM201.887 335.573C203.814 335.379 205.711 335.155 207.583 334.899L207.176 331.927C205.341 332.178 203.48 332.398 201.587 332.588L201.887 335.573ZM213.254 334.015C215.153 333.681 217.03 333.313 218.89 332.91L218.255 329.978C216.434 330.373 214.596 330.733 212.735 331.06L213.254 334.015ZM224.477 331.583C226.329 331.105 228.171 330.59 230.007 330.038L229.144 327.165C227.344 327.706 225.54 328.21 223.726 328.679L224.477 331.583ZM235.471 328.286C237.267 327.673 239.064 327.026 240.867 326.343L239.804 323.537C238.031 324.209 236.266 324.845 234.503 325.446L235.471 328.286ZM246.19 324.23C247.93 323.51 249.682 322.757 251.449 321.97L250.229 319.229C248.484 320.006 246.757 320.749 245.043 321.459L246.19 324.23ZM181.867 335L181.864 338L181.867 335ZM258.572 317L224.034 314.325L238.987 345.573L258.572 317ZM116.685 323.767C117.519 324.174 118.358 324.576 119.202 324.974L121.757 319.545C120.94 319.16 120.127 318.77 119.315 318.374L116.685 323.767ZM124.311 327.276C126.012 328.006 127.746 328.713 129.523 329.391L131.662 323.785C129.968 323.138 128.31 322.463 126.679 321.763L124.311 327.276ZM134.833 331.281C136.583 331.859 138.379 332.408 140.23 332.924L141.843 327.145C140.084 326.654 138.378 326.133 136.715 325.584L134.833 331.281ZM145.694 334.313C147.478 334.723 149.313 335.104 151.207 335.452L152.293 329.551C150.485 329.219 148.736 328.856 147.038 328.466L145.694 334.313ZM156.76 336.355C158.563 336.611 160.416 336.839 162.327 337.039L162.949 331.071C161.111 330.879 159.331 330.66 157.604 330.415L156.76 336.355ZM167.909 337.524C169.721 337.652 171.583 337.755 173.496 337.832L173.737 331.837C171.882 331.762 170.081 331.662 168.331 331.539L167.909 337.524ZM179.076 337.98C179.994 337.992 180.923 337.999 181.864 338L181.87 332C180.953 331.999 180.049 331.992 179.156 331.981L179.076 337.98ZM181.864 338C182.833 338.001 183.792 337.996 184.743 337.986L184.677 331.986C183.751 331.996 182.815 332.001 181.87 332L181.864 338ZM190.506 337.847C192.463 337.774 194.384 337.674 196.273 337.547L195.871 331.56C194.042 331.683 192.181 331.78 190.281 331.852L190.506 337.847ZM202.036 337.065C203.982 336.87 205.896 336.643 207.786 336.385L206.973 330.441C205.156 330.689 203.313 330.907 201.437 331.095L202.036 337.065ZM213.514 335.492C215.432 335.155 217.328 334.783 219.208 334.376L217.938 328.512C216.135 328.903 214.317 329.259 212.476 329.583L213.514 335.492ZM224.853 333.036C226.724 332.552 228.584 332.032 230.438 331.475L228.712 325.728C226.931 326.263 225.146 326.763 223.351 327.227L224.853 333.036ZM235.955 329.705C237.768 329.088 239.58 328.434 241.398 327.745L239.272 322.135C237.514 322.801 235.765 323.431 234.02 324.026L235.955 329.705ZM246.764 325.616C248.517 324.891 250.28 324.132 252.059 323.34L249.619 317.859C247.886 318.631 246.171 319.368 244.469 320.073L246.764 325.616Z" fill="#2FE120"/>
<path d="M213 144.015L243 161.335L213 178.656L213 144.015ZM273.902 255.5L223.902 168.897L229.098 165.897L279.098 252.5L273.902 255.5Z" fill="#4B90F3"/>
<path d="M169.5 144.015L139.5 161.335L169.5 178.656L169.5 144.015ZM108.598 255.5L158.598 168.897L153.402 165.897L103.402 252.5L108.598 255.5Z" fill="#4B90F3"/>
<path d="M353.192 439.003L353.143 442.002L353.192 439.003ZM375.799 457.888L378.775 457.51L378.775 457.51L375.799 457.888ZM343.656 491L378.192 493.692L363.255 462.437L343.656 491ZM328.985 475.019C329.817 466.798 332.537 458.305 336.809 451.987C341.075 445.68 346.605 441.894 353.143 442.002L353.242 436.003C343.978 435.85 336.784 441.315 331.839 448.626C326.901 455.928 323.926 465.422 323.015 474.414L328.985 475.019ZM353.143 442.002C365.69 442.209 371.803 450.24 372.823 458.266L378.775 457.51C377.414 446.801 369.043 436.264 353.242 436.003L353.143 442.002ZM372.823 458.266C373.596 464.35 371.94 471.325 365.921 477.212L370.116 481.501C377.582 474.2 379.766 465.311 378.775 457.51L372.823 458.266Z" fill="#4B90F3"/>
<rect x="256" y="468" width="90" height="90" rx="45" stroke="#4B90F3" stroke-width="6"/>
<path d="M288.745 496.496H300.601C302.745 496.496 304.681 496.848 306.409 497.552C308.169 498.256 309.657 499.312 310.873 500.72C312.121 502.096 313.081 503.84 313.753 505.952C314.425 508.032 314.761 510.464 314.761 513.248C314.761 516.032 314.425 518.48 313.753 520.592C313.081 522.672 312.121 524.416 310.873 525.824C309.657 527.2 308.169 528.24 306.409 528.944C304.681 529.648 302.745 530 300.601 530H288.745V496.496ZM300.601 525.2C303.097 525.2 305.113 524.416 306.649 522.848C308.185 521.28 308.953 518.976 308.953 515.936V510.56C308.953 507.52 308.185 505.216 306.649 503.648C305.113 502.08 303.097 501.296 300.601 501.296H294.169V525.2H300.601Z" fill="#4B90F3"/>
<path d="M353.192 219.003L353.143 222.002L353.192 219.003ZM375.799 237.888L378.775 237.51L378.775 237.51L375.799 237.888ZM343.656 271L378.192 273.692L363.255 242.437L343.656 271ZM328.985 255.019C329.817 246.798 332.537 238.305 336.809 231.987C341.075 225.68 346.605 221.894 353.143 222.002L353.242 216.003C343.978 215.85 336.784 221.315 331.839 228.626C326.901 235.928 323.926 245.422 323.015 254.414L328.985 255.019ZM353.143 222.002C365.69 222.209 371.803 230.24 372.823 238.266L378.775 237.51C377.414 226.801 369.043 216.264 353.242 216.003L353.143 222.002ZM372.823 238.266C373.596 244.35 371.94 251.325 365.921 257.212L370.116 261.501C377.582 254.2 379.766 245.311 378.775 237.51L372.823 238.266Z" fill="#4B90F3"/>
<rect x="256" y="248" width="90" height="90" rx="45" stroke="#4B90F3" stroke-width="6"/>
<path d="M302.493 310.576C298.109 310.576 294.669 309.104 292.173 306.16C289.677 303.184 288.429 298.88 288.429 293.248C288.429 290.432 288.749 287.952 289.389 285.808C290.029 283.664 290.957 281.856 292.173 280.384C293.389 278.912 294.861 277.808 296.589 277.072C298.349 276.304 300.317 275.92 302.493 275.92C305.405 275.92 307.837 276.56 309.789 277.84C311.773 279.12 313.325 281.008 314.445 283.504L309.885 286C309.309 284.4 308.413 283.136 307.197 282.208C306.013 281.248 304.445 280.768 302.493 280.768C299.901 280.768 297.869 281.648 296.397 283.408C294.925 285.168 294.189 287.6 294.189 290.704V295.792C294.189 298.896 294.925 301.328 296.397 303.088C297.869 304.848 299.901 305.728 302.493 305.728C304.509 305.728 306.141 305.216 307.389 304.192C308.669 303.136 309.613 301.792 310.221 300.16L314.589 302.8C313.469 305.232 311.901 307.136 309.885 308.512C307.869 309.888 305.405 310.576 302.493 310.576Z" fill="#4B90F3"/>
<path d="M4.04795 245.419L7.04343 245.255L4.04795 245.419ZM21.4171 221.489L20.8299 218.547L20.8299 218.547L21.4171 221.489ZM57 251.2L57.1556 216.559L27.0781 233.745L57 251.2ZM41.9793 267.001C33.6497 266.761 24.911 264.655 18.2507 260.842C11.598 257.032 7.40185 251.782 7.04343 245.255L1.05246 245.584C1.56141 254.853 7.57349 261.642 15.2693 266.048C22.9574 270.451 32.7076 272.737 41.8066 272.999L41.9793 267.001ZM7.04343 245.255C6.6923 238.86 8.50018 234.098 11.258 230.745C14.0453 227.357 17.9424 225.242 22.0043 224.431L20.8299 218.547C15.5596 219.599 10.3832 222.364 6.6244 226.934C2.83621 231.539 0.625582 237.81 1.05246 245.584L7.04343 245.255ZM22.0043 224.431C28.0931 223.216 35.254 224.38 41.6188 230.005L45.5923 225.51C37.7106 218.543 28.6054 216.995 20.8299 218.547L22.0043 224.431Z" fill="#4B90F3"/>
<rect x="36" y="248" width="90" height="90" rx="45" stroke="#4B90F3" stroke-width="6"/>
<path d="M69.3077 276.496H84.1397C86.9237 276.496 89.0997 277.28 90.6677 278.848C92.2677 280.416 93.0677 282.512 93.0677 285.136C93.0677 286.384 92.8917 287.456 92.5397 288.352C92.1877 289.216 91.7397 289.936 91.1957 290.512C90.6517 291.056 90.0277 291.472 89.3237 291.76C88.6197 292.016 87.9317 292.176 87.2597 292.24V292.528C87.9317 292.56 88.6677 292.72 89.4677 293.008C90.2997 293.296 91.0677 293.76 91.7717 294.4C92.4757 295.008 93.0677 295.808 93.5477 296.8C94.0277 297.76 94.2677 298.944 94.2677 300.352C94.2677 301.696 94.0437 302.96 93.5957 304.144C93.1797 305.328 92.5877 306.352 91.8197 307.216C91.0517 308.08 90.1397 308.768 89.0837 309.28C88.0277 309.76 86.8757 310 85.6277 310H69.3077V276.496ZM74.7317 305.344H84.0437C85.4517 305.344 86.5557 304.976 87.3557 304.24C88.1557 303.504 88.5557 302.448 88.5557 301.072V299.44C88.5557 298.064 88.1557 297.008 87.3557 296.272C86.5557 295.536 85.4517 295.168 84.0437 295.168H74.7317V305.344ZM74.7317 290.656H83.1317C84.4757 290.656 85.5157 290.32 86.2517 289.648C86.9877 288.944 87.3557 287.952 87.3557 286.672V285.136C87.3557 283.856 86.9877 282.88 86.2517 282.208C85.5157 281.504 84.4757 281.152 83.1317 281.152H74.7317V290.656Z" fill="#4B90F3"/>
<path d="M171.152 12.0738L173.352 14.1127L171.152 12.0738ZM200.428 7.9243L198.722 10.3915L200.428 7.9243ZM203.806 54.1571L228.816 30.1883L195.554 20.5135L203.806 54.1571ZM182.006 54.3438C176.388 48.1893 171.827 40.4433 169.938 33.0044C168.052 25.5739 168.909 18.9079 173.352 14.1127L168.951 10.0348C162.642 16.8438 161.941 25.8853 164.123 34.4807C166.303 43.0676 171.437 51.6659 177.574 58.3889L182.006 54.3438ZM173.352 14.1127C177.705 9.41511 182.385 7.404 186.712 7.05601C191.086 6.70431 195.315 8.0352 198.722 10.3915L202.135 5.45706C197.715 2.39973 192.129 0.601029 186.231 1.07532C180.288 1.55332 174.243 4.32377 168.951 10.0348L173.352 14.1127ZM198.722 10.3915C203.828 13.9237 207.969 19.8807 208.35 28.3667L214.344 28.0979C213.873 17.5893 208.656 9.96773 202.135 5.45706L198.722 10.3915Z" fill="#4B90F3"/>
<rect x="146" y="56" width="90" height="90" rx="45" stroke="#4B90F3" stroke-width="6"/>
<path d="M200.165 115L197.141 105.928H184.613L181.685 115H176.165L187.589 81.496H194.405L205.829 115H200.165ZM190.997 86.488H190.757L185.909 101.272H195.797L190.997 86.488Z" fill="#4B90F3"/>
</svg>
