<svg width="1199" height="425" viewBox="0 0 1199 425" fill="none" xmlns="http://www.w3.org/2000/svg">
<path d="M1011 359.87L993.68 359.817L1002.29 374.843L1011 359.87ZM294.331 360.343C295.21 360.78 296.094 361.215 296.983 361.648L298.295 358.95C297.414 358.522 296.539 358.091 295.669 357.657L294.331 360.343ZM302.381 364.213C304.202 365.058 306.043 365.894 307.904 366.719L309.12 363.977C307.274 363.158 305.449 362.33 303.645 361.492L302.381 364.213ZM313.476 369.135C315.292 369.905 317.126 370.666 318.977 371.418L320.106 368.638C318.268 367.892 316.449 367.137 314.647 366.373L313.476 369.135ZM324.584 373.647C326.471 374.381 328.374 375.106 330.295 375.822L331.343 373.012C329.436 372.3 327.545 371.58 325.672 370.851L324.584 373.647ZM335.885 377.866C337.757 378.536 339.643 379.199 341.545 379.853L342.521 377.016C340.631 376.366 338.756 375.708 336.896 375.041L335.885 377.866ZM347.294 381.792C349.196 382.421 351.112 383.042 353.041 383.655L353.95 380.796C352.031 380.186 350.127 379.569 348.236 378.944L347.294 381.792ZM358.735 385.43C360.646 386.015 362.57 386.592 364.506 387.161L365.353 384.283C363.427 383.717 361.513 383.143 359.613 382.561L358.735 385.43ZM370.35 388.849C372.261 389.39 374.183 389.924 376.116 390.451L376.905 387.557C374.981 387.032 373.069 386.501 371.168 385.962L370.35 388.849ZM381.897 391.998C383.834 392.507 385.783 393.01 387.742 393.505L388.477 390.597C386.527 390.104 384.588 389.604 382.659 389.097L381.897 391.998ZM393.649 394.972C395.57 395.44 397.501 395.902 399.441 396.358L400.127 393.437C398.195 392.983 396.272 392.524 394.359 392.058L393.649 394.972ZM405.282 397.704C407.238 398.146 409.204 398.583 411.178 399.013L411.816 396.082C409.85 395.653 407.893 395.219 405.944 394.778L405.282 397.704ZM417.115 400.282C419.052 400.689 420.998 401.089 422.951 401.484L423.546 398.544C421.599 398.15 419.661 397.751 417.731 397.346L417.115 400.282ZM428.835 402.651C430.803 403.035 432.78 403.412 434.763 403.784L435.316 400.835C433.339 400.465 431.37 400.089 429.408 399.707L428.835 402.651ZM440.728 404.88C442.679 405.231 444.637 405.578 446.601 405.918L447.114 402.962C445.156 402.623 443.205 402.278 441.26 401.927L440.728 404.88ZM452.514 406.924C454.492 407.254 456.475 407.578 458.465 407.897L458.94 404.935C456.956 404.617 454.979 404.294 453.008 403.965L452.514 406.924ZM464.452 408.838C466.415 409.14 468.384 409.437 470.359 409.728L470.797 406.761C468.829 406.47 466.866 406.174 464.908 405.872L464.452 408.838ZM476.292 410.588C478.276 410.869 480.264 411.145 482.257 411.416L482.661 408.443C480.674 408.173 478.691 407.898 476.714 407.617L476.292 410.588ZM488.252 412.213C490.23 412.47 492.212 412.723 494.198 412.97L494.569 409.993C492.588 409.746 490.611 409.495 488.639 409.238L488.252 412.213ZM500.148 413.694C502.135 413.931 504.127 414.162 506.122 414.389L506.461 411.408C504.471 411.182 502.484 410.951 500.502 410.715L500.148 413.694ZM512.121 415.054C514.111 415.27 516.105 415.481 518.102 415.686L518.409 412.702C516.417 412.497 514.429 412.287 512.444 412.072L512.121 415.054ZM524.063 416.286C526.054 416.481 528.048 416.671 530.045 416.857L530.323 413.87C528.331 413.684 526.342 413.494 524.356 413.3L524.063 416.286ZM536.046 417.399C538.045 417.575 540.047 417.747 542.052 417.913L542.301 414.924C540.3 414.757 538.303 414.586 536.309 414.411L536.046 417.399ZM548.025 418.395C550.018 418.551 552.014 418.703 554.013 418.85L554.233 415.858C552.239 415.711 550.248 415.56 548.259 415.404L548.025 418.395ZM560.014 419.277C562.017 419.415 564.022 419.549 566.029 419.678L566.221 416.684C564.219 416.555 562.219 416.422 560.221 416.284L560.014 419.277ZM572.02 420.049C574.016 420.168 576.014 420.283 578.014 420.393L578.179 417.398C576.184 417.288 574.19 417.173 572.199 417.054L572.02 420.049ZM584.017 420.711C586.019 420.813 588.023 420.91 590.028 421.003L590.167 418.006C588.166 417.913 586.167 417.816 584.169 417.715L584.017 420.711ZM596.036 421.268C598.036 421.351 600.036 421.431 602.037 421.506L602.15 418.508C600.153 418.433 598.157 418.354 596.162 418.27L596.036 421.268ZM608.043 421.718C610.046 421.785 612.049 421.847 614.053 421.905L614.139 418.906C612.14 418.849 610.141 418.787 608.143 418.72L608.043 421.718ZM620.065 422.066C622.068 422.116 624.071 422.161 626.074 422.202L626.135 419.202C624.136 419.162 622.137 419.117 620.139 419.067L620.065 422.066ZM632.084 422.312C634.087 422.344 636.09 422.373 638.093 422.397L638.129 419.397C636.131 419.373 634.132 419.345 632.133 419.312L632.084 422.312ZM644.101 422.456C646.106 422.472 648.111 422.483 650.115 422.49L650.125 419.491C648.126 419.483 646.125 419.472 644.124 419.456L644.101 422.456ZM656.13 422.5C658.135 422.499 660.138 422.493 662.141 422.484L662.127 419.484C660.128 419.493 658.129 419.499 656.129 419.5L656.13 422.5ZM668.145 422.443C670.148 422.426 672.15 422.404 674.15 422.378L674.111 419.378C672.115 419.404 670.117 419.426 668.119 419.443L668.145 422.443ZM680.173 422.287C682.18 422.252 684.184 422.213 686.187 422.171L686.123 419.171C684.124 419.214 682.124 419.253 680.122 419.287L680.173 422.287ZM692.19 422.03C694.189 421.979 696.187 421.923 698.182 421.864L698.093 418.865C696.102 418.925 694.109 418.98 692.114 419.031L692.19 422.03ZM704.205 421.672C706.214 421.604 708.22 421.532 710.224 421.455L710.109 418.457C708.11 418.534 706.108 418.606 704.103 418.674L704.205 421.672ZM716.227 421.213C718.225 421.128 720.221 421.039 722.213 420.946L722.073 417.95C720.085 418.043 718.094 418.131 716.1 418.216L716.227 421.213ZM728.219 420.653C730.23 420.55 732.238 420.444 734.243 420.333L734.077 417.337C732.077 417.448 730.073 417.555 728.066 417.657L728.219 420.653ZM740.246 419.987C742.244 419.868 744.238 419.744 746.228 419.617L746.036 416.623C744.05 416.75 742.061 416.873 740.067 416.992L740.246 419.987ZM752.207 419.22C754.221 419.082 756.231 418.939 758.237 418.792L758.018 415.8C756.017 415.947 754.011 416.089 752.002 416.227L752.207 419.22ZM764.24 418.34C766.237 418.184 768.23 418.025 770.217 417.861L769.971 414.871C767.988 415.035 766 415.194 764.008 415.349L764.24 418.34ZM776.165 417.358C778.182 417.182 780.193 417.003 782.198 416.819L781.924 413.831C779.923 414.015 777.917 414.194 775.905 414.369L776.165 417.358ZM788.201 416.253C790.196 416.06 792.186 415.863 794.17 415.662L793.867 412.677C791.888 412.878 789.903 413.075 787.912 413.267L788.201 416.253ZM800.104 415.044C802.116 414.83 804.121 414.611 806.12 414.388L805.787 411.407C803.793 411.629 801.793 411.848 799.786 412.061L800.104 415.044ZM812.118 413.703C814.11 413.47 816.096 413.233 818.075 412.991L817.711 410.013C815.737 410.254 813.757 410.491 811.769 410.723L812.118 413.703ZM823.99 412.252C825.998 411.996 827.999 411.735 829.993 411.47L829.597 408.496C827.609 408.761 825.613 409.021 823.61 409.277L823.99 412.252ZM835.979 410.655C837.967 410.379 839.946 410.099 841.917 409.813L841.487 406.844C839.522 407.129 837.548 407.409 835.566 407.684L835.979 410.655ZM847.804 408.944C849.813 408.641 851.813 408.333 853.803 408.021L853.338 405.057C851.354 405.368 849.36 405.675 847.357 405.977L847.804 408.944ZM859.769 407.065C861.748 406.742 863.717 406.413 865.676 406.08L865.173 403.123C863.22 403.455 861.258 403.782 859.285 404.104L859.769 407.065ZM871.536 405.064C873.547 404.709 875.546 404.349 877.534 403.983L876.991 401.033C875.01 401.397 873.018 401.756 871.014 402.11L871.536 405.064ZM883.462 402.871C885.426 402.495 887.379 402.114 889.32 401.728L888.734 398.786C886.801 399.17 884.856 399.55 882.898 399.924L883.462 402.871ZM895.201 400.535C897.198 400.122 899.181 399.704 901.151 399.28L900.52 396.347C898.558 396.769 896.583 397.186 894.594 397.598L895.201 400.535ZM907.018 397.992C908.959 397.557 910.886 397.117 912.799 396.671L912.119 393.749C910.214 394.193 908.295 394.631 906.362 395.064L907.018 397.992ZM918.731 395.261C920.703 394.782 922.66 394.297 924.599 393.807L923.864 390.898C921.934 391.387 919.987 391.869 918.023 392.345L918.731 395.261ZM930.367 392.318C932.326 391.802 934.266 391.279 936.188 390.751L935.393 387.858C933.481 388.384 931.551 388.903 929.603 389.417L930.367 392.318ZM942.044 389.105C943.976 388.55 945.888 387.989 947.779 387.421L946.917 384.547C945.037 385.112 943.136 385.67 941.216 386.222L942.044 389.105ZM953.502 385.664C955.465 385.047 957.404 384.424 959.319 383.793L958.38 380.944C956.479 381.57 954.553 382.189 952.603 382.802L953.502 385.664ZM964.99 381.88C966.897 381.221 968.778 380.555 970.633 379.881L969.609 377.061C967.769 377.729 965.903 378.391 964.01 379.045L964.99 381.88ZM976.366 377.743C978.247 377.022 980.099 376.293 981.92 375.556L980.796 372.775C978.992 373.505 977.157 374.227 975.292 374.941L976.366 377.743ZM987.501 373.233C989.395 372.422 991.252 371.601 993.073 370.771L991.829 368.041C990.029 368.861 988.193 369.673 986.319 370.476L987.501 373.233ZM998.424 368.254C1000.31 367.34 1002.14 366.415 1003.94 365.48L1002.55 362.82C1000.78 363.741 998.97 364.653 997.113 365.555L998.424 368.254ZM1011 359.87L976.359 359.763L993.587 389.816L1011 359.87ZM293.663 361.685C294.545 362.125 295.433 362.562 296.327 362.997L298.951 357.601C298.075 357.175 297.203 356.746 296.337 356.315L293.663 361.685ZM301.749 365.574C303.578 366.423 305.427 367.262 307.296 368.09L309.728 362.605C307.89 361.79 306.073 360.966 304.276 360.132L301.749 365.574ZM312.891 370.516C314.714 371.289 316.554 372.053 318.413 372.807L320.67 367.248C318.84 366.505 317.027 365.753 315.233 364.992L312.891 370.516ZM324.04 375.044C325.933 375.781 327.844 376.509 329.771 377.228L331.868 371.606C329.966 370.897 328.082 370.179 326.216 369.453L324.04 375.044ZM335.379 379.278C337.257 379.95 339.15 380.615 341.057 381.271L343.009 375.598C341.125 374.949 339.256 374.293 337.402 373.629L335.379 379.278ZM346.824 383.216C348.731 383.847 350.652 384.47 352.587 385.084L354.404 379.366C352.491 378.758 350.592 378.143 348.707 377.519L346.824 383.216ZM358.297 386.865C360.213 387.451 362.141 388.029 364.082 388.6L365.776 382.844C363.855 382.279 361.947 381.707 360.051 381.127L358.297 386.865ZM369.942 390.292C371.857 390.834 373.783 391.37 375.721 391.898L377.3 386.11C375.381 385.586 373.473 385.056 371.577 384.519L369.942 390.292ZM381.515 393.449C383.458 393.959 385.41 394.463 387.374 394.96L388.845 389.143C386.9 388.651 384.964 388.152 383.04 387.646L381.515 393.449ZM393.294 396.43C395.219 396.899 397.154 397.361 399.098 397.818L400.469 391.977C398.542 391.524 396.623 391.065 394.714 390.6L393.294 396.43ZM404.951 399.167C406.911 399.61 408.88 400.047 410.858 400.478L412.136 394.616C410.173 394.188 408.22 393.755 406.275 393.315L404.951 399.167ZM416.807 401.75C418.748 402.158 420.697 402.559 422.654 402.955L423.843 397.074C421.9 396.681 419.965 396.282 418.039 395.878L416.807 401.75ZM428.548 404.124C430.52 404.508 432.5 404.886 434.487 405.258L435.592 399.361C433.619 398.991 431.653 398.615 429.694 398.234L428.548 404.124ZM440.462 406.356C442.416 406.708 444.377 407.055 446.345 407.396L447.37 401.485C445.416 401.145 443.467 400.801 441.526 400.451L440.462 406.356ZM452.267 408.404C454.248 408.734 456.235 409.059 458.227 409.378L459.177 403.454C457.197 403.136 455.222 402.814 453.255 402.485L452.267 408.404ZM464.224 410.32C466.19 410.623 468.162 410.92 470.139 411.212L471.017 405.277C469.051 404.986 467.091 404.691 465.136 404.39L464.224 410.32ZM476.082 412.073C478.068 412.354 480.059 412.631 482.055 412.902L482.863 406.957C480.878 406.687 478.899 406.412 476.924 406.132L476.082 412.073ZM488.059 413.7C490.039 413.958 492.024 414.211 494.013 414.458L494.754 408.504C492.776 408.258 490.802 408.007 488.833 407.751L488.059 413.7ZM499.971 415.184C501.961 415.42 503.955 415.652 505.953 415.879L506.63 409.918C504.643 409.692 502.659 409.461 500.68 409.226L499.971 415.184ZM511.96 416.546C513.952 416.761 515.948 416.972 517.948 417.178L518.563 411.21C516.574 411.005 514.588 410.795 512.606 410.581L511.96 416.546ZM523.917 417.778C525.91 417.974 527.907 418.164 529.906 418.35L530.462 412.376C528.472 412.191 526.485 412.001 524.502 411.807L523.917 417.778ZM535.914 418.894C537.916 419.07 539.921 419.241 541.928 419.408L542.425 413.429C540.427 413.263 538.432 413.092 536.44 412.917L535.914 418.894ZM547.908 419.891C549.904 420.047 551.902 420.199 553.903 420.346L554.343 414.362C552.352 414.216 550.363 414.064 548.376 413.909L547.908 419.891ZM559.911 420.774C561.916 420.912 563.924 421.046 565.933 421.175L566.317 415.187C564.318 415.059 562.32 414.926 560.324 414.788L559.911 420.774ZM571.93 421.546C573.929 421.666 575.929 421.781 577.931 421.891L578.262 415.9C576.269 415.79 574.277 415.676 572.288 415.557L571.93 421.546ZM583.941 422.209C585.946 422.311 587.952 422.408 589.959 422.501L590.236 416.508C588.238 416.415 586.241 416.318 584.245 416.217L583.941 422.209ZM595.974 422.766C597.975 422.85 599.978 422.93 601.981 423.005L602.206 417.009C600.212 416.934 598.218 416.855 596.225 416.772L595.974 422.766ZM607.993 423.218C609.998 423.284 612.004 423.347 614.009 423.405L614.183 417.407C612.186 417.349 610.189 417.287 608.193 417.221L607.993 423.218ZM620.028 423.566C622.033 423.615 624.038 423.661 626.044 423.702L626.166 417.703C624.169 417.662 622.172 417.617 620.176 417.568L620.028 423.566ZM632.06 423.812C634.065 423.844 636.07 423.872 638.075 423.896L638.147 417.897C636.151 417.873 634.154 417.845 632.157 417.812L632.06 423.812ZM644.089 423.956C646.096 423.972 648.103 423.983 650.109 423.99L650.131 417.991C648.133 417.983 646.135 417.972 644.136 417.956L644.089 423.956ZM656.131 424C658.138 423.999 660.143 423.993 662.148 423.984L662.12 417.984C660.123 417.993 658.126 417.999 656.128 418L656.131 424ZM668.159 423.943C670.164 423.925 672.167 423.904 674.17 423.877L674.091 417.878C672.097 417.904 670.102 417.926 668.106 417.943L668.159 423.943ZM680.199 423.786C682.207 423.752 684.214 423.713 686.219 423.67L686.091 417.672C684.094 417.714 682.096 417.753 680.096 417.787L680.199 423.786ZM692.229 423.529C694.23 423.478 696.229 423.423 698.226 423.363L698.048 417.366C696.059 417.425 694.068 417.48 692.075 417.531L692.229 423.529ZM704.256 423.171C706.267 423.103 708.275 423.031 710.281 422.954L710.052 416.959C708.055 417.035 706.055 417.107 704.053 417.175L704.256 423.171ZM716.29 422.712C718.291 422.627 720.288 422.538 722.283 422.445L722.003 416.451C720.017 416.544 718.028 416.633 716.036 416.717L716.29 422.712ZM728.295 422.151C730.309 422.048 732.319 421.941 734.326 421.83L733.994 415.84C731.996 415.95 729.994 416.057 727.99 416.159L728.295 422.151ZM740.336 421.484C742.336 421.365 744.332 421.241 746.324 421.113L745.94 415.126C743.956 415.253 741.969 415.376 739.978 415.495L740.336 421.484ZM752.31 420.716C754.326 420.578 756.338 420.435 758.346 420.288L757.909 414.304C755.91 414.451 753.906 414.593 751.899 414.73L752.31 420.716ZM764.357 419.835C766.356 419.68 768.35 419.52 770.34 419.356L769.848 413.377C767.867 413.54 765.882 413.698 763.892 413.853L764.357 419.835ZM776.295 418.852C778.314 418.677 780.327 418.497 782.336 418.312L781.787 412.337C779.789 412.521 777.784 412.7 775.775 412.875L776.295 418.852ZM788.345 417.746C790.343 417.553 792.335 417.356 794.321 417.154L793.715 411.185C791.739 411.385 789.756 411.582 787.768 411.774L788.345 417.746ZM800.263 416.536C802.277 416.321 804.285 416.102 806.287 415.879L805.621 409.916C803.629 410.138 801.632 410.356 799.627 410.57L800.263 416.536ZM812.292 415.193C814.287 414.96 816.275 414.722 818.257 414.48L817.529 408.524C815.558 408.765 813.58 409.001 811.595 409.233L812.292 415.193ZM824.179 413.74C826.191 413.484 828.195 413.223 830.191 412.957L829.399 407.009C827.413 407.274 825.421 407.533 823.42 407.789L824.179 413.74ZM836.186 412.141C838.176 411.865 840.158 411.584 842.132 411.298L841.272 405.36C839.31 405.644 837.339 405.923 835.36 406.198L836.186 412.141ZM848.027 410.427C850.04 410.124 852.043 409.815 854.036 409.502L853.106 403.575C851.124 403.886 849.133 404.192 847.133 404.494L848.027 410.427ZM860.011 408.545C861.993 408.221 863.965 407.893 865.927 407.559L864.921 401.644C862.972 401.975 861.013 402.302 859.043 402.624L860.011 408.545ZM871.798 406.541C873.811 406.186 875.814 405.825 877.805 405.458L876.72 399.557C874.742 399.921 872.753 400.28 870.753 400.633L871.798 406.541ZM883.744 404.344C885.712 403.968 887.668 403.586 889.612 403.2L888.442 397.315C886.512 397.699 884.57 398.077 882.616 398.451L883.744 404.344ZM895.505 402.004C897.506 401.59 899.493 401.171 901.466 400.746L900.204 394.881C898.246 395.302 896.275 395.718 894.29 396.129L895.505 402.004ZM907.345 399.456C909.291 399.02 911.222 398.579 913.14 398.132L911.778 392.289C909.878 392.731 907.963 393.169 906.034 393.601L907.345 399.456ZM919.084 396.718C921.062 396.239 923.023 395.753 924.967 395.261L923.496 389.444C921.571 389.931 919.628 390.412 917.669 390.888L919.084 396.718ZM930.749 393.768C932.713 393.251 934.659 392.727 936.586 392.197L934.995 386.412C933.089 386.936 931.164 387.454 929.22 387.966L930.749 393.768ZM942.458 390.547C944.396 389.99 946.313 389.427 948.211 388.857L946.486 383.111C944.612 383.673 942.717 384.23 940.801 384.78L942.458 390.547ZM953.951 387.095C955.92 386.477 957.866 385.851 959.788 385.218L957.911 379.519C956.016 380.143 954.097 380.76 952.154 381.371L953.951 387.095ZM965.48 383.298C967.394 382.636 969.283 381.967 971.145 381.291L969.097 375.651C967.265 376.317 965.406 376.975 963.521 377.627L965.48 383.298ZM976.902 379.143C978.792 378.419 980.653 377.687 982.483 376.947L980.233 371.385C978.438 372.111 976.612 372.829 974.756 373.54L976.902 379.143ZM988.092 374.612C989.995 373.796 991.864 372.971 993.695 372.136L991.207 366.676C989.418 367.492 987.592 368.298 985.728 369.097L988.092 374.612ZM999.079 369.603C1000.97 368.683 1002.82 367.752 1004.63 366.81L1001.85 361.49C1000.1 362.405 998.302 363.31 996.457 364.206L999.079 369.603Z" fill="#14BF06"/>
<path d="M1003.5 289.5L995.526 274.124L986.197 288.718L1003.5 289.5ZM996.545 283.415C994.799 282.377 993.038 281.361 991.265 280.367L989.798 282.984C991.549 283.965 993.288 284.969 995.012 285.994L996.545 283.415ZM985.909 277.452C984.112 276.504 982.303 275.577 980.483 274.672L979.148 277.359C980.946 278.252 982.733 279.168 984.508 280.105L985.909 277.452ZM974.991 272.026C973.15 271.167 971.298 270.329 969.437 269.514L968.233 272.262C970.073 273.068 971.903 273.895 973.722 274.745L974.991 272.026ZM963.825 267.135C961.945 266.365 960.056 265.616 958.158 264.89L957.086 267.692C958.961 268.409 960.829 269.149 962.687 269.911L963.825 267.135ZM952.441 262.778C950.527 262.096 948.606 261.436 946.678 260.799L945.736 263.647C947.642 264.277 949.542 264.929 951.434 265.604L952.441 262.778ZM940.869 258.952C938.925 258.359 936.975 257.788 935.021 257.24L934.211 260.128C936.143 260.67 938.071 261.235 939.993 261.822L940.869 258.952ZM929.136 255.661C927.166 255.156 925.192 254.674 923.214 254.215L922.536 257.137C924.491 257.591 926.443 258.068 928.391 258.567L929.136 255.661ZM917.264 252.904C915.274 252.489 913.28 252.097 911.285 251.728L910.74 254.678C912.713 255.043 914.684 255.43 916.652 255.841L917.264 252.904ZM905.279 250.687C903.271 250.363 901.263 250.062 899.254 249.784L898.843 252.756C900.829 253.03 902.815 253.328 904.8 253.649L905.279 250.687ZM893.208 249.018C891.186 248.786 889.164 248.577 887.143 248.391L886.869 251.379C888.867 251.562 890.866 251.769 892.866 251.998L893.208 249.018ZM881.07 247.906C879.039 247.767 877.011 247.653 874.985 247.563L874.852 250.56C876.854 250.649 878.859 250.762 880.866 250.899L881.07 247.906ZM868.889 247.364C866.853 247.322 864.822 247.305 862.795 247.312L862.806 250.312C864.808 250.305 866.816 250.322 868.827 250.363L868.889 247.364ZM856.702 247.409C854.663 247.467 852.63 247.55 850.604 247.659L850.764 250.654C852.765 250.547 854.773 250.465 856.787 250.408L856.702 247.409ZM844.521 248.062C842.49 248.223 840.468 248.41 838.454 248.623L838.77 251.606C840.757 251.396 842.753 251.212 844.758 251.053L844.521 248.062ZM832.389 249.347C830.366 249.616 828.354 249.912 826.352 250.235L826.83 253.197C828.804 252.878 830.789 252.586 832.785 252.321L832.389 249.347ZM820.349 251.291C818.342 251.673 816.347 252.084 814.367 252.522L815.015 255.451C816.966 255.019 818.932 254.615 820.91 254.238L820.349 251.291ZM808.422 253.93C806.442 254.431 804.478 254.961 802.529 255.519L803.356 258.403C805.274 257.854 807.208 257.332 809.158 256.839L808.422 253.93ZM796.692 257.294C794.743 257.921 792.812 258.579 790.901 259.266L791.915 262.089C793.795 261.413 795.694 260.767 797.611 260.15L796.692 257.294ZM785.184 261.432C783.285 262.19 781.407 262.978 779.55 263.798L780.762 266.542C782.585 265.738 784.43 264.963 786.296 264.218L785.184 261.432ZM774.008 266.37C772.166 267.267 770.347 268.196 768.555 269.158L769.972 271.802C771.73 270.859 773.514 269.947 775.321 269.067L774.008 266.37ZM763.219 272.159C761.456 273.198 759.72 274.271 758.013 275.376L759.644 277.894C761.315 276.812 763.015 275.761 764.743 274.743L763.219 272.159ZM752.95 278.813C751.28 280.001 749.642 281.222 748.035 282.477L749.882 284.841C751.453 283.614 753.055 282.42 754.688 281.258L752.95 278.813ZM743.294 286.363C742.519 287.029 741.753 287.703 740.996 288.386L743.004 290.614C743.744 289.947 744.492 289.288 745.249 288.638L743.294 286.363ZM1003.5 289.5L987.551 258.749L968.894 287.936L1003.5 289.5ZM997.312 282.126C995.554 281.081 993.783 280.059 991.999 279.058L989.065 284.292C990.805 285.268 992.532 286.265 994.246 287.284L997.312 282.126ZM986.61 276.126C984.802 275.171 982.982 274.239 981.15 273.329L978.48 278.702C980.268 279.59 982.044 280.5 983.808 281.432L986.61 276.126ZM975.626 270.667C973.774 269.802 971.911 268.96 970.039 268.14L967.632 273.636C969.46 274.437 971.279 275.26 973.087 276.104L975.626 270.667ZM964.394 265.747C962.503 264.972 960.603 264.219 958.695 263.489L956.55 269.093C958.414 269.806 960.271 270.542 962.118 271.299L964.394 265.747ZM952.945 261.365C951.02 260.679 949.087 260.015 947.148 259.374L945.265 265.071C947.161 265.698 949.05 266.346 950.931 267.017L952.945 261.365ZM941.307 257.518C939.352 256.921 937.392 256.347 935.426 255.796L933.805 261.572C935.727 262.112 937.644 262.673 939.555 263.256L941.307 257.518ZM929.508 254.208C927.527 253.7 925.542 253.215 923.553 252.754L922.196 258.598C924.141 259.05 926.082 259.524 928.019 260.02L929.508 254.208ZM917.57 251.435C915.569 251.018 913.564 250.624 911.558 250.253L910.467 256.153C912.429 256.516 914.388 256.901 916.346 257.309L917.57 251.435ZM905.518 249.206C903.499 248.88 901.479 248.577 899.459 248.298L898.638 254.241C900.612 254.515 902.587 254.811 904.561 255.13L905.518 249.206ZM893.38 247.528C891.346 247.294 889.312 247.084 887.28 246.898L886.732 252.873C888.718 253.055 890.706 253.26 892.694 253.489L893.38 247.528ZM881.172 246.409C879.13 246.27 877.089 246.155 875.052 246.064L874.785 252.058C876.775 252.147 878.768 252.259 880.764 252.396L881.172 246.409ZM868.92 245.864C866.872 245.822 864.829 245.805 862.79 245.812L862.812 251.812C864.802 251.805 866.797 251.822 868.796 251.863L868.92 245.864ZM856.66 245.91C854.608 245.968 852.563 246.052 850.524 246.161L850.845 252.152C852.833 252.046 854.828 251.964 856.829 251.908L856.66 245.91ZM844.402 246.567C842.358 246.729 840.323 246.917 838.296 247.131L838.927 253.098C840.901 252.889 842.885 252.706 844.876 252.548L844.402 246.567ZM832.191 247.86C830.155 248.131 828.128 248.429 826.113 248.754L827.069 254.678C829.029 254.361 831.001 254.071 832.983 253.808L832.191 247.86ZM820.068 249.817C818.047 250.203 816.038 250.616 814.043 251.057L815.338 256.915C817.276 256.487 819.227 256.086 821.191 255.711L820.068 249.817ZM808.054 252.476C806.059 252.981 804.08 253.515 802.116 254.078L803.769 259.845C805.672 259.3 807.591 258.782 809.526 258.293L808.054 252.476ZM796.233 255.866C794.268 256.499 792.321 257.161 790.393 257.854L792.422 263.5C794.286 262.831 796.169 262.19 798.071 261.578L796.233 255.866ZM784.628 260.039C782.712 260.803 780.817 261.599 778.945 262.426L781.368 267.915C783.174 267.117 785.002 266.35 786.852 265.611L784.628 260.039ZM773.351 265.021C771.491 265.927 769.656 266.865 767.846 267.836L770.681 273.124C772.422 272.19 774.188 271.287 775.978 270.415L773.351 265.021ZM762.457 270.867C760.677 271.917 758.923 273 757.198 274.117L760.459 279.153C762.113 278.082 763.795 277.043 765.505 276.035L762.457 270.867ZM752.08 277.591C750.393 278.791 748.736 280.026 747.112 281.295L750.806 286.023C752.359 284.81 753.943 283.629 755.558 282.48L752.08 277.591ZM742.316 285.225C741.533 285.899 740.757 286.581 739.991 287.272L744.009 291.728C744.74 291.069 745.479 290.418 746.227 289.776L742.316 285.225Z" fill="#14BF06"/>
<path d="M1040 149L1022.68 179H1057.32L1040 149ZM1037 176V276H1043V176H1037Z" fill="#4B90F3"/>
<path d="M633.999 149L658.946 173.035L625.658 182.622L633.999 149ZM644.05 173.409C650.057 183.521 659.364 192.512 669.891 201.012C680.539 209.61 691.795 217.234 702.259 225.264C712.482 233.108 721.708 241.177 727.077 250.052C732.587 259.157 734.046 269.15 728.705 280.296L723.294 277.704C727.655 268.603 726.539 260.752 721.944 253.158C717.209 245.332 708.801 237.846 698.607 230.024C688.654 222.387 676.711 214.231 666.122 205.681C655.412 197.032 645.446 187.506 638.891 176.474L644.05 173.409Z" fill="#4B90F3"/>
<path d="M565 149L544.897 177.211L579.38 180.515L565 149ZM559.485 175.279C555.355 195.545 546.566 210.892 536.255 226.325C525.988 241.695 514.046 257.352 504.295 277.704L509.706 280.296C519.213 260.455 530.738 245.385 541.244 229.658C551.708 213.996 561.002 197.879 565.364 176.477L559.485 175.279Z" fill="#4B90F3"/>
<path d="M227 149L223.621 183.476L255.168 169.164L227 149ZM236.076 175.746C244.93 184.23 258.189 190.789 274.354 196.035C290.567 201.297 309.972 205.322 331.36 208.579C374.117 215.09 425.22 218.588 475.236 222.625C525.352 226.67 574.371 231.255 613.291 239.912C632.749 244.24 649.533 249.554 662.606 256.245C675.7 262.947 684.783 270.88 689.295 280.296L694.705 277.704C689.4 266.632 679.031 257.912 665.34 250.904C651.626 243.886 634.29 238.436 614.594 234.055C575.206 225.294 525.781 220.685 475.719 216.644C425.558 212.596 374.75 209.117 332.263 202.647C311.03 199.414 291.981 195.448 276.207 190.328C260.385 185.193 248.125 178.981 240.227 171.414L236.076 175.746Z" fill="#4B90F3"/>
<path d="M182 149L170.189 181.565L204.297 175.511L182 149ZM183.996 176.851C193.433 197.344 214.987 210.427 241.42 219.558C267.943 228.72 300.108 234.146 331.726 238.825C363.476 243.524 394.616 247.464 419.559 253.625C432.015 256.703 442.754 260.295 451.147 264.724C459.554 269.16 465.344 274.295 468.308 280.324L473.692 277.676C469.952 270.069 462.943 264.164 453.947 259.417C444.937 254.663 433.666 250.93 420.998 247.801C395.692 241.549 364.118 237.554 332.604 232.89C300.959 228.207 269.309 222.844 243.379 213.887C217.36 204.899 197.823 192.532 189.445 174.341L183.996 176.851Z" fill="#4B90F3"/>
<path d="M137 149L124.244 181.207L158.514 176.151L137 149ZM138.088 176.639C147.284 204.834 170.576 219.345 193.193 232.476C216.174 245.818 238.242 257.68 248.259 280.218L253.741 277.782C242.769 253.094 218.607 240.292 196.206 227.287C173.44 214.07 152.197 200.548 143.793 174.778L138.088 176.639Z" fill="#4B90F3"/>
<path d="M92 149L71.3023 176.778L105.707 180.814L92 149ZM85.9425 175.097C81.1207 194.481 71.481 208.201 62.6319 223.05C53.808 237.856 46 253.5 46 276H52C52 255.11 59.1617 240.593 67.786 226.121C76.3853 211.692 86.6724 197.018 91.7651 176.545L85.9425 175.097Z" fill="#4B90F3"/>
<path d="M925 101L895 83.6795L895 118.321L925 101ZM898 98L711 98L711 104L898 104L898 98Z" fill="#4B90F3"/>
<path d="M485 101L455 83.6795L455 118.321L485 101ZM458 98L271 98L271 104L458 104L458 98Z" fill="#4B90F3"/>
<path d="M1127.62 300.882L1125.63 303.121L1125.63 303.121L1127.62 300.882ZM1132.39 329.806L1134.89 331.46L1134.89 331.46L1132.39 329.806ZM1086.73 333.89L1111.18 358.429L1120.21 324.985L1086.73 333.89ZM1086.07 312.319C1092.02 306.664 1099.57 302.029 1106.88 300.043C1114.18 298.06 1120.78 298.798 1125.63 303.121L1129.62 298.644C1122.74 292.505 1113.77 291.951 1105.31 294.253C1096.85 296.551 1088.45 301.779 1081.93 307.969L1086.07 312.319ZM1125.63 303.121C1134.93 311.421 1134.32 321.441 1129.89 328.152L1134.89 331.46C1140.82 322.498 1141.35 309.11 1129.62 298.644L1125.63 303.121ZM1129.89 328.152C1126.55 333.205 1120.84 337.361 1112.59 337.933L1113 343.918C1123.26 343.207 1130.61 337.945 1134.89 331.46L1129.89 328.152Z" fill="#4B90F3"/>
<rect x="995" y="276" width="90" height="90" rx="45" stroke="#4B90F3" stroke-width="6"/>
<path d="M1029.9 338V304.496H1051.36V309.296H1035.33V318.608H1049.87V323.408H1035.33V333.2H1051.36V338H1029.9Z" fill="#4B90F3"/>
<path d="M796.624 300.882L794.626 303.121L794.626 303.121L796.624 300.882ZM801.391 329.806L803.894 331.46L803.894 331.46L801.391 329.806ZM755.729 333.89L780.179 358.429L789.206 324.985L755.729 333.89ZM755.066 312.319C761.022 306.664 768.573 302.029 775.88 300.043C783.175 298.06 789.783 298.798 794.626 303.121L798.621 298.644C791.741 292.505 782.774 291.951 774.306 294.253C765.851 296.551 757.452 301.779 750.934 307.969L755.066 312.319ZM794.626 303.121C803.928 311.421 803.323 321.441 798.888 328.152L803.894 331.46C809.817 322.498 810.35 309.11 798.621 298.644L794.626 303.121ZM798.888 328.152C795.548 333.205 789.838 337.361 781.589 337.933L782.004 343.918C792.263 343.207 799.608 337.945 803.894 331.46L798.888 328.152Z" fill="#4B90F3"/>
<rect x="664" y="276" width="90" height="90" rx="45" stroke="#4B90F3" stroke-width="6"/>
<path d="M696.745 304.496H708.601C710.745 304.496 712.681 304.848 714.409 305.552C716.169 306.256 717.657 307.312 718.873 308.72C720.121 310.096 721.081 311.84 721.753 313.952C722.425 316.032 722.761 318.464 722.761 321.248C722.761 324.032 722.425 326.48 721.753 328.592C721.081 330.672 720.121 332.416 718.873 333.824C717.657 335.2 716.169 336.24 714.409 336.944C712.681 337.648 710.745 338 708.601 338H696.745V304.496ZM708.601 333.2C711.097 333.2 713.113 332.416 714.649 330.848C716.185 329.28 716.953 326.976 716.953 323.936V318.56C716.953 315.52 716.185 313.216 714.649 311.648C713.113 310.08 711.097 309.296 708.601 309.296H702.169V333.2H708.601Z" fill="#4B90F3"/>
<path d="M576.624 300.882L574.626 303.121L574.626 303.121L576.624 300.882ZM581.391 329.806L583.894 331.46L583.894 331.46L581.391 329.806ZM535.729 333.89L560.179 358.429L569.206 324.985L535.729 333.89ZM535.066 312.319C541.022 306.664 548.573 302.029 555.88 300.043C563.175 298.06 569.783 298.798 574.626 303.121L578.621 298.644C571.741 292.505 562.774 291.951 554.306 294.253C545.851 296.551 537.452 301.779 530.934 307.969L535.066 312.319ZM574.626 303.121C583.928 311.421 583.323 321.441 578.888 328.152L583.894 331.46C589.817 322.498 590.35 309.11 578.621 298.644L574.626 303.121ZM578.888 328.152C575.548 333.205 569.838 337.361 561.589 337.933L562.004 343.918C572.263 343.207 579.608 337.945 583.894 331.46L578.888 328.152Z" fill="#4B90F3"/>
<rect x="444" y="276" width="90" height="90" rx="45" stroke="#4B90F3" stroke-width="6"/>
<path d="M490.493 338.576C486.109 338.576 482.669 337.104 480.173 334.16C477.677 331.184 476.429 326.88 476.429 321.248C476.429 318.432 476.749 315.952 477.389 313.808C478.029 311.664 478.957 309.856 480.173 308.384C481.389 306.912 482.861 305.808 484.589 305.072C486.349 304.304 488.317 303.92 490.493 303.92C493.405 303.92 495.837 304.56 497.789 305.84C499.773 307.12 501.325 309.008 502.445 311.504L497.885 314C497.309 312.4 496.413 311.136 495.197 310.208C494.013 309.248 492.445 308.768 490.493 308.768C487.901 308.768 485.869 309.648 484.397 311.408C482.925 313.168 482.189 315.6 482.189 318.704V323.792C482.189 326.896 482.925 329.328 484.397 331.088C485.869 332.848 487.901 333.728 490.493 333.728C492.509 333.728 494.141 333.216 495.389 332.192C496.669 331.136 497.613 329.792 498.221 328.16L502.589 330.8C501.469 333.232 499.901 335.136 497.885 336.512C495.869 337.888 493.405 338.576 490.493 338.576Z" fill="#4B90F3"/>
<path d="M356.624 300.882L354.626 303.121L354.626 303.121L356.624 300.882ZM361.391 329.806L363.894 331.46L363.894 331.46L361.391 329.806ZM315.729 333.89L340.179 358.429L349.206 324.985L315.729 333.89ZM315.066 312.319C321.022 306.664 328.573 302.029 335.88 300.043C343.175 298.06 349.783 298.798 354.626 303.121L358.621 298.644C351.741 292.505 342.774 291.951 334.306 294.253C325.851 296.551 317.452 301.779 310.934 307.969L315.066 312.319ZM354.626 303.121C363.928 311.421 363.323 321.441 358.888 328.152L363.894 331.46C369.817 322.498 370.35 309.11 358.621 298.644L354.626 303.121ZM358.888 328.152C355.548 333.205 349.838 337.361 341.589 337.933L342.004 343.918C352.263 343.207 359.608 337.945 363.894 331.46L358.888 328.152Z" fill="#4B90F3"/>
<rect x="224" y="276" width="90" height="90" rx="45" stroke="#4B90F3" stroke-width="6"/>
<path d="M257.308 304.496H272.14C274.924 304.496 277.1 305.28 278.668 306.848C280.268 308.416 281.068 310.512 281.068 313.136C281.068 314.384 280.892 315.456 280.54 316.352C280.188 317.216 279.74 317.936 279.196 318.512C278.652 319.056 278.028 319.472 277.324 319.76C276.62 320.016 275.932 320.176 275.26 320.24V320.528C275.932 320.56 276.668 320.72 277.468 321.008C278.3 321.296 279.068 321.76 279.772 322.4C280.476 323.008 281.068 323.808 281.548 324.8C282.028 325.76 282.268 326.944 282.268 328.352C282.268 329.696 282.044 330.96 281.596 332.144C281.18 333.328 280.588 334.352 279.82 335.216C279.052 336.08 278.14 336.768 277.084 337.28C276.028 337.76 274.876 338 273.628 338H257.308V304.496ZM262.732 333.344H272.044C273.452 333.344 274.556 332.976 275.356 332.24C276.156 331.504 276.556 330.448 276.556 329.072V327.44C276.556 326.064 276.156 325.008 275.356 324.272C274.556 323.536 273.452 323.168 272.044 323.168H262.732V333.344ZM262.732 318.656H271.132C272.476 318.656 273.516 318.32 274.252 317.648C274.988 316.944 275.356 315.952 275.356 314.672V313.136C275.356 311.856 274.988 310.88 274.252 310.208C273.516 309.504 272.476 309.152 271.132 309.152H262.732V318.656Z" fill="#4B90F3"/>
<path d="M136.624 300.882L134.626 303.121L134.626 303.121L136.624 300.882ZM141.391 329.806L143.894 331.46L143.894 331.46L141.391 329.806ZM95.7288 333.89L120.179 358.429L129.206 324.985L95.7288 333.89ZM95.0658 312.319C101.022 306.664 108.573 302.029 115.88 300.043C123.175 298.06 129.783 298.798 134.626 303.121L138.621 298.644C131.741 292.505 122.774 291.951 114.306 294.253C105.851 296.551 97.4524 301.779 90.9342 307.969L95.0658 312.319ZM134.626 303.121C143.928 311.421 143.323 321.441 138.888 328.152L143.894 331.46C149.817 322.498 150.35 309.11 138.621 298.644L134.626 303.121ZM138.888 328.152C135.548 333.205 129.838 337.361 121.589 337.933L122.004 343.918C132.263 343.207 139.608 337.945 143.894 331.46L138.888 328.152Z" fill="#4B90F3"/>
<rect x="4" y="276" width="90" height="90" rx="45" stroke="#4B90F3" stroke-width="6"/>
<path d="M58.1654 338L55.1414 328.928H42.6134L39.6854 338H34.1654L45.5894 304.496H52.4054L63.8294 338H58.1654ZM48.9974 309.488H48.7574L43.9094 324.272H53.7974L48.9974 309.488Z" fill="#4B90F3"/>
<path d="M1020.22 12.0173L1022.4 14.0788L1020.22 12.0173ZM1049.9 7.89685L1048.22 10.3804L1049.9 7.89685ZM1053.32 53.8063L1078.42 29.9297L1045.2 20.1325L1053.32 53.8063ZM1031.17 53.9548C1025.48 47.8422 1020.86 40.1555 1018.95 32.7819C1017.04 25.4249 1017.91 18.8317 1022.4 14.0788L1018.04 9.95576C1011.64 16.7259 1010.92 25.7303 1013.14 34.2871C1015.35 42.8273 1020.56 51.3704 1026.78 58.0452L1031.17 53.9548ZM1022.4 14.0788C1031.06 4.92411 1041.37 5.73867 1048.22 10.3804L1051.58 5.41332C1042.57 -0.696577 1028.94 -1.56119 1018.04 9.95576L1022.4 14.0788ZM1048.22 10.3804C1053.38 13.8771 1057.54 19.7417 1057.96 28.0609L1063.96 27.7557C1063.43 17.3749 1058.14 9.85954 1051.58 5.41332L1048.22 10.3804Z" fill="#4B90F3"/>
<rect x="928" y="56" width="223" height="90" rx="45" stroke="#4B90F3" stroke-width="6"/>
<path d="M979.9 120.352C979.9 122.944 978.908 124.896 976.924 126.208C974.94 127.52 971.708 128.176 967.228 128.176C965.18 128.176 963.436 128.032 961.996 127.744C960.588 127.488 959.42 127.104 958.492 126.592C957.596 126.08 956.94 125.456 956.524 124.72C956.108 123.984 955.9 123.136 955.9 122.176C955.9 120.8 956.268 119.728 957.004 118.96C957.772 118.192 958.828 117.664 960.172 117.376V116.848C958.284 116.24 957.34 114.96 957.34 113.008C957.34 111.728 957.772 110.752 958.636 110.08C959.5 109.376 960.54 108.88 961.756 108.592V108.4C960.284 107.696 959.148 106.72 958.348 105.472C957.58 104.192 957.196 102.704 957.196 101.008C957.196 98.448 958.044 96.384 959.74 94.816C961.468 93.248 963.932 92.464 967.132 92.464C968.892 92.464 970.396 92.72 971.644 93.232V92.56C971.644 91.44 971.9 90.576 972.412 89.968C972.956 89.328 973.788 89.008 974.908 89.008H978.748V93.232H973.66V94.24C974.78 94.976 975.644 95.936 976.252 97.12C976.86 98.272 977.164 99.568 977.164 101.008C977.164 103.536 976.3 105.584 974.572 107.152C972.844 108.688 970.38 109.456 967.18 109.456C965.964 109.456 964.876 109.328 963.916 109.072C963.276 109.296 962.716 109.616 962.236 110.032C961.756 110.416 961.516 110.928 961.516 111.568C961.516 112.24 961.82 112.72 962.428 113.008C963.036 113.296 963.9 113.44 965.02 113.44H971.164C974.236 113.44 976.46 114.064 977.836 115.312C979.212 116.528 979.9 118.208 979.9 120.352ZM975.004 120.928C975.004 120.064 974.668 119.376 973.996 118.864C973.356 118.352 972.172 118.096 970.444 118.096H961.996C960.844 118.768 960.268 119.728 960.268 120.976C960.268 122 960.668 122.816 961.468 123.424C962.3 124.064 963.692 124.384 965.644 124.384H968.908C972.972 124.384 975.004 123.232 975.004 120.928ZM967.18 105.664C968.716 105.664 969.9 105.328 970.732 104.656C971.596 103.952 972.028 102.88 972.028 101.44V100.48C972.028 99.04 971.596 97.984 970.732 97.312C969.9 96.608 968.716 96.256 967.18 96.256C965.644 96.256 964.444 96.608 963.58 97.312C962.748 97.984 962.332 99.04 962.332 100.48V101.44C962.332 102.88 962.748 103.952 963.58 104.656C964.444 105.328 965.644 105.664 967.18 105.664ZM983.313 118V93.04H988.545V97.84H988.785C989.137 96.56 989.873 95.44 990.993 94.48C992.113 93.52 993.665 93.04 995.649 93.04H997.041V98.08H994.977C992.897 98.08 991.297 98.416 990.177 99.088C989.089 99.76 988.545 100.752 988.545 102.064V118H983.313ZM1010.77 118.576C1009.04 118.576 1007.45 118.272 1006.01 117.664C1004.61 117.056 1003.41 116.192 1002.41 115.072C1001.42 113.92 1000.65 112.544 1000.11 110.944C999.566 109.312 999.294 107.504 999.294 105.52C999.294 103.536 999.566 101.744 1000.11 100.144C1000.65 98.512 1001.42 97.136 1002.41 96.016C1003.41 94.864 1004.61 93.984 1006.01 93.376C1007.45 92.768 1009.04 92.464 1010.77 92.464C1012.49 92.464 1014.06 92.768 1015.47 93.376C1016.91 93.984 1018.13 94.864 1019.12 96.016C1020.11 97.136 1020.88 98.512 1021.42 100.144C1021.97 101.744 1022.24 103.536 1022.24 105.52C1022.24 107.504 1021.97 109.312 1021.42 110.944C1020.88 112.544 1020.11 113.92 1019.12 115.072C1018.13 116.192 1016.91 117.056 1015.47 117.664C1014.06 118.272 1012.49 118.576 1010.77 118.576ZM1010.77 114.256C1012.56 114.256 1014 113.712 1015.09 112.624C1016.17 111.504 1016.72 109.84 1016.72 107.632V103.408C1016.72 101.2 1016.17 99.552 1015.09 98.464C1014 97.344 1012.56 96.784 1010.77 96.784C1008.97 96.784 1007.53 97.344 1006.45 98.464C1005.36 99.552 1004.81 101.2 1004.81 103.408V107.632C1004.81 109.84 1005.36 111.504 1006.45 112.624C1007.53 113.712 1008.97 114.256 1010.77 114.256ZM1042.71 113.872H1042.52C1042.29 114.48 1041.99 115.072 1041.6 115.648C1041.25 116.224 1040.79 116.736 1040.21 117.184C1039.67 117.6 1039 117.936 1038.2 118.192C1037.43 118.448 1036.53 118.576 1035.51 118.576C1032.92 118.576 1030.9 117.744 1029.46 116.08C1028.05 114.416 1027.35 112.032 1027.35 108.928V93.04H1032.58V108.256C1032.58 112.128 1034.18 114.064 1037.38 114.064C1038.05 114.064 1038.71 113.984 1039.35 113.824C1039.99 113.632 1040.55 113.36 1041.03 113.008C1041.54 112.656 1041.94 112.208 1042.23 111.664C1042.55 111.12 1042.71 110.48 1042.71 109.744V93.04H1047.94V118H1042.71V113.872ZM1054.95 93.04H1060.18V97.168H1060.42C1060.97 95.664 1061.85 94.512 1063.06 93.712C1064.31 92.88 1065.77 92.464 1067.43 92.464C1070.6 92.464 1073.05 93.616 1074.78 95.92C1076.5 98.192 1077.37 101.392 1077.37 105.52C1077.37 109.648 1076.5 112.864 1074.78 115.168C1073.05 117.44 1070.6 118.576 1067.43 118.576C1065.77 118.576 1064.31 118.16 1063.06 117.328C1061.85 116.496 1060.97 115.344 1060.42 113.872H1060.18V127.6H1054.95V93.04ZM1065.85 114.064C1067.67 114.064 1069.13 113.488 1070.22 112.336C1071.3 111.152 1071.85 109.6 1071.85 107.68V103.36C1071.85 101.44 1071.3 99.904 1070.22 98.752C1069.13 97.568 1067.67 96.976 1065.85 96.976C1064.25 96.976 1062.9 97.376 1061.82 98.176C1060.73 98.944 1060.18 99.968 1060.18 101.248V109.792C1060.18 111.072 1060.73 112.112 1061.82 112.912C1062.9 113.68 1064.25 114.064 1065.85 114.064ZM1113.76 104.272H1100.99V118H1093.69V84.496H1100.99V97.84H1113.76V84.496H1121.05V118H1113.76V104.272Z" fill="#4B90F3"/>
<path d="M580.222 12.0173L582.402 14.0788L580.222 12.0173ZM609.9 7.89685L608.217 10.3804L609.9 7.89685ZM613.324 53.8063L638.422 29.9297L605.196 20.1325L613.324 53.8063ZM591.174 53.9548C585.478 47.8422 580.86 40.1555 578.949 32.7819C577.042 25.4249 577.906 18.8317 582.402 14.0788L578.043 9.95576C571.639 16.7259 570.923 25.7303 573.141 34.2871C575.354 42.8273 580.564 51.3704 586.784 58.0452L591.174 53.9548ZM582.402 14.0788C591.061 4.92411 601.367 5.73867 608.217 10.3804L611.583 5.41332C602.566 -0.696577 588.936 -1.56119 578.043 9.95576L582.402 14.0788ZM608.217 10.3804C613.378 13.8771 617.541 19.7417 617.964 28.0609L623.957 27.7557C623.428 17.3749 618.145 9.85954 611.583 5.41332L608.217 10.3804Z" fill="#4B90F3"/>
<rect x="488" y="56" width="223" height="90" rx="45" stroke="#4B90F3" stroke-width="6"/>
<path d="M520.215 93.04H525.447V97.168H525.687C526.231 95.664 527.111 94.512 528.327 93.712C529.575 92.88 531.031 92.464 532.695 92.464C535.863 92.464 538.311 93.616 540.039 95.92C541.767 98.192 542.631 101.392 542.631 105.52C542.631 109.648 541.767 112.864 540.039 115.168C538.311 117.44 535.863 118.576 532.695 118.576C531.031 118.576 529.575 118.16 528.327 117.328C527.111 116.496 526.231 115.344 525.687 113.872H525.447V127.6H520.215V93.04ZM531.111 114.064C532.935 114.064 534.391 113.488 535.479 112.336C536.567 111.152 537.111 109.6 537.111 107.68V103.36C537.111 101.44 536.567 99.904 535.479 98.752C534.391 97.568 532.935 96.976 531.111 96.976C529.511 96.976 528.167 97.376 527.079 98.176C525.991 98.944 525.447 99.968 525.447 101.248V109.792C525.447 111.072 525.991 112.112 527.079 112.912C528.167 113.68 529.511 114.064 531.111 114.064ZM548.142 118V93.04H553.374V97.84H553.614C553.966 96.56 554.702 95.44 555.822 94.48C556.942 93.52 558.494 93.04 560.478 93.04H561.87V98.08H559.806C557.726 98.08 556.126 98.416 555.006 99.088C553.918 99.76 553.374 100.752 553.374 102.064V118H548.142ZM575.594 118.576C573.866 118.576 572.282 118.272 570.842 117.664C569.434 117.056 568.234 116.192 567.242 115.072C566.25 113.92 565.482 112.544 564.938 110.944C564.394 109.312 564.122 107.504 564.122 105.52C564.122 103.536 564.394 101.744 564.938 100.144C565.482 98.512 566.25 97.136 567.242 96.016C568.234 94.864 569.434 93.984 570.842 93.376C572.282 92.768 573.866 92.464 575.594 92.464C577.322 92.464 578.89 92.768 580.298 93.376C581.738 93.984 582.954 94.864 583.946 96.016C584.938 97.136 585.706 98.512 586.25 100.144C586.794 101.744 587.066 103.536 587.066 105.52C587.066 107.504 586.794 109.312 586.25 110.944C585.706 112.544 584.938 113.92 583.946 115.072C582.954 116.192 581.738 117.056 580.298 117.664C578.89 118.272 577.322 118.576 575.594 118.576ZM575.594 114.256C577.386 114.256 578.826 113.712 579.914 112.624C581.002 111.504 581.546 109.84 581.546 107.632V103.408C581.546 101.2 581.002 99.552 579.914 98.464C578.826 97.344 577.386 96.784 575.594 96.784C573.802 96.784 572.362 97.344 571.274 98.464C570.186 99.552 569.642 101.2 569.642 103.408V107.632C569.642 109.84 570.186 111.504 571.274 112.624C572.362 113.712 573.802 114.256 575.594 114.256ZM588.976 118L597.76 105.376L589.216 93.04H595.264L600.88 101.728H601.024L606.784 93.04H612.352L603.808 105.328L612.496 118H606.448L600.688 108.928H600.544L594.544 118H588.976ZM632.045 93.04H637.085L626.573 122.944C626.285 123.776 625.949 124.48 625.565 125.056C625.213 125.664 624.781 126.144 624.269 126.496C623.789 126.88 623.197 127.152 622.493 127.312C621.789 127.504 620.957 127.6 619.997 127.6H616.973V123.328H621.197L622.637 119.104L613.565 93.04H618.797L623.789 107.728L625.229 113.152H625.469L627.053 107.728L632.045 93.04ZM672.989 112.672H672.749C672.493 114.368 671.629 115.776 670.157 116.896C668.685 118.016 666.685 118.576 664.157 118.576C662.237 118.576 660.445 118.208 658.781 117.472C657.117 116.736 655.661 115.648 654.413 114.208C653.165 112.768 652.189 110.976 651.485 108.832C650.781 106.688 650.429 104.208 650.429 101.392C650.429 98.576 650.797 96.08 651.533 93.904C652.269 91.728 653.293 89.904 654.605 88.432C655.949 86.96 657.549 85.84 659.405 85.072C661.261 84.304 663.325 83.92 665.597 83.92C668.605 83.92 671.197 84.576 673.373 85.888C675.549 87.168 677.261 89.104 678.509 91.696L672.557 95.104C672.045 93.792 671.245 92.688 670.157 91.792C669.069 90.864 667.549 90.4 665.597 90.4C663.325 90.4 661.517 91.056 660.173 92.368C658.829 93.68 658.157 95.744 658.157 98.56V103.936C658.157 106.72 658.829 108.784 660.173 110.128C661.517 111.44 663.325 112.096 665.597 112.096C666.493 112.096 667.341 112 668.141 111.808C668.941 111.584 669.645 111.264 670.253 110.848C670.861 110.4 671.325 109.872 671.645 109.264C671.997 108.656 672.173 107.936 672.173 107.104V105.424H665.933V99.328H679.133V118H672.989V112.672Z" fill="#4B90F3"/>
<path d="M140.222 12.0173L142.402 14.0788L140.222 12.0173ZM169.9 7.89685L168.217 10.3804L169.9 7.89685ZM173.324 53.8063L198.422 29.9297L165.196 20.1325L173.324 53.8063ZM151.174 53.9548C145.478 47.8422 140.86 40.1555 138.949 32.7819C137.042 25.4249 137.906 18.8317 142.402 14.0788L138.043 9.95576C131.639 16.7259 130.923 25.7303 133.141 34.2871C135.354 42.8273 140.564 51.3704 146.784 58.0452L151.174 53.9548ZM142.402 14.0788C151.061 4.92411 161.367 5.73867 168.217 10.3804L171.583 5.41332C162.566 -0.696577 148.936 -1.56119 138.043 9.95576L142.402 14.0788ZM168.217 10.3804C173.378 13.8771 177.541 19.7417 177.964 28.0609L183.957 27.7557C183.428 17.3749 178.145 9.85954 171.583 5.41332L168.217 10.3804Z" fill="#4B90F3"/>
<rect x="48" y="56" width="223" height="90" rx="45" stroke="#4B90F3" stroke-width="6"/>
<path d="M100.017 120.352C100.017 122.944 99.0253 124.896 97.0413 126.208C95.0573 127.52 91.8253 128.176 87.3453 128.176C85.2973 128.176 83.5533 128.032 82.1133 127.744C80.7053 127.488 79.5373 127.104 78.6093 126.592C77.7133 126.08 77.0573 125.456 76.6413 124.72C76.2253 123.984 76.0173 123.136 76.0173 122.176C76.0173 120.8 76.3853 119.728 77.1213 118.96C77.8893 118.192 78.9453 117.664 80.2893 117.376V116.848C78.4013 116.24 77.4573 114.96 77.4573 113.008C77.4573 111.728 77.8893 110.752 78.7533 110.08C79.6173 109.376 80.6573 108.88 81.8733 108.592V108.4C80.4013 107.696 79.2653 106.72 78.4653 105.472C77.6973 104.192 77.3133 102.704 77.3133 101.008C77.3133 98.448 78.1613 96.384 79.8573 94.816C81.5853 93.248 84.0493 92.464 87.2493 92.464C89.0093 92.464 90.5133 92.72 91.7613 93.232V92.56C91.7613 91.44 92.0173 90.576 92.5293 89.968C93.0733 89.328 93.9053 89.008 95.0253 89.008H98.8653V93.232H93.7773V94.24C94.8973 94.976 95.7613 95.936 96.3693 97.12C96.9773 98.272 97.2813 99.568 97.2813 101.008C97.2813 103.536 96.4173 105.584 94.6893 107.152C92.9613 108.688 90.4973 109.456 87.2973 109.456C86.0813 109.456 84.9933 109.328 84.0333 109.072C83.3933 109.296 82.8333 109.616 82.3533 110.032C81.8733 110.416 81.6333 110.928 81.6333 111.568C81.6333 112.24 81.9373 112.72 82.5453 113.008C83.1533 113.296 84.0173 113.44 85.1373 113.44H91.2813C94.3533 113.44 96.5773 114.064 97.9533 115.312C99.3293 116.528 100.017 118.208 100.017 120.352ZM95.1213 120.928C95.1213 120.064 94.7853 119.376 94.1133 118.864C93.4733 118.352 92.2893 118.096 90.5613 118.096H82.1133C80.9613 118.768 80.3853 119.728 80.3853 120.976C80.3853 122 80.7853 122.816 81.5853 123.424C82.4173 124.064 83.8093 124.384 85.7613 124.384H89.0253C93.0893 124.384 95.1213 123.232 95.1213 120.928ZM87.2973 105.664C88.8333 105.664 90.0173 105.328 90.8493 104.656C91.7133 103.952 92.1453 102.88 92.1453 101.44V100.48C92.1453 99.04 91.7133 97.984 90.8493 97.312C90.0173 96.608 88.8333 96.256 87.2973 96.256C85.7613 96.256 84.5613 96.608 83.6973 97.312C82.8653 97.984 82.4493 99.04 82.4493 100.48V101.44C82.4493 102.88 82.8653 103.952 83.6973 104.656C84.5613 105.328 85.7613 105.664 87.2973 105.664ZM103.431 118V93.04H108.663V97.84H108.903C109.255 96.56 109.991 95.44 111.111 94.48C112.231 93.52 113.783 93.04 115.767 93.04H117.159V98.08H115.095C113.015 98.08 111.415 98.416 110.295 99.088C109.207 99.76 108.663 100.752 108.663 102.064V118H103.431ZM130.883 118.576C129.155 118.576 127.571 118.272 126.131 117.664C124.723 117.056 123.523 116.192 122.531 115.072C121.539 113.92 120.771 112.544 120.227 110.944C119.683 109.312 119.411 107.504 119.411 105.52C119.411 103.536 119.683 101.744 120.227 100.144C120.771 98.512 121.539 97.136 122.531 96.016C123.523 94.864 124.723 93.984 126.131 93.376C127.571 92.768 129.155 92.464 130.883 92.464C132.611 92.464 134.179 92.768 135.587 93.376C137.027 93.984 138.243 94.864 139.235 96.016C140.227 97.136 140.995 98.512 141.539 100.144C142.083 101.744 142.355 103.536 142.355 105.52C142.355 107.504 142.083 109.312 141.539 110.944C140.995 112.544 140.227 113.92 139.235 115.072C138.243 116.192 137.027 117.056 135.587 117.664C134.179 118.272 132.611 118.576 130.883 118.576ZM130.883 114.256C132.675 114.256 134.115 113.712 135.203 112.624C136.291 111.504 136.835 109.84 136.835 107.632V103.408C136.835 101.2 136.291 99.552 135.203 98.464C134.115 97.344 132.675 96.784 130.883 96.784C129.091 96.784 127.651 97.344 126.563 98.464C125.475 99.552 124.931 101.2 124.931 103.408V107.632C124.931 109.84 125.475 111.504 126.563 112.624C127.651 113.712 129.091 114.256 130.883 114.256ZM162.825 113.872H162.633C162.409 114.48 162.105 115.072 161.721 115.648C161.369 116.224 160.905 116.736 160.329 117.184C159.785 117.6 159.113 117.936 158.313 118.192C157.545 118.448 156.649 118.576 155.625 118.576C153.033 118.576 151.017 117.744 149.577 116.08C148.169 114.416 147.465 112.032 147.465 108.928V93.04H152.697V108.256C152.697 112.128 154.297 114.064 157.497 114.064C158.169 114.064 158.825 113.984 159.465 113.824C160.105 113.632 160.665 113.36 161.145 113.008C161.657 112.656 162.057 112.208 162.345 111.664C162.665 111.12 162.825 110.48 162.825 109.744V93.04H168.057V118H162.825V113.872ZM175.069 93.04H180.301V97.168H180.541C181.085 95.664 181.965 94.512 183.181 93.712C184.429 92.88 185.885 92.464 187.549 92.464C190.717 92.464 193.165 93.616 194.893 95.92C196.621 98.192 197.485 101.392 197.485 105.52C197.485 109.648 196.621 112.864 194.893 115.168C193.165 117.44 190.717 118.576 187.549 118.576C185.885 118.576 184.429 118.16 183.181 117.328C181.965 116.496 181.085 115.344 180.541 113.872H180.301V127.6H175.069V93.04ZM185.965 114.064C187.789 114.064 189.245 113.488 190.333 112.336C191.421 111.152 191.965 109.6 191.965 107.68V103.36C191.965 101.44 191.421 99.904 190.333 98.752C189.245 97.568 187.789 96.976 185.965 96.976C184.365 96.976 183.021 97.376 181.933 98.176C180.845 98.944 180.301 99.968 180.301 101.248V109.792C180.301 111.072 180.845 112.112 181.933 112.912C183.021 113.68 184.365 114.064 185.965 114.064ZM235.075 112.672H234.835C234.579 114.368 233.715 115.776 232.243 116.896C230.771 118.016 228.771 118.576 226.243 118.576C224.323 118.576 222.531 118.208 220.867 117.472C219.203 116.736 217.747 115.648 216.499 114.208C215.251 112.768 214.275 110.976 213.571 108.832C212.867 106.688 212.515 104.208 212.515 101.392C212.515 98.576 212.883 96.08 213.619 93.904C214.355 91.728 215.379 89.904 216.691 88.432C218.035 86.96 219.635 85.84 221.491 85.072C223.347 84.304 225.411 83.92 227.683 83.92C230.691 83.92 233.283 84.576 235.459 85.888C237.635 87.168 239.347 89.104 240.595 91.696L234.643 95.104C234.131 93.792 233.331 92.688 232.243 91.792C231.155 90.864 229.635 90.4 227.683 90.4C225.411 90.4 223.603 91.056 222.259 92.368C220.915 93.68 220.243 95.744 220.243 98.56V103.936C220.243 106.72 220.915 108.784 222.259 110.128C223.603 111.44 225.411 112.096 227.683 112.096C228.579 112.096 229.427 112 230.227 111.808C231.027 111.584 231.731 111.264 232.339 110.848C232.947 110.4 233.411 109.872 233.731 109.264C234.083 108.656 234.259 107.936 234.259 107.104V105.424H228.019V99.328H241.219V118H235.075V112.672Z" fill="#4B90F3"/>
</svg>
