<svg width="1080" height="498" viewBox="0 0 1080 498" fill="none" xmlns="http://www.w3.org/2000/svg">
<path d="M522.416 493L558 457M522 457L557.584 493" stroke="#E95757" stroke-width="12"/>
<path d="M733 361.5L730.264 378.603L716.82 367.682L733 361.5ZM728.24 369.401C726.875 370.898 725.469 372.372 724.026 373.823L721.899 371.707C723.313 370.286 724.688 368.844 726.024 367.379L728.24 369.401ZM719.626 378.064C718.141 379.438 716.62 380.79 715.065 382.12L713.115 379.841C714.641 378.535 716.133 377.209 717.589 375.862L719.626 378.064ZM710.356 385.999C708.771 387.257 707.154 388.493 705.507 389.707L703.726 387.293C705.346 386.099 706.934 384.884 708.491 383.649L710.356 385.999ZM700.547 393.239C698.879 394.387 697.182 395.514 695.459 396.62L693.838 394.095C695.535 393.006 697.206 391.896 698.848 390.767L700.547 393.239ZM690.298 399.824C688.559 400.869 686.795 401.893 685.008 402.898L683.537 400.283C685.3 399.292 687.039 398.282 688.753 397.252L690.298 399.824ZM679.686 405.795C677.891 406.742 676.073 407.67 674.234 408.578L672.905 405.889C674.721 404.992 676.515 404.076 678.288 403.141L679.686 405.795ZM668.776 411.192C666.94 412.044 665.085 412.878 663.211 413.693L662.014 410.943C663.866 410.137 665.699 409.313 667.513 408.471L668.776 411.192ZM657.617 416.053C655.749 416.816 653.864 417.562 651.963 418.29L650.89 415.489C652.77 414.768 654.635 414.03 656.482 413.276L657.617 416.053ZM646.251 420.409C644.357 421.089 642.448 421.752 640.526 422.399L639.569 419.555C641.473 418.915 643.362 418.259 645.237 417.585L646.251 420.409ZM634.718 424.288C632.801 424.891 630.871 425.477 628.93 426.047L628.085 423.168C630.008 422.604 631.92 422.023 633.818 421.426L634.718 424.288ZM623.075 427.707C621.128 428.239 619.17 428.755 617.202 429.256L616.463 426.348C618.413 425.852 620.354 425.341 622.283 424.813L623.075 427.707ZM611.308 430.699C609.336 431.163 607.355 431.612 605.365 432.044L604.728 429.113C606.701 428.684 608.665 428.239 610.62 427.779L611.308 430.699ZM599.438 433.281C597.454 433.677 595.463 434.058 593.464 434.423L592.925 431.472C594.907 431.11 596.882 430.732 598.85 430.339L599.438 433.281ZM587.485 435.466C585.493 435.797 583.494 436.112 581.49 436.412L581.046 433.445C583.034 433.147 585.017 432.835 586.993 432.506L587.485 435.466ZM575.467 437.265C573.467 437.532 571.462 437.784 569.453 438.021L569.102 435.041C571.096 434.807 573.085 434.557 575.07 434.291L575.467 437.265ZM563.414 438.685C561.403 438.891 559.388 439.081 557.37 439.256L557.111 436.267C559.113 436.094 561.113 435.905 563.109 435.701L563.414 438.685ZM551.32 439.735C549.301 439.879 547.28 440.009 545.257 440.123L545.088 437.127C547.096 437.014 549.102 436.886 551.106 436.743L551.32 439.735ZM539.196 440.418C537.175 440.502 535.152 440.57 533.129 440.623L533.05 437.624C535.058 437.571 537.066 437.504 539.072 437.421L539.196 440.418ZM527.058 440.736C525.034 440.758 523.01 440.765 520.987 440.757L520.999 437.757C523.007 437.765 525.015 437.758 527.024 437.736L527.058 440.736ZM514.92 440.687C512.894 440.648 510.868 440.594 508.845 440.524L508.948 437.525C510.956 437.595 512.966 437.649 514.978 437.687L514.92 440.687ZM502.782 440.268C500.758 440.167 498.738 440.05 496.72 439.918L496.916 436.924C498.918 437.055 500.924 437.171 502.932 437.271L502.782 440.268ZM490.66 439.473C488.644 439.309 486.632 439.129 484.625 438.933L484.916 435.947C486.907 436.141 488.904 436.32 490.904 436.483L490.66 439.473ZM478.572 438.294C476.559 438.065 474.551 437.819 472.549 437.558L472.937 434.583C474.923 434.843 476.915 435.086 478.912 435.313L478.572 438.294ZM466.534 436.721C464.524 436.424 462.521 436.111 460.526 435.781L461.015 432.821C462.994 433.148 464.98 433.459 466.973 433.754L466.534 436.721ZM454.563 434.742C452.558 434.375 450.562 433.99 448.575 433.589L449.169 430.648C451.138 431.046 453.117 431.427 455.104 431.791L454.563 434.742ZM442.64 432.333C440.655 431.894 438.681 431.437 436.717 430.963L437.42 428.047C439.366 428.516 441.322 428.968 443.288 429.404L442.64 432.333ZM430.817 429.478C428.857 428.965 426.909 428.433 424.973 427.884L425.792 424.998C427.708 425.541 429.637 426.068 431.578 426.576L430.817 429.478ZM419.119 426.156C417.181 425.562 415.256 424.949 413.345 424.318L414.286 421.47C416.176 422.094 418.08 422.7 419.998 423.288L419.119 426.156ZM407.575 422.34C405.658 421.659 403.757 420.959 401.873 420.239L402.943 417.436C404.806 418.148 406.685 418.84 408.58 419.514L407.575 422.34ZM396.218 418.001C394.33 417.226 392.459 416.432 390.607 415.617L391.816 412.871C393.644 413.675 395.491 414.46 397.356 415.225L396.218 418.001ZM385.089 413.102C383.237 412.228 381.405 411.333 379.595 410.417L380.95 407.74C382.735 408.644 384.541 409.527 386.369 410.389L385.089 413.102ZM374.231 407.605C372.427 406.625 370.647 405.624 368.892 404.6L370.403 402.009C372.132 403.017 373.885 404.003 375.662 404.968L374.231 407.605ZM363.695 401.459C361.958 400.372 360.248 399.261 358.565 398.126L360.242 395.639C361.896 396.754 363.578 397.847 365.287 398.917L363.695 401.459ZM353.578 394.637C351.922 393.434 350.295 392.207 348.699 390.956L350.55 388.595C352.117 389.823 353.714 391.028 355.341 392.21L353.578 394.637ZM343.973 387.101C342.413 385.778 340.886 384.43 339.394 383.056L341.426 380.849C342.888 382.195 344.384 383.516 345.913 384.814L343.973 387.101ZM334.988 378.825C333.544 377.378 332.136 375.905 330.767 374.406L332.982 372.383C334.321 373.849 335.698 375.29 337.111 376.706L334.988 378.825ZM326.746 369.797C326.096 369.015 325.455 368.227 324.825 367.432L327.175 365.568C327.791 366.344 328.417 367.114 329.052 367.878L326.746 369.797ZM733 361.5L727.528 395.706L700.641 373.864L733 361.5ZM729.348 370.412C727.968 371.926 726.547 373.415 725.089 374.881L720.836 370.649C722.234 369.243 723.595 367.816 724.916 366.368L729.348 370.412ZM720.645 379.164C719.145 380.553 717.61 381.918 716.04 383.26L712.14 378.701C713.652 377.408 715.129 376.095 716.57 374.761L720.645 379.164ZM711.288 387.174C709.689 388.443 708.058 389.69 706.398 390.915L702.836 386.086C704.441 384.902 706.016 383.698 707.559 382.474L711.288 387.174ZM701.397 394.475C699.715 395.632 698.005 396.768 696.269 397.882L693.028 392.833C694.712 391.752 696.369 390.651 697.998 389.531L701.397 394.475ZM691.07 401.11C689.319 402.162 687.542 403.194 685.743 404.206L682.802 398.976C684.553 397.991 686.28 396.988 687.981 395.966L691.07 401.11ZM680.386 407.122C678.578 408.075 676.749 409.009 674.899 409.923L672.24 404.544C674.044 403.653 675.827 402.743 677.588 401.814L680.386 407.122ZM669.407 412.553C667.56 413.41 665.694 414.249 663.81 415.069L661.415 409.567C663.256 408.766 665.079 407.947 666.882 407.11L669.407 412.553ZM658.184 417.441C656.305 418.209 654.41 418.959 652.5 419.691L650.353 414.088C652.223 413.371 654.078 412.638 655.915 411.887L658.184 417.441ZM646.758 421.821C644.854 422.504 642.936 423.171 641.004 423.821L639.091 418.134C640.985 417.497 642.865 416.843 644.73 416.174L646.758 421.821ZM635.168 425.719C633.242 426.324 631.303 426.913 629.352 427.486L627.662 421.729C629.576 421.167 631.479 420.589 633.368 419.995L635.168 425.719ZM623.47 429.153C621.515 429.688 619.548 430.207 617.571 430.71L616.093 424.894C618.035 424.401 619.967 423.891 621.888 423.366L623.47 429.153ZM611.652 432.159C609.671 432.625 607.682 433.076 605.684 433.51L604.409 427.647C606.374 427.22 608.33 426.777 610.276 426.319L611.652 432.159ZM599.732 434.752C597.74 435.15 595.74 435.532 593.734 435.899L592.655 429.997C594.629 429.636 596.596 429.26 598.556 428.868L599.732 434.752ZM587.731 436.946C585.73 437.278 583.724 437.594 581.712 437.896L580.824 431.962C582.804 431.665 584.779 431.354 586.748 431.027L587.731 436.946ZM575.666 438.752C573.658 439.02 571.646 439.273 569.629 439.511L568.927 433.552C570.913 433.318 572.895 433.069 574.871 432.805L575.666 438.752ZM563.566 440.177C561.548 440.384 559.525 440.575 557.5 440.751L556.981 434.773C558.976 434.6 560.968 434.412 562.956 434.208L563.566 440.177ZM551.427 441.231C549.401 441.376 547.372 441.506 545.341 441.62L545.004 435.63C547.004 435.517 549.003 435.389 550.999 435.247L551.427 441.231ZM539.258 441.917C537.229 442.001 535.199 442.069 533.168 442.122L533.011 436.124C535.012 436.072 537.012 436.005 539.011 435.922L539.258 441.917ZM527.074 442.236C525.043 442.258 523.011 442.265 520.98 442.257L521.005 436.257C523.005 436.265 525.006 436.258 527.008 436.236L527.074 442.236ZM514.891 442.187C512.857 442.147 510.824 442.093 508.793 442.023L509 436.026C511 436.095 513.003 436.149 515.007 436.188L514.891 442.187ZM502.707 441.766C500.676 441.664 498.647 441.547 496.622 441.415L497.014 435.427C499.009 435.558 501.006 435.673 503.006 435.773L502.707 441.766ZM490.539 440.968C488.515 440.803 486.495 440.623 484.479 440.426L485.061 434.455C487.045 434.648 489.033 434.825 491.025 434.988L490.539 440.968ZM478.402 439.784C476.381 439.554 474.365 439.308 472.355 439.045L473.132 433.096C475.109 433.354 477.092 433.596 479.081 433.823L478.402 439.784ZM466.315 438.205C464.297 437.907 462.285 437.592 460.281 437.261L461.26 431.342C463.23 431.667 465.207 431.977 467.192 432.27L466.315 438.205ZM454.292 436.217C452.279 435.848 450.274 435.462 448.278 435.059L449.466 429.178C451.426 429.574 453.396 429.953 455.374 430.316L454.292 436.217ZM442.316 433.797C440.322 433.356 438.338 432.897 436.365 432.421L437.772 426.589C439.708 427.056 441.655 427.506 443.612 427.939L442.316 433.797ZM430.437 430.929C428.467 430.413 426.509 429.879 424.564 429.327L426.202 423.555C428.108 424.096 430.027 424.619 431.958 425.125L430.437 430.929ZM418.679 427.59C416.731 426.993 414.796 426.377 412.875 425.743L414.757 420.045C416.636 420.666 418.53 421.269 420.438 421.854L418.679 427.59ZM407.072 423.754C405.145 423.069 403.233 422.364 401.338 421.64L403.479 416.035C405.33 416.742 407.198 417.431 409.082 418.1L407.072 423.754ZM395.649 419.388C393.749 418.609 391.867 417.81 390.003 416.99L392.42 411.498C394.236 412.297 396.071 413.077 397.925 413.837L395.649 419.388ZM384.449 414.459C382.584 413.579 380.74 412.678 378.918 411.755L381.628 406.402C383.4 407.299 385.194 408.176 387.009 409.032L384.449 414.459ZM373.515 408.923C371.698 407.936 369.905 406.928 368.136 405.896L371.158 400.713C372.874 401.713 374.614 402.692 376.378 403.65L373.515 408.923ZM362.898 402.73C361.148 401.634 359.424 400.514 357.727 399.37L361.081 394.395C362.721 395.501 364.389 396.584 366.083 397.646L362.898 402.73ZM352.696 395.851C351.026 394.637 349.384 393.399 347.774 392.136L351.476 387.415C353.027 388.631 354.61 389.825 356.222 390.996L352.696 395.851ZM343.002 388.245C341.428 386.909 339.886 385.547 338.378 384.16L342.442 379.745C343.889 381.077 345.37 382.385 346.884 383.67L343.002 388.245ZM333.926 379.885C332.467 378.423 331.044 376.934 329.659 375.418L334.089 371.371C335.413 372.821 336.775 374.246 338.173 375.646L333.926 379.885ZM325.593 370.757C324.935 369.966 324.287 369.168 323.65 368.364L328.35 364.636C328.959 365.403 329.577 366.164 330.205 366.918L325.593 370.757Z" fill="#E95757"/>
<path d="M515 362L506.367 377.016L497.68 362.031L515 362ZM507.931 367.66C506.16 368.59 504.38 369.486 502.594 370.348L501.29 367.646C503.046 366.799 504.795 365.918 506.536 365.004L507.931 367.66ZM497.167 372.852C495.337 373.658 493.499 374.43 491.656 375.166L490.543 372.38C492.354 371.657 494.159 370.899 495.958 370.106L497.167 372.852ZM486.066 377.284C484.183 377.959 482.295 378.597 480.402 379.2L479.493 376.341C481.35 375.75 483.204 375.123 485.053 374.46L486.066 377.284ZM474.672 380.909C472.746 381.445 470.815 381.944 468.883 382.405L468.186 379.487C470.083 379.034 471.977 378.545 473.868 378.019L474.672 380.909ZM463.04 383.683C461.079 384.074 459.116 384.425 457.152 384.738L456.68 381.776C458.605 381.469 460.531 381.124 462.454 380.741L463.04 383.683ZM451.227 385.566C449.242 385.804 447.258 386.002 445.274 386.161L445.035 383.171C446.979 383.015 448.924 382.82 450.87 382.587L451.227 385.566ZM439.3 386.52C437.302 386.6 435.307 386.639 433.315 386.638L433.316 383.638C435.268 383.639 437.223 383.601 439.18 383.522L439.3 386.52ZM427.33 386.513C425.333 386.431 423.341 386.307 421.355 386.142L421.603 383.152C423.548 383.314 425.498 383.435 427.454 383.516L427.33 386.513ZM415.399 385.523C413.417 385.274 411.442 384.985 409.475 384.653L409.973 381.695C411.899 382.019 413.832 382.303 415.772 382.546L415.399 385.523ZM403.592 383.534C401.64 383.119 399.696 382.662 397.762 382.163L398.511 379.258C400.403 379.746 402.305 380.193 404.216 380.599L403.592 383.534ZM391.996 380.543C390.088 379.962 388.19 379.34 386.305 378.675L387.302 375.846C389.147 376.496 391.003 377.105 392.87 377.673L391.996 380.543ZM380.7 376.562C378.851 375.819 377.015 375.034 375.193 374.208L376.432 371.476C378.214 372.284 380.01 373.052 381.819 373.779L380.7 376.562ZM369.794 371.616C368.018 370.716 366.257 369.775 364.512 368.794L365.983 366.179C367.69 367.139 369.413 368.06 371.15 368.941L369.794 371.616ZM359.358 365.745C357.668 364.696 355.994 363.607 354.339 362.479L356.029 360C357.649 361.104 359.286 362.17 360.94 363.196L359.358 365.745ZM349.464 359.002C348.664 358.405 347.869 357.799 347.078 357.183L348.922 354.817C349.696 355.42 350.474 356.013 351.257 356.597L349.464 359.002ZM515 362L497.734 392.031L480.359 362.063L515 362ZM508.628 368.988C506.842 369.926 505.048 370.829 503.246 371.699L500.638 366.295C502.379 365.455 504.112 364.582 505.838 363.676L508.628 368.988ZM497.772 374.224C495.925 375.038 494.072 375.816 492.212 376.559L489.987 370.987C491.782 370.27 493.57 369.519 495.353 368.734L497.772 374.224ZM486.572 378.696C484.672 379.377 482.767 380.021 480.857 380.629L479.038 374.912C480.878 374.326 482.715 373.705 484.547 373.048L486.572 378.696ZM475.075 382.354C473.13 382.895 471.182 383.398 469.231 383.864L467.838 378.028C469.717 377.58 471.593 377.095 473.466 376.573L475.075 382.354ZM463.333 385.154C461.353 385.548 459.371 385.904 457.388 386.22L456.444 380.295C458.35 379.991 460.256 379.649 462.162 379.27L463.333 385.154ZM451.406 387.055C449.401 387.296 447.397 387.496 445.394 387.656L444.915 381.675C446.839 381.521 448.765 381.329 450.692 381.098L451.406 387.055ZM439.36 388.019C437.342 388.099 435.327 388.139 433.314 388.138L433.317 382.138C435.248 382.139 437.183 382.101 439.12 382.023L439.36 388.019ZM427.268 388.012C425.251 387.929 423.238 387.804 421.231 387.637L421.727 381.658C423.651 381.817 425.581 381.937 427.516 382.017L427.268 388.012ZM415.213 387.011C413.21 386.76 411.214 386.467 409.226 386.133L410.222 380.216C412.127 380.537 414.039 380.817 415.959 381.058L415.213 387.011ZM403.281 385.001C401.307 384.581 399.342 384.12 397.388 383.616L398.886 377.806C400.757 378.288 402.638 378.73 404.528 379.132L403.281 385.001ZM391.56 381.978C389.63 381.391 387.712 380.762 385.807 380.09L387.801 374.431C389.625 375.074 391.46 375.676 393.307 376.238L391.56 381.978ZM380.141 377.954C378.271 377.202 376.415 376.409 374.574 375.574L377.052 370.11C378.814 370.909 380.59 371.668 382.379 372.387L380.141 377.954ZM369.116 372.954C367.32 372.044 365.54 371.093 363.777 370.101L366.719 364.872C368.407 365.821 370.11 366.732 371.829 367.603L369.116 372.954ZM358.566 367.02C356.858 365.959 355.167 364.859 353.494 363.718L356.874 358.761C358.476 359.853 360.096 360.907 361.731 361.922L358.566 367.02ZM348.568 360.204C347.759 359.602 346.955 358.989 346.156 358.367L349.844 353.633C350.609 354.23 351.38 354.817 352.154 355.394L348.568 360.204Z" fill="#14BF06"/>
<path d="M848.05 144.039L880.084 157.223L852.65 178.373L848.05 144.039ZM866.911 163.59L957.527 281.13L952.775 284.793L862.159 167.254L866.911 163.59Z" fill="#4B90F3"/>
<path d="M760.05 149L742.73 179H777.371L760.05 149ZM757.05 176V276H763.05V176H757.05Z" fill="#4B90F3"/>
<path d="M671.101 144.039L639.066 157.223L666.501 178.373L671.101 144.039ZM652.24 163.59L561.624 281.13L566.376 284.793L656.991 167.254L652.24 163.59Z" fill="#4B90F3"/>
<path d="M408 144.039L440.034 157.223L412.599 178.373L408 144.039ZM426.861 163.59L517.477 281.13L512.725 284.793L422.109 167.254L426.861 163.59Z" fill="#4B90F3"/>
<path d="M320 149L302.679 179H337.321L320 149ZM317 176V276H323V176H317Z" fill="#4B90F3"/>
<path d="M231.05 144.039L199.016 157.223L226.451 178.373L231.05 144.039ZM212.189 163.59L121.574 281.13L126.326 284.793L216.941 167.254L212.189 163.59Z" fill="#4B90F3"/>
<path d="M1067.67 300.882L1065.68 303.121L1065.68 303.121L1067.67 300.882ZM1072.44 329.806L1074.94 331.46L1074.94 331.46L1072.44 329.806ZM1026.78 333.89L1051.23 358.429L1060.26 324.985L1026.78 333.89ZM1026.12 312.319C1032.07 306.664 1039.62 302.029 1046.93 300.043C1054.23 298.06 1060.83 298.798 1065.68 303.121L1069.67 298.644C1062.79 292.505 1053.82 291.951 1045.36 294.253C1036.9 296.551 1028.5 301.779 1021.98 307.969L1026.12 312.319ZM1065.68 303.121C1074.98 311.421 1074.37 321.441 1069.94 328.152L1074.94 331.46C1080.87 322.498 1081.4 309.11 1069.67 298.644L1065.68 303.121ZM1069.94 328.152C1066.6 333.205 1060.89 337.361 1052.64 337.933L1053.05 343.918C1063.31 343.207 1070.66 337.945 1074.94 331.46L1069.94 328.152Z" fill="#4B90F3"/>
<rect x="935.05" y="276" width="90" height="90" rx="45" stroke="#4B90F3" stroke-width="6"/>
<path d="M969.952 338V304.496H991.408V309.296H975.376V318.608H989.92V323.408H975.376V333.2H991.408V338H969.952Z" fill="#4B90F3"/>
<path d="M847.674 300.882L845.677 303.121L845.677 303.121L847.674 300.882ZM852.441 329.806L854.944 331.46L854.944 331.46L852.441 329.806ZM806.779 333.89L831.229 358.429L840.256 324.985L806.779 333.89ZM806.116 312.319C812.072 306.664 819.624 302.029 826.931 300.043C834.226 298.06 840.833 298.798 845.677 303.121L849.671 298.644C842.792 292.505 833.824 291.951 825.357 294.253C816.901 296.551 808.503 301.779 801.984 307.969L806.116 312.319ZM845.677 303.121C854.979 311.421 854.373 321.441 849.938 328.152L854.944 331.46C860.867 322.498 861.4 309.11 849.671 298.644L845.677 303.121ZM849.938 328.152C846.599 333.205 840.888 337.361 832.639 337.933L833.054 343.918C843.313 343.207 850.658 337.945 854.944 331.46L849.938 328.152Z" fill="#4B90F3"/>
<rect x="715.05" y="276" width="90" height="90" rx="45" stroke="#4B90F3" stroke-width="6"/>
<path d="M747.795 304.496H759.651C761.795 304.496 763.731 304.848 765.459 305.552C767.219 306.256 768.707 307.312 769.923 308.72C771.171 310.096 772.131 311.84 772.803 313.952C773.475 316.032 773.811 318.464 773.811 321.248C773.811 324.032 773.475 326.48 772.803 328.592C772.131 330.672 771.171 332.416 769.923 333.824C768.707 335.2 767.219 336.24 765.459 336.944C763.731 337.648 761.795 338 759.651 338H747.795V304.496ZM759.651 333.2C762.147 333.2 764.163 332.416 765.699 330.848C767.235 329.28 768.003 326.976 768.003 323.936V318.56C768.003 315.52 767.235 313.216 765.699 311.648C764.163 310.08 762.147 309.296 759.651 309.296H753.219V333.2H759.651Z" fill="#4B90F3"/>
<path d="M740.273 12.0173L742.452 14.0788L740.273 12.0173ZM769.95 7.89685L768.268 10.3804L769.95 7.89685ZM773.374 53.8063L798.473 29.9297L765.246 20.1325L773.374 53.8063ZM751.224 53.9548C745.528 47.8422 740.91 40.1555 738.999 32.7819C737.093 25.4249 737.956 18.8317 742.452 14.0788L738.093 9.95576C731.689 16.7259 730.974 25.7303 733.191 34.2871C735.404 42.8273 740.614 51.3704 746.834 58.0452L751.224 53.9548ZM742.452 14.0788C751.111 4.92411 761.417 5.73867 768.268 10.3804L771.633 5.41332C762.616 -0.696577 748.987 -1.56119 738.093 9.95576L742.452 14.0788ZM768.268 10.3804C773.428 13.8771 777.591 19.7417 778.015 28.0609L784.007 27.7557C783.478 17.3749 778.195 9.85954 771.633 5.41332L768.268 10.3804Z" fill="#4B90F3"/>
<rect x="648.05" y="56" width="223" height="90" rx="45" stroke="#4B90F3" stroke-width="6"/>
<path d="M702.927 120.352C702.927 122.944 701.935 124.896 699.951 126.208C697.967 127.52 694.735 128.176 690.255 128.176C688.207 128.176 686.463 128.032 685.023 127.744C683.615 127.488 682.447 127.104 681.519 126.592C680.623 126.08 679.967 125.456 679.551 124.72C679.135 123.984 678.927 123.136 678.927 122.176C678.927 120.8 679.295 119.728 680.031 118.96C680.799 118.192 681.855 117.664 683.199 117.376V116.848C681.311 116.24 680.367 114.96 680.367 113.008C680.367 111.728 680.799 110.752 681.663 110.08C682.527 109.376 683.567 108.88 684.783 108.592V108.4C683.311 107.696 682.175 106.72 681.375 105.472C680.607 104.192 680.223 102.704 680.223 101.008C680.223 98.448 681.071 96.384 682.767 94.816C684.495 93.248 686.959 92.464 690.159 92.464C691.919 92.464 693.423 92.72 694.671 93.232V92.56C694.671 91.44 694.927 90.576 695.439 89.968C695.983 89.328 696.815 89.008 697.935 89.008H701.775V93.232H696.687V94.24C697.807 94.976 698.671 95.936 699.279 97.12C699.887 98.272 700.191 99.568 700.191 101.008C700.191 103.536 699.327 105.584 697.599 107.152C695.871 108.688 693.407 109.456 690.207 109.456C688.991 109.456 687.903 109.328 686.943 109.072C686.303 109.296 685.743 109.616 685.263 110.032C684.783 110.416 684.543 110.928 684.543 111.568C684.543 112.24 684.847 112.72 685.455 113.008C686.063 113.296 686.927 113.44 688.047 113.44H694.191C697.263 113.44 699.487 114.064 700.863 115.312C702.239 116.528 702.927 118.208 702.927 120.352ZM698.031 120.928C698.031 120.064 697.695 119.376 697.023 118.864C696.383 118.352 695.199 118.096 693.471 118.096H685.023C683.871 118.768 683.295 119.728 683.295 120.976C683.295 122 683.695 122.816 684.495 123.424C685.327 124.064 686.719 124.384 688.671 124.384H691.935C695.999 124.384 698.031 123.232 698.031 120.928ZM690.207 105.664C691.743 105.664 692.927 105.328 693.759 104.656C694.623 103.952 695.055 102.88 695.055 101.44V100.48C695.055 99.04 694.623 97.984 693.759 97.312C692.927 96.608 691.743 96.256 690.207 96.256C688.671 96.256 687.471 96.608 686.607 97.312C685.775 97.984 685.359 99.04 685.359 100.48V101.44C685.359 102.88 685.775 103.952 686.607 104.656C687.471 105.328 688.671 105.664 690.207 105.664ZM706.34 118V93.04H711.572V97.84H711.812C712.164 96.56 712.9 95.44 714.02 94.48C715.14 93.52 716.692 93.04 718.676 93.04H720.068V98.08H718.004C715.924 98.08 714.324 98.416 713.204 99.088C712.116 99.76 711.572 100.752 711.572 102.064V118H706.34ZM733.793 118.576C732.065 118.576 730.481 118.272 729.041 117.664C727.633 117.056 726.433 116.192 725.441 115.072C724.449 113.92 723.681 112.544 723.137 110.944C722.593 109.312 722.321 107.504 722.321 105.52C722.321 103.536 722.593 101.744 723.137 100.144C723.681 98.512 724.449 97.136 725.441 96.016C726.433 94.864 727.633 93.984 729.041 93.376C730.481 92.768 732.065 92.464 733.793 92.464C735.521 92.464 737.089 92.768 738.497 93.376C739.937 93.984 741.153 94.864 742.145 96.016C743.137 97.136 743.905 98.512 744.449 100.144C744.993 101.744 745.265 103.536 745.265 105.52C745.265 107.504 744.993 109.312 744.449 110.944C743.905 112.544 743.137 113.92 742.145 115.072C741.153 116.192 739.937 117.056 738.497 117.664C737.089 118.272 735.521 118.576 733.793 118.576ZM733.793 114.256C735.585 114.256 737.025 113.712 738.113 112.624C739.201 111.504 739.745 109.84 739.745 107.632V103.408C739.745 101.2 739.201 99.552 738.113 98.464C737.025 97.344 735.585 96.784 733.793 96.784C732.001 96.784 730.561 97.344 729.473 98.464C728.385 99.552 727.841 101.2 727.841 103.408V107.632C727.841 109.84 728.385 111.504 729.473 112.624C730.561 113.712 732.001 114.256 733.793 114.256ZM765.735 113.872H765.543C765.319 114.48 765.015 115.072 764.631 115.648C764.279 116.224 763.815 116.736 763.239 117.184C762.695 117.6 762.023 117.936 761.223 118.192C760.455 118.448 759.559 118.576 758.535 118.576C755.943 118.576 753.927 117.744 752.487 116.08C751.079 114.416 750.375 112.032 750.375 108.928V93.04H755.607V108.256C755.607 112.128 757.207 114.064 760.407 114.064C761.079 114.064 761.735 113.984 762.375 113.824C763.015 113.632 763.575 113.36 764.055 113.008C764.567 112.656 764.967 112.208 765.255 111.664C765.575 111.12 765.735 110.48 765.735 109.744V93.04H770.967V118H765.735V113.872ZM777.978 93.04H783.21V97.168H783.45C783.994 95.664 784.874 94.512 786.09 93.712C787.338 92.88 788.794 92.464 790.458 92.464C793.626 92.464 796.074 93.616 797.802 95.92C799.53 98.192 800.394 101.392 800.394 105.52C800.394 109.648 799.53 112.864 797.802 115.168C796.074 117.44 793.626 118.576 790.458 118.576C788.794 118.576 787.338 118.16 786.09 117.328C784.874 116.496 783.994 115.344 783.45 113.872H783.21V127.6H777.978V93.04ZM788.874 114.064C790.698 114.064 792.154 113.488 793.242 112.336C794.33 111.152 794.874 109.6 794.874 107.68V103.36C794.874 101.44 794.33 99.904 793.242 98.752C792.154 97.568 790.698 96.976 788.874 96.976C787.274 96.976 785.93 97.376 784.842 98.176C783.754 98.944 783.21 99.968 783.21 101.248V109.792C783.21 111.072 783.754 112.112 784.842 112.912C785.93 113.68 787.274 114.064 788.874 114.064ZM839.472 118H815.76V111.424L826.08 102.592C827.008 101.792 827.792 101.072 828.432 100.432C829.072 99.76 829.584 99.12 829.968 98.512C830.384 97.872 830.672 97.248 830.832 96.64C831.024 96.032 831.12 95.376 831.12 94.672V94C831.12 93.36 830.992 92.8 830.736 92.32C830.48 91.84 830.144 91.44 829.728 91.12C829.312 90.8 828.832 90.56 828.288 90.4C827.776 90.24 827.248 90.16 826.704 90.16C825.904 90.16 825.2 90.288 824.592 90.544C824.016 90.8 823.504 91.152 823.056 91.6C822.64 92.016 822.288 92.512 822 93.088C821.712 93.632 821.488 94.224 821.328 94.864L815.04 92.464C815.424 91.312 815.952 90.224 816.624 89.2C817.296 88.144 818.128 87.232 819.12 86.464C820.144 85.664 821.344 85.04 822.72 84.592C824.096 84.144 825.648 83.92 827.376 83.92C829.2 83.92 830.816 84.176 832.224 84.688C833.632 85.2 834.816 85.904 835.776 86.8C836.768 87.696 837.52 88.768 838.032 90.016C838.544 91.232 838.8 92.56 838.8 94C838.8 95.44 838.56 96.752 838.08 97.936C837.6 99.12 836.944 100.24 836.112 101.296C835.312 102.32 834.368 103.296 833.28 104.224C832.192 105.152 831.056 106.096 829.872 107.056L823.632 111.952H839.472V118Z" fill="#4B90F3"/>
<path d="M627.624 300.882L625.626 303.121L625.626 303.121L627.624 300.882ZM632.391 329.806L634.894 331.46L634.894 331.46L632.391 329.806ZM586.729 333.89L611.179 358.429L620.206 324.985L586.729 333.89ZM586.066 312.319C592.022 306.664 599.573 302.029 606.88 300.043C614.175 298.06 620.783 298.798 625.626 303.121L629.621 298.644C622.741 292.505 613.774 291.951 605.306 294.253C596.851 296.551 588.452 301.779 581.934 307.969L586.066 312.319ZM625.626 303.121C634.928 311.421 634.323 321.441 629.888 328.152L634.894 331.46C640.817 322.498 641.35 309.11 629.621 298.644L625.626 303.121ZM629.888 328.152C626.548 333.205 620.838 337.361 612.589 337.933L613.004 343.918C623.263 343.207 630.608 337.945 634.894 331.46L629.888 328.152Z" fill="#4B90F3"/>
<rect x="495" y="276" width="90" height="90" rx="45" stroke="#4B90F3" stroke-width="6"/>
<path d="M541.493 338.576C537.109 338.576 533.669 337.104 531.173 334.16C528.677 331.184 527.429 326.88 527.429 321.248C527.429 318.432 527.749 315.952 528.389 313.808C529.029 311.664 529.957 309.856 531.173 308.384C532.389 306.912 533.861 305.808 535.589 305.072C537.349 304.304 539.317 303.92 541.493 303.92C544.405 303.92 546.837 304.56 548.789 305.84C550.773 307.12 552.325 309.008 553.445 311.504L548.885 314C548.309 312.4 547.413 311.136 546.197 310.208C545.013 309.248 543.445 308.768 541.493 308.768C538.901 308.768 536.869 309.648 535.397 311.408C533.925 313.168 533.189 315.6 533.189 318.704V323.792C533.189 326.896 533.925 329.328 535.397 331.088C536.869 332.848 538.901 333.728 541.493 333.728C543.509 333.728 545.141 333.216 546.389 332.192C547.669 331.136 548.613 329.792 549.221 328.16L553.589 330.8C552.469 333.232 550.901 335.136 548.885 336.512C546.869 337.888 544.405 338.576 541.493 338.576Z" fill="#4B90F3"/>
<path d="M407.624 300.882L405.626 303.121L405.626 303.121L407.624 300.882ZM412.391 329.806L414.894 331.46L414.894 331.46L412.391 329.806ZM366.729 333.89L391.179 358.429L400.206 324.985L366.729 333.89ZM366.066 312.319C372.022 306.664 379.573 302.029 386.88 300.043C394.175 298.06 400.783 298.798 405.626 303.121L409.621 298.644C402.741 292.505 393.774 291.951 385.306 294.253C376.851 296.551 368.452 301.779 361.934 307.969L366.066 312.319ZM405.626 303.121C414.928 311.421 414.323 321.441 409.888 328.152L414.894 331.46C420.817 322.498 421.35 309.11 409.621 298.644L405.626 303.121ZM409.888 328.152C406.548 333.205 400.838 337.361 392.589 337.933L393.004 343.918C403.263 343.207 410.608 337.945 414.894 331.46L409.888 328.152Z" fill="#4B90F3"/>
<rect x="275" y="276" width="90" height="90" rx="45" stroke="#4B90F3" stroke-width="6"/>
<path d="M308.308 304.496H323.14C325.924 304.496 328.1 305.28 329.668 306.848C331.268 308.416 332.068 310.512 332.068 313.136C332.068 314.384 331.892 315.456 331.54 316.352C331.188 317.216 330.74 317.936 330.196 318.512C329.652 319.056 329.028 319.472 328.324 319.76C327.62 320.016 326.932 320.176 326.26 320.24V320.528C326.932 320.56 327.668 320.72 328.468 321.008C329.3 321.296 330.068 321.76 330.772 322.4C331.476 323.008 332.068 323.808 332.548 324.8C333.028 325.76 333.268 326.944 333.268 328.352C333.268 329.696 333.044 330.96 332.596 332.144C332.18 333.328 331.588 334.352 330.82 335.216C330.052 336.08 329.14 336.768 328.084 337.28C327.028 337.76 325.876 338 324.628 338H308.308V304.496ZM313.732 333.344H323.044C324.452 333.344 325.556 332.976 326.356 332.24C327.156 331.504 327.556 330.448 327.556 329.072V327.44C327.556 326.064 327.156 325.008 326.356 324.272C325.556 323.536 324.452 323.168 323.044 323.168H313.732V333.344ZM313.732 318.656H322.132C323.476 318.656 324.516 318.32 325.252 317.648C325.988 316.944 326.356 315.952 326.356 314.672V313.136C326.356 311.856 325.988 310.88 325.252 310.208C324.516 309.504 323.476 309.152 322.132 309.152H313.732V318.656Z" fill="#4B90F3"/>
<path d="M187.624 300.882L185.626 303.121L185.626 303.121L187.624 300.882ZM192.391 329.806L194.894 331.46L194.894 331.46L192.391 329.806ZM146.729 333.89L171.179 358.429L180.206 324.985L146.729 333.89ZM146.066 312.319C152.022 306.664 159.573 302.029 166.88 300.043C174.175 298.06 180.783 298.798 185.626 303.121L189.621 298.644C182.741 292.505 173.774 291.951 165.306 294.253C156.851 296.551 148.452 301.779 141.934 307.969L146.066 312.319ZM185.626 303.121C194.928 311.421 194.323 321.441 189.888 328.152L194.894 331.46C200.817 322.498 201.35 309.11 189.621 298.644L185.626 303.121ZM189.888 328.152C186.548 333.205 180.838 337.361 172.589 337.933L173.004 343.918C183.263 343.207 190.608 337.945 194.894 331.46L189.888 328.152Z" fill="#4B90F3"/>
<rect x="55" y="276" width="90" height="90" rx="45" stroke="#4B90F3" stroke-width="6"/>
<path d="M109.165 338L106.141 328.928H93.6134L90.6854 338H85.1654L96.5894 304.496H103.405L114.829 338H109.165ZM99.9974 309.488H99.7574L94.9094 324.272H104.797L99.9974 309.488Z" fill="#4B90F3"/>
<path d="M300.222 12.0173L302.402 14.0788L300.222 12.0173ZM329.9 7.89685L328.217 10.3804L329.9 7.89685ZM333.324 53.8063L358.422 29.9297L325.196 20.1325L333.324 53.8063ZM311.174 53.9548C305.478 47.8422 300.86 40.1555 298.949 32.7819C297.042 25.4249 297.906 18.8317 302.402 14.0788L298.043 9.95576C291.639 16.7259 290.923 25.7303 293.141 34.2871C295.354 42.8273 300.564 51.3704 306.784 58.0452L311.174 53.9548ZM302.402 14.0788C311.061 4.92411 321.367 5.73867 328.217 10.3804L331.583 5.41332C322.566 -0.696577 308.936 -1.56119 298.043 9.95576L302.402 14.0788ZM328.217 10.3804C333.378 13.8771 337.541 19.7417 337.964 28.0609L343.957 27.7557C343.428 17.3749 338.145 9.85954 331.583 5.41332L328.217 10.3804Z" fill="#4B90F3"/>
<rect x="208" y="56" width="223" height="90" rx="45" stroke="#4B90F3" stroke-width="6"/>
<path d="M262.877 120.352C262.877 122.944 261.885 124.896 259.901 126.208C257.917 127.52 254.685 128.176 250.205 128.176C248.157 128.176 246.413 128.032 244.973 127.744C243.565 127.488 242.397 127.104 241.469 126.592C240.573 126.08 239.917 125.456 239.501 124.72C239.085 123.984 238.877 123.136 238.877 122.176C238.877 120.8 239.245 119.728 239.981 118.96C240.749 118.192 241.805 117.664 243.149 117.376V116.848C241.261 116.24 240.317 114.96 240.317 113.008C240.317 111.728 240.749 110.752 241.613 110.08C242.477 109.376 243.517 108.88 244.733 108.592V108.4C243.261 107.696 242.125 106.72 241.325 105.472C240.557 104.192 240.173 102.704 240.173 101.008C240.173 98.448 241.021 96.384 242.717 94.816C244.445 93.248 246.909 92.464 250.109 92.464C251.869 92.464 253.373 92.72 254.621 93.232V92.56C254.621 91.44 254.877 90.576 255.389 89.968C255.933 89.328 256.765 89.008 257.885 89.008H261.725V93.232H256.637V94.24C257.757 94.976 258.621 95.936 259.229 97.12C259.837 98.272 260.141 99.568 260.141 101.008C260.141 103.536 259.277 105.584 257.549 107.152C255.821 108.688 253.357 109.456 250.157 109.456C248.941 109.456 247.853 109.328 246.893 109.072C246.253 109.296 245.693 109.616 245.213 110.032C244.733 110.416 244.493 110.928 244.493 111.568C244.493 112.24 244.797 112.72 245.405 113.008C246.013 113.296 246.877 113.44 247.997 113.44H254.141C257.213 113.44 259.437 114.064 260.813 115.312C262.189 116.528 262.877 118.208 262.877 120.352ZM257.981 120.928C257.981 120.064 257.645 119.376 256.973 118.864C256.333 118.352 255.149 118.096 253.421 118.096H244.973C243.821 118.768 243.245 119.728 243.245 120.976C243.245 122 243.645 122.816 244.445 123.424C245.277 124.064 246.669 124.384 248.621 124.384H251.885C255.949 124.384 257.981 123.232 257.981 120.928ZM250.157 105.664C251.693 105.664 252.877 105.328 253.709 104.656C254.573 103.952 255.005 102.88 255.005 101.44V100.48C255.005 99.04 254.573 97.984 253.709 97.312C252.877 96.608 251.693 96.256 250.157 96.256C248.621 96.256 247.421 96.608 246.557 97.312C245.725 97.984 245.309 99.04 245.309 100.48V101.44C245.309 102.88 245.725 103.952 246.557 104.656C247.421 105.328 248.621 105.664 250.157 105.664ZM266.29 118V93.04H271.522V97.84H271.762C272.114 96.56 272.85 95.44 273.97 94.48C275.09 93.52 276.642 93.04 278.626 93.04H280.018V98.08H277.954C275.874 98.08 274.274 98.416 273.154 99.088C272.066 99.76 271.522 100.752 271.522 102.064V118H266.29ZM293.743 118.576C292.015 118.576 290.431 118.272 288.991 117.664C287.583 117.056 286.383 116.192 285.391 115.072C284.399 113.92 283.631 112.544 283.087 110.944C282.543 109.312 282.271 107.504 282.271 105.52C282.271 103.536 282.543 101.744 283.087 100.144C283.631 98.512 284.399 97.136 285.391 96.016C286.383 94.864 287.583 93.984 288.991 93.376C290.431 92.768 292.015 92.464 293.743 92.464C295.471 92.464 297.039 92.768 298.447 93.376C299.887 93.984 301.103 94.864 302.095 96.016C303.087 97.136 303.855 98.512 304.399 100.144C304.943 101.744 305.215 103.536 305.215 105.52C305.215 107.504 304.943 109.312 304.399 110.944C303.855 112.544 303.087 113.92 302.095 115.072C301.103 116.192 299.887 117.056 298.447 117.664C297.039 118.272 295.471 118.576 293.743 118.576ZM293.743 114.256C295.535 114.256 296.975 113.712 298.063 112.624C299.151 111.504 299.695 109.84 299.695 107.632V103.408C299.695 101.2 299.151 99.552 298.063 98.464C296.975 97.344 295.535 96.784 293.743 96.784C291.951 96.784 290.511 97.344 289.423 98.464C288.335 99.552 287.791 101.2 287.791 103.408V107.632C287.791 109.84 288.335 111.504 289.423 112.624C290.511 113.712 291.951 114.256 293.743 114.256ZM325.684 113.872H325.492C325.268 114.48 324.964 115.072 324.58 115.648C324.228 116.224 323.764 116.736 323.188 117.184C322.644 117.6 321.972 117.936 321.172 118.192C320.404 118.448 319.508 118.576 318.484 118.576C315.892 118.576 313.876 117.744 312.436 116.08C311.028 114.416 310.324 112.032 310.324 108.928V93.04H315.556V108.256C315.556 112.128 317.156 114.064 320.356 114.064C321.028 114.064 321.684 113.984 322.324 113.824C322.964 113.632 323.524 113.36 324.004 113.008C324.516 112.656 324.916 112.208 325.204 111.664C325.524 111.12 325.684 110.48 325.684 109.744V93.04H330.916V118H325.684V113.872ZM337.928 93.04H343.16V97.168H343.4C343.944 95.664 344.824 94.512 346.04 93.712C347.288 92.88 348.744 92.464 350.408 92.464C353.576 92.464 356.024 93.616 357.752 95.92C359.48 98.192 360.344 101.392 360.344 105.52C360.344 109.648 359.48 112.864 357.752 115.168C356.024 117.44 353.576 118.576 350.408 118.576C348.744 118.576 347.288 118.16 346.04 117.328C344.824 116.496 343.944 115.344 343.4 113.872H343.16V127.6H337.928V93.04ZM348.824 114.064C350.648 114.064 352.104 113.488 353.192 112.336C354.28 111.152 354.824 109.6 354.824 107.68V103.36C354.824 101.44 354.28 99.904 353.192 98.752C352.104 97.568 350.648 96.976 348.824 96.976C347.224 96.976 345.88 97.376 344.792 98.176C343.704 98.944 343.16 99.968 343.16 101.248V109.792C343.16 111.072 343.704 112.112 344.792 112.912C345.88 113.68 347.224 114.064 348.824 114.064ZM377.486 118V112.192H386.51V89.728H386.078L379.262 98.656L374.654 95.056L382.67 84.496H393.71V112.192H400.814V118H377.486Z" fill="#4B90F3"/>
</svg>
