<svg width="382" height="614" viewBox="0 0 382 614" fill="none" xmlns="http://www.w3.org/2000/svg">
<path d="M288 467L274.339 456.351L290.392 449.845L288 467ZM283.187 458.887C282.44 456.906 281.729 454.957 281.054 453.034L283.885 452.041C284.552 453.94 285.255 455.868 285.994 457.828L283.187 458.887ZM279.068 447.127C278.422 445.116 277.818 443.132 277.256 441.172L280.14 440.345C280.693 442.273 281.288 444.227 281.924 446.21L279.068 447.127ZM275.637 435.133C275.127 433.085 274.665 431.058 274.25 429.049L277.188 428.443C277.595 430.411 278.048 432.398 278.548 434.409L275.637 435.133ZM273.118 422.892C272.784 420.813 272.502 418.748 272.272 416.692L275.253 416.358C275.478 418.366 275.754 420.383 276.08 422.416L273.118 422.892ZM271.73 410.453C271.602 408.365 271.527 406.28 271.506 404.192L274.506 404.162C274.527 406.198 274.599 408.232 274.725 410.269L271.73 410.453ZM271.602 397.929C271.686 395.857 271.822 393.777 272.008 391.682L274.997 391.949C274.814 393.996 274.682 396.028 274.6 398.051L271.602 397.929ZM272.707 385.468C272.982 383.427 273.304 381.369 273.673 379.288L276.627 379.811C276.265 381.853 275.949 383.871 275.68 385.869L272.707 385.468ZM274.874 373.169C275.304 371.168 275.775 369.142 276.286 367.088L279.198 367.812C278.694 369.837 278.23 371.831 277.807 373.8L274.874 373.169ZM277.874 361.069C278.419 359.108 279 357.117 279.614 355.096L282.484 355.968C281.876 357.968 281.303 359.936 280.764 361.873L277.874 361.069ZM281.486 349.152C282.115 347.222 282.773 345.262 283.46 343.269L286.296 344.246C285.615 346.224 284.962 348.168 284.339 350.082L281.486 349.152ZM285.523 337.419C285.873 336.448 286.229 335.469 286.592 334.483L289.408 335.517C289.047 336.498 288.693 337.471 288.346 338.436L285.523 337.419ZM288 467L260.679 445.703L292.783 432.691L288 467ZM281.784 459.416C281.033 457.426 280.318 455.465 279.639 453.531L285.3 451.544C285.963 453.431 286.662 455.348 287.398 457.298L281.784 459.416ZM277.639 447.585C276.989 445.56 276.381 443.562 275.814 441.586L281.581 439.931C282.13 441.844 282.72 443.783 283.352 445.751L277.639 447.585ZM274.181 435.495C273.667 433.428 273.201 431.382 272.781 429.353L278.657 428.139C279.06 430.087 279.508 432.055 280.004 434.047L274.181 435.495ZM271.637 423.13C271.3 421.028 271.014 418.94 270.781 416.859L276.744 416.191C276.966 418.175 277.238 420.168 277.561 422.178L271.637 423.13ZM270.233 410.545C270.103 408.431 270.028 406.321 270.006 404.208L276.006 404.147C276.026 406.158 276.098 408.165 276.222 410.177L270.233 410.545ZM270.103 397.868C270.188 395.771 270.325 393.667 270.514 391.549L276.491 392.082C276.31 394.106 276.179 396.113 276.098 398.111L270.103 397.868ZM271.22 385.267C271.498 383.206 271.824 381.127 272.196 379.026L278.104 380.073C277.746 382.095 277.433 384.093 277.166 386.07L271.22 385.267ZM273.408 372.854C273.842 370.836 274.316 368.795 274.831 366.726L280.653 368.174C280.153 370.184 279.693 372.163 279.274 374.115L273.408 372.854ZM276.429 360.667C276.978 358.693 277.561 356.692 278.179 354.66L283.919 356.404C283.315 358.394 282.745 360.35 282.209 362.275L276.429 360.667ZM280.06 348.687C280.692 346.749 281.353 344.78 282.042 342.78L287.715 344.735C287.035 346.705 286.386 348.642 285.765 350.546L280.06 348.687ZM284.112 336.91C284.463 335.936 284.82 334.955 285.184 333.965L290.816 336.035C290.456 337.013 290.103 337.983 289.757 338.944L284.112 336.91Z" fill="#14BF06"/>
<path d="M267.076 258.325L249.918 255.953L260.551 242.28L267.076 258.325ZM258.846 253.714C257.207 252.375 255.615 251.044 254.068 249.718L256.02 247.44C257.548 248.75 259.123 250.066 260.745 251.391L258.846 253.714ZM249.389 245.601C247.823 244.183 246.306 242.769 244.838 241.355L246.919 239.194C248.364 240.586 249.857 241.979 251.402 243.376L249.389 245.601ZM240.411 236.94C238.944 235.422 237.529 233.9 236.163 232.369L238.402 230.372C239.74 231.871 241.127 233.364 242.568 234.855L240.411 236.94ZM232.099 227.607C230.768 225.975 229.489 224.33 228.26 222.666L230.673 220.883C231.873 222.508 233.122 224.116 234.424 225.711L232.099 227.607ZM224.665 217.537C223.508 215.794 222.399 214.027 221.335 212.231L223.916 210.702C224.954 212.454 226.036 214.178 227.165 215.878L224.665 217.537ZM218.28 206.763C217.315 204.927 216.39 203.059 215.502 201.153L218.222 199.887C219.089 201.75 219.993 203.574 220.935 205.366L218.28 206.763ZM212.993 195.425C212.209 193.521 211.457 191.578 210.733 189.592L213.552 188.565C214.262 190.514 215 192.418 215.767 194.282L212.993 195.425ZM208.707 183.695C208.077 181.747 207.47 179.758 206.883 177.724L209.765 176.892C210.344 178.897 210.942 180.855 211.562 182.771L208.707 183.695ZM205.241 171.72C204.731 169.749 204.236 167.736 203.755 165.678L206.676 164.995C207.152 167.031 207.641 169.021 208.146 170.968L205.241 171.72ZM202.398 159.596C201.975 157.611 201.562 155.585 201.158 153.516L204.102 152.941C204.504 154.994 204.913 157.004 205.332 158.972L202.398 159.596ZM200.013 147.419C199.83 146.404 199.648 145.378 199.467 144.343L202.423 143.828C202.602 144.857 202.783 145.877 202.965 146.886L200.013 147.419ZM267.076 258.325L232.761 253.581L254.027 226.236L267.076 258.325ZM257.897 254.876C256.249 253.529 254.648 252.191 253.092 250.857L256.996 246.301C258.515 247.603 260.08 248.911 261.694 250.23L257.897 254.876ZM248.382 246.713C246.805 245.286 245.278 243.861 243.797 242.435L247.96 238.114C249.393 239.494 250.875 240.876 252.408 242.264L248.382 246.713ZM239.333 237.982C237.852 236.451 236.423 234.914 235.044 233.367L239.521 229.373C240.845 230.857 242.219 232.336 243.647 233.812L239.333 237.982ZM230.936 228.555C229.591 226.905 228.297 225.241 227.053 223.557L231.879 219.992C233.065 221.597 234.3 223.186 235.586 224.763L230.936 228.555ZM223.416 218.367C222.244 216.603 221.122 214.814 220.045 212.996L225.207 209.937C226.232 211.667 227.3 213.369 228.414 215.048L223.416 218.367ZM216.953 207.461C215.976 205.604 215.04 203.713 214.142 201.786L219.582 199.253C220.439 201.095 221.332 202.898 222.263 204.668L216.953 207.461ZM211.606 195.996C210.814 194.072 210.054 192.11 209.324 190.106L214.961 188.051C215.665 189.981 216.395 191.867 217.154 193.711L211.606 195.996ZM207.28 184.156C206.645 182.193 206.033 180.189 205.442 178.14L211.206 176.476C211.781 178.467 212.374 180.41 212.989 182.309L207.28 184.156ZM203.789 172.096C203.276 170.113 202.778 168.088 202.294 166.02L208.136 164.653C208.61 166.679 209.097 168.657 209.598 170.592L203.789 172.096ZM200.931 159.909C200.506 157.915 200.092 155.88 199.686 153.803L205.575 152.653C205.974 154.699 206.382 156.7 206.799 158.659L200.931 159.909ZM198.537 147.686C198.353 146.667 198.17 145.639 197.989 144.6L203.9 143.57C204.079 144.597 204.26 145.613 204.441 146.619L198.537 147.686Z" fill="#14BF06"/>
<path d="M114.487 258.325L131.645 255.953L121.012 242.28L114.487 258.325ZM122.717 253.714C124.356 252.375 125.948 251.044 127.495 249.718L125.543 247.44C124.015 248.75 122.44 250.066 120.819 251.391L122.717 253.714ZM132.174 245.601C133.741 244.183 135.257 242.769 136.725 241.355L134.644 239.194C133.199 240.586 131.706 241.979 130.162 243.376L132.174 245.601ZM141.152 236.94C142.619 235.422 144.035 233.9 145.4 232.369L143.161 230.372C141.824 231.871 140.436 233.364 138.995 234.855L141.152 236.94ZM149.465 227.607C150.795 225.975 152.074 224.33 153.303 222.666L150.89 220.883C149.69 222.508 148.441 224.116 147.14 225.711L149.465 227.607ZM156.898 217.537C158.055 215.794 159.164 214.027 160.228 212.231L157.647 210.702C156.609 212.454 155.527 214.178 154.399 215.878L156.898 217.537ZM163.283 206.763C164.249 204.927 165.173 203.059 166.061 201.153L163.341 199.887C162.474 201.75 161.57 203.574 160.628 205.366L163.283 206.763ZM168.57 195.425C169.354 193.521 170.106 191.578 170.83 189.592L168.011 188.565C167.301 190.514 166.564 192.418 165.796 194.282L168.57 195.425ZM172.856 183.695C173.486 181.747 174.093 179.758 174.68 177.724L171.798 176.892C171.219 178.897 170.621 180.855 170.001 182.771L172.856 183.695ZM176.322 171.72C176.832 169.749 177.327 167.736 177.808 165.678L174.887 164.995C174.411 167.031 173.922 169.021 173.417 170.968L176.322 171.72ZM179.165 159.596C179.588 157.611 180.001 155.585 180.405 153.516L177.461 152.941C177.059 154.994 176.65 157.004 176.231 158.972L179.165 159.596ZM181.55 147.419C181.734 146.404 181.915 145.378 182.096 144.343L179.141 143.828C178.961 144.857 178.78 145.877 178.598 146.886L181.55 147.419ZM114.487 258.325L148.802 253.581L127.536 226.236L114.487 258.325ZM123.666 254.876C125.314 253.529 126.915 252.191 128.471 250.857L124.567 246.301C123.048 247.603 121.483 248.911 119.869 250.23L123.666 254.876ZM133.181 246.713C134.758 245.286 136.286 243.861 137.766 242.435L133.604 238.114C132.17 239.494 130.688 240.876 129.155 242.264L133.181 246.713ZM142.23 237.982C143.711 236.451 145.14 234.914 146.519 233.367L142.042 229.373C140.718 230.857 139.344 232.336 137.917 233.812L142.23 237.982ZM150.627 228.555C151.972 226.905 153.266 225.241 154.51 223.557L149.684 219.992C148.498 221.597 147.263 223.186 145.977 224.763L150.627 228.555ZM158.148 218.367C159.319 216.603 160.441 214.814 161.518 212.996L156.356 209.937C155.332 211.667 154.263 213.369 153.149 215.048L158.148 218.367ZM164.61 207.461C165.588 205.604 166.523 203.713 167.421 201.786L161.981 199.253C161.124 201.095 160.231 202.898 159.3 204.668L164.61 207.461ZM169.957 195.996C170.749 194.072 171.509 192.11 172.239 190.106L166.602 188.051C165.899 189.981 165.168 191.867 164.409 193.711L169.957 195.996ZM174.283 184.156C174.918 182.193 175.53 180.189 176.122 178.14L170.357 176.476C169.782 178.467 169.189 180.41 168.574 182.309L174.283 184.156ZM177.774 172.096C178.287 170.113 178.785 168.088 179.269 166.02L173.427 164.653C172.953 166.679 172.466 168.657 171.965 170.592L177.774 172.096ZM180.633 159.909C181.057 157.915 181.471 155.88 181.877 153.803L175.988 152.653C175.589 154.699 175.181 156.7 174.764 158.659L180.633 159.909ZM183.026 147.686C183.21 146.667 183.393 145.639 183.574 144.6L177.663 143.57C177.484 144.597 177.304 145.613 177.122 146.619L183.026 147.686Z" fill="#14BF06"/>
<path d="M320.778 600.983L318.598 598.921L320.778 600.983ZM291.1 605.103L292.783 602.62L291.1 605.103ZM287.676 559.194L257.974 577.021L288.263 593.83L287.676 559.194ZM309.826 559.045C310.484 559.751 311.129 560.48 311.759 561.228L316.351 557.367C315.657 556.541 314.944 555.736 314.216 554.955L309.826 559.045ZM315.284 565.878C316.385 567.492 317.398 569.157 318.303 570.849L323.593 568.018C322.583 566.129 321.458 564.282 320.242 562.498L315.284 565.878ZM320.715 576.084C321.418 577.91 321.972 579.727 322.359 581.511L328.223 580.24C327.764 578.124 327.116 576.009 326.313 573.926L320.715 576.084ZM322.999 586.987C323.014 588.837 322.802 590.597 322.351 592.245L328.139 593.829C328.751 591.591 329.018 589.276 328.999 586.939L322.999 586.987ZM320.217 596.909C319.747 597.603 319.209 598.275 318.598 598.921L322.957 603.044C323.789 602.165 324.53 601.241 325.184 600.276L320.217 596.909ZM318.598 598.921C318.012 599.541 317.421 600.113 316.826 600.639L320.804 605.131C321.534 604.484 322.253 603.789 322.957 603.044L318.598 598.921ZM312.904 603.469C311.451 604.297 309.992 604.899 308.548 605.309L310.184 611.081C312.099 610.539 314.005 609.747 315.873 608.683L312.904 603.469ZM303.92 605.997C302.328 606.026 300.763 605.845 299.256 605.484L297.858 611.319C299.839 611.793 301.91 612.035 304.03 611.996L303.92 605.997ZM294.824 603.832C294.115 603.466 293.433 603.06 292.783 602.62L289.417 607.587C290.264 608.16 291.15 608.688 292.072 609.164L294.824 603.832ZM292.783 602.62C292.012 602.098 291.265 601.523 290.55 600.897L286.597 605.41C287.502 606.203 288.446 606.929 289.417 607.587L292.783 602.62ZM286.837 596.7C285.826 595.207 284.972 593.541 284.328 591.699L278.664 593.679C279.483 596.021 280.574 598.151 281.869 600.063L286.837 596.7ZM283.127 586.172C282.952 584.383 282.952 582.459 283.165 580.397L277.196 579.78C276.944 582.224 276.94 584.551 277.156 586.757L283.127 586.172ZM284.258 574.595C284.744 572.786 285.382 570.888 286.192 568.903L280.637 566.637C279.739 568.838 279.018 570.973 278.463 573.039L284.258 574.595Z" fill="#14BF06"/>
<path d="M100.778 380.983L98.5983 378.921L100.778 380.983ZM71.0999 385.103L72.7828 382.62L71.0999 385.103ZM67.6758 339.194L37.9739 357.021L68.2633 373.83L67.6758 339.194ZM89.8263 339.045C90.4842 339.751 91.1292 340.48 91.7585 341.228L96.3511 337.367C95.6566 336.541 94.9439 335.736 94.2159 334.955L89.8263 339.045ZM95.2841 345.878C96.3848 347.492 97.3981 349.157 98.3033 350.849L103.593 348.018C102.583 346.129 101.458 344.282 100.242 342.498L95.2841 345.878ZM100.715 356.084C101.418 357.91 101.972 359.727 102.359 361.511L108.223 360.24C107.764 358.124 107.116 356.009 106.313 353.926L100.715 356.084ZM102.999 366.987C103.014 368.837 102.802 370.597 102.351 372.245L108.139 373.829C108.751 371.591 109.018 369.276 108.999 366.939L102.999 366.987ZM100.217 376.909C99.7471 377.603 99.2093 378.275 98.5983 378.921L102.957 383.044C103.789 382.165 104.53 381.241 105.184 380.276L100.217 376.909ZM98.5983 378.921C98.0121 379.541 97.4207 380.113 96.826 380.639L100.804 385.131C101.534 384.484 102.253 383.789 102.957 383.044L98.5983 378.921ZM92.9036 383.469C91.4512 384.297 89.9923 384.899 88.548 385.309L90.1839 391.081C92.0992 390.539 94.0054 389.747 95.8731 388.683L92.9036 383.469ZM83.9202 385.997C82.3279 386.026 80.763 385.845 79.2558 385.484L77.8584 391.319C79.8389 391.793 81.91 392.035 84.0297 391.996L83.9202 385.997ZM74.8243 383.832C74.1154 383.466 73.4333 383.06 72.7828 382.62L69.417 387.587C70.2635 388.16 71.1503 388.688 72.0716 389.164L74.8243 383.832ZM72.7828 382.62C72.0125 382.098 71.2654 381.523 70.5505 380.897L66.5971 385.41C67.5024 386.203 68.4463 386.929 69.417 387.587L72.7828 382.62ZM66.837 376.7C65.8262 375.207 64.9721 373.541 64.3284 371.699L58.6645 373.679C59.4832 376.021 60.5738 378.151 61.8686 380.063L66.837 376.7ZM63.1271 366.172C62.9519 364.383 62.9517 362.459 63.1647 360.397L57.1965 359.78C56.944 362.224 56.9397 364.551 57.1557 366.757L63.1271 366.172ZM64.2575 354.595C64.7438 352.786 65.3824 350.888 66.1922 348.903L60.6367 346.637C59.7385 348.838 59.0181 350.973 58.4631 353.039L64.2575 354.595Z" fill="#14BF06"/>
<path d="M270.825 57.13L269.402 59.7711L270.825 57.13ZM282.532 84.7107L279.696 83.7326L282.532 84.7107ZM239.098 99.9726L264.045 124.007L272.386 90.3853L239.098 99.9726ZM233.187 78.6251C233.697 77.8061 234.232 76.9935 234.791 76.191L229.867 72.7624C229.251 73.648 228.659 74.5458 228.094 75.4523L233.187 78.6251ZM238.362 71.5763C239.634 70.093 240.978 68.6812 242.375 67.3667L238.264 62.9964C236.704 64.464 235.213 66.0315 233.808 67.6697L238.362 71.5763ZM246.802 63.6752C248.381 62.5204 249.992 61.5119 251.613 60.6745L248.859 55.3437C246.935 56.3375 245.063 57.514 243.261 58.8316L246.802 63.6752ZM256.734 58.6299C258.516 58.1338 260.271 57.8798 261.978 57.8862L262.001 51.8862C259.681 51.8776 257.377 52.223 255.125 52.8495L256.734 58.6299ZM267.038 58.7317C267.831 59.0051 268.619 59.3494 269.402 59.7711L272.248 54.4888C271.182 53.915 270.097 53.4399 268.995 53.0597L267.038 58.7317ZM269.402 59.7711C270.153 60.1757 270.859 60.5977 271.523 61.0347L274.824 56.0244C274.009 55.4875 273.15 54.975 272.248 54.4888L269.402 59.7711ZM275.276 64.0848C276.453 65.2717 277.415 66.5232 278.187 67.8111L283.334 64.7283C282.311 63.0205 281.05 61.3863 279.537 59.86L275.276 64.0848ZM280.056 72.1C280.499 73.6297 280.732 75.1878 280.776 76.737L286.773 76.5666C286.716 74.5309 286.409 72.4684 285.82 70.4319L280.056 72.1ZM280.335 81.4457C280.166 82.2255 279.952 82.9897 279.696 83.7326L285.368 85.6887C285.701 84.722 285.98 83.7285 286.199 82.715L280.335 81.4457ZM279.696 83.7326C279.393 84.6123 279.033 85.4832 278.614 86.3365L284.001 88.9781C284.531 87.8974 284.986 86.7973 285.368 85.6887L279.696 83.7326ZM275.529 91.0149C274.35 92.3797 272.964 93.6381 271.354 94.7393L274.741 99.6921C276.789 98.2917 278.561 96.684 280.07 94.9359L275.529 91.0149ZM266.33 97.3386C264.649 97.9734 262.792 98.4747 260.745 98.8062L261.704 104.729C264.129 104.336 266.377 103.735 268.45 102.952L266.33 97.3386ZM254.859 99.2619C252.985 99.2637 250.987 99.1414 248.859 98.8765L248.118 104.83C250.477 105.124 252.726 105.264 254.865 105.262L254.859 99.2619Z" fill="#14BF06"/>
<path d="M314 339L340.39 361.44L307.761 373.075L314 339ZM325.948 363.592C336.615 400.148 332.942 428.151 316.816 472.035L311.184 469.965C327.055 426.774 330.369 400.16 320.188 365.273L325.948 363.592Z" fill="#4B90F3"/>
<path d="M225.45 134.521L259.532 140.721L237.122 167.137L225.45 134.521ZM248.111 149.819C275.658 176.112 286.508 202.188 294.537 248.246L288.626 249.276C280.723 203.945 270.258 179.252 243.969 154.159L248.111 149.819Z" fill="#4B90F3"/>
<path d="M156.113 134.521L122.031 140.721L144.441 167.137L156.113 134.521ZM133.452 149.819C105.905 176.112 95.0556 202.188 87.0264 248.246L92.9372 249.276C100.84 203.945 111.306 179.252 137.595 154.159L133.452 149.819Z" fill="#4B90F3"/>
<path d="M353.192 439.003L353.143 442.002L353.192 439.003ZM375.799 457.888L378.775 457.51L375.799 457.888ZM343.656 491L378.192 493.692L363.255 462.437L343.656 491ZM328.985 475.019C329.817 466.798 332.537 458.305 336.809 451.987C341.075 445.68 346.605 441.894 353.143 442.002L353.242 436.003C343.978 435.85 336.784 441.315 331.839 448.626C326.901 455.928 323.926 465.422 323.015 474.414L328.985 475.019ZM353.143 442.002C365.69 442.209 371.803 450.24 372.823 458.266L378.775 457.51C377.414 446.801 369.043 436.264 353.242 436.003L353.143 442.002ZM372.823 458.266C373.596 464.35 371.94 471.325 365.921 477.212L370.116 481.501C377.582 474.2 379.766 465.311 378.775 457.51L372.823 458.266Z" fill="#4B90F3"/>
<rect x="256" y="468" width="90" height="90" rx="45" stroke="#4B90F3" stroke-width="6"/>
<path d="M288.745 496.496H300.601C302.745 496.496 304.681 496.848 306.409 497.552C308.169 498.256 309.657 499.312 310.873 500.72C312.121 502.096 313.081 503.84 313.753 505.952C314.425 508.032 314.761 510.464 314.761 513.248C314.761 516.032 314.425 518.48 313.753 520.592C313.081 522.672 312.121 524.416 310.873 525.824C309.657 527.2 308.169 528.24 306.409 528.944C304.681 529.648 302.745 530 300.601 530H288.745V496.496ZM300.601 525.2C303.097 525.2 305.113 524.416 306.649 522.848C308.185 521.28 308.953 518.976 308.953 515.936V510.56C308.953 507.52 308.185 505.216 306.649 503.648C305.113 502.08 303.097 501.296 300.601 501.296H294.169V525.2H300.601Z" fill="#4B90F3"/>
<path d="M353.192 219.003L353.143 222.002L353.192 219.003ZM375.799 237.888L378.775 237.51L375.799 237.888ZM343.656 271L378.192 273.692L363.255 242.437L343.656 271ZM328.985 255.019C329.817 246.798 332.537 238.305 336.809 231.987C341.075 225.68 346.605 221.894 353.143 222.002L353.242 216.003C343.978 215.85 336.784 221.315 331.839 228.626C326.901 235.928 323.926 245.422 323.015 254.414L328.985 255.019ZM353.143 222.002C365.69 222.209 371.803 230.24 372.823 238.266L378.775 237.51C377.414 226.801 369.043 216.264 353.242 216.003L353.143 222.002ZM372.823 238.266C373.596 244.35 371.94 251.325 365.921 257.212L370.116 261.501C377.582 254.2 379.766 245.311 378.775 237.51L372.823 238.266Z" fill="#4B90F3"/>
<rect x="256" y="248" width="90" height="90" rx="45" stroke="#4B90F3" stroke-width="6"/>
<path d="M302.493 310.576C298.109 310.576 294.669 309.104 292.173 306.16C289.677 303.184 288.429 298.88 288.429 293.248C288.429 290.432 288.749 287.952 289.389 285.808C290.029 283.664 290.957 281.856 292.173 280.384C293.389 278.912 294.861 277.808 296.589 277.072C298.349 276.304 300.317 275.92 302.493 275.92C305.405 275.92 307.837 276.56 309.789 277.84C311.773 279.12 313.325 281.008 314.445 283.504L309.885 286C309.309 284.4 308.413 283.136 307.197 282.208C306.013 281.248 304.445 280.768 302.493 280.768C299.901 280.768 297.869 281.648 296.397 283.408C294.925 285.168 294.189 287.6 294.189 290.704V295.792C294.189 298.896 294.925 301.328 296.397 303.088C297.869 304.848 299.901 305.728 302.493 305.728C304.509 305.728 306.141 305.216 307.389 304.192C308.669 303.136 309.613 301.792 310.221 300.16L314.589 302.8C313.469 305.232 311.901 307.136 309.885 308.512C307.869 309.888 305.405 310.576 302.493 310.576Z" fill="#4B90F3"/>
<path d="M4.04795 245.419L7.04343 245.255L4.04795 245.419ZM21.4171 221.489L20.8299 218.547L21.4171 221.489ZM57 251.2L57.1556 216.559L27.0781 233.745L57 251.2ZM41.9793 267.001C33.6497 266.761 24.911 264.655 18.2507 260.842C11.598 257.032 7.40185 251.782 7.04343 245.255L1.05246 245.584C1.56141 254.853 7.57349 261.642 15.2693 266.048C22.9574 270.451 32.7076 272.737 41.8066 272.999L41.9793 267.001ZM7.04343 245.255C6.6923 238.86 8.50018 234.098 11.258 230.745C14.0453 227.357 17.9424 225.242 22.0043 224.431L20.8299 218.547C15.5596 219.599 10.3832 222.364 6.6244 226.934C2.83621 231.539 0.625582 237.81 1.05246 245.584L7.04343 245.255ZM22.0043 224.431C28.0931 223.216 35.254 224.38 41.6188 230.005L45.5924 225.51C37.7106 218.543 28.6054 216.995 20.8299 218.547L22.0043 224.431Z" fill="#4B90F3"/>
<rect x="36" y="248" width="90" height="90" rx="45" stroke="#4B90F3" stroke-width="6"/>
<path d="M69.3077 276.496H84.1397C86.9237 276.496 89.0997 277.28 90.6677 278.848C92.2677 280.416 93.0677 282.512 93.0677 285.136C93.0677 286.384 92.8917 287.456 92.5397 288.352C92.1877 289.216 91.7397 289.936 91.1957 290.512C90.6517 291.056 90.0277 291.472 89.3237 291.76C88.6197 292.016 87.9317 292.176 87.2597 292.24V292.528C87.9317 292.56 88.6677 292.72 89.4677 293.008C90.2997 293.296 91.0677 293.76 91.7717 294.4C92.4757 295.008 93.0677 295.808 93.5477 296.8C94.0277 297.76 94.2677 298.944 94.2677 300.352C94.2677 301.696 94.0437 302.96 93.5957 304.144C93.1797 305.328 92.5877 306.352 91.8197 307.216C91.0517 308.08 90.1397 308.768 89.0837 309.28C88.0277 309.76 86.8757 310 85.6277 310H69.3077V276.496ZM74.7317 305.344H84.0437C85.4517 305.344 86.5557 304.976 87.3557 304.24C88.1557 303.504 88.5557 302.448 88.5557 301.072V299.44C88.5557 298.064 88.1557 297.008 87.3557 296.272C86.5557 295.536 85.4517 295.168 84.0437 295.168H74.7317V305.344ZM74.7317 290.656H83.1317C84.4757 290.656 85.5157 290.32 86.2517 289.648C86.9877 288.944 87.3557 287.952 87.3557 286.672V285.136C87.3557 283.856 86.9877 282.88 86.2517 282.208C85.5157 281.504 84.4757 281.152 83.1317 281.152H74.7317V290.656Z" fill="#4B90F3"/>
<path d="M171.222 12.0173L173.402 14.0788L171.222 12.0173ZM200.9 7.89685L199.217 10.3804L200.9 7.89685ZM204.324 53.8063L229.422 29.9297L196.196 20.1325L204.324 53.8063ZM182.174 53.9548C176.478 47.8422 171.86 40.1555 169.949 32.7819C168.042 25.4249 168.906 18.8317 173.402 14.0788L169.043 9.95576C162.639 16.7259 161.923 25.7303 164.141 34.2871C166.354 42.8273 171.564 51.3704 177.784 58.0452L182.174 53.9548ZM173.402 14.0788C182.061 4.92411 192.367 5.73867 199.217 10.3804L202.583 5.41332C193.566 -0.696577 179.936 -1.56119 169.043 9.95576L173.402 14.0788ZM199.217 10.3804C204.378 13.8771 208.541 19.7417 208.964 28.0609L214.957 27.7557C214.428 17.3749 209.145 9.85954 202.583 5.41332L199.217 10.3804Z" fill="#4B90F3"/>
<rect x="146" y="56" width="90" height="90" rx="45" stroke="#4B90F3" stroke-width="6"/>
<path d="M200.165 118L197.141 108.928H184.613L181.685 118H176.165L187.589 84.496H194.405L205.829 118H200.165ZM190.997 89.488H190.757L185.909 104.272H195.797L190.997 89.488Z" fill="#4B90F3"/>
</svg>
